<?xml version="1.0" encoding="utf-8"?>
<!-- Generator: Adobe Illustrator 16.0.0, SVG Export Plug-In . SVG Version: 6.00 Build 0)  -->
<!DOCTYPE svg PUBLIC "-//W3C//DTD SVG 1.1//EN" "http://www.w3.org/Graphics/SVG/1.1/DTD/svg11.dtd">
<svg version="1.1" id="Layer_1" xmlns="http://www.w3.org/2000/svg" xmlns:xlink="http://www.w3.org/1999/xlink" x="0px" y="0px"
	 width="445.5px" height="150px" viewBox="0 0 445.5 150" enable-background="new 0 0 445.5 150" xml:space="preserve">
<g>
	<path fill="#038586" d="M251.07,50.54c0.281-7.166,4.227-13.819,7.681-19.836c2.379-3.688,5.146-7.267,7.972-10.618
		c-1.887,0.276-3.31,0.73-5.391,1.051c-0.927,0.208-1.046-1.03-0.468-1.37c2.544-0.696,5.189-1.339,7.752-1.912
		c4.485-5.21,7.289-8.131,11.041-11.717c1.502-1.446,4.243-4.145,6.812-4.636c1.841,0.052,5.524,0.769,3.974,3.166
		c-2.676,3.201-5.075,5.923-8.714,10.274c3.336-0.506,6.681-1.034,10.047-1.544c1.486,0.161,1.846,1.104,0.537,1.8
		c-0.916,0.225-0.916,0.225-12.487,2.158c-0.176,0.162-0.357,0.351-0.526,0.533c-2.329,3.114-4.587,6.187-6.767,9.396
		c-4.746,7.513-8.897,14.799-10.579,23.663c-0.123,0.726-0.243,2.221,0.281,2.767c0.641,0.003,1.66-0.558,2.335-0.853
		c8.9-4.598,16.202-10.716,24.803-16.095c3.955-9.421,8.446-18.959,13.554-27.78c1.122-1.254,2.199-0.548,1.748,0.35
		c-2.813,4.927-9.98,18.952-12.31,25.461c5.336-3.679,13.344-8.519,19.098-10.996c2.125-0.917,5.138-0.332,6.388,2.178
		c0.48,0.974,0.502,3.267,0.066,4.383c-2.271,5.965-4.905,10.612-7.438,16.347c-0.938,2.477-2.818,5.783-2.5,7.752
		c0.25,1.57,10.541-5.846,12.165-7.183c0.595-0.501,4.593-3.758,5.303-4.239c1.516-1.033,2.637-1.803,3.992-1.739
		c2.724,0.141,5.384,1.926,3.854,3.579c-7.095,7.65-14.734,15.44-24.117,17.906c-4.14,1.102-10.054-1.966-10.38-7.279
		c-0.281-4.44,1.129-8.682,2.905-12.724c0.796-1.764,2.869-6.2,3.831-8.024c-6.281,4.085-12.088,8.281-18.099,13.072
		c-2.005,5.353-2.953,8.036-4.417,13.729c-0.503,1.982-2.947,1.429-2.521-0.137c0.745-2.761,2.867-8.311,3.836-11.262
		c-5.229,3.885-10.581,8.561-16.498,11.266c-3.151,1.44-6.61,2.005-9.21,1.141C252.86,60.609,251.07,56.602,251.07,50.54
		L251.07,50.54z M334.236,35.004c-1.798-0.343-2.463-1.699-2.089-3.443c1.953-4.206,7.345-0.417,4.319,2.843
		C335.833,34.93,335.285,35.202,334.236,35.004L334.236,35.004z"/>
	<g>
		<path fill="#010101" d="M2.868,80.395H21.1v3.049h-7.288v22.935h-3.657V83.442H2.868V80.395z"/>
		<path fill="#010101" d="M24.987,80.395h14.057v2.804H28.62v8.239h9.849v2.925H28.62v9.021h10.774v2.999H24.987V80.395z"/>
		<path fill="#010101" d="M63.227,81.318l-0.144,3.142c-0.998-0.412-1.979-0.721-2.937-0.929c-0.957-0.209-1.931-0.312-2.919-0.312
			c-3.121,0-5.6,0.911-7.436,2.733c-1.833,1.821-2.752,4.281-2.752,7.378c0,3.135,0.914,5.595,2.74,7.387
			c1.831,1.791,4.324,2.688,7.483,2.688c1,0,1.976-0.097,2.927-0.287c0.953-0.187,1.891-0.467,2.815-0.836l0.111,3.27
			c-0.903,0.292-1.866,0.517-2.89,0.671c-1.021,0.154-2.111,0.231-3.252,0.231c-4.26,0-7.615-1.155-10.069-3.467
			c-2.459-2.306-3.69-5.454-3.69-9.441c0-4.037,1.252-7.25,3.759-9.635c2.503-2.389,5.872-3.582,10.105-3.582
			c1.134,0,2.218,0.08,3.247,0.242C61.354,80.735,62.326,80.978,63.227,81.318z"/>
		<path fill="#010101" d="M67.406,80.395h3.633v10.991h11.801V80.395h3.633v25.983h-3.633V94.359H71.039v12.018h-3.633V80.395z"/>
		<path fill="#010101" d="M92.991,80.395h4.582l11.304,20.223c0.158,0.294,0.353,0.74,0.579,1.346c0.226,0.6,0.457,1.312,0.705,2.13
			c-0.16-0.953-0.281-1.811-0.365-2.569c-0.083-0.766-0.127-1.417-0.127-1.969v-19.16h3.341v25.983h-4.456L97.048,85.97
			c-0.146-0.242-0.325-0.653-0.532-1.234c-0.207-0.58-0.437-1.331-0.696-2.263c0.184,1.395,0.317,2.467,0.396,3.221
			c0.078,0.754,0.12,1.3,0.12,1.63v19.053h-3.341V80.395H92.991z"/>
		<path fill="#010101" d="M119.473,80.395h3.629v25.983h-3.629V80.395z"/>
		<path fill="#010101" d="M142.788,81.075l-0.363,3.193c-0.806-0.392-1.634-0.684-2.48-0.881c-0.85-0.192-1.739-0.292-2.664-0.292
			c-1.577,0-2.81,0.292-3.692,0.882c-0.886,0.582-1.331,1.383-1.331,2.407c0,0.806,0.298,1.536,0.898,2.192
			c0.597,0.657,1.888,1.53,3.869,2.614c2.573,1.415,4.346,2.7,5.328,3.859c0.974,1.161,1.461,2.479,1.461,3.968
			c0,2.207-0.808,4.013-2.428,5.427c-1.611,1.42-3.69,2.124-6.228,2.124c-1.232,0-2.405-0.1-3.531-0.299
			c-1.122-0.197-2.171-0.489-3.145-0.871l0.366-3.486c1.072,0.563,2.111,0.983,3.109,1.251c1.004,0.271,1.978,0.405,2.931,0.405
			c1.526,0,2.757-0.342,3.679-1.024c0.93-0.683,1.394-1.585,1.394-2.708c0-1.744-1.827-3.649-5.479-5.723
			c-0.617-0.343-1.076-0.613-1.396-0.805c-1.393-0.808-2.48-1.789-3.272-2.944c-0.793-1.159-1.186-2.349-1.186-3.568
			c0-2.027,0.768-3.631,2.314-4.819c1.543-1.189,3.644-1.783,6.305-1.783c0.988,0,1.946,0.075,2.873,0.22
			C141.045,80.565,141.937,80.782,142.788,81.075z"/>
		<path fill="#010101" d="M167.651,81.318l-0.146,3.142c-0.999-0.412-1.979-0.721-2.937-0.929c-0.955-0.209-1.931-0.312-2.917-0.312
			c-3.124,0-5.6,0.911-7.433,2.733c-1.836,1.821-2.755,4.281-2.755,7.378c0,3.135,0.914,5.595,2.743,7.387
			c1.827,1.791,4.318,2.688,7.48,2.688c0.999,0,1.973-0.097,2.925-0.287c0.95-0.187,1.89-0.467,2.818-0.836l0.109,3.27
			c-0.899,0.292-1.865,0.517-2.886,0.671c-1.027,0.154-2.111,0.231-3.259,0.231c-4.254,0-7.611-1.155-10.069-3.467
			c-2.458-2.306-3.685-5.454-3.685-9.441c0-4.037,1.252-7.25,3.759-9.635c2.507-2.389,5.875-3.582,10.105-3.582
			c1.131,0,2.218,0.08,3.25,0.242C165.779,80.729,166.746,80.978,167.651,81.318z"/>
		<path fill="#010101" d="M171.832,80.395h3.632v10.991h11.794V80.395h3.633v25.983h-3.633V94.359h-11.794v12.018h-3.632V80.395z"/>
		<path fill="#010101" d="M197.418,80.395h14.051v2.804H201.05v8.239h9.843v2.925h-9.843v9.021h10.768v2.999h-14.4V80.395z"/>
		<path fill="#010101" d="M228.36,80.395h3.63v15.297c0,2.782,0.504,4.835,1.511,6.173c1.014,1.331,2.558,2.001,4.627,2.001
			c2.089,0,3.672-0.719,4.734-2.15c1.06-1.431,1.585-3.549,1.585-6.353V80.39h3.393v15.046c0,3.804-0.817,6.66-2.45,8.567
			c-1.643,1.906-4.1,2.863-7.372,2.863c-3.173,0-5.572-0.935-7.206-2.8c-1.631-1.866-2.449-4.618-2.449-8.265V80.395H228.36z"/>
		<path fill="#010101" d="M254.352,80.395h4.582l11.301,20.223c0.16,0.294,0.356,0.74,0.582,1.346c0.225,0.6,0.454,1.312,0.698,2.13
			c-0.161-0.953-0.282-1.811-0.366-2.569c-0.085-0.766-0.127-1.417-0.127-1.969v-19.16h3.342v25.983h-4.455L258.401,85.97
			c-0.146-0.242-0.318-0.653-0.53-1.234c-0.206-0.58-0.438-1.331-0.692-2.263c0.177,1.395,0.311,2.467,0.395,3.221
			c0.078,0.754,0.116,1.3,0.116,1.63v19.053h-3.341L254.352,80.395L254.352,80.395z"/>
		<path fill="#010101" d="M280.848,80.395h3.631v25.983h-3.631V80.395z"/>
		<path fill="#010101" d="M288.401,80.395h3.863l7.625,22.51l7.898-22.51h3.674l-9.576,25.983h-4.246L288.401,80.395z"/>
		<path fill="#010101" d="M315.226,80.395h14.058v2.804h-10.425v8.239h9.849v2.925h-9.849v9.021h10.774v2.999h-14.407V80.395z"/>
		<path fill="#010101" d="M334.743,80.395h7.001c2.96,0,5.189,0.555,6.683,1.672c1.48,1.116,2.232,2.777,2.232,4.98
			c0,1.646-0.486,3.018-1.463,4.106c-0.978,1.093-2.374,1.833-4.196,2.224c0.777,0.208,1.416,0.561,1.904,1.057
			c0.478,0.502,0.984,1.373,1.511,2.614l3.929,9.33h-3.895l-3.415-8.51c-0.451-1.095-1.015-1.865-1.703-2.319
			c-0.681-0.452-1.652-0.677-2.906-0.677h-2.077v11.505h-3.607V80.395H334.743z M338.354,83.194v8.851h2.793
			c1.816,0,3.236-0.401,4.259-1.2c1.036-0.799,1.557-1.897,1.557-3.299c0-1.5-0.481-2.602-1.444-3.299
			c-0.956-0.704-2.448-1.052-4.481-1.052L338.354,83.194L338.354,83.194z"/>
		<path fill="#010101" d="M370.123,81.075l-0.37,3.193c-0.805-0.392-1.629-0.684-2.479-0.881c-0.848-0.197-1.734-0.292-2.658-0.292
			c-1.587,0-2.813,0.292-3.697,0.882c-0.881,0.582-1.33,1.383-1.33,2.407c0,0.806,0.296,1.536,0.902,2.192
			c0.594,0.657,1.889,1.53,3.87,2.614c2.567,1.415,4.341,2.7,5.32,3.859c0.973,1.161,1.463,2.479,1.463,3.968
			c0,2.207-0.807,4.013-2.425,5.427c-1.612,1.42-3.694,2.124-6.228,2.124c-1.233,0-2.409-0.1-3.527-0.299
			c-1.126-0.197-2.175-0.489-3.148-0.871l0.361-3.486c1.076,0.563,2.117,0.983,3.113,1.251c0.998,0.271,1.979,0.405,2.931,0.405
			c1.521,0,2.759-0.342,3.683-1.024c0.927-0.683,1.387-1.585,1.387-2.708c0-1.744-1.823-3.649-5.481-5.723
			c-0.608-0.343-1.068-0.613-1.391-0.805c-1.389-0.808-2.479-1.789-3.272-2.944c-0.789-1.159-1.185-2.349-1.185-3.568
			c0-2.027,0.775-3.631,2.314-4.819c1.54-1.189,3.644-1.783,6.302-1.783c0.992,0,1.947,0.075,2.875,0.22
			C368.376,80.565,369.265,80.782,370.123,81.075z"/>
		<path fill="#010101" d="M376.129,80.395h3.629v25.983h-3.629V80.395z"/>
		<path fill="#010101" d="M383.654,80.395h18.235v3.049h-7.288v22.935h-3.658V83.442h-7.289V80.395L383.654,80.395z"/>
		<path fill="#010101" d="M410.96,80.395h4.424l10.188,25.983h-3.936l-2.503-6.676h-12.367l-2.507,6.676h-3.677L410.96,80.395z
			 M413.101,83.575l-5.163,13.221h10.152L413.101,83.575z M408.729,73.104h3.122v3.486h-3.122V73.104z M414.824,73.104h3.116v3.486
			h-3.116V73.104z"/>
		<path fill="#010101" d="M423.974,80.395h18.235v3.049h-7.292v22.935h-3.658V83.442h-7.285V80.395L423.974,80.395z"/>
	</g>
	<g>
		<path fill="#010101" d="M269.694,122.498h6.924v25.987h-6.924V122.498z"/>
		<path fill="#010101" d="M282.18,122.498h6.918v20.841h10.434v5.146H282.18V122.498z"/>
		<path fill="#010101" d="M303.067,122.498h10.565l4.757,15.614c0.183,0.624,0.334,1.321,0.45,2.091
			c0.114,0.772,0.2,1.605,0.267,2.498c0.083-0.962,0.193-1.849,0.324-2.662c0.134-0.807,0.288-1.499,0.456-2.071l4.756-15.471h10.4
			v25.987h-6.508v-17.449c0-0.828,0.026-1.687,0.074-2.575c0.047-0.891,0.121-1.844,0.216-2.854
			c-0.172,0.778-0.347,1.527-0.53,2.237c-0.18,0.712-0.374,1.387-0.584,2.02l-5.846,18.619h-6.226l-5.719-18.309
			c-0.195-0.635-0.383-1.339-0.563-2.113c-0.19-0.772-0.357-1.594-0.516-2.46c0.081,1.23,0.158,2.339,0.21,3.318
			c0.056,0.983,0.077,1.723,0.077,2.222v17.335h-6.066v-25.978L303.067,122.498L303.067,122.498z"/>
		<path fill="#010101" d="M340.574,122.498h18.062v4.871h-11.142v5.219h10.507v4.947h-10.507v5.929h11.556v5.022h-18.476V122.498
			L340.574,122.498z"/>
		<path fill="#010101" d="M363.877,122.498h8.648l7.511,15.579c0.256,0.525,0.556,1.253,0.897,2.185
			c0.339,0.933,0.719,2.073,1.128,3.428c-0.22-1.279-0.382-2.455-0.487-3.525c-0.1-1.073-0.154-2.055-0.154-2.946v-14.719h6.266
			v25.987h-8.61l-7.813-16.151c-0.365-0.743-0.701-1.55-1.002-2.421c-0.307-0.87-0.58-1.818-0.839-2.84
			c0.244,1.547,0.421,2.973,0.537,4.271c0.112,1.296,0.18,2.443,0.18,3.43v13.718h-6.27v-25.994L363.877,122.498L363.877,122.498z"
			/>
		<path fill="#010101" d="M400.371,122.498h8.36l9.841,25.987h-7.403l-1.854-5.489h-10.007l-1.938,5.489h-6.854L400.371,122.498z
			 M404.416,128.3l-3.368,9.749h6.621L404.416,128.3z"/>
		<path fill="#010101" d="M419.861,122.498h6.916v15.136c0,2.218,0.328,3.82,0.992,4.805c0.655,0.993,1.712,1.483,3.164,1.483
			c1.49,0,2.614-0.531,3.365-1.592c0.76-1.058,1.136-2.626,1.136-4.696v-15.136h6.603v15.136c0,3.82-0.92,6.688-2.77,8.599
			c-1.844,1.906-4.62,2.865-8.325,2.865c-3.674,0-6.433-0.964-8.291-2.881c-1.857-1.921-2.789-4.779-2.789-8.581L419.861,122.498
			L419.861,122.498L419.861,122.498z"/>
	</g>
</g>
</svg>
