<?xml version="1.0" encoding="utf-8"?>
<!-- Generator: Adobe Illustrator 16.0.0, SVG Export Plug-In . SVG Version: 6.00 Build 0)  -->
<!DOCTYPE svg PUBLIC "-//W3C//DTD SVG 1.1//EN" "http://www.w3.org/Graphics/SVG/1.1/DTD/svg11.dtd">
<svg version="1.1"
	 id="svg2" xmlns:svg="http://www.w3.org/2000/svg" xmlns:rdf="http://www.w3.org/1999/02/22-rdf-syntax-ns#" xmlns:cc="http://creativecommons.org/ns#" xmlns:dc="http://purl.org/dc/elements/1.1/"
	 xmlns="http://www.w3.org/2000/svg" xmlns:xlink="http://www.w3.org/1999/xlink" x="0px" y="0px" width="283.463px"
	 height="106.75px" viewBox="0 0 283.463 106.75" enable-background="new 0 0 283.463 106.75" xml:space="preserve">
<g id="g10" transform="matrix(1.25,0,0,-1.25,0,106.75)">
	<g id="g12" transform="scale(0.1,0.1)">
		<g id="g14">
			<g>
				<g>
					<g id="g16">
						<path id="path22" fill="#393536" d="M400.68,204.547c-41.25,0-82.492,13.977-88.691,16.172
							c-11.086,3.906-16.891,16.047-12.98,27.125c3.922,11.07,16.047,16.883,27.133,12.977c19.32-6.789,75.969-21.586,105.32-8.711
							l4.52,1.953c22.086,9.453,44.93,19.234,44.93,57.539c0,25.945-19.391,47.039-39.93,69.367
							c-22.945,24.953-46.688,50.766-46.688,86.902c0.008,19.469,3.766,37.285,11.172,52.953
							c5.016,10.617,17.688,15.168,28.305,10.137c10.617-5.02,15.164-17.695,10.141-28.309c-4.766-10.09-7.074-21.465-7.094-34.785
							c0-19.555,16.441-37.43,35.469-58.117c23.98-26.063,51.148-55.617,51.148-98.148c0-66.359-46-86.055-70.711-96.641
							l-4.195-1.797C434.141,206.844,417.402,204.547,400.68,204.547"/>
						<path id="path24" fill="#393536" d="M443.922,502.66l-38.453,18.156c10.711,22.699,27.281,37.207,40.52,47.313
							c54.191,41.379,103.625,40.246,105.695,40.137l-1.438-42.492c-1.461,0.063-36.984,0.219-78.453-31.441
							C461.305,526.324,450.66,516.941,443.922,502.66"/>
						<path id="path26" fill="#00AAAF" d="M305.309,815.879l51.867-119.934l-42.961-18.156
							c-16.922,3.52-74.398,14.063-94.523,33.109c-15.938,15.094-27.133,47.953-30.672,56.461L305.309,815.879"/>
						<path id="path28" fill="#00AAAF" d="M492.441,0h-0.43C280.949,1.406,106.027,108.438,35.52,279.328
							c-37.629,91.203-45.668,193.398-22.656,287.781c23.281,95.434,77.422,178.82,152.453,234.797
							c3.086,2.297,3.086,2.297,88.855,37.59l35.305,14.547l16.227-39.312l-35.344-14.555
							c-30.805-12.676-72.211-29.715-81.391-33.688C52.641,663.402,4.605,465.754,74.824,295.547
							c63.5-153.891,221.984-250.625,414.125-252.984c12.98,4.82,67.156,27.578,115.137,48.062l16.691-39.102
							C503.16,1.289,497.727,0,492.441,0"/>
						<path id="path30" fill="#00AAAF" d="M645.019,155.672c4.25-10.266,1.469-21.172-6.219-24.359l-145.66-60.328
							c-7.68-3.18-17.359,2.547-21.617,12.828l-13.422,32.422c-4.258,10.258-1.469,21.172,6.219,24.352l145.656,60.336
							c7.688,3.18,17.375-2.563,21.625-12.828L645.019,155.672"/>
						<path id="path32" fill="#00AAAF" d="M445.152,649.133c4.258-10.27,1.473-21.172-6.219-24.359l-145.656-60.336
							c-7.68-3.184-17.375,2.559-21.625,12.824l-13.43,32.41c-4.258,10.27-1.461,21.184,6.227,24.367l145.656,60.332
							c7.68,3.188,17.367-2.555,21.625-12.828L445.152,649.133"/>
						<path id="path34" fill="#FFFFFF" d="M434.309,507.203l-19.234,9.074c9.691,20.504,24.32,33.445,37.359,43.406
							c51.25,39.109,97.039,37.977,98.891,37.965l20.039,0.004v-21.262h-20.395c-0.758-0.02-40.816,0.602-85.633-33.613
							C454.336,534.379,442.047,523.586,434.309,507.203"/>
						<path id="path36" fill="#FFFFFF" d="M428.891,489.887c0-6.402-5.191-11.586-11.586-11.586
							c-6.406,0-11.594,5.184-11.594,11.586s5.188,11.59,11.594,11.59C423.699,501.477,428.891,496.289,428.891,489.887"/>
						<path id="path38" fill="#FFFFFF" d="M426.766,458.203c0-5.488-4.453-9.938-9.93-9.938c-5.492,0-9.945,4.449-9.945,9.938
							c0,5.48,4.453,9.934,9.945,9.934C422.309,468.137,426.766,463.684,426.766,458.203"/>
						<path id="path40" fill="#FFFFFF" d="M436.699,429.695c0-4.566-3.711-8.273-8.277-8.273s-8.27,3.707-8.27,8.273
							s3.703,8.273,8.27,8.273S436.699,434.262,436.699,429.695"/>
						<path id="path42" fill="#393637" d="M618.555,224.641l-25.191,0.031l38.164,297.262h-83.875l3.164,23.637h193.203
							l-3.18-23.637h-84.102L618.555,224.641"/>
						<path id="path44" fill="#393637" d="M749.269,225.063l41.375,320.996l25.195-0.027l-41.82-320.938L749.269,225.063"/>
						<path id="path46" fill="#393637" d="M1000.269,219.641l-4.016,0.031l-33.789,95.852l-7.734,23.633l-13.688,37.719
							l-8.648,26.828l-10.016,27.719l-5.336,18.676l-7.656,25.477l-1.797,10.902c-2.102-12.129-4.602-25.324-7.438-39.574
							c-2.867-14.25-6.398-30.168-10.602-47.762l-15.484-61.352L846.883,224.57l-25.262,0.07l79.992,327.289h4.559l30.855-90.016
							l25.484-74.102l25.789-72.156l14.805-50.984l33.18,57.641l23.59,37.313l19.949,32.75l22.164,34.781l36.441,58.605
							l40.586,66.129l3.086,0.039l-10.453-327.289h-24.984c0,10,0.359,22.719,1.117,38.187c0.75,15.461,1.133,24.398,1.133,26.828
							l4.102,90.484v25.461l1.813,30.016l1.352,27.277l2.195,15.461l-8.203-14.078l-7.164-13.254l-10.133-17.195l-13.047-21.906
							l-20.898-32.742l-50.375-81.875L1000.269,219.641"/>
						<path id="path48" fill="#393637" d="M1323.101,219.188c-10,0-21.609,1.359-34.781,4.094
							c-13.188,2.719-25.547,8.406-37.063,17.047c-11.531,8.641-20.234,18.57-26.156,29.789
							c-5.891,11.227-8.859,25.164-8.859,41.836c0,9.391,0.563,18.797,1.688,28.195c1.125,9.391,2.391,18.789,3.781,28.195
							l10.109,78.625l9.844,76.336l3,23.605l24.781,0.023l-24.109-187.277c-1.016-7.281-1.953-15.461-2.797-24.555
							c-0.875-9.086-1.281-15.617-1.281-19.555c0-6.969,0.438-13.25,1.344-18.859c0.922-5.602,3.422-12.43,7.531-20.453
							c4.109-8.031,12.906-15.609,26.438-22.727c13.531-7.117,29.391-10.688,47.625-10.688c6.688,0,17.547,1.438,32.594,4.305
							c15.016,2.891,28.234,12.969,39.625,30.25c11.406,17.266,19.375,43.93,23.938,80l4.031,32.281l11.109,89.133l8.5,68.145
							l24.75-0.023l-20.141-157.723c-2.422-19.391-4.773-37.422-7.047-54.094c-2.25-16.664-5.375-30.391-9.313-41.141
							s-8.031-19.461-12.281-26.125c-4.25-6.672-10.156-13.797-17.734-21.359c-7.578-7.578-18.875-14.031-33.891-19.328
							C1353.344,221.844,1338.289,219.188,1323.101,219.188"/>
						<path id="path50" fill="#393637" d="M1604.054,224.641h-130.469l41.375,321.391l24.75,0.027l-38.328-297.777h107.219
							l-2.703-20.117L1604.054,224.641"/>
						<path id="path52" fill="#393637" d="M1860.422,224.438l-26.477,103.391h-130.969l-53.297-103.359l-27.125,0.172h1.391
							l0.477,3.523l171.328,326.047h4.563l85.906-329.57L1860.422,224.438 M1790.773,498.82l-26.219-52.879l-49.859-95.848h112.977
							L1790.773,498.82"/>
						<path id="path54" fill="#393637" d="M1605.422,224.641h-1.367l1.844,3.523L1605.422,224.641"/>
						<path id="path56" fill="#393637" d="M1959.344,224.641l-25.219,0.031l38.18,297.262h-83.883l3.172,23.637h193.195
							l-3.188-23.637h-84.078L1959.344,224.641"/>
						<path id="path58" fill="#393637" d="M2227.258,224.641h-151.813l40.469,321.391h151.797L2265,521.48h-126.984l-13.781-109.559
							h126.664l-3.195-24.547h-127.031l-17.57-139.547h126.875L2227.258,224.641"/>
					</g>
				</g>
			</g>
		</g>
	</g>
</g>
</svg>
