<?xml version="1.0" encoding="utf-8"?>
<!-- Generator: Adobe Illustrator 16.0.0, SVG Export Plug-In . SVG Version: 6.00 Build 0)  -->
<!DOCTYPE svg PUBLIC "-//W3C//DTD SVG 1.1//EN" "http://www.w3.org/Graphics/SVG/1.1/DTD/svg11.dtd">
<svg version="1.1" id="Layer_1" xmlns="http://www.w3.org/2000/svg" xmlns:xlink="http://www.w3.org/1999/xlink" x="0px" y="0px"
	 width="397.833px" height="150px" viewBox="0 0 397.833 150" enable-background="new 0 0 397.833 150" xml:space="preserve">
<g id="g10" transform="matrix(1.25,0,0,-1.25,0,106.75)">
	<g id="g12" transform="scale(0.1,0.1)">
		<g id="g14">
			<g>
				<defs>
					<rect id="SVGID_1_" x="1395.028" y="180.793" width="397.251" height="149.602"/>
				</defs>
				<clipPath id="SVGID_2_">
					<use xlink:href="#SVGID_1_"  overflow="visible"/>
				</clipPath>
				<g id="g16" clip-path="url(#SVGID_2_)">
					<path id="path22" fill="#393536" d="M566.172-56.156c-57.812,0-115.605,19.594-124.289,22.656
						c-15.535,5.477-23.668,22.5-18.195,38.023c5.496,15.508,22.484,23.656,38.023,18.18c27.074-9.516,106.461-30.25,147.598-12.211
						l6.336,2.742c30.957,13.242,62.969,26.953,62.969,80.641c0,36.352-27.176,65.914-55.961,97.211
						c-32.152,34.969-65.426,71.145-65.426,121.785c0.008,27.281,5.277,52.25,15.652,74.211
						c7.031,14.879,24.793,21.254,39.672,14.207c14.879-7.035,21.25-24.801,14.211-39.676c-6.684-14.141-9.922-30.078-9.945-48.746
						c0-27.406,23.039-52.457,49.711-81.445c33.602-36.523,71.676-77.945,71.676-137.547c0-93-64.465-120.602-99.09-135.43
						l-5.883-2.523C613.062-52.938,589.609-56.156,566.172-56.156"/>
					<path id="path24" fill="#393536" d="M626.769,361.625l-53.891,25.445c15.012,31.809,38.238,52.145,56.793,66.305
						c75.938,57.988,145.219,56.402,148.125,56.246l-2.016-59.547c-2.047,0.086-51.828,0.305-109.945-44.063
						C651.129,394.789,636.219,381.637,626.769,361.625"/>
					<path id="path26" fill="#00AAAF" d="M432.519,800.578l72.691-168.082L445,607.055c-23.715,4.934-104.262,19.707-132.465,46.398
						c-22.336,21.152-38.023,67.203-42.984,79.129L432.519,800.578"/>
					<path id="path28" fill="#00AAAF" d="M694.773-342.812h-0.605C398.383-340.844,153.242-190.844,54.434,48.648
						C1.695,176.461-9.57,319.672,22.68,451.945c32.629,133.742,108.504,250.601,213.652,329.051
						c4.324,3.219,4.324,3.219,124.52,52.68l49.477,20.383l22.742-55.094l-49.535-20.398
						c-43.168-17.758-101.199-41.637-114.063-47.207C78.422,586.891,11.113,309.906,109.516,71.367
						c88.988-215.656,311.094-351.227,580.363-354.531c18.188,6.758,94.113,38.648,161.348,67.359l23.398-54.805
						C709.797-341.008,702.176-342.812,694.773-342.812"/>
					<path id="path30" fill="#00AAAF" d="M908.598-124.648c5.957-14.383,2.059-29.672-8.715-34.141l-204.137-84.539
						c-10.762-4.461-24.328,3.57-30.297,17.977l-18.809,45.43c-5.965,14.383-2.055,29.68,8.715,34.133l204.129,84.547
						c10.773,4.461,24.352-3.578,30.305-17.969L908.598-124.648"/>
					<path id="path32" fill="#00AAAF" d="M628.5,566.895c5.969-14.391,2.059-29.672-8.715-34.137l-204.129-84.555
						c-10.762-4.465-24.344,3.582-30.301,17.973l-18.82,45.422c-5.969,14.387-2.047,29.684,8.727,34.145l204.121,84.551
						c10.762,4.465,24.34-3.582,30.309-17.98L628.5,566.895"/>
					<path id="path34" fill="#FFFFFF" d="M613.305,367.988l-26.957,12.719c13.574,28.738,34.082,46.875,52.355,60.832
						c71.824,54.813,135.992,53.223,138.59,53.203l28.082,0.004v-29.793h-28.586c-1.063-0.027-57.195,0.84-120.008-47.109
						C641.367,406.074,624.141,390.953,613.305,367.988"/>
					<path id="path36" fill="#FFFFFF" d="M605.707,343.727c0-8.977-7.273-16.238-16.238-16.238c-8.977,0-16.25,7.262-16.25,16.238
						c0,8.973,7.273,16.238,16.25,16.238C598.433,359.965,605.707,352.699,605.707,343.727"/>
					<path id="path38" fill="#FFFFFF" d="M602.726,299.32c0-7.688-6.238-13.926-13.914-13.926c-7.699,0-13.941,6.238-13.941,13.926
						c0,7.68,6.242,13.922,13.941,13.922C596.488,313.242,602.726,307,602.726,299.32"/>
					<path id="path40" fill="#FFFFFF" d="M616.652,259.371c0-6.406-5.199-11.59-11.605-11.59c-6.391,0-11.582,5.184-11.582,11.59
						c0,6.398,5.191,11.598,11.582,11.598C611.453,270.969,616.652,265.77,616.652,259.371"/>
					<path id="path42" fill="#393637" d="M871.508-27.992l-35.301,0.039l53.484,416.59H772.144l4.438,33.125h270.758l-4.457-33.125
						H925.019L871.508-27.992"/>
					<path id="path44" fill="#393637" d="M1054.695-27.406l57.984,449.848l35.309-0.035l-58.605-449.766L1054.695-27.406"/>
					<path id="path46" fill="#393637" d="M1406.453-35l-5.625,0.039l-47.355,134.328l-10.84,33.125l-19.18,52.852l-12.121,37.602
						l-14.039,38.844l-7.473,26.176l-10.73,35.703l-2.52,15.277c-2.945-16.996-6.449-35.488-10.426-55.461
						c-4.016-19.969-8.965-42.281-14.855-66.938l-21.699-85.969l-38.102-158.672l-35.398,0.102l112.105,458.664h6.383
						l43.246-126.148l35.711-103.844l36.145-101.125l20.746-71.453l46.5,80.773l33.055,52.297l27.965,45.898l31.059,48.742
						l51.055,82.129l56.891,92.676l4.313,0.055l-14.648-458.664h-35.008c0,14.016,0.5,31.836,1.57,53.508
						c1.055,21.672,1.578,34.195,1.578,37.602l5.758,126.805v35.68l2.547,42.07l1.883,38.227l3.086,21.664l-11.5-19.727
						l-10.047-18.578l-14.191-24.098L1574,234.461l-29.285-45.883l-70.598-114.742L1406.453-35"/>
					<path id="path48" fill="#393637" d="M1858.871-35.641c-14,0-30.266,1.906-48.75,5.742
						c-18.461,3.813-35.781,11.781-51.914,23.891c-16.164,12.109-28.383,26.023-36.68,41.75
						c-8.258,15.727-12.398,35.258-12.398,58.625c0,13.156,0.789,26.344,2.352,39.516c1.594,13.156,3.344,26.328,5.297,39.508
						l14.164,110.191l13.797,106.977l4.227,33.078l34.711,0.035l-33.773-262.453c-1.445-10.211-2.758-21.664-3.938-34.414
						c-1.203-12.734-1.773-21.883-1.773-27.406c0-9.766,0.609-18.57,1.883-26.43c1.266-7.844,4.797-17.414,10.555-28.656
						c5.734-11.258,18.063-21.883,37.023-31.859c18.961-9.969,41.211-14.977,66.766-14.977c9.352,0,24.57,2.016,45.656,6.039
						c21.07,4.047,39.57,18.172,55.555,42.391c15.961,24.195,27.133,61.563,33.539,112.117l5.656,45.234l15.539,124.914l11.922,95.5
						l34.688-0.035l-28.203-221.035c-3.422-27.172-6.703-52.445-9.875-75.805c-3.18-23.359-7.555-42.594-13.055-57.664
						c-5.523-15.055-11.273-27.266-17.234-36.609c-5.953-9.352-14.234-19.336-24.836-29.93
						c-10.641-10.617-26.453-19.656-47.492-27.086C1901.261-31.914,1880.144-35.641,1858.871-35.641"/>
					<path id="path50" fill="#393637" d="M2252.597-27.992h-182.82l57.984,450.398l34.688,0.035L2108.73,5.141h150.242
						l-3.789-28.195L2252.597-27.992"/>
					<path id="path52" fill="#393637" d="M2611.886-28.273l-37.094,144.883h-183.539l-74.711-144.852l-38,0.25h1.93l0.688,4.938
						l240.094,456.926h6.391l120.398-461.863L2611.886-28.273 M2514.293,356.242l-36.766-74.105l-69.875-134.324h158.336
						L2514.293,356.242"/>
					<path id="path54" fill="#393637" d="M2254.519-27.992h-1.922l2.586,4.938L2254.519-27.992"/>
					<path id="path56" fill="#393637" d="M2750.519-27.992l-35.344,0.039l53.492,416.59h-117.539l4.438,33.125h270.75l-4.453-33.125
						h-117.844L2750.519-27.992"/>
					<path id="path58" fill="#393637" d="M3125.988-27.992h-212.773l56.719,450.398h212.726l-3.789-34.402h-177.953l-19.32-153.543
						h177.5l-4.469-34.398h-178.023L2951.996,4.5H3129.8L3125.988-27.992"/>
				</g>
			</g>
		</g>
	</g>
</g>
</svg>
