<?xml version="1.0" encoding="utf-8"?>
<!-- Generator: Adobe Illustrator 16.0.3, SVG Export Plug-In . SVG Version: 6.00 Build 0)  -->
<!DOCTYPE svg PUBLIC "-//W3C//DTD SVG 1.1//EN" "http://www.w3.org/Graphics/SVG/1.1/DTD/svg11.dtd">
<svg version="1.1" id="Layer_1" xmlns="http://www.w3.org/2000/svg" xmlns:xlink="http://www.w3.org/1999/xlink" x="0px" y="0px"
	 width="128px" height="128px" viewBox="0 0 128 128" enable-background="new 0 0 128 128" xml:space="preserve">
<path fill-rule="evenodd" clip-rule="evenodd" d="M105.883,117.174C92.184,103.46,78.326,89.587,64.236,75.48
	c-14.252,14.301-28.185,28.281-42.299,42.443c-4.049-4.293-7.553-8.01-11.108-11.78c13.733-13.7,27.621-27.555,41.587-41.486
	C37.984,50.264,24.013,36.33,9.792,22.147c4.531-4.106,8.313-7.534,12.512-11.339c13.436,13.514,27.351,27.509,41.42,41.66
	c14.284-14.304,28.135-28.173,42.213-42.271c3.765,4.173,7.169,7.945,10.956,12.144C103.423,35.5,89.317,49.278,74.817,63.442
	c14.806,14.754,28.785,28.686,42.94,42.793C113.683,109.989,110.021,113.362,105.883,117.174z"/>
</svg>
