<?xml version="1.0" encoding="utf-8"?>
<!-- Generator: Adobe Illustrator 16.0.3, SVG Export Plug-In . SVG Version: 6.00 Build 0)  -->
<!DOCTYPE svg PUBLIC "-//W3C//DTD SVG 1.1//EN" "http://www.w3.org/Graphics/SVG/1.1/DTD/svg11.dtd">
<svg version="1.1" id="Layer_1" xmlns="http://www.w3.org/2000/svg" xmlns:xlink="http://www.w3.org/1999/xlink" x="0px" y="0px"
	 width="175px" height="95px" viewBox="0 0 175 95" enable-background="new 0 0 175 95" xml:space="preserve">
<polygon fill="#0F9A49" points="49.845,64.796 56.256,53.192 72.195,56.066 "/>
<polygon fill="#996137" points="80.423,51.635 74.416,42.428 92.303,39.857 "/>
<polygon fill="#DAAB27" points="51.867,2.328 47.7,13.5 37.396,3.738 "/>
<polygon fill="#FAE251" points="54.082,3.277 67.709,17.641 49.915,14.449 "/>
<path fill="#F7E908" d="M52.816,0.15l18.063,4.892l-4.435,9.47L52.816,0.15z"/>
<polygon fill="#2666B0" points="2.128,51.79 0,39.705 9.526,32.185 "/>
<polygon fill="#DAAB27" points="68.66,14.159 73.093,4.689 83.034,10.966 "/>
<polygon fill="#A17E2D" points="90.708,56.098 77.892,56.383 89.77,44.604 "/>
<polygon fill="#D81E3B" points="15.744,13.026 24.573,9.218 20.761,20.166 "/>
<polygon fill="#0E5941" points="49.529,62.896 42.98,61.082 55.939,51.292 "/>
<polygon fill="#9B6D5A" points="47.946,63.213 39.635,69.09 41.398,61.398 "/>
<polygon fill="#C4A694" points="24.711,76.337 18.963,66.972 30.965,70.499 "/>
<polygon fill="#D51C5D" points="20.761,20.166 14.981,28.373 9.37,20.218 "/>
<polygon fill="#1F9DD9" points="9.526,32.185 0,39.705 6.573,26.442 "/>
<polygon fill="#20ABE3" points="9.454,56.127 2.128,51.79 11.164,46.277 "/>
<polygon fill="#FADA1E" points="38.659,74.954 34.2,85.848 29.623,85.848 "/>
<polygon fill="#E66EAA" points="20.761,20.166 9.37,20.218 15.744,13.026 "/>
<polygon fill="#E66EAA" points="9.37,20.218 14.981,28.373 6.573,26.442 "/>
<polygon fill="#9B6D5A" points="12.994,69.582 14.789,56.188 18.963,66.972 "/>
<polygon fill="#5ABA49" points="50.161,65.744 72.512,57.015 64.953,66.623 "/>
<polygon fill="#A17E2D" points="29.623,85.848 30.163,76.642 39.635,69.09 "/>
<polygon fill="#D9C3B7" points="30.163,76.642 30.974,70.509 39.635,69.09 "/>
<polygon fill="#5D352A" points="12.994,69.582 18.963,66.972 20.179,75.09 "/>
<polygon fill="#DAAB27" points="39.635,69.09 38.659,74.954 29.623,85.848 "/>
<polygon fill="#996137" points="18.963,66.972 24.711,76.337 20.179,75.09 "/>
<polygon fill="#C4A694" points="6.757,62.41 9.454,56.127 12.994,69.582 "/>
<polygon fill="#AA2154" points="36.129,5.954 32.837,12.96 24.573,9.218 "/>
<polygon fill="#9B6D5A" points="6.757,62.41 5.819,59.267 9.454,56.127 "/>
<polygon fill="#9B6D5A" points="30.163,76.642 24.711,76.337 30.965,70.499 "/>
<path fill="#805328" d="M13.093,69.574c0.526,0.452,1.052,0.902,1.58,1.355C14.145,70.477,13.619,70.026,13.093,69.574z"/>
<path fill="#805328" d="M17.582,73.18c0.266,0.234,0.532,0.466,0.798,0.7C18.114,73.646,17.847,73.414,17.582,73.18z"/>
<polygon fill="#97C941" points="70.302,46.226 76.31,55.433 60.37,52.559 "/>
<path fill="#F7E908" d="M71.252,46.542L57.573,27.905l23.504-1.06L71.252,46.542z"/>
<path fill="#E66EAA" d="M46.435,15.715l-8.277,10.753l-5.32-13.508L46.435,15.715z"/>
<polygon fill="#DE1584" points="47.7,15.082 34.102,12.327 37.396,5.321 "/>
<path fill="#FADA1E" d="M50.549,15.715l17.794,3.191l-13.618,7.732L50.549,15.715z"/>
<polygon fill="#FAE251" points="71.191,18.906 81.078,25.58 57.573,26.638 "/>
<polygon fill="#FADA1E" points="69.925,16.058 84.299,12.865 79.809,22.736 "/>
<polygon fill="#FADA1E" points="99.582,39.857 91.522,22.731 99.607,23.632 "/>
<polygon fill="#2666B0" points="11.164,46.277 14.496,39.705 19.377,54.234 "/>
<polygon fill="#6CC7E9" points="11.164,46.277 2.128,51.79 9.526,32.185 "/>
<polygon fill="#DAAB27" points="92.327,19.202 84.24,18.306 88.73,8.434 "/>
<polygon fill="#996137" points="103.743,39.915 93.873,54.197 92.935,42.706 "/>
<path fill="#DE1584" d="M32.837,12.96l-2.594,13.935l-9.482-6.729L32.837,12.96z"/>
<polygon fill="#AA2154" points="30.244,26.895 14.981,28.373 20.761,20.166 "/>
<polygon fill="#E66EAA" points="32.837,12.96 20.761,20.166 24.573,9.218 "/>
<path fill="#7CC24D" d="M54.357,51.608l-12.959,9.79l-8.64-7.942L54.357,51.608z"/>
<polygon fill="#996137" points="41.398,61.398 30.965,70.499 31.917,59.595 "/>
<polygon fill="#C4A694" points="30.974,70.509 41.398,61.398 39.635,69.09 "/>
<path fill="#996137" d="M31.917,59.595l-12.954,7.377l-4.175-10.783L31.917,59.595z"/>
<polygon fill="#5D352A" points="18.963,66.972 31.917,59.595 30.965,70.499 "/>
<polygon fill="#DE1584" points="6.573,26.442 14.981,28.373 9.526,32.185 "/>
<polygon fill="#1F9DD9" points="14.789,56.188 11.164,46.277 19.377,54.234 "/>
<polygon fill="#33B7E3" points="14.789,56.188 9.454,56.127 11.164,46.277 "/>
<polygon fill="#5D352A" points="14.789,56.188 12.994,69.582 9.454,56.127 "/>
<polygon fill="#BDDC96" points="67.138,46.542 57.205,52.874 52.761,40.231 "/>
<polygon fill="#DAAB27" points="95.151,37.642 77.265,40.212 87.092,20.516 "/>
<path fill="#A17E2D" d="M54.026,39.281l0.698-12.327l13.678,18.638L54.026,39.281z"/>
<polygon fill="#701E48" points="30.244,26.895 32.837,12.96 38.157,26.468 "/>
<polygon fill="#DE1584" points="52.826,25.372 40.372,25.202 48.649,14.449 "/>
<polygon fill="#DE1584" points="38.157,26.468 35.424,33.878 30.244,26.895 "/>
<polygon fill="#023045" points="9.526,32.185 14.496,39.705 11.164,46.277 "/>
<polygon fill="#E66EAA" points="9.526,32.185 14.981,28.373 14.496,39.705 "/>
<polygon fill="#DE4278" points="14.496,39.705 30.244,26.895 35.424,33.878 "/>
<path fill="#BDDC96" d="M50.229,38.964L33.075,53.456l2.665-19.578L50.229,38.964z"/>
<polygon fill="#7CC24D" points="35.424,33.878 32.757,53.456 19.377,54.234 "/>
<polygon fill="#0E5941" points="19.377,54.234 32.757,53.456 31.917,59.595 "/>
<polygon fill="#0F9A49" points="31.917,59.595 32.757,53.456 41.398,61.398 "/>
<polygon fill="#5ABA49" points="34.34,53.14 51.495,38.648 55.94,51.292 "/>
<polygon fill="#5D352A" points="31.917,59.595 14.789,56.188 19.377,54.234 "/>
<polygon fill="#701E48" points="14.496,39.705 14.981,28.373 30.244,26.895 "/>
<path fill="#AA2154" d="M40.689,26.468l12.452,0.17l-0.697,12.326c0,0-9.66-10.391-11.761-12.493L40.689,26.468z"/>
<path fill="#E66EAA" d="M50.861,38.332l-14.488-5.087l2.733-7.41L50.861,38.332z"/>
<path fill="#97C941" d="M19.377,54.234l-4.881-14.529l20.928-5.827L19.377,54.234z"/>
<g>
	<path fill="#023045" d="M80.644,94.505h-4.042V83.631c0-1.173,0.051-2.471,0.152-3.889h-0.101
		c-0.212,1.113-0.401,1.918-0.571,2.405l-4.258,12.355h-3.345l-4.334-12.228c-0.118-0.33-0.308-1.175-0.569-2.533H63.46
		c0.11,1.79,0.165,3.361,0.165,4.713v10.048h-3.687v-18.17h5.994l3.713,10.77c0.296,0.863,0.51,1.729,0.646,2.599h0.076
		c0.229-1.005,0.469-1.879,0.723-2.622l3.713-10.746h5.841V94.505z"/>
	<path fill="#023045" d="M101.122,94.505h-4.131l-7.489-11.417c-0.439-0.669-0.744-1.171-0.912-1.509h-0.051
		c0.066,0.642,0.101,1.623,0.101,2.938v9.987h-3.865V76.333h4.41l7.211,11.063c0.329,0.498,0.634,0.993,0.912,1.483h0.052
		c-0.068-0.423-0.102-1.255-0.102-2.498V76.333h3.864V94.505z"/>
	<path fill="#023045" d="M116.176,94.505h-10.897V76.333h10.479v3.332h-6.387v4.042h5.943v3.32h-5.943v4.157h6.805V94.505
		L116.176,94.505z"/>
	<path fill="#023045" d="M125.757,88.979h-6.932v-2.802h6.932V88.979z"/>
	<path fill="#023045" d="M142.609,93.857c-1.325,0.642-3.057,0.964-5.194,0.964c-2.788,0-4.979-0.82-6.576-2.459
		s-2.395-3.822-2.395-6.552c0-2.905,0.897-5.263,2.692-7.07s4.125-2.712,6.988-2.712c1.773,0,3.27,0.224,4.486,0.673v3.939
		c-1.217-0.726-2.602-1.09-4.157-1.09c-1.707,0-3.083,0.537-4.13,1.611c-1.05,1.072-1.573,2.523-1.573,4.357
		c0,1.758,0.495,3.158,1.483,4.201c0.988,1.045,2.319,1.563,3.992,1.563c1.597,0,3.058-0.387,4.384-1.164L142.609,93.857
		L142.609,93.857L142.609,93.857z"/>
	<path fill="#023045" d="M149.872,88.243v6.262h-4.094V76.333h6.411c4.58,0,6.869,1.93,6.869,5.791c0,1.825-0.656,3.303-1.972,4.428
		c-1.313,1.129-3.068,1.691-5.265,1.691H149.872L149.872,88.243z M149.872,79.477v5.663h1.609c2.179,0,3.269-0.954,3.269-2.864
		c0-1.867-1.09-2.799-3.269-2.799H149.872L149.872,79.477z"/>
	<path fill="#023045" d="M165.813,88.243v6.262h-4.093V76.333h6.412c4.578,0,6.868,1.93,6.868,5.791
		c0,1.825-0.657,3.303-1.971,4.428c-1.314,1.129-3.069,1.691-5.267,1.691H165.813L165.813,88.243z M165.813,79.477v5.663h1.609
		c2.181,0,3.271-0.954,3.271-2.864c0-1.867-1.09-2.799-3.271-2.799H165.813L165.813,79.477z"/>
</g>
<g>
	<path fill="#5D352A" d="M117.828,37.154h-2.837v2.837h-1.489v-2.837h-2.852v-1.496h2.852v-2.851h1.489v2.851h2.837V37.154z"/>
</g>
<g>
	<path fill="#FADA1E" d="M141.942,18.5h-2.834v2.834h-1.487V18.5h-2.849v-1.494h2.849v-2.849h1.487v2.849h2.834V18.5z"/>
</g>
<g>
	<path fill="#F7E908" d="M130.902,24.806h-3.543v3.542h-1.857v-3.542h-3.561v-1.868h3.561v-3.561h1.857v3.561h3.543V24.806z"/>
</g>
<g>
	<path fill="#FADA1E" d="M100.521,11.959h-3.188v3.188h-1.672v-3.188h-3.205v-1.681h3.205V7.072h1.672v3.206h3.188V11.959z"/>
</g>
<g>
	<path fill="#FAE251" d="M118.855,17.24h-2.479v2.48h-1.302v-2.48h-2.492v-1.307h2.492V13.44h1.302v2.493h2.479V17.24z"/>
</g>
<g>
	<path fill="#DAAB27" d="M135.982,35.048h-2.479v2.479h-1.302v-2.479h-2.492V33.74h2.492v-2.493h1.302v2.493h2.479V35.048z"/>
</g>
<g>
	<path fill="#FAE251" d="M109.776,24.674h-2.835v2.834h-1.486v-2.834h-2.849v-1.495h2.849v-2.849h1.486v2.849h2.835V24.674z"/>
</g>
<g>
	<path fill="#B6967F" d="M122.917,48.891h-2.479v2.48h-1.301v-2.48h-2.494v-1.309h2.494v-2.492h1.301v2.492h2.479V48.891z"/>
</g>
</svg>
