<svg xmlns="http://www.w3.org/2000/svg" viewBox="0 0 512 512">
  <rect width="512" height="512" rx="64" fill="#1e1e2e"/>
  <!-- MNE-CPP colorful brain logo, scaled and centered -->
  <g transform="translate(40, 40) scale(1.27)">
    <polygon fill="#0C9A49" points="169.953,204.255 190.209,167.592 240.572,176.673"/>
    <polygon fill="#986036" points="266.572,162.673 247.591,133.582 304.102,125.462"/>
    <polygon fill="#DAAB28" points="176.34,6.882 163.176,42.18 130.617,11.339"/>
    <polygon fill="#FAE250" points="183.34,9.882 226.399,55.263 170.176,45.18"/>
    <path fill="#F8EA0A" d="M179.34,0l57.07,15.458L222.399,45.38L179.34,0z"/>
    <polygon fill="#2465B0" points="19.186,163.162 12.462,124.981 42.562,101.219"/>
    <polygon fill="#DAAB28" points="229.399,44.263 243.41,14.341 274.816,34.175"/>
    <polygon fill="#A17E2D" points="299.064,176.771 258.572,177.673 296.102,140.462"/>
    <polygon fill="#D81E3A" points="62.204,40.686 90.102,28.65 78.058,63.241"/>
    <polygon fill="#0B5840" points="168.953,198.255 148.264,192.523 189.209,161.592"/>
    <polygon fill="#9A6C59" points="163.953,199.255 137.694,217.826 143.264,193.523"/>
    <polygon fill="#C3A593" points="90.54,240.721 72.378,211.133 110.3,222.277"/>
    <polygon fill="#D51C5C" points="78.058,63.241 59.795,89.175 42.067,63.409"/>
    <polygon fill="#199EDA" points="42.562,101.219 12.462,124.981 33.229,83.075"/>
    <polygon fill="#1CACE3" points="42.332,176.864 19.186,163.162 47.734,145.746"/>
    <polygon fill="#FBDA20" points="134.608,236.354 120.522,270.775 106.058,270.775"/>
    <polygon fill="#E76DAA" points="78.058,63.241 42.067,63.409 62.204,40.686"/>
    <polygon fill="#E76DAA" points="42.067,63.409 59.795,89.175 33.229,83.075"/>
    <polygon fill="#9A6C59" points="53.516,219.382 59.188,177.059 72.378,211.133"/>
    <polygon fill="#59BA48" points="170.953,207.255 241.572,179.673 217.686,210.029"/>
    <polygon fill="#A17E2D" points="106.058,270.775 107.767,241.688 137.694,217.826"/>
    <polygon fill="#D9C3B7" points="107.767,241.688 110.326,222.309 137.694,217.826"/>
    <polygon fill="#5D3429" points="53.516,219.382 72.378,211.133 76.22,236.783"/>
    <polygon fill="#DAAB28" points="137.694,217.826 134.608,236.354 106.058,270.775"/>
    <polygon fill="#986036" points="72.378,211.133 90.54,240.721 76.22,236.783"/>
    <polygon fill="#C3A593" points="33.81,196.715 42.332,176.864 53.516,219.382"/>
    <polygon fill="#AA1E53" points="126.617,18.339 116.213,40.475 90.102,28.65"/>
    <polygon fill="#9A6C59" points="33.81,196.715 30.85,186.788 42.332,176.864"/>
    <polygon fill="#9A6C59" points="107.767,241.688 90.54,240.721 110.3,222.277"/>
    <polygon fill="#96C93F" points="234.591,145.582 253.572,174.673 203.209,165.592"/>
    <path fill="#F8EA0A" d="M237.591,146.582l-43.22-58.888l74.267-3.346L237.591,146.582z"/>
    <path fill="#E76DAA" d="M159.176,49.18l-26.152,33.976l-16.81-42.682L159.176,49.18z"/>
    <polygon fill="#DF1284" points="163.176,47.18 120.213,38.475 130.617,16.339"/>
    <path fill="#FBDA20" d="M172.176,49.18l56.223,10.083l-43.027,24.432L172.176,49.18z"/>
    <polygon fill="#FAE250" points="237.399,59.263 268.638,80.348 194.371,83.694"/>
    <polygon fill="#FBDA20" points="233.399,50.263 278.816,40.175 264.626,71.365"/>
    <polygon fill="#FBDA20" points="327.102,125.462 301.639,71.348 327.182,74.196"/>
    <polygon fill="#2465B0" points="47.734,145.746 58.266,124.981 73.688,170.891"/>
    <polygon fill="#6BC7E9" points="47.734,145.746 19.186,163.162 42.562,101.219"/>
    <polygon fill="#DAAB28" points="304.182,60.196 278.626,57.365 292.816,26.175"/>
    <polygon fill="#986036" points="340.251,125.643 309.064,170.771 306.102,134.462"/>
    <path fill="#DF1284" d="M116.213,40.475l-8.192,44.029L78.058,63.241L116.213,40.475z"/>
    <polygon fill="#AA1E53" points="108.021,84.504 59.795,89.175 78.058,63.241"/>
    <polygon fill="#E76DAA" points="116.213,40.475 78.058,63.241 90.102,28.65"/>
    <path fill="#7BC24E" d="M184.209,162.592l-40.945,30.932l-27.298-25.096L184.209,162.592z"/>
    <polygon fill="#986036" points="143.264,193.523 110.3,222.277 113.307,187.823"/>
    <polygon fill="#C3A593" points="110.326,222.309 143.264,193.523 137.694,217.826"/>
    <path fill="#986036" d="M113.307,187.823l-40.929,23.311l-13.19-34.075L113.307,187.823z"/>
    <polygon fill="#5D3429" points="72.378,211.133 113.307,187.823 110.3,222.277"/>
    <polygon fill="#DF1284" points="33.229,83.075 59.795,89.175 42.562,101.219"/>
    <polygon fill="#199EDA" points="59.188,177.059 47.734,145.746 73.688,170.891"/>
    <polygon fill="#2FB7E4" points="59.188,177.059 42.332,176.864 47.734,145.746"/>
    <polygon fill="#5D3429" points="59.188,177.059 53.516,219.382 42.332,176.864"/>
    <polygon fill="#BCDB95" points="224.591,146.582 193.211,166.587 179.166,126.641"/>
    <polygon fill="#DAAB28" points="313.102,118.462 256.591,126.582 287.639,64.348"/>
    <path fill="#A17E2D" d="M183.166,123.641l2.205-38.947l43.22,58.888L183.166,123.641z"/>
    <polygon fill="#6F1D47" points="108.021,84.504 116.213,40.475 133.023,83.156"/>
    <polygon fill="#DF1284" points="179.371,79.694 140.023,79.156 166.176,45.18"/>
    <polygon fill="#DF1284" points="133.023,83.156 124.386,106.568 108.021,84.504"/>
    <polygon fill="#033045" points="42.562,101.219 58.266,124.981 47.734,145.746"/>
    <polygon fill="#E76DAA" points="42.562,101.219 59.795,89.175 58.266,124.981"/>
    <polygon fill="#DD4177" points="58.266,124.981 108.021,84.504 124.386,106.568"/>
    <path fill="#BCDB95" d="M171.166,122.641l-54.2,45.787l8.42-61.86L171.166,122.641z"/>
    <polygon fill="#7BC24E" points="124.386,106.568 115.965,168.428 73.688,170.891"/>
    <polygon fill="#0B5840" points="73.688,170.891 115.965,168.428 113.307,187.823"/>
    <polygon fill="#0C9A49" points="113.307,187.823 115.965,168.428 143.264,193.523"/>
    <polygon fill="#59BA48" points="120.965,167.428 175.166,121.641 189.211,161.587"/>
    <polygon fill="#5D3429" points="113.307,187.823 59.188,177.059 73.688,170.891"/>
    <polygon fill="#6F1D47" points="58.266,124.981 59.795,89.175 108.021,84.504"/>
    <path fill="#AA1E53" d="M141.023,83.156l39.348,0.538l-2.205,38.947c0,0-30.521-32.834-37.162-39.474L141.023,83.156z"/>
    <path fill="#E76DAA" d="M173.166,120.641l-45.78-16.073l8.638-23.412L173.166,120.641z"/>
    <path fill="#96C93F" d="M73.688,170.891l-15.422-45.91l66.12-18.413L73.688,170.891z"/>
  </g>
</svg>
