<?xml version="1.0" encoding="utf-8"?>
<!-- Generator: Adobe Illustrator 16.0.0, SVG Export Plug-In . SVG Version: 6.00 Build 0)  -->
<!DOCTYPE svg PUBLIC "-//W3C//DTD SVG 1.1//EN" "http://www.w3.org/Graphics/SVG/1.1/DTD/svg11.dtd">
<svg version="1.1" id="Layer_1" xmlns="http://www.w3.org/2000/svg" xmlns:xlink="http://www.w3.org/1999/xlink" x="0px" y="0px"
	 width="426.876px" height="150px" viewBox="0 0 426.876 150" enable-background="new 0 0 426.876 150" xml:space="preserve">
<path id="path2598" fill="#7A1341" d="M426.876,111.442V13.63c0-3.243-2.629-5.872-5.873-5.872H146.502
	c15.126,13.058,24.748,32.621,24.748,54.499c0,22.188-9.891,42.001-25.388,55.056h275.141
	C424.247,117.313,426.876,114.686,426.876,111.442 M49.925,7.759H9.3c-3.244,0-5.873,2.629-5.873,5.872v97.812
	c0,3.243,2.629,5.871,5.873,5.871h41.264c-15.497-13.055-25.386-32.867-25.386-55.056C25.177,40.379,34.799,20.816,49.925,7.759"/>
<path id="path2602" fill="#FFFFFF" d="M400.433,100.255v-9.92c0-0.423-0.358-0.779-0.781-0.779h-5.496
	c-0.423,0-0.781,0.356-0.781,0.779v1.529c0,0.423,0.358,0.781,0.781,0.781h2.862v6.406c-0.651,0.194-1.334,0.293-2.081,0.293
	c-3.447,0-5.498-2.081-5.498-7.936c0-5.726,1.758-8.262,5.237-8.262c1.69,0,2.83,0.392,3.969,0.942c0.389,0.197,0.78,0,0.942-0.356
	l0.65-1.398c0.195-0.39,0.065-0.781-0.356-1.009c-1.434-0.747-3.285-1.234-5.205-1.234c-5.659,0-8.911,4.324-8.911,11.088
	c0,7.027,2.665,11.223,8.846,11.223c1.756,0,3.578-0.326,4.814-0.781C400.205,101.329,400.433,101.004,400.433,100.255
	 M378.281,101.199c-0.943-2.603-2.211-5.757-2.732-6.863c-0.683-1.432-1.919-2.798-3.479-3.122c3.349-0.521,4.781-2.797,4.781-5.366
	c0-2.18-1.139-5.562-6.635-5.562h-5.726c-0.421,0-0.779,0.357-0.779,0.78v20.393c0,0.39,0.358,0.748,0.779,0.748h1.889
	c0.422,0,0.779-0.358,0.779-0.748v-8.944h1.333c1.952,0,2.928,1.302,3.675,2.731c0.912,1.724,1.464,4.033,2.212,6.276
	c0.164,0.554,0.521,0.685,0.977,0.685h2.373C378.412,102.207,378.509,101.783,378.281,101.199 M353.59,95.409V81.066
	c0-0.487-0.326-0.78-0.781-0.78h-1.854c-0.488,0-0.813,0.259-0.813,0.78v14.18c0,3.317-1.366,4.294-3.773,4.294
	c-2.666,0-3.609-1.627-3.609-4.489V81.066c0-0.521-0.293-0.78-0.781-0.78h-1.887c-0.455,0-0.747,0.293-0.747,0.78v14.343
	c0,4.424,2.276,6.993,7.09,6.993C351.117,102.402,353.59,99.93,353.59,95.409 M330.622,96.027c0-2.731-1.562-4.976-4.521-5.463
	c2.504-0.814,3.577-2.409,3.577-4.717c0-3.221-2.211-5.562-5.984-5.562h-6.472c-0.422,0-0.781,0.357-0.781,0.78v20.393
	c0,0.39,0.359,0.748,0.781,0.748h6.829C328.216,102.207,330.622,99.962,330.622,96.027 M305.771,101.427v-1.594
	c0-0.424-0.39-0.781-0.813-0.781h-7.675v-6.96h6.634c0.422,0,0.813-0.358,0.813-0.813v-1.367c0-0.423-0.392-0.748-0.813-0.748
	h-6.634v-5.821h7.415c0.455,0,0.781-0.391,0.781-0.813v-1.464c0-0.423-0.359-0.78-0.781-0.78h-10.083c-0.423,0-0.78,0.357-0.78,0.78
	v20.36c0,0.422,0.357,0.78,0.78,0.78h10.343C305.382,102.207,305.771,101.849,305.771,101.427 M284.427,91.115
	c0-8.357-3.578-10.829-8.196-10.829h-5.171c-0.423,0-0.78,0.357-0.78,0.78v20.36c0,0.422,0.357,0.78,0.78,0.78h5.301
	C282.54,102.207,284.427,98.076,284.427,91.115 M259.888,100.255v-9.92c0-0.423-0.356-0.779-0.779-0.779h-5.496
	c-0.424,0-0.781,0.356-0.781,0.779v1.529c0,0.423,0.357,0.781,0.781,0.781h2.861v6.406c-0.65,0.194-1.333,0.293-2.081,0.293
	c-3.447,0-5.496-2.081-5.496-7.936c0-5.726,1.756-8.262,5.235-8.262c1.691,0,2.83,0.392,3.968,0.942c0.39,0.197,0.781,0,0.943-0.356
	l0.651-1.398c0.193-0.39,0.064-0.781-0.358-1.009c-1.431-0.747-3.285-1.234-5.204-1.234c-5.658,0-8.912,4.324-8.912,11.088
	c0,7.027,2.668,11.223,8.847,11.223c1.757,0,3.578-0.326,4.814-0.781C259.66,101.329,259.888,101.004,259.888,100.255
	 M238.554,101.297l-6.244-20.264c-0.164-0.488-0.554-0.747-0.977-0.747h-2.861c-0.424,0-0.879,0.293-1.009,0.747l-5.821,20.264
	c-0.131,0.486,0.097,0.91,0.585,0.91h2.114c0.455,0,0.845-0.293,0.943-0.717l1.234-4.813h6.863l1.302,4.813
	c0.13,0.424,0.552,0.717,1.007,0.717h2.276C238.455,102.207,238.715,101.783,238.554,101.297 M373.337,86.303
	c0,2.049-1.333,3.414-3.576,3.414h-2.603v-6.405h2.961C372.297,83.312,373.337,84.741,373.337,86.303 M326.916,95.604
	c0,2.211-1.27,3.577-3.319,3.577h-3.706V92.06h3.154C325.484,92.06,326.916,93.62,326.916,95.604 M326.135,86.237
	c0,1.854-1.139,3.089-3.384,3.089h-2.86V83.18h3.056C325.094,83.18,326.135,84.319,326.135,86.237 M280.783,91.311
	c0,6.538-1.788,7.904-4.977,7.904h-2.081V83.18h2.146c1.398,0,2.668,0.488,3.447,1.495
	C280.295,85.944,280.783,87.831,280.783,91.311 M232.603,93.686h-5.334l2.114-8.554c0.226-0.91,0.39-2.146,0.487-3.058
	c0.13,0.878,0.259,2.18,0.487,3.058L232.603,93.686z M202.702,102.207h1.085c0.442,0,0.851-0.293,0.953-0.748l4.025-13.69
	c0.35-1.423,0.729-3.353,0.995-4.478c-0.049,0.876-0.205,3.734-0.214,4.516l-0.053,13.652c0.034,0.423,0.409,0.748,0.817,0.748
	h1.655c0.441,0,0.815-0.358,0.815-0.748V81.033c0-0.423-0.374-0.747-0.815-0.747h-3.682c-0.408,0-0.85,0.293-0.951,0.65
	l-4.247,14.905c-0.205,0.807-0.335,2.184-0.432,3.3c-0.097-1.116-0.226-2.493-0.43-3.3l-4.246-14.905
	c-0.103-0.357-0.545-0.65-0.953-0.65h-3.693c-0.443,0-0.816,0.324-0.816,0.747v20.426c0,0.39,0.373,0.748,0.816,0.748H195
	c0.41,0,0.784-0.325,0.818-0.748l-0.053-13.652c-0.009-0.781-0.165-3.64-0.213-4.516c0.266,1.125,0.646,3.055,0.994,4.478
	l4.017,13.69c0.102,0.455,0.511,0.748,0.952,0.748H202.702z"/>
<path id="path2606" fill="#FFFFFF" d="M401.02,53.931v-1.593c0-0.422-0.324-0.781-0.748-0.781h-12.684
	c-0.423,0-0.814,0.359-0.814,0.781v1.593c0,0.423,0.392,0.747,0.814,0.747h4.618v18.019c0,0.424,0.356,0.781,0.781,0.781h1.885
	c0.424,0,0.781-0.357,0.781-0.781V54.678h4.618C400.695,54.678,401.02,54.354,401.02,53.931 M383.001,72.567l-6.244-20.262
	c-0.163-0.488-0.554-0.749-0.976-0.749h-2.863c-0.422,0-0.877,0.293-1.009,0.749l-5.821,20.262c-0.13,0.488,0.098,0.911,0.586,0.911
	h2.113c0.455,0,0.846-0.293,0.944-0.716l1.234-4.813h6.864l1.3,4.813c0.131,0.422,0.554,0.716,1.009,0.716h2.276
	C382.903,73.478,383.163,73.055,383.001,72.567 M373.015,47.882c0-1.073-0.878-1.887-1.95-1.887c-1.009,0-1.854,0.814-1.854,1.887
	c0,1.072,0.845,1.95,1.887,1.95C372.17,49.832,373.015,48.954,373.015,47.882 M379.65,47.882c0-1.073-0.878-1.887-1.952-1.887
	c-1.007,0-1.854,0.814-1.854,1.887c0,1.072,0.847,1.95,1.887,1.95C378.806,49.832,379.65,48.954,379.65,47.882 M361.843,53.931
	v-1.593c0-0.422-0.324-0.781-0.747-0.781h-12.685c-0.423,0-0.813,0.359-0.813,0.781v1.593c0,0.423,0.39,0.747,0.813,0.747h4.617
	v18.019c0,0.424,0.359,0.781,0.781,0.781h1.887c0.423,0,0.781-0.357,0.781-0.781V54.678h4.618
	C361.519,54.678,361.843,54.354,361.843,53.931 M340.745,72.696V52.337c0-0.422-0.358-0.781-0.781-0.781h-2.016
	c-0.424,0-0.781,0.359-0.781,0.781v20.359c0,0.424,0.357,0.781,0.781,0.781h2.016C340.387,73.478,340.745,73.12,340.745,72.696
	 M329.379,67.233c0-3.447-1.984-4.944-4.293-6.017l-1.758-0.814c-1.723-0.814-3.187-1.464-3.187-3.188
	c0-1.789,1.074-2.861,3.187-2.861c1.465,0,2.342,0.324,3.384,0.683c0.422,0.129,0.779-0.099,0.878-0.488l0.358-1.464
	c0.097-0.39-0.033-0.813-0.423-0.943c-1.106-0.39-2.7-0.78-4.261-0.78c-4.163,0-6.636,2.569-6.636,6.018
	c0,3.154,1.821,4.521,3.839,5.463l1.333,0.618c2.018,0.943,4.033,1.821,4.033,4.033c0,2.016-1.562,3.088-3.708,3.088
	c-1.626,0-3.122-0.488-4.358-0.943c-0.456-0.163-0.878,0.065-0.975,0.488l-0.392,1.626c-0.097,0.392,0.065,0.814,0.488,0.976
	c1.365,0.52,3.416,0.943,5.301,0.943C326.712,73.672,329.379,71.039,329.379,67.233 M309.955,72.469
	c-0.941-2.602-2.211-5.756-2.731-6.862c-0.683-1.431-1.919-2.797-3.48-3.121c3.352-0.522,4.78-2.797,4.78-5.368
	c0-2.18-1.138-5.562-6.634-5.562h-5.724c-0.424,0-0.78,0.359-0.78,0.781v20.392c0,0.391,0.356,0.749,0.78,0.749h1.886
	c0.424,0,0.781-0.357,0.781-0.749v-8.943h1.334c1.951,0,2.927,1.3,3.675,2.731c0.91,1.724,1.463,4.033,2.211,6.277
	c0.162,0.553,0.521,0.683,0.976,0.683h2.375C310.086,73.478,310.183,73.055,309.955,72.469 M286.971,72.696v-1.593
	c0-0.423-0.391-0.78-0.813-0.78h-7.676v-6.961h6.634c0.423,0,0.813-0.357,0.813-0.813v-1.365c0-0.423-0.391-0.749-0.813-0.749
	h-6.634v-5.822h7.415c0.455,0,0.781-0.39,0.781-0.813v-1.464c0-0.422-0.358-0.781-0.781-0.781h-10.083
	c-0.422,0-0.779,0.359-0.779,0.781v20.359c0,0.424,0.357,0.781,0.779,0.781h10.344C286.58,73.478,286.971,73.12,286.971,72.696
	 M267.445,52.434c0.129-0.455-0.13-0.878-0.617-0.878h-1.952c-0.521,0-0.846,0.293-0.977,0.813l-3.74,14.701
	c-0.259,1.042-0.488,2.766-0.683,4.263c-0.13-1.497-0.423-3.221-0.683-4.263l-3.74-14.732c-0.13-0.521-0.488-0.781-1.009-0.781
	h-2.244c-0.487,0-0.748,0.423-0.617,0.913l6.017,20.293c0.131,0.422,0.554,0.716,0.976,0.716h2.472c0.424,0,0.845-0.293,0.976-0.716
	L267.445,52.434z M243.295,72.696V52.337c0-0.422-0.357-0.781-0.78-0.781h-2.016c-0.424,0-0.781,0.359-0.781,0.781v20.359
	c0,0.424,0.357,0.781,0.781,0.781h2.016C242.938,73.478,243.295,73.12,243.295,72.696 M230.223,72.729V52.305
	c0-0.39-0.39-0.749-0.813-0.749h-1.658c-0.423,0-0.78,0.359-0.78,0.749l0.031,12.65c0,1.529,0.163,3.547,0.326,5.237
	c-0.455-1.593-0.847-3.187-1.431-4.618L220.4,52.141c-0.162-0.357-0.617-0.585-1.04-0.585h-3.057c-0.423,0-0.781,0.326-0.781,0.749
	v20.424c0,0.391,0.358,0.749,0.781,0.749h1.723c0.424,0,0.781-0.357,0.781-0.749l-0.033-12.88c0-1.202-0.292-3.804-0.455-5.463
	c0.424,1.659,0.846,3.48,1.433,4.846l5.724,13.628c0.162,0.388,0.455,0.617,0.878,0.617h3.057
	C229.833,73.478,230.223,73.12,230.223,72.729 M206.762,66.68V52.337c0-0.488-0.326-0.781-0.781-0.781h-1.854
	c-0.486,0-0.813,0.261-0.813,0.781v14.18c0,3.317-1.365,4.294-3.772,4.294c-2.668,0-3.609-1.627-3.609-4.489V52.337
	c0-0.521-0.293-0.781-0.781-0.781h-1.887c-0.455,0-0.748,0.293-0.748,0.781V66.68c0,4.423,2.276,6.992,7.091,6.992
	C204.288,73.672,206.762,71.2,206.762,66.68 M377.049,64.955h-5.334l2.114-8.553c0.228-0.911,0.39-2.147,0.488-3.057
	c0.129,0.879,0.26,2.179,0.487,3.057L377.049,64.955z M305.013,57.573c0,2.051-1.334,3.416-3.578,3.416h-2.602v-6.408h2.959
	C303.971,54.581,305.013,56.012,305.013,57.573"/>
<path id="path2610" fill="#FFFFFF" d="M400.433,36.344v-1.013c0-0.269-0.249-0.497-0.519-0.497h-4.884v-4.429h4.223
	c0.269,0,0.518-0.228,0.518-0.518v-0.869c0-0.269-0.249-0.475-0.518-0.475h-4.223v-3.705h4.719c0.29,0,0.497-0.248,0.497-0.518
	V23.39c0-0.269-0.228-0.498-0.497-0.498h-6.414c-0.271,0-0.497,0.229-0.497,0.498v12.954c0,0.271,0.227,0.497,0.497,0.497h6.579
	C400.184,36.84,400.433,36.614,400.433,36.344"/>
<path id="path2614" fill="#FFFFFF" d="M388.389,36.262l-4.449-7.139l4.035-5.651c0.165-0.248,0.145-0.579-0.27-0.579h-1.573
	c-0.31,0-0.496,0.083-0.661,0.331l-3.643,5.526v-5.36c0-0.269-0.228-0.497-0.496-0.497h-1.201c-0.269,0-0.496,0.228-0.496,0.497
	v12.977c0,0.249,0.228,0.475,0.496,0.475h1.201c0.269,0,0.496-0.227,0.496-0.475v-6.768l3.911,6.871
	c0.166,0.29,0.393,0.373,0.704,0.373h1.676C388.471,36.841,388.597,36.593,388.389,36.262"/>
<path id="path2618" fill="#FFFFFF" d="M374.969,35.765l-0.455-0.993c-0.083-0.208-0.332-0.291-0.579-0.187
	c-0.414,0.187-1.117,0.393-1.615,0.393c-2.007,0-3.373-1.469-3.373-5.153c0-3.662,1.284-5.132,3.373-5.132
	c0.579,0,1.077,0.145,1.532,0.352c0.27,0.125,0.476,0.042,0.6-0.185l0.436-0.849c0.145-0.269,0.041-0.54-0.207-0.683
	c-0.767-0.455-1.718-0.558-2.525-0.558c-3.352,0-5.525,2.75-5.525,7.035c0,4.614,2.049,7.159,5.443,7.159
	c1.139,0,1.986-0.228,2.711-0.599C374.969,36.283,375.093,36.034,374.969,35.765"/>
<path id="path2622" fill="#FFFFFF" d="M361.36,36.344V23.39c0-0.269-0.228-0.498-0.497-0.498h-1.283
	c-0.269,0-0.496,0.229-0.496,0.498v12.954c0,0.271,0.228,0.497,0.496,0.497h1.283C361.133,36.84,361.36,36.614,361.36,36.344"/>
<path id="path2626" fill="#FFFFFF" d="M350.402,29.846c2.131-0.332,3.042-1.78,3.042-3.415c0-1.387-0.725-3.538-4.222-3.538h-3.642
	c-0.27,0-0.497,0.228-0.497,0.497v12.975c0,0.249,0.228,0.475,0.497,0.475h1.199c0.271,0,0.498-0.226,0.498-0.475v-5.691h0.848
	c1.242,0,1.862,0.828,2.339,1.738c0.579,1.097,0.931,2.565,1.407,3.994c0.104,0.351,0.33,0.434,0.62,0.434h1.511
	c0.434,0,0.497-0.269,0.352-0.64c-0.599-1.656-1.407-3.664-1.737-4.368C352.182,30.923,351.396,30.053,350.402,29.846
	 M348.933,28.895h-1.654v-4.078h1.882c1.388,0,2.049,0.912,2.049,1.905C351.209,28.025,350.361,28.895,348.933,28.895"/>
<path id="path2630" fill="#FFFFFF" d="M339.856,36.344v-1.013c0-0.269-0.249-0.497-0.518-0.497h-4.883v-4.429h4.221
	c0.27,0,0.519-0.228,0.519-0.518v-0.869c0-0.269-0.249-0.475-0.519-0.475h-4.221v-3.705h4.718c0.29,0,0.496-0.248,0.496-0.518V23.39
	c0-0.269-0.228-0.498-0.496-0.498h-6.415c-0.269,0-0.497,0.229-0.497,0.498v12.954c0,0.271,0.229,0.497,0.497,0.497h6.58
	C339.607,36.84,339.856,36.614,339.856,36.344"/>
<path id="path2634" fill="#FFFFFF" d="M326.353,32.516V23.39c0-0.31-0.206-0.497-0.497-0.497h-1.179
	c-0.311,0-0.518,0.165-0.518,0.497v9.023c0,2.111-0.87,2.731-2.4,2.731c-1.697,0-2.298-1.034-2.298-2.855V23.39
	c0-0.332-0.187-0.497-0.497-0.497h-1.199c-0.29,0-0.477,0.187-0.477,0.497v9.126c0,2.814,1.448,4.449,4.512,4.449
	C324.78,36.965,326.353,35.393,326.353,32.516"/>
<path id="path2638" fill="#FFFFFF" d="M311.484,35.599v-6.312c0-0.269-0.228-0.497-0.497-0.497h-3.497
	c-0.269,0-0.496,0.228-0.496,0.497v0.973c0,0.269,0.228,0.497,0.496,0.497h1.821v4.077c-0.414,0.124-0.848,0.187-1.324,0.187
	c-2.194,0-3.497-1.325-3.497-5.049c0-3.642,1.117-5.257,3.332-5.257c1.075,0,1.8,0.248,2.523,0.601c0.249,0.124,0.497,0,0.601-0.228
	l0.414-0.89c0.124-0.249,0.041-0.498-0.228-0.643c-0.91-0.475-2.09-0.785-3.311-0.785c-3.601,0-5.671,2.751-5.671,7.055
	c0,4.471,1.697,7.141,5.628,7.141c1.118,0,2.276-0.206,3.063-0.497C311.339,36.282,311.484,36.075,311.484,35.599"/>
<path id="path2642" fill="#FFFFFF" d="M288.611,36.365V23.369c0-0.248-0.249-0.475-0.519-0.475h-1.054
	c-0.269,0-0.498,0.228-0.498,0.475l0.021,8.051c0,0.971,0.104,2.254,0.208,3.331c-0.29-1.013-0.539-2.027-0.911-2.938l-3.498-8.548
	c-0.104-0.228-0.393-0.371-0.661-0.371h-1.946c-0.27,0-0.497,0.206-0.497,0.475v12.997c0,0.249,0.228,0.475,0.497,0.475h1.097
	c0.269,0,0.496-0.226,0.496-0.475l-0.02-8.195c0-0.766-0.187-2.421-0.29-3.478c0.269,1.056,0.537,2.215,0.91,3.085l3.642,8.67
	c0.104,0.249,0.291,0.392,0.56,0.392h1.944C288.362,36.84,288.611,36.614,288.611,36.365"/>
<path id="path2646" fill="#FFFFFF" d="M274.319,29.93c0-4.822-1.656-7.161-4.843-7.161c-3.248,0-4.883,2.462-4.883,7.161
	c0,4.76,1.654,7.035,4.883,7.035C272.685,36.964,274.319,34.647,274.319,29.93 M272.043,29.867c0,3.228-0.538,5.277-2.587,5.277
	c-1.944,0-2.566-1.778-2.566-5.277c0-2.753,0.269-5.338,2.566-5.338C271.588,24.529,272.043,26.888,272.043,29.867"/>
<path id="path2650" fill="#FFFFFF" d="M261.147,23.452c0.082-0.29-0.082-0.559-0.393-0.559h-1.242c-0.331,0-0.539,0.187-0.621,0.518
	l-2.381,9.353c-0.165,0.665-0.311,1.76-0.434,2.712c-0.083-0.952-0.269-2.047-0.434-2.712l-2.381-9.374
	c-0.082-0.33-0.31-0.497-0.642-0.497h-1.429c-0.31,0-0.475,0.269-0.392,0.579l3.828,12.914c0.082,0.269,0.352,0.455,0.62,0.455
	h1.573c0.27,0,0.538-0.187,0.62-0.455L261.147,23.452z"/>
<path id="path2654" fill="#FFFFFF" d="M238.4,29.93c0-4.822-1.656-7.161-4.843-7.161c-3.249,0-4.885,2.462-4.885,7.161
	c0,4.76,1.657,7.035,4.885,7.035C236.766,36.964,238.4,34.647,238.4,29.93 M236.124,29.867c0,3.228-0.537,5.277-2.586,5.277
	c-1.946,0-2.567-1.778-2.567-5.277c0-2.753,0.27-5.338,2.567-5.338C235.669,24.529,236.124,26.888,236.124,29.867"/>
<path id="path2658" fill="#FFFFFF" d="M225.636,24.404V23.39c0-0.269-0.206-0.497-0.475-0.497h-8.071
	c-0.269,0-0.518,0.228-0.518,0.497v1.015c0,0.269,0.249,0.475,0.518,0.475h2.938v11.464c0,0.27,0.228,0.498,0.496,0.498h1.2
	c0.27,0,0.497-0.228,0.497-0.498V24.879h2.939C225.43,24.879,225.636,24.673,225.636,24.404"/>
<path id="path2662" fill="#FFFFFF" d="M213.534,24.404V23.39c0-0.269-0.208-0.497-0.477-0.497h-8.071
	c-0.269,0-0.517,0.228-0.517,0.497v1.015c0,0.269,0.248,0.475,0.517,0.475h2.939v11.464c0,0.27,0.228,0.498,0.496,0.498h1.201
	c0.269,0,0.496-0.228,0.496-0.498V24.879h2.938C213.326,24.879,213.534,24.673,213.534,24.404"/>
<path id="path2666" fill="#FFFFFF" d="M201.647,29.93c0-4.822-1.656-7.161-4.843-7.161c-3.25,0-4.884,2.462-4.884,7.161
	c0,4.76,1.655,7.035,4.884,7.035C200.013,36.964,201.647,34.647,201.647,29.93 M199.371,29.867c0,3.228-0.539,5.277-2.588,5.277
	c-1.945,0-2.565-1.778-2.565-5.277c0-2.753,0.27-5.338,2.565-5.338C198.916,24.529,199.371,26.888,199.371,29.867"/>
<path id="path2670" fill="#010101" d="M158.23,66.331c0.078-7.861-4.697-5.222-6.319-9.224c-1.539-3.797,1.29-7.549-1.911-10.272
	c-1.143-0.973-2.172-1.001-3.449-1.81c-3.408-2.154-5.929-5.107-7.238-7.191c-1.27-2.024,0.098-4.052-1.202-6.162
	c-0.691-1.123-1.751-1.341-2.276-2.541c-0.534-1.217,0.619-2.371-0.259-3.369c-1.47-1.671-2.857-3.002-4.046-6.751
	c-3.613-11.394-8.249-9.915-9.259-10.567c-2.785-1.803-7.59-3.986-11.11-4.92c-4.13-1.097-6.613-1.454-9.79-1.52
	c-4.942-0.104-5.904,1.605-6.649,1.542c-9.695-0.834-14.177,2.148-19.795,4.964c-6.992,3.505-10.805,9.821-12.581,15.536
	c-0.883,2.841-1.68,4.402-2.707,7.333c-0.643,1.814-1.729,3.025-3.254,3.835c-1.384,0.737-2.345,1.53-4.248,1.597
	c-1.621,0.055-3.735,0.923-4.17,1.799l0.109,3.154c0,0,0.915-0.273,2.412-1.657c1.162-1.074,2.189,0.063,4.812,0.384
	c6.146,0.199,9.506-3.605,9.867-4.412c0.525-1.121-0.006-4.204,0.681-4.71l0.988-0.034c-0.229,1.845,0.129,4.039-1.342,6.043
	c-1.847,2.514-4.349,3.171-5.032,3.415c-3.982,1.426-6.106,0.859-8.104,0.604C50.05,41.104,52.19,44.713,45.614,44
	c-2.213-0.239-4.47,1.762-4.531,3.605c-0.065,1.976,0.14,9.439,0.358,9.945l3.233,2.831c0,0-0.73-3.673,1.703-2.62
	c3.396,1.471,9.249,0.06,9.798-0.373c-1.23,1.146-1.401,2.423-2.348,3.628c-2.097,2.555-6.386,4-5.349,8.627
	c2.161,9.643-2.333,9.153-2.333,9.153c-2.814,0.098-4.885-3.898-4.885-3.898l0.203,4.264c-0.038,2.204,4.183,7.155,7.1,5.946
	l1.914,3.742c6.9,1.128,0.052,6.371,0.119,8.299l2.869,6.013c0.147-0.491,0.435-6.353,3.268-6.108
	c2.66,0.232,2.911,2.654,2.911,2.654c-4.881,3.666,1.019,9.718,4.496,11.561c0,0,0.434-0.791,1.219-0.953
	c-1.715-0.631-2.801-1.911-2.468-3.108c0.341-1.229,0.602-1.023,1.607-1.344c1.279-0.405,1.621-0.056,2.8-0.648
	c1.255-0.632,1.705,1.141,2.852,0.797c0.852-0.257,2.155-1.348,3.367-2.161c-2.142,2.769-4.005,6.71-8.051,12.1
	c-0.785,1.049-0.856,9.433-0.451,17.511l0.071,1.32c0.369,6.473,1.039,12.473,1.885,13.992c0.104,0.187-0.543,0.278,3.646-6.025
	l1.021-1.573c4.507-7.137,10.852-15.768,16.903-21.354l1.362-8.484c0.338,0.069,0.699,0.107,1.073,0.095l-0.94,8.383
	c1.791,0.495,5.049,4.828,13.554,15.207l1.492,1.82c4.839,5.893,10.708,12.278,10.988,11.848
	c1.633-2.516,20.358-33.631,20.358-33.631s-5.503-7.776-7.129-12.91c2-1.967,1.861-0.058,7.086,3.342
	c4.045,2.631,5.653,0.217,5.653,0.217s-3.756-2.221-3.768-4.462c-0.027-4.953,2.008-4.786,3.063-4.649
	c2.502,0.326,1.335,2.569,1.335,2.569l2.638-0.022c0,0,0.861-0.512,1.135-1.072c1.915-3.92-6.69-6.057-8.098-7.287
	c-1.427-1.249-0.569-3.698-0.569-3.698c4.443,5.489,7.256,4.151,11.83,2.892l4.675-4.707c-4.965,0.588-10.314,5.034-14.151-6.388
	l0.943-0.852c2.264,4.065,4.712,5.625,7.681,5.797l6.981-7.279c-8.128,5.66-7.545-4.833-7.545-4.833
	C156.498,71.286,158.214,67.962,158.23,66.331 M56.865,79.565c0.12,3.443-3.13,5.35-6.091,5.452c0,0-0.082-0.342-0.371-0.538
	c2.96-0.104,5.976-1.655,5.854-5.099C56.257,79.381,56.855,79.291,56.865,79.565 M92.02,118.657l0.802-6.008
	c24.795-2.904,29.386-16.518,29.386-16.518s1.443-2.289,1.683-1.554c3.456,10.626,9.77,20.031,9.77,20.031l-18.336,30.697
	C114.337,144.156,94.149,119.616,92.02,118.657 M75.746,104.413c1.77,5.399,8.24,6.097,10.226,6.845
	c0.669,0.252,1.744,0.211,1.744,0.211l-1.064,6.831c-13.505,15.324-19.038,26.178-19.038,26.178
	c-1.942-8.998-1.147-27.031-1.147-27.031S71.436,110.354,75.746,104.413 M80.782,103.012c0.033,0.918,0.193,1.502,0.085,2.426
	c-0.23-0.583-0.905-1.872-0.905-1.872c0.138-0.069,0.642-1.663,0.634-1.859c0.232-1.388,0.679-2.585,1.786-2.952
	c-0.12,0.596-0.549,0.984-1.047,2.072C80.816,101.961,80.75,102.094,80.782,103.012 M134.038,74.689
	c-2.108,0.212-3.299-1.54-3.299-1.54c-2.661,4.643-5.162,1.697-5.162,1.697c0.014-3.312-4.209,16.819-4.854,19.906
	c-1.208,2.291-5.748,10.517-19.737,14.689l0.518-0.277c1.192-0.685,1.563-1.703,2.4-2.902c0.728-1.041,1.345-1.557,1.722-2.751
	c0.078-0.248-0.205-0.684-0.532-1.229c0.629-0.021,2.665-1.8,3.272-2.412c1.824-1.837,3.396-2.875,5.008-4.77
	c2.08-2.501,3.991-3.882,5.512-6.362c1.058-1.745,1.431-3.07,1.705-5.246c0.449-3.166,1.848-7.154,2.011-10.507
	c-1.054,1.875-1.497,3.202-1.865,4.659c-0.619,2.319-0.71,3.702-1.336,5.824c-0.625,2.123-0.847,3.771-2.19,5.328
	c-1.141,1.354-2.366,2.315-3.661,3.278c-3.674,2.783-6.065,6.979-11.201,8.05c-2.517-1.875-5.701-3.758-6.579-3.649
	c0,0-1.134,0.315-1.823,0.34l-0.29,1.802c0,0,1.017,0.412,0.994,0.173c-0.109-1.1,0.873-1.178,0.824-0.649
	c-0.051,0.553,0.843,3.969-0.576,5.741c-0.256,0.32,0.12-4.691-1.413-4.087l-0.555,2.295l-0.704,0.023c0,0,0.124-0.486,0.074-1.932
	c-0.048-1.395-0.461-2.575-2.616-3.672c-0.455-0.232-0.485,2.819-0.925,3.313l-1.596,0.744c-0.294-1.002-0.717-2.317-0.223-2.337
	c1.486-0.051,0.813-1.291,1.194-2.178c0.244-0.569,0.667-0.723,0.57-1.478c-0.388-3.014,0.057-6.776-0.436-6.76
	c-0.414,0.015-0.756,0.229-1.06-0.032c-0.316-0.271-0.036-1.032-0.036-1.032c-1.546,0.191-0.9,6.579-0.9,6.579
	c-0.645,0.904-1.995,1.81-2.638,2.455c0,0-0.475,0.366-0.576,0.32c-1.815-0.014-3.665,3.072-3.665,3.072
	c-0.694,0.154-3.112-4.169-3.22-4.089c-0.33-1.435,0.296-0.467-0.828-3.571c-0.174-1.175-1.465-5.927-1.649-6.2
	c-2.572-2.605-2.281-14.122-3.392-17.016c-0.665-1.733-2.994-2.304-3.228-4.351c-0.41-3.605,0.19-5.183,0.825-8.431
	c0.181-0.929,0.025-1.535,0.475-2.38c0.52-0.976,1.091-1.781,2.247-1.832c1.054-0.047,1.277,0.984,2.169,1.509
	c0.771,0.454,1.12,1,2.015,1.101c3.259,0.371,2.94-0.653,2.94-0.653l1.592-0.883c-0.505-0.327-1.321,0.248-2.177,0.283
	c-0.969,0.04-1.563,0.111-2.477-0.189c-0.935-0.307-2.692-0.887-1.958-1.517c0.51-0.439,0.804,0.798,1.767,0.076
	c0,0-1.561-1.329-1.072-2.375c-0.31-0.314,0.152-0.743,0.529-0.985c0.327-0.208,0.706-0.23,0.98-0.24c0,0-0.394,1.447-0.061,2.276
	c0.376,0.941,1.067,1.404,2.103,1.649c0.64,0.153,1.065,0.079,1.69-0.127c0.917-0.303,1.599-0.676,1.777-1.647
	c0.108-0.592,0.037-0.966,0.228-1.525c0,0,0.596,0.875,1.179,1.407c0.366,0.334-0.008,0.811,0.253,1.232
	c0.182,0.289,0.385,0.424,0.726,0.526c0.474,0.143,0.874,0.111,1.671-0.61c0.138-0.267,0.226-0.4,0.044-0.759
	c-0.378-0.746-0.892,0.72-3.473-2.431c-0.583-0.712-1.244-0.793-2.152-1.027c-1.091-0.28-1.706-0.354-2.898-0.173
	c-0.316,0.111-0.387-0.023-0.727-0.596c0,0,0.289-0.362,0.547-0.501c1.44-0.781,3.46,0.085,4.214-0.562
	c-1.138-0.235-0.601-0.498-1.08-0.582c-1.632-0.287-1.206-0.165-3.742-0.077c0,0-1.473,0.259-2.363,1.049
	c-0.777,0.688-1.699,1.851-1.699,1.851c-0.341,0.182-0.625-0.545-0.729-0.665c0,0,0.829-1.924,1.807-2.82
	c1.004-0.922,1.935-1.171,3.116-1.695c1.063-0.471,1.827,0.111,2.973,0.311c1.254,0.216,1.781,0.489,3.136,0.855
	c0.919,0.249,0.783,1.387,1.683,1.734c0.235,0.09,0.454-0.048,0.639,0.115c0.209,0.184,0.135,0.481-0.047,0.692
	c-0.394,0.454-0.979-0.093-1.563-0.29c-0.339-0.117-0.434-0.406-0.792-0.456c-0.246-0.034-0.384,0.06-0.632,0.091
	c-0.844,0.107,1.083,0.741,1.669,1.32c0.696,0.686,0.598,1.629,1.551,1.945c0.443,0.146,0.804-0.14,1.202,0.096
	c0.488,0.287,0.49,0.752,0.539,1.292c0.02,0.226,0.028,0.426,0.014,0.616c-0.044,1.557-1.177,2.067-1.482,2.394
	c-1.079,1.154-0.485,6.124-0.34,8.285c0,0-2.769,4.823-0.866,7.25c0.587,0.75,0.586,0.768,2.173,2.157c0,0-1.129,3.274-1.976,3.483
	c-0.776-0.169-5.024,1.336-5.9,4.255l-0.113,0.792c0.01,0.3-2.187,0.449-3.813-1.049c-0.45-0.414-0.77,3.002-0.074,4.881
	c0.312,0.909,0.79,2.6,3.146,1.991c0.804-0.049,2.47-0.369,3.042-1.025c0.145,0.146,3.995,2.29,5.601,2.233
	c2.096-0.073,2.935-1.372,2.925-1.673c0,0-0.849-0.038-1.833,0.064c-3.413,0.358-3.158-1.544-3.158-1.544
	c1.312-0.804,1.445-0.996,3.049-0.756c1.283,0.194,1.478,0.278,2.256,0.669c0.154,0.02,0.571,0.019,0.771-0.051
	c1.037-0.366,2.131-1.061,4.549-0.646c0.552,0.095,2.455,1.313,4.483,0.529l-0.585-0.244l1.05,0.028l-0.465,0.216
	c1.128,0.432,0.616-0.122,1.955-0.065c1.767,0.077,1.058,4.031,5.411,3.396c1.964-0.288,1.578-7.363,1.578-7.363l-0.917,0.033
	c0.013,2.412-0.762,4.029-1.394,4.082c-1.407,0.118-1.41-1.502-4.274-2.713c0,0-0.981-1.249,0.366-1.09
	c1.063,0.127,1.167,2.064,3.826,1.442l0.021-2.157c-4.02,0.14-3.986-3.639-8.282-3.568c-1.448,0.024,0.466,1.225-1.293,1.356
	c-1.195,0.088-0.551-0.662-2.638-0.326c-0.561,0.089-1.473-1.32-1.345-2.201c0.12-0.828,0.912-0.254,1.091-1.072
	c0,0-1.006-2.951,0.975-2.814c0.956,0.067,2.709,2.801,3.655-0.403c0.497-0.022-0.428-0.124-0.428-0.124
	c-0.245-0.224-0.175,1.049-0.965,0.654c-1.293-0.645-0.818-1.212-2.858-1.003c-2.966,0.304-2.108,3.223-2.941,2.653
	c-4.409-3.018-6.303-4.673-3.591-9.869l0.388,1.02c-0.178-3.096-0.57-8.253,0.083-9.791c0.276-0.654,0.387-1.89,0.544-2.851
	c0.507-3.059,0.48-6.623-0.607-7.003c-3.395-1.193-2.574-4.33-6.083-4.733l-6.427,0.186c0,0-0.902-3.671,3.29-4.92
	c0,0-0.49-4.952,0.91-6.235c1.094-1.003,3.106,0.03,2.286-3.251c-0.149-0.595-0.547-0.562-0.878-0.935
	c-0.774-0.866-1.143-0.374-1.916-2.276c-0.492-1.215,2.291-3.113,2.291-3.113c9.792,1.588,13.104-6.914,13.104-6.914
	c3.633,6.554,11.755,5.825,11.755,5.825c1.96,0.063,4.06,0.121,5.958,2.417c1.302,1.575,1.569,2.745,3.629,3.813
	c2.137,1.107,3.907-0.269,3.907-0.269c-2.245-0.184-3.815-1.396-4.772-3.264c-3.461-6.765-6.794-6.379-7.737-6.102
	c0.84-0.393,0.78-1.232,3.762-0.833c4.332,0.582,6.45,7.858,9.235,8.212c4.253,0.541,4.144,1.289,3.15,5.185
	c-1.242,4.868-1.464,9.329-0.04,15.028c0.864,3.458,3.377,4.859,3.681,8.419c0.479,5.635-1.953,7.405-0.097,13.376
	c1.272,4.09-0.825,8.714,3.767,10.896l0.539-0.707c-4.46-2.464-1.63-6.286-1.63-6.286c-0.047,6.758,5.471,7.116,5.471,7.116
	c-1.829-1.245-0.36-2.193-0.36-2.193C135.712,70.081,137.022,74.39,134.038,74.689 M87.662,76.755c0.746-0.777,0.3-1.412,0.792-1.34
	c0.634,0.091,1.058,1.297,1.058,1.297s0.04,0.492,0.81,1.203c0.821,0.759,3.215,0.871,4.315,1.375l2.284,2.622
	c-1.093-0.143-2.006-0.685-2.719-1.098c-3.186-2.007-5.506,0.52-5.506,0.52c-2.097-1.961-2.989-1.471-6.765,0.5
	c-1.047,0.546-1.69-0.335-0.647-0.502c0.29-0.15,1.455-2.4,2.251-2.596C84.784,78.431,86.586,77.875,87.662,76.755 M75.971,48.846
	c0,0,0.709,0.286,0.941,0.656c0.146,0.236,0.165,0.684,0.165,0.684C76.704,50.75,75.292,49.558,75.971,48.846 M79.222,49.007
	l-0.391,0.91L78.8,49.022L79.222,49.007z M118.046,46.674c0.076,0.274-1.427-2.451-2.003-3.199
	c-0.864-1.085-1.286-1.079-2.079-2.097c-0.434-0.612-1.152-2.588-1.909-2.642c-2.331-0.164-3.903,1.233-5.101,1.325
	c-0.648,0.049,0.481-0.767,0.481-0.767c0.202-0.625-4.103-0.819-4.103-0.819s-3.174-0.012-3.362,1.439l0.009,0.551l2.64,0.441
	c1.134,0.325,1.337-0.094,2.681,0.088l2.468-0.045l2.187-0.66l1.167,0.108c0.352-0.006,0.693,0.488,0.827,0.75
	c0.801,1.569,1.641,1.758,2.831,2.905C117.048,46.235,117.066,47.105,118.046,46.674 M100.423,41.696
	c-0.636-0.057-1.102,1.605-2.722,1.773c-2.175,0.226-2.986-1.46-3.714-2.894c0.068-0.138-0.235-1.442-0.309-1.579l-0.559,0.286
	c0.037,2.273,0.927,4.944,3.195,5.661l0.031,1.928l0.705-0.082c0.281-0.006,0.338-0.902,0.61-1.458
	c0.07-0.139,0.975-0.845,1.677-0.996c0.984-0.156,2.11-0.384,3.448-0.408l-0.012-0.827l-1.622,0.03l-0.569-0.267l0.34-0.832
	C100.849,41.896,100.634,41.715,100.423,41.696 M96.241,63.509l-0.635,0.021c0.043,0.414,0.172,0.632,0.317,1.023
	c0.221,0.596-0.25,0.906,0.827,1.42l0.067,1.927l0.606,0.012l-0.088-2.547l-0.533,0.055L96.241,63.509z M97.547,51.258
	c0.004,0.276-0.061,0.622,0.017,1.034l1.552,0.04l-0.22-0.548c0,0,0.064-0.346,0.061-0.552l0.63-0.288
	c0.848,0.123,1.192,1.965,2.949,1.658c0.07-0.013-0.041-0.609-0.041-0.609c-1.628-0.314-1.711-1.209-1.711-1.209
	c1.168-1.881,3.141-1.918,3.147-1.574l-0.198,0.831c0.03,1.859,0.48,3.505,2.666,3.464c1.551-0.029,2.807-0.878,3.208-2.195
	c0.355,0.199,0.672,0.642,0.863,1.086c0.294,0.683,0.013,0.757,0.021,1.308c0.004,0.208-0.843,0.154-0.546,1.114l1.06,0.048
	l0.824-1.324c-0.027-1.722-1.833-4.375-3.679-5.031c-0.566-0.197-1.49-0.592-2.548-0.642l-2.256,0.042
	c-0.633,0.08-1.54,0.717-1.54,0.717c-1.092,0.287-1.002-0.946-1.002-0.946c0.483-0.654,0.55-0.836,2.515-1.425l2.606-0.185
	c-0.117-0.22,0.156-0.761,0.156-0.761c-4.866,0.021-6.384,2.088-6.689,2.397c-0.138,0.141-0.968,1.189-0.963,1.396
	c0,0.07,0.919,0.191,0.919,0.191l0.273-0.556c0.354,0.063,0.847-0.016,0.852,0.329c0.013,0.827-0.627,0.494-0.612,1.458l-0.563,0.01
	C98.452,50.553,97.531,50.293,97.547,51.258 M107.605,50.531l-1.339,0.024l-0.013-0.757l1.338-0.024L107.605,50.531z M105.07,49.88
	c0,0-0.312,2.485,1.94,2.238l-0.347,0.282C104.339,52.58,104.723,50.162,105.07,49.88 M102.854,53.837l-1.464,0.026l0.011,0.618
	l0.987-0.017l0.016,0.908l0.563-0.011L102.854,53.837z M111.55,49.415c1.066,4.803,4.243,4.951,4.243,4.951l0.61-0.645
	c0,0-3.175-0.148-4.241-4.951C111.905,48.917,111.55,49.415,111.55,49.415 M117.258,49.102c-0.008-0.551-0.081-0.687-0.163-1.306
	l-0.485,0.561c-0.323-0.098-0.792-1.305-1.204-1.771l-0.876,0.154c0.371,1.096,1.655,1.418,1.387,2.318
	C115.874,49.206,116.84,49.386,117.258,49.102 M93.909,85.649c-0.007-0.208-0.498-0.121-0.709-0.114
	c-0.282,0.011-0.386,0.662-0.618,0.504c-0.578-0.393-1.233-0.99-1.264-1.816l-1.761,0.063c-0.018-0.482-1.114-0.184-0.952,0.467
	c0.212-0.008,1.042,0.081,1.037-0.058c0.733,0.803,1.511,0.844,1.813,1.385c0.451,0.812,0.2,1.716,0.849,2.107
	C92.458,86.527,93.95,86.818,93.909,85.649"/>
</svg>
