<?xml version="1.0" encoding="utf-8"?>
<!-- Generator: Adobe Illustrator 16.0.0, SVG Export Plug-In . SVG Version: 6.00 Build 0)  -->
<!DOCTYPE svg PUBLIC "-//W3C//DTD SVG 1.1//EN" "http://www.w3.org/Graphics/SVG/1.1/DTD/svg11.dtd">
<svg version="1.1" id="Layer_1" xmlns="http://www.w3.org/2000/svg" xmlns:xlink="http://www.w3.org/1999/xlink" x="0px" y="0px"
	 width="129.833px" height="150px" viewBox="0 0 129.833 150" enable-background="new 0 0 129.833 150" xml:space="preserve">
<path fill="#048BB0" d="M2,1.722v0.306c0,68.278,0,113.376,62.774,146.405l0.14,0.079l0.14-0.079
	c62.774-32.888,62.774-78.056,62.774-146.422V1.705L2,1.722z"/>
<path fill="#FFFFFF" d="M64.914,147.813c62.189-32.663,62.294-77.585,62.294-145.497L2.62,2.334
	C2.62,70.158,2.717,115.021,64.914,147.813z"/>
<path fill="#048BB0" d="M123.126,6.965v-0.21L6.544,6.773v0.209c0,1.87,0,3.739-0.01,5.602c-0.042,25.925-0.078,50.409,7.201,72.857
	c3.915,12.076,9.586,22.37,17.336,31.475c8.678,10.197,19.731,18.673,33.79,25.907l0.096,0.054l0.097-0.054
	c58.187-30.225,58.133-79.175,58.073-130.982C123.126,10.215,123.126,8.59,123.126,6.965z"/>
<polygon id="Triangle" fill="#FFFFFF" points="30.81,42.415 65.482,31.597 100.294,42.415 "/>
<polygon id="Middle" fill="#FFFFFF" points="83.299,36.412 83.299,27.464 48.006,27.464 48.006,36.325 65.482,30.872 "/>
<path id="Point" fill="#FFFFFF" d="M61.13,20.614h8.808c0.044-3.023-2.386-5.331-4.464-7.174
	C63.42,15.318,61.13,17.503,61.13,20.614"/>
<path id="Dome" fill="#FFFFFF" d="M69.763,20.92h-8.345c-4.212,0.943-7.637,3.242-9.28,6.23h26.904
	C77.401,24.162,73.975,21.855,69.763,20.92z"/>
<path fill="#FFFFFF" d="M44.24,90.492c0.367-0.167,0.35,0.367,0.35,0.855v10.285c0,0.786-0.577,1.049-1.319,1.093l-1.678,0.07v0.865
	c2.717-0.027,3.722-0.07,4.718-0.07c1.022,0,2.001,0.043,4.116,0.07v-0.865l-1.451-0.07c-0.734-0.044-1.319-0.297-1.319-1.093
	v-7.479c0-2.778,0.157-4.772,0.235-5.89l-0.288-0.244c-2,0.796-5.243,1.947-6.938,2.351c-0.035,0.489,0.07,1.005,0.323,1.624
	L44.24,90.492z"/>
<path fill="#FFFFFF" d="M58.84,97.203c1.32,0.585,2.421,1.311,2.421,2.936c0,1.417-1.022,2.648-2.49,2.648
	c-1.739,0-2.946-1.399-2.946-3.094c0-1.425,0.56-2.238,1.599-3.12L58.84,97.203z M58.771,94.03
	c-1.092-0.472-2.229-1.101-2.229-2.499c0-1.319,0.952-2.061,2.229-2.061c1.511,0,2.394,1.063,2.394,2.523
	c0,0.936-0.472,1.748-1.372,2.465L58.771,94.03z M59.068,88.264c-3.155,0-4.92,1.757-4.92,4.315c0,1.669,0.874,2.814,2.315,3.574
	c-1.485,0.655-2.717,2.071-2.717,3.767c0,1.993,1.415,4.063,4.674,4.063c2.972,0,5.392-2.089,5.392-5.128
	c0-2.369-1.634-3.549-2.884-4.003c1.302-0.831,2.185-1.861,2.185-3.181C63.113,89.303,61.217,88.264,59.068,88.264"/>
<path fill="#FFFFFF" d="M70.462,90.492c0.367-0.167,0.35,0.367,0.35,0.855v10.285c0,0.786-0.577,1.049-1.319,1.093l-1.677,0.07
	v0.865c2.717-0.027,3.722-0.07,4.719-0.07c1.022,0,2,0.043,4.123,0.07v-0.865l-1.451-0.07c-0.742-0.044-1.319-0.297-1.319-1.093
	v-7.479c0-2.778,0.158-4.772,0.228-5.89l-0.28-0.244c-1.992,0.796-5.242,1.947-6.947,2.351c-0.017,0.489,0.07,1.005,0.333,1.624
	L70.462,90.492z"/>
<path fill="#FFFFFF" d="M82.713,90.492c0.367-0.167,0.349,0.367,0.349,0.855v10.285c0,0.786-0.577,1.049-1.319,1.093l-1.669,0.07
	v0.865c2.717-0.027,3.722-0.07,4.71-0.07c1.021,0,2,0.043,4.124,0.07v-0.865l-1.451-0.07c-0.742-0.044-1.328-0.297-1.328-1.093
	v-7.479c0-2.778,0.158-4.772,0.236-5.89l-0.279-0.244c-1.992,0.796-5.243,1.947-6.948,2.351c-0.026,0.489,0.07,1.005,0.333,1.624
	L82.713,90.492z"/>
<path fill="#FFFFFF" d="M80.712,65.091c-0.498,0.008-1.022,0.025-1.563,0.034c-1.346,0.036-2.752,0.07-3.993,0.07
	c-1.066,0-2.159-0.025-3.216-0.062c-0.665-0.017-1.337-0.034-2.001-0.052h-0.184v1.809l2.045,0.079
	c1.206,0.043,1.852,0.244,1.852,1.144v4.562c-1.529,0.569-2.909,0.839-4.333,0.839c-6.92,0-9.375-6.108-9.375-11.342
	c0-5.942,3.39-9.629,8.851-9.629c3.189,0,6.038,0.917,7.296,2.351l0.175,2.988l0.008,0.157h1.705l0.078-0.708
	c0.184-1.573,0.446-3.731,0.752-4.858l0.026-0.07l-0.28-0.498l-0.052-0.026c-3.609-1.485-7-1.686-9.839-1.686
	c-7.165,0-14.399,3.845-14.399,12.434c0,8.153,5.461,13.222,14.251,13.222c3.32,0,6.737-0.699,10.442-2.134l0.113-0.043v-5.924
	c0-0.725,0.428-0.847,1.678-1.101l0.139-0.026v-1.538L80.712,65.091z"/>
<path fill="#FFFFFF" d="M50.006,52.971c0.131-0.262,0.394-0.428,1.32-0.507l1.478-0.122v-1.661h-0.185
	c-0.743,0.018-1.397,0.035-1.992,0.062c-0.813,0.026-1.521,0.052-2.132,0.052c-0.604,0-1.319-0.026-2.141-0.052
	c-0.585-0.018-1.224-0.044-1.939-0.053h-0.122l-0.044,0.113c-0.157,0.358-0.314,0.734-0.471,1.128
	c-0.403,0.961-0.813,1.957-1.268,2.883l-6.353,13.107l-5.453-11.395c-0.253-0.542-0.559-1.197-0.891-1.887
	c-0.638-1.346-1.355-2.875-1.783-3.836l-0.052-0.113h-0.114c-0.393,0.009-0.786,0.026-1.188,0.035c-2.001,0.07-4.116,0.078-6.143,0
	c-0.401-0.009-0.795-0.026-1.197-0.035h-0.183v1.661l1.477,0.122c0.917,0.07,1.179,0.245,1.319,0.498
	c0.183,0.401,0.227,1.328,0.227,2.805v14.505c0,1.442-0.035,2.411-0.227,2.787c-0.14,0.271-0.402,0.446-1.319,0.515l-1.477,0.124
	v1.661h0.183c0.429-0.009,0.865-0.026,1.303-0.044c0.917-0.035,1.861-0.07,2.778-0.07c0.918,0,1.844,0.035,2.745,0.07
	c0.437,0.018,0.874,0.035,1.311,0.044h0.183v-1.661l-1.485-0.124c-0.909-0.069-1.179-0.244-1.319-0.506
	c-0.193-0.385-0.228-1.354-0.228-2.796v-14.06l7.837,16.331l0.14,0.297c0.42,0.901,0.813,1.748,1.128,2.639l0.042,0.114h1.46
	l0.044-0.114c0.472-1.188,1.171-2.726,2.123-4.692l6.991-14.548v14.016c0,1.441-0.035,2.411-0.227,2.787
	c-0.114,0.227-0.498,0.35-1.311,0.402l-1.476,0.123v1.766l1.135-0.027c1.293-0.033,2.893-0.078,4.587-0.078
	c1.652,0,3.251,0.044,4.535,0.078l1.162,0.027v-1.766l-1.485-0.123c-0.813-0.06-1.196-0.184-1.32-0.402
	c-0.191-0.384-0.227-1.354-0.227-2.795V55.749C49.779,54.299,49.815,53.364,50.006,52.971z"/>
<path fill="#FFFFFF" d="M107.765,52.971c0.113-0.219,0.507-0.341,1.319-0.402l1.494-0.123V50.69h-0.184
	c-0.402,0.009-0.838,0.018-1.311,0.026c-1.268,0.035-2.718,0.07-4.255,0.07c-1.564,0-3.006-0.035-4.291-0.07
	c-0.471-0.008-0.908-0.026-1.302-0.026h-0.183v1.756l1.485,0.123c0.822,0.061,1.216,0.183,1.329,0.402
	c0.209,0.419,0.227,1.564,0.227,2.805v5.453c-0.516,0.026-1.214,0.062-2.726,0.062h-5.251c-1.512,0-2.21-0.036-2.726-0.062v-5.453
	c0-1.293,0.018-2.394,0.228-2.805c0.112-0.219,0.507-0.341,1.336-0.402l1.485-0.123V50.69h-0.183
	c-0.402,0.009-0.848,0.018-1.319,0.026c-1.268,0.035-2.708,0.07-4.229,0.07c-1.565,0-3.024-0.035-4.299-0.07
	c-0.465-0.008-0.901-0.026-1.303-0.026h-0.185v1.756l1.496,0.123c0.813,0.061,1.214,0.183,1.319,0.402
	c0.209,0.401,0.227,1.511,0.227,2.796v14.505c0,1.293-0.017,2.385-0.227,2.804c-0.114,0.228-0.49,0.341-1.328,0.411l-1.495,0.113
	v1.774l0.804-0.026c1.389-0.036,3.111-0.087,4.973-0.087c1.808,0,3.53,0.051,4.91,0.087l0.83,0.026v-1.774l-1.485-0.113
	c-0.839-0.07-1.224-0.184-1.337-0.411c-0.209-0.41-0.227-1.511-0.227-2.804v-6.589c0.516-0.035,1.214-0.062,2.726-0.062h5.251
	c1.512,0,2.211,0.026,2.727,0.062v6.589c0,1.241-0.018,2.376-0.228,2.804c-0.113,0.228-0.498,0.341-1.337,0.411l-1.485,0.113v1.774
	l0.813-0.026c1.381-0.043,3.11-0.087,4.963-0.087c1.826,0,3.548,0.051,4.928,0.087l0.821,0.026v-1.774l-1.495-0.113
	c-0.83-0.07-1.213-0.184-1.319-0.411c-0.218-0.41-0.235-1.511-0.235-2.796V55.775C107.529,54.482,107.546,53.381,107.765,52.971z"/>
</svg>
