<?xml version="1.0" encoding="UTF-8" standalone="no"?>
<!-- Created with Inkscape (http://www.inkscape.org/) -->

<svg
   xmlns:dc="http://purl.org/dc/elements/1.1/"
   xmlns:cc="http://creativecommons.org/ns#"
   xmlns:rdf="http://www.w3.org/1999/02/22-rdf-syntax-ns#"
   xmlns:svg="http://www.w3.org/2000/svg"
   xmlns="http://www.w3.org/2000/svg"
   xmlns:sodipodi="http://sodipodi.sourceforge.net/DTD/sodipodi-0.dtd"
   xmlns:inkscape="http://www.inkscape.org/namespaces/inkscape"
   id="svg3124"
   version="1.1"
   inkscape:version="0.48.4 r9939"
   sodipodi:docname="frontal_right.svg">
  <defs
     id="defs3126" />
  <sodipodi:namedview
     id="base"
     pagecolor="#ffffff"
     bordercolor="#ffffff"
     borderopacity="0.0"
     inkscape:pageopacity="0.0"
     inkscape:pageshadow="0"
     inkscape:zoom="0.35"
     inkscape:cx="350"
     inkscape:cy="520"
     inkscape:document-units="px"
     inkscape:current-layer="layer1"
     showgrid="false"
     inkscape:window-width="505"
     inkscape:window-height="423"
     inkscape:window-x="2126"
     inkscape:window-y="291"
     inkscape:window-maximized="0" />
  <metadata
     id="metadata3129">
    <rdf:RDF>
      <cc:Work
         rdf:about="">
        <dc:format>image/svg+xml</dc:format>
        <dc:type
           rdf:resource="http://purl.org/dc/dcmitype/StillImage" />
        <dc:title></dc:title>
      </cc:Work>
    </rdf:RDF>
  </metadata>
  <g
     inkscape:label="Layer 1"
     inkscape:groupmode="layer"
     id="layer1">
    <path
       style="fill:#e86225;fill-rule:evenodd;stroke:#000000;stroke-miterlimit:10"
       inkscape:connector-curvature="0"
       clip-rule="evenodd"
       stroke-miterlimit="10"
       d="m 502.37498,598.65704 c 0.892,-15.783 1.784,-31.566 2.676,-47.352 0.768,0.064 4.363,-21.688 3.753,-20.972 -3.08,-20.135 -6.41,-38.684 -1.242,-57.131 0.782,0.578 0.386,-40.393 0.051,-39.391 -4.218,-5.791 -2.474,-13.154 -7.851,-16.854 -4.869,-3.35 -9.972,-6.361 -15.764,-10.021 5.148,-2.41 11.728,1.893 14.14,-4.486 3.557,-9.405 5.364,-19.056 1.741,-30.354 -2.076,5.958 -5.411,8.514 -10.839,6.824 0.358,1.841 0.907,3.666 1.046,5.523 0.647,8.662 -7.155,14.833 -15.023,11.458 -2.863,-1.229 -5.537,-1.132 -8.332,-1.345 -4.615,-0.351 -7.66,-2.072 -5.866,-7.271 2.423,-7.025 -1.829,-7.049 -6.4,-6.103 -7.805,1.618 -13.935,6.148 -19.067,12.114 -2.041,6.363 -4.458,12.322 -9.463,17.277 -6.277,6.217 -3.422,14.375 -2.32,21.572 0.784,5.141 2.126,10.602 5.826,14.932 2.065,2.418 2.15,5.184 0.08,7.809 -0.715,4.871 3.083,5.297 6.248,6.344 2.691,0.414 5.382,0.826 8.072,1.24 0.178,-6.113 3.312,-5.158 6.707,-2.627 3.615,2.695 6.095,6.264 8.164,10.375 4.834,9.604 7.938,20.125 14.97,28.594 1.681,2.025 2.399,4.445 1.165,6.754 -8.924,-6.18 -12.667,-16.895 -20.73,-23.941 -0.752,0.76 -1.504,1.52 -2.257,2.279 0.409,5.256 0.192,10.369 6.806,12.939 3.031,1.178 4.475,5.09 5.541,9.145 2.333,8.871 6.902,16.934 16.777,19.969 3.631,-2.449 5.696,-5.637 5.77,-10.236 0.035,-2.129 0.949,-4.807 3.795,-4.648 3.068,0.17 2.704,3.244 3.087,5.236 1.913,9.949 -4.386,16.721 -12.681,13.824 -6.921,-0.691 -13.81,-0.916 -17.826,-8.439 -1.287,-2.41 -5.201,-2.084 -7.833,-0.637 -3.262,1.795 -4.902,4.857 -5.212,8.574 -0.23,2.76 0.352,5.26 3.405,5.996 10.329,2.488 5.942,6.037 0.783,9.704 -1.88,1.414 -3.759,2.83 -5.638,4.242 -0.002,0 -0.094,0.09 -0.092,0.088 0.459,4.033 -5.183,9.256 1.082,11.91 5.289,2.242 11.543,2.578 16.313,-2.031 5.82,-5.623 11.644,-11.152 19.403,-14.012 7.888,-2.907 9.973,-1.383 9.331,7.191 -0.455,6.074 -1.42,12.109 -2.157,18.164 -1.242,2.279 -2.061,4.639 -1.354,7.279 6.53,8.834 -0.18,16.895 -1.305,25.32 -0.344,2.586 -7.755,8.994 3.084,7.537 2.178,-0.291 1.546,2.381 1.611,3.738 0.251,5.219 -0.409,10.34 -3.754,14.582 -3.385,4.295 -5.477,8.555 -2.775,14.098 1.13,2.318 1.524,5.535 -1.268,6.875 -4.678,2.248 -2.618,-2.605 -3.8,-4.125 -2.774,-3.566 -4.557,-1 -5.132,1.434 -1.145,4.844 -3.816,6.684 -8.319,4.988 -4.602,-1.732 -10.806,-2.926 -10.985,-8.916 -0.23,-7.715 -0.782,-16.43 9.332,-19.66 1.739,-0.557 4.632,-1.824 3.059,-3.777 -7.215,-8.951 0.063,-12.094 5.807,-16.154 0.871,-0.615 1,-2.281 1.474,-3.463 -0.474,-0.49 -0.949,-0.98 -1.423,-1.473 -1.221,0.008 -2.44,0.018 -3.662,0.025 l -0.156,0.107 c -9.553,6.83 -19.886,4.943 -30.141,2.457 -5.588,-1.352 -10.973,-3.771 -16.81,-3.682 -2.417,0.037 -5.575,0.463 -6.104,3.561 -0.44,2.578 1.964,3.955 4.026,4.766 3.626,1.428 6.44,3.859 9.166,6.482 2.216,0.273 4.476,0.357 6.639,0.861 4.602,1.068 7.454,3.748 6.795,8.844 -0.752,5.807 -5.213,4.631 -8.862,4.213 -4.108,-0.471 -8.153,-1.496 -12.226,-2.279 -5.93,1.428 -5.037,4.84 -2.302,8.492 2.806,3.748 6.817,5.826 11.233,7.082 8.682,2.473 11.141,7.777 7.543,16.023 -0.639,1.463 -0.614,3.373 -1.57,4.51 -2.496,2.967 0.704,10.402 -4.76,9.547 -5.719,-0.896 -12.019,-5.352 -11.78,-12.309 0.308,-8.982 -1.647,-16.09 -8.423,-22.35 -4.531,-4.188 -3.494,-11.172 -1.079,-15.316 3.396,-5.83 3.188,-7.188 -3.444,-6.984 -2.116,0.064 -4.941,0.566 -4.922,-2.9 0.016,-2.641 1.41,-3.539 4.311,-3.752 6.702,-0.492 6.416,-6.654 6.793,-10.918 0.729,-8.193 5.329,-8.832 11.326,-6.869 13.521,4.426 26.875,5.34 40.438,0.119 4.516,-1.74 8.281,2.928 13.019,2.529 2.141,-3.07 -0.534,-6.01 -0.803,-8.9 -0.813,-8.719 -5.991,-12.016 -14.077,-8.451 -9.793,4.32 -19.795,5.01 -30.144,4.67 -5.455,-0.18 -10.614,-1.537 -12.994,-6.688 -2.257,-4.879 1.381,-8.848 4.706,-11.656 6.829,-5.768 4.689,-14.311 7.515,-21.253 -1.206,-11.625 7.63,-16.123 15.434,-20.863 7.454,-4.527 4.468,-9.996 2.494,-15.555 -2.188,-6.162 -6.327,-7.07 -11.733,-3.955 3.854,3.338 4.055,6.67 -0.767,8.941 -13.024,6.133 -18.048,8.102 -27.562,-7.277 -2.041,-2.395 -4.084,-4.787 -6.126,-7.18 -2.579,-1.314 -2.419,-5.457 -5.962,-5.779 0.477,3.086 0.955,6.172 1.535,9.918 -2.78,-4.68 -5.928,-6.186 -10.03,-2.895 -2.987,2.395 -5.908,4.896 -8.662,7.555 -6.247,6.031 -12.548,5.939 -20.658,-0.123 7.305,-0.607 15.39,6.59 18.408,-4.115 -7.886,0.625 -20.074,-7.58 -21.097,-15.328 -0.809,-6.135 -2.104,-12.678 1.143,-18.73 0.079,-0.951 0.158,-1.9 0.238,-2.852 -2.443,0.289 -4.721,1.297 -4.602,3.979 0.328,7.346 -1.847,13.045 -8.367,17.201 -3.347,2.133 -0.067,5.322 0.528,7.848 0.606,2.57 0.101,4.566 -1.526,6.127 -1.475,1.414 -3.747,1.49 -5.36,0.215 -2.046,-1.619 -3.194,-3.641 -2.47,-6.707 0.992,-4.199 3.658,-7.455 5.33,-11.238 4.467,-10.105 1.74,-15.365 -8.261,-16.316 -2.015,1.654 -1.554,4.037 -1.834,6.207 -0.259,2.012 0.552,5.211 -3.28,3.881 -2.364,-0.82 -6.207,-3.639 -5.144,-4.73 4.401,-4.516 5.875,-12.652 14.241,-12.648 1.43,-2.516 2.859,-5.031 4.288,-7.547 -2.471,-5.572 3.821,-3.279 4.999,-5.572 0.119,-1.596 0.586,-3.262 0.291,-4.779 -0.791,-4.084 2.251,-11.771 -2.125,-11.5 -4.631,0.287 -12.881,3.293 -11.389,12.264 0.143,0.857 -0.275,1.809 -1.183,2.76 -0.271,-4.113 -0.27,-8.268 -0.888,-12.328 -0.678,-4.467 0.086,-8.246 3.453,-11.363 -6.432,-5.834 -1.357,-14.391 -4.77,-20.703 -3.721,-6.886 -2.625,-34.563 2.55,-40.11 0.925,-0.991 2.849,-1.052 4.31,-1.541 -6.629,-3.642 -11.727,-4.173 -13.514,5.318 -2.309,12.262 -4.996,24.506 -4.711,37.012 0.172,7.477 -2.639,9.123 -8.883,7.084 -1.39,-4.307 4.688,-4.697 4.154,-7.785 -1.83,-10.58 2.643,-20.191 3.839,-30.275 0.773,-6.502 -2.301,-10.166 -9.534,-7.766 0.016,0.025 0.034,0.046 0.05,0.072 -0.012,0.002 -0.024,0.003 -0.036,0.005 3.988,7.42 1.198,15.485 0.946,22.937 -0.244,7.229 -5.5,2.405 -8.643,0.34 -0.665,3.063 -1.327,6.127 -1.994,9.191 -0.513,2.355 -0.322,6.111 -3.471,5.687 -4.47,-0.602 -1.563,-4.385 -1.685,-6.837 -0.185,-2.543 -0.015,-5.176 -0.634,-7.608 -1,-3.936 -3.764,-7.284 -7.597,-7.769 -3.714,-0.469 -4.622,3.712 -5.933,6.574 -1.457,3.186 -2.734,6.47 -4.414,9.534 -1.387,2.533 -3.085,5.137 -6.775,3.61 -3.115,-1.289 -4.001,-3.798 -3.996,-6.967 0.008,-5.949 14.701,-29.479 19.893,-31.809 2.92,-1.31 5.537,-0.128 8.375,0.389 5.294,0.965 10.307,3.715 15.927,2.728 -0.013,-0.023 -0.022,-0.048 -0.035,-0.071 0.007,-0.002 0.013,-0.003 0.02,-0.006 -2.334,-3.664 -6.422,-3.286 -9.926,-4.36 -5.463,-1.677 -12.924,-2.653 -14.416,-8.245 -3.988,-14.949 -13.486,-11.329 -23.146,-8.402 -2.945,0.892 -5.661,2.539 -8.483,3.84 1.41,6.711 1.571,14.057 4.568,19.961 3.271,6.443 3.301,12.02 0.463,17.868 -5.049,10.4 -3.699,19.954 2.502,29.333 1.155,1.746 1.698,4.053 2.01,6.178 2.073,14.184 3.504,28.469 11.645,41.004 3,4.617 5.445,9.26 6.285,15.404 1.409,10.322 -0.823,22.402 6.848,30.602 8.506,9.092 0.576,21.834 8.715,30.395 1.255,1.32 1.715,3.367 2.857,4.832 6.281,8.063 11.357,16.214 12.632,27.083 0.857,7.309 0.867,16.432 9.204,21.168 0.72,0.41 1.61,1.951 1.369,2.406 -3.627,6.83 2.434,9.898 4.974,14.668 4.857,9.121 13.103,15.293 18.677,23.67 1.944,0.432 23.08,22.717 23.08,22.717 1.1,0.697 3.023,0.744 2.261,2.871 18.181,11.449 34.942,25.311 56.834,30.219 14.343,3.217 28.37,5.51 42.807,1.516 0.499,-4.406 3.253,-4.574 6.618,-3.592 -0.258,-1.58 0.547,-2.102 2.005,-1.969 2.326,-4.74 4.019,-9.951 9.32,-12.471 0.16,-0.93 0.319,-1.867 0.479,-2.805 -2.383,-8.775 -2.799,-17.156 1.619,-25.791 3.102,-6.064 4.362,-13.068 7.06,-21.594 0.149,0.525 1.815,-10.203 0.702,-15.746 z m -21.087,-57.931 c -2.339,4.384 -7.153,6.937 -13.513,6.632 -1.291,-0.113 -4.547,0.543 -3.713,-2.943 1.482,-6.202 6.885,-6.847 12.102,-7.04 2.407,-0.088 6.713,0.377 5.124,3.351 z m -209.791,-191.525 c 1.448,-3.076 1.962,-7.164 6.388,-7.226 2.058,-0.029 1.965,2.169 1.421,3.75 -1.342,3.9 -0.652,9.672 -7.622,8.597 -0.619,-0.096 -1.232,-0.243 -3.108,-0.62 1.248,-1.896 2.268,-3.112 2.921,-4.501 z m 176.255,160.812 c -5.318,9.521 -14.338,8.682 -21.957,10.986 10.388,20.764 6.197,33.921 -13.234,41.495 -0.512,-1.953 1.234,-2.572 2.082,-3.6 13.09,-15.874 13.215,-18.935 2.413,-36.511 -3.292,-5.357 -5.977,-11.09 -8.554,-18.006 11.213,14.732 24.738,13.209 39.25,5.636 z m -106.731,7.92 c 0.953,-4.283 5.024,-6.623 9.963,-4.502 2.659,1.141 5.263,2.42 7.87,3.68 1.508,0.727 3.811,1.475 4.297,-0.105 3.906,-12.682 9.025,-2.609 13.639,-0.834 0.859,0.332 1.545,1.113 2.312,1.688 6.231,0.816 9.95,-2.09 13.118,-7.385 3.268,-5.463 9.352,-4.746 11.541,1.086 3.125,8.326 5.477,16.945 8.678,25.238 2.063,5.348 0.372,10.021 -1.097,14.897 -1.819,6.039 -6.897,8.211 -11.948,7.02 -5.058,-1.193 -5.524,-6.41 -4.127,-11.043 2.138,-7.091 0.146,-11.657 -7.371,-13.272 -8.357,-0.334 -15.729,-6.617 -24.563,-4.072 -2.656,2.734 2.154,11.783 -6.495,8.912 -5.616,-1.863 -9.716,-5.803 -4.237,-13.283 3.192,-4.359 -2.601,-3.314 -4.77,-3.602 -3.187,-0.425 -7.774,-0.098 -6.81,-4.423 z m 36.71,23.856 c -5.231,-1.262 -8.156,-1.967 -12.535,-3.021 4.873,-1.61 7.921,-0.889 12.535,3.021 z m -38.108,-8.393 c 2.452,5.361 -4.662,6.324 -4.303,10.919 -4.813,-4.722 -0.826,-7.704 1.054,-10.913 0.769,-1.31 2.769,-1.06 3.249,-0.006 z m -4.496,-33.105 c 0.02,4.725 6.916,8.389 2.236,13.672 -0.984,1.113 -3.565,1.199 -4.248,-0.156 -2.338,-4.647 -0.724,-9.139 2.012,-13.516 z m -50.877,-58.78 c -4.004,0.375 -3.439,-3.611 -3.52,-6.457 -0.066,-2.441 -1.254,-4.477 -3.438,-5.422 -4.852,-2.1 -4.229,-6.637 -5.008,-9.658 -0.271,-4.201 0.02,-8.004 2.253,-10.016 5.235,-4.713 7.579,-10.65 9.399,-17.06 0.609,-2.146 1.286,-5.189 3.942,-4.548 2.864,0.689 2.921,3.661 2.257,6.395 -0.764,3.151 -1.611,6.293 -4.16,8.45 -9.227,7.809 -10.125,14.623 -2.076,23.311 2.147,2.316 3.671,4.207 3.381,7.25 -0.276,2.906 1.388,7.339 -3.03,7.755 z m 12.49,-10.792 c -5.879,-3.219 -12.16,-5.455 -10.461,-13.904 0.311,-1.543 0.172,-3.357 2.141,-3.779 1.893,-0.406 2.702,1.002 3.551,2.451 2.59,4.419 8.156,7.694 4.769,15.232 z m 0.468,-20.916 c 0.394,-2.58 2.886,-2.613 4.491,-1.711 4.424,2.488 8.691,5.35 6.561,12.164 -1.501,-0.662 -2.748,-0.973 -3.706,-1.676 -3.161,-2.322 -8.182,-3.293 -7.346,-8.777 z m 12.159,107.474 c -3.189,3.17 -4.664,6.607 -4.576,12.537 -8.668,-9.896 -2.938,-19.141 -2.975,-27.963 -0.008,-1.896 1.756,-2.775 3.475,-2.164 5.279,1.873 8.227,13.465 4.076,17.59 z m 11.768,17.834 c -3.354,-1.572 -7.467,-2.539 -8.03,-7.252 -0.276,-2.309 -0.11,-4.766 1.796,-6.207 12.029,-9.096 6.725,-18.91 1.412,-28.795 -0.592,-1.102 -0.939,-2.336 -1.4,-3.51 -6.951,-9.211 -10.344,-19.648 -10.711,-31.127 -1.787,-0.637 -2.626,-2.338 -2.314,-3.764 0.517,-2.365 2.23,-1.254 3.671,-0.604 0.843,0.383 1.862,0.801 2.712,0.66 3.268,-0.537 7.781,2.047 9.582,-1.803 1.846,-3.941 -1.623,-7.125 -4.096,-10.063 -2.865,-3.402 -8.654,-5.123 -5.805,-13.914 4.332,9.73 13.172,11.172 19.665,16.049 6.567,4.934 5.161,8.48 -4.871,14.146 -5.458,7.443 -7.255,14.449 2.009,20.557 1.047,0.691 1.208,2.725 1.779,4.137 2.195,6.607 -1.013,13.006 -0.842,19.684 0.328,12.838 -0.609,13.066 10.809,19.791 -3.648,3.471 -10.326,3.684 -10.725,10.42 -0.143,2.437 -2.899,2.412 -4.641,1.595 z m 9.254,34.185 c -1.572,-4.709 -7.537,-9.859 -6.457,-13.135 2.039,-6.182 8.545,1.869 12.971,-1.074 4.665,-3.102 8.982,-2.363 12.77,1.711 1.24,0.16 2.48,0.32 3.722,0.479 10.41,1.367 18.158,-6.891 27.958,-7.732 -0.662,-1.756 -1.324,-3.514 -2.217,-5.879 5.652,0.684 9.462,2.031 10.871,8.355 2.1,9.418 6.742,16.873 18.807,15.758 -15.5,2.021 -27.677,19.115 -45.344,8.674 -0.092,0 -0.184,-0.002 -0.276,-0.002 -0.091,-0.074 -0.181,-0.15 -0.271,-0.227 -0.565,-0.193 -1.131,-0.389 -1.697,-0.582 0.219,-0.086 0.523,-0.311 0.641,-0.236 0.376,0.236 0.715,0.529 1.057,0.818 0.119,0.041 0.236,0.08 0.355,0.121 0.064,0.039 0.127,0.07 0.191,0.107 4.053,0.037 8.102,0.09 12.151,0.113 14.39,0.084 19.136,-7.328 12.624,-19.865 -0.998,-1.924 -2.578,-3.545 -3.889,-5.305 -0.12,1.254 -0.302,2.506 -0.35,3.766 -0.182,4.775 6.213,10.619 -1.662,14.105 -8.159,3.611 -16.617,6.207 -23.078,-3.334 -3.033,-1.256 -6.167,-1.438 -9.369,-0.873 -2.227,3.645 -5.401,6.197 -9.229,7.992 -4.676,2.194 -8.195,2.495 -10.279,-3.755 z m 30.527,49.513 c -0.125,1.656 -0.611,3.4 -2.664,2.951 -2.471,-0.537 -5.285,-1.619 -5.72,-4.313 -0.462,-2.857 2.476,-1.924 3.999,-2.385 2.352,0.292 4.622,0.607 4.385,3.747 z m 33.135,24.514 c -4.338,1.006 -5.396,-2.068 -5.758,-5.627 -0.131,-1.283 -0.779,-2.416 -2.477,-2.447 -3.871,2.906 1.802,6.443 -1.008,10.072 -5.661,-1.363 -11.01,-3.762 -13.736,-9.545 -1.637,-3.469 0.467,-6.055 3.977,-7.324 1.723,-6.195 -1.191,-10.453 -6.291,-13.092 -7.402,-3.83 -11.788,-7.549 -2.026,-13.764 0.931,-0.592 1.22,-2.195 1.805,-3.33 -0.985,-6.369 -5.571,-8.957 -11.144,-10.094 -4.141,-0.848 -8.171,-1.537 -11.305,-6.061 7.285,-2.645 14.096,-1.805 20.879,-0.693 2.846,0.467 5.591,1.582 8.441,1.988 8.592,1.225 17.666,3.572 21.432,-9.072 4.147,4.906 3.545,9.717 5.047,13.77 0.028,-0.014 0.057,-0.021 0.084,-0.033 -0.008,0.023 -0.018,0.045 -0.026,0.068 9.202,-1.365 6.729,-9.27 8.277,-16.094 14.096,12.906 32.243,10.506 48.87,15.246 -11.563,2.828 -21.899,-1.227 -32.184,-3.924 -7.22,-1.893 -11.65,-0.582 -14.801,6.232 -2.458,5.311 -5.787,9.211 -12.48,10.693 -7.785,1.725 -9.89,10.58 -3.137,13.969 13.863,6.961 11.254,19.764 13.576,31.135 -10.122,-16.012 -15.907,-34.688 -31.795,-48.703 9.574,-1.959 19.839,2.482 23.673,-8.555 -0.015,0.004 -0.027,0.006 -0.042,0.008 -0.006,-0.014 -0.01,-0.029 -0.016,-0.043 -6.859,3.023 -13.637,0.76 -20.166,-0.949 -7.033,-1.838 -11.186,-0.732 -11.391,7.322 -0.533,4.732 0.49,8.465 4.898,11.42 5.874,3.938 5.506,12.084 10.294,16.939 6.667,1.711 11.642,5.053 12.084,12.674 0.188,3.22 0.567,6.861 -3.554,7.814 z m 20.693,23.957 c -9.531,-1.773 -9.735,-2.545 -4.173,-10.473 1.671,-2.381 2.479,-5.486 6.114,-4.717 3.617,0.766 2.641,4.041 2.453,6.322 -0.358,4.359 3.389,6.625 4.992,11.041 -3.942,-0.921 -6.642,-1.663 -9.386,-2.173 z m 31.248,-36.049 c 7.35,-5.33 11.566,-10.744 4.343,-19.783 6.608,2.543 12.831,5.85 7.665,12.65 -6.055,7.971 -8.01,15.223 -0.771,24.252 -1.047,0.1 -2.094,0.197 -3.141,0.297 -2.612,-2.215 -5.306,-4.344 -7.82,-6.666 -3.729,-3.445 -4.233,-7.881 -0.276,-10.75 z m 22.873,42.899 c -7.242,2.473 -14.639,4.391 -23.726,-0.002 9.569,-1.344 20.221,0.818 17.229,-13.717 -0.695,-3.379 2.307,-5.189 5.789,-3.305 3.736,2.023 6.955,4.563 6.967,9.479 0.011,4.328 -2.899,6.398 -6.259,7.545 z m -26.804,-277.986 c 1.784,-2.59 4.303,-4.735 6.729,-6.802 2.1,-1.79 4.396,-5.344 7.182,-3.57 3.588,2.288 -0.563,4.899 -1.3,7.314 -1.37,4.49 0.034,7.363 4.679,6.919 5.558,-0.527 12.392,-3.963 15.005,3.16 2.813,7.668 -5.036,11.449 -9.2,16.35 -0.561,0.66 -1.578,0.932 -2.373,1.375 -4.549,-6.787 -8.098,-13.947 -17.729,-15.109 -5.333,-0.643 -5.877,-5.451 -2.993,-9.637 z m 57.621,63.846 c -0.674,4.754 -1.435,9.383 -1.175,14.201 0.243,4.527 0.267,8.889 -4.863,11.479 -5.145,2.598 -2.915,7.91 -3.569,12.133 0.418,4.375 -2.407,7.055 -5.926,6.922 -3.186,-0.119 -1.315,-4.215 -2.18,-6.365 -2.504,-6.225 -3.82,-12.699 -4.369,-19.342 -0.991,-12.01 -10.277,-16.146 -19.326,-20.537 -1.541,-4.535 -4.837,-5.838 -9.416,-5.852 -3.294,-0.008 -6.782,1.479 -9.959,-0.643 -2.286,1.08 -3.238,-0.445 -3.881,-2.154 -0.586,-1.557 -0.395,-2.906 1.799,-2.844 -4.964,-12.23 1.023,-26.629 11.655,-27.826 3.094,-0.35 6.936,-1.506 8.954,1.467 2.744,4.045 -3.697,4.322 -3.955,8.113 11.133,2.396 14.514,13.301 21.547,20.49 5.009,6.023 11.023,10.512 18.8,12.309 5.057,-5.084 2.665,-7.223 -3.079,-8.889 -6.149,-1.781 -12.144,-3.66 -11.548,-12.578 0.394,-5.885 5.962,-7.779 7.337,-12.527 3.171,3.979 9.648,3.223 11.913,8.764 3.195,7.816 2.352,15.837 1.241,23.679 z"
       id="path3075" />
    <path
       style="fill:#e86225;fill-rule:evenodd;stroke:#000000;stroke-miterlimit:10"
       inkscape:connector-curvature="0"
       clip-rule="evenodd"
       stroke-miterlimit="10"
       d="m 365.30498,376.88804 c 4.089,8.363 12.003,10.304 20.088,11.958 13.225,7.734 13.841,10.666 5.549,23.5 -1.307,2.021 -1.524,4.746 -2.246,7.146 -6.92,5.838 3.84,5.779 3.354,10.203 -1.081,9.805 5.098,19.162 2.432,29.35 -0.775,2.955 -0.219,6.26 -0.275,9.4 -10.703,0.531 -6.398,7.689 -5.824,13.197 -7.867,-0.674 -6.492,-5.785 -4.072,-10.023 3.318,-5.811 3.574,-11.928 4.433,-18.258 1.565,-11.578 -6.216,-19.068 -17.342,-14.461 -0.677,-8.77 7.706,-11.324 13.315,-19.379 -11.924,4.922 -19.693,11.674 -27.955,17.57 -4.227,-14.623 -0.844,-21.697 13.413,-25.926 4.409,-1.309 7.95,-2.143 10.011,-6.926 1.294,-3.006 5.801,-5.158 3.874,-8.979 -2.085,-4.133 -6.716,-2.954 -10.469,-2.813 -5.916,0.223 -7.839,4.185 -9.091,9.388 -1.451,6.027 -3.863,11.943 -11.85,11.197 -8.811,-0.824 -10.92,-7.494 -12.48,-14.713 -1.48,-6.848 3.055,-9.272 8.016,-11.094 6.958,-2.557 6.725,-6.337 3.121,-11.772 -3.381,-5.099 -5.546,-10.828 -5.799,-17.094 6.598,6.176 13.197,12.352 19.797,18.529 z m 2.798,8.875 c -7.12,0.035 -11.622,4.772 -16.913,8.039 -2.436,1.503 -3.913,3.026 -3.332,6.042 0.525,2.736 3.053,3.35 4.887,4.018 3.145,1.143 4.393,-1.682 5.537,-3.975 2.558,-5.122 4.741,-10.497 9.821,-14.124 z"
       id="path3077" />
    <path
       style="fill:#e86225;fill-rule:evenodd;stroke:#000000;stroke-miterlimit:10"
       inkscape:connector-curvature="0"
       clip-rule="evenodd"
       stroke-miterlimit="10"
       d="m 440.98198,377.05604 c -2.934,2.731 -5.805,5.504 -6.581,9.698 -1.236,0.572 -2.477,1.143 -3.717,1.713 -6.424,-0.171 -9.36,5.695 -14.164,8.357 -2.98,1.65 -5.271,4.449 -9.173,3.457 -0.244,-4.082 3.365,-5.002 5.74,-6.824 14.088,-10.812 29.243,-41.458 29.243,-41.458 1.49,0.152 3.852,-3.851 3.852,-3.852 2.527,-0.446 5.945,-3.678 5.945,-3.677 17.178,-1.587 23.637,10.709 29.984,23.149 -6.857,-3.193 -11.883,-9.191 -19.183,-11.907 -6.43,-2.393 -11.643,-2.012 -14.298,4.555 -1.98,4.901 -8.6,7.311 -7.18,13.836 -0.002,-0.003 -0.338,0.02 -0.338,0.02 -0.475,-0.037 -0.949,-0.075 -1.423,-0.113 0.378,0.424 0.755,0.847 1.134,1.27 0.06,0.591 0.113,1.183 0.159,1.776 z"
       id="path3079" />
    <path
       style="fill:#e86225;fill-rule:evenodd;stroke:#000000;stroke-miterlimit:10"
       inkscape:connector-curvature="0"
       clip-rule="evenodd"
       stroke-miterlimit="10"
       d="m 489.01498,379.10404 c -2.097,-0.388 -2.526,-2.139 -3.095,-3.777 2.381,0.154 3.736,1.148 3.095,3.777 z"
       id="path3081" />
    <path
       style="fill:#e86225;fill-rule:evenodd;stroke:#000000;stroke-miterlimit:10"
       inkscape:connector-curvature="0"
       clip-rule="evenodd"
       stroke-miterlimit="10"
       d="m 415.46798,458.68104 c -0.189,0.449 -0.438,0.863 -0.745,1.232 -12.209,1.111 -12.215,1.111 -12.314,-11.576 -0.073,-9.164 -1.236,-18.355 1.097,-27.65 1.473,10.516 8.255,19.545 7.609,30.555 -0.198,3.371 0.279,6.496 4.353,7.439 z"
       id="path3083" />
    <path
       style="fill:#e86225;fill-rule:evenodd;stroke:#000000;stroke-miterlimit:10"
       inkscape:connector-curvature="0"
       clip-rule="evenodd"
       stroke-miterlimit="10"
       d="m 393.70198,419.89404 c 5.16,-2.537 5.921,-7.9 8.035,-12.416 1.333,-2.844 0.964,-7.162 5.827,-7.158 -2.459,6.236 -2.877,13.34 -7.777,18.535 -1.717,1.823 -3.419,4.459 -6.085,1.039 z"
       id="path3085" />
    <path
       style="fill:#e86225;fill-rule:evenodd;stroke:#000000;stroke-miterlimit:10"
       inkscape:connector-curvature="0"
       clip-rule="evenodd"
       stroke-miterlimit="10"
       d="m 399.92298,483.66404 c -3.778,-2.188 -3.423,-6.432 -4.871,-9.781"
       id="path3087" />
    <path
       style="fill:#e86225;fill-rule:evenodd;stroke:#000000;stroke-miterlimit:10"
       inkscape:connector-curvature="0"
       clip-rule="evenodd"
       stroke-miterlimit="10"
       d="m 399.87298,483.57604 c 2.271,0.516 2.354,2.117 1.965,3.955"
       id="path3089" />
    <path
       style="fill:#e86225;fill-rule:evenodd;stroke:#000000;stroke-miterlimit:10"
       inkscape:connector-curvature="0"
       clip-rule="evenodd"
       stroke-miterlimit="10"
       d="m 440.24598,470.51504 c 3.557,-0.701 3.617,-3.941 4.686,-6.449 0.344,7.297 6.412,11.59 9.214,17.594 -6.56,-2.678 -12.374,-0.719 -18.073,2.686 -2.17,1.295 -5.271,2.809 -6.796,-0.135 -1.837,-3.547 1.452,-4.979 4.165,-6.158 2.307,-1 4.644,-1.926 6.945,-2.936 0.09,-0.039 0.059,-0.666 -0.102,-0.881 -0.166,-0.225 -0.557,-0.283 -0.85,-0.416 0.272,-1.103 0.542,-2.205 0.811,-3.305 z"
       id="path3091" />
    <path
       style="fill:#e86225;fill-rule:evenodd;stroke:#000000;stroke-miterlimit:10"
       inkscape:connector-curvature="0"
       clip-rule="evenodd"
       stroke-miterlimit="10"
       d="m 388.35598,481.62104 c 3.697,1.369 7.089,3.471 6.986,7.744 -0.068,2.908 -3.858,1.135 -5.443,2.623 -0.516,-3.451 -1.03,-6.91 -1.543,-10.367 z"
       id="path3093" />
    <path
       style="fill:#e86225;fill-rule:evenodd;stroke:#000000;stroke-miterlimit:10"
       inkscape:connector-curvature="0"
       clip-rule="evenodd"
       stroke-miterlimit="10"
       d="m 463.86098,446.18304 c -3.648,-4.514 -11.228,-4.869 -12.808,-12.818"
       id="path3095" />
  </g>
</svg>
