<?xml version="1.0" encoding="UTF-8" standalone="no"?>
<!-- Created with Inkscape (http://www.inkscape.org/) -->

<svg
   xmlns:dc="http://purl.org/dc/elements/1.1/"
   xmlns:cc="http://creativecommons.org/ns#"
   xmlns:rdf="http://www.w3.org/1999/02/22-rdf-syntax-ns#"
   xmlns:svg="http://www.w3.org/2000/svg"
   xmlns="http://www.w3.org/2000/svg"
   xmlns:sodipodi="http://sodipodi.sourceforge.net/DTD/sodipodi-0.dtd"
   xmlns:inkscape="http://www.inkscape.org/namespaces/inkscape"
   id="svg3006"
   version="1.1"
   inkscape:version="0.48.4 r9939"
   sodipodi:docname="frontal_left.svg">
  <defs
     id="defs3008" />
  <sodipodi:namedview
     id="base"
     pagecolor="#ffffff"
     bordercolor="#ffffff"
     borderopacity="0.0"
     inkscape:pageopacity="0.0"
     inkscape:pageshadow="0"
     inkscape:zoom="0.35"
     inkscape:cx="-197.14286"
     inkscape:cy="520"
     inkscape:document-units="px"
     inkscape:current-layer="layer1"
     showgrid="false"
     inkscape:window-width="1400"
     inkscape:window-height="1028"
     inkscape:window-x="-8"
     inkscape:window-y="22"
     inkscape:window-maximized="1"
     showborder="true" />
  <metadata
     id="metadata3011">
    <rdf:RDF>
      <cc:Work
         rdf:about="">
        <dc:format>image/svg+xml</dc:format>
        <dc:type
           rdf:resource="http://purl.org/dc/dcmitype/StillImage" />
        <dc:title />
      </cc:Work>
    </rdf:RDF>
  </metadata>
  <g
     inkscape:label="Layer 1"
     inkscape:groupmode="layer"
     id="layer1">
    <path
       id="path3976"
       d="m 476.5462,523.86044 c 0,0 0.031,-0.059 0.032,-0.063 0.002,-0.005 -0.032,0.063 -0.032,0.063 z"
       stroke-miterlimit="10"
       clip-rule="evenodd"
       inkscape:connector-curvature="0"
       style="fill:#3b3b39;fill-rule:evenodd;stroke:#000000;stroke-miterlimit:10" />
    <path
       id="path3978"
       d="m 491.3272,548.53344 c 0.699,0.532 1.399,1.064 2.097,1.596 -1.34,0.309 -2.058,-0.197 -2.097,-1.596 z"
       stroke-miterlimit="10"
       clip-rule="evenodd"
       inkscape:connector-curvature="0"
       style="fill:#f0b66f;fill-rule:evenodd;stroke:#000000;stroke-miterlimit:10" />
    <path
       id="path3980"
       d="m 572.8872,290.07344 c 0.044,-0.002 0.089,0.002 0.133,0.002 0.017,-0.031 0.037,-0.053 0.053,-0.084 l -0.186,0.082 z"
       stroke-miterlimit="10"
       clip-rule="evenodd"
       inkscape:connector-curvature="0"
       style="fill:#e86225;fill-rule:evenodd;stroke:#000000;stroke-miterlimit:10" />
    <path
       id="path3982"
       d="m 568.2302,292.20244 c 0.006,0.002 0.013,0 0.019,0.002 10e-4,-0.004 0.003,-0.006 0.004,-0.01 -10e-4,0 -0.026,0.01 -0.023,0.008 z"
       stroke-miterlimit="10"
       clip-rule="evenodd"
       inkscape:connector-curvature="0"
       style="fill:#e86225;fill-rule:evenodd;stroke:#000000;stroke-miterlimit:10" />
    <path
       id="path3984"
       d="m 481.0182,518.65344 c -10e-4,0.004 -0.032,0.063 -0.032,0.063 0.002,-0.002 0.005,-0.004 0.007,-0.008 0.008,-0.018 0.016,-0.037 0.025,-0.055 z"
       stroke-miterlimit="10"
       clip-rule="evenodd"
       inkscape:connector-curvature="0"
       style="fill:#e86225;fill-rule:evenodd;stroke:#000000;stroke-miterlimit:10" />
    <path
       id="path3986"
       d="m 563.1912,295.85644 c 0.04,0.008 0.072,0.002 0.111,0.008 0.035,-0.021 0.071,-0.041 0.107,-0.063 l -0.218,0.055 z"
       stroke-miterlimit="10"
       clip-rule="evenodd"
       inkscape:connector-curvature="0"
       style="fill:#e86225;fill-rule:evenodd;stroke:#000000;stroke-miterlimit:10" />
    <path
       id="path3988"
       d="m 582.6092,504.91344 c 0.007,0.004 0.014,0.008 0.02,0.012 -0.002,-0.006 -0.003,-0.012 -0.005,-0.018 -0.006,0 -0.011,0.002 -0.017,0.002 10e-4,0.002 0.002,0.004 0.002,0.004 z"
       stroke-miterlimit="10"
       clip-rule="evenodd"
       inkscape:connector-curvature="0"
       style="fill:#e86225;fill-rule:evenodd;stroke:#000000;stroke-miterlimit:10" />
    <path
       id="path3990"
       d="m 557.6332,375.32744 c -0.008,-0.023 -0.011,-0.045 -0.019,-0.068 -0.009,0.004 -0.017,0.01 -0.025,0.014 10e-4,0.006 -10e-4,0.012 0,0.018 0.015,0.013 0.029,0.022 0.044,0.036 z"
       stroke-miterlimit="10"
       clip-rule="evenodd"
       inkscape:connector-curvature="0"
       style="fill:#e86225;fill-rule:evenodd;stroke:#000000;stroke-miterlimit:10" />
    <path
       id="path3992"
       d="m 495.7672,543.38844 c 0,0.002 0,0.002 0,0.002 0.014,0.008 0.024,0.016 0.038,0.023 l -0.038,-0.025 z"
       stroke-miterlimit="10"
       clip-rule="evenodd"
       inkscape:connector-curvature="0"
       style="fill:#e86225;fill-rule:evenodd;stroke:#000000;stroke-miterlimit:10" />
    <path
       id="path3994"
       d="m 657.3942,547.15944 c 0.782,-0.07 1.551,-0.199 2.304,-0.416 -0.846,-0.053 -1.605,0.104 -2.304,0.416 z"
       stroke-miterlimit="10"
       clip-rule="evenodd"
       inkscape:connector-curvature="0"
       style="fill:#e86225;fill-rule:evenodd;stroke:#000000;stroke-miterlimit:10" />
    <path
       id="path3996"
       d="m 476.6472,570.23344 c 3.864,-2.908 4.844,1.406 6.671,2.898 10.908,8.903 17.404,9.472 29.608,3.281 4.296,-2.179 5.704,-4.857 6.412,-9.518 2.635,-17.352 -0.401,-35.283 5.454,-52.267 -2.276,-0.543 -5.552,1.25 -6.562,-2.172 -0.642,-2.172 0.318,-4.49 2.479,-5.627 3.438,-1.811 4.046,-5.555 6.143,-8.254 1.596,-2.059 3.862,-3.496 6.622,-2.598 2.189,0.713 3.884,2.336 4.299,4.707 0.573,3.273 -1.89,4.461 -4.312,5.359 -4.215,1.57 -8.627,2.822 -8.661,8.57 4.479,0.516 8.964,1.016 12.067,4.91 -0.652,-3.578 -0.397,-6.975 1.315,-10.316 2.006,-3.914 4.577,-5.293 8.48,-2.648 6.608,4.479 14.188,7.688 19.24,14.215 3.665,4.734 9.118,4.195 14.046,5.029 16.042,2.717 31.723,5.965 42.716,19.725 2.942,3.683 5.816,7.102 3.612,12.076 -2.007,4.528 -6.103,4.976 -10.475,5.397 -6.244,0.604 -12.175,-0.155 -17.98,-2.368 -5.869,2.83 -8.643,8.275 -11.516,13.636 -1.07,5.59 -4.555,9.564 -10.039,9.403 -4.872,-0.145 -8.227,-3.901 -9.066,-9.134 1.33,-8.689 -5.832,-16.181 -3.528,-25.007 -1.69,-5.501 0.497,-11.66 -2.355,-16.833 -3.703,-6.715 -9.689,-9.578 -17.405,-8.473 0.931,3.566 4.27,4.357 6.821,6.182 4.748,3.396 7.292,8.285 6.225,14.141 -2.366,12.968 -0.206,25.071 5.842,36.652 4.212,8.065 13.608,11.63 22.065,8.562 3.548,-1.287 3.411,-4.036 4.024,-6.864 2.4,-11.069 6.214,-13.733 17.581,-12.397 2.838,0.333 5.793,0.741 8.395,1.832 9.474,3.971 16.959,0.96 23.496,-6.066 10.867,-10.852 10.904,-11.499 -2.191,-20.377 -5.03,-3.408 -9.765,-6.902 -14.63,-14.574 14.589,7.053 26.306,16.681 35.854,15.846 0.699,-0.313 1.458,-0.469 2.304,-0.416 -0.753,0.217 -1.521,0.346 -2.304,0.416 -5.834,2.593 -7.34,16.586 -17.236,20.631 -0.814,1.217 -1.635,2.434 -2.456,3.65 0.527,0.541 1.056,1.083 1.583,1.624 10.866,-9.263 25.367,-12.839 35.639,-23.183 8.712,-8.772 15.467,-8.772 25.584,-1.463 2.442,1.763 4.563,5.468 8.169,3.688 4.07,-2.009 3.69,-6.25 3.71,-10.18 0.036,-6.984 -0.714,-13.916 1.376,-20.932 1.331,-4.469 1.341,-11.045 -3.372,-13.1 -11.741,-5.117 -2.789,-10.662 -1.339,-17.104 0.739,-3.283 3.184,-35.004 0.051,-39.389 -6.592,-9.227 -10.809,-12.852 -6.149,-23.16 2.866,-6.342 4.933,-13.432 1.473,-19.498 -3.535,-6.201 -4.041,-9.986 3.435,-14.473 1.032,-0.621 1.854,-20.625 1.217,-21.184 -12.499,-10.949 1.995,-41.705 5.212,-47.141 1.8,-3.043 3.564,-8.309 0.698,-15.742 -3.809,-9.881 -3.818,-18.533 -0.044,-26.223 5.593,-11.393 8.671,-22.184 -1.248,-32.811 -0.413,-0.441 0.141,-1.785 0.26,-2.688 -6.568,-4.117 -12.877,-8.955 -21.309,-8.434 -13.362,2.705 -26.859,0.473 -40.277,1.098 -16.925,0.203 -27.479,11.404 -38.078,22.324 -2.802,2.885 -5.029,4.936 -9.61,5.777 -8.373,1.535 -15.931,5.803 -17.903,15.561 4.862,3.803 9.511,0.814 14.856,-1.414 -2.166,8.605 -0.685,16.684 -4.024,24.055 1.609,-0.961 3.146,-2.084 4.847,-2.846 1.969,-0.881 4.586,-2.551 6.016,-1.896 2.338,1.066 2.547,3.877 1.764,6.701 -1.681,6.055 1.128,11.252 3.812,16.396 2.57,4.934 3.569,9.156 -3.94,10.43 -2.579,0.436 -4.299,2.475 -6.04,4.494 -7.941,9.203 -20.455,10.754 -29.958,3.926 -3.095,-2.223 -2.802,-2.857 3.94,-8.537 0.062,-8.244 9.301,-11.154 10.793,-18.566 -6.247,-1.246 -7.334,6.389 -14.695,7.764 5.451,-5.668 9.724,-9.828 13.665,-14.281 4.362,-4.928 10.182,-10.369 6.456,-17.307 -4.006,-7.459 -11.63,-5.887 -18.568,-3.758 -0.825,0.254 -1.775,0.1 -2.679,0.104 -1.037,1.92 -2.772,2.309 -4.771,2.129 -0.923,2.221 -2.124,4.063 -4.946,3.66 -0.521,0.303 -1.042,0.605 -1.558,0.902 -2.715,7.297 -8.303,12.744 -10.832,20.719 -3.491,11.008 -8.238,22.57 -16.548,31.324 -5.262,5.543 -9.145,11.574 -9.539,18.855 -1.045,19.318 -11.186,35.914 -15.765,54.236 -4.69,18.76 -15.005,36.113 -22.857,54.084 2.742,3.816 0.011,7.449 -1.049,10.658 -3.366,10.189 -0.5,20.824 -2.953,30.99 -0.476,0.275 -0.878,0.635 -1.209,1.074 -7.985,16.622 -8.506,33.876 -4.351,51.528 z m 51.781,-86.24 c -2.911,-2.428 0.474,-3.91 1.305,-5.492 1.513,-2.875 3.007,-0.77 4.193,0.625 3.072,3.6 6.08,7.254 11.016,13.166 -8.595,-1.111 -12.468,-4.922 -16.514,-8.299 z m 151.687,32.867 c -0.834,4.551 -5.295,8.016 -10.382,9.408 l 0.114,-0.275 c -0.654,0.748 -1.31,1.496 -1.966,2.242 -1.692,5.947 -6.703,9.436 -11.322,6.527 -4.086,-2.574 -4.844,-8.525 -0.295,-13.738 5.639,-6.457 2.145,-17.391 11.175,-22.959 3.6,2.973 2.679,8.189 4.447,12.252 3.05,2.002 8.872,3.041 8.229,6.543 z m 25.166,1.756 c 0.212,3.443 -3.039,5.025 -4.847,7.439 -2.703,3.607 -3.755,0.221 -5.037,-0.701 -3.977,-2.857 -7.723,-6.037 -12.86,-10.131 7.094,-1.785 12.295,-0.49 17.445,0.885 1.896,0.506 5.096,-0.767 5.299,2.508 z m -9.92,-90.66 c -1.284,1.898 -3.211,2.471 -5.355,2.598 -3.8,2.287 -9.282,0.074 -12.268,4.576 3.073,4.881 6.583,8.916 12.542,10.813 7.613,2.422 3.467,11.475 7.977,15.893 3.837,7.914 3.148,16.785 5.082,25.127 1.318,5.688 -7.168,10.66 -14.694,9.656 -9.191,-1.227 -17.593,-12.01 -16.706,-21.441 -1.591,-5.014 -1.907,-10.342 0.977,-14.629 4.982,-7.408 1.847,-12.361 -3.689,-17.135 -9.957,-0.828 -13.703,-8.318 -14.733,-16.273 -1.335,-10.32 7.362,-13.084 15.162,-15.041 0.308,-4.305 -6.413,-6.773 -2.062,-10.717 2.383,-2.156 5.979,-0.807 7.861,1.363 2.945,3.389 4.013,7.711 -0.532,10.654 -3.589,2.326 -1.133,3.898 0.287,4.99 2.162,1.664 3.335,-0.145 4.168,-2.105 1.679,-3.953 1.878,-8.104 1.871,-12.309 -0.005,-2.6 -0.023,-5.496 2.844,-6.629 2.842,-1.123 5.168,0.875 6.647,2.84 4.219,5.607 9.201,10.945 9.941,18.385 0.417,4.189 -1.305,7.527 -5.32,9.384 z m -9.717,-83.826 c 3.14,1.924 6.175,4.514 5.072,8.33 -1.156,3.998 -5.525,2.125 -8.433,2.662 -5.476,1.01 -13.531,3.184 -15.638,-1.639 -2.276,-5.211 1.49,-12.264 6.461,-16.939 4.493,-4.225 9.191,-7.941 16.885,-7.115 -2.712,3.637 -7.782,4.189 -8.491,8.629 1.381,2.023 2.762,4.046 4.144,6.072 z m -9.104,-16.76 c -4.27,2.998 -6.834,7.303 -9.706,10.857 -3.449,-0.787 -2.064,-3.783 -3.374,-4.76 -4.501,-3.355 -4.623,-9.096 -2.428,-11.844 2.274,-2.85 8.406,-4.791 12.048,-3.887 6.076,1.506 12.409,2.236 19.622,4.361 -5.529,3.75 -11.518,2.009 -16.162,5.273 z m 9.011,-26.016 c 5.957,5.324 18.375,-1.9 20.513,10.85 -5.465,-6.285 -16.087,-2.551 -20.513,-10.85 z m 1.11,13.377 c -8.541,0.279 -14.936,-2.008 -21.026,-6.889 -7.801,-6.254 -10.49,-5.082 -12.702,4.633 -1.053,4.629 -1.89,9.502 1.674,13.764 1.437,1.719 5.309,3.143 2.342,5.984 -2.245,2.15 -5.517,2.918 -8.987,1.955 -11.886,-3.299 -18.352,-19.557 -9.954,-28.6 5.978,-6.439 12.584,-13.773 22.764,-14.709 5.17,-0.475 9.345,-0.512 10.99,6.025 1.948,7.74 10.203,10.919 14.899,17.837 z m -42.75,39.819 c 3.106,-7.484 10.847,-8.43 18.826,-13.373 -3.246,9.369 -8.688,13.594 -14.687,17.316 -1.359,0.842 -2.91,1.852 -4.351,0.457 -1.413,-1.369 -0.395,-2.935 0.212,-4.4 z m 15.152,27.22 c 0.585,-4.6 1.145,-8.881 8.121,-9.668 8.234,-0.93 15.992,-0.377 23.677,1.982 7.611,2.336 5.66,8.186 2.947,12.582 -1.842,2.984 -2.524,-0.43 -2.982,-2.064 -3.506,4.131 -8.313,4.461 -13.212,4.521 -1.464,4.809 -4.27,8.328 -9.703,6.867 -7.035,-1.891 -9.722,-7.356 -8.848,-14.22 z m 43.19,-48 c -1.403,1.168 -3.043,1.014 -4.329,-0.148 -0.906,-0.818 -1.466,-2.021 -2.181,-3.055 8.083,-4.826 -3.01,-10.855 0.999,-15.836 1.056,-1.313 3.342,-1.646 4.321,-0.535 2.896,3.287 5.62,6.838 5.604,12.482 0.372,2.819 -1.936,5.036 -4.414,7.092 z m 7.623,-51.865 c -0.524,5.881 -4.388,11.359 -2.033,17.645 0.246,0.658 -1.032,2.467 -1.942,2.789 -0.698,0.25 -2.49,-0.77 -2.836,-1.615 -2.654,-6.5 -4.539,-13.256 -3.985,-20.338 0.376,-4.82 4.04,-2.559 6.492,-2.436 4.896,-2.26 4.595,0.701 4.304,3.955 z m -31.957,-32.904 c 3.311,0.594 8.066,-0.502 8.233,4.34 0.1,2.939 -3.626,2.977 -6.164,2.545 -3.538,-0.6 -8.962,0.537 -9.212,-4.398 -0.173,-3.423 4.637,-1.716 7.143,-2.487 z m -5.962,11.785 c 2.263,-0.01 6.026,-1.043 5.099,3.199 -0.59,2.689 -0.561,6.697 -5.266,6.771 -3.798,0.059 -4.132,-3.389 -6.092,-5.314 0.827,-3.3 3.187,-4.644 6.259,-4.656 z m 0.264,16.457 c 6.755,-0.367 10.533,-4.779 13.675,-10.059 4.115,-7.539 13.6,-2.512 18.908,-7.844 0.502,-0.504 3.297,3.24 3.274,6.084 -0.021,3 -0.98,5.449 -4.341,4.768 -5.743,-1.166 -6.833,3.307 -8.98,6.639 -0.075,0.498 -0.088,0.998 -0.042,1.498 1.858,3.111 2.066,6.604 1.938,10.041 -0.112,2.947 1.726,7.488 -1.674,8.422 -3.8,1.043 -6.83,-2.098 -7.772,-6.297 -5.627,-3.148 -12.023,-3.873 -18.06,-5.736 -3.173,-0.693 -8.88,0.248 -7.779,-4.379 1.005,-4.229 6.685,-3.637 10.853,-3.137 z m -32.843,-20.887 c 6.483,-5.742 13.559,-9.156 22.153,-2.35 -3.664,1.924 -8.111,1.475 -9.87,5.545 -0.244,1.049 -0.488,2.1 -0.733,3.148 0.097,0.57 0.265,1.141 0.253,1.709 -0.005,0.205 -0.441,0.402 -0.681,0.604 -0.146,0.584 -0.294,1.168 -0.44,1.75 -1.866,5.193 -6.2,5.979 -10.805,5.643 -4.681,-0.342 -2.661,-4.885 -4.114,-7.244 -3.309,-5.373 1.835,-6.678 4.237,-8.805 z m 0.449,80.243 c 1.743,1.305 2.188,2.373 0.072,4.385 -6.485,6.164 -10.612,14.117 -15.593,21.635 -1.521,-7.209 0.658,-13.705 6.317,-17.738 5.215,-3.715 5.236,-6.494 1.455,-10.729 -1.696,-1.9 -3.032,-4.117 -4.664,-6.08 -8.931,-10.744 -8.356,-13.479 5.732,-20.773 -7.471,12.745 -3.304,21.827 6.681,29.3 z m -12.237,-74.973 c 4.989,1.998 2.808,6.811 4.019,9.975 1.233,3.223 -0.374,6.936 -4.632,6.209 -3.476,-0.594 -8.932,-0.926 -8.829,-5.75 0.109,-5.248 5.387,-7.422 9.442,-10.434 z m -12.319,35.002 -0.277,-0.316 c -5.481,-1.668 -4.725,-7.094 -6.338,-10.967 -1.101,-2.639 1.263,-4.404 3.628,-4.389 4.793,0.031 10.139,0.133 13.6,3.6 3.646,3.65 1.837,9.348 1.759,13.836 -0.087,4.898 -6.774,4.127 -12.372,-1.764 z m -30.257,64.789 c 3.837,-0.07 7.681,0.213 11.521,0.344 4.387,-0.525 7.483,-2.957 10.057,-6.428 1.659,-2.24 3.525,-4.941 6.955,-3.41 3.208,1.432 3.025,4.447 2.686,7.359 0.254,1.037 0.508,2.074 0.761,3.113 -0.719,-0.041 -1.438,-0.084 -2.156,-0.125 l -0.526,0.475 c 2.839,6.832 -0.914,11.848 -6.253,13.83 -8.175,3.033 -17.171,1.248 -25.439,-0.617 -2.219,-0.5 -4.04,-6.904 -4.286,-10.713 -0.205,-3.148 3.794,-3.775 6.68,-3.828 z m -16.864,-50.256 c 3.83,-5.01 8.981,-6.246 15.257,-5.658 -1.601,6.406 -7.043,7.904 -10.764,11.064 -1.362,1.158 -3.668,1.707 -5.127,-0.172 -1.357,-1.75 -0.533,-3.707 0.634,-5.234 z m -14.425,45.551 c -1.447,-2.379 -1.099,-6.633 2.214,-7.305 4.134,-0.838 3.811,3.305 3.553,5.848 -0.538,5.289 6.067,6.57 6.033,11.018 -0.037,4.848 -8.465,3.119 -7.936,9 0.009,-0.004 0.017,-0.01 0.025,-0.014 0.008,0.023 0.011,0.045 0.019,0.068 10.194,8.697 21.64,14.217 35.382,13.895 -1.653,-2.48 -5.357,-5.438 1.154,-6.303 8.729,-1.16 17.67,-1.68 23.889,-10.305 -17.312,23.738 -7.636,50.281 -9.836,75.279 -0.112,1.279 1.351,2.697 2.08,4.051 -0.087,-9.299 -0.295,-18.6 -0.204,-27.896 0.039,-3.873 -1.469,-8.324 4.056,-10.557 2.464,-0.994 1.064,-3.805 0.44,-6.002 -4.265,-15.018 1.755,-27.156 16.7,-34.582 3.409,-1.693 6.74,-3.871 9.491,-6.477 3.28,-3.107 6.933,-3.777 10.509,-2.027 3.77,1.848 2.018,5.385 1.265,8.512 -0.64,2.662 1.217,5.734 -1.231,8.166 2.148,-0.084 4.93,1.576 4.357,2.699 -4.478,8.816 5.05,15.111 3.756,23.182 -0.044,0.271 -0.313,0.641 -0.563,0.727 -13.021,4.543 -12.825,15.625 -12.387,29.045 -6.388,-10.826 -1.504,-18.668 0.189,-26.635 -2.962,0.928 -5.603,2.383 -9.113,0.988 -10.558,-4.197 -8.871,2.064 -6.349,8.119 3.896,9.35 4.892,19.037 4.392,29.02 -0.162,3.234 0.2,6.545 -3.434,8.277 -0.555,3.813 -3.989,7.357 -1.071,11.494 6.301,-4.533 4.663,-13.004 9.353,-19.104 5.558,4.869 8.404,11.033 11.074,17.32 0.374,-2.791 0.748,-5.58 1.151,-8.586 2.791,-0.432 3.804,4.084 6.967,2.879 -0.05,-1.238 0.147,-2.551 -0.194,-3.701 -1.199,-4.047 -2.789,-8.549 1.729,-11.08 2.55,-1.428 4.166,1.787 5.401,4.078 2.592,4.809 1.338,8.604 -3.001,11.469 -0.953,0.629 -2.428,0.469 -3.662,0.67 -1.04,3.412 0.455,6.461 1.408,9.57 2.209,7.205 2.483,13.875 -5.025,18.371 -3.189,1.91 -3.175,5.754 -4.983,9.033 -4.497,-5.438 -3.049,-9.418 0.438,-14.072 3.396,-4.533 8.041,-9.896 0.634,-15.26 0.087,2.336 1.015,4.904 -1.798,6.428 -1.883,1.309 -3.765,2.619 -5.646,3.928 -8.577,4.994 -8.577,4.994 -4.715,19.184 -10.32,-2.85 -12.548,-9.734 -7.657,-23.668 0.372,-2.348 1.051,-4.791 -1.897,-6.109 -2.423,4.131 -4.845,8.262 -7.268,12.395 -2.238,10.596 2.229,18.391 10.288,24.707 0.755,0.592 1.362,1.369 2.072,2.023 3.604,3.326 5.304,7.053 3.371,12.055 -1.009,2.611 -2.294,3.971 -4.927,2.535 -4.489,-2.447 -12.237,-0.926 -12.837,-8.074 -0.703,-8.375 -6.69,-14.121 -9.498,-21.637 0,5.617 0,11.234 0,16.854 -3.509,-5.217 -7.456,-9.656 -3.701,-16.793 2.632,-5.004 -2.069,-10.098 -4.202,-14.939 -2.01,5.059 -2.295,10.32 -1.886,15.715 -4.024,-8.678 -1.006,-17.338 -0.049,-25.988 -2.418,2.061 -4.423,1.859 -6.349,-0.865 -1.361,-1.924 -3.489,-3.484 -5.685,-1.684 -2.226,1.824 -2.512,5.283 -0.702,6.967 5.074,4.727 4.268,10.914 5.429,16.711 1.676,8.375 -3.008,14.643 -12.114,15.58 0.002,0.006 0.003,0.012 0.005,0.018 -0.006,-0.004 -0.013,-0.008 -0.02,-0.012 5.077,10.049 11.429,9.643 20.513,-1.699 0.497,1.338 1.192,2.404 1.257,3.51 0.358,6.162 7.598,9.322 6.864,15.914 -7.351,-1.471 -15.12,-1.898 -21.955,-4.65 -10.84,-4.367 -19.577,-13.057 -31.306,-16.145 8.612,-1.25 16.923,-1.369 24.627,3.07 0,0 -10e-4,-0.002 -0.002,-0.004 0.006,0 0.011,-0.002 0.017,-0.002 -0.878,-3.074 -1.807,-6.133 -2.625,-9.223 -1.263,-4.762 -3.205,-7.611 -8.723,-4.445 -5.216,2.992 -9.896,2.68 -12.397,-3.766 -2.477,-6.383 1.594,-10.193 6.418,-11.83 6.189,-2.102 7.861,-5.918 7.553,-11.627 -6.872,-4.518 -8.875,-12.523 -13.409,-18.715 -1.338,-0.18 -2.129,-0.9 -2.254,-2.277 -0.289,-0.197 -0.604,-0.332 -0.944,-0.406 -6.889,0.047 -12.02,-2.586 -12.22,-10.07 -0.297,-11.158 4.849,-17.502 13.991,-18.412 0.334,-0.182 0.684,-0.324 1.049,-0.43 -2.015,-3.611 -0.949,-5.465 2.919,-7.096 2.311,-0.975 5.64,-3.34 4.738,-6.365 -1.111,-3.732 -4.573,-1.467 -7.235,-1.414 -6.845,0.141 -7.486,-4.057 -6.216,-9.533 1.108,-4.773 6.215,-8.301 4.365,-13.971 -0.015,-0.014 -0.029,-0.023 -0.044,-0.037 -10e-4,-0.006 10e-4,-0.012 0,-0.018 -6.307,2.951 -4.797,10.607 -8.917,15.063 -3.865,-3.406 -3.104,-6.814 -0.209,-10.061 6.151,-6.896 11.209,-13.793 5.261,-23.564 z m -10.869,-1.303 c 0.208,-2.174 0.482,-4.205 2.673,-4.268 2.661,-0.076 2.196,2.615 2.442,4.359 1.515,10.775 -3.048,19.627 -13.275,22.213 8.609,-6.569 7.434,-14.741 8.16,-22.304 z m -7.205,32.153 c 4.694,0.297 8.271,4.287 7.954,9.188 -0.324,5.006 -3.796,9.869 -8.831,9.646 -4.731,-0.211 -3.886,-5.988 -4.798,-9.824 1.392,-3.415 -0.373,-9.395 5.675,-9.01 z m -6.028,31.074 c 1.538,-4.662 6.199,-2.582 10.416,-2.293 -1.32,2.709 0.209,7.334 -4.553,6.318 -1.76,-0.377 -7.205,0.049 -5.863,-4.025 z m -0.344,34.279 c 4.468,-2.074 5.265,2.873 7.043,5.525 2.188,1.865 4.373,3.73 6.561,5.596 2.957,1.195 4.425,3.688 4.915,6.559 0.417,2.443 0.944,5.42 -1.302,7.188 -2.787,2.193 -5.121,-0.631 -6.442,-2.184 -2.603,-3.059 -6.6,-5.025 -7.752,-9.275 l -0.02,-0.146 c -2.101,-0.598 -2.989,-2.475 -3.354,-4.18 -0.649,-3.04 -4.122,-7.005 0.351,-9.083 z m -28.609,32.004 c 2.242,-3.855 4.364,-7.789 6.346,-11.783 1.661,-3.348 0.02,-9.85 6.279,-8.779 5.398,0.924 3.773,6.572 4.286,10.25 -0.076,10.303 -5.502,17.939 -11.49,25.137 -3.203,3.852 -5.715,2.758 -7.363,-2.027 -1.649,-4.792 -0.412,-8.749 1.942,-12.798 z m -5.409,45.449 c 2.682,-4.688 5.255,0.877 7.574,2.041 3.822,1.916 10.188,-0.342 11.478,5.281 1.774,7.74 1.438,15.694 -1.041,24.41 -3.984,-3.841 -5.703,-7.661 -6.232,-12.121 -3.059,-1.665 -6.117,-3.33 -9.176,-4.996 -1.339,0.311 -2.058,-0.195 -2.097,-1.594 -7.071,-3.97 -2.585,-9.386 -0.506,-13.021 z m -12.634,18.66 c 2.11,-2.132 4.584,-1.849 6.909,-0.127 9.439,6.991 9.744,13.766 0.675,22.84 -2.342,-5.709 -1.287,-12.906 -8.526,-16.14 -2.595,-1.158 -0.925,-4.685 0.942,-6.573 z"
       stroke-miterlimit="10"
       clip-rule="evenodd"
       inkscape:connector-curvature="0"
       style="fill:#e86225;fill-rule:evenodd;stroke:#000000;stroke-miterlimit:10" />
    <path
       id="path3998"
       d="m 601.8042,413.19044 c -1.887,12.242 6.479,23.189 4.252,35.65 -1.105,6.188 -0.828,12.605 -4.04,18.316 -0.081,-7.039 -0.578,-14.107 -0.127,-21.113 0.46,-7.139 0.14,-13.809 -2.801,-20.588 -1.716,-3.956 -3.811,-9.462 2.716,-12.265 z"
       stroke-miterlimit="10"
       clip-rule="evenodd"
       inkscape:connector-curvature="0"
       style="fill:#e86225;fill-rule:evenodd;stroke:#000000;stroke-miterlimit:10" />
    <path
       id="path4000"
       d="m 576.8242,396.37444 c 2.588,8.26 9.876,6.463 15.816,7.107 2.269,0.248 5.471,-2.174 5.796,2.01 0.226,2.902 -2.503,5.043 -5.097,4.551 -7.44,-1.412 -15.209,-2.518 -21.978,-5.635 -6.487,-2.99 0.407,-5.74 1.735,-8.529 1.243,0.164 2.484,0.33 3.728,0.496 z"
       stroke-miterlimit="10"
       clip-rule="evenodd"
       inkscape:connector-curvature="0"
       style="fill:#e86225;fill-rule:evenodd;stroke:#000000;stroke-miterlimit:10" />
    <path
       id="path4002"
       d="m 645.5622,380.95244 c -1.654,4.523 -5.532,8.391 2.735,12.006 7.01,3.064 5.433,12.77 -1.715,17.193 5.287,-12.848 4.309,-14.732 -9.31,-18.385 -3.076,-0.824 -6.098,-1.873 -9.1,-2.947 -2.743,-0.98 -3.853,-3.996 -1.128,-4.615 7.509,-1.705 8.694,-10.369 15.466,-12.688 2.257,-0.773 3.974,-3.076 7.253,-1.686 -1.312,3.857 -4.4,6.012 -6.526,8.881 -2.111,2.852 1.899,1.056 2.325,2.241 z"
       stroke-miterlimit="10"
       clip-rule="evenodd"
       inkscape:connector-curvature="0"
       style="fill:#e86225;fill-rule:evenodd;stroke:#000000;stroke-miterlimit:10" />
    <path
       style="fill:#e86226;fill-rule:evenodd;stroke:#000000;stroke-miterlimit:10"
       inkscape:connector-curvature="0"
       clip-rule="evenodd"
       stroke-miterlimit="10"
       d="m -322.9651,959.22458 c 3.199,-2.722 6.821,-4.939 7.723,-5.51 2.11,-1.335 6.058,-2.529 6.51,-2.4 1.416,0.404 3.094,1.195 3.52,0.134 1.196,-2.985 4.013,-5.011 4.486,-8.402 0.687,-4.923 0.882,-10.052 4.527,-14.053 0.454,-0.499 9.06,-11.02599 9.271,-11.42099 2.099,-1.151 9.524,-12.87 10.385,-13.951 2.437,-3.059 4.91,-5.949 8.462,-7.883 1.147,-0.623 15.489,-10.51399 17.584,-11.45699 4.361,-1.965 8.125,-5.179 13.363,-5.257 5.083,-0.076 8.093,-4.539 12.171,-6.795 0.521,-0.288 4.504,-2.587 5.276,-2.997 3.306,-1.754 7.006,-2.097 10.494,-3.166 3.081,-0.944 4.484,-0.025 5.077,2.879 -0.144,0.131 -0.287,0.263 -0.431,0.394 -1.037,-0.506 -1.543,-0.252 -1.378,0.962 -1.168,2.819 -3.592,5.111 -3.492,8.469 0.049,1.651 0.239,3.296 2.223,3.506 1.987,0.21 2.764,-1.368 2.876,-2.973 0.464,-6.624 4.216,-11.156 9.172,-15.007 1.303,-1.013 2.495,-2.17 3.738,-3.259 7.228,-1.647 13.333,-5.784 19.123,-9.921 8.068,-5.766 17.024,-9.452 25.916,-13.418 1.165,-0.52 2.557,-0.721 3.847,-0.732 8.242,-0.071 15.467,-3.812 22.728,-6.847 5.787,-2.419 11.577,-4.433 17.701,-4.608 8.717004,-0.25 17.421004,-1.293 26.167004,-0.711 1.556,0.104 3.662,0.377 3.274,-2.417 0.549,-0.467 1.097,-0.934 1.646,-1.401 1.036,0.277 1.514,-0.213 1.635,-1.191 1.085,-0.664 2.17,-1.328 3.255,-1.99 0.887,0.839 2.075,-0.78 3.212,0.696 -3.463,3.508 -6.819,7.792 -11.718,8.676 -5.766,1.04 -11.813,1.442 -17.759,0.729 -2.902,-0.348 -4.854,0.851 -6.262,3.193 -0.291,0.482 -0.341,1.218 0.168,1.672 0.421,0.376 0.935,0.14 1.237,-0.246 2.557,-3.266 6.179,-2.423 9.332,-1.964 13.632,1.985 26.229,-0.928 37.569,-8.339 5.133,-3.355 10.526,-5.352 16.246,-7.029 1.476,-0.432 4.305,0.157 3.989,-2.525 -0.253,-2.144 -2.728,-1.857 -4.382,-2.308 -0.337,-0.092 -0.716,-0.051 -1.074,-0.037 -1.426,0.058 -2.639,-0.356 -3.301,-1.699 -0.695,-1.412 0.502,-2.157 1.188,-3.098 0.33,-0.456 0.464,-1.057 0.688,-1.592 4.694,-1.521 9.642,-0.1 14.367,-1.236 1.501,1.717 2.605,-0.117 3.641,-0.6 5.438,-2.535 11.3299996,-2.574 17.0809996,-3.361 1.14899996,-0.158 2.49299996,0.107 3.036,1.413 0.506,1.219 -0.47500004,2.017 -1.18400004,2.786 -0.551,0.598 -1.25799996,1.051 -1.89599996,1.568 0.108,-3.528 -2.009,-4.063 -4.7,-3.184 -1.938,0.632 -3.8699996,1.147 -5.8609996,1.552 -1.322,0.268 -3.113,0.141 -3.443,1.994 -0.357,2.017 1.42,2.8 2.741,3.276 3.7099996,1.337 4.4849996,3.93 3.6999996,7.37 -0.5779996,2.535 0.836,3.029 2.801,2.672 3.282,-0.596 6.54599996,-1.314 9.787,-2.105 1.234,-0.301 2.496,-0.814 2.881,-2.362 -1.342,-0.95 -2.838,-1.262 -4.375,-1.519 -5.156,-0.859 -6.207,-3.137 -3.558,-7.633 0.106,1.065 0.063,2.174 0.358,3.184 0.362,1.241 1.32999996,1.952 2.695,1.957 1.264,0.004 2.307,-0.671 2.191,-1.863 -0.396,-4.084 3.479,-4.717 5.487,-6.671 1.5250004,-1.482 4.9480004,-2.109 6.0730004,0.022 1.219,2.308 -1.572,3.074 -3.563,3.583 -0.906,0.231 -1.4390004,0.862 -1.3050004,1.852 0.1090004,0.805 0.6640004,1.322 1.4300004,1.388 3.89,0.333 6.84,2.987 10.449,4.153 7.43,2.403 18.177,0.354 23.461,-5.247 0.868,-0.921 1.558,-1.866 1.029,-3.184 -0.486,-1.211 -1.591,-1.441 -2.688,-1.311 -4.083,0.484 -6.909,-2.386 -11.198,-3.559 3.126,-1.247 5.303,-1.396 7.723,-0.553 3.258,1.135 6.469,0.644 9.376,-1.34 0.427,0.01 0.853,0.02 1.28,0.028 1.342,0.89 2.84,0.543 4.174,0.231 6.391,-1.496 12.806,-1.254 19.234,-0.491 2.888,0.343 5.597,1.311 7.96,3.022 0.588,0.427 1.568,0.915 1.34,1.895 -0.191,0.819 -1.047,0.844 -1.771,0.926 -4.038,0.458 -7.083,3.261 -10.758,4.578 -0.672,0.24 -1.644,0.541 -1.484,1.331 0.845,4.208 -2.848,5.382 -5.032,7.374 -2.672,2.437 -5.227,4.872 -6.814,8.161 -2.03,4.206 -4.984,7.874 -7.232,11.875 -2.436,4.336 -8.928,8.018 -3.031,14.982 2.261,2.671 2.848,2.683 5.252,1.326 6.924,-3.909 13.533,-8.348 20.578,-12.066 2.063,-1.088 4.521,-2.156 5.523,-4.692 0.193,-0.112 0.379,-0.234 0.558,-0.368 6.623,-1.158 12.516,-4.333 18.635,-6.853 1.568,-0.646 3.364996,-1.366 4.153996,-3.196 1.135,-0.144 2.268,-0.287 3.402,-0.43 0.176,0.486 0.59,0.76 0.98,0.469 0.258,-0.193 0.252,-0.738 0.365,-1.126 0.859,-0.928 1.561,-1.912 1.137,-3.284 0.703,-1.369 -0.221,-1.933 -1.205,-2.51 -1.07,-0.627 -2.912,-0.825 -2.461,-2.559 0.393,-1.508 2.035,-0.817 3.143,-0.942 1.191,-0.133 2.146,-0.483 2.295,-1.807 0.168,-1.509 -0.873,-1.747 -2.053,-1.827 -1.537,-0.104 -2.676,-1.122 -3.721,-2.029 -1.436,-1.246 -3.168,-2.446 -4.800996,-2.047 -4.645,1.137 -9.574,-0.669 -14.113,1.72 -1.385,0.729 -3.4,0.56 -5.134,-0.635 3.687,-0.584 6.505,-3.006 9.942,-4.007 3.826,-1.114 8.086,-0.358 11.569996,-3.191 1.289,-1.048 1.873,-2.89 3.635,-3.302 6.3849,-1.494 12.7459,-3.725 19.3109,-0.728 1.469,0.671 3.164,1.123 4.42,-0.071 3.254,-3.1 6.961,-2.226 10.799,-1.841 3.156,0.317 6.303,1.197 9.527,0.673 7.705,3.49 15.594,6.624 22.546,11.581 -0.848,1.094 -0.131,2.12 0.334,2.976 3.824,7.015 5.205,15.012 8.932,22.058 0.576,1.089 0.822,2.226 0.525,3.447 -0.686,2.879 -2.043,5.345 -4.42,7.183 -2.381,1.898 -3.463,4.93 -6.461,6.446 -3.786,1.914 -8.046,3.056 -11.224,6.08 -2.445,2.327 -5.34,3.043 -8.594,2.69 -2.434,-0.265 -4.561,0.215 -6.813,1.447 -4.385,2.396 -9.057,4.249 -14.234,4.121 -2.715,-0.067 -5.143,0.901 -7.521,2.088 -5.688,2.835 -7.559,2.457 -12.1479,-2.354 0.828,-1.584 3.7479,-1.412 3.3589,-4.008 0.123,-0.439 0.248,-0.878 0.371,-1.318 1.643,-0.646 1.064,-1.949 0.779,-3.023 -0.809,-3.033 0.707,-3.115 2.822,-2.236 4.693,1.947 9.783,1.883 14.645,2.972 1.531,0.343 3.504,0.521 3.822,-1.97 l 0.07,-0.076 c 2.27,-1.402 2.545,-3.64 2.516,-6.004 0.139,-0.666 0.277,-1.331 0.416,-1.997 3.314,-3.933 3.637,-3.708 8.098,-1.009 2.791,1.689 6.16,2.734 9.564,2.393 2.486,-0.25 4.047,-1.974 3.199,-4.475 -0.555,-1.634 -0.461,-3.03 -0.064,-4.497 0.607,-2.241 0.596,-3.685 -2.404,-2.724 -3.063,0.98 -6.131,0.247 -9.203,-0.096 -4.154,-0.462 -8.314,-0.85 -12.477,-1.242 -8.842,-0.833 -17.15,3.167 -25.9449,2.889 -1.598,-0.05 -2.43,1.227 -2.021,2.735 0.789,2.914 0.33,6.34 3.303,8.432 0.5679,0.4 1.0739,1.093 0.6109,1.864 -0.447,0.748 -1.2789,0.563 -1.9569,0.45 -2.088,-0.348 -4.158,-1.235 -6.26,-0.061 -0.385,-0.026 -0.77,-0.052 -1.154,-0.078 -1.848,-1.741 -3.698996,-1.829 -5.552996,-0.011 -0.396,0.043 -0.793,0.087 -1.189,0.13 -1.525,-1.079 -3.254,-0.501 -4.875,-0.496 -1.801,0.007 -3.492,0.649 -3.148,2.934 0.338,2.243 1.881,2.517 3.768,1.765 0.49,0.071 0.982,0.142 1.475,0.213 4.514,1.434 9.353996,1.927 13.425996,4.641 l 0.051,0.06 c 0.275,0.678 0.551,1.354 0.826,2.032 -1.32,0.508 -2.24,-0.571 -3.363,-0.831 -3.610996,-0.835 -6.599996,-3.521 -10.479996,-3.525 -0.967,0 -2.031,0.031 -2.332,1.204 -0.248,0.974 0.533,1.557 1.211,2.026 2.242,1.548 4.254,3.365 6.645,4.774 3.772996,2.223 7.558996,4.561 10.476996,7.998 1.9449,2.288 1.9319,3.882 -0.652,5.899 -6.109,4.767 -10.854996,10.713 -11.728996,18.67399 -0.52,4.744 -1.097,9.433 -4.135,13.118 -0.611,0.742 -3.523,4.405 -4.732,5.309 -0.922,0.688 -1.997,1.68 -1.998,1.681 -3.898,2.987 -12.85,1.652 -19.108,-1.07 -2.604,-1.131 -2.803,0.76 -2.789,2.596 0.155,20.40199 -5.355,40.07799 -7.955,60.12599 -1.166,8.999 0.361,17.181 3.291,25.24902 1.82,5.015 2.775,9.848 2.047,15.076 -0.545,3.904 -1.315,7.762 -0.789,11.785 0.634,4.84 2.668,9.166 4.396,13.614 1.294,3.331 2.986,6.538 3.977,9.951 2.094,7.211 -1.394,13.295 -4.61,19.299 -2.562,4.779 -6.769,8.369 -9.79,12.836 -3.129,4.627 -7.533,7.004 -13.07,6.831 -8.765,-0.272 -16.31,-5.002 -24.594,-7.071 -0.313,-0.08 -0.569,-0.43 -0.828,-0.68 -4.703,-4.516 -10.5330004,-5.182 -16.63800044,-4.824 -1.45199996,0.084 -3.22199996,0.398 -3.54999996,1.966 -0.986,4.729 -4.906,6.509 -8.3089996,8.862 -1.546,1.07 -3.515,1.691 -4.105,3.797 -6.453,4.604 -13.99,6.258 -21.53,7.902 -3.317,-0.467 -6.648,-0.85 -9.949,-1.414 -6.683,-1.145 -10.126,-7.602 -8.296,-14.076 1.652,-5.842 6.635,-8.924 9.876,-13.418 6.328,-8.77 13.198,-17.15 19.874,-25.667 3.498,-4.462 6.52,-8.973 11.944,-11.459 2.642,-1.211 4.7199996,-3.57 6.1729996,-6.327 3.521,-6.681 4.616,-13.98 3.959,-21.223 -0.751,-8.277 -1.158,-16.46902 -0.548,-24.75202 0.225,-3.056 1.427,-5.333 3.854,-6.905 3.718,-2.408 7.629,-4.42 11.7800004,-6.086 7.876,-3.164 12.241,-8.914 14.077,-17.546 2.629,-12.364 -0.352,-25.512 5.519,-37.35299 0.378,-0.762 0.71,-2.061 -0.313,-2.607 -1.173,-0.627 -1.782,0.396 -2.567,1.245 -3.668,3.96 -4.018,8.954 -3.967,13.80199 0.088,8.125 -2.037,15.504 -5.593,22.709 -3.581,7.25 -8.7090004,13.143 -15.8900004,16.489 -5.982,2.788 -10.307,6.821 -13.4919996,12.279 -3.059,5.237 -4.971,10.717 -1.503,16.631 1.126,1.91902 1.298,4.18302 1.415,6.27502 0.57,10.31 2.5339996,21.216 -9.579,27.071 -0.103,0.05 -0.168,0.17 -0.256,0.252 -10.938,10.079 -18.819,22.502 -27.138,34.661 -4.127,6.031 -8.982,11.795 -15.853,15.282 -3.182,1.615 -6.331,3.314 -8.797,6.108 -1.966,2.229 -2.573,4.389 -0.675,6.73 1.867,2.303 3.752,5.029 7.438,2.914 1.525,-0.876 3.264,-1.47 4.767,-0.399 4.441,3.164 7.002,6.669 2.371,12.22 -2.176,2.607 -5.076,4.33 -7.727,6.377 -8.433,6.51 -17.051,12.685 -26.522,17.658 -10.755004,5.649 -21.083004,-0.174 -21.120004,-12.439 -0.019,-6.015 1.023,-11.879 2.271,-17.76 3.006,-14.169 5.656,-28.413 8.626,-42.59 1.084,-5.177 2.562,-10.257 4.295004,-15.296 1.885,-5.479 2.41,-11.424 4.258,-16.919 1.905,-5.663 3.887,-11.386 4.804,-17.185 2.224,-14.06302 3.627,-28.20502 3.556,-42.55302 -0.092,-18.526 -16.188004,-24.578 -29.047004,-23.867 -1.299,0.072 -3.047,0.232 -3.239,2.209 -0.187,1.938 0.708,3.325 2.537,3.846 2.933,0.834 6.111,1.006 7.887,4.156 0.473,0.84 1.765,0.538 2.717,0.456 1.219,-0.104 2.379,-0.071 3.438,0.688 7.221004,5.178 10.508004,10.076 7.785004,18.482 -0.709,2.188 -1.188,4.398 -0.609,6.712 2.217,8.876 1.991,17.776 0.221,26.68102 -0.454,-0.212 -0.908,-0.418 -1.363,-0.623 -0.134,-1.578 0.802,-3.713 -1.154,-4.463 -1.819,-0.698 -2.860004,1.309 -4.122004,2.305 -1.176,0.932 -1.643,2.305 -1.983,3.713 -1.979,0.633 -3.059,1.584 -1.266,3.558 -0.021,1.685 -0.041,3.37 -0.061,5.056 -1.976,0.896 -3.243,0.709 -3.058,-1.908 0.104,-1.473 -0.198,-2.924 -1.167,-4.037 -0.89,-1.023 -1.985,-2.476 -3.196,-0.215 -0.518,0.07 -1.036,0.142 -1.555,0.213 -2.141,-0.105 -2.073,1.41 -2.027,2.836 0.047,1.493 -0.144,3.225 2.222,3.064 l 0.014,0.01 c 1.882,2.104 1.635,4.211 1.106,6.975 -1.096,5.734 -0.674,11.648 0.478,17.429 0.191,0.962 0.835,1.858 1.897,1.892 1.275,0.039 1.253,-1.1 1.516,-2.031 2.149,-7.606 3.463,-15.452 6.48,-22.812 2.151,-0.233 2.621004,-2.03 3.452004,-3.577 1.083,-2.018 0.948,-4.625 2.998,-6.164 0.363,0.276 0.875,0.471 0.717,1.076 -2.333,8.945 -3.506,18.134 -6.517004,26.968 -2.196,6.442 -4.718,12.743 -7.026,19.131 -0.797,2.207 -2.198,4.01 -3.909,5.521 -1.705,1.506 -3.545,1.452 -4.999,-0.426 -1.24,-1.604 -2.351,-3.257 -2.641,-5.416 -0.75,-5.575 -1.751,-11.116 -2.514,-16.69 -0.98,-7.16 -1.163,-14.224 1.301,-21.267 1.25,-3.573 1.949,-7.712 0.31,-11.303 -2.636,-5.773 -6.032,-11.18302 -10.714,-15.60102 -2.236,-2.111 -5.109,-1.531 -6.635,1.131 -1.334,2.328 -0.616,4.316 0.841,6.315 1.677,2.30202 4.239,4.05602 4.883,7.00602 1.956,8.954 2.85,18.106 2.013,27.167 -1.014,10.953 -0.987,21.815 0.774,32.597 1.903,11.65 3.444,23.242 1.606,35.027 -0.885,5.681 -2.406,11.34 -2.56,17.037 -0.181,6.689 -3.105,10.314 -9.23,12.41 -2.972,1.017 -5.897,2.643 -8.224,5.01 -0.828,0.842 -2.093,1.449 -1.596,2.908 0.457,1.336 1.748,1.592 2.94,1.676 2.279,0.16 4.56,0.295 6.718,1.092 3.615,1.334 5.443,4.699 3.899,7.626 -4.027,7.64 -8.194,15.188 -15.813,20.052 -1.586,1.014 -3.005,2.446 -4.155,3.95 -2.492,3.26 -4.979,6.415 -8.792,8.305 -1.427,0.707 -2.502,2.182 -1.914,3.882 0.598,1.725 2.364,1.395 3.753,1.281 3.109,-0.254 5.006,1.393 6.991,3.553 2.58,2.81 1.597,6.419 2.825,9.475 0.101,0.555 0.201,1.107 0.3,1.662 -0.755,0.23 -1.319,0.698 -1.281,1.52 0.202,4.428 -1.979,8.082 -3.869,11.801 -1.38,2.716 -2.211,5.423 -1.926,8.55 0.366,4.01 -1.815,7.351 -3.463,10.783 -0.623,1.296 -1.893,1.923 -3.273,1.846 -5.117,-0.289 -10.383,0 -15.23,-1.743 -2.37,-0.85 -4.567,-1.143 -6.946,-1.052 -1.056,0.04 -2.435,-0.14 -2.74,1.15 -0.35,1.476 0.978,1.913 2.098,2.428 3.232,1.483 6.447,2.978 10.027,3.466 0.829,0.115 1.814,0.479 1.715,1.492 -0.11,1.13 -1.222,0.929 -2.017,0.949 -1.076,0.029 -2.164,0.033 -3.231,-0.088 -5.103,-0.583 -10.179,-1.324 -15.348,-1.206 -16.722,0.384 -33.163,-1.081 -49.1,-6.771 -4.278,-1.527 -7.63,-3.837 -10.49,-7.139 -1.161,-1.34 -1.915,-3.003 -3.653,-3.861 -1.417,-0.701 -0.544,-1.824 -0.19,-2.791 0.674,0.116 1.348,0.232 2.022,0.348 1.296,2.051 3.336,2.181 5.905,2.402 -1.163,-1.857 -2.073,-3.313 -2.983,-4.767 0.29,-1.483 0.709,-2.886 2.209,-3.634 4.36,-1.62 9.017,-2.509 12.805,-5.533 0.868,-0.692 2.543,-0.619 2.173,-2.274 -0.352,-1.568 -1.872,-1.552 -2.955,-1.231 -5.089,1.504 -10.371,2.668 -14.24,6.76 -1.067,1.026 -2.135,2.052 -3.202,3.078 -1.338,-0.572 -2.623,-1.363 -4.184,-1.009 -0.168,-0.146 -0.345,-0.281 -0.53,-0.407 0.13,-1.58 0.2,-3.098 2.5,-2.992 2.432,0.111 3.504,-1.549 3.386,-3.65 -0.114,-2.029 0.815,-3.58 1.513,-5.279 0.686,-0.117 1.372,-0.236 2.058,-0.355 1.012,1.049 2.263,0.771 3.353,0.371 3.83,-1.411 7.522,-3.078 10.625,-5.863 1.85,-1.659 3.037,-2.869 0.963,-5.555 -1.291,-1.674 -2.117,-2.68 -4.333,-2.824 -1.967,-0.129 -4.135,-0.762 -5.761,-1.85 -4.228,-2.829 -8.143,-2.746 -12.755,-0.664 -4.853,2.191 -7.115,4.685 -7.215,10.154 -0.067,3.731 -0.09,7.373 2.039,10.74 1.313,2.077 0.998,3.707 -2.062,3.402 -3.041,-1.871 -4.004,-4.609 -3.586,-8.068 0.166,-1.375 -0.111,-2.802 -0.186,-4.205 1.835,-2.233 0.684,-5.025 -0.787,-5.785 -2.134,-1.104 -3.145,1.503 -3.939,3.328 -1.306,2.998 -0.85,6.002 -0.064,9.012 0.362,1.387 0.291,2.262 2.233,3.395 1.801,1.05 2.798,3.242 3.423,5.229 0.311,0.986 0.603,1.042 1.58,1.314 1.02,0.285 2.197,0.977 2.471,2 0.766,2.854 -3.938,1.75 -4.581,0.783 -0.717,-1.078 -2.625,-2.183 -2.77,-2.35 -0.569,-0.653 -0.762,-0.873 -1.603,-1.139 -2.009,-0.635 -4.193,-3.727 -6.055,-5.861 -1.418,-1.624 -1.699,-4.254 -3.833,-5.057 -3.875,-1.457 -6.302,-4.055 -7.695,-7.881 -0.376,-1.031 -1.954,-1.783 -1.045,-3.079 0.744,-1.06 2.015,-0.089 2.978,-0.233 2.711,-0.408 6.305,0.748 7.813,-2.225 1.774,-3.498 1.734,-7.576 -0.41,-11 -2.013,-3.215 -5.246,-3.641 -8.872,-2.658 -3.195,0.867 -5.229,3.503 -5.791,8.302 -0.092,0.786 0.24,1.851 -0.809,2.149 -1.141,0.324 -1.684,-0.655 -2.198,-1.445 -1.703,-2.615 -3.017,-5.412 -3.708,-8.468 -0.295,-1.304 -0.419,-2.69 -2.259,-2.651 -0.26,-0.239 -0.521,-0.479 -0.781,-0.719 -0.623,-2.26 -1.906,-3.504 -4.411,-2.869 -1.426,-0.951 -2.852,-1.9 -4.277,-2.852 0.554,-1.328 -1.745,-2.094 -0.674,-3.65 1.443,0.16 2.666,1.059 3.971,1.357 2.951,0.672 5.998,2.701 9.013,-0.295 4.222,-4.193 4.57,-5.309 1.789,-10.49 -0.994,-1.851 -2.251,-3.203 -4.896,-2.536 -2.161,0.545 -4.53,0.517 -6.786,0.387 -5.132,-0.295 -10.025,0.06 -14.116,3.674 -0.956,0.845 -1.939,0.587 -2.305,-0.499 -0.91,-2.706 -2.536,-5.213 -2.561,-8.174 -0.052,-6.266 -3.968,-10.721 -7.158,-15.523 -0.231,-0.828 -0.463,-1.657 -0.693,-2.485 0.138,-0.467 -0.093,-0.722 -0.501,-0.876 -0.081,-0.188 -0.129,-0.385 -0.146,-0.59 0.285,-0.707 0.175,-1.26 -0.605,-1.551 -0.07,-0.422 -0.14,-0.846 -0.209,-1.268 0.366,-0.695 0.246,-1.242 -0.484,-1.605 0,-1.429 10e-4,-2.857 10e-4,-4.287 0.183,-0.145 0.46,-0.253 0.535,-0.441 0.683,-1.714 1.408,-3.631 3.726,-2.893 2.206,0.701 1.488,2.742 1.204,4.297 -0.732,4.016 1.385,7.127 3.194,10.275 2.413,4.199 6.662,6.655 10.009,9.967 -0.825,-0.053 -1.645,-0.079 -2.459,-0.166 -1.448,-0.152 -2.984,-2.295 -4.165,-0.744 -1.252,1.646 0.187,3.617 0.951,5.348 0.65,1.473 1.776,2.111 3.389,2.162 1.66,0.053 3.417,-0.01 4.953,0.512 5.933,2.006 11.552,0.39 17.202,-1.152 0.916,-0.25 2.033,-0.516 1.82,-1.782 -0.202,-1.2 -1.335,-1.183 -2.288,-1.261 -3.918,-0.326 -7.838,-0.645 -11.756,-0.965 0.324,-2.241 0.896,-4.226 -2.208,-5.479 -5.632,-2.272 -9.762,-6.48 -13.048,-11.6 -2.912,-4.535 -0.708,-11.037 -5.78,-14.684 0.569,-1.828 0.339,-3.437 -0.898,-5.016 -2.643,-3.369 -3.488,-7.465 -4.333,-11.537 2.458,-0.193 2.548,-1.946 2.708,-3.848 0.534,-6.311 0.107,-12.61 -0.327,-18.885 -0.22,-3.176 -0.035,-6.631 -3.312,-9.008 -4.919,-3.566 -4.917,-12.072 -0.263,-16.195 2.319,-2.055 4.035,-1.515 4.906,1.464 0.464,1.588 -0.462,3.392 0.808,4.83 -0.537,1.538 -0.539,3.092 -0.129,4.657 -0.853,1.026 -0.756,1.83 0.551,2.35 0.243,0.635 0.485,1.27 0.728,1.904 0.687,3.518 1.342,7.053 5.239,8.616 0.275,0.267 0.549,0.534 0.824,0.802 0.751,2.527 2.689,2.97 4.951,2.779 0.929,-0.078 1.843,-0.684 1.519,-1.564 -0.769,-2.088 -0.987,-4.805 -4.155,-4.924 -0.288,-0.283 -0.577,-0.568 -0.865,-0.852 0.332,-1.107 -0.183,-1.505 -1.225,-1.459 -0.458,-0.938 -0.915,-1.875 -1.373,-2.813 0.917,-2.152 -0.743,-2.934 -2.071,-3.891 0,-1.933 0,-3.866 0,-5.799 1.73,-0.723 1.407,-1.888 0.675,-3.141 1.171,-2.192 2.006,-4.491 2.243,-6.983 3.589,-3.953 5.979,-8.488 6.242,-13.889 0.143,-2.916 -0.947,-5.001 -4.363,-5.414 -3.227,-0.391 -5.781,-1.979 -7.122,-5.236 -0.867,-2.104 -2.357,-3.791 -4.474,-4.855 -1.4,-0.705 -2.197,-1.85 -1.909,-3.494 0.396,-2.268 5.739,-6.756 8.173,-6.91 0.993,0.986 1.985,1.973 2.978,2.959 0.151,0.793 0.304,1.585 0.456,2.377 -4.004,0.31 -4.853,1.783 -3.074,5.502 0.403,0.845 1.035,1.6 1.651,2.319 2.594,3.032 6.146,4.51 9.766,5.796 2.367,0.842 3.318,2.371 2.514,4.701 -0.721,2.092 -0.301,4.02 0.342,5.965 0.283,0.854 0.934,1.409 1.908,1.316 1.112,-0.107 1.231,-1 1.289,-1.846 0.187,-2.746 0.292,-5.497 0.512,-8.24 0.333,-4.145 -0.757,-7.264 -5.291,-8.43 -1.469,-0.377 -3.057,-1.109 -4.092,-2.168 -1.744,-1.783 -5.134,-1.715 -5.544,-4.934 1.479,-0.533 2.24,1.202 3.57,1.129 0.89,-0.05 2.056,0.486 2.523,-0.625 0.413,-0.982 0.446,-2.125 -0.969,-2.562 -0.84,-1.962 -1.68,-3.925 -2.519,-5.88602 1.64,-3.748 1.344,-4.344 -2.177,-4.752 -1.158,-0.134 -2.287,-0.518 -3.428,-0.789 -0.191,-3.73 -1.029,-7.556 0.079,-11.39 1.299,-4.493 2.686,-9.083 6.089,-12.646 0.086,-0.089 7.552,-8.214 9.021,-9.464 z m 384.600004,108.94002 0.018,-0.02 c 2.361,-2.16 2.115,-4.406 0.221,-6.707 -0.359,-1.469 -0.572,-2.996 -1.672,-4.17 -0.479,-2.164 -2.17,-1.703 -3.281,-1.102 -1.822,0.986 -3.04,2.586 -2.227,4.927 0.01,1.075 0.014,2.149 0.021,3.223 -0.451,1.622 0.049,2.722 1.737,3.171 0.239,0.251 0.478,0.502 0.718,0.754 0.188,1.145 0.764,1.48 1.798,0.861 0.313,-0 0.626,-0.01 0.939,-0.015 1.05,0.58 1.636,0.291 1.728,-0.922 z M -206.6551,887.8966 c -0.272,-0.263 -0.544,-0.525 -0.816,-0.787 -1.034,-1.873 -2.161,-1.659 -3.345,-0.149 -0.573,0.531 -1.146,1.062 -1.718,1.592 -1.139,0.723 -1.088,1.385 0.104,1.985 1.237,1.76599 2.918,1.69399 4.716,1.13799 2.771,-0.95099 3.004,-1.78399 1.059,-3.77899 z m -41.945,20.64399 c -0.557,-0.016 -1.114,-0.031 -1.671,-0.047 -1.128,0.949 -2.256,1.9 -3.384,2.851 -1.143,-0.321 -2.382,0.17 -3.5,-0.538 -3.977,-2.521 -7.609,-0.34 -10.633,1.635 -2.892,1.89 -4.116,5.461 -4.564,9.013 -0.092,0.729 0.106,1.474 0.935,1.747 2.557,0.846 2.44,3.12899 1.837,4.77299 -1.422,3.876 -0.104,7.33 1.01,10.82 1.092,3.424 4.074,4.213 6.122,1.821 0.076,-0.899 0.152,-1.8 0.229,-2.7 2.49,-1.557 4.19,-1.407 5.18,1.828 0.421,1.378 1.771,2.498 2.784,3.662 1.316,1.512 2.483,1.057 3.425,-0.453 0.899,-1.441 0.793,-2.892 0.109,-4.43 -0.986,-2.221 -2.75,-3.869 -4.074,-5.836 -1.702,-2.529 -0.907,-4.783 2.019,-5.803 2.11,-0.734 4.259,-0.264 6.39,-0.348 2.493,-0.098 4.959,-0.234 6.397,-2.76399 0.481,-0.1 0.962,-0.199 1.443,-0.299 4.372,-0.773 7.056,-4.211 10.343,-6.66 1.702,-1.268 1.247,-2.672 -0.595,-3.605 -1.827,-0.926 -3.524,-1.982 -4.745,-3.717 -1.601,-2.275 -3.776,-2.508 -5.98,-1.098 -2.331,1.493 -4.67,1.629 -7.185,0.779 -0.467,-0.699 -1.196,-0.615 -1.892,-0.631 z m 201.524004,-26.86999 -0.012,0.008 c -4.66,1.01 -8.095,-1.356 -11.236,-4.25 -2.729,-2.515 -6.01,-2.88 -9.364,-2.515 -8.198,0.894 -11.951,6.778 -14.786,13.608 -0.458,1.105 -0.112,2.054 0.087,3.12099 0.821,4.404 2.845,8.449 4.679,12.363 1.441,3.078 2.198,6.956 5.205,9.104 1.912,1.365 2.729,2.791 2.493,5.064 -0.258,2.484 0.858,3.643 3.359,4.625 3.094,1.217 6.272,2.602 8.794,5.09999 7.461,7.393 16.572,6.882 25.782,4.789 1.726,-0.393 2.916,-0.777 4.62,0.115 3.012,1.577 4.846,0.719 6.127,-2.329 0.745,-0.7 1.49,-1.399 2.234,-2.1 2.493,-0.454 3.131,-2.242 3.193,-4.44299 0.453,-1.8 -0.574,-2.989 -1.709,-4.132 0.305,-1.624 -1.822,-2.617 -1.129,-4.338 1.73,-4.304 1.873,-9.021 3.767,-13.35 1.22,-2.785 3.812,-4.994 3.733,-8.342 0.299,-0.426 0.596,-0.853 0.893,-1.279 1.7869996,0.24 2.2499996,-1.195 2.7049996,-2.35499 1.858,-4.74 4.919,-8.619 8.49799996,-12.126 1.34400004,-1.317 2.58400004,-2.926 2.39800004,-4.649 -0.707,-6.59 1.873,-12.31 4.221,-18.133 0.379,-0.938 0.302,-1.896 -0.505,-2.641 -0.718,-0.663 -1.483,-0.364 -2.336,-0.198 -7.321,1.427 -11.335,6.846 -15.2019996,12.458 l -0.058,0.057 c -1.915,0.512 -3.151,1.662 -3.462,3.681 -0.744,1.336 -1.438,2.704 -2.244,4.001 -1.926,3.095 -4.385,5.902 -5.113,9.632 -1.923,0.829 -2.011,2.769 -2.689,4.371 -1.438,3.396 -2.463,7.09199 -4.516,10.07499 -4.896,7.117 -11.77,12.413 -18.051,18.239 -0.99,0.918 -2.198,0.983 -3.373,0.613 -3.863,-1.217 -6.701,-5.285 -5.786,-9.121 0.67,-2.809 1.483,-5.693 3.546,-8.051 4.329,-4.945 7.668,-10.60499 11.119,-16.17099 0.774,-1.249 1.35,-2.802 -0.221,-3.836 -1.352,-0.89 -2.754,-0.61 -3.691,0.9 -0.455,0.54 -0.91,1.079 -1.365,1.618 -0.201,0.273 -0.402,0.545 -0.605,0.817 z m 139.087,18.69999 c -0.322,-1.184 -0.646,-2.365 -0.969,-3.547 -0.662,-8.52899 0.926,-16.63799 4.596,-24.34499 0.912,-1.914 -0.273,-3.005 -1.563,-3.889 -5.219,-3.574 -12.281,-2.5 -17.241,-6.777 -2.829,1.355 -6.488,2.035 -8.278,4.235 -2.266,2.786 -3.315,6.502 -2.058,10.731 1.748,5.881 6.307,9.458 9.826,13.878 4.664,5.85799 4.771,5.75299 0.611,11.63199 -1.228,1.735 -1.213,3.643 -0.109,5.371 0.772,1.211 2.117,2.582 3.553,1.615 2.354,-1.585 4.815,-1.004 7.274,-1.154 2.619,-0.162 4.6,-1.184 4.721,-4.213 0.018,-0.703 0.035,-1.404 0.053,-2.107 0.241,-0.587 0.266,-1.111 -0.416,-1.43 z M -161.9281,1205.7326 c 1.81,-2.713 -0.606,-8.607 -3.682,-8.897 -0.556,-0.053 -1.202,0.101 -1.707,0.357 -5.626,2.859 -6.678,9.759 -2.168,14.181 1.247,1.222 2.395,3.071 4.483,2.14 1.991,-0.888 2.99,-2.646 2.739,-4.938 0.111,-0.949 0.223,-1.896 0.335,-2.843 z m -141.706,-243.02802 c 3.704,-0.514 4.966,-2.4 4.169,-6.229 0.58,-0.584 1.103,-1.242 1.749,-1.738 3.033,-2.331 6.172,-4.532 8.758,-7.39 1.002,-1.107 2.006,-2.511 0.902,-3.815 -1.105,-1.308 -2.285,0.229 -3.023,0.866 -5.87,5.066 -12.601,8.89 -18.842,13.4 -2.648,1.915 -6.336,2.644 -7.858,6.014 -1.625,3.599 -4.321,6.257 -7.277,8.761 -3.815,3.233 -4.919,8.092 -7.02,12.34 -0.329,0.666 -0.351,1.744 0.653,2.172 0.8,0.34 1.341,-0.242 1.815,-0.801 1.239,-1.457 2.481,-2.911 3.702,-4.384 3.705,-4.469 7.275,-9.04 10.512,-13.856 -1.006,3.725 0.575,7.158 1.21,10.699 -1.472,-0.221 -2.774,-0.21 -3.699,1.336 -1.523,2.547 -3.344,4.92 -4.78,7.51 -1.953,3.521 -4.042,7.037 -4.019,11.29 0.022,4.05202 2.18,5.93102 6.369,5.49102 2.495,0.42 4.458,-0.322 5.71,-2.615 3.609,-0.48 6.303,0.983 8.133,4.017 0.982,1.628 1.757,3.386 2.59,5.102 3.868,7.966 8.037,15.788 7.169,25.179 -0.477,5.16 -2.38,9.043 -6.922,11.782 -3.263,1.968 -6.433,4.22 -9.22,6.804 -2.123,1.969 -4.69,4.04 -4.829,7.323 -0.175,4.174 -0.542,8.367 0.471,12.524 0.882,3.616 -0.506,4.956 -4.183,4.204 -5.09,-1.042 -9.804,-3.002 -14.147,-5.859 -1.134,-0.746 -2.448,-1.439 -3.674,-0.566 -1.478,1.052 -0.271,2.377 0.038,3.582 0.675,2.627 3.466,4.012 3.957,6.745 -3.149,-0.178 -3.867,1.721 -2.863,4.083 0.759,1.785 2.333,3.244 3.646,4.764 0.55,0.636 1.468,0.98 2.277,0.568 1.106,-0.563 0.715,-1.656 0.519,-2.537 -0.255,-1.152 -0.684,-2.266 -1.038,-3.395 2.47,1.926 3.069,4.275 1.806,7.184 -1.342,3.088 -1.031,6.324 -0.39,9.494 0.216,1.068 0.598,2.668 2.04,2.573 1.44,-0.095 1.431,-1.671 1.689,-2.804 1.095,-4.805 2.014,-9.656 4.369,-14.076 1.929,-3.621 5.361,-5.376 9.092,-4.158 2.253,0.736 3.013,-0.387 3.725,-2.027 2.26,3.605 1.555,8.176 3.82,11.772 -4.165,0.612 -4.983,2.203 -2.957,5.713 1.096,1.898 2.556,3.486 4.258,4.827 3.318,2.615 5.989,5.801 8.714,9.012 2.821,3.324 5.15,7.165 8.904,9.646 -0.054,2.258 -0.201,4.494 -0.458,6.752 -0.433,3.79 -0.022,7.517 2.562,10.773 2.212,2.787 4.065,5.859 6.191,8.973 -1.638,0.424 -2.286,-0.743 -3.262,-1.053 -3.519,-1.111 -5.354,1.023 -6.845,3.586 -1.519,2.613 0.419,4.012 2.282,5.138 1.197,0.724 1.861,2.271 3.505,2.278 0.083,0.238 0.165,0.477 0.247,0.713 0.908,2.625 3.138,3.776 5.484,4.592 2.621,0.91 5.37,1.578 5.665,-2.688 0.069,-1.001 0.935,-0.914 1.618,-1.039 0.964,1.004 1.928,2.008 2.893,3.012 0.091,0.926 0.305,1.768 1.395,1.996 0.51,1.191 1.638,1.786 2.524,2.614 1.605,3.632 4.637,5.853 7.832,7.909 l 0.117,0.08 c 0.041,0.23 0.01,0.521 0.132,0.685 2.71,3.45 8.466,2.451 10.402,7.091 0.064,0.154 0.677,0.127 1.029,0.104 1.519,-0.099 2.74,0.427 3.89,1.442 1.155,1.02 2.828,1.39 3.957,0.416 1.634,-1.408 -0.509,-2.175 -1.079,-3.123 -0.623,-1.037 -1.638,-1.995 -0.709,-3.172 0.83,-1.051 1.693,-0.067 2.477,0.4 0.794,0.477 1.57,0.535 2.289,-0.141 0.471,-0.443 0.783,-1.123 0.469,-1.609 -1.336,-2.07 -3.53,-3.143 -5.635,-4.129 -1.585,-0.744 -2.67,0.475 -3.293,1.922 -0.583,1.355 -1.705,1.436 -2.964,1.449 -2.266,0.026 -4.094,-1.049 -5.929,-2.153 -5.502,-5.345 -10.985,-10.707 -15.3,-17.114 -0.388,-3.09 -3.75,-4.547 -4.671,-8.344 4.706,3.799 8.762,7.072 12.819,10.347 0.253,-0.274 0.506,-0.549 0.759,-0.823 -4.252,-4.185 -7.478,-9.121 -10.921,-13.908 -2.937,-4.084 -5.042,-7.832 -3.002,-13.105 0.997,-2.577 2.198,-5.291 2.128,-8.227 0.229,-0.822 0.459,-1.645 0.688,-2.467 1.229,-1.775 2.276,-3.729 4.482,-4.537 0.467,-0.075 0.933,-0.15 1.399,-0.226 0.592,0.061 1.184,0.12 1.776,0.181 0.375,1.112 0,2.16 -0.396,3.146 -4.553,11.33 -2.521,21.803 4.002,31.739 0.761,1.159 1.496,2.446 3.018,1.999 1.863,-0.549 1.085,-2.143 0.783,-3.338 -1.383,-5.467 -2.675,-10.967 -2.829,-16.613 -0.209,-7.665 -1.725,-15.729 5.224,-21.686 1.261,-1.08 2.684,-1.971 3.951,-3.046 3.569,-3.026 7.061,-3.324 10.665,-0.451 1.93,1.538 3.735,2.454 5.67,0.517 2.03,-2.033 2.224,-4.693 0.58,-6.923 -2.589,-3.511 -5.212,-7.042 -9.15,-9.326 -7.234,-4.194 -12.118,-9.998 -12.366,-18.847 -0.034,-1.225 -0.01,-3.102 -1.763,-2.992 -1.433,0.088 -1.797,1.807 -1.925,3.115 -0.292,2.979 -0.22,6.008 -0.705,8.949 -0.972,5.893 -4.077,7.748 -9.986,6.734 -5.095,-0.875 -10.043,-2.211 -14.943,-3.802 -0.771,-0.25 -1.769,-0.495 -2.269,0.42 -0.584,1.069 0.136,2.012 0.982,2.388 2.708,1.199 4.99,3.394 8.172,3.504 6.237,0.217 11.897,3.656 18.281,3.265 1.047,-0.063 2.28,0.754 3.215,1.45 2.005,1.492 3.438,3.569 1.329,5.742 -2.46,2.535 -3.885,5.697 -5.978,8.426 -0.821,-0.018 -1.642,-0.035 -2.463,-0.053 -0.196,-0.104 -0.404,-0.162 -0.625,-0.174 -0.539,-1.711 -2.963,-3.358 -0.229,-5.188 1.722,-1.151 3.681,-2.239 2.837,-4.76 -0.919,-2.744 -3.411,-2.082 -5.496,-2.158 -1.196,-0.044 -2.429,0.154 -3.584,-0.068 -3.494,-0.675 -7.256,0.049 -10.517,-1.689 -5.258,-2.802 -10.66,-5.289 -16.152,-7.57 -1.294,-0.537 -2.178,-1.361 -3.133,-2.26 -1.252,-1.18 -1.042,-4.759 -3.291,-3.613 -2.18,1.111 0.481,3.264 0.892,4.977 0.22,0.922 0.806,1.983 -0.245,2.574 -1.071,0.604 -1.689,-0.436 -2.31,-1.158 -2.155,-2.51 -2.85,-5.674 -4.071,-8.633 -2.989,-7.24 -2.748,-14.52 -0.928,-21.894 0.323,-1.308 -0.293,-1.735 -1.271,-2.097 2.159,-3.45 5.716,-5.259 8.847,-7.579 4.609,-3.416 9.689,-3.856 15,-2.32 3.09,0.893 6.04,2.266 9.125,3.181 2.599,0.77 5.138,0.544 6.197,-2.507 1.373,-3.955 -0.412,-7.334 -4.337,-8.909 -2.563,-1.029 -4.906,-0.28 -7.314,0.499 -5.535,1.791 -9.017,-0.887 -9.781,-6.779 -0.665,-5.133 0.999,-9.327 3.816,-13.324 1.856,0.104 2.863,1.357 4.031,2.628 1.468,1.597 2.557,3.897 5.327,3.774 1.225,-0.055 2.601,0.076 2.705,1.662 0.103,1.588 -1.185,1.851 -2.456,1.951 -0.734,0.058 -1.487,0.167 -1.521,1.128 -0.028,0.821 0.58,1.232 1.186,1.653 1.823,1.265 3.986,1.572 6.043,2.145 3.662,1.018 7.202,4.705 6.915,8.445 -0.402,5.256 -0.068,10.377 0.925,15.504 -0.204,0.126 -0.409,0.251 -0.613,0.378 -3.095,0.521 -6.164,0.501 -9.076,-0.801 -2.731,-1.221 -5.334,-2.754 -8.12,-3.819 -2.468,-0.943 -5.262,-2.723 -7.746,-0.73 -3.789,3.04 -5.199,7.306 -4.694,12.165 0.109,1.049 0.634,1.983 1.537,2.277 4.704,1.529 6.941,5.659 9.825,9.104 2.663,3.182 5.67,5.839 9.794,6.964 3.428,0.936 5.402,-1.75 8.018,-2.99 4.421,-2.098 6.542,-4.991 5.173,-9.945 -0.143,-0.516 -0.03,-1.279 0.272,-1.713 1.786,-2.555 1.337,-5.199 0.534,-7.912 -0.343,-1.162 -0.6,-2.506 0.145,-3.496 2.124,-2.824 2.368,-6.216 3.167,-9.449 1.151,-4.661 2.663,-5.542 7.49,-4.401 3.271,0.772 4.792,3.521 3.992,7.188 -1.046,4.794 -2.147,9.561 -1.786,14.553 0.188,2.605 1.063,3.975 3.881,3.995 2.582,0.019 4.229,-0.569 3.972,-3.589 -0.069,-0.809 0.326,-1.646 0.349,-2.477 0.194,-6.971 1.896,-14.214 -3.733,-20.142 -0.6,-0.633 -0.736,-1.74 -0.995,-2.654 -1.873,-6.615 -5.537,-11.237 -12.84,-12.274 -2.333,-0.331 -4.653,-1.194 -6.814,-2.178 -2.222,-1.009 -2.498,-2.887 -0.185,-3.931 2.517,-1.137 3.258,-3.373 4.5,-5.364 5.126,4.654 10.466,9.047 15.943,13.288 3.169,2.453 5.664,5.564 6.824,9.498 1.354,4.594 3.553,8.879 4.598,13.609 0.662,2.996 2.333,5.728 3.942,8.413 3.387,5.654 9.297,8.531 13.88,12.863 2.435,2.302 4.967,4.502 7.45,6.754 3.012,2.732 2.269,6.604 3.134,10.018 2.898,11.43 10.941,18.68 20.575,24.517 0.655,0.397 1.653,1.005 2.256,0.085 0.564,-0.861 -0.226,-1.605 -0.9,-2.078 -4.563,-3.197 -8.115,-7.461 -11.854,-11.482 -2.93,-3.153 -5.036,-6.965 -5.731,-11.34 -0.417,-2.627 0.083,-4.883 3.227,-5.373 2.911,-0.453 2.073,-1.674 0.636,-2.936 -0.892,-0.783 -1.874,-1.771 -2.95,-1.982 -4.419,-0.873 -7.315,-3.77 -10.208,-6.876 -1.616,-1.735 -3.61,-3.13 -5.489,-4.607 -6.375,-5.012 -11.883,-10.243 -13.066,-19.178 -1.263,-9.54 -5.902,-17.744 -14.18,-23.238 -4.589,-3.045 -8.723,-6.541 -12.585,-10.424 -1.438,-1.444 -4.205,-1.402 -4.956,-3.378 -2.184,-5.743 -7.626,-8.083 -11.733,-11.801 -1.54,-1.394 -3.246,-1.567 -5.233,-0.288 -3.769,2.428 -1.229,8.611 1.995,9.508 4.026,1.119 7.158,4.303 11.457,4.604 -4.606,4.148 -14.648,4.646 -20.225,0.07 -3.537,-2.902 -4.912,-6.757 -2.712,-10.652 1.375,-2.438 3.639,-4.359 3.256,-7.61302 -0.115,-0.975 0.98,-1.543 2.079,-1.51 0.038,1.922 0.753,2.682 2.683,1.691 1.057,-0.541 2.167,-1.113 3.316,-1.314 3.43,-0.604 7.272,-2.135 9.775,1.6 2.37,3.53602 4.817,7.24402 6.063,11.24002 0.988,3.17 1.864,2.641 3.639,1.225 2.051,-1.637 3.559,-1.59 3.804,1.33 0.295,3.498 2.491,4.246 5.405,4.229 3.096,1.003 4.843,-0.163 5.068,-3.358 0.081,-1.141 -0.321,-2.316 -0.502,-3.477 1.005,-5.461 3.635,-10.15202 7.337,-14.14102 4.063,-4.377 4.381,-8.381 0.962,-13.252 -1.496,-2.131 -3.502,-3.544 -5.348,-5.217 -4.897,-4.439 -14.927,-5.159 -19.859,-0.927 -2.324,1.994 -4.826,2.868 -7.6,3.62 -2.113,0.574 -3.18,-0.113 -3.577,-2.154 0.054,-0.406 0.107,-0.813 0.162,-1.221 2.716,-0.49 3.413,-3.139 5.066,-4.762 0.514,-0.504 1.007,-1.199 0.362,-1.867 -0.664,-0.688 -1.278,-0.109 -1.855,0.335 -1.562,1.199 -2.883,2.866 -5.157,2.714 -6.807,-0.58 -11.29,3.865 -16.029,7.582 -4.199,3.293 -3.148,8.511 -4.231,12.938 -0.485,1.096 -0.288,2.187 0.382,3.059 1.808,2.354 1.252,4.70502 0.158,7.07202 -0.374,0.808 -0.421,2.076 -1.686,2.009 -1.045,-0.056 -1.115,-1.063 -1.269,-1.888 -0.155,-0.833 -0.365,-1.848 -1.444,-1.623 -1.081,0.226 -0.697,1.346 -0.774,2.125 -0.358,3.64 0.439,7.092 1.729,10.461 -1.955,-0.447 -2.87,-2.125 -3.805,-3.562 -5.42,-8.326 -11.217,-16.44502 -14.833,-25.80502 0.533,-0.606 0.935,-1.175 1.32,-2.002 1.39,-2.983 1.321,-4.482 -0.275,-6.647 -1.783,-2.42 -3.939,-5.227 -1.739,-7.978 1.824,-2.278 3.469,-5.143 6.623,-6.145 z m 173.009,-17.732 c 1.86,0.193 3.32,-0.982 4.983,-1.463 0.467,-0.049 0.974,0.006 1.394,-0.16 6.355,-2.521 12.844,-3.506 19.622,-1.982 1.614,0.363 2.743,-0.748 4.106,-1.569 3.371004,-2.033 6.130004,-7.167 11.249004,-3.017 0.527,0.428 1.384,0.382 1.843,-0.433 0.953,-0.011 1.906,-0.022 2.859,-0.033 1.481,1.34 2.316,-0.105 2.495,-0.981 0.327,-1.606 1.673,-3.713 -1.069,-4.711 -1.213,-1.19 -2.426,-2.381 -3.638,-3.572 0.025,-1.19899 -0.475,-1.62099 -1.617,-1.09 -0.411,-0.12199 -0.822,-0.24399 -1.234,-0.36699 0.161,-1.6 -1.175,-2.261 -2.054,-3.17 -2.407,-2.487 -4.936,-4.861 -6.51,-8.027 -1.776,-3.571 -4.671004,-6.326 -7.052004,-9.453 -0.917,-1.205 -2.266,-2.156 -3.91,-2.349 -5.978,-0.702 -11.643,-2.386 -17.214,-4.708 -5.188,-2.164 -9.561,0.365 -9.966,5.498 -0.177,2.243 -0.412,3.865 -2.899,4.613 -1.173,0.353 -1.28,1.649 -1.253,3.018 0.073,3.782 2.653,5.592 5.248,7.484 -0.843,0.871 -2.911,0.715 -2.025,3.004 0.941,2.43 2.486,3.703 5.021,3.803 1.664,0.065 2.216,-1.182 2.599,-2.48 0.873,-2.962 -1.924,-2.666 -3.286,-3.643 1.958,-0.587 4.227,-0.627 5.2,-2.951 l 0.02,-0.019 c 0.518,-0.612 1.074,-1.198 1.546,-1.845 2.135,-2.924 3.994,-2.993 6.333,-0.207 2.247,2.677 2.351,7.552 0.082,10.295 -1.515,1.82999 -3.193,3.52899 -4.85,5.23499 -0.981,1.011 -1.465,2.05 -0.056,2.937 3.191,2.008 1.422,3.05 -0.702,4.065 -0.709,0.339 -1.728,0.274 -1.762,1.435 -1.157,0.379 -2.314,0.758 -3.472,1.137 -2.139,-0.028 -3.073,1.234 -2.934,3.155 0.11,1.609 0.668,3.15 2.903,2.551 z m -70.463,125.92102 c 1.408,1.958 2.697,4.111 5.693,3.441 1.263,0.814 2.714,1.011 4.148,1.258 4.847,3.744 10.117,6.3 16.437,6.252 7.729,-0.057 13.799,3.88 19.705,8.286 1.5,1.12 0.858,4.558 3.975,3.716 2.055,-0.555 3.253,-2.364 4.737,-3.735 0.439,-0.405 0.854,-0.841 1.318,-1.216 0.611,-0.492 1.398,-0.701 1.967,-0.138 4.057,4.017 2.761,-0.27 3.215,-2.013 0.66,-2.529 1.434,-5.027 2.149,-7.542 0.289,-1.015 0.995,-2.052 0.34,-3.097 -1.125,-1.793 -0.576,-3.205 0.403,-4.926 2.311,-4.055 1.992,-7.804 -0.492,-10.404 -0.138,-0.415 -0.275,-0.83 -0.413,-1.244 0.199,-2.963 -1.813,-4.394 -3.9,-5.897 -2.822,-2.035 -2.795,-4.051 0.155,-5.723 2.95,-1.671 3.996,-4.293 4.342,-7.373 0.841,-7.486 -0.519,-14.736 -2.712,-21.825 -1.267,-4.093 -3.55,-7.64 -7.795,-9.271 -4.123,-1.583 -5.201,-4.973 -2.495,-8.537 0.648,-0.854 1.524,-1.55302 2.082,-2.45502 1.511,-2.449 0.796,-4.705 -1.781,-5.996 -0.079,-0.189 -0.136,-0.384 -0.171,-0.584 -0.123,-4.423 1.921,-6.99 6.224,-8.327 2.171,-0.675 4.499,-1.659 6.108,-3.567 1.043,-1.236 1.228,-2.812 0.479,-4.031 -0.967,-1.578 -2.056,-0.043 -3.035,0.406 -3.022,1.39 -5.948,2.658 -8.78,-0.527 -1.006,-1.132 -2.359,-0.705 -3.563,0.195 -3.344,2.504 -6.778,4.887 -10.104,7.414 -3.169,2.41 -6.037,5.076 -7.151,9.145 -2.016,7.361 -4.044,14.72002 -6.578,21.93002 -0.396,1.126 -0.444,1.982 0.958,3.326 0.972,0.931 1.03,2.486 1.544,3.729 -0.059,1.016 0.532,1.333 1.306,2.14 0.441,0.459 0.493,1.213 0.482,1.85 -0.02,1.112 -0.311,2.007 0.946,2.471 0.838,0.292 1.676,0.584 2.514,0.876 2.462,0.451 4.789,0.893 5.741,3.857 0.273,0.85 1.916,1.275 2.95,1.859 2.605,1.473 5.941,0.984 8.314,3.118 0.968,0.87 2.426,1.565 1.668,3.161 -0.958,2.018 -0.783,3.656 0.893,5.168 0.44,0.396 0.68,1.033 0.219,1.606 -0.43,0.534 -1.101,0.581 -1.643,0.321 -0.855,-0.41 -1.581,-1.122 -2.458,-1.45 -3.134,-1.173 -5.052,-3.765 -8.373,-5.136 -0.01,-0 -0.018,-0.013 -0.018,-0.013 -1.208,-3.11 -3.933,-2.426 -6.077,-1.976 -2.39,0.502 -1.698,2.663 -1.45,4.473 0.211,1.533 0.241,3.12 0.122,4.666 -0.533,6.93 -3.965,11.819 -11.667,6.402 -0.585,-0.411 -1.404,-0.58 -1.845,-1.094 -2.953,-3.434 -6.295,-2.574 -9.809,-1.115 -3.242,1.346 -6.68,1.978 -10.169,1.657 -2.854,-0.263 -5.332,-1.729 -5.173,-4.872 0.134,-2.655 0.355,-5.4 1.447,-8.006 2.66,-6.35 4.206,-12.933 3.501,-19.914 -0.314,-3.115 -2.12,-5.227 -5.154,-5.285 -4.435,-0.086 -8.877,-0.102 -13.308,0.07 -2.295,0.09 -4.326,1.092 -4.434,3.778 -0.087,2.165 -0.354,4.277 -0.727,6.401 -0.33,1.885 0.193,3.516 1.736,4.814 1.629,1.373 3.019,2.908 5.028,3.943 5.466,2.814 5.925,8.22 6.128,13.521 0.292,7.596 2.918,14.056 8.706,19.112 0.708,1.585 1.902,2.561 3.595,2.927 z m -86.418,-94.85802 c 0.951,-0.94 1.122,-1.128 1.533,-2.044 0.698,-1.554 2.344,-2.475 3.516,-3.711 2.953,-1.293 4.206,-4.387 6.616,-6.266 0.629,-0.49 1.354,-1.156 0.998,-2.121 -0.396,-1.076 -1.4,-1.151 -2.378,-1.221 -3.142,-0.224 -6.178,0.283 -9.192,1.146 -2.853,0.816 -4.777,-0.394 -5.26,-3.228 -0.379,-2.223 -1.107,-2.6 -2.607,-1.012 -3.754,3.975 -7.483,7.977 -11.103,12.072 -1.268,1.436 -1.534,3.034 -0.124,4.85 2.343,3.017 4.169,6.318 4.145,10.361 -0.01,1.166 0.423,2.34 0.693,3.5 0.276,1.189 1.42,1.894 1.984,0.881 1.947,-3.494 6.19,-4.93 7.611,-8.805 1.46,-1.247 1.914,-2.767 3.568,-4.402 z m 105.408,-48.968 c -2.651,-4.24799 -2.346,-4.91599 2.64,-5.86399 1.292,-0.246 2.593,-0.478 3.857,-0.83 4.69,-1.31 6.103,-3.535 4.998,-8.198 -0.412,-1.738 -0.404,-3.17 0.546,-4.779 0.808,-1.368 0.909,-3.898 -0.914,-3.752 -2.567,0.205 -5.383,-1.266 -7.628,0.313 -2.963,2.08 -5.582,4.651 -8.349,7.012 -0.383,0.127 -0.766,0.254 -1.149,0.381 -0.925,-0.35 -1.517,-0.022 -1.816,0.896 -0.589,0.184 -1.178,0.367 -1.766,0.551 -3.739,1.078 -7.6,1.856 -11.188,3.309 -4.791,1.938 -5.258,4.463 -2.972,8.981 1.453,2.87199 4.1,4.65299 5.677,7.33099 0.326,0.555 0.94,0.995 1.494,0.682 4.045,-2.293 4.133,0.887 4.932,3.379 0.649,2.025 1.789,2.869 3.296,0.539 2.766,-0.48 3.813,-3.114 5.774,-4.607 2.25,-0.803 4.544,-1.498 6.739,-2.428 7.033,-2.98 11.138,-0.188 15.152,5.009 0.365,0.474 0.729,0.962 1.173,1.356 1.302,1.161 2.727,1.314 3.599,-0.335 1.32,-2.497 3.298,-4.306 5.25,-6.27 2.689,-2.707 -0.512,-4.50499 -1.808,-6.33299 -1.297,-1.829 -2.545,-0.438 -3.358,0.786 -1.867,2.80599 -4.301,3.03599 -7.231,1.98399 -3.624,-1.30199 -7.312,-2.50699 -11.188,-1.03399 -1.896,0.71799 -3.713,1.65599 -5.76,1.92099 z m -124.843,184.58602 c -0.851,-2.796 -3.538,-3.759 -5.555,-5.274 -3.336,-2.51 -5.164,-1.506 -5.469,2.647 -0.591,8.046 5.258,15.703 13.243,17.436 3.297,0.716 5.771,-1.339 7.401,-3.277 1.764,-2.097 0.108,-4.745 -1.749,-6.649 -0.395,-0.406 -0.971,-0.633 -1.463,-0.943 -2.34,-0.982 -3.921,-3.198 -6.408,-3.94 z m 113.731,-218.42901 c 2.62,-3.38699 5.617,-1.826 8.584,-0.654 1.064,1.187 1.745,0.087 2.28,-0.525 1.807,-2.06699 3.547,-4.19699 5.229,-6.36699 1.239,-1.597 2.262,-3.179 -1.082,-3.546 -1.897,-0.208 -1.037,-1.778 -1.073,-2.863 1.055,-1.563 2.605,-2.367 4.349,-2.926 1.606,-0.515 2.76,-1.453 2.654,-3.354 0.801,-0.554 0.61,-1.18 0.014,-1.684 -0.791,-0.667 -1.632,-0.887 -2.308,0.207 -6.096,1.972 -11.976,4.476 -17.517,7.675 -2.104,1.215 -4.426,2.436 -5.359,5.011 -5.373,3.536 -5.368,3.534 -2.931,9.70099 0.215,0.545 0.318,1.135 0.452,1.709 0.483,2.076 1.763,2.385 3.459,1.469 1.567,-0.846 3.15,-1.743 3.249,-3.853 z m -26.051,231.83701 c -0.94,-0.502 -1.88,-1.004 -2.82,-1.506 -0.33,-1.899 -1.416,-2.393 -3.144,-1.69 -3.11,-1.135 -6.246,-2.124 -9.632,-1.645 -1.846,-0.79 -4.081,-0.767 -4.688,1.069 -1.353,4.088 -5.001,7.546 -2.309,12.826 2.786,5.465 8.672,7.793 13.994,4.33 0.417,-0.029 0.833,-0.059 1.25,-0.088 3.363,1.5 5.782,-0.97 8.622,-1.902 3.522,-1.158 4.549,-3.853 4.247,-6.811 -0.287,-2.796 -2.886,-3.986 -5.52,-4.583 z m 18.913,-12.451 c 0.116,-0.844 -0.217,-1.391 -1.061,-1.599 -1.66,-5.004 -3.328,-10.005 -5.593,-14.779 0.25,-0.953 -0.147,-1.498 -1.074,-1.71 -0.351,-0.878 -0.702,-1.757 -1.053,-2.635 0.161,-3.558 -2.162,-5.869 -4.18,-8.335 -2.087,-2.551 -4.35,-2.234 -6.459,-0.171 -1.696,1.66 -3.075,3.64 -4.728,5.349 -1.327,1.37 -1.416,2.441 -0.17,4.002 2.473,3.1 3.077,6.385 1.371,10.326 -1.497,3.459 -2.324,7.334 0.859,10.637 1.048,0.577 1.531,1.537 1.794,2.646 0.996,3.854 3.932,5.686 7.331,7.033 0.437,0.061 0.874,0.121 1.311,0.182 0.547,1.195 1.716,1.066 2.733,1.371 5.354,1.606 10.729,3.078 16.169,4.393 3.561,0.861 6.046,0.175 8.632,-1.61 1.863,-1.286 1.776,-2.763 -0.326,-3.833 -5.314,-2.705 -10.427,-5.709 -14.855,-9.76 -0.233,-0.502 -0.467,-1.004 -0.701,-1.507 z m 2.087,100.882 c -0.565,-2.132 -2.193,-2.004 -3.852,-1.811 -0.417,-0.075 -0.833,-0.15 -1.25,-0.225 -1.506,-1.279 -3.133,-2.232 -5.223,-1.939 -0.657,-0.129 -1.313,-0.257 -1.97,-0.386 -6.221,-2.39 -12.384,-3.651 -19.011,-1.059 -6.581,2.573 -6.838,2.792 -7.085,9.747 -0.126,3.545 1.647,4.914 4.574,5.064 3.766,0.193 7.237,1.58 10.887,2.148 2.188,0.34 4.23,1.781 6.583,0.928 0.399,0.069 0.799,0.139 1.198,0.208 0.837,1.366 1.8,1.32 2.852,0.251 0.69,0.066 1.381,0.131 2.071,0.197 0.265,0.365 0.46,0.957 0.805,1.063 8.18,2.521 16.486,1.768 24.783,0.81 0.761,-0.087 1.508,-0.7 2.161,-1.201 0.657,-0.504 1.281,-1.154 0.979,-2.121 -0.271,-0.869 -1.076,-0.915 -1.769,-0.859 -1.583,0.127 -2.087,-1.076 -3.043,-1.969 -3.31,-3.086 -6.3,-6.715 -10.999,-7.893 -0.4,-0.105 -0.8,-0.211 -1.199,-0.315 -0.123,-0.46 -0.401,-0.657 -0.879,-0.515 -0.215,0.01 -0.419,-0.031 -0.613,-0.123 z m 5.712,-17.976 c 1.586,-0.104 1.759,1.417 2.497,2.242 2.779,3.107 5.457,6.305 8.22,9.426 0.803,0.908 1.875,1.846 3.063,0.813 0.9,-0.781 0.655,-2.033 0.042,-2.979 -4.147,-6.38 -8.231,-12.808 -13.742,-18.161 -1.763,-1.713 -3.311,-1.672 -4.773,0.326 -3.348,-4.792 -3.544,-4.879 -9.294,-2.683 -1.366,0.521 -2.746,0.763 -4.17,0.979 -5.353,0.811 -6.211,2.828 -2.829,7.019 3.398,4.209 7.379,7.688 12.315,10.184 4.462,2.258 8.586,5.181 12.886,7.766 1.004,0.604 2.231,1.451 3.275,0.387 1.104,-1.126 0.111,-2.152 -0.646,-3.115 -1.325,-1.688 -2.733,-3.336 -3.845,-5.158 -1.329,-2.185 -3.455,-4.085 -2.999,-7.046 z m -5.457,-23.518 c 4.075,-3.016 7.828,-6.369 13.05,-7.689 3.944,-0.996 7.954,-1.515 11.89,-2.452 1.608,-0.384 3.41,-0.929 2.874,-2.886 -0.867,-3.158 0.579,-3.762 3.172,-3.705 0.64,0.015 0.83,-0.634 1.354,-1.012 0.331,-0.239 0.819,-0.21 1.218,-0.124 1.45,0.313 2.111,0.339 3.576,-0.367 0.406,-0.195 0.9,-0.048 1.349,-0.073 2.247,0.271 4.653,1.168 6.137,-1.561 0.823,-0.441 1.646,-0.885 2.469,-1.326 2.214,-1.03 2.538,-2.24 0.355,-3.694 -0.103,-0.144 -0.211,-0.283 -0.325,-0.419 0.179,-1.785 -1.342,-2.064 -2.431,-2.66 -4.335,-2.373 -9.153,-2.399 -13.632,-1.404 -8.406,1.867 -16.837,3.008 -25.417,3.564 -2.688,0.174 -5.766,-0.173 -8.122,1.9 -3.122,0.115 -6.343,1.138 -9.366,0.346 -1.44,-0.377 -2.112,-0.416 -3.601,0.287 -1.681,0.794 -3.713,0.195 -5.569,0.293 -1.938,-0.586 -3.627,0.043 -5.234,1.07 -0.246,0.02 -0.492,0.041 -0.738,0.061 -2.541,-0.152 -2.896,1.476 -2.92,3.48 -0.028,2.256 0.021,4.285 2.922,4.902 1.015,0.215 3.783,-0.425 1.931,2.547 -2.487,3.992 0.167,11.461 4.699,12.617 2.42,0.617 3.93,1.948 5.628,3.421 1.599,1.386 3.389,3.117 5.688,2.206 3.667,-1.455 7.049,-3.463 8.934,-7.217 l 0.109,-0.105 z m 7.915,-202.08002 c -2.016,1.509 -1.852,2.792 0.566,4.421 0.053,0.232 0.131,0.455 0.236,0.668 -0.196,1.053 -0.306,2.131 -0.607,3.151 -0.489,1.651 -1.229,3.163 -3.166,3.546 -1.799,0.355 -2.903,-0.729 -3.985,-1.92 -0.749,-0.823 -1.259,-1.75 -1.523,-2.813 -1.588,-6.368 -3.287,-12.713 -4.704,-19.119 -1.168,-5.28 -4.045,-9.885 -8.714,-11.615 -3.92,-1.453 -6.833,-3.551 -9.675,-6.217 -1.063,-0.998 -2.235,-2.338 -3.551,-0.606 -1.077,1.417 -0.204,2.724 1.051,3.692 1.607,1.239 3.257,2.426 4.848,3.685 2.074,1.641 2.11,3.353 0.031,5.029 -0.743,0.599 -1.603,1.063 -2.291,1.716 -1.461,1.385 -1.385,2.874 0.778,2.852 4.964,-0.053 7.12,3.357 9.123,6.887 3.595,6.334 4.181,13.514 5.361,20.51 0.239,1.418 0.197,2.992 2.289,2.938 0.446,0.497 0.893,0.995 1.339,1.491 0.225,0.941 0.961,1.678 1.77,1.463 2.729,-0.723 5.409,-0.252 8.124,-0.104 0.743,0.041 1.697,-0.43 2.259,-0.973 2.655,-2.563 5.934,-4.684 7.587,-8.027 2.256,-4.56 5.579,-8.344 8.264,-12.578 6.509,-10.264 14.505,-17.748 27.993,-15.039 0.572,0.115 1.206,0.041 1.792,-0.061 2.158,-0.373 6.517,-5.039 6.138,-6.848 -0.612,-2.924 -3.495,-1.216 -5.102,-2.209 -0.099,-0.06 -0.229,-0.093 -0.345,-0.094 -1.984,-0.018 -2.957,-0.451 -2.443,-2.951 0.357,-1.738 -0.46,-3.738 -0.864,-5.598 -0.145,-0.666 -0.48,-1.427 -1.338,-1.518 -1.107,-0.117 -1.455,0.805 -1.662,1.567 -0.509,1.874 -0.552,3.838 -0.042,5.69 1.141,4.139 -2.78,5.308 -4.682,7.172 -1.795,1.76 -4.22,-0.524 -5.663,-2.229 -3.508,-4.146 -7.957,-6.452 -13.218,-7.282 -5.998,-0.947 -9.394,0.932 -11.645,6.521 -1.297,3.218 -1.992,6.605 -2.682,10.027 -0.953,4.725 0.269,9.594 -1.331,14.209 -0.109,0.189 -0.213,0.378 -0.316,0.566 z m 139.400004,84.53202 c 0.107,-0.195 0.209,-0.395 0.305,-0.598 1.706,-0.104 1.912,-1.582 2.481,-2.721 1.438,-2.879 2.849,-5.734 4.864,-8.318 3.264,-4.182 7.231,-7.656 10.842,-11.486 0.806,-0.854 1.922,-1.598 1.49,-3.031 -0.539,-1.786 -7.057,-4.728 -8.889,-3.982 -2.373,0.965 -4.403,0.723 -6.137,-1.316 -0.852,-1.001 -1.834,-1.895 -2.787,-2.805 -1.563,-1.49 -2.639,-1.045 -2.9,0.975 -0.34,2.63 -2.24,4.109 -3.889,5.793 -0.957,0.978 -2.244,1.199 -3.266,0.365 -3.679,-3.003 -7.109,-6.346 -10.491,-9.615 -2.067,-1.999 -2.834,-2.625 -5.003,-0.889 -1.372,1.1 -3.018,1.848 -4.002,-0.494 -0.365,-0.867 -0.678,-1.543 -1.71,-1.438 -1.1,0.113 -1.736,0.813 -1.885,1.865 -0.273,1.924 -1.245,3.012 -3.257,3.168 -3.145,0.244 -3.824,2.436 -3.095,4.873 1.779,5.945 0.018,12.092 1.294,18.045 0.28,1.307 -0.27,2.572 -0.772,3.818 -2.143,5.318 -5.3,10.118 -7.747,15.268 -3.796,7.989 -4.073,16.595 -3.759,25.255 0.056,1.547 0.299,2.963 1.752,3.662 1.821,0.875 2.999,2.277 4.074,3.902 1.333,2.014 3.334,2.219 4.146,-0 1.844,-5.049 4.853,-9.406 7.453,-14.004 2.287,-4.039 4.443,-8.286 9.149,-10.188 4.458,-1.801 8.599,-4.324 12.352,-7.162 3.394,-2.568 7.711,-4.462 9.387,-8.938 z M -246.4441,962.14758 c 3.131,1.939 6.462,2.963 10.22,2.765 4.555,-0.241 8.683,1.062 12.46,3.739 6.373,4.518 7.577,10.949 7.098,18.094 -1.992,-1.133 -4.077,-1.798 -5.392,0.736 -1.331,2.565 1.077,3.38 2.586,4.534 0.555,0.425 1.106,0.856 1.659,1.284 -2.368,2.693 -4.663,5.457 -7.133,8.05502 -1.328,1.396 -2.441,2.769 -1.635,4.736 0.761,1.857 2.443,2.318 4.319,2.723 4.223,0.91 8.365,-0.289 12.55,-0.143 9.103,0.315 16.436,7.856 16.262,16.854 -0.042,2.16 -0.154,4.318 -0.155,6.478 0,3.889 1.055,5.284 4.798,4.985 3.775,-0.299 5.156,1.088 4.76,4.658 -0.24,2.155 0.785,3.398 2.777,3.992 1.873,0.561 3.855,1.13 5.408,-0.459 1.422,-1.457 1.084,-3.385 0.374,-5.074 -0.929,-2.207 -1.869,-4.462 -3.178,-6.449 -6.205,-9.427 -6.029,-19.669 -4.032,-30.141 1.59,-8.33402 5.729,-15.39502 11.136,-21.82202 7.544,-8.969 16.1,-16.244 28.001,-18.887 4.433,-0.984 8.892,-1.926 13.299,-3.047 0.821,-0.209 2.243,-0.133 2.174,-1.414 -0.077,-1.425 -1.482,-1.406 -2.511,-1.424 -2.638,-0.047 -5.299,-0.16 -7.913,0.112 -9.446,0.984 -18.49,3.132 -25.508,10.186 -4.47,4.492 -8.588,9.366 -13.312,13.565 -3.277,2.914 -5.411,6.32 -7.031,10.212 -1.288,3.093 -2.473,6.229 -3.752,9.32602 -1.011,2.448 -2.921,3.428 -5.485,2.962 -4.813,-0.874 -8.548,-3.47502 -11.708,-7.16202 -4.159,-4.854 -5.708,-10.771 -6.936,-16.747 -1.927,-9.378 -7.583,-15.554 -16.004,-19.399 -3.25,-1.484 -5.244,-3.948 -6.15,-7.092 -1.452,-5.035 -1.318,-10.121 0.437,-15.195 2.599,-7.512 8.402,-12.08499 14.583,-16.26799 3.553,-2.405 7.415,-4.355 11.157,-6.477 0.649,-0.367 1.3,-0.695 1.371,-1.504 0.045,-0.516 -0.321,-1.063 -0.802,-1.008 -3.365,0.385 -7.153,-0.617 -9.953,1.668 -1.999,1.631 -3.851,3.545 -5.832,5.258 -5.425,4.688 -10.64,9.62999 -18.037,11.30699 -3.503,0.794 -4.445,3.055 -2.837,6.33 3.505,7.144 1.089,13.718 -1.535,20.332 -1.239,-1.717 -1.776,-4.646 -4.873,-3.444 -1.632,0.634 -2.515,2.3 -2.359,4.085 0.191,2.187 1.146,4.186 2.956,5.48 1.622,1.163 2.495,-0.71 3.678,-1.3 z m 177.643004,3.815 c 0.832,2.484 2.951,3.865 5.169,3.751 3.764,-0.194 5.652,1.979 7.49,4.519 2.762,3.814 6.463,6.87 8.573,11.247 0.827,1.716 1.972,3.003 0.462,4.788 -0.594,0.702 -0.901,1.463 -0.103,2.216 0.737,0.694 1.552,0.589 2.274,-0.005 2.008,-1.651 3.43,-0.434 4.494,1.105 2.205,3.194 5.088,5.73 7.795,8.43802 2.52,2.518 5.543,2.494 8.311,0.201 2.695,-2.23202 3.922,-5.02502 3.678,-8.52802 -0.445,-6.413 1.387,-12.298 4.582,-17.741 3.738,-6.371 9.3129996,-10.701 16.00999956,-13.701 1.27700004,-0.572 2.85900004,-0.669 3.74000004,-1.994 2.167,-3.262 5.317,-5.508 8.3440004,-7.832 1.498,-1.15 1.898,-2.266 1.215,-3.91 0.084,-0.184 0.092,-0.369 0.021,-0.559 1.553,-8.512 4.479,-16.75 5.284,-25.40199 0.596,-6.395 1.581,-12.504 6.21,-17.504 1.695,-1.831 -0.117,-2.236 -1.676,-2.587 -3.26,-0.734 -6.054,-2.104 -7.196,-5.653 -0.46,-1.43 -1.397,-2.857 -3.177,-1.828 -4.4160004,2.556 -8.5840004,5.57 -9.4220004,11.039 -1.361,8.871 -2.30100004,17.77 -0.818,26.77499 0.97,5.893 0.254,6.475 -5.637,7.32 -4.242,0.608 -8.6889996,0.844 -12.4909996,2.928 -5.438,2.982 -10.728,6.273 -15.859,9.76 -3.479,2.363 -7.099,2.834 -10.938,1.896 -5.393,-1.316 -10.352,-3.913 -15.952,-4.845 -5.257,-0.876 -9.984,-0.654 -14.412,2.312 -1.928,1.291 -2.585,3.565 -3.664,5.496 2.733,1.414 1.941,5.296 4.684,6.679 0.271,0.137 0.7,-0.039 1.055,-0.07 0.651,0.562 1.302,1.124 1.954,1.689 z m 25.281,-25.229 c -3.648,-0.545 -8.778,-1.102 -13.812,-2.135 -3.159,-0.65 -6.144,-2.135 -8.322,-4.678 -8.292,-9.68599 -14.016,-21.05699 -20.451,-31.92499 -3.504,-5.919 -5.424,-12.44199 -1.646,-19.47199 2.168,-4.035 4.013,-8.058 7.978,-10.728 1.578,-1.063 2.645,-2.912 0.861,-4.542 -1.473,-1.346 -3.656,-0.784 -4.257,0.917 -1.537,4.347 -5.167,7.118 -7.442,10.859 -2.961,4.871 -6.64,9.23 -11.026004,12.68399 -5.604,4.412 -14.993,3.368 -16.541,-4.99999 -1.342,-7.248 -0.454,-14.597 2.487,-21.487 1.12,-2.624 2.745,-5.027 4.04,-7.583 0.481,-0.949 0.876,-2.197 -0.285,-2.909 -1.089,-0.667 -2.128,-0.024 -2.801,0.911 -1.187,1.647 -2.761,2.928 -3.857,4.701 -4.214,6.817 -3.491,14.769 -5.107,22.153 -1.122,5.128 -2.197,6.381 -7.161,4.051 -5.217,-2.449 -10.039,-5.489 -14.483,-9.192 -1.858,-1.549 -2.583,-3.25 -2.562,-5.573 0.026,-2.936 0.432,-5.722 1.98,-8.278 0.312,-0.514 0.416,-1.184 -0.116,-1.653 -0.435,-0.384 -0.993,-0.216 -1.171,0.271 -0.933,2.554 -3.942,3.84 -3.959,7.061 -0.01,1.728 0.348,4.445 -2.001,4.85 -2.181,0.375 -4.487,-0.699 -6.14,-2.406 -1.259,-1.3 -2.116,-2.902 -2.479,-4.719 -0.319,-1.594 -0.748,-3.313 -2.832,-2.948 -1.838,0.321 -2.157,1.983 -2.277,3.634 -0.098,1.346 0,2.595 0.802,3.748 2.658,3.811 3.698,7.687 0.683,11.884 -0.553,0.77 -1.351,2.068 -0.487,2.946 0.954,0.967 1.936,-0.088 2.846,-0.636 4.685,-2.824 9.45,-4.807 14.823,-1.612 1.814,1.079 3.814,1.845 5.625,2.928 8.703,5.20899 18.415,7.64299 28.104,9.96899 6.812,1.637 12.682,4.736 18.030004,9.102 5.805,4.737 8.43,12.168 14.5,16.756 3.511,2.654 6.424,6.09399 9.662,9.11899 2.375,2.218 3.298,4.595 1.542,7.662 -1.207,2.107 -0.326,3.197 1.991,3.164 7.483,-0.106 14.655,2.088 21.924,3.309 6.65,1.115 12.523,-0.735 18.622,-2.188 6.426,-1.531 12.402,-4.269 18.4219996,-6.947 4.962,-2.208 5.361,-2.144 4.101,-7.659 -2.502,-10.94699 0.269,-20.98599 5.51399996,-30.35999 2.02900004,-3.626 5.05500004,-6.978 9.42400004,-8.50699 5.3030004,-1.854 10.5210004,-3.906 15.2890004,-6.99 2.035,-1.316 2.895,-2.462 0.729,-4.355 -0.99,-0.866 -1.775,-1.83 -2.059,-3.258 -0.879,-4.437 -0.723,-8.723 0.522,-13.129 1.493,-5.287 4.509,-9.471 7.728,-13.803 3.965,-5.335 6.926,-11.391 12.153,-15.795 1.866,-1.572 1.824,-3.595 -0.113,-5.263 -1.964,-1.689 -2.202,-3.784 -1.091,-5.844 1.984,-3.678 4.372,-6.94 7.889,-9.564 3.076,-2.294 7.045,-2.378 9.832,-4.917 0.657,-0.598 1.859,-1.212 1.364,-2.27 -0.552,-1.18 -1.683,-0.375 -2.569,-0.206 -5.074,0.965 -9.285,3.615 -13.123,6.9 -3.548,3.035 -7.427,5.223 -12.208,5.401 -1.382,0.051 -2.755,0.206 -3.226,1.723 -0.449,1.451 0.87,2.078 1.711,2.882 3.995,3.822 4.759,8.745 2.569,13.775 -1.671,3.84 -4.627,6.614 -7.067,9.841 -6.832,9.029 -11.969,18.655 -10.435,30.697 0.684,5.367 -0.998,7.16 -6.392,7.885 -7.3790004,0.991 -12.7620004,4.81 -16.1640004,11.19599 -2.985,5.604 -4.9769996,11.677 -6.9419996,17.717 -1.401,4.304 -1.339,8.67 -0.397,13.09999 0.791,3.722 -1.201,7.449 -4.959,9.113 -7.729,3.418 -15.843,5.309 -25.787,5.622 z m 45.5069996,57.077 c -0.366,5.16802 0.229,10.28702 0.768,15.40602 0.1,0.947 0.293,1.9 0.57,2.812 1.627,5.35 5.228,8.988 10.1520004,11.374 1.34,0.649 2.805,0.67 3.993,-0.554 1.168,-1.202 1.267,-2.694 0.517,-3.987 -1.136,-1.957 -0.656,-3.312 0.92,-4.676 0.482,-0.419 0.787,-1.223 0.875,-1.888 0.808,-6.147 5.024,-9.147 10.258,-11.208 1.258,-0.496 2.62,-0.57 3.869,-0.024 5.32,2.328 7.637,9.655 4.724,14.827 -3.542,6.291 -1.728,12.424 0.615,18.498 0.701,1.816 2.556,2.18 4.226,2.135 1.904,-0.053 2.883,-1.398 3.342,-3.222 0.66,-2.619 0.66,-5.246 0.051,-7.827 -0.595,-2.51 -0.301,-5.012 -0.316,-7.518 -0.01,-1.151 0.137,-2.277 1.801,-1.846 0.771,0.2 1.676,0.836 2.168,-0.287 0.441,-1.011 -0.236,-1.914 -0.816,-2.623 -2.303,-2.809 -2.373,-5.926 -2.091,-9.404 0.513,-6.302 2.169,-12.48702 1.718,-18.89302 -0.556,-7.871 -0.915,-15.757 -1.326,-23.638 -0.457,-8.772 -0.055,-17.449 2.385,-25.983 1.369,-4.793 0.256,-6.167 -4.551,-6.539 -1.824,-0.142 -3.576,-0.496 -4.993,-1.721 -2.573,-2.222 -3.285,-0.506 -3.646,1.73 -0.169,1.054 -0.125,2.16 -0.046,3.232 0.315,4.297 -0.481,8.004 -3.257,11.699 -1.847,2.461 -4.421,4.68 -4.797,8.5 -0.51,5.194 -1.949,10.283 -2.109,15.594 -0.129,4.314 -2.695,6.383 -7.009,6.438 -2.999,0.04 -5.997,0.033 -8.997,0.056 -4.8600004,0.036 -7.2770004,2.22 -8.3660004,7.006 -0.95,4.169 -0.482,8.357 -0.632,12.531 z m 36.7370004,85.49502 c 1.438,0 2.878,0.041 4.315,-0.011 2.068,-0.073 2.713,-1.417 1.564,-2.841 -2.184,-2.705 -1.127,-5.023 0.189,-7.499 0.411,-0.772 1.404,-1.696 0.264,-2.494 -0.861,-0.603 -1.804,-0.101 -2.621,0.533 -1.889,1.463 -3.8,2.896 -5.734,4.298 -7.236,5.242 -10.712,3.479 -14.902,-3.105 -4.364,-6.857 -4.172,-6.98 2.523,-11.48 0.1,-0.066 0.209,-0.119 0.303,-0.193 2.604,-2.004 1.718,-4.205 0.207,-6.274 -1.561,-2.141 -3.459,-2.539 -5.369,-0.373 -1.447,1.641 -3.17,2.921 -4.994,4.069 -5.6540004,3.557 -10.2940004,2.029 -12.6290004,-4.123 -2.66600004,-7.022 -13.7119996,-9.304 -19.2189996,-4.146 -4.373,4.094 -6.161,10.254 -11.276,13.731 -0.573,0.391 -0.899,1.483 -0.929,2.266 -0.065,1.699 -0.787,2.943 -1.988,4.053 -0.998,0.922 -1.709,2.137 -1.656,3.484 0.131,3.389 -1.779,4.236 -4.58,3.703 -3.97,-0.756 -5.449,2.301 -7.39,4.607 -0.61,0.726 -0.63,1.834 0.077,2.678 1.935,2.312 5.582,2.849 8.39,1.385 2.167,-1.129 3.485,-2.842 4.108,-5.171 0.197,-0.74 0.703,-1.36 1.538,-1.186 0.8,0.167 1.119,0.823 0.933,1.657 -0.225,1.002 -0.998,2.287 0.411,2.803 1.541,0.564 1.851,-1.121 2.566,-1.981 1.071,-1.286 2.063,-2.641 3.19,-3.874 1.03,-1.129 1.959,-2.596 3.756,-2.485 7.452,0.456 14.7739996,-0.867 22.1539996,-1.452 7.757,-0.613 14.1660004,3.909 21.1000004,6.275 5.165,1.762 10.302,2.932 15.699,3.146 z M -6.8510964,821.9586 c -2.283,-0.285 -4.1129996,0.217 -5.9509996,0.829 -5.295,1.763 -10.348,4.161 -16.075,4.702 -4.128,0.39 -8.171,1.75 -12.229,2.77 -3.555,0.892 -7.01,5.111 -7.26,8.544 -0.311,4.268 3.287,3.667 5.633,4.568 2.328,0.894 3.911,2.402 4.19,4.911 0.28,2.515 -0.405,4.747 -2.601,6.303 -1.172,0.831 -2.307,1.711 -3.489,2.526 -1.401,0.966 -2.702,2.217 -1.134,3.731 1.439,1.39 2.271,4.501 5.336,2.92 7.761,-4.004 15.119,-8.651 20.597,-15.583 3.376,-4.274 7.413,-7.794 11.5239996,-11.212 3.179,-2.643 5.73,-6.148 9.877,-7.602 1.028,-0.361 1.311,-1.646 0.422,-2.384 -2.72100004,-2.261 -4.485,-6.346 -8.84,-5.023 z m -77.9369996,22.978 c -3.84,-0.178 -8.067,-0.76 -10.909,2.282 -4.011,4.293 -11.174004,6.567 -10.054004,14.461 -3.697,5.14 1.119,8.56 2.692,12.563 0.582,1.479 2.21,1.067 3.313004,-0.05 3.677,-3.722 8.003,-6.903 9.524,-12.344 0.695,-2.489 2.708,-4.268 4.518,-5.939 1.654,-1.528 4.229,-2.18 5.793,-0.126 2.527,3.318 5.84,5.002 9.558,6.477 2.892,1.147 4.143,-0.507 5.727,-2.215 1.745,-1.88 -0.086,-2.654 -0.929,-3.828 -0.905,-1.259 -2.059,-2.515 -2.432,-3.947 -1.521,-5.846 -6.295,-6.586 -11.055,-7.288 -1.876,-0.277 -3.829,-0.046 -5.746,-0.046 z m 2.4,142.79698 c 0.265,8.861 1.865,16.67602 9.922,21.56802 1.543,0.938 2.697,1.816 3.645,-0.377 0.495,-1.145 1.133,-1.11 2.242,-1 4.398,0.438 7.798,-1.738 10.763,-4.656 1.354,-1.333 1.598,-2.903 0.943,-4.91202 -1.118,-3.44 -2.54,-6.402 -5.004,-9.279 -2.759,-3.223 -5.253,-6.727 -8.101,-9.946 -2.699,-3.051 -5.796,-3.024 -9.08,-1.759 -1.721,0.662 -4.413,0.457 -4.514,3.283 -0.09,2.514 -1.185,4.903 -0.816,7.078 z m 178.946,-154.61798 c -0.773,0.198 -2.012,0.318 -3.068,0.819 -5.811,2.746 -11.191,6.338 -16.529,9.802 -9.986,6.482 -18.735,14.764 -29.194,20.675 -2.553,1.443 -5.04,3.968 -4.39,7.226 0.661,3.313 2.548,6.228 6.599,6.596 3.445,0.312 5.254,2.701 6.455,5.556 1.422,3.374 3.689,6.15 6.018,8.85099 1.789,2.075 3.948,3.874 6.77,4.501 1.071,0.238 2.271,0.354 2.799,-0.906 0.457,-1.091 -0.352,-1.734 -1.168,-2.334 -3.225,-2.363 -5.674,-5.48699 -8.143,-8.56199 -5.273,-6.567 -5.344,-17.711 -0.458,-24.513 4.647,-6.47 11.301,-10.615 17.5,-15.222 5.254,-3.905 11.318,-6.557 17.248,-9.342 0.971,-0.456 2.152,-0.886 2.004,-2.201 -0.13,-1.136 -1.222,-0.882 -2.443,-0.946 z m 40.825896,-4.036 c 3.016,0.152 5.73,1.325 3.596,-3.462 -2.949,-6.608 1.063,-11.36 8.355,-10.814 2.385,0.179 4.762,0.497 7.146,0.654 1.059,0.07 2.34,0.102 2.613,-1.286 0.24,-1.207 -0.914,-1.569 -1.729,-1.992 -3.736,-1.938 -7.549,-3.712 -11.854,-3.863 -2.75,-0.096 -4.277,-1.266 -4.24,-4.152 0.025,-1.96 -0.629,-3.799 -2.623,-4.252 -5.346,-1.216 -10.752,-2.418 -16.244,-0.779 -1.443,0.431 -2.729,1.308 -2.648,2.996 0.092,1.949 1.684,2.421 3.291,2.687 8.627,1.426 13.887,9.555 11.922,18.196 -0.5,2.202 -1.35,3.278 -3.771,3.349 -3.701,0.108 -7.449,0.315 -11.061,1.056 -1.896,0.388 -5.537,-0.31 -5.373,1.951 0.152,2.109 3.68,1.12 5.674,1.183 5.872,0.182 11.679,-0.817 16.946,-1.472 z m -130.5858964,8.485 c -0.555,-2.223 -1.84,-1.581 -3.011,-0.86 -5.475,3.364 -10.904,6.798 -16.3869996,10.149 -2.732,1.67 -4.598,3.999 -6.291,6.709 -4.317,6.908 -7.459,14.87 -15.711,18.493 -1.123,0.494 -2.02,1.745 -0.944,2.939 1.914,2.124 2.813,4.696 3.805,7.262 0.411,1.063 1.142,1.866 2.354,1.949 1.423,0.097 2.077,-0.905 2.718,-1.979 0.978,-1.639 1.853,-3.397 3.111,-4.798 2.472,-2.75 3.929,-5.819 4.744,-9.453 1.053,-4.688 2.843,-9.356 6.337,-12.694 4.8129996,-4.599 9.4149996,-9.507 15.2519996,-12.975 1.773,-1.053 3.507,-2.526 4.023,-4.742 z m 25.0830004,228.859 c 2.316,-0.07 3.593,-0.979 4.148,-2.81 1.48,-4.877 1.318,-9.646 -0.807,-14.346 -1.994,-4.407 -4.797,-8.659 -2.936,-13.927 0.254,-0.716 0.066,-1.701 -0.195,-2.467 -1.882,-5.484 -0.965,-10.863 0.552,-16.211 0.513,-1.807 0.536,-3.541 -1.414,-4.219 -2.017,-0.701 -3.487,0.424 -4.146,2.408 -0.838,2.525 -1.094,5.141 -1.037,7.799 0.094,4.317 -0.656,8.246 -4.26,11.271 -1.984,1.667 -2.144,3.802 0.392,5.303 3.851,2.279 5.329,6.241 7.509,9.797 2.658,4.334 1.627,8.156 -0.502,12.124 -0.269,0.502 -0.309,1.157 -0.34,1.747 -0.126,2.408 1.072,3.555 3.036,3.531 z M -282.2361,923.36459 c -1.863,0.03 -3.336,-0.123 -4.498,0.996 -2.004,1.92999 -4.186,3.89199 -3.404,7.03699 0.742,2.98 3.07,4.33 5.958,5.018 7.917,1.885 9.037,3.564 7.708,11.45 -0.387,2.296 0.313,4.354 2.246,5.22 3.984,1.783 8.165,3.141 12.313,4.533 0.948,0.318 2.257,0.406 2.782,-0.912 0.417,-1.047 -0.323,-1.775 -0.955,-2.521 -2.071,-2.449 -4.445,-4.602 -6.156,-7.404 -3.565,-5.842 -6.232,-12.082 -8.968,-18.32 -1.342,-3.05999 -3.573,-5.44999 -7.026,-5.09699 z m 32.409,-17.193 c 4.438,0.669 7.075,-2.512 10.058,-4.779 6.564,-4.994 13.295,-9.823 20.482,-13.76899 4.333,-2.379 8.79,-3.683 8.548,-9.783 -0.037,-0.934 0.945,-1.888 1.374,-2.868 0.382,-0.874 0.796,-1.838 -0.048,-2.667 -0.691,-0.68 -1.59,-0.568 -2.34,-0.149 -4.564,2.549 -9.454,4.674 -12.217,9.556 -2.268,4.006 -5.66,7.016 -9.89,8.49 -6.966,2.42599 -12.757,6.38099 -17.812,11.61999 -0.963,0.998 -2.709,1.63 -1.961,3.392 0.744,1.756 2.479,0.898 3.806,0.957 z m -52.314,129.27501 c 0.01,-0.738 -0.015,-1.645 -0.673,-1.955 -4.157,-1.959 -3.178,-5.912 -3.692,-9.271 -0.505,-3.305 -0.858,-6.654 -2.435,-9.668 -0.538,-1.027 -1.274,-2.195 -2.652,-2.127 -1.236,0.063 -1.498,1.255 -2.08,2.176 -2.549,4.026 -3.788,8.414 -4.397,13.099 -0.264,2.028 -0.316,3.87 1.064,5.407 1.707,1.902 1.282,3.756 0.044,5.543 -0.984,1.42 -1.612,2.972 -1.972,4.594 -0.596,2.691 1.129,5.66 -0.929,8.238 -0.127,0.16 0.221,0.961 0.539,1.158 0.629,0.394 1.127,-0.01 1.374,-0.645 0.731,-1.893 2.133,-3.271 3.854,-4.101 4.398,-2.117 7.333,-5.813 10.522,-9.257 0.844,-0.911 1.429,-1.915 1.433,-3.191 z m 9.983,133.152 c 1.379,-0.027 2.642,-0.092 3.321,0.799 2.412,3.163 5.811,4.787 9.212,6.565 2.217,1.159 3.057,3.263 0.68,5.196 -2.267,1.844 -3.087,4.533 -4.446,6.895 -0.706,1.225 -1.02,3 0.384,3.928 1.337,0.884 2.043,-0.764 2.854,-1.514 0.784,-0.724 1.712,-1.533 2.022,-2.486 1.933,-5.934 5.594,-9.279 12.161,-8.988 1.289,0.057 3.33,-0.219 3.32,-2.033 -0.012,-2.154 -2.126,-1.898 -3.594,-2.006 -3.107,-0.229 -6.837,0.743 -9.221,-0.646 -6.165,-3.596 -13.347,-5.9 -17.769,-12.098 -0.729,-1.021 -1.645,-1.941 -2.966,-1.605 -1.552,0.393 -0.911,1.736 -0.772,2.719 0.29,2.053 -2.848,3.831 -1.107,5.521 1.628,1.581 4.066,-0.665 5.921,-0.247 z m 185.585,-319.326 c 3.879,0.476 4.868,-2.601 7.110004,-3.594 1.085,-0.48 2.159,-1.316 1.876,-2.739 -0.25,-1.26 -1.504,-1.383 -2.517004,-1.708 -2.803,-0.901 -4.88,-2.433 -5.288,-5.638 -0.378,-2.976 -2.163,-3.544 -4.619,-2.276 -4.146,2.142 -8.252,4.367 -11.242,8.128 -0.795,1 -2.175,1.833 -1.353,3.361 0.734,1.364 2.226,1.291 3.52,1.236 3.808,-0.164 7.311,0.773 10.64,2.578 0.821,0.446 1.786,0.623 1.873,0.652 z m -47.142,274.341 c 4.064,0.28 3.483,-3.716 5.231,-5.544 0.893,-0.933 0.783,-2.021 -0.147,-2.86 -5.379,-4.856 -10.525,-10.109 -17.903,-11.924 -4.249,-1.045 -8.739,-0.918 -12.761,-3.164 -1.7,-0.949 -3.684,-0.025 -4.428,1.879 -0.773,1.975 0.336,3.253 2.161,4.281 8.054,4.537 16.741,8.08 23.315,14.98 1.132,1.19 2.483,2.747 4.532,2.352 z m 27.928,-270.923 c -5.321,0.238 -9.12,3.873 -13.098,7.248 -2.039,1.731 -2.372,3.976 -1.743,6.179 0.953,3.339 2.426,6.462 5.852,8.191 2.531,1.277 4.104,0.801 4.869,-1.865 0.326,-1.14 0.58,-2.331 0.643,-3.51 0.246,-4.569 1.993,-8.342 5.491,-11.357 1.141,-0.983 2.631,-2.332 2.178,-3.837 -0.523,-1.743 -2.514,-0.579 -4.192,-1.049 z m -42.248,2.813 c 0.062,-1.407 -0.704,-1.625 -1.623,-1.606 -1.365,0.027 -2.515,0.631 -3.674,1.309 -5.262,3.078 -10.653,5.948 -15.808,9.194 -4.091,2.576 -7.256,6.234 -9.943,10.24 -0.674,1.005 -0.822,2.361 0.194,3.329 1.015,0.966 2.28,0.685 3.333,0.026 1.416,-0.885 2.723,-1.944 4.083,-2.918 7.882,-5.637 15.34,-11.795 22.492,-18.327 0.425,-0.388 0.71,-0.93 0.946,-1.247 z m -23.085,89.09198 c -0.159,-1.11 -0.792,-1.257 -1.877,-0.58 -1.874,1.167 -3.845,1.566 -5.574,-0.119 -2.217,-2.16 -4.256,-4.501 -6.411,-6.727 -1.076,-1.111 -2.188,-2.2 -3.372,-3.193 -1.31,-1.1 -2.949,-1.533 -4.183,-0.188 -1.195,1.302 -0.108,2.698 0.686,3.884 0.827,1.232 2.142,1.865 3.414,2.541 2.61,1.387 4.207,3.543 5.731,6.123 3.43,5.81 4.539,12.268 6.224,18.59 0.286,1.072 0.151,2.811 1.686,2.686 1.285,-0.105 0.972,-1.707 1.044,-2.727 0.47,-6.604 -1.03,-13.451 2.471,-19.676 0.056,-0.103 0.062,-0.231 0.161,-0.614 z m 134.052004,33.575 c -2.43,-0.011 -2.21,1.197 -1.763,2.647 0.886,2.868 3.589,4.889 3.868,7.984 0.402,4.463 2.553,8.436 3.359,12.78902 0.373,2.01 1.706,3.646 3.151,5.135 1.485,1.529 2.854,1.393 4.349,0.016 1.438,-1.326 2.035,-2.621 0.427,-4.246 -1.784,-1.805 -2.562,-4.17402 -3.714,-6.36502 -2.209,-4.195 -1.874,-9.168 -4.525,-13.134 -1.396,-2.089 -2.814,-4.143 -5.152,-4.826 z M -277.2001,915.66959 c 1.304,-0.15 2.025,-1.118 2.896,-1.951 5.619,-5.367 10.644,-11.236 15.168,-17.549 0.408,-0.57 1.287,-1.016 0.794,-1.735 -0.717,-1.044 -1.442,-0.071 -2.123,0.292 -5.597,2.982 -9.695,7.75 -14.182,12.035 -1.716,1.639 -3.223,3.564 -4.507,5.564 -1.144,1.781 -0.022,3.469 1.954,3.344 z M 29.382904,867.0426 c 0.475,1.843 0.656,4.071 2.574,5.464 0.984,0.716 2.05,0.517 2.988,-0.176 1.347,-0.994 2.726,-7.442 1.946,-9.149 -0.469,-1.029 -1.197,-1.766 -2.464,-1.703 -2.14,0.107 -5.02,3.143 -5.044,5.564 z m -139.210004,17.507 c -0.121,0 -0.243,0 -0.364,0 0,1.425 -0.146,2.871 0.044,4.271 0.168,1.254 0.983,2.22499 2.382,2.30299 1.237,0.069 2.174,-0.62899 2.327,-1.80799 0.383,-2.955 1.004,-5.921 0.5,-8.917 -0.209,-1.24 -0.855,-2.337 -2.324,-2.317 -1.572,0.022 -2.389,1.071 -2.535,2.523 -0.133,1.303 -0.03,2.629 -0.03,3.945 z m 268.5809,-62.511 c 1.299,-0.138 2.641,-0.118 3.885,-0.459 1.162,-0.32 1.449,-1.166 0.412,-2.102 -2.141,-1.933 -12.791,-2.076 -14.875,-0.223 -0.699,0.62 -1.043,1.342 -0.691,2.209 0.404,1.002 1.49,1.739 2.266,1.18 2.922,-2.107 6.004,-0.501 9.003,-0.605 z m -392.6089,254.929 c -2.329,0.452 -3.901,1.652 -3.904,4.02 0,2.234 1.442,3.675 3.637,3.481 2.366,-0.208 4.554,-1.499 4.589,-4.13 0.036,-2.611 -2.582,-2.653 -4.322,-3.371 z m -57.578,63.123 c 1.535,-0.096 3.081,-0.551 2.783,-2.159 -0.452,-2.441 -2.709,-2.742 -4.79,-2.878 -1.42,-0.092 -3.011,0.309 -2.855,1.939 0.276,2.893 2.997,2.503 4.862,3.098 z m 232.991004,-301.971 c -1.286,0.094 -2.142,0.849 -2.118,2.015 0.06,2.91 2.662,3.236 4.615,4.165 0.84,0.399 1.635,0.382 2.041,-0.666 0.039,-0.103 0.035,-0.249 -0.01,-0.353 -0.881,-2.276 -2.253,-4.121 -4.533,-5.161 z m -97.305004,64.43899 c 0.084,-1.862 -0.264,-3.215 -2.229,-3.172 -1.6,0.036 -3.116,0.824 -2.731,2.535 0.408,1.813 0.203,4.838 2.517,4.934 2.311,0.097 1.866,-2.85 2.443,-4.297 z M 120.3118,818.4046 c 2.004,-0.06 3.365,-0.506 3.225,-2.413 -0.133,-1.776 -1.281,-2.751 -3.072,-2.837 -1.689,-0.081 -2.85,0.623 -2.713,2.458 0.127,1.733 0.982,2.921 2.56,2.792 z m -272.5419,39.463 c 1.92,-0.603 2.676,-2.564 3.547,-4.326 0.347,-0.703 -0.292,-1.635 -1.072,-1.372 -1.917,0.647 -3.704,1.667 -4.078,3.935 -0.141,0.854 0.171,1.676 1.603,1.763 z"
       id="path3" />
    <path
       style="fill:#e86226;fill-opacity:1;stroke:#000000;stroke-width:1px;stroke-linecap:butt;stroke-linejoin:miter;stroke-opacity:1"
       d="m -354.4439,1489.359 c 0,0 0,-277 0,-347 15,30 59.8102,69.8481 85,90 25,20 61,22 91,22 0,70 0,235 0,235 z"
       id="path4587"
       inkscape:connector-curvature="0"
       sodipodi:nodetypes="ccsccc" />
    <path
       style="fill:#e86226;fill-opacity:1;stroke:#000000;stroke-width:0.70137709px;stroke-linecap:butt;stroke-linejoin:miter;stroke-opacity:1"
       d="m 635.5561,232.35895 c -70,0 -985.0001,0 -985.0001,0 l -4.9999,755 c 60,-155 305.000004,-205 489.9999,-210 l 10e-5,-205 c 0,0 273.4221,-0.73851 320,0 0,-75 30,-275 180,-340 z"
       id="path3106-1-9"
       inkscape:connector-curvature="0"
       sodipodi:nodetypes="ccccccc" />
    <g
       transform="translate(-42.178296,846.68601)"
       style="font-size:40px;font-style:normal;font-weight:normal;line-height:125%;letter-spacing:0px;word-spacing:0px;fill:#ffffff;fill-opacity:1;stroke:none;font-family:Sans"
       id="flowRoot4388-2">
      <path
         d="m -168.78906,-419.32706 0,-28.63281 3.78906,0 0,25.2539 14.10156,0 0,3.37891 z"
         style=""
         id="path3004" />
      <path
         d="m -132.61719,-426.00675 3.63282,0.44922 c -0.57294,2.1224 -1.63414,3.76953 -3.1836,4.94141 -1.54949,1.17187 -3.52866,1.75781 -5.9375,1.75781 -3.03386,0 -5.43946,-0.93425 -7.2168,-2.80274 -1.77734,-1.86848 -2.66601,-4.48892 -2.66601,-7.86132 0,-3.48957 0.89843,-6.1979 2.69531,-8.125 1.79687,-1.92707 4.1276,-2.89061 6.99219,-2.89063 2.77342,2e-5 5.03905,0.94403 6.79687,2.83203 1.7578,1.88804 2.6367,4.54429 2.63672,7.96875 -2e-5,0.20835 -0.007,0.52085 -0.0195,0.9375 l -15.46875,0 c 0.1302,2.27866 0.77473,4.02345 1.9336,5.23438 1.15884,1.21094 2.60415,1.81641 4.33593,1.8164 1.28905,1e-5 2.38931,-0.33853 3.30078,-1.01562 0.91145,-0.67708 1.6341,-1.75781 2.16797,-3.24219 z m -11.54297,-5.68359 11.58204,0 c -0.15627,-1.74478 -0.59898,-3.05337 -1.32813,-3.92578 -1.11981,-1.35415 -2.57163,-2.03124 -4.35547,-2.03125 -1.61459,1e-5 -2.97201,0.54038 -4.07226,1.62109 -1.10027,1.08075 -1.70899,2.52606 -1.82618,4.33594 z"
         style=""
         id="path3006" />
      <path
         d="m -123.71094,-419.32706 0,-18.00781 -3.10547,0 0,-2.73438 3.10547,0 0,-2.20703 c 0,-1.3932 0.1237,-2.42836 0.3711,-3.10547 0.33853,-0.91143 0.93424,-1.65036 1.78711,-2.2168 0.85285,-0.56637 2.04751,-0.84958 3.58398,-0.8496 0.98957,2e-5 2.08332,0.11721 3.28125,0.35156 l -0.52734,3.0664 c -0.72918,-0.13018 -1.41929,-0.19528 -2.07032,-0.19531 -1.06771,3e-5 -1.82292,0.22789 -2.26562,0.6836 -0.44272,0.45575 -0.66407,1.30861 -0.66406,2.55859 l 0,1.91406 4.04296,0 0,2.73438 -4.04296,0 0,18.00781 z"
         style=""
         id="path3008" />
      <path
         d="m -105.78125,-422.47159 0.50781,3.10547 c -0.98959,0.20833 -1.87501,0.3125 -2.65625,0.3125 -1.27605,0 -2.26563,-0.20183 -2.96875,-0.60547 -0.70313,-0.40365 -1.19792,-0.93425 -1.48437,-1.5918 -0.28646,-0.65755 -0.42969,-2.04101 -0.42969,-4.15039 l 0,-11.93359 -2.57813,0 0,-2.73438 2.57813,0 0,-5.13672 3.49609,-2.10937 0,7.24609 3.53516,0 0,2.73438 -3.53516,0 0,12.1289 c 0,1.00261 0.0619,1.64714 0.18555,1.9336 0.12369,0.28646 0.32551,0.51432 0.60547,0.68359 0.27994,0.16927 0.68033,0.25391 1.20117,0.25391 0.39062,0 0.90494,-0.0456 1.54297,-0.13672 z"
         style=""
         id="path3010" />
      <path
         d="m -90.625,-419.32706 0,-28.63281 19.316406,0 0,3.3789 -15.527343,0 0,8.86719 13.4375,0 0,3.37891 -13.4375,0 0,13.00781 z"
         style=""
         id="path3012" />
      <path
         d="m -66.855469,-419.32706 0,-20.74219 3.164063,0 0,3.14453 c 0.807285,-1.47133 1.552727,-2.44138 2.236328,-2.91015 0.683585,-0.46873 1.435537,-0.70311 2.255859,-0.70313 1.184885,2e-5 2.389311,0.37763 3.613282,1.13281 l -1.210938,3.26172 c -0.859387,-0.50779 -1.718761,-0.7617 -2.578125,-0.76172 -0.768238,2e-5 -1.458342,0.23114 -2.070312,0.69336 -0.611987,0.46226 -1.048185,1.10353 -1.308594,1.92383 -0.390632,1.25002 -0.585944,2.6172 -0.585938,4.10156 l 0,10.85938 z"
         style=""
         id="path3014" />
      <path
         d="m -54.765625,-429.69815 c -10e-7,-3.84114 1.067706,-6.68619 3.203125,-8.53516 1.783848,-1.53644 3.958325,-2.30467 6.523438,-2.30469 2.851548,2e-5 5.182275,0.93427 6.992187,2.80274 1.809876,1.8685 2.714823,4.44988 2.714844,7.74414 -2.1e-5,2.66928 -0.400411,4.76888 -1.201172,6.29882 -0.8008,1.52996 -1.966164,2.71811 -3.496094,3.56446 -1.529962,0.84635 -3.199883,1.26953 -5.009765,1.26953 -2.903654,0 -5.250657,-0.93099 -7.041016,-2.79297 -1.790367,-1.86197 -2.685548,-4.54426 -2.685547,-8.04687 z m 3.613281,0 c -5e-6,2.65625 0.579422,4.64518 1.738282,5.96679 1.158846,1.32162 2.617178,1.98243 4.375,1.98242 1.744778,1e-5 3.1966,-0.66406 4.355468,-1.99218 1.158838,-1.32812 1.738264,-3.35286 1.738282,-6.07422 -1.8e-5,-2.56509 -0.582699,-4.50845 -1.748047,-5.83008 -1.165379,-1.3216 -2.613945,-1.9824 -4.345703,-1.98242 -1.757822,2e-5 -3.216154,0.65757 -4.375,1.97265 -1.15886,1.31512 -1.738287,3.3008 -1.738282,5.95704 z"
         style=""
         id="path3016" />
      <path
         d="m -31.191406,-419.32706 0,-20.74219 3.164062,0 0,2.94922 c 1.52343,-2.27863 3.723949,-3.41795 6.601563,-3.41797 1.249986,2e-5 2.399073,0.22463 3.447265,0.67383 1.048161,0.44924 1.832665,1.03843 2.353516,1.76758 0.520815,0.72918 0.885398,1.59507 1.09375,2.59765 0.130189,0.65106 0.195293,1.79038 0.195312,3.41797 l 0,12.75391 -3.515624,0 0,-12.61719 c -1.6e-5,-1.43228 -0.136735,-2.50324 -0.410157,-3.21289 -0.273453,-0.70962 -0.758478,-1.27602 -1.455078,-1.69922 -0.696628,-0.42316 -1.513684,-0.63475 -2.451172,-0.63476 -1.497406,1e-5 -2.789722,0.47527 -3.876953,1.42578 -1.087246,0.95053 -1.630865,2.75392 -1.630859,5.41015 l 0,11.32813 z"
         style=""
         id="path3018" />
      <path
         d="m -1.25,-422.47159 0.5078125,3.10547 c -0.9895932,0.20833 -1.8750089,0.3125 -2.65625,0.3125 -1.2760486,0 -2.2656309,-0.20183 -2.96875,-0.60547 -0.7031295,-0.40365 -1.1979207,-0.93425 -1.484375,-1.5918 -0.2864618,-0.65755 -0.4296908,-2.04101 -0.4296875,-4.15039 l 0,-11.93359 -2.578125,0 0,-2.73438 2.578125,0 0,-5.13672 3.4960938,-2.10937 0,7.24609 3.5351562,0 0,2.73438 -3.5351562,0 0,12.1289 c -6.8e-6,1.00261 0.061842,1.64714 0.1855468,1.9336 0.1236909,0.28646 0.3255136,0.51432 0.6054688,0.68359 0.27994,0.16927 0.6803303,0.25391 1.2011718,0.25391 0.3906159,0 0.9049383,-0.0456 1.5429688,-0.13672 z"
         style=""
         id="path3020" />
      <path
         d="m 15.703125,-421.88565 c -1.302098,1.10677 -2.555352,1.88802 -3.759766,2.34375 -1.204438,0.45572 -2.4967543,0.68359 -3.8769527,0.68359 -2.2786521,0 -4.0299525,-0.55664 -5.2539063,-1.66992 -1.2239604,-1.11328 -1.83593895,-2.53581 -1.8359375,-4.26758 -1.45e-6,-1.01562 0.2311181,-1.94335 0.6933594,-2.7832 0.462237,-0.83984 1.0677051,-1.51367 1.8164062,-2.02149 0.7486932,-0.5078 1.5917914,-0.89191 2.5292969,-1.15234 0.690097,-0.18228 1.7317626,-0.35806 3.125,-0.52735 2.838529,-0.33853 4.928371,-0.74217 6.269531,-1.21093 0.013,-0.48176 0.01952,-0.78775 0.01953,-0.91797 -1.6e-5,-1.43228 -0.332047,-2.44139 -0.996094,-3.02735 -0.898452,-0.79425 -2.233086,-1.19138 -4.003906,-1.1914 -1.6536556,2e-5 -2.8743575,0.28973 -3.6621099,0.86914 -0.7877668,0.57944 -1.3704485,1.60483 -1.7480469,3.07617 l -3.4375,-0.46875 c 0.3124977,-1.47134 0.8268201,-2.65949 1.5429688,-3.56445 0.7161415,-0.90493 1.7512967,-1.60155 3.1054687,-2.08985 1.3541587,-0.48826 2.9231675,-0.7324 4.7070313,-0.73242 1.77082,2e-5 3.209621,0.20836 4.316406,0.625 1.106754,0.41669 1.920556,0.94078 2.441406,1.57227 0.520815,0.63153 0.885398,1.42905 1.09375,2.39258 0.117169,0.59897 0.175762,1.6797 0.175782,3.24218 l 0,4.6875 c -2e-5,3.26824 0.07485,5.33529 0.224609,6.20117 0.14972,0.86589 0.445944,1.69597 0.888672,2.49024 l -3.671875,0 c -0.3646,-0.72917 -0.598975,-1.58203 -0.703125,-2.55859 z m -0.292969,-7.85157 c -1.276056,0.52085 -3.190117,0.96355 -5.7421872,1.32813 -1.4453212,0.20834 -2.4674556,0.44271 -3.0664063,0.70312 -0.5989648,0.26043 -1.0612039,0.64129 -1.3867188,1.14258 -0.3255261,0.50131 -0.4882864,1.05795 -0.4882812,1.66992 -5.2e-6,0.93751 0.3548122,1.71876 1.0644531,2.34375 0.7096285,0.62501 1.7480389,0.93751 3.1152344,0.9375 1.354156,10e-6 2.558582,-0.29622 3.613281,-0.88867 1.054674,-0.59244 1.829413,-1.40299 2.324219,-2.43164 0.377588,-0.79426 0.56639,-1.96614 0.566406,-3.51562 z"
         style=""
         id="path3022" />
      <path
         d="m 24.355469,-419.32706 0,-28.63281 3.515625,0 0,28.63281 z"
         style=""
         id="path3024" />
    </g>
  </g>
</svg>
