<?xml version="1.0" encoding="UTF-8" standalone="no"?>
<!-- Created with Inkscape (http://www.inkscape.org/) -->

<svg
   xmlns:dc="http://purl.org/dc/elements/1.1/"
   xmlns:cc="http://creativecommons.org/ns#"
   xmlns:rdf="http://www.w3.org/1999/02/22-rdf-syntax-ns#"
   xmlns:svg="http://www.w3.org/2000/svg"
   xmlns="http://www.w3.org/2000/svg"
   xmlns:sodipodi="http://sodipodi.sourceforge.net/DTD/sodipodi-0.dtd"
   xmlns:inkscape="http://www.inkscape.org/namespaces/inkscape"
   id="svg3006"
   version="1.1"
   inkscape:version="0.48.4 r9939"
   sodipodi:docname="frontal_left.svg">
  <defs
     id="defs3008" />
  <sodipodi:namedview
     id="base"
     pagecolor="#ffffff"
     bordercolor="#ffffff"
     borderopacity="0.0"
     inkscape:pageopacity="0.0"
     inkscape:pageshadow="0"
     inkscape:zoom="0.35"
     inkscape:cx="350"
     inkscape:cy="520"
     inkscape:document-units="px"
     inkscape:current-layer="layer1"
     showgrid="false"
     inkscape:window-width="1920"
     inkscape:window-height="1018"
     inkscape:window-x="1392"
     inkscape:window-y="-8"
     inkscape:window-maximized="1"
     showborder="true" />
  <metadata
     id="metadata3011">
    <rdf:RDF>
      <cc:Work
         rdf:about="">
        <dc:format>image/svg+xml</dc:format>
        <dc:type
           rdf:resource="http://purl.org/dc/dcmitype/StillImage" />
        <dc:title />
      </cc:Work>
    </rdf:RDF>
  </metadata>
  <g
     inkscape:label="Layer 1"
     inkscape:groupmode="layer"
     id="layer1">
    <path
       id="path2986"
       d="m 244.01099,721.63846 c -3.864,2.908 -4.844,-1.406 -6.671,-2.898 -10.908,-8.903 -17.404,-9.472 -29.608,-3.281 -4.296,2.179 -5.704,4.857 -6.412,9.518 -2.635,17.352 0.401,35.28201 -5.454,52.26701 2.276,0.543 5.552,-1.25 6.562,2.172 0.642,2.172 -0.318,4.49 -2.479,5.627 -3.438,1.811 -4.046,5.555 -6.143,8.254 -1.596,2.059 -3.862,3.496 -6.622,2.598 -2.189,-0.713 -3.884,-2.336 -4.299,-4.707 -0.573,-3.273 1.89,-4.461 4.312,-5.359 4.215,-1.57 8.627,-2.822 8.661,-8.57 -4.479,-0.516 -8.964,-1.016 -12.067,-4.91 0.652,3.578 0.397,6.975 -1.315,10.316 -2.006,3.914 -4.577,5.293 -8.48,2.648 -6.608,-4.479 -14.188,-7.688 -19.24,-14.215 -3.665,-4.734 -9.118,-4.196 -14.04601,-5.03 -16.042,-2.716 -31.723,-5.964 -42.716003,-19.725 -2.942,-3.683 -5.816,-7.10201 -3.612,-12.07501 2.007,-4.528 6.103003,-4.976 10.475003,-5.397 6.244,-0.604 12.175,0.155 17.98,2.368 5.869,-2.83 8.643,-8.275 11.516,-13.636 1.07,-5.59 4.555,-9.564 10.03901,-9.403 4.872,0.145 8.227,3.901 9.066,9.134 -1.33,8.689 5.832,16.181 3.528,25.007 1.69,5.50101 -0.497,11.65901 2.355,16.83401 3.703,6.715 9.689,9.578 17.405,8.473 -0.931,-3.566 -4.27,-4.358 -6.821,-6.183 -4.748,-3.396 -7.292,-8.285 -6.225,-14.14 2.366,-12.96901 0.206,-25.07101 -5.842,-36.65201 -4.212,-8.065 -13.608,-11.63 -22.06501,-8.562 -3.548,1.287 -3.411,4.036 -4.024,6.864 -2.4,11.069 -6.214,13.733 -17.581,12.397 -2.838,-0.333 -5.793,-0.741 -8.395,-1.832 -9.474003,-3.971 -16.959003,-0.96 -23.496003,6.066 -10.867,10.852 -10.904,11.499 2.191,20.37701 5.03,3.409 9.765,6.903 14.63,14.575 -14.589,-7.054 -26.306,-16.682 -35.854,-15.846 -0.699,0.312 -1.458,0.469 -2.304,0.415 0.753,-0.216 1.521,-0.346 2.304,-0.415 5.834,-2.59401 7.34,-16.58701 17.236,-20.63201 0.814,-1.217 1.635,-2.434 2.456,-3.65 -0.527,-0.541 -1.056,-1.083 -1.583,-1.624 -10.866,9.263 -25.367,12.839 -35.638997,23.183 -8.712,8.77201 -15.467,8.77201 -25.584,1.46301 -2.442,-1.76301 -4.563,-5.46801 -8.169,-3.68801 -4.0700014,2.009 -3.6900014,6.25101 -3.7100014,10.18101 -0.036,6.984 0.714,13.915 -1.376,20.931 -1.331,4.469 -1.341,11.045 3.3720014,13.1 11.741,5.117 2.789,10.662 1.339,17.104 -0.739,3.283 -3.1840014,35.004 -0.051,39.389 6.592,9.227 10.809,12.852 6.149,23.16 -2.866,6.342 -4.933,13.432 -1.473,19.498 3.535,6.201 4.041,9.986 -3.435,14.473 -1.032,0.621 -1.854,20.625 -1.217,21.184 12.499,10.949 -1.9950014,41.705 -5.2120014,47.141 -1.8,3.043 -3.564,8.309 -0.698,15.742 3.809,9.881 3.818,18.53303 0.044,26.22303 -5.59300001,11.393 -8.671,22.184 1.248,32.811 0.413,0.441 -0.141,1.785 -0.26,2.688 6.5680014,4.117 12.8770014,8.955 21.3090014,8.434 13.362,-2.705 26.859,-0.473 40.276997,-1.098 16.925,-0.203 27.479,-11.404 38.078003,-22.324 2.802,-2.885 5.029,-4.936 9.61,-5.777 8.373,-1.535 15.931,-5.803 17.903,-15.561 -4.862,-3.803 -9.511,-0.814 -14.856,1.414 2.166,-8.60503 0.685,-16.68403 4.024,-24.05503 -1.609,0.961 -3.146,2.084 -4.847,2.846 -1.969,0.881 -4.586,2.551 -6.016,1.896 -2.338,-1.066 -2.547,-3.877 -1.764,-6.701 1.681,-6.055 -1.128,-11.252 -3.812,-16.396 -2.57,-4.934 -3.569,-9.156 3.94,-10.43 2.579,-0.436 4.299,-2.475 6.04,-4.494 7.941,-9.203 20.455,-10.754 29.95801,-3.926 3.095,2.223 2.802,2.857 -3.94001,8.537 -0.062,8.244 -9.301,11.154 -10.793,18.566 6.247,1.246 7.334,-6.389 14.69501,-7.764 -5.45101,5.668 -9.72401,9.828 -13.66501,14.281 -4.362,4.928 -10.182,10.369 -6.456,17.307 4.006,7.45903 11.63,5.88703 18.56801,3.75803 0.825,-0.254 1.775,-0.1 2.679,-0.104 1.037,-1.92003 2.772,-2.30903 4.771,-2.12903 0.923,-2.221 2.124,-4.063 4.946,-3.66 0.521,-0.303 1.042,-0.605 1.558,-0.902 2.715,-7.297 8.303,-12.744 10.832,-20.719 3.491,-11.008 8.238,-22.57 16.548,-31.324 5.262,-5.543 9.145,-11.574 9.539,-18.855 1.045,-19.318 11.186,-35.914 15.765,-54.236 4.69,-18.76 15.005,-36.113 22.857,-54.084 -2.742,-3.816 -0.011,-7.449 1.049,-10.658 3.366,-10.189 0.5,-20.824 2.953,-30.99 0.476,-0.275 0.878,-0.635 1.209,-1.074 7.985,-16.623 8.506,-33.87701 4.351,-51.52901 z m -51.781,86.24001 c 2.911,2.428 -0.474,3.91 -1.305,5.492 -1.513,2.875 -3.007,0.77 -4.193,-0.625 -3.072,-3.6 -6.08,-7.254 -11.016,-13.166 8.595,1.111 12.468,4.922 16.514,8.299 z m -151.68701,-32.867 c 0.834,-4.551 5.295,-8.015 10.382,-9.408 l -0.114,0.274 c 0.654,-0.747 1.31,-1.495 1.966,-2.242 1.692,-5.946 6.702997,-9.436 11.321997,-6.526 4.086,2.573 4.844,8.524 0.295,13.738 -5.639,6.457 -2.145,17.391 -11.174997,22.959 -3.6,-2.973 -2.679,-8.189 -4.447,-12.252 -3.05,-2.002 -8.872,-3.041 -8.229,-6.543 z m -25.166,-1.756 c -0.212,-3.443 3.039,-5.025 4.847,-7.439 2.703,-3.608 3.755,-0.222 5.037,0.7 3.977,2.858 7.723,6.038 12.86,10.131 -7.094,1.785 -12.295,0.49 -17.445,-0.885 -1.896,-0.505 -5.096,0.768 -5.299,-2.507 z m 9.92,90.66 c 1.284,-1.898 3.211,-2.471 5.355,-2.598 3.8,-2.287 9.282,-0.074 12.268,-4.576 -3.073,-4.881 -6.583,-8.916 -12.542,-10.813 -7.613,-2.422 -3.467,-11.475 -7.977,-15.893 -3.837,-7.914 -3.148,-16.785 -5.082,-25.127 -1.318,-5.688 7.168,-10.66 14.694,-9.656 9.191,1.227 17.593,12.01 16.706,21.441 1.591,5.014 1.907,10.342 -0.977,14.629 -4.982,7.408 -1.847,12.361 3.689,17.135 9.956997,0.828 13.702997,8.318 14.732997,16.273 1.335,10.32 -7.362,13.084 -15.161997,15.041 -0.308,4.305 6.412997,6.773 2.062,10.717 -2.383,2.156 -5.979,0.807 -7.861,-1.363 -2.945,-3.389 -4.013,-7.711 0.532,-10.654 3.589,-2.326 1.133,-3.898 -0.287,-4.99 -2.162,-1.664 -3.335,0.145 -4.168,2.105 -1.679,3.953 -1.878,8.104 -1.871,12.309 0.005,2.6 0.023,5.496 -2.844,6.629 -2.842,1.123 -5.168,-0.875 -6.647,-2.84 -4.219,-5.607 -9.201,-10.945 -9.941,-18.385 -0.417,-4.189 1.305,-7.527 5.32,-9.384 z m 9.717,83.826 c -3.14,-1.924 -6.175,-4.514 -5.072,-8.33 1.156,-3.998 5.525,-2.125 8.433,-2.662 5.476,-1.01 13.531,-3.184 15.638,1.639 2.275997,5.211 -1.49,12.264 -6.461,16.939 -4.493,4.225 -9.191,7.941 -16.885,7.115 2.712,-3.637 7.782,-4.189 8.491,-8.629 -1.381,-2.023 -2.762,-4.046 -4.144,-6.072 z m 9.104,16.76 c 4.27,-2.998 6.834,-7.303 9.706,-10.857 3.448997,0.787 2.063997,3.783 3.373997,4.76 4.501,3.355 4.623,9.096 2.428,11.844 -2.274,2.85 -8.405997,4.791 -12.047997,3.887 -6.076,-1.506 -12.409,-2.236 -19.622,-4.361 5.529,-3.75 11.518,-2.009 16.162,-5.273 z m -9.011,26.016 c -5.957,-5.324 -18.375,1.9 -20.513,-10.85 5.465,6.285 16.087,2.551 20.513,10.85 z m -1.11,-13.377 c 8.541,-0.279 14.936,2.008 21.025997,6.889 7.801,6.254 10.49,5.082 12.702,-4.633 1.053,-4.629 1.89,-9.502 -1.674,-13.764 -1.437,-1.719 -5.309,-3.143 -2.342,-5.984 2.245,-2.15 5.517,-2.918 8.987,-1.955 11.886,3.299 18.352,19.557 9.954,28.6 -5.978,6.439 -12.584,13.77303 -22.764,14.70903 -5.169997,0.475 -9.344997,0.512 -10.989997,-6.02503 -1.948,-7.74 -10.203,-10.919 -14.899,-17.837 z m 42.749997,-39.819 c -3.106,7.484 -10.847,8.43 -18.826,13.373 3.246,-9.369 8.688,-13.594 14.687,-17.316 1.359,-0.842 2.91,-1.852 4.351,-0.457 1.413,1.369 0.395,2.935 -0.212,4.4 z m -15.152,-27.22 c -0.585,4.6 -1.145,8.881 -8.120997,9.668 -8.234,0.93 -15.992,0.377 -23.677,-1.982 -7.611,-2.336 -5.66,-8.186 -2.947,-12.582 1.842,-2.984 2.524,0.43 2.982,2.064 3.506,-4.131 8.313,-4.461 13.212,-4.521 1.464,-4.809 4.27,-8.328 9.703,-6.867 7.034997,1.891 9.721997,7.356 8.847997,14.22 z m -43.189997,48 c 1.403,-1.168 3.043,-1.014 4.329,0.148 0.906,0.818 1.466,2.021 2.181,3.055 -8.083,4.826 3.01,10.855 -0.999,15.836 -1.056,1.313 -3.342,1.646 -4.321,0.535 -2.896,-3.287 -5.62,-6.838 -5.604,-12.482 -0.372,-2.819 1.936,-5.036 4.414,-7.092 z m -7.623,51.86503 c 0.524,-5.881 4.388,-11.35903 2.033,-17.64503 -0.246,-0.658 1.032,-2.467 1.942,-2.789 0.698,-0.25 2.49,0.77 2.836,1.615 2.654,6.5 4.539,13.25603 3.985,20.33803 -0.376,4.82 -4.04,2.559 -6.492,2.436 -4.896,2.26 -4.595,-0.701 -4.304,-3.955 z m 31.957,32.904 c -3.311,-0.594 -8.066,0.502 -8.233,-4.34 -0.1,-2.939 3.626,-2.977 6.164,-2.545 3.538,0.6 8.962,-0.537 9.212,4.398 0.173,3.423 -4.637,1.716 -7.143,2.487 z m 5.962,-11.785 c -2.263,0.01 -6.026,1.043 -5.099,-3.199 0.59,-2.689 0.561,-6.697 5.266,-6.771 3.798,-0.059 4.132,3.389 6.092,5.314 -0.827,3.3 -3.187,4.644 -6.259,4.656 z m -0.264,-16.457 c -6.755,0.367 -10.533,4.779 -13.675,10.059 -4.115,7.539 -13.6,2.512 -18.908,7.844 -0.502,0.504 -3.297,-3.24 -3.274,-6.084 0.021,-3 0.98,-5.449 4.341,-4.768 5.743,1.166 6.833,-3.307 8.98,-6.639 0.075,-0.498 0.088,-0.998 0.042,-1.498 -1.858,-3.111 -2.066,-6.604 -1.938,-10.041 0.112,-2.947 -1.726,-7.48803 1.674,-8.42203 3.8,-1.043 6.83,2.098 7.772,6.29703 5.627,3.148 12.023,3.873 18.06,5.736 3.173,0.693 8.879997,-0.248 7.778997,4.379 -1.005,4.229 -6.684997,3.637 -10.852997,3.137 z m 32.842997,20.887 c -6.483,5.742 -13.559,9.156 -22.153,2.35 3.664,-1.924 8.111,-1.475 9.87,-5.545 0.244,-1.049 0.488,-2.1 0.733,-3.148 -0.097,-0.57 -0.265,-1.141 -0.253,-1.709 0.005,-0.205 0.441,-0.402 0.681,-0.604 0.146,-0.584 0.294,-1.168 0.44,-1.75 1.866,-5.193 6.2,-5.979 10.805,-5.643 4.681,0.342 2.661,4.885 4.114,7.244 3.309,5.373 -1.835,6.678 -4.237,8.805 z m -0.449,-80.24303 c -1.743,-1.305 -2.188,-2.373 -0.072,-4.385 6.485,-6.164 10.612,-14.117 15.593,-21.635 1.521,7.209 -0.658,13.705 -6.317,17.738 -5.215,3.715 -5.236,6.494 -1.455,10.729 1.696,1.9 3.032,4.117 4.664,6.08 8.931003,10.744 8.356003,13.479 -5.732,20.773 7.471,-12.745 3.304,-21.827 -6.681,-29.3 z m 12.237,74.97303 c -4.989,-1.998 -2.808,-6.811 -4.019,-9.975 -1.233,-3.223 0.374,-6.936 4.632,-6.209 3.476,0.594 8.932003,0.926 8.829003,5.75 -0.109,5.248 -5.387003,7.422 -9.442003,10.434 z m 12.319003,-35.00203 0.277,0.316 c 5.481,1.668 4.725,7.09403 6.338,10.96703 1.101,2.639 -1.263,4.404 -3.628,4.389 -4.793,-0.031 -10.139003,-0.133 -13.600003,-3.6 -3.646,-3.65 -1.837,-9.34803 -1.759,-13.83603 0.087,-4.898 6.774,-4.127 12.372003,1.764 z m 30.257,-64.789 c -3.837,0.07 -7.681,-0.213 -11.521,-0.344 -4.387,0.525 -7.483,2.957 -10.057,6.428 -1.659,2.24 -3.525,4.941 -6.955,3.41 -3.208,-1.432 -3.025,-4.447 -2.686,-7.359 -0.254,-1.037 -0.508,-2.074 -0.761,-3.113 0.719,0.041 1.438,0.084 2.156,0.125 l 0.526,-0.475 c -2.839,-6.832 0.914,-11.848 6.253,-13.83 8.175,-3.033 17.171,-1.248 25.439,0.617 2.219,0.5 4.04,6.904 4.286,10.713 0.205,3.148 -3.794,3.775 -6.68,3.828 z m 16.86401,50.256 c -3.83,5.01 -8.981,6.246 -15.25701,5.658 1.601,-6.406 7.04301,-7.904 10.76401,-11.064 1.362,-1.158 3.668,-1.707 5.127,0.172 1.357,1.75 0.533,3.707 -0.634,5.234 z m 14.425,-45.551 c 1.447,2.379 1.099,6.633 -2.214,7.305 -4.134,0.838 -3.811,-3.305 -3.553,-5.848 0.538,-5.289 -6.067,-6.57 -6.033,-11.018 0.037,-4.848 8.465,-3.119 7.936,-9 -0.009,0.004 -0.017,0.01 -0.025,0.014 -0.008,-0.023 -0.011,-0.045 -0.019,-0.068 -10.194,-8.697 -21.64001,-14.217 -35.38201,-13.895 1.653,2.48 5.357,5.438 -1.154,6.303 -8.729,1.16 -17.67,1.68 -23.889,10.305 17.312,-23.738 7.636,-50.281 9.836,-75.279 0.112,-1.279 -1.351,-2.697 -2.08,-4.051 0.087,9.299 0.295,18.6 0.204,27.896 -0.039,3.873 1.469,8.324 -4.056,10.557 -2.464,0.994 -1.064,3.805 -0.44,6.002 4.265,15.018 -1.755,27.156 -16.700003,34.582 -3.409,1.693 -6.74,3.871 -9.491,6.477 -3.28,3.107 -6.933,3.777 -10.509,2.027 -3.77,-1.848 -2.018,-5.385 -1.265,-8.512 0.64,-2.662 -1.217,-5.734 1.231,-8.166 -2.148,0.084 -4.93,-1.576 -4.357,-2.699 4.478,-8.816 -5.05,-15.111 -3.756,-23.182 0.044,-0.271 0.313,-0.641 0.563,-0.727 13.021,-4.543 12.825,-15.625 12.387,-29.045 6.388,10.826 1.504,18.668 -0.189,26.635 2.962,-0.928 5.603,-2.383 9.113,-0.988 10.558,4.197 8.871,-2.064 6.349,-8.119 -3.896,-9.35 -4.892,-19.037 -4.392,-29.02 0.162,-3.234 -0.2,-6.545 3.434,-8.277 0.555,-3.813 3.989,-7.357 1.071,-11.494 -6.301,4.533 -4.663,13.004 -9.353,19.104 -5.558,-4.869 -8.404,-11.033 -11.074,-17.32 -0.374,2.791 -0.748,5.58 -1.151,8.586 -2.791,0.432 -3.804,-4.084 -6.967,-2.879 0.05,1.238 -0.147,2.551 0.194,3.701 1.199,4.047 2.789,8.549 -1.729,11.08 -2.55,1.428 -4.166,-1.787 -5.400997,-4.078 -2.592,-4.809 -1.338,-8.604 3.000997,-11.469 0.953,-0.629 2.428,-0.469 3.662,-0.67 1.04,-3.412 -0.455,-6.461 -1.408,-9.57 -2.209,-7.205 -2.483,-13.875 5.025,-18.371 3.189,-1.91 3.175,-5.754 4.983,-9.033 4.497,5.438 3.049,9.418 -0.438,14.072 -3.396,4.533 -8.041,9.896 -0.634,15.26 -0.087,-2.336 -1.015,-4.904 1.798,-6.428 1.883,-1.309 3.765,-2.619 5.646,-3.928 8.577,-4.994 8.577,-4.994 4.715,-19.184 10.32,2.85 12.548,9.734 7.657,23.668 -0.372,2.348 -1.051,4.791 1.897,6.109 2.423,-4.131 4.845,-8.262 7.268,-12.395 2.238,-10.596 -2.229,-18.391 -10.288,-24.707 -0.755,-0.592 -1.362,-1.369 -2.072,-2.023 -3.604,-3.326 -5.304,-7.053 -3.371,-12.055 1.009,-2.611 2.294,-3.971 4.927,-2.535 4.489,2.447 12.237,0.926 12.837,8.074 0.703,8.375 6.690003,14.121 9.498003,21.637 0,-5.617 0,-11.234 0,-16.854 3.509,5.217 7.456,9.656 3.701,16.793 -2.632,5.004 2.069,10.098 4.202,14.939 2.01,-5.059 2.295,-10.32 1.886,-15.715 4.024,8.678 1.006,17.338 0.049,25.988 2.418,-2.061 4.423,-1.859 6.349,0.865 1.361,1.924 3.489,3.484 5.685,1.684 2.226,-1.824 2.512,-5.283 0.702,-6.967 -5.074,-4.727 -4.268,-10.914 -5.429,-16.711 -1.676,-8.375 3.008,-14.643 12.114,-15.58 -0.002,-0.006 -0.003,-0.012 -0.005,-0.018 0.006,0.004 0.013,0.008 0.02,0.012 -5.077,-10.049 -11.429,-9.643 -20.513,1.699 -0.497,-1.338 -1.192,-2.404 -1.257,-3.51 -0.358,-6.162 -7.598,-9.322 -6.864,-15.914 7.351,1.471 15.12,1.898 21.955,4.65 10.84,4.367 19.57701,13.057 31.30601,16.145 -8.612,1.25 -16.923,1.369 -24.62701,-3.07 0,0 0.001,0.002 0.002,0.004 -0.006,0 -0.011,0.002 -0.017,0.002 0.878,3.074 1.807,6.133 2.625,9.223 1.263,4.762 3.20501,7.611 8.72301,4.445 5.216,-2.992 9.896,-2.68 12.397,3.766 2.477,6.383 -1.594,10.193 -6.418,11.83 -6.189,2.102 -7.861,5.918 -7.553,11.627 6.872,4.518 8.875,12.523 13.409,18.715 1.338,0.18 2.129,0.9 2.254,2.277 0.289,0.197 0.604,0.332 0.944,0.406 6.889,-0.047 12.02,2.586 12.22,10.07 0.297,11.158 -4.849,17.502 -13.991,18.412 -0.334,0.182 -0.684,0.324 -1.049,0.43 2.015,3.611 0.949,5.465 -2.919,7.096 -2.311,0.975 -5.64,3.34 -4.738,6.365 1.111,3.732 4.573,1.467 7.235,1.414 6.845,-0.141 7.486,4.057 6.216,9.533 -1.108,4.773 -6.215,8.301 -4.365,13.971 0.015,0.014 0.029,0.023 0.044,0.037 0.001,0.006 -0.001,0.012 0,0.018 6.307,-2.951 4.797,-10.607 8.917,-15.063 3.865,3.406 3.104,6.814 0.209,10.061 -6.151,6.896 -11.209,13.793 -5.261,23.564 z m 10.869,1.303 c -0.208,2.174 -0.482,4.205 -2.673,4.268 -2.661,0.076 -2.196,-2.615 -2.442,-4.359 -1.515,-10.775 3.048,-19.627 13.275,-22.213 -8.609,6.569 -7.434,14.741 -8.16,22.304 z m 7.205,-32.153 c -4.694,-0.297 -8.271,-4.287 -7.954,-9.188 0.324,-5.006 3.796,-9.869 8.831,-9.646 4.731,0.211 3.886,5.988 4.798,9.824 -1.392,3.415 0.373,9.395 -5.675,9.01 z m 6.028,-31.074 c -1.538,4.662 -6.199,2.582 -10.416,2.293 1.32,-2.709 -0.209,-7.334 4.553,-6.318 1.76,0.377 7.205,-0.049 5.863,4.025 z m 0.344,-34.279 c -4.468,2.074 -5.265,-2.873 -7.043,-5.525 -2.188,-1.865 -4.373,-3.73 -6.561,-5.596 -2.957,-1.195 -4.425,-3.688 -4.915,-6.559 -0.417,-2.443 -0.944,-5.42 1.302,-7.188 2.787,-2.193 5.121,0.631 6.442,2.184 2.603,3.059 6.6,5.025 7.752,9.275 l 0.02,0.146 c 2.101,0.598 2.989,2.475 3.354,4.18 0.649,3.04 4.122,7.005 -0.351,9.083 z m 28.609,-32.004 c -2.242,3.855 -4.364,7.789 -6.346,11.783 -1.661,3.348 -0.02,9.85 -6.279,8.779 -5.398,-0.924 -3.773,-6.572 -4.286,-10.25 0.076,-10.303 5.502,-17.939 11.49,-25.137 3.203,-3.852 5.715,-2.758 7.363,2.027 1.649,4.792 0.412,8.749 -1.942,12.798 z m 5.409,-45.45 c -2.682,4.688 -5.255,-0.877 -7.574,-2.04 -3.822,-1.916 -10.188,0.342 -11.478,-5.282 -1.774,-7.739 -1.438,-15.69301 1.041,-24.40901 3.984,3.841 5.703,7.661 6.232,12.121 3.059,1.66501 6.117,3.33001 9.176,4.99501 1.339,-0.31 2.058,0.196 2.097,1.594 7.071,3.971 2.585,9.388 0.506,13.021 z m 12.634,-18.659 c -2.11,2.132 -4.584,1.849 -6.909,0.127 -9.439,-6.99101 -9.744,-13.76601 -0.675,-22.84001 2.342,5.709 1.287,12.906 8.526,16.14 2.595,1.158 0.925,4.685 -0.942,6.57301 z"
       stroke-miterlimit="10"
       clip-rule="evenodd"
       inkscape:connector-curvature="0"
       style="fill:#e86225;fill-rule:evenodd;stroke:#000000;stroke-width:1;stroke-miterlimit:10" />
  </g>
</svg>
