<?xml version="1.0" encoding="UTF-8" standalone="no"?>
<!-- Created with Inkscape (http://www.inkscape.org/) -->

<svg
   xmlns:dc="http://purl.org/dc/elements/1.1/"
   xmlns:cc="http://creativecommons.org/ns#"
   xmlns:rdf="http://www.w3.org/1999/02/22-rdf-syntax-ns#"
   xmlns:svg="http://www.w3.org/2000/svg"
   xmlns="http://www.w3.org/2000/svg"
   xmlns:sodipodi="http://sodipodi.sourceforge.net/DTD/sodipodi-0.dtd"
   xmlns:inkscape="http://www.inkscape.org/namespaces/inkscape"
   id="svg3239"
   version="1.1"
   inkscape:version="0.48.4 r9939"
   sodipodi:docname="occipital_right.svg">
  <defs
     id="defs3241" />
  <sodipodi:namedview
     id="base"
     pagecolor="#ffffff"
     bordercolor="#ffffff"
     borderopacity="0.0"
     inkscape:pageopacity="0.0"
     inkscape:pageshadow="0"
     inkscape:zoom="0.35"
     inkscape:cx="350"
     inkscape:cy="520"
     inkscape:document-units="px"
     inkscape:current-layer="layer1"
     showgrid="false"
     inkscape:window-width="1920"
     inkscape:window-height="1018"
     inkscape:window-x="1392"
     inkscape:window-y="-8"
     inkscape:window-maximized="1" />
  <metadata
     id="metadata3244">
    <rdf:RDF>
      <cc:Work
         rdf:about="">
        <dc:format>image/svg+xml</dc:format>
        <dc:type
           rdf:resource="http://purl.org/dc/dcmitype/StillImage" />
        <dc:title></dc:title>
      </cc:Work>
    </rdf:RDF>
  </metadata>
  <g
     inkscape:label="Layer 1"
     inkscape:groupmode="layer"
     id="layer1">
    <path
       style="fill:#42a24a;fill-rule:evenodd;stroke:#000000;stroke-miterlimit:10"
       inkscape:connector-curvature="0"
       clip-rule="evenodd"
       stroke-miterlimit="10"
       d="m 78.384186,421.13657 c -5.776,-1.669 -7.258,-6.789 -8.77,-11.542 -6.139,-19.306 -10.102,-21.937 -30.948,-19.929 -5.789,0.559 -11.459,0.447 -16.213,-3.657 2.346,-9.583 7.019,-17.313 16.734,-21.03 7.098,6.732 13.146,6.093 26.387,-2.795 1.727,-0.903 3.458,-1.803 5.189,-2.704 1.496,-0.444 4.407,0.891 4.094,-1.544 -0.162,-1.26 -3.32,-0.824 -4.889,0.645 -2.1,0.116 -4.156,0.342 -5.598,2.161 -3.547,1.384 -7.072,2.823 -10.645,4.136 -4.1,1.506 -10.543,0.986 -8.422,-3.979 3.125,-7.314 17.6,-11.844 26.072,-18.231 5.799,-4.374 -0.379,-5.639 -4.436,-5.841 9.141,-15.86 21.635,-28.902 34.802004,-41.378 3.749,-0.561 7.569,-0.846 11.228,-1.767 3.104,-0.782 5.863,1.133 8.016,-5.056 0.504,-1.45 2.307,-2.544 3.517,-5.033 2.424,-4.983 6.927,-9.333 13.5,-9.646 4.003,0.533 6.497,-1.238 9.919,-3.825 1.189,-0.898 4.208,-1.428 5.672,-1.835 1.658,-0.461 7.185,-8.686 9.701,-9.719 10.482,-4.304 23.137,-3.002 33.998,0.239 0.826,0.247 1.076,0.694 2.996,1.714 0.786,0.418 9.414,24.221 9.414,24.222 -0.632,3.267 0.422,4.722 1.959,7.846 2.489,5.059 4.359,16.407 4.089,21.993 -0.608,12.551 0.406,24.529 1.094,36.774 0.261,4.626 0.217,8.567 -6.235,7.172 -0.795,-0.51 -1.587,-1.024 -2.38,-1.538 -0.856,-1.197 -2.111,-2.96 -3.345,-1.381 -1.422,1.822 0.984,2.095 2.128,2.711 0.828,0.422 1.655,0.855 2.482,1.287 5.134,2.111 9.34,4.525 7.688,11.516 -1.575,6.668 -5.895,7.221 -11.729,9.445 -10.753,4.102 -22.332,1.814 -32.595,6.643 -1.976,0.93 -4.664,1.977 -6.479,1.36 -17.417,-5.901 -27.364,5.624 -37.998,15.771 -0.873,0.834 -2.232,1.16 -3.363,1.703 4.398,-9.065 9.27,-17.757 19.277,-23.715 -14.149,-1.061 -20.286,6.176 -23.717,17.035 -0.566,1.791 -1.787,3.376 -2.706,5.057 -5.212,6.418 -12.749,10.708 -17.398,21.617 -0.278,-6.406 -2.603004,-8.463 -4.521004,-10.867 -1.951,-2.447 -3.245,-5.418 -4.826,-8.158 -3.727,-6.912 -4.991,-13.536 1.965,-19.417 1.088,-0.922 2.447,-2.275 0.172,-3.674 -2.073,-1.274 -5.43,-2.01 -5.703,0.185 -0.878,7.053 -4.965,2.971 -7.916,2.918 2.072,-2.728 4.6,-5.279 4.309,-9.057 -0.036,-0.463 -1.563,-1.312 -2.188,-1.15 -4.23,1.084 -5.428,4.963 -7.109,8.295 -0.895,1.771 -0.754,3.69 0.328,5.447 -5.369,5.887 5.289,7.316 3.439,11.215 -3.177,6.711 0.682,12.947 -0.04,19.361 z m 125.699004,-90.958 c -0.33,-0.3 -0.662,-0.6 -0.994,-0.9 0.024,0.228 -0.036,0.548 0.09,0.661 0.203,0.184 0.53,0.231 0.805,0.337 1.142,2.43 3.093,3.697 5.725,3.987 0.86,0.85 1.721,1.7 2.582,2.55 0.291,-0.4 0.581,-0.802 0.872,-1.203 -0.96,-0.69 -1.919,-1.381 -2.877,-2.072 -1.29,-2.555 -3.182,-4 -6.203,-3.36 z m -24.243,-29.791 c 4.775,4.141 1.371,5.142 -2.317,6.031 -4.669,-2.161 -9.183,-1.237 -14.614,0.48 4.226,2.576 7.533,4.736 11.838,2.965 5.817,8.686 13.435,8.25 21.746,4.294 0.266,2.38 1.813,3.613 3.29,1.557 1.479,-2.058 1.356,-4.796 -2.554,-4.722 -0.502,-1.546 -1.006,-3.093 -1.508,-4.639 3.105,-9.229 -5.778,-10.693 -10.041,-14.819 -3.954,-3.826 -8.532,-0.519 -10.605,2.582 -2.773,4.15 3.092,4.127 4.765,6.271 z m -30.533,42.024 c -7.355,-2.127 -10.014,3.933 -13.773,7.983 -1.026,1.106 -0.578,2.377 0.607,3.24 3.92,2.859 7.221,0.172 10.697,-1.16 0.206,-0.078 0.77,0.778 1.113,1.143 0.93,3.911 -4.73,5.074 -3.695,9.342 8.025,-0.697 15.863,-0.543 22.817,4.122 -5.808,1.247 -12.478,-3.083 -18.604,3.114 5.766,0.158 10.511,-0.697 13.065,5.839 1.201,3.071 8.032,4.521 11.364,2.507 4.484,-2.71 -1.252,-5.793 -1.7,-8.9 7.853,-0.883 6.054,8.282 13.168,12.471 -4.169,-7.648 2.806,-13.502 -1.32,-18.264 -3.456,-3.99 -11.202,-0.377 -15.909,-5.785 3.471,-0.668 7.274,-0.236 8.835,-1.904 6.028,-6.449 12.765,-11.601 20.473,-15.929 2.632,-1.478 2.393,-6.199 -1.554,-7.698 -12.986,-4.929 -25.469,-12.489 -40.35,-9.004 3.344,1.35 6.639,2.507 9.779,3.988 4.702,2.215 3.21,4.667 0.027,7.023 -5.944,0.843 -11.745,1.962 -15.04,7.872 z m 36.378,-73.655 c 2.778,0.754 3.815,3.753 5.755,5.731 1.5,1.529 0.195,6.19 4.361,4.572 3.318,-1.29 3.246,-4.656 2.052,-7.463 -2.572,-6.044 -4.97,-12.953 -13.646,-6.54 -2.032,1.5 -4.294,1.407 -6.296,0.019 -3.293,-2.282 -7.145,-4.736 -10.351,-1.416 -3.224,3.34 3.911,3.066 3.495,7.112 -0.714,6.934 3.234,5.489 6.857,2.289 2.182,-1.928 4.402,-3.714 7.773,-4.304 z m -78.663,66.924 c -3.594,-2.723 -1.217,-10.818 -7.697004,-10.813 -4.17,0.002 -10.279,2.001 -9.749,8.271 0.585,6.925 7.28,7.02 12.196004,8.183 3.082,0.728 5.316,-1.485 5.25,-5.641 z m 21.559,6.183 c -3.191,5.874 -10.391,9.25 -12.816,16.299 -0.829,2.409 -0.364,6.084 2.216,7.932 1.354,0.969 5.025,3.266 5.044,-0.717 0.034,-8.037 4.489,-13.711 8.541,-19.771 1.583,-2.368 0.628,-3.519 -2.985,-3.743 z m 17.583,-55.845 c -1.769,-1.429 2.293,-6.216 -2.338,-6.131 -4.509,0.082 -10.931,0.539 -12.427,5.226 -1.688,5.282 3.569,1.726 5.648,2.422 0.83,0.279 1.67,0.815 2.26,1.458 1.564,1.705 -0.537,6.913 4.235,5.275 3.074,-1.056 2.259,-4.869 2.622,-8.25 z m -89.482004,96.493 c 2.862,-0.014 6.779,-0.641 7.327,-5.293 0.337,-2.853 -2.536,-2.26 -4.138,-2.01 -3.326,0.52 -7.306,1.037 -8.595,4.412 -0.723,1.895 1.594,3.901 5.406,2.891 z m 152.144004,-77.382 c 0.846,-9.229 -3.774,-13.271 -7.488,-17.791 -1.35,-1.642 -2.193,-4.968 -4.769,-3.266 -2.484,1.643 -0.734,4.877 0.496,6.647 3.023,4.346 6.664,8.265 11.761,14.41 z m -99.011,62.644 c -3.557,-4.397 -7.939,-5.539 -12.766004,-4.657 -3.677,0.673 -4.154,3.749 -3.154,6.735 0.74,2.214 3.908,2.767 4.486,1.176 2.340004,-6.436 7.261004,-0.23 11.434004,-3.254 z m 46.135,-93.531 c -7.83,3.785 -8.941,10.312 -7.865,19.136 5.492,-6.1 5.541,-13.067 7.865,-19.136 z m -48.303,124.244 c -3.843,2.594 -8.670004,4.374 -9.034004,9.748 -0.099,1.461 1.781004,2.936 3.474004,2.33 5.512,-1.97 4.215,-7.621 5.56,-12.078 z m 88.014,-27.479 c 1.807,-0.342 4.319,-1.769 4.64,-4.948 0.304,-3.026 -2.171,-3.297 -4.511,-3.166 -3.152,0.176 -5.514,1.438 -5.704,4.918 -0.167,3.03 1.877,3.552 5.575,3.196 z m -30.93,-94.466 c -3.012,3.036 -4.906,5.324 -4,9.22 3.531,-2.045 4.62,-4.667 4,-9.22 z m -5.284,10.943 c -3.642,3.295 -3.86,5.518 -2.215,7.904 0.168,0.243 0.993,0.032 1.832,0.032 0.108,-2.231 0.211,-4.371 0.383,-7.936 z"
       id="path3220" />
  </g>
</svg>
