<?xml version="1.0" encoding="UTF-8" standalone="no"?>
<!-- Created with Inkscape (http://www.inkscape.org/) -->

<svg
   xmlns:dc="http://purl.org/dc/elements/1.1/"
   xmlns:cc="http://creativecommons.org/ns#"
   xmlns:rdf="http://www.w3.org/1999/02/22-rdf-syntax-ns#"
   xmlns:svg="http://www.w3.org/2000/svg"
   xmlns="http://www.w3.org/2000/svg"
   xmlns:sodipodi="http://sodipodi.sourceforge.net/DTD/sodipodi-0.dtd"
   xmlns:inkscape="http://www.inkscape.org/namespaces/inkscape"
   id="svg3239"
   version="1.1"
   inkscape:version="0.48.4 r9939"
   sodipodi:docname="occipital_right_active.svg">
  <defs
     id="defs3241" />
  <sodipodi:namedview
     id="base"
     pagecolor="#ffffff"
     bordercolor="#ffffff"
     borderopacity="0.0"
     inkscape:pageopacity="0.0"
     inkscape:pageshadow="0"
     inkscape:zoom="0.35"
     inkscape:cx="-197.14286"
     inkscape:cy="520"
     inkscape:document-units="px"
     inkscape:current-layer="layer1"
     showgrid="false"
     inkscape:window-width="1400"
     inkscape:window-height="1028"
     inkscape:window-x="-8"
     inkscape:window-y="22"
     inkscape:window-maximized="1" />
  <metadata
     id="metadata3244">
    <rdf:RDF>
      <cc:Work
         rdf:about="">
        <dc:format>image/svg+xml</dc:format>
        <dc:type
           rdf:resource="http://purl.org/dc/dcmitype/StillImage" />
        <dc:title />
      </cc:Work>
    </rdf:RDF>
  </metadata>
  <g
     inkscape:label="Layer 1"
     inkscape:groupmode="layer"
     id="layer1">
    <path
       style="fill:#cdeacf;fill-rule:evenodd;stroke:#000000;stroke-miterlimit:10;fill-opacity:1"
       inkscape:connector-curvature="0"
       clip-rule="evenodd"
       stroke-miterlimit="10"
       d="m 591.97952,316.94736 c -1.064,7.938 -0.463,15.771 2.682,23.277 1.091,2.602 2.873,4.155 5.624,5.074 4.957,1.657 9.215,4.619 12.609,8.584 2.441,2.852 1.202,6.314 -0.503,8.649 -2.271,3.111 -4.467,6.217 -6.124,9.667 -3.348,6.969 -9.643,10.447 -16.133,13.549 -3.981,1.901 -8.263,3.166 -12.621,4.08 -1.636,0.342 -4.001,1.053 -3.786,2.678 0.216,1.629 2.68,1.461 4.312,1.455 5.146,-0.019 10.342,0.603 15.415,-0.626 5.818,-1.407 9.911,-4.308 12.62,-10.34 2.99,-6.657 6.032,-13.585 11.03,-19.181 4.251,-4.76 7.688,-4.5 12.526,-0.375 5.719,4.875 11.818,9.311 17.838,13.822 1.929,1.445 3.755,2.958 5.466,4.646 2.894,2.856 5.656,5.826 9.23,7.957 2.909,1.734 4.569,4.754 6.385,7.538 0.055,0.156 0.121,0.308 0.198,0.454 -0.48,0.142 -0.948,0.52 -1.439,0.426 -0.621,-0.119 -0.682,-0.111 -1.223,0.232 -0.544,0.346 -1.423,0.542 -1.934,0.145 -0.757,-0.588 -0.786,-0.854 -1.678,-1.241 -0.473,-0.205 -0.724,-0.775 -0.893,-1.261 -0.44,-1.269 -0.836,-0.985 -1.929,-1.156 -0.594,-0.093 -0.993,-0.675 -1.494,-1.014 -2.293,-2.737 -4.942,-3.048 -8.626,-0.738 -2.017,1.264 -3.822,2.86 -5.743,4.282 -0.553,0.409 -1.114,1.097 -1.893,0.657 -0.746,-0.42 -0.563,-1.217 -0.48,-1.932 0.415,-3.568 -3.198,-10.555 -6.237,-12.16 -0.773,-0.409 -1.597,-0.988 -2.105,0.119 -1.421,3.098 -4.271,5.265 -5.451,8.504 -2.555,2.119 -3.625,5.258 -5.377,7.92 -4.23,6.428 -7.825,13.3 -13.454,18.721 -2.627,1.342 -3.416,7.801 -1.139,9.576 1.296,1.012 1.978,-0.14 2.563,-0.967 3.465,-4.896 3.82,-4.945 8.389,-1.148 0.693,0.576 1.311,1.47 2.449,1.216 1.47,4.149 1.256,4.546 -2.506,4.647 -0.169,-1.176 -1.007,-1.277 -1.855,-0.979 -0.858,0.303 -1.359,0.964 -0.944,1.971 -1.404,2.348 -0.772,4.461 1.068,6.125 1.963,1.777 3.865,0.766 5.871,-0.393 4.117,-2.383 5.806,-5.803 5.23,-10.461 -0.219,-1.773 -0.345,-3.559 -0.514,-5.34 1.255,-2.556 2.509,-5.112 3.762,-7.666 2.657,-1.318 5.92,-0.763 8.38,-2.701 2.139,-1.012 2.063,-3.009 2.142,-4.906 0.074,-1.801 0.801,-3.111 2.719,-3.111 4.15,0 7.537,-2.146 11.048,-3.848 2.288,-1.107 4.44,-1.61 6.828,-0.621 -0.302,0.662 -0.605,1.332 -0.907,2 -5.913,3.354 -11.228,7.023 -15.605,12.705 -5.964,7.742 -10.771,16.029 -15.441,24.488 -1.336,2.422 -2.248,5.006 -2.871,7.725 -0.533,2.33 -1.451,4.461 -3.576,6.013 -2.657,1.94 -4.908,2.522 -7.559,-0.097 -1.874,-1.854 -4.38,-2.914 -6.961,-3.614 -7.14,-1.936 -11.891,-6.319 -14.17,-13.436 -1.389,-4.335 -3.144,-8.551 -4.563,-12.876 -1.396,-4.256 -5.136,-5.375 -8.68,-6.007 -3.164,-0.565 -6.062,1.325 -7.982,3.935 -3.277,4.453 -5.715,9.424 -7.526,14.619 -2.799,8.033 -5.698,15.841 -12.102,21.988 -3.272,3.14 -1.635,7.381 2.615,8.752 2.767,0.894 5.322,2.1 6.282,5.316 0.281,0.941 1.312,1.676 2.049,2.457 0.962,1.021 2.065,1.123 3.23,0.33 1.186,-0.807 0.861,-1.86 0.406,-2.881 -1.024,-2.297 -2.083,-4.577 -3.139,-6.859 -2.3,-4.967 -2.237,-9.923 -0.062,-14.923 2.958,-6.8 5.921,-13.601 8.736,-20.462 0.774,-1.887 2.142,-3.137 3.493,-4.479 2.934,-2.917 4.219,-2.507 6.553,1.042 2.592,3.943 2.139,8.44 2.229,12.554 0.208,9.492 5.025,14.373 13.608,16.918 5.838,1.731 11.461,4.174 17.229,6.157 4.512,1.55 6.295,4.737 6.393,9.311 0.199,9.338 -0.16,18.682 1.278,27.989 1.073,6.942 3.616,13.116 7.81,18.659 3.384,4.474 4.327,9.527 3.58,14.934 -0.963,6.961 -2.316,13.871 -1.981,20.959 0.102,2.162 0.184,4.307 0.755,6.411 2.162,7.976 0.72,12.899 -7.03,15.319 -3.8,1.186 -6.24,5.102 -10.624,5.411 -7.327,0.519 -12.877,-2.822 -17.683,-7.818 -7.338,-7.628 -16.364,-12.005 -26.699,-13.53 -3.244,-0.479 -6.671,0.253 -10.012,0.461 -7.052,0.439 -12.667,-2.906 -18.017,-6.876 -2.551,-1.894 -2.829,-4.439 -2.053,-7.413 1.649,-6.316 2.244,-12.729 0.988,-19.213 -0.159,-0.818 -0.312,-1.671 -0.667,-2.41 -0.671,-1.391 -1.508,-3.229 -3.187,-2.902 -1.771,0.344 -1.21,2.376 -1.187,3.721 0.159,9.271 -3.553,17.216 -8.468,24.715 -1.21,1.844 -1.402,3.193 0.478,4.58 0.562,0.414 1.095,0.992 1.396,1.614 1.581,3.259 3.094,5.007 6.455,1.368 1.837,-1.987 8.169,1.969 7.989,4.998 -0.18,3.013 0.965,3.681 3.568,2.837 1.412,-0.458 2.882,-0.534 4.269,-0.163 4.813,1.285 9.696,1.399 14.624,1.2 7.966,-0.321 14.923,3.123 21.851,6.289 4.493,2.054 5.946,7.395 9.682,10.45 0.873,0.715 0.082,1.705 -0.55,2.508 -4.739,6.019 -4.478,12.99 0.64,18.341 0.245,0.256 0.455,0.548 0.658,0.839 0.708,1.012 0.643,2.765 2.376,2.781 0.83,0.008 1.145,-0.847 1.131,-1.588 -0.029,-1.614 0.751,-3.697 -1.086,-4.598 -4.257,-2.083 -2.252,-4.696 -0.924,-7.339 1.301,-0.353 2.602,-0.706 3.902,-1.059 -0.401,2.974 5.177,7.223 6.489,8.722 2.462,2.811 3.051,4.561 5.847,5.489 0.405,0.2 0.813,0.4 1.219,0.601 2.109,2.186 3.697,5.752 7.707,2.914 0.63,0.191 1.669,0.188 0.899,1.266 -1.044,1.461 -2.526,1.999 -4.34,2.067 -1.617,0.061 -3.362,-0.554 -4.849,0.673 -2.072,1.714 -4.405,1.456 -6.785,0.834 -4.213,-1.1 -8.747,-0.53 -12.649,0.111 -4.116,0.676 -8.208,0.938 -12.324,1.324 -3.426,0.322 -7.203,-0.366 -10.194,1.321 -6.493,3.664 -13.318,5.171 -20.619,4.459 -4.557,-0.443 -8.488,0.22 -11.767,3.756 -2.433,2.623 -5.585,3.747 -9.24,4.132 -6.939,0.729 -13.891,1.303 -20.558,-0.981 -4.999,-1.713 -10.059,-3.348 -14.232,-7.134 -5.113,-4.637 -9.317,-10.201 -15.271,-14.021 -7.018,-4.501 -12.002,-11.081 -15.727,-18.446 -2.641,-5.222 -5.052,-10.645 -6.787,-16.22 -2.429,-7.798 -4.867,-15.675 -3.992,-24.104 0.37,-3.563 0.107,-7.189 0.193,-10.785 0.137,-5.764 -0.713,-11.493 2.604,-17 3.612,-5.996 6.004,-12.754 11.615,-17.388 2.576,-2.128 4.073,-4.441 3.315,-8.075 -0.449,-2.16 -0.026,-4.529 0.16,-6.791 0.691,-8.404 3.294,-16.318 5.711,-24.357 2.453,-8.16 6.892,-14.869 11.952,-21.403 2.482,-3.206 5.423,-6.116 6.804,-10.06 1.54,-4.392 3.009,-8.762 5.269,-12.912 1.391,-2.551 4.374,-8.528 4.499,-9.335 0.564,-3.643 4.646,-5.729 6.97,-8.597 2.565,-0.275 3.049,-2.418 3.84,-4.279 1.806,-1.741 3.619,-3.479 5.42,-5.231 0.866,-0.843 1.844,-1.741 1.72,-3.031 -0.412,-4.298 1.503,-8.204 1.927,-12.37 1.088,-10.693 4.983,-20.464 11.064,-29.208 4.697,-6.753 10.809,-12.394 16.182,-18.618 6.551,-7.587 13.413,-14.854 20.767,-21.643 7.74,-7.145 17.404,-11.717 25.379,-18.594 1.367,-1.18 3.151,-2.282 5.28,-1.801 -1.514,1.791 -4.315,1.92 -5.395,4.381 -1.338,3.053 -3.604,5.555 -5.369,8.349 -1.731,2.739 -4.54,4.961 -4.631,8.599 -3.34,1.455 -2.991,4.773 -3.347,7.429 z m 13.507,163.192 c 0.494,-0.5 0.989,-1 1.484,-1.5 3.711,-1.314 5.84,-4.238 7.322,-7.615 1.15,-2.621 -0.228,-4.912 -3.332,-6.225 -1.11,-1.244 -2.224,-2.484 -4.054,-2.611 -0.015,-1.172 -0.299,-1.949 -1.717,-2.243 -3.749,-0.776 -7.499,-1.472 -11.33,-1.669 -1.625,-0.084 -3.206,0.213 -4.291,1.433 -2.064,2.321 -3.63,1.362 -5.341,-0.435 -2.781,-2.922 -6.397,-5.054 -8.228,-8.883 -0.345,-0.722 -1.067,-1.412 -2.024,-1.149 -0.322,0.089 -0.689,0.687 -0.719,1.077 -0.481,6.266 -2.191,12.58 0.597,18.737 0.185,0.407 0.536,0.739 0.811,1.106 0.159,0.648 0.318,1.299 0.479,1.949 -0.184,2.061 1.296,2.88 2.771,3.702 0.303,0.423 0.606,0.845 0.909,1.267 1.373,6.024 -0.957,9.248 -7.529,9.871 -3.317,0.315 -6.686,0.176 -9.439,-2.35 -1.849,-1.693 -3.93,-3.127 -5.821,-4.775 -1.225,-1.068 -2.692,-2.412 -4.01,-1.077 -1.251,1.269 1.004,2.043 1.456,3.171 2.145,5.334 7.164,7.932 11.117,11.544 2.021,1.847 4.22,0.556 6.139,0.042 3.94,-1.055 8.143,1.041 12.015,-1.782 5.524,-4.028 10.724,-7.899 11.362,-15.537 0.234,-2.79 2.433,-4.606 5.396,-4.922 1.419,-0.151 2.865,-0.047 4.299,-0.058 l 0.157,0.174 c 0.038,0.614 0.075,1.229 0.112,1.842 -0.154,0.213 -0.309,0.425 -0.464,0.637 -0.949,0.098 -1.731,0.372 -1.641,1.563 -0.658,0.691 -1.316,1.383 -1.975,2.073 -2.2,1.483 -2.876,3.923 -1.183,5.534 1.612,1.533 3.962,0.713 5.159,-1.595 l 0.195,-0.161 c 0.811,0.052 1.263,-0.31 1.318,-1.135 z m -94.348,2.944 c -2.847,-4.028 -5.469,-7.907 -11.411,-8.112 -4.832,-0.167 -8.23,0.562 -10.482,4.848 -2.464,4.689 -1.217,12.913 4.241,15.266 5.018,2.162 5.283,2.168 8.961,-2.364 1.756,-2.165 2.971,-5.634 6.971,-4.539 0.418,0.218 0.836,0.434 1.254,0.651 -0.215,0.836 0.104,1.011 0.837,0.676 0.7,0.303 1.401,0.605 2.103,0.909 2.911,-0.624 3.097,-1.077 1.543,-3.762 -1.121,-1.437 -2.276,-2.834 -4.017,-3.573 z m -45.398,53.823 c 0.411,-0.919 0.431,-1.873 0.264,-2.846 2.837,-6.844 3.54,-10.459 3.023,-16.23 -3.544,2.586 -3.621,6.489 -4.73,9.869 -2.294,4.154 -1.698,8.578 -1.213,12.993 -0.438,2.45 -0.385,4.813 1.279,7.792 0.907,-3.127 1.73,-5.395 0.968,-7.898 0.119,-0.918 0.238,-1.838 0.356,-2.756 0.637,-0.273 0.534,-0.588 0.053,-0.924 z m 77.798,-91.07 c -0.502,1.69 -2.165,3.904 0.317,4.992 2.286,1.003 4.902,3.203 7.446,-0.286 1.809,-2.479 3.143,-5.094 4.217,-7.906 0.16,-0.633 0.322,-1.265 0.484,-1.897 0.844,-1.918 1.717,-3.824 2.523,-5.76 0.536,-1.285 0.126,-2.465 -1.034,-3.061 -1.376,-0.704 -2.654,-1.342 -3.57,-2.709 -0.688,-1.025 -1.831,-0.641 -2.381,0.232 -0.987,1.568 -2.754,2.633 -3.04,4.65 -1.327,3.059 -3.272,5.864 -3.773,9.259 -0.921,0.57 -0.935,1.633 -1.189,2.486 z m -4.39,-59.224 c -0.658,2.132 -0.886,2.726 0.269,3.391 2.254,1.297 1.646,2.811 0.971,4.573 -3.274,8.56 -6.053,17.315 -10.111,25.567 -0.356,0.724 -0.413,1.63 -0.469,2.461 -0.331,4.898 -1.921,9.332 -4.742,13.347 -0.468,0.665 -1.091,1.519 -0.447,2.293 0.702,0.844 1.793,0.665 2.655,0.218 0.948,-0.492 2.007,-1.033 2.627,-1.85 5.167,-6.785 11.222,-12.998 11.4,-22.501 0.094,-4.974 1.507,-9.925 2.368,-14.878 0.501,-2.877 0.864,-5.623 -1.244,-8.184 -1.544,-1.876 -0.321,-3.852 0.418,-5.747 0.663,-1.696 1.526,-2.991 1.206,-5.294 -0.102,-0.734 1.944,-4.235 2.381,-5.824 0.621,-2.261 2.955,-6.348 3.084,-6.679 0.051,-0.13 2.889,-6.311 3.179,-7.132 1.274,-3.607 2.239,-7.325 3.002,-11.158 -2.021,1.795 -2.503,4.797 -5.132,5.948 1.596,-3.696 2.878,-7.534 5.268,-10.844 0.615,-0.853 1.465,-1.97 0.079,-2.716 -1.079,-0.582 -1.578,0.525 -2.133,1.346 -2.322,3.432 -4.546,6.951 -7.131,10.178 -2.339,2.92 -3.436,6.384 -4.233,9.772 -1.001,4.253 -2.729,8.397 -2.652,12.934 1.35,-3.487 3.14,-6.707 5.233,-9.761 -0.51,4.93 -1.101,9.982 -3.768,14.197 -1.052,1.662 -1.851,5.605 -2.078,6.343 z m -28.645,219.769 c -1.472,-2.952 -3.209,-5.76 -4.695,-8.71 -0.897,-1.783 -3.059,-1.783 -4.477,0.07 -2.647,3.46 -2.714,13.21 -0.132,16.861 0.214,0.303 0.822,0.325 1.248,0.478 0.482,1.033 1.227,1.811 2.259,2.307 2.186,3.871 10.834,5.715 14.141,3.012 0.611,-0.5 0.816,-1.156 0.707,-1.921 -0.19,-1.327 -6.189,-8.833 -7.647,-9.575 -0.468,-0.841 -0.937,-1.682 -1.404,-2.522 z m 75.426,-264.781 c -0.645,-1.349 -0.153,-2.848 0.272,-4.451 1.065,-4.005 -0.814,-7.923 -2.038,-11.646 -0.745,-2.265 -3.088,-1.276 -4.274,0.33 -1.617,2.19 -3.186,4.476 -4.359,6.92 -1.537,3.2 -2.618,6.616 -4.684,9.565 -0.666,0.95 -0.83,2.041 -0.02,2.979 0.925,1.071 1.948,0.422 2.92,-0.033 0.107,-0.05 0.21,-0.114 0.318,-0.162 1.146,-0.498 2.324,-1.95 3.526,-0.896 1.508,1.324 -1.38,4.73 -1.722,5.431 -0.759,1.556 -1.152,2.396 -0.398,3.458 0.946,1.335 2.573,2.033 4.14,1.459 1.631,-0.598 2.46,-0.311 2.885,1.316 -0.765,1.58 -2.129,2.504 -3.566,3.406 -1.628,1.021 -2.043,2.637 -1.485,4.392 0.6,1.888 2.14,2.474 3.976,2.306 2.641,-0.24 4.654,-1.356 6.1,-3.766 1.759,-2.935 3.006,-6.127 5.203,-8.873 1.785,-2.23 0.238,-4.742 -1.567,-6.289 -1.274,-1.092 -3.013,-1.934 -3.427,-3.516 -0.251,-0.953 -1.639,-1.594 -1.8,-1.93 z m -5.607,240.485 c 1.934,-1.969 5.455,-3.767 3.372,-6.935 -1.599,-2.43 -4.748,-1.032 -7.194,-0.063 -1.378,0.547 -2.531,0.486 -3.396,-0.94 -1.267,-2.085 -2.637,-2.844 -4.82,-0.812 -0.958,0.891 -2.637,1.009 -3.988,1.478 -3.041,-2.354 -5.217,-1.899 -6.515,1.362 -2.5,6.284 -0.955,8.924 5.819,9.946 2.8,2.327 6.05,2.737 9.515,2.233 1.507,0.799 3.385,0.475 3.38,-1.021 -0.01,-2.624 2.028,-3.352 3.229,-4.861 0.201,-0.126 0.435,-0.222 0.598,-0.387 z m 26.026,-168.778 c 4.962,-2.543 9.192,-5.779 10.21,-11.699 0.444,-2.588 2.253,-3.792 3.895,-5.753 0.485,-0.58 0.984,-2.107 1.222,-2.313 1.268,-1.105 1.179,-4.255 1.558,-4.855 1.459,-2.311 1.703,-3.729 0.036,-5.611 -0.027,-2.44 -0.635,-4.658 -3.337,-5.229 -2.758,-0.581 -4.293,1.438 -5.161,3.533 -1.115,2.696 -3.065,4.809 -4.443,7.309 -1.078,1.959 -1.608,3.893 -1.703,6.087 -0.051,1.202 -0.476,3.45 -2.032,2.436 -3.375,-2.199 -4.606,0.58 -6.502,2.036 -3.995,1.252 -7.998,2.48 -11.978,3.777 -0.854,0.277 -1.96,0.515 -1.876,1.783 0.067,0.998 0.879,1.322 1.714,1.539 3.349,0.866 5.99,3.195 9.158,4.435 1.45,0.975 2.535,2.575 4.518,2.642 1.64,2.731 3.212,2.593 4.721,-0.117 z m -12.466,144.456 c 2.481,3.632 5.518,3.888 7.716,0.409 0.834,-1.32 1.771,-1.364 2.959,-1.424 0.858,-0.045 1.778,-0.151 1.921,-1.213 0.134,-0.984 -0.654,-1.58 -1.392,-1.896 -2.398,-1.032 -4.811,-2.062 -7.294,-2.853 -2.105,-0.67 -3.381,-2.19 -4.641,-3.784 -0.424,-0.537 -0.982,-1.283 -0.453,-1.941 0.734,-0.916 1.668,-0.215 2.205,0.264 2.035,1.811 4.367,2.278 7.001,2.121 1.671,-0.1 2.883,-0.578 2.883,-2.404 -10e-4,-2.539 1.251,-3.379 3.632,-3.152 1.388,0.132 2.902,-0.118 2.833,-1.896 -0.067,-1.732 -1.7,-1.255 -2.813,-1.401 -2.127,-0.281 -4.307,-0.34 -6.301,-1.228 -0.487,-0.217 -1.039,-0.724 -1.169,-1.204 -0.195,-0.717 0.604,-0.931 1.115,-1.181 1.125,-0.553 3.063,-0.229 3.213,-1.787 0.188,-1.945 -2.125,-1.476 -3.167,-2.333 -0.979,-0.807 -2.092,-1.684 -3.571,-1.154 -4.208,-2.18 -8.337,-4.537 -12.653,-6.474 -2.522,-1.132 -5.345,-1.597 -8.032,-2.36 -2.771,-1.688 -5.978,-2.107 -8.868,-1.326 -5.838,1.577 -2.348,7.508 -4.405,11.105 -1.053,1.842 1.923,3.133 3.977,3.58 1.157,0.253 2.358,0.334 3.545,0.418 1.613,0.113 2.742,0.967 2.145,2.512 -1.306,3.373 0.39,6.602 0.13,9.926 -0.179,2.27 1.453,3.738 3.762,4.032 2.106,0.269 4.239,0.343 6.359,0.502 3.135,2.026 5.765,4.821 9.363,6.142 z m -125.094,-5.521 c -0.056,0.95 -0.113,2.172 0.926,2.525 1.291,0.439 1.822,-0.814 2.406,-1.689 5.089,-7.629 10.332,-15.161 15.199,-22.929 4.111,-6.56 7.919,-13.276 13.712,-18.601 1.95,-1.791 3.804,-3.375 6.49,-4.133 6.414,-1.812 13.035,-2.919 19.219,-5.534 1.37,-0.579 2.823,-0.578 4.239,-0.147 8.61,2.625 17.592,3.637 26.252,5.988 5.861,1.592 11.777,3.111 17.359,5.584 1.379,0.61 2.785,0.607 4.19,0.84 6.891,1.139 13.657,2.61 19.374,7.02 0.92,0.71 2.011,1.643 3.248,0.878 1.078,-0.667 0.682,-1.948 0.642,-2.989 -0.069,-1.797 -0.208,-3.574 -0.851,-5.303 -1.125,-3.029 -1.147,-6.078 0.15,-9.096 0.533,-1.237 1.056,-2.721 -0.111,-3.67 -1.137,-0.924 -2.446,-0.234 -3.618,0.559 -12.252,8.297 -24.839,8.336 -37.157,0.392 -4.416,-2.848 -9.101,-5.292 -14.211,-6.723 -1.802,-0.505 -3.146,-1.692 -4.67,-2.628 -0.889,-0.547 -1.896,-0.686 -2.584,0.244 -0.655,0.885 0.098,1.546 0.67,2.163 0.965,1.04 2.462,2.12 1.345,3.64 -0.954,1.297 -2.661,0.65 -4.053,0.476 -2.541,-0.317 -4.755,-1.458 -5.563,-3.934 -3.398,-10.406 -5.789,-21.021 -4.555,-32.058 0.298,-2.668 1.775,-5.191 2.583,-7.821 0.347,-1.132 0.676,-2.653 -0.206,-3.445 -1.179,-1.057 -2.495,0.356 -3.016,1.06 -3.162,4.277 -6.861,3.512 -11.375,2.434 -5.453,-1.303 -11.211,-0.967 -16.747,0.532 -1.397,0.378 -3.026,0.957 -3.013,2.646 0.016,1.966 1.872,1.331 3.06,1.572 6.654,1.354 12.727,4.096 18.316,7.892 1.724,1.17 2.686,3.033 3.407,4.982 2.109,5.701 2.527,11.682 2.881,17.666 0.178,2.99 -1.334,4.746 -4.271,5.255 -7.854,1.362 -14.527,4.681 -19.097,11.491 -1.063,1.584 -2.909,2.029 -4.36,3.047 -4.001,2.801 -5.929,7.094 -8.234,11.136 -3.252,5.701 -6.45,11.439 -9.894,17.024 -1.991,3.229 -3.247,3.226 -7.208,0.35 -0.318,4.785 -0.621,9.044 -0.874,13.304 z m 43.189,-10.892 c 0.096,-0.742 0.739,-1.496 1.302,-2.078 1.916,-1.984 2.206,-4.438 2.188,-6.997 -0.008,-1.113 -0.153,-2.263 -1.49,-2.542 -1.35,-0.281 -2.005,0.736 -2.361,1.758 -3.74,10.715 -8.869,20.936 -11.423,32.074 -0.799,3.485 0.495,6.458 2.545,9.01 2.983,3.717 0.191,6.508 -3.901,9.455 -3.197,2.303 -6.586,1.084 -8.147,-2.44 -0.825,-1.862 -1.689,-3.722 -2.31,-5.655 -0.677,-2.11 -0.553,-4.096 0.8,-6.139 4.094,-6.181 3.742,-13.215 3.253,-20.16 -0.164,-2.316 -1.965,-2.054 -3.482,-1.125 -0.948,0.58 -1.418,1.648 -1.672,2.702 -1.011,4.187 -2.22,8.357 -2.118,12.716 0.064,2.719 -0.393,5.045 -3.251,6.159 -1.8,0.702 -1.099,1.981 -0.502,2.937 3.353,5.369 3.318,11.343 3.344,17.342 0.012,2.924 -0.648,6.294 3.261,7.498 3.052,0.939 6.384,-0.873 8.382,-4.729 1.486,-2.869 3.362,-5.096 6.476,-6.262 3.156,-1.184 6.312,-0.514 7.15,2.543 1.545,5.629 5.969,9.443 8.285,14.537 3.837,8.439 10.638,14.254 17.781,19.741 1.152,0.885 2.135,1.909 2.618,3.348 0.547,1.624 1.75,2.267 3.385,1.862 1.559,-0.385 3.141,-1.131 3.553,-2.728 0.439,-1.7 -1.136,-2.69 -2.403,-3.15 -10.314,-3.745 -15.116,-12.71 -20.317,-21.278 -2.914,-4.801 -5.61,-9.731 -8.475,-14.563 -3.212,-5.42 -3.75,-11.543 -4.696,-17.551 -0.408,-2.594 -0.49,-5.239 -0.643,-6.982 -0.093,-7.185 2.069,-13.137 2.868,-19.303 z m 40.624,-125.125 c 5.161,-8.586 9.451,-17.637 6.195,-27.857 -3.488,-10.951 -0.09,-21.066 2.622,-31.289 0.885,-3.334 0.914,-6.893 2.531,-10.04 0.286,-0.556 0.254,-1.238 -0.347,-1.588 -0.687,-0.399 -1.424,-0.22 -1.975,0.324 -0.326,0.323 -0.582,0.765 -0.743,1.199 -3.498,9.497 -7.089,18.948 -7.973,29.186 -0.526,6.1 -0.833,12.151 -0.134,18.264 0.804,7.037 -0.768,13.759 -3.234,20.323 -0.391,1.039 -1.17,2.154 -0.497,3.458 1.673,0.19 2.864,-0.832 3.555,-1.98 z m -50.176,118.416 c 1.984,0.469 3.658,-2.859 4.826,-4.996 1.956,-3.58 4.252,-6.917 6.654,-10.193 0.972,-1.325 2.175,-2.354 3.952,-1.746 1.68,0.576 2.416,1.979 2.352,3.661 -0.149,3.938 1.328,7.192 3.889,10.063 1.395,1.566 1.864,3.58 2.612,5.47 0.797,2.011 2.216,3.628 4.523,3.418 2.159,-0.196 3.132,-1.992 3.647,-3.957 1.235,-4.71 0.104,-7.267 -4.308,-9.067 -1.688,-0.688 -2.219,-1.6 -2.397,-3.41 -0.521,-5.282 -7.633,-11.569 -12.939,-11.588 -4.422,-0.017 -7.707,2.744 -10.295,5.68 -2.392,2.713 -5.236,5.838 -4.034,9.479 0.217,3.069 -0.746,6.651 1.518,7.186 z m 32.361,48.613 c 3.309,2.99 3.126,3.83 -0.788,5.627 -0.752,0.345 -1.558,0.76 -2.087,1.363 -0.754,0.857 -2.101,1.75 -1.611,2.979 0.608,1.527 2.348,1.238 3.509,0.889 10.296,-3.09 19.861,0.013 29.418,3.296 4.025,1.384 8.147,1.769 12.36,1.294 0.95,-0.107 2.067,-0.189 2.19,-1.413 0.126,-1.243 -1.05,-1.462 -1.894,-1.823 -0.539,-0.23 -1.153,-0.369 -1.739,-0.391 -9.448,-0.342 -18.362,-3.387 -26.725,-7.134 -4.856,-2.177 -9.464,-6.3 -12.064,-11.696 -0.549,-1.141 -0.117,-3.515 -2.171,-3.076 -1.698,0.363 -0.983,2.422 -1.181,3.591 -0.114,2.747 0.86,4.758 2.783,6.494 z m -6.347,-178.609 c 0.219,-0.42 0.671,-0.744 0.804,-1.177 0.446,-1.456 2.792,-3.153 0.961,-4.296 -2.228,-1.391 -2.529,1.412 -3.528,2.764 -4.008,5.42 -6.649,11.474 -8.308,17.929 -0.791,3.08 -0.993,6.327 -1.277,9.515 -0.146,1.656 0.491,3.189 2.409,3.422 1.889,0.227 2.87,-1.152 3.322,-2.688 1.085,-3.69 1.381,-7.501 1.254,-12.266 -2.039,-4.859 2.035,-8.767 4.363,-13.203 z m -8.917,158.816 c -2.818,0.171 -4.245,1.526 -3.794,4.365 0.731,4.6 1.832,9.107 4.523,13.028 1.658,2.417 3.556,2.368 4.884,-0.251 1.37,-2.704 1.566,-5.708 1.573,-8.703 -0.004,-6.748 -1.75,-8.767 -7.186,-8.439 z m -41.148,18.875 c 2.473,-4.097 0.479,-9.6 -4.004,-11.279 -2.441,-0.914 -4.393,0.504 -4.385,3.43 0.013,4.646 2.201,8.38 5.339,11.922 1.109,-1.463 2.213,-2.688 3.05,-4.073 z m 82.898,30.586 c -0.879,0.207 -1.717,0.835 -2.43,1.439 -1.318,1.119 -2.66,2.521 -1.38,4.283 1.301,1.791 2.966,0.985 4.39,-0.125 3.152,-2.458 6.876,-1.835 10.407,-1.747 2.469,0.062 4.85,0.243 7.253,-0.571 1.016,-0.344 2.19,-0.171 2.313,-1.674 0.12,-1.486 -0.411,-2.562 -1.827,-3.153 -2.074,-0.868 -4.266,-0.438 -6.396,-0.594 -4.32,-0.492 -8.269,1.183 -12.33,2.142 z m -1.07,-5.289 c 1.803,-1.256 1.891,-2.376 0.207,-3.598 -3.432,-2.488 -7.261,-4.122 -11.443,-4.828 -2.655,-0.449 -4.344,0.409 -4.655,3.428 -0.269,2.604 -1.142,5.175 1.109,7.397 1.166,1.151 2.554,1.149 4.798,1.05 3.008,-0.467 6.716,-1.172 9.984,-3.449 z m -83.172,-80.434 c 0.15,0.539 0.379,1.322 0.77,1.471 0.799,0.305 1.347,-0.473 1.604,-1.086 1.397,-3.326 2.474,-6.737 1.226,-10.361 -0.431,-1.249 -1.155,-2.529 -2.762,-2.347 -1.926,0.22 -1.44,1.861 -1.519,3.093 -0.06,0.949 -0.012,1.905 -0.012,2.857 0.025,2.151 0.113,4.291 0.693,6.373 z m 63.279,45.334 c 1.446,0.275 3.965,-3.484 3.932,-5.817 -0.019,-1.327 -0.181,-2.786 -1.756,-3.132 -1.643,-0.359 -3.721,2.979 -3.711,5.938 0.164,1.067 -0.246,2.671 1.535,3.011 z m 25.88,-191.461 c 0.044,1.985 1.256,3.756 3.618,3.671 2.491,-0.089 4.506,-1.181 4.568,-4.014 0.054,-2.419 -1.612,-3.254 -4.016,-3.319 -2.161,0.147 -4.23,0.991 -4.17,3.662 z m -55.408,41.629 c -2.155,-0.293 -2.279,2.288 -2.692,3.966 -1.01,4.11 0.009,7.046 2.653,7.888 0.696,0.223 1.415,0.393 2.037,-0.09 0.81,-0.627 0.253,-1.268 -0.106,-1.861 -1.104,-1.82 -1.174,-3.828 -1.08,-6.064 -0.431,-1.182 0.968,-3.597 -0.812,-3.839 z m 101.92,101.993 c 0.002,0.709 -0.052,1.528 0.864,1.729 0.633,0.14 1.147,-0.258 1.518,-0.762 1.571,-2.136 4.198,-4.078 1.013,-6.986 -0.503,-0.458 -0.45,-1.551 -0.604,-2.359 -0.233,-1.237 -0.91,-1.961 -2.205,-1.864 -1.635,0.12 -1.319,1.381 -1.356,2.48 1.104,2.476 0.763,5.135 0.77,7.762 z m -20.926,79.287 c 0.27,-2.814 -2.353,-3.24 -4.521,-3.4 -2.252,-0.168 -4.127,0.625 -4.157,3.256 -0.022,1.99 1.306,2.936 3.46,3.064 1.715,-0.834 4.929,0.122 5.218,-2.92 z m 11.499,-236.389 c 2.144,-0.401 4.205,-1.361 4.54,-3.896 0.222,-1.679 -0.955,-2.324 -2.49,-2.296 -2.466,0.047 -3.661,1.437 -3.881,3.415 -0.022,1.679 0.197,3.084 1.831,2.777 z m -17.781,12.309 c 1.669,0.078 2.759,-0.672 2.813,-2.452 0.052,-1.696 -0.822,-2.665 -2.524,-2.819 -1.822,-0.166 -2.2,0.99 -2.194,1.989 -0.029,1.862 0.093,3.196 1.905,3.282 z"
       id="path3054" />
    <path
       style="fill:#cdeacf;fill-rule:evenodd;stroke:#000000;stroke-miterlimit:10;fill-opacity:1"
       inkscape:connector-curvature="0"
       clip-rule="evenodd"
       stroke-miterlimit="10"
       d="m 401.84369,88.910609 c 5.776,1.669 7.258,6.79 8.77,11.542001 6.139,19.306 10.102,21.937 30.948,19.928 5.789,-0.558 11.459,-0.447 16.213,3.658 -2.346,9.583 -7.019,17.313 -16.734,21.03 -7.098,-6.732 -13.146,-6.093 -26.387,2.794 -1.727,0.904 -3.458,1.804 -5.189,2.705 -1.496,0.444 -4.407,-0.891 -4.094,1.544 0.162,1.26 3.32,0.824 4.889,-0.645 2.1,-0.116 4.156,-0.341 5.598,-2.161 3.547,-1.383 7.072,-2.824 10.645,-4.135 4.1,-1.507 10.543,-0.987 8.422,3.979 -3.125,7.314 -17.6,11.843 -26.072,18.231 -5.799,4.374 0.379,5.639 4.436,5.841 -9.141,15.86 -21.635,28.902 -34.802,41.378 -3.749,0.561 -7.569,0.846 -11.228,1.767 -3.104,0.782 -5.863,-1.133 -8.016,5.056 -0.504,1.45 -2.307,2.544 -3.517,5.033 -2.424,4.983 -6.927,9.333 -13.5,9.646 -4.003,-0.533 -6.497,1.238 -9.919,3.825 -1.189,0.898 -4.208,1.428 -5.672,1.835 -1.658,0.461 -7.185,8.686 -9.701,9.719 -10.483,4.304 -23.137,3.002 -33.998,-0.239 -0.827,-0.247 -1.076,-0.694 -2.996,-1.714 -0.786,-0.418 -9.41401,-24.221 -9.41401,-24.222 0.632,-3.267 -0.422,-4.722 -1.959,-7.846 -2.489,-5.059 -4.359,-16.407 -4.089,-21.993 0.608,-12.551 -0.406,-24.529 -1.094,-36.774 -0.261,-4.626 -0.217,-8.568 6.235,-7.172 0.795,0.51 1.587,1.025 2.38,1.539 0.856,1.197 2.111,2.959 3.345,1.38 1.422,-1.822 -0.984,-2.094 -2.128,-2.71 -0.828,-0.423 -1.655,-0.855 -2.482,-1.288 -5.134,-2.111 -9.34,-4.524 -7.688,-11.515 1.575,-6.668 5.895,-7.22 11.729,-9.445 10.75301,-4.102 22.33201,-1.814 32.59501,-6.643 1.976,-0.929 4.664,-1.976 6.479,-1.36 17.417,5.902 27.364,-5.624 37.998,-15.771 0.873,-0.834 2.232,-1.161 3.363,-1.703 -4.398,9.065 -9.27,17.757 -19.277,23.714 14.149,1.062 20.286,-6.175 23.717,-17.034 0.566,-1.792 1.787,-3.376 2.706,-5.058 5.212,-6.418001 12.749,-10.708001 17.398,-21.617001 0.278,6.406 2.603,8.463 4.521,10.868 1.951,2.447 3.245,5.417001 4.826,8.158001 3.727,6.912 4.991,13.536 -1.965,19.417 -1.088,0.922 -2.447,2.275 -0.172,3.674 2.073,1.274 5.43,2.01 5.703,-0.185 0.878,-7.052 4.965,-2.97 7.916,-2.918 -2.072,2.728 -4.6,5.279 -4.309,9.057 0.036,0.464 1.563,1.312 2.188,1.151 4.23,-1.085 5.428,-4.964 7.109,-8.296 0.895,-1.771 0.754,-3.69 -0.328,-5.447 5.369,-5.886 -5.289,-7.315 -3.439,-11.215 3.177,-6.713 -0.682,-12.949001 0.04,-19.363001 z M 276.14468,179.86861 c 0.33,0.3 0.662,0.6 0.994,0.9 -0.024,-0.228 0.036,-0.548 -0.09,-0.661 -0.203,-0.184 -0.53,-0.231 -0.805,-0.337 -1.142,-2.43 -3.093,-3.697 -5.725,-3.987 -0.86,-0.85 -1.721,-1.7 -2.582,-2.55 -0.291,0.4 -0.581,0.802 -0.872,1.203 0.96,0.69 1.919,1.381 2.877,2.072 1.29,2.555 3.182,4 6.203,3.36 z m 24.24301,29.791 c -4.775,-4.141 -1.371,-5.142 2.317,-6.031 4.669,2.161 9.183,1.237 14.614,-0.48 -4.226,-2.576 -7.533,-4.736 -11.838,-2.965 -5.817,-8.686 -13.435,-8.25 -21.746,-4.294 -0.266,-2.38 -1.813,-3.613 -3.29,-1.557 -1.479,2.058 -1.356,4.796 2.554,4.722 0.502,1.546 1.006,3.093 1.508,4.639 -3.105,9.229 5.778,10.693 10.041,14.819 3.954,3.826 8.532,0.519 10.605,-2.582 2.773,-4.15 -3.092,-4.127 -4.765,-6.271 z m 30.533,-42.024 c 7.355,2.127 10.014,-3.932 13.773,-7.984 1.026,-1.106 0.578,-2.376 -0.607,-3.24 -3.92,-2.859 -7.221,-0.172 -10.697,1.161 -0.206,0.079 -0.77,-0.778 -1.113,-1.143 -0.93,-3.911 4.73,-5.074 3.695,-9.342 -8.025,0.698 -15.863,0.544 -22.817,-4.122 5.808,-1.247 12.478,3.083 18.604,-3.114 -5.766,-0.159 -10.511,0.696 -13.065,-5.839 -1.201,-3.071 -8.032,-4.52 -11.364,-2.507 -4.484,2.71 1.252,5.793 1.7,8.9 -7.853,0.883 -6.054,-8.282 -13.168,-12.47 4.169,7.648 -2.806,13.501 1.32,18.264 3.456,3.989 11.202,0.376 15.909,5.784 -3.471,0.668 -7.274,0.236 -8.835,1.905 -6.028,6.449 -12.765,11.6 -20.473,15.928 -2.632,1.478 -2.393,6.199 1.554,7.698 12.986,4.929 25.469,12.489 40.35,9.004 -3.344,-1.35 -6.639,-2.507 -9.779,-3.988 -4.702,-2.215 -3.21,-4.667 -0.027,-7.023 5.944,-0.843 11.745,-1.962 15.04,-7.872 z m -36.378,73.655 c -2.778,-0.754 -3.815,-3.753 -5.755,-5.731 -1.5,-1.529 -0.195,-6.19 -4.361,-4.572 -3.318,1.29 -3.246,4.656 -2.052,7.463 2.572,6.044 4.97,12.953 13.646,6.54 2.032,-1.5 4.294,-1.407 6.296,-0.019 3.293,2.282 7.145,4.736 10.351,1.416 3.224,-3.34 -3.911,-3.066 -3.495,-7.112 0.714,-6.934 -3.234,-5.489 -6.857,-2.289 -2.182,1.928 -4.402,3.714 -7.773,4.304 z m 78.663,-66.924 c 3.594,2.723 1.217,10.818 7.697,10.813 4.17,-0.002 10.279,-2.001 9.749,-8.271 -0.585,-6.925 -7.28,-7.02 -12.196,-8.183 -3.082,-0.728 -5.316,1.485 -5.25,5.641 z m -21.559,-6.183 c 3.191,-5.874 10.391,-9.25 12.816,-16.299 0.829,-2.409 0.364,-6.084 -2.216,-7.932 -1.354,-0.969 -5.025,-3.266 -5.044,0.718 -0.034,8.037 -4.489,13.71 -8.541,19.771 -1.583,2.367 -0.628,3.518 2.985,3.742 z m -17.583,55.845 c 1.769,1.429 -2.293,6.216 2.338,6.131 4.509,-0.082 10.931,-0.539 12.427,-5.226 1.688,-5.282 -3.569,-1.726 -5.648,-2.422 -0.83,-0.279 -1.67,-0.815 -2.26,-1.458 -1.564,-1.705 0.537,-6.913 -4.235,-5.275 -3.074,1.056 -2.259,4.869 -2.622,8.25 z m 89.482,-96.493 c -2.862,0.014 -6.779,0.64 -7.327,5.293 -0.337,2.852 2.536,2.26 4.138,2.009 3.326,-0.52 7.306,-1.036 8.595,-4.412 0.723,-1.894 -1.594,-3.9 -5.406,-2.89 z m -152.14401,77.382 c -0.846,9.229 3.774,13.271 7.48801,17.791 1.35,1.642 2.193,4.968 4.769,3.266 2.484,-1.643 0.734,-4.877 -0.496,-6.647 -3.023,-4.346 -6.66401,-8.265 -11.76101,-14.41 z m 99.01101,-62.644 c 3.557,4.397 7.939,5.539 12.766,4.657 3.677,-0.672 4.154,-3.749 3.154,-6.736 -0.74,-2.213 -3.908,-2.766 -4.486,-1.176 -2.34,6.436 -7.261,0.231 -11.434,3.255 z m -46.135,93.531 c 7.83,-3.785 8.941,-10.312 7.865,-19.136 -5.492,6.1 -5.541,13.067 -7.865,19.136 z m 48.303,-124.244 c 3.843,-2.594 8.67,-4.375 9.034,-9.748 0.099,-1.461 -1.781,-2.936001 -3.474,-2.331001 -5.512,1.971001 -4.215,7.622001 -5.56,12.079001 z m -88.014,27.479 c -1.807,0.342 -4.319,1.769 -4.64,4.949 -0.304,3.026 2.171,3.297 4.511,3.166 3.152,-0.176 5.514,-1.438 5.704,-4.918 0.167,-3.031 -1.877,-3.552 -5.575,-3.197 z m 30.93,94.466 c 3.012,-3.036 4.906,-5.324 4,-9.22 -3.531,2.045 -4.62,4.667 -4,9.22 z m 5.284,-10.943 c 3.642,-3.295 3.86,-5.518 2.215,-7.904 -0.168,-0.243 -0.993,-0.032 -1.832,-0.032 -0.108,2.231 -0.211,4.371 -0.383,7.936 z"
       id="path4010" />
    <path
       style="fill:#cdeacf;fill-opacity:1;stroke:#000000;stroke-width:0.70137709000000004px;stroke-linecap:butt;stroke-linejoin:miter;stroke-opacity:1"
       d="m 468.91263,126.25212 c 70,0 124.78675,0.15738 124.78675,0.15738 l 0.21325,149.84262 c -15,15 -50,50 -70,80 -20,30 -45,75 -65,150 l 0,-245 c 0,0 -88.4221,-0.73851 -135,0 35,-15 115,-85 145,-135 z"
       id="path3106-4"
       inkscape:connector-curvature="0"
       sodipodi:nodetypes="cccscccc" />
    <g
       transform="translate(134.47513,600.57918)"
       style="font-size:40px;font-style:normal;font-weight:normal;text-align:end;line-height:125%;letter-spacing:0px;word-spacing:0px;text-anchor:end;fill:#000000;fill-opacity:1;stroke:none;font-family:Sans"
       id="flowRoot4388-7-8">
      <path
         d="m 350.14453,-419.32706 0,-28.63281 12.69531,0 c 2.55207,3e-5 4.49217,0.25719 5.82032,0.77148 1.3281,0.51435 2.3893,1.42255 3.18359,2.72461 0.79425,1.30211 1.19138,2.74091 1.19141,4.31641 -3e-5,2.03127 -0.65758,3.7435 -1.97266,5.13672 -1.31513,1.39324 -3.34637,2.27865 -6.09375,2.65625 1.00259,0.48178 1.7643,0.95704 2.28516,1.42578 1.10675,1.01563 2.15492,2.28516 3.14453,3.80859 l 4.98047,7.79297 -4.76563,0 -3.78906,-5.95703 c -1.10679,-1.71874 -2.01825,-3.03385 -2.73438,-3.94531 -0.71616,-0.91145 -1.35743,-1.54947 -1.92382,-1.91407 -0.56643,-0.36457 -1.1426,-0.61847 -1.72852,-0.76172 -0.4297,-0.0911 -1.13282,-0.1367 -2.10938,-0.13671 l -4.39453,0 0,12.71484 z m 3.78906,-15.99609 8.14453,0 c 1.73176,10e-6 3.08592,-0.17902 4.0625,-0.53711 0.97655,-0.35806 1.71873,-0.93098 2.22657,-1.71875 0.50779,-0.78775 0.76169,-1.64386 0.76172,-2.56836 -3e-5,-1.35415 -0.49156,-2.46743 -1.47461,-3.33985 -0.9831,-0.87237 -2.53583,-1.30857 -4.65821,-1.30859 l -9.0625,0 z"
         style=""
         id="path2992" />
      <path
         d="m 378.5625,-443.9169 0,-4.04297 3.51562,0 0,4.04297 z m 0,24.58984 0,-20.74219 3.51562,0 0,20.74219 z"
         style=""
         id="path2994" />
      <path
         d="m 386.80469,-417.60831 3.41797,0.50781 c 0.14322,1.05469 0.54035,1.82291 1.1914,2.30469 0.87239,0.65104 2.0638,0.97656 3.57422,0.97656 1.62759,0 2.8841,-0.32552 3.76953,-0.97656 0.8854,-0.65105 1.48436,-1.5625 1.79688,-2.73438 0.18227,-0.71614 0.26691,-2.22005 0.2539,-4.51171 -1.53647,1.80989 -3.45053,2.71484 -5.74218,2.71484 -2.85157,0 -5.0586,-1.02865 -6.6211,-3.08594 -1.5625,-2.05728 -2.34375,-4.52473 -2.34375,-7.40234 0,-1.97916 0.35807,-3.80533 1.07422,-5.47852 0.71614,-1.67316 1.75455,-2.96547 3.11524,-3.87695 1.36067,-0.91144 2.95897,-1.36717 4.79492,-1.36719 2.4479,2e-5 4.46613,0.98961 6.05468,2.96875 l 0,-2.5 3.24219,0 0,17.92969 c -2e-5,3.22917 -0.32879,5.51757 -0.98633,6.86523 -0.65757,1.34765 -1.69923,2.41211 -3.125,3.19336 -1.42579,0.78124 -3.18035,1.17187 -5.26367,1.17188 -2.47396,-1e-5 -4.47266,-0.55665 -5.99609,-1.66992 -1.52344,-1.11329 -2.25912,-2.78972 -2.20703,-5.0293 z m 2.91015,-12.46094 c 0,2.72136 0.54036,4.70704 1.6211,5.95703 1.08072,1.25001 2.43488,1.87501 4.0625,1.875 1.61457,10e-6 2.96873,-0.62174 4.0625,-1.86523 1.09373,-1.24349 1.64061,-3.19335 1.64062,-5.84961 -1e-5,-2.53905 -0.56316,-4.45311 -1.68945,-5.74219 -1.12632,-1.28904 -2.48374,-1.93357 -4.07227,-1.93359 -1.56251,2e-5 -2.89063,0.63478 -3.98437,1.90429 -1.09376,1.26955 -1.64063,3.15431 -1.64063,5.6543 z"
         style=""
         id="path2996" />
      <path
         d="m 409.71484,-419.32706 0,-28.63281 3.51563,0 0,10.27343 c 1.64062,-1.90102 3.71093,-2.85154 6.21094,-2.85156 1.53644,2e-5 2.87107,0.30276 4.0039,0.9082 1.1328,0.60549 1.94334,1.44208 2.43164,2.50977 0.48827,1.06773 0.73241,2.6172 0.73242,4.64844 l 0,13.14453 -3.51562,0 0,-13.14453 c -2e-5,-1.7578 -0.38088,-3.0371 -1.14258,-3.83789 -0.76173,-0.80077 -1.8392,-1.20116 -3.23242,-1.20117 -1.04168,10e-6 -2.02149,0.2702 -2.93945,0.81054 -0.91798,0.54038 -1.57228,1.2728 -1.96289,2.19727 -0.39064,0.92449 -0.58595,2.20053 -0.58594,3.82812 l 0,11.34766 z"
         style=""
         id="path2998" />
      <path
         d="m 439.65625,-422.47159 0.50781,3.10547 c -0.98959,0.20833 -1.87501,0.3125 -2.65625,0.3125 -1.27605,0 -2.26563,-0.20183 -2.96875,-0.60547 -0.70313,-0.40365 -1.19792,-0.93425 -1.48437,-1.5918 -0.28646,-0.65755 -0.42969,-2.04101 -0.42969,-4.15039 l 0,-11.93359 -2.57813,0 0,-2.73438 2.57813,0 0,-5.13672 3.49609,-2.10937 0,7.24609 3.53516,0 0,2.73438 -3.53516,0 0,12.1289 c 0,1.00261 0.0618,1.64714 0.18555,1.9336 0.12369,0.28646 0.32551,0.51432 0.60547,0.68359 0.27994,0.16927 0.68033,0.25391 1.20117,0.25391 0.39062,0 0.90494,-0.0456 1.54297,-0.13672 z"
         style=""
         id="path3000" />
      <path
         d="m 288.93359,-383.27237 c 0,-4.75259 1.27604,-8.47329 3.82813,-11.16211 2.55207,-2.68878 5.84634,-4.03318 9.88281,-4.03321 2.64321,3e-5 5.02602,0.63154 7.14844,1.89454 2.12237,1.26304 3.74021,3.02411 4.85351,5.2832 1.11326,2.25913 1.6699,4.82098 1.66993,7.68555 -3e-5,2.90365 -0.58597,5.50131 -1.75782,7.79296 -1.1719,2.29167 -2.83205,4.0267 -4.98047,5.20508 -2.14845,1.17839 -4.46616,1.76758 -6.95312,1.76758 -2.69533,0 -5.10418,-0.65104 -7.22656,-1.95312 -2.1224,-1.30209 -3.73048,-3.07943 -4.82422,-5.33204 -1.09375,-2.25259 -1.64063,-4.6354 -1.64063,-7.14843 z m 3.90625,0.0586 c 0,3.45053 0.92773,6.16863 2.78321,8.1543 1.85546,1.98568 4.18293,2.97852 6.98242,2.97851 2.85154,10e-6 5.19855,-1.0026 7.04101,-3.00781 1.84243,-2.0052 2.76365,-4.85025 2.76368,-8.53516 -3e-5,-2.33071 -0.39391,-4.36521 -1.18164,-6.10351 -0.78779,-1.73826 -1.94013,-3.08592 -3.45704,-4.04297 -1.51694,-0.95701 -3.21941,-1.43552 -5.10742,-1.43555 -2.6823,3e-5 -4.99024,0.92125 -6.92383,2.76367 -1.9336,1.84247 -2.90039,4.91864 -2.90039,9.22852 z"
         style=""
         id="path3002" />
      <path
         d="m 334.26562,-376.92472 3.45704,0.44922 c -0.37763,2.38282 -1.34442,4.24805 -2.90039,5.5957 -1.55601,1.34766 -3.46681,2.02149 -5.73243,2.02149 -2.83855,0 -5.12044,-0.92773 -6.8457,-2.7832 -1.72526,-1.85547 -2.58789,-4.51497 -2.58789,-7.97852 0,-2.23957 0.37109,-4.1992 1.11328,-5.87891 0.74219,-1.67967 1.87174,-2.93943 3.38867,-3.77929 1.51692,-0.83983 3.16731,-1.25975 4.95117,-1.25977 2.2526,2e-5 4.09504,0.56968 5.52735,1.70899 1.43227,1.13934 2.35024,2.75717 2.7539,4.85351 l -3.41796,0.52735 c -0.32554,-1.39322 -0.90171,-2.44139 -1.72852,-3.14454 -0.82684,-0.7031 -1.82618,-1.05467 -2.99805,-1.05468 -1.77084,1e-5 -3.20964,0.63478 -4.3164,1.90429 -1.10678,1.26955 -1.66016,3.27801 -1.66016,6.02539 0,2.78647 0.53385,4.81121 1.60156,6.07422 1.0677,1.26303 2.46093,1.89454 4.17969,1.89453 1.3802,1e-5 2.53254,-0.42317 3.45703,-1.26953 0.92447,-0.84635 1.5104,-2.14843 1.75781,-3.90625 z"
         style=""
         id="path3004" />
      <path
         d="m 354.26562,-376.92472 3.45704,0.44922 c -0.37763,2.38282 -1.34442,4.24805 -2.90039,5.5957 -1.55601,1.34766 -3.46681,2.02149 -5.73243,2.02149 -2.83855,0 -5.12044,-0.92773 -6.8457,-2.7832 -1.72526,-1.85547 -2.58789,-4.51497 -2.58789,-7.97852 0,-2.23957 0.37109,-4.1992 1.11328,-5.87891 0.74219,-1.67967 1.87174,-2.93943 3.38867,-3.77929 1.51692,-0.83983 3.16731,-1.25975 4.95117,-1.25977 2.2526,2e-5 4.09504,0.56968 5.52735,1.70899 1.43227,1.13934 2.35024,2.75717 2.7539,4.85351 l -3.41796,0.52735 c -0.32554,-1.39322 -0.90171,-2.44139 -1.72852,-3.14454 -0.82684,-0.7031 -1.82618,-1.05467 -2.99805,-1.05468 -1.77084,1e-5 -3.20964,0.63478 -4.3164,1.90429 -1.10678,1.26955 -1.66016,3.27801 -1.66016,6.02539 0,2.78647 0.53385,4.81121 1.60156,6.07422 1.0677,1.26303 2.46093,1.89454 4.17969,1.89453 1.3802,1e-5 2.53254,-0.42317 3.45703,-1.26953 0.92447,-0.84635 1.5104,-2.14843 1.75781,-3.90625 z"
         style=""
         id="path3006" />
      <path
         d="m 360.75,-393.9169 0,-4.04297 3.51562,0 0,4.04297 z m 0,24.58984 0,-20.74219 3.51562,0 0,20.74219 z"
         style=""
         id="path3008" />
      <path
         d="m 369.63672,-361.37784 0,-28.69141 3.20312,0 0,2.69531 c 0.75521,-1.05466 1.60807,-1.84568 2.5586,-2.37304 0.95051,-0.52733 2.10285,-0.791 3.45703,-0.79102 1.77082,2e-5 3.33332,0.45575 4.6875,1.36719 1.35415,0.91148 2.37628,2.19728 3.0664,3.85742 0.69009,1.66017 1.03514,3.47983 1.03516,5.45899 -2e-5,2.1224 -0.38088,4.0332 -1.14258,5.73242 -0.76173,1.69922 -1.8685,3.0013 -3.32031,3.90625 -1.45184,0.90495 -2.97853,1.35742 -4.58008,1.35742 -1.17188,0 -2.22331,-0.2474 -3.15429,-0.74219 -0.931,-0.49479 -1.69597,-1.11979 -2.29493,-1.875 l 0,10.09766 z m 3.18359,-18.20313 c 0,2.66928 0.54036,4.64194 1.6211,5.91797 1.08072,1.27605 2.38931,1.91407 3.92578,1.91406 1.56248,1e-5 2.90037,-0.6608 4.01367,-1.98242 1.11326,-1.32161 1.6699,-3.36913 1.66992,-6.14258 -2e-5,-2.64321 -0.54364,-4.62238 -1.63086,-5.9375 -1.08725,-1.31508 -2.38608,-1.97263 -3.89648,-1.97265 -1.49741,2e-5 -2.82228,0.69989 -3.97461,2.09961 -1.15235,1.39975 -1.72852,3.43425 -1.72852,6.10351 z"
         style=""
         id="path3010" />
      <path
         d="m 391.92187,-393.9169 0,-4.04297 3.51563,0 0,4.04297 z m 0,24.58984 0,-20.74219 3.51563,0 0,20.74219 z"
         style=""
         id="path3012" />
      <path
         d="m 408.48437,-372.47159 0.50782,3.10547 c -0.9896,0.20833 -1.87501,0.3125 -2.65625,0.3125 -1.27605,0 -2.26563,-0.20183 -2.96875,-0.60547 -0.70313,-0.40365 -1.19792,-0.93425 -1.48438,-1.5918 -0.28646,-0.65755 -0.42969,-2.04101 -0.42969,-4.15039 l 0,-11.93359 -2.57812,0 0,-2.73438 2.57812,0 0,-5.13672 3.4961,-2.10937 0,7.24609 3.53515,0 0,2.73438 -3.53515,0 0,12.1289 c -1e-5,1.00261 0.0618,1.64714 0.18555,1.9336 0.12369,0.28646 0.32551,0.51432 0.60546,0.68359 0.27994,0.16927 0.68033,0.25391 1.20118,0.25391 0.39061,0 0.90493,-0.0456 1.54296,-0.13672 z"
         style=""
         id="path3014" />
      <path
         d="m 425.4375,-371.88565 c -1.3021,1.10677 -2.55535,1.88802 -3.75977,2.34375 -1.20443,0.45572 -2.49675,0.68359 -3.87695,0.68359 -2.27865,0 -4.02995,-0.55664 -5.25391,-1.66992 -1.22396,-1.11328 -1.83593,-2.53581 -1.83593,-4.26758 0,-1.01562 0.23112,-1.94335 0.69336,-2.7832 0.46223,-0.83984 1.0677,-1.51367 1.8164,-2.02149 0.7487,-0.5078 1.59179,-0.89191 2.5293,-1.15234 0.6901,-0.18228 1.73176,-0.35806 3.125,-0.52735 2.83853,-0.33853 4.92837,-0.74217 6.26953,-1.21093 0.013,-0.48176 0.0195,-0.78775 0.0195,-0.91797 -1e-5,-1.43228 -0.33204,-2.44139 -0.99609,-3.02735 -0.89845,-0.79425 -2.23309,-1.19138 -4.00391,-1.1914 -1.65365,2e-5 -2.87435,0.28973 -3.66211,0.86914 -0.78776,0.57944 -1.37045,1.60483 -1.74804,3.07617 l -3.4375,-0.46875 c 0.31249,-1.47134 0.82682,-2.65949 1.54296,-3.56445 0.71615,-0.90493 1.7513,-1.60155 3.10547,-2.08985 1.35416,-0.48826 2.92317,-0.7324 4.70703,-0.73242 1.77083,2e-5 3.20963,0.20836 4.31641,0.625 1.10676,0.41669 1.92056,0.94078 2.44141,1.57227 0.52081,0.63153 0.8854,1.42905 1.09375,2.39258 0.11717,0.59897 0.17576,1.6797 0.17578,3.24218 l 0,4.6875 c -2e-5,3.26824 0.0748,5.33529 0.22461,6.20117 0.14972,0.86589 0.44594,1.69597 0.88867,2.49024 l -3.67188,0 c -0.36459,-0.72917 -0.59897,-1.58203 -0.70312,-2.55859 z m -0.29297,-7.85157 c -1.27606,0.52085 -3.19012,0.96355 -5.74219,1.32813 -1.44532,0.20834 -2.46745,0.44271 -3.0664,0.70312 -0.59897,0.26043 -1.06121,0.64129 -1.38672,1.14258 -0.32553,0.50131 -0.48829,1.05795 -0.48828,1.66992 -10e-6,0.93751 0.35481,1.71876 1.06445,2.34375 0.70963,0.62501 1.74804,0.93751 3.11523,0.9375 1.35416,10e-6 2.55859,-0.29622 3.61329,-0.88867 1.05467,-0.59244 1.82941,-1.40299 2.32421,-2.43164 0.37759,-0.79426 0.5664,-1.96614 0.56641,-3.51562 z"
         style=""
         id="path3016" />
      <path
         d="m 434.08984,-369.32706 0,-28.63281 3.51563,0 0,28.63281 z"
         style=""
         id="path3018" />
    </g>
    <path
       style="fill:#cdeacf;fill-opacity:1;stroke:#000000;stroke-width:1px;stroke-linecap:butt;stroke-linejoin:miter;stroke-opacity:1"
       d="m 623.53742,883.5719 c 0,0 0,-185 0,-255 -85,5 -75,20 -100,20 -10,0 -50,-25 -65,-60 0,70 0,295 0,295 z"
       id="path4587-5-1"
       inkscape:connector-curvature="0"
       sodipodi:nodetypes="ccsccc" />
  </g>
</svg>
