<?xml version="1.0" encoding="UTF-8" standalone="no"?>
<!-- Created with Inkscape (http://www.inkscape.org/) -->

<svg
   xmlns:dc="http://purl.org/dc/elements/1.1/"
   xmlns:cc="http://creativecommons.org/ns#"
   xmlns:rdf="http://www.w3.org/1999/02/22-rdf-syntax-ns#"
   xmlns:svg="http://www.w3.org/2000/svg"
   xmlns="http://www.w3.org/2000/svg"
   xmlns:sodipodi="http://sodipodi.sourceforge.net/DTD/sodipodi-0.dtd"
   xmlns:inkscape="http://www.inkscape.org/namespaces/inkscape"
   id="svg3193"
   version="1.1"
   inkscape:version="0.48.4 r9939"
   sodipodi:docname="occipital_left_active.svg">
  <defs
     id="defs3195" />
  <sodipodi:namedview
     id="base"
     pagecolor="#ffffff"
     bordercolor="#ffffff"
     borderopacity="0.0"
     inkscape:pageopacity="0.0"
     inkscape:pageshadow="0"
     inkscape:zoom="0.7"
     inkscape:cx="-324.61369"
     inkscape:cy="461.78118"
     inkscape:document-units="px"
     inkscape:current-layer="layer1"
     showgrid="false"
     inkscape:window-width="1400"
     inkscape:window-height="1028"
     inkscape:window-x="-8"
     inkscape:window-y="22"
     inkscape:window-maximized="1" />
  <metadata
     id="metadata3198">
    <rdf:RDF>
      <cc:Work
         rdf:about="">
        <dc:format>image/svg+xml</dc:format>
        <dc:type
           rdf:resource="http://purl.org/dc/dcmitype/StillImage" />
        <dc:title />
      </cc:Work>
    </rdf:RDF>
  </metadata>
  <g
     inkscape:label="Layer 1"
     inkscape:groupmode="layer"
     id="layer1">
    <path
       id="path4006"
       d="m -357.7051,257.58778 c -3.19,2.915 -6.674,5.227 -11.184,5.427 -6.184,-3.44 -7.901,-3.07 -9.894,2.133 -7.092,0 -14.184,0 -21.275,0 1.383,-1.236 0.686,-2.511 0.067,-3.785 7.182,0.427 12.808,-8.682 20.595,-3.685 7.407,4.752 14.467,-4.594 21.691,-0.09 z"
       stroke-miterlimit="10"
       clip-rule="evenodd"
       inkscape:connector-curvature="0"
       style="fill:#cdeacf;fill-rule:evenodd;stroke:#000000;stroke-miterlimit:10;fill-opacity:1" />
    <path
       id="path4008"
       d="m -345.9141,161.29878 c -0.236,1.787 1.029,3.956 -1.328,5.204 -5.381,0.05 -0.406,6.997 -5.689,7.978 -8.95,1.661 -11.193,8.695 -5.691,16.233 1.06,-2.313 2.076,-4.533 3.094,-6.754 l -0.079,-0.069 c 0,4.56 0,9.119 0,16.385 1.746,-4.001 2.319,-5.314 3.149,-7.216 3.139,8.402 3.424,16.306 0.875,24.326 -2.241,7.056 -5.035,14.101 -0.131,21.198 0.311,5.366 -1.4,10.268 -3.466,15.088 -3.079,-0.781 -6.119,-1.81 -9.244,-2.299 -10.01,-1.569 -21.469,1.679 -27.776,-10.833 -1.771,-3.513 -7.637,-5.138 -12.823,-3.574 1.299,7.239 7.885,7.233 12.731,10.511 -11.671,12.161 -11.413,-6.663 -18.319,-6.286 0.215,3.39 1.625,7.97 -4.897,6.633 -2.896,-0.594 -3.912,1.446 -4.299,3.908 -12.689,-7.487 -24.256,-16.716 -34.115,-27.378 -7.372,-7.973 -19.259,-8.255 -25.25,-17.439 -0.342,-1.117 -11.533,-19.238 -13.687,-20.506 -6.509,-7.163 -16.27,-12.373 -19.525,-21.484 -0.461,-1.29 -9.604,-15.691 -9.604,-15.69 0.321,-17.295 3.315,-20.358 20.774,-21.235 1.287,-0.064 2.764,0.293 3.831,-0.217 6.171,-2.954 7.923,0.01 8.256,5.642 0.084,1.412 1.283,2.757 1.97,4.133 0.835,7.533 4.639,13.325 11.591,17.287 -3.781,-5.833 -7.562,-11.666 -11.342,-17.498 0.073,-3.212 0.209,-6.424 0.211,-9.636 0.005,-11.872 10.861,-27.141 21.952,-30.434 8.184,-2.429 16.328,1.19 21.384,5.721 3.848,3.449 -2.156,11.064 -6.033,14.296 -7.807,6.508 -7.862,14.215 -7.274,24.689 6.84,-6.411 8.347,-13.982 12.161,-20.102 3.393,-5.442 4.535,-15.295 10.536,-15.537 11.847,-0.477 24.993,-1.913 32.579,12.584 7.104,13.572 24.756,10.699 35.528,19.421 2.625,2.125 5.984,-1.243 8.9,-2.34 5.671,-2.135 8.978,2.656 13.035,4.644 2.298,1.125 -0.868,4.067 -1.053,6.285 -1.126,-1.069 -0.069,-3.361 -2.355,-3.93 -2.865,5.051 -4.992,10.292 -4.262,16.296 3.351,0.752 2.43,-3.961 5.045,-3.876 0.224,2.064 0.432,3.968 0.64,5.871 z m -145.561,-15.047 -0.231,-0.377 c -2.929,-5.346 -7.415,-6.667 -11.634,-2.5 -2.547,2.515 -7.067,7.03 -0.029,10.482 3.373,0.243 6.801,0.204 10.098,0.841 1.759,0.34 3.631,2.102 4.882,-0.092 1.429,-2.509 0.51,-4.724 -2.332,-5.861 -0.252,-0.832 -0.503,-1.663 -0.754,-2.493 z m 32.203,-28.348 c 3.394,-6.513 -0.736,-7.977 -5.893,-9.102 -6.283,-1.372 -6.909,2.487 -6.987,7.061 -5.188,-2.026 -8.876,-1.956 -7.674,5.315 0.784,4.744 1.516,9.499 2.123,14.268 0.732,5.759 6.364,6.271 9.734,7.043 3.134,0.718 5.187,-3.917 5.288,-7.814 0.085,-3.212 0.271,-6.421 0.415,-9.643 0.998,-2.374 1.996,-4.751 2.994,-7.128 z m 81.937,63.768 c -5.687,2.906 -11.902,4.281 -18.263,6.295 4.383,3.18 8.407,6.517 14.182,4.185 5.161,-0.714 8.842,-3.299 10.265,-8.466 0.701,-2.544 0.804,-5.857 -1.814,-6.692 -3.039,-0.97 -3.008,2.941 -4.37,4.678 z m -56.082,-43.97 c -9.697,4.458 3.756,9.527 -0.279,14.926 -1.179,1.577 3.914,1.74 6.225,2.005 2.54,0.291 5.14,0.206 7.704,0.081 2.795,-0.135 6.693,1.012 7.822,-2.044 0.91,-2.468 -1.507,-5.162 -3.866,-6.921 0.599,-5.032 -6.148,-7.948 -4.31,-12.848 1.725,-4.596 0.111,-6.411 -3.771,-7.527 -4.473,-1.287 -7.699,0.56 -9.069,4.764 -0.759,2.324 -0.342,5.03 -0.456,7.564 z m 68.128,58.549 c -4.238,-1.709 -6.859,-0.24 -9.666,0.32 -15.866,3.169 -31.103,0.474 -45.723,-5.885 -2.161,-0.941 -3.506,-3.96 -6.491,-2.346 -0.649,0.352 -1.365,1.806 -1.129,2.358 1.232,2.886 3.643,4.159 6.748,4.631 11.689,1.777 23.145,4.184 31.878,13.197 0.827,0.854 2.819,2.003 3.123,1.731 5.711,-5.099 5.313,0.269 6.38,3.507 0.576,1.749 1.237,3.937 3.62,3.886 2.216,-0.047 4.007,-1.932 3.526,-3.743 -2.032,-7.664 3.615,-12.046 7.734,-17.656 z m -14.916,-22.68 c -15.193,5.26 -26.83,-9.587 -41.594,-6.752 13.908,2.005 24.762,21.288 41.594,6.752 z m -52.257,41.474 c 11.25,3.237 20.479,5.712 27.902,12.744 -12.538,1.357 -12.557,1.384 -9.777,14.949 -0.827,-12.758 15.455,-5.114 16.498,-15.058 -3.64,-4.878 -14.24,-3.202 -13.045,-13.448 0.025,-0.223 -1.307,-0.868 -1.36,-0.801 -5.705,7.145 -12.159,-2.784 -20.218,1.614 z m 11.824,-14.455 c -5.28,-1.71 -7.339,0.556 -7.68,4.28 -0.421,4.593 3.363,3.834 6.072,3.897 2.22,0.052 5.023,0.369 6.584,-0.773 9.101,-6.666 12.653,-1.914 13.982,6.674 0.426,2.747 1.726,4.919 3.728,4.51 3.172,-0.648 1.487,-3.498 0.955,-5.529 -3.459,-13.194 -14.677,-12.29 -23.641,-13.059 z m -42.022,10.627 c 6.455,-8.749 9.271,-17.619 1.671,-27.253 -1.187,-1.503 -2.13,-3.625 -4.412,-2.229 -2.112,1.292 -1.56,3.604 -0.291,5.004 5.581,6.158 3.857,12.72 1.482,19.398 -0.7,1.969 -0.765,3.76 1.55,5.08 z m 26.035,-48.919 c -9.146,-4.493 -17.538,-5.235 -26.099,-5.395 -3.652,-0.068 -8.926,0.23 -9.137,3.147 -0.243,3.393 -2.126,8.813 3.584,11.966 5.729,-16.984 19.625,-7.938 31.652,-9.718 z m 67.58,61.919 c -2.888,0.757 -5.62,3.329 -9.338,3.076 -2.887,-0.197 -4.213,1.61 -2.511,4.337 1.72,2.757 1.725,8.763 5.978,7.27 5.95,-2.088 8.119,-7.788 5.871,-14.683 z m -30.322,-79.537 c 7.584,14.268 21.562,9.439 33.167,11.849 -9.994,-6.901 -22.975,-5.388 -33.167,-11.849 z m -28.98,28.812 c -5.422,-1.534 -10.81,-3.205 -16.279,-4.542 -2.68,-0.656 -5.217,-0.259 -5.332,3.464 -0.098,3.135 1.994,3.611 4.415,3.637 5.621,0.061 11.283,1.128 17.196,-2.559 z m 5.557,61.624 c 2.244,-3.025 -2.152,-8.521 4.491,-9.062 -4.176,-3.938 -9.295,-4.697 -11.842,0.532 -2.557,5.251 3.336,6.462 7.351,8.53 z"
       stroke-miterlimit="10"
       clip-rule="evenodd"
       inkscape:connector-curvature="0"
       style="fill:#cdeacf;fill-rule:evenodd;stroke:#000000;stroke-miterlimit:10;fill-opacity:1" />
    <path
       style="fill:#cdeacf;fill-rule:evenodd;stroke:#000000;stroke-miterlimit:10;fill-opacity:1"
       inkscape:connector-curvature="0"
       clip-rule="evenodd"
       stroke-miterlimit="10"
       d="m -674.91142,316.21393 c -0.091,-3.638 -2.899,-5.859 -4.631,-8.599 -1.766,-2.794 -4.031,-5.296 -5.369,-8.349 -1.079,-2.461 -3.881,-2.59 -5.395,-4.381 2.129,-0.481 3.913,0.621 5.28,1.801 7.975,6.877 17.639,11.449 25.379,18.594 7.354,6.789 14.216,14.05599 20.767,21.64299 5.373,6.225 11.484,11.865 16.182,18.618 6.081,8.744 9.977,18.515 11.064,29.208 0.424,4.166 2.339,8.072 1.927,12.37 -0.124,1.29 0.854,2.188 1.72,3.031 1.801,1.753 3.614,3.49 5.42,5.231 0.791,1.861 1.274,4.004 3.84,4.279 2.323,2.867 6.405,4.954 6.97,8.597 0.125,0.807 3.108,6.784 4.499,9.335 2.26,4.15 3.729,8.521 5.269,12.912 1.381,3.943 4.321,6.854 6.804,10.06 5.061,6.534 9.499,13.243 11.952,21.403 2.417,8.039 5.02,15.953 5.711,24.357 0.187,2.262 0.609,4.631 0.16,6.791 -0.758,3.634 0.739,5.947 3.315,8.075 5.611,4.634 8.003,11.392 11.615,17.388 3.317,5.507 2.468,11.236 2.604,17 0.086,3.596 -0.177,7.223 0.193,10.785 0.875,8.43 -1.563,16.307 -3.992,24.104 -1.735,5.575 -4.146,10.998 -6.787,16.22 -3.725,7.365 -8.709,13.945 -15.727,18.446 -5.953,3.819 -10.157,9.384 -15.271,14.021 -4.174,3.786 -9.233,5.421 -14.232,7.134 -6.667,2.284 -13.618,1.71 -20.558,0.981 -3.655,-0.385 -6.808,-1.509 -9.24,-4.132 -3.278,-3.536 -7.21,-4.199 -11.767,-3.756 -7.301,0.712 -14.126,-0.795 -20.619,-4.459 -2.991,-1.688 -6.769,-0.999 -10.194,-1.321 -4.116,-0.387 -8.208,-0.648 -12.324,-1.324 -3.902,-0.642 -8.437,-1.211 -12.649,-0.111 -2.38,0.622 -4.713,0.88 -6.785,-0.834 -1.486,-1.227 -3.231,-0.612 -4.849,-0.673 -1.813,-0.068 -3.296,-0.606 -4.34,-2.067 -0.77,-1.077 0.27,-1.074 0.899,-1.266 4.01,2.838 5.598,-0.729 7.707,-2.914 0.406,-0.2 0.813,-0.4 1.219,-0.601 2.796,-0.929 3.385,-2.679 5.847,-5.489 1.313,-1.499 6.891,-5.748 6.489,-8.722 1.301,0.353 2.602,0.706 3.902,1.059 1.328,2.643 3.333,5.256 -0.924,7.339 -1.837,0.9 -1.057,2.983 -1.086,4.598 -0.014,0.741 0.301,1.596 1.131,1.588 1.733,-0.017 1.668,-1.77 2.376,-2.781 0.203,-0.291 0.413,-0.583 0.658,-0.839 5.117,-5.351 5.379,-12.322 0.64,-18.341 -0.632,-0.803 -1.423,-1.793 -0.55,-2.508 3.735,-3.056 5.188,-8.396 9.682,-10.45 6.928,-3.166 13.885,-6.61 21.851,-6.289 4.928,0.199 9.812,0.085 14.624,-1.2 1.387,-0.371 2.856,-0.295 4.269,0.163 2.604,0.844 3.748,0.176 3.568,-2.837 -0.18,-3.029 6.152,-6.985 7.989,-4.998 3.361,3.639 4.874,1.891 6.455,-1.368 0.302,-0.622 0.835,-1.2 1.396,-1.614 1.88,-1.387 1.688,-2.736 0.478,-4.58 -4.915,-7.499 -8.627,-15.443 -8.468,-24.715 0.023,-1.345 0.585,-3.377 -1.187,-3.721 -1.679,-0.326 -2.516,1.512 -3.187,2.902 -0.355,0.739 -0.508,1.592 -0.667,2.41 -1.256,6.483 -0.661,12.896 0.988,19.213 0.776,2.974 0.498,5.52 -2.053,7.413 -5.35,3.97 -10.965,7.315 -18.017,6.876 -3.341,-0.208 -6.768,-0.94 -10.012,-0.461 -10.335,1.525 -19.361,5.902 -26.699,13.53 -4.806,4.996 -10.355,8.337 -17.683,7.818 -4.384,-0.31 -6.824,-4.226 -10.624,-5.411 -7.75,-2.42 -9.192,-7.344 -7.03,-15.319 0.571,-2.104 0.653,-4.249 0.755,-6.411 0.335,-7.088 -1.019,-13.998 -1.981,-20.959 -0.747,-5.406 0.196,-10.46 3.58,-14.934 4.193,-5.543 6.736,-11.717 7.81,-18.659 1.438,-9.308 1.079,-18.651 1.278,-27.989 0.098,-4.573 1.881,-7.761 6.393,-9.311 5.769,-1.983 11.392,-4.426 17.229,-6.157 8.583,-2.545 13.4,-7.426 13.608,-16.918 0.091,-4.113 -0.362,-8.61 2.229,-12.554 2.334,-3.549 3.619,-3.959 6.553,-1.042 1.352,1.343 2.719,2.593 3.493,4.479 2.815,6.861 5.778,13.662 8.736,20.462 2.176,5 2.238,9.956 -0.062,14.923 -1.056,2.282 -2.114,4.563 -3.139,6.859 -0.455,1.021 -0.779,2.074 0.406,2.881 1.165,0.793 2.269,0.69 3.23,-0.33 0.737,-0.781 1.768,-1.516 2.049,-2.457 0.96,-3.217 3.516,-4.423 6.282,-5.316 4.25,-1.371 5.888,-5.612 2.615,-8.752 -6.403,-6.147 -9.303,-13.955 -12.102,-21.988 -1.812,-5.195 -4.249,-10.166 -7.526,-14.619 -1.921,-2.609 -4.818,-4.5 -7.982,-3.935 -3.544,0.632 -7.283,1.751 -8.68,6.007 -1.419,4.325 -3.174,8.541 -4.563,12.876 -2.279,7.116 -7.03,11.5 -14.17,13.436 -2.581,0.7 -5.087,1.761 -6.961,3.614 -2.65,2.619 -4.901,2.037 -7.559,0.097 -2.125,-1.552 -3.043,-3.683 -3.576,-6.013 -0.623,-2.719 -1.535,-5.303 -2.871,-7.725 -4.67,-8.459 -9.478,-16.746 -15.441,-24.488 -4.378,-5.682 -9.692,-9.351 -15.605,-12.705 -0.302,-0.668 -0.605,-1.338 -0.907,-2 2.388,-0.989 4.54,-0.486 6.828,0.621 3.511,1.701 6.897,3.848 11.048,3.848 1.918,0 2.645,1.311 2.719,3.111 0.078,1.897 0.003,3.895 2.142,4.906 2.46,1.938 5.723,1.383 8.38,2.701 1.253,2.554 2.507,5.11 3.762,7.666 -0.169,1.781 -0.295,3.566 -0.514,5.34 -0.575,4.658 1.113,8.078 5.23,10.461 2.006,1.158 3.908,2.17 5.871,0.393 1.841,-1.664 2.473,-3.777 1.068,-6.125 0.415,-1.007 -0.086,-1.668 -0.944,-1.971 -0.849,-0.299 -1.687,-0.197 -1.855,0.979 -3.762,-0.102 -3.976,-0.498 -2.506,-4.647 1.139,0.254 1.756,-0.64 2.449,-1.216 4.568,-3.797 4.924,-3.747 8.389,1.148 0.585,0.827 1.267,1.979 2.563,0.967 2.277,-1.775 1.488,-8.234 -1.139,-9.576 -5.629,-5.421 -9.224,-12.293 -13.454,-18.721 -1.752,-2.662 -2.822,-5.801 -5.377,-7.92 -1.18,-3.239 -4.03,-5.406 -5.451,-8.504 -0.509,-1.107 -1.332,-0.528 -2.105,-0.119 -3.039,1.605 -6.652,8.592 -6.237,12.16 0.083,0.715 0.266,1.512 -0.48,1.932 -0.778,0.439 -1.34,-0.248 -1.893,-0.657 -1.921,-1.422 -3.727,-3.019 -5.743,-4.282 -3.684,-2.31 -6.333,-1.999 -8.626,0.738 -0.501,0.339 -0.9,0.921 -1.494,1.014 -1.093,0.171 -1.488,-0.112 -1.929,1.156 -0.169,0.486 -0.42,1.056 -0.893,1.261 -0.892,0.387 -0.921,0.653 -1.678,1.241 -0.511,0.397 -1.39,0.201 -1.934,-0.145 -0.541,-0.344 -0.602,-0.351 -1.223,-0.232 -0.491,0.094 -0.959,-0.284 -1.439,-0.426 0.077,-0.146 0.144,-0.298 0.198,-0.454 1.815,-2.784 3.476,-5.804 6.385,-7.538 3.574,-2.131 6.337,-5.101 9.23,-7.957 1.711,-1.688 3.537,-3.201 5.466,-4.646 6.02,-4.512 12.119,-8.947 17.838,-13.822 4.839,-4.125 8.275,-4.385 12.526,0.375 4.998,5.596 8.04,12.523 11.03,19.181 2.709,6.032 6.802,8.933 12.62,10.34 5.073,1.229 10.269,0.607 15.415,0.626 1.632,0.006 4.096,0.174 4.312,-1.455 0.215,-1.625 -2.15,-2.336 -3.786,-2.678 -4.358,-0.914 -8.64,-2.179 -12.621,-4.08 -6.49,-3.102 -12.785,-6.58 -16.133,-13.549 -1.657,-3.45 -3.853,-6.556 -6.124,-9.667 -1.705,-2.335 -2.944,-5.798 -0.503,-8.649 3.395,-3.965 7.652,-6.927 12.609,-8.584 2.751,-0.919 4.533,-2.473 5.624,-5.074 3.145,-7.506 3.746,-15.34 2.682,-23.27699 -0.352,-2.658 -0.002,-5.976 -3.347,-7.429 z m -8.839,171.75399 0.195,0.161 c 1.197,2.308 3.547,3.128 5.159,1.595 1.693,-1.611 1.018,-4.051 -1.183,-5.534 -0.658,-0.69 -1.316,-1.382 -1.975,-2.073 0.091,-1.19 -0.691,-1.465 -1.641,-1.563 -0.155,-0.212 -0.31,-0.424 -0.464,-0.637 0.037,-0.613 0.074,-1.228 0.112,-1.842 l 0.157,-0.174 c 1.434,0.011 2.88,-0.094 4.299,0.058 2.963,0.315 5.161,2.132 5.396,4.922 0.639,7.638 5.838,11.509 11.362,15.537 3.872,2.823 8.074,0.728 12.015,1.782 1.919,0.514 4.117,1.805 6.139,-0.042 3.953,-3.612 8.973,-6.21 11.117,-11.544 0.452,-1.128 2.707,-1.902 1.456,-3.171 -1.317,-1.335 -2.785,0.009 -4.01,1.077 -1.892,1.648 -3.973,3.082 -5.821,4.775 -2.754,2.525 -6.122,2.665 -9.439,2.35 -6.572,-0.623 -8.902,-3.847 -7.529,-9.871 0.303,-0.422 0.606,-0.844 0.909,-1.267 1.475,-0.822 2.954,-1.642 2.771,-3.702 0.161,-0.65 0.32,-1.301 0.479,-1.949 0.274,-0.367 0.626,-0.699 0.811,-1.106 2.788,-6.157 1.078,-12.472 0.597,-18.737 -0.029,-0.391 -0.396,-0.988 -0.719,-1.077 -0.957,-0.263 -1.68,0.428 -2.024,1.149 -1.83,3.829 -5.446,5.961 -8.228,8.883 -1.711,1.797 -3.276,2.756 -5.341,0.435 -1.085,-1.22 -2.666,-1.517 -4.291,-1.433 -3.831,0.197 -7.581,0.893 -11.33,1.669 -1.418,0.294 -1.702,1.071 -1.717,2.243 -1.83,0.127 -2.943,1.367 -4.054,2.611 -3.104,1.313 -4.482,3.604 -3.332,6.225 1.482,3.377 3.611,6.301 7.322,7.615 0.495,0.5 0.99,1 1.484,1.5 0.056,0.825 0.509,1.187 1.318,1.135 z m 89.016,5.382 c -1.554,2.685 -1.368,3.138 1.543,3.762 0.701,-0.304 1.402,-0.606 2.103,-0.909 0.732,0.335 1.052,0.16 0.837,-0.676 0.418,-0.218 0.836,-0.434 1.254,-0.651 4,-1.095 5.215,2.374 6.971,4.539 3.678,4.532 3.943,4.526 8.961,2.364 5.458,-2.353 6.705,-10.576 4.241,-15.266 -2.252,-4.286 -5.65,-5.015 -10.482,-4.848 -5.942,0.205 -8.564,4.084 -11.411,8.112 -1.743,0.739 -2.897,2.136 -4.017,3.573 z m 49.467,51.174 c 0.118,0.918 0.237,1.838 0.356,2.756 -0.763,2.504 0.061,4.771 0.968,7.898 1.664,-2.979 1.717,-5.342 1.279,-7.792 0.485,-4.415 1.081,-8.839 -1.213,-12.993 -1.109,-3.38 -1.187,-7.283 -4.73,-9.869 -0.517,5.771 0.187,9.387 3.023,16.23 -0.167,0.973 -0.147,1.927 0.264,2.846 -0.482,0.336 -0.584,0.651 0.053,0.924 z m -79.042,-94.479 c -0.501,-3.395 -2.446,-6.2 -3.773,-9.259 -0.286,-2.018 -2.053,-3.082 -3.04,-4.65 -0.55,-0.873 -1.693,-1.258 -2.381,-0.232 -0.916,1.367 -2.194,2.005 -3.57,2.709 -1.16,0.596 -1.57,1.775 -1.034,3.061 0.807,1.936 1.68,3.842 2.523,5.76 0.162,0.633 0.324,1.265 0.484,1.897 1.074,2.813 2.408,5.427 4.217,7.906 2.544,3.489 5.16,1.289 7.446,0.286 2.482,-1.088 0.819,-3.302 0.317,-4.992 -0.253,-0.854 -0.267,-1.917 -1.189,-2.486 z m 3.503,-63.081 c -2.667,-4.215 -3.258,-9.268 -3.768,-14.197 2.094,3.054 3.884,6.273 5.233,9.761 0.076,-4.536 -1.651,-8.681 -2.652,-12.934 -0.798,-3.389 -1.895,-6.853 -4.233,-9.772 -2.585,-3.227 -4.809,-6.746 -7.131,-10.178 -0.555,-0.82 -1.054,-1.928 -2.133,-1.346 -1.386,0.746 -0.536,1.863 0.079,2.716 2.39,3.31 3.672,7.147 5.268,10.844 -2.629,-1.151 -3.111,-4.153 -5.132,-5.948 0.763,3.833 1.728,7.551 3.002,11.158 0.29,0.821 3.128,7.002 3.179,7.132 0.129,0.331 2.463,4.418 3.084,6.679 0.437,1.589 2.482,5.09 2.381,5.824 -0.32,2.303 0.543,3.598 1.206,5.294 0.739,1.896 1.962,3.871 0.418,5.747 -2.108,2.561 -1.745,5.307 -1.244,8.184 0.861,4.953 2.274,9.904 2.368,14.878 0.179,9.503 6.233,15.716 11.4,22.501 0.62,0.816 1.679,1.357 2.627,1.85 0.862,0.447 1.953,0.626 2.655,-0.218 0.644,-0.774 0.021,-1.628 -0.447,-2.293 -2.821,-4.015 -4.411,-8.448 -4.742,-13.347 -0.056,-0.831 -0.112,-1.737 -0.469,-2.461 -4.059,-8.252 -6.837,-17.008 -10.111,-25.567 -0.675,-1.763 -1.283,-3.276 0.971,-4.573 1.154,-0.665 0.927,-1.259 0.269,-3.391 -0.228,-0.739 -1.027,-4.682 -2.078,-6.343 z m 29.319,228.633 c -1.458,0.742 -7.457,8.248 -7.647,9.575 -0.109,0.765 0.096,1.421 0.707,1.921 3.307,2.703 11.955,0.859 14.141,-3.012 1.032,-0.496 1.776,-1.273 2.259,-2.307 0.426,-0.152 1.034,-0.175 1.248,-0.478 2.582,-3.651 2.516,-13.401 -0.132,-16.861 -1.418,-1.854 -3.579,-1.854 -4.477,-0.07 -1.486,2.95 -3.224,5.758 -4.695,8.71 -0.468,0.84 -0.936,1.681 -1.404,2.522 z m -75.822,-265.372 c -0.414,1.582 -2.152,2.424 -3.427,3.516 -1.806,1.547 -3.353,4.059 -1.567,6.289 2.197,2.746 3.444,5.938 5.203,8.873 1.445,2.409 3.459,3.525 6.1,3.766 1.836,0.168 3.376,-0.418 3.976,-2.306 0.558,-1.755 0.143,-3.37 -1.485,-4.392 -1.438,-0.902 -2.802,-1.826 -3.566,-3.406 0.425,-1.627 1.254,-1.914 2.885,-1.316 1.566,0.574 3.193,-0.124 4.14,-1.459 0.754,-1.063 0.36,-1.902 -0.398,-3.458 -0.342,-0.7 -3.229,-4.106 -1.722,-5.431 1.202,-1.055 2.38,0.397 3.526,0.896 0.108,0.048 0.211,0.112 0.318,0.162 0.972,0.455 1.995,1.104 2.92,0.033 0.811,-0.938 0.646,-2.029 -0.02,-2.979 -2.065,-2.949 -3.146,-6.365 -4.684,-9.565 -1.174,-2.444 -2.742,-4.729 -4.359,-6.92 -1.187,-1.606 -3.529,-2.595 -4.274,-0.33 -1.224,3.723 -3.104,7.641 -2.038,11.646 0.426,1.604 0.917,3.103 0.272,4.451 -0.162,0.335 -1.55,0.976 -1.8,1.93 z m 8.004,238.942 c 1.201,1.51 3.239,2.237 3.229,4.861 -0.005,1.496 1.873,1.82 3.38,1.021 3.465,0.504 6.715,0.094 9.515,-2.233 6.774,-1.022 8.319,-3.662 5.819,-9.946 -1.298,-3.262 -3.474,-3.717 -6.515,-1.362 -1.352,-0.469 -3.03,-0.587 -3.988,-1.478 -2.184,-2.032 -3.554,-1.273 -4.82,0.812 -0.864,1.427 -2.018,1.487 -3.396,0.94 -2.446,-0.97 -5.596,-2.367 -7.194,0.063 -2.083,3.168 1.438,4.966 3.372,6.935 0.164,0.164 0.397,0.26 0.598,0.387 z m -21.901,-169.051 c 1.982,-0.066 3.067,-1.667 4.518,-2.642 3.168,-1.239 5.81,-3.568 9.158,-4.435 0.835,-0.217 1.646,-0.541 1.714,-1.539 0.084,-1.269 -1.021,-1.506 -1.876,-1.783 -3.979,-1.297 -7.982,-2.525 -11.978,-3.777 -1.896,-1.456 -3.127,-4.235 -6.502,-2.036 -1.557,1.015 -1.981,-1.233 -2.032,-2.436 -0.095,-2.194 -0.625,-4.128 -1.703,-6.087 -1.378,-2.5 -3.328,-4.612 -4.443,-7.309 -0.868,-2.096 -2.403,-4.114 -5.161,-3.533 -2.702,0.57 -3.31,2.788 -3.337,5.229 -1.667,1.882 -1.423,3.301 0.036,5.611 0.379,0.601 0.29,3.75 1.558,4.855 0.237,0.207 0.736,1.733 1.222,2.313 1.642,1.961 3.45,3.165 3.895,5.753 1.018,5.92 5.248,9.156 10.21,11.699 1.507,2.712 3.079,2.85 4.721,0.117 z m 17.107,138.198 c 2.12,-0.159 4.253,-0.233 6.359,-0.502 2.309,-0.294 3.94,-1.763 3.762,-4.032 -0.26,-3.324 1.436,-6.553 0.13,-9.926 -0.598,-1.545 0.531,-2.398 2.145,-2.512 1.187,-0.084 2.388,-0.165 3.545,-0.418 2.054,-0.447 5.029,-1.738 3.977,-3.58 -2.058,-3.598 1.433,-9.528 -4.405,-11.105 -2.891,-0.781 -6.098,-0.362 -8.868,1.326 -2.688,0.764 -5.51,1.229 -8.032,2.36 -4.316,1.937 -8.445,4.294 -12.653,6.474 -1.479,-0.529 -2.593,0.348 -3.571,1.154 -1.042,0.857 -3.355,0.388 -3.167,2.333 0.149,1.558 2.088,1.234 3.213,1.787 0.511,0.25 1.311,0.464 1.115,1.181 -0.13,0.48 -0.682,0.987 -1.169,1.204 -1.994,0.888 -4.174,0.946 -6.301,1.228 -1.112,0.146 -2.745,-0.331 -2.813,1.401 -0.069,1.777 1.445,2.027 2.833,1.896 2.381,-0.227 3.633,0.613 3.632,3.152 0,1.826 1.212,2.305 2.883,2.404 2.634,0.157 4.966,-0.311 7.001,-2.121 0.537,-0.479 1.471,-1.18 2.205,-0.264 0.529,0.658 -0.029,1.404 -0.453,1.941 -1.26,1.594 -2.535,3.114 -4.641,3.784 -2.483,0.791 -4.896,1.82 -7.294,2.853 -0.737,0.316 -1.525,0.912 -1.392,1.896 0.143,1.062 1.063,1.168 1.921,1.213 1.188,0.06 2.125,0.104 2.959,1.424 2.198,3.479 5.234,3.223 7.716,-0.409 3.598,-1.32 6.228,-4.115 9.363,-6.142 z m 114.855,-12.682 c -3.961,2.876 -5.217,2.88 -7.208,-0.35 -3.443,-5.585 -6.642,-11.323 -9.894,-17.024 -2.306,-4.042 -4.233,-8.335 -8.234,-11.136 -1.451,-1.018 -3.298,-1.463 -4.36,-3.047 -4.569,-6.811 -11.242,-10.129 -19.097,-11.491 -2.938,-0.509 -4.449,-2.265 -4.271,-5.255 0.354,-5.984 0.771,-11.965 2.881,-17.666 0.722,-1.949 1.684,-3.813 3.407,-4.982 5.59,-3.796 11.662,-6.537 18.316,-7.892 1.188,-0.241 3.044,0.394 3.06,-1.572 0.014,-1.689 -1.615,-2.269 -3.013,-2.646 -5.536,-1.499 -11.294,-1.835 -16.747,-0.532 -4.514,1.078 -8.213,1.844 -11.375,-2.434 -0.521,-0.703 -1.837,-2.116 -3.016,-1.06 -0.882,0.792 -0.553,2.313 -0.206,3.445 0.808,2.63 2.285,5.153 2.583,7.821 1.234,11.037 -1.156,21.651 -4.555,32.058 -0.809,2.476 -3.022,3.616 -5.563,3.934 -1.392,0.175 -3.099,0.821 -4.053,-0.476 -1.117,-1.52 0.38,-2.6 1.345,-3.64 0.572,-0.617 1.325,-1.278 0.67,-2.163 -0.688,-0.93 -1.695,-0.791 -2.584,-0.244 -1.523,0.936 -2.868,2.123 -4.67,2.628 -5.11,1.431 -9.795,3.875 -14.211,6.723 -12.318,7.944 -24.905,7.905 -37.157,-0.392 -1.172,-0.793 -2.481,-1.482 -3.618,-0.559 -1.167,0.949 -0.645,2.433 -0.111,3.67 1.298,3.018 1.275,6.066 0.15,9.096 -0.643,1.729 -0.781,3.506 -0.851,5.303 -0.04,1.041 -0.437,2.322 0.642,2.989 1.237,0.765 2.328,-0.168 3.248,-0.878 5.717,-4.409 12.483,-5.881 19.374,-7.02 1.405,-0.232 2.812,-0.229 4.19,-0.84 5.582,-2.473 11.498,-3.992 17.359,-5.584 8.66,-2.352 17.642,-3.363 26.252,-5.988 1.416,-0.431 2.869,-0.432 4.239,0.147 6.184,2.615 12.805,3.723 19.219,5.534 2.687,0.758 4.54,2.342 6.49,4.133 5.793,5.324 9.601,12.041 13.712,18.601 4.867,7.768 10.11,15.3 15.199,22.929 0.584,0.875 1.115,2.129 2.406,1.689 1.039,-0.354 0.981,-1.575 0.926,-2.525 -0.252,-4.26 -0.555,-8.519 -0.874,-13.304 z m -39.442,21.714 c -0.152,1.743 -0.234,4.389 -0.643,6.982 -0.946,6.008 -1.484,12.131 -4.696,17.551 -2.864,4.832 -5.561,9.763 -8.475,14.563 -5.201,8.568 -10.003,17.533 -20.317,21.278 -1.268,0.46 -2.843,1.45 -2.403,3.15 0.412,1.597 1.994,2.343 3.553,2.728 1.635,0.404 2.838,-0.238 3.385,-1.862 0.483,-1.438 1.466,-2.463 2.618,-3.348 7.144,-5.487 13.944,-11.302 17.781,-19.741 2.316,-5.094 6.74,-8.908 8.285,-14.537 0.839,-3.057 3.994,-3.727 7.15,-2.543 3.113,1.166 4.989,3.393 6.476,6.262 1.998,3.855 5.33,5.668 8.382,4.729 3.909,-1.204 3.249,-4.574 3.261,-7.498 0.025,-5.999 -0.009,-11.973 3.344,-17.342 0.597,-0.955 1.298,-2.234 -0.502,-2.937 -2.858,-1.114 -3.315,-3.44 -3.251,-6.159 0.102,-4.358 -1.107,-8.529 -2.118,-12.716 -0.254,-1.054 -0.724,-2.122 -1.672,-2.702 -1.518,-0.929 -3.318,-1.191 -3.482,1.125 -0.489,6.945 -0.841,13.979 3.253,20.16 1.353,2.043 1.477,4.028 0.8,6.139 -0.62,1.934 -1.484,3.793 -2.31,5.655 -1.562,3.524 -4.95,4.743 -8.147,2.44 -4.093,-2.947 -6.885,-5.738 -3.901,-9.455 2.05,-2.552 3.344,-5.524 2.545,-9.01 -2.554,-11.139 -7.683,-21.359 -11.423,-32.074 -0.356,-1.021 -1.012,-2.039 -2.361,-1.758 -1.337,0.279 -1.482,1.429 -1.49,2.542 -0.019,2.559 0.271,5.013 2.188,6.997 0.563,0.582 1.206,1.336 1.302,2.078 0.795,6.167 2.957,12.119 2.868,19.303 z m -39.942,-142.448 c 0.673,-1.304 -0.106,-2.419 -0.497,-3.458 -2.467,-6.564 -4.038,-13.286 -3.234,-20.323 0.699,-6.112 0.393,-12.164 -0.134,-18.264 -0.884,-10.237 -4.475,-19.688 -7.973,-29.186 -0.161,-0.435 -0.417,-0.876 -0.743,-1.199 -0.551,-0.544 -1.288,-0.724 -1.975,-0.324 -0.601,0.35 -0.633,1.032 -0.347,1.588 1.617,3.147 1.646,6.706 2.531,10.04 2.712,10.223 6.11,20.338 2.622,31.289 -3.256,10.221 1.034,19.271 6.195,27.857 0.692,1.149 1.883,2.171 3.555,1.98 z m 48.14,109.249 c 1.202,-3.641 -1.643,-6.766 -4.034,-9.479 -2.588,-2.936 -5.873,-5.696 -10.295,-5.68 -5.307,0.019 -12.418,6.306 -12.939,11.588 -0.179,1.811 -0.709,2.722 -2.397,3.41 -4.411,1.801 -5.543,4.357 -4.308,9.067 0.516,1.965 1.488,3.761 3.647,3.957 2.308,0.21 3.727,-1.407 4.523,-3.418 0.748,-1.89 1.218,-3.903 2.612,-5.47 2.561,-2.871 4.038,-6.126 3.889,-10.063 -0.064,-1.683 0.672,-3.085 2.352,-3.661 1.777,-0.607 2.98,0.421 3.952,1.746 2.402,3.276 4.698,6.613 6.654,10.193 1.168,2.137 2.842,5.465 4.826,4.996 2.264,-0.533 1.301,-4.115 1.518,-7.186 z m -31.097,49.306 c -0.197,-1.169 0.518,-3.228 -1.181,-3.591 -2.054,-0.438 -1.622,1.936 -2.171,3.076 -2.601,5.396 -7.208,9.52 -12.064,11.696 -8.362,3.747 -17.276,6.792 -26.725,7.134 -0.586,0.021 -1.2,0.16 -1.739,0.391 -0.844,0.361 -2.02,0.58 -1.894,1.823 0.123,1.224 1.24,1.306 2.19,1.413 4.213,0.475 8.335,0.09 12.36,-1.294 9.557,-3.283 19.122,-6.386 29.418,-3.296 1.161,0.35 2.9,0.639 3.509,-0.889 0.489,-1.229 -0.857,-2.121 -1.611,-2.979 -0.529,-0.604 -1.335,-1.019 -2.087,-1.363 -3.914,-1.797 -4.097,-2.637 -0.788,-5.627 1.925,-1.735 2.898,-3.746 2.783,-6.494 z m 7.929,-158.912 c -0.127,4.765 0.169,8.575 1.254,12.266 0.452,1.536 1.434,2.915 3.322,2.688 1.918,-0.232 2.555,-1.766 2.409,-3.422 -0.284,-3.188 -0.486,-6.435 -1.277,-9.515 -1.658,-6.455 -4.3,-12.509 -8.308,-17.929 -0.999,-1.352 -1.301,-4.154 -3.528,-2.764 -1.831,1.143 0.515,2.84 0.961,4.296 0.133,0.433 0.585,0.757 0.804,1.177 2.328,4.437 6.401,8.345 4.363,13.203 z m -2.633,154.054 c 0.007,2.995 0.203,5.999 1.573,8.703 1.328,2.619 3.226,2.668 4.884,0.251 2.691,-3.921 3.792,-8.429 4.523,-13.028 0.451,-2.839 -0.976,-4.194 -3.794,-4.365 -5.436,-0.329 -7.182,1.69 -7.186,8.439 z m 51.384,14.507 c 3.138,-3.542 5.326,-7.275 5.339,-11.922 0.008,-2.926 -1.943,-4.344 -4.385,-3.43 -4.482,1.68 -6.477,7.183 -4.004,11.279 0.837,1.386 1.941,2.611 3.05,4.073 z m -98.278,24.373 c -2.13,0.155 -4.321,-0.274 -6.396,0.594 -1.416,0.592 -1.947,1.667 -1.827,3.153 0.122,1.503 1.297,1.33 2.313,1.674 2.403,0.814 4.784,0.633 7.253,0.571 3.531,-0.088 7.255,-0.711 10.407,1.747 1.424,1.11 3.089,1.916 4.39,0.125 1.28,-1.762 -0.062,-3.164 -1.38,-4.283 -0.713,-0.604 -1.551,-1.232 -2.43,-1.439 -4.061,-0.96 -8.009,-2.635 -12.33,-2.142 z m 23.384,0.301 c 2.244,0.1 3.632,0.102 4.798,-1.05 2.251,-2.223 1.378,-4.794 1.109,-7.397 -0.312,-3.019 -2,-3.877 -4.655,-3.428 -4.183,0.706 -8.012,2.34 -11.443,4.828 -1.684,1.222 -1.596,2.342 0.207,3.598 3.268,2.277 6.976,2.982 9.984,3.449 z m 73.881,-90.256 c 0,-0.952 0.048,-1.908 -0.012,-2.857 -0.078,-1.231 0.407,-2.873 -1.519,-3.093 -1.606,-0.183 -2.331,1.098 -2.762,2.347 -1.248,3.624 -0.172,7.035 1.226,10.361 0.258,0.613 0.806,1.391 1.604,1.086 0.391,-0.148 0.619,-0.932 0.77,-1.471 0.581,-2.082 0.669,-4.222 0.693,-6.373 z m -62.436,48.696 c 0.01,-2.958 -2.068,-6.297 -3.711,-5.938 -1.575,0.346 -1.737,1.805 -1.756,3.132 -0.033,2.333 2.485,6.093 3.932,5.817 1.781,-0.34 1.371,-1.944 1.535,-3.011 z m -31.586,-192.112 c -2.403,0.065 -4.069,0.9 -4.016,3.319 0.063,2.833 2.077,3.925 4.568,4.014 2.362,0.085 3.574,-1.686 3.618,-3.671 0.06,-2.671 -2.008,-3.515 -4.17,-3.662 z m 58.767,49.129 c 0.094,2.236 0.023,4.244 -1.08,6.064 -0.359,0.594 -0.916,1.234 -0.106,1.861 0.622,0.482 1.341,0.313 2.037,0.09 2.645,-0.842 3.663,-3.777 2.653,-7.888 -0.413,-1.678 -0.537,-4.259 -2.692,-3.966 -1.781,0.243 -0.382,2.658 -0.812,3.839 z m -100.338,90.392 c -0.037,-1.1 0.278,-2.36 -1.356,-2.48 -1.295,-0.097 -1.972,0.627 -2.205,1.864 -0.153,0.809 -0.101,1.901 -0.604,2.359 -3.186,2.908 -0.559,4.851 1.013,6.986 0.37,0.504 0.885,0.901 1.518,0.762 0.916,-0.2 0.862,-1.02 0.864,-1.729 0.007,-2.626 -0.334,-5.285 0.77,-7.762 z m 25.373,89.97 c 2.154,-0.129 3.482,-1.074 3.46,-3.064 -0.03,-2.631 -1.905,-3.424 -4.157,-3.256 -2.168,0.16 -4.79,0.586 -4.521,3.4 0.29,3.042 3.504,2.086 5.218,2.92 z m -14.885,-242.086 c -0.22,-1.979 -1.415,-3.368 -3.881,-3.415 -1.535,-0.028 -2.712,0.617 -2.49,2.296 0.335,2.535 2.396,3.495 4.54,3.896 1.633,0.307 1.852,-1.098 1.831,-2.777 z m 17.855,11.803 c 0.006,-0.999 -0.372,-2.155 -2.194,-1.989 -1.702,0.154 -2.576,1.123 -2.524,2.819 0.055,1.78 1.145,2.53 2.813,2.452 1.811,-0.085 1.933,-1.419 1.905,-3.282 z"
       id="path7" />
    <path
       style="fill:#cdeacf;fill-opacity:1;stroke:#000000;stroke-width:1px;stroke-linecap:butt;stroke-linejoin:miter;stroke-opacity:1"
       d="m -703.92416,888.22729 c 0,0 0,-185 0,-255 85,5 75,20 100,20 10,0 50,-25 65,-60 0,70 0,295 0,295 z"
       id="path4587-5"
       inkscape:connector-curvature="0"
       sodipodi:nodetypes="ccsccc" />
    <path
       style="fill:#cdeacf;fill-opacity:1;stroke:#000000;stroke-width:0.70137709000000004px;stroke-linecap:butt;stroke-linejoin:miter;stroke-opacity:1"
       d="m -544.92416,141.22729 c -70,0 -130,0 -130,0 l -10e-5,140 c 15,15 50,50 70,80 20,30 45,75 65,150 l 10e-5,-245 c 0,0 78.4221,-0.73851 125,0 -35,-15 -100,-75 -130,-125 z"
       id="path3106-4-3"
       inkscape:connector-curvature="0"
       sodipodi:nodetypes="cccscccc" />
    <g
       transform="translate(-484.58446,605.55435)"
       style="font-size:40px;font-style:normal;font-weight:normal;text-align:start;line-height:125%;letter-spacing:0px;word-spacing:0px;text-anchor:start;fill:#000000;fill-opacity:1;stroke:none;font-family:Sans"
       id="flowRoot4388-7-8-3">
      <path
         d="m -168.78906,-419.32706 0,-28.63281 3.78906,0 0,25.2539 14.10156,0 0,3.37891 z"
         style=""
         id="path2993" />
      <path
         d="m -132.61719,-426.00675 3.63282,0.44922 c -0.57294,2.1224 -1.63414,3.76953 -3.1836,4.94141 -1.54949,1.17187 -3.52866,1.75781 -5.9375,1.75781 -3.03386,0 -5.43946,-0.93425 -7.2168,-2.80274 -1.77734,-1.86848 -2.66601,-4.48892 -2.66601,-7.86132 0,-3.48957 0.89843,-6.1979 2.69531,-8.125 1.79687,-1.92707 4.1276,-2.89061 6.99219,-2.89063 2.77342,2e-5 5.03905,0.94403 6.79687,2.83203 1.7578,1.88804 2.6367,4.54429 2.63672,7.96875 -2e-5,0.20835 -0.007,0.52085 -0.0195,0.9375 l -15.46875,0 c 0.1302,2.27866 0.77473,4.02345 1.9336,5.23438 1.15884,1.21094 2.60415,1.81641 4.33593,1.8164 1.28905,1e-5 2.38931,-0.33853 3.30078,-1.01562 0.91145,-0.67708 1.6341,-1.75781 2.16797,-3.24219 z m -11.54297,-5.68359 11.58204,0 c -0.15627,-1.74478 -0.59898,-3.05337 -1.32813,-3.92578 -1.11981,-1.35415 -2.57163,-2.03124 -4.35547,-2.03125 -1.61459,1e-5 -2.97201,0.54038 -4.07226,1.62109 -1.10027,1.08075 -1.70899,2.52606 -1.82618,4.33594 z"
         style=""
         id="path2995" />
      <path
         d="m -123.71094,-419.32706 0,-18.00781 -3.10547,0 0,-2.73438 3.10547,0 0,-2.20703 c 0,-1.3932 0.1237,-2.42836 0.3711,-3.10547 0.33853,-0.91143 0.93424,-1.65036 1.78711,-2.2168 0.85285,-0.56637 2.04751,-0.84958 3.58398,-0.8496 0.98957,2e-5 2.08332,0.11721 3.28125,0.35156 l -0.52734,3.0664 c -0.72918,-0.13018 -1.41929,-0.19528 -2.07032,-0.19531 -1.06771,3e-5 -1.82292,0.22789 -2.26562,0.6836 -0.44272,0.45575 -0.66407,1.30861 -0.66406,2.55859 l 0,1.91406 4.04296,0 0,2.73438 -4.04296,0 0,18.00781 z"
         style=""
         id="path2997" />
      <path
         d="m -105.78125,-422.47159 0.50781,3.10547 c -0.98959,0.20833 -1.87501,0.3125 -2.65625,0.3125 -1.27605,0 -2.26563,-0.20183 -2.96875,-0.60547 -0.70313,-0.40365 -1.19792,-0.93425 -1.48437,-1.5918 -0.28646,-0.65755 -0.42969,-2.04101 -0.42969,-4.15039 l 0,-11.93359 -2.57813,0 0,-2.73438 2.57813,0 0,-5.13672 3.49609,-2.10937 0,7.24609 3.53516,0 0,2.73438 -3.53516,0 0,12.1289 c 0,1.00261 0.0619,1.64714 0.18555,1.9336 0.12369,0.28646 0.32551,0.51432 0.60547,0.68359 0.27994,0.16927 0.68033,0.25391 1.20117,0.25391 0.39062,0 0.90494,-0.0456 1.54297,-0.13672 z"
         style=""
         id="path2999" />
      <path
         d="m -169.78516,-383.27237 c 0,-4.75259 1.27604,-8.47329 3.82813,-11.16211 2.55207,-2.68878 5.84634,-4.03318 9.88281,-4.03321 2.64321,3e-5 5.02602,0.63154 7.14844,1.89454 2.12237,1.26304 3.74021,3.02411 4.85351,5.2832 1.11326,2.25913 1.6699,4.82098 1.66993,7.68555 -3e-5,2.90365 -0.58597,5.50131 -1.75782,7.79296 -1.1719,2.29167 -2.83205,4.0267 -4.98046,5.20508 -2.14846,1.17839 -4.46617,1.76758 -6.95313,1.76758 -2.69533,0 -5.10418,-0.65104 -7.22656,-1.95312 -2.1224,-1.30209 -3.73048,-3.07943 -4.82422,-5.33204 -1.09375,-2.25259 -1.64063,-4.6354 -1.64063,-7.14843 z m 3.90625,0.0586 c 0,3.45053 0.92773,6.16863 2.78321,8.1543 1.85546,1.98568 4.18293,2.97852 6.98242,2.97851 2.85154,10e-6 5.19855,-1.0026 7.04101,-3.00781 1.84243,-2.0052 2.76365,-4.85025 2.76368,-8.53516 -3e-5,-2.33071 -0.39391,-4.36521 -1.18164,-6.10351 -0.78779,-1.73826 -1.94013,-3.08592 -3.45704,-4.04297 -1.51694,-0.95701 -3.21941,-1.43552 -5.10742,-1.43555 -2.6823,3e-5 -4.99024,0.92125 -6.92383,2.76367 -1.9336,1.84247 -2.90039,4.91864 -2.90039,9.22852 z"
         style=""
         id="path3001" />
      <path
         d="m -124.45313,-376.92472 3.45704,0.44922 c -0.37763,2.38282 -1.34442,4.24805 -2.90039,5.5957 -1.55601,1.34766 -3.46681,2.02149 -5.73243,2.02149 -2.83855,0 -5.12044,-0.92773 -6.8457,-2.7832 -1.72526,-1.85547 -2.58789,-4.51497 -2.58789,-7.97852 0,-2.23957 0.37109,-4.1992 1.11328,-5.87891 0.74219,-1.67967 1.87174,-2.93943 3.38867,-3.77929 1.51692,-0.83983 3.16731,-1.25975 4.95118,-1.25977 2.25259,2e-5 4.09503,0.56968 5.52734,1.70899 1.43227,1.13934 2.35024,2.75717 2.7539,4.85351 l -3.41796,0.52735 c -0.32554,-1.39322 -0.90171,-2.44139 -1.72852,-3.14454 -0.82684,-0.7031 -1.82618,-1.05467 -2.99805,-1.05468 -1.77084,1e-5 -3.20964,0.63478 -4.3164,1.90429 -1.10678,1.26955 -1.66016,3.27801 -1.66016,6.02539 0,2.78647 0.53385,4.81121 1.60156,6.07422 1.0677,1.26303 2.46093,1.89454 4.17969,1.89453 1.3802,1e-5 2.53254,-0.42317 3.45703,-1.26953 0.92447,-0.84635 1.5104,-2.14843 1.75781,-3.90625 z"
         style=""
         id="path3003" />
      <path
         d="m -104.45313,-376.92472 3.45704,0.44922 c -0.37763,2.38282 -1.34442,4.24805 -2.90039,5.5957 -1.55601,1.34766 -3.46681,2.02149 -5.73243,2.02149 -2.83855,0 -5.12044,-0.92773 -6.8457,-2.7832 -1.72526,-1.85547 -2.58789,-4.51497 -2.58789,-7.97852 0,-2.23957 0.37109,-4.1992 1.11328,-5.87891 0.74219,-1.67967 1.87174,-2.93943 3.38867,-3.77929 1.51692,-0.83983 3.16731,-1.25975 4.95117,-1.25977 2.2526,2e-5 4.09504,0.56968 5.52735,1.70899 1.43227,1.13934 2.35024,2.75717 2.7539,4.85351 l -3.41796,0.52735 c -0.32554,-1.39322 -0.90171,-2.44139 -1.72852,-3.14454 -0.82684,-0.7031 -1.82618,-1.05467 -2.99805,-1.05468 -1.77084,1e-5 -3.20964,0.63478 -4.3164,1.90429 -1.10678,1.26955 -1.66016,3.27801 -1.66016,6.02539 0,2.78647 0.53385,4.81121 1.60156,6.07422 1.0677,1.26303 2.46093,1.89454 4.17969,1.89453 1.3802,1e-5 2.53254,-0.42317 3.45703,-1.26953 0.92447,-0.84635 1.5104,-2.14843 1.75781,-3.90625 z"
         style=""
         id="path3005" />
      <path
         d="m -97.96875,-393.9169 0,-4.04297 3.515625,0 0,4.04297 z m 0,24.58984 0,-20.74219 3.515625,0 0,20.74219 z"
         style=""
         id="path3007" />
      <path
         d="m -89.082031,-361.37784 0,-28.69141 3.203125,0 0,2.69531 c 0.755201,-1.05466 1.608065,-1.84568 2.558594,-2.37304 0.950511,-0.52733 2.102854,-0.791 3.457031,-0.79102 1.770819,2e-5 3.333318,0.45575 4.6875,1.36719 1.354149,0.91148 2.376283,2.19728 3.066406,3.85742 0.690084,1.66017 1.035136,3.47983 1.035156,5.45899 -2e-5,2.1224 -0.380879,4.0332 -1.142578,5.73242 -0.761737,1.69922 -1.868507,3.0013 -3.320312,3.90625 -1.451838,0.90495 -2.978529,1.35742 -4.580078,1.35742 -1.171886,0 -2.223317,-0.2474 -3.154297,-0.74219 -0.930997,-0.49479 -1.695971,-1.11979 -2.294922,-1.875 l 0,10.09766 z m 3.183594,-18.20313 c -6e-6,2.66928 0.540358,4.64194 1.621093,5.91797 1.080721,1.27605 2.389313,1.91407 3.925782,1.91406 1.562487,1e-5 2.900376,-0.6608 4.013671,-1.98242 1.113265,-1.32161 1.669905,-3.36913 1.669922,-6.14258 -1.7e-5,-2.64321 -0.543636,-4.62238 -1.630859,-5.9375 -1.087254,-1.31508 -2.386081,-1.97263 -3.896484,-1.97265 -1.497406,2e-5 -2.822275,0.69989 -3.97461,2.09961 -1.15235,1.39975 -1.728521,3.43425 -1.728515,6.10351 z"
         style=""
         id="path3009" />
      <path
         d="m -66.796875,-393.9169 0,-4.04297 3.515625,0 0,4.04297 z m 0,24.58984 0,-20.74219 3.515625,0 0,20.74219 z"
         style=""
         id="path3011" />
      <path
         d="m -50.234375,-372.47159 0.507813,3.10547 c -0.989594,0.20833 -1.875009,0.3125 -2.65625,0.3125 -1.276049,0 -2.265631,-0.20183 -2.96875,-0.60547 -0.70313,-0.40365 -1.197921,-0.93425 -1.484375,-1.5918 -0.286462,-0.65755 -0.429691,-2.04101 -0.429688,-4.15039 l 0,-11.93359 -2.578125,0 0,-2.73438 2.578125,0 0,-5.13672 3.496094,-2.10937 0,7.24609 3.535156,0 0,2.73438 -3.535156,0 0,12.1289 c -7e-6,1.00261 0.06184,1.64714 0.185547,1.9336 0.12369,0.28646 0.325513,0.51432 0.605468,0.68359 0.27994,0.16927 0.680331,0.25391 1.201172,0.25391 0.390616,0 0.904938,-0.0456 1.542969,-0.13672 z"
         style=""
         id="path3013" />
      <path
         d="m -33.28125,-371.88565 c -1.302098,1.10677 -2.555352,1.88802 -3.759766,2.34375 -1.204438,0.45572 -2.496754,0.68359 -3.876953,0.68359 -2.278652,0 -4.029952,-0.55664 -5.253906,-1.66992 -1.22396,-1.11328 -1.835939,-2.53581 -1.835937,-4.26758 -2e-6,-1.01562 0.231118,-1.94335 0.693359,-2.7832 0.462237,-0.83984 1.067705,-1.51367 1.816406,-2.02149 0.748693,-0.5078 1.591791,-0.89191 2.529297,-1.15234 0.690097,-0.18228 1.731763,-0.35806 3.125,-0.52735 2.838529,-0.33853 4.928371,-0.74217 6.269531,-1.21093 0.013,-0.48176 0.01952,-0.78775 0.01953,-0.91797 -1.6e-5,-1.43228 -0.332047,-2.44139 -0.996094,-3.02735 -0.898452,-0.79425 -2.233086,-1.19138 -4.003906,-1.1914 -1.653656,2e-5 -2.874357,0.28973 -3.66211,0.86914 -0.787767,0.57944 -1.370448,1.60483 -1.748047,3.07617 l -3.4375,-0.46875 c 0.312498,-1.47134 0.82682,-2.65949 1.542969,-3.56445 0.716142,-0.90493 1.751297,-1.60155 3.105469,-2.08985 1.354158,-0.48826 2.923167,-0.7324 4.707031,-0.73242 1.77082,2e-5 3.209621,0.20836 4.316406,0.625 1.106754,0.41669 1.920556,0.94078 2.441407,1.57227 0.520814,0.63153 0.885397,1.42905 1.09375,2.39258 0.117168,0.59897 0.175761,1.6797 0.175781,3.24218 l 0,4.6875 c -2e-5,3.26824 0.07485,5.33529 0.224609,6.20117 0.14972,0.86589 0.445944,1.69597 0.888672,2.49024 l -3.671875,0 c -0.3646,-0.72917 -0.598975,-1.58203 -0.703125,-2.55859 z m -0.292969,-7.85157 c -1.276056,0.52085 -3.190117,0.96355 -5.742187,1.32813 -1.445321,0.20834 -2.467456,0.44271 -3.066406,0.70312 -0.598965,0.26043 -1.061204,0.64129 -1.386719,1.14258 -0.325526,0.50131 -0.488287,1.05795 -0.488281,1.66992 -6e-6,0.93751 0.354812,1.71876 1.064453,2.34375 0.709628,0.62501 1.748038,0.93751 3.115234,0.9375 1.354156,10e-6 2.558582,-0.29622 3.613281,-0.88867 1.054674,-0.59244 1.829413,-1.40299 2.324219,-2.43164 0.377588,-0.79426 0.56639,-1.96614 0.566406,-3.51562 z"
         style=""
         id="path3015" />
      <path
         d="m -24.628906,-369.32706 0,-28.63281 3.515625,0 0,28.63281 z"
         style=""
         id="path3017" />
    </g>
  </g>
</svg>
