<?xml version="1.0" encoding="UTF-8" standalone="no"?>
<!-- Created with Inkscape (http://www.inkscape.org/) -->

<svg
   xmlns:dc="http://purl.org/dc/elements/1.1/"
   xmlns:cc="http://creativecommons.org/ns#"
   xmlns:rdf="http://www.w3.org/1999/02/22-rdf-syntax-ns#"
   xmlns:svg="http://www.w3.org/2000/svg"
   xmlns="http://www.w3.org/2000/svg"
   xmlns:sodipodi="http://sodipodi.sourceforge.net/DTD/sodipodi-0.dtd"
   xmlns:inkscape="http://www.inkscape.org/namespaces/inkscape"
   id="svg3193"
   version="1.1"
   inkscape:version="0.48.4 r9939"
   sodipodi:docname="occipital_left.svg">
  <defs
     id="defs3195" />
  <sodipodi:namedview
     id="base"
     pagecolor="#ffffff"
     bordercolor="#ffffff"
     borderopacity="0.0"
     inkscape:pageopacity="0.0"
     inkscape:pageshadow="0"
     inkscape:zoom="0.35"
     inkscape:cx="350"
     inkscape:cy="520"
     inkscape:document-units="px"
     inkscape:current-layer="layer1"
     showgrid="false"
     inkscape:window-width="1920"
     inkscape:window-height="1018"
     inkscape:window-x="1392"
     inkscape:window-y="-8"
     inkscape:window-maximized="1" />
  <metadata
     id="metadata3198">
    <rdf:RDF>
      <cc:Work
         rdf:about="">
        <dc:format>image/svg+xml</dc:format>
        <dc:type
           rdf:resource="http://purl.org/dc/dcmitype/StillImage" />
        <dc:title></dc:title>
      </cc:Work>
    </rdf:RDF>
  </metadata>
  <g
     inkscape:label="Layer 1"
     inkscape:groupmode="layer"
     id="layer1">
    <path
       style="fill:#42a24a;fill-rule:evenodd;stroke:#000000;stroke-miterlimit:10"
       inkscape:connector-curvature="0"
       clip-rule="evenodd"
       stroke-miterlimit="10"
       d="m -1157.6942,-150.11795 c 3.19,-2.915 6.674,-5.227 11.184,-5.427 6.184,3.44 7.901,3.07 9.894,-2.133 7.092,0 14.184,0 21.275,0 -1.383,1.236 -0.686,2.511 -0.067,3.785 -7.182,-0.427 -12.808,8.682 -20.595,3.685 -7.407,-4.752 -14.467,4.594 -21.691,0.09 z"
       id="path3171" />
    <path
       style="fill:#42a24a;fill-rule:evenodd;stroke:#000000;stroke-miterlimit:10"
       inkscape:connector-curvature="0"
       clip-rule="evenodd"
       stroke-miterlimit="10"
       d="m -1169.4852,-53.829948 c 0.236,-1.786 -1.029,-3.955 1.328,-5.203 5.381,-0.051 0.406,-6.996 5.689,-7.978 8.95,-1.661 11.193,-8.695 5.691,-16.233 -1.06,2.313 -2.076,4.533 -3.094,6.754 l 0.079,0.069 c 0,-4.56 0,-9.119 0,-16.385 -1.746,4.001 -2.319,5.314 -3.149,7.216 -3.139,-8.402 -3.424,-16.306002 -0.875,-24.326002 2.241,-7.056 5.035,-14.101 0.131,-21.198 -0.311,-5.366 1.4,-10.268 3.466,-15.088 3.079,0.781 6.119,1.81 9.244,2.299 10.01,1.569 21.469,-1.679 27.776,10.833 1.771,3.513 7.637,5.138 12.823,3.574 -1.299,-7.239 -7.885,-7.233 -12.731,-10.511 11.671,-12.161 11.413,6.663 18.319,6.286 -0.215,-3.39 -1.625,-7.97 4.897,-6.633 2.896,0.594 3.912,-1.446 4.299,-3.908 12.689,7.487 24.256,16.716 34.115,27.378 7.372,7.973 19.259,8.255 25.25,17.439002 0.342,1.117 11.533,19.238 13.687,20.506 6.509,7.163 16.27,12.373 19.525,21.484 0.461,1.29 9.60403,15.691 9.60403,15.69 -0.321,17.295 -3.315,20.358 -20.77403,21.235 -1.287,0.064 -2.764,-0.294 -3.831,0.217 -6.171,2.953 -7.923,-0.01 -8.256,-5.642 -0.084,-1.412 -1.283,-2.757 -1.97,-4.133 -0.835,-7.532 -4.639,-13.325 -11.591,-17.286 3.781,5.832 7.562,11.665 11.342,17.498 -0.073,3.211 -0.209,6.424 -0.211,9.635 -0.01,11.8720004 -10.861,27.1410004 -21.952,30.435 -8.184,2.429 -16.328,-1.1899996 -21.384,-5.7219996 -3.848,-3.449 2.156,-11.063 6.033,-14.295 7.807,-6.5080004 7.862,-14.2160004 7.274,-24.6890004 -6.84,6.41 -8.347,13.982 -12.161,20.102 -3.393,5.4420004 -4.535,15.29500041 -10.536,15.5370004 -11.847,0.477 -24.993,1.912 -32.579,-12.5840004 -7.104,-13.572 -24.756,-10.699 -35.528,-19.422 -2.625,-2.125 -5.984,1.243 -8.9,2.341 -5.671,2.136 -8.978,-2.655 -13.035,-4.644 -2.298,-1.126 0.868,-4.068 1.053,-6.285 1.126,1.068 0.069,3.361 2.355,3.93 2.865,-5.051 4.992,-10.293 4.262,-16.296 -3.351,-0.752 -2.43,3.961 -5.045,3.876 -0.224,-2.065 -0.432,-3.969 -0.64,-5.873 z m 145.561,15.048 0.231,0.377 c 2.929,5.347 7.415,6.667 11.634,2.501 2.547,-2.516 7.067,-7.031 0.029,-10.482 -3.373,-0.242 -6.801,-0.204 -10.098,-0.842 -1.759,-0.34 -3.631,-2.102 -4.882,0.093 -1.429,2.509 -0.51,4.724 2.332,5.861 0.252,0.831 0.503,1.662 0.754,2.492 z m -32.203,28.348 c -3.394,6.5130004 0.736,7.9770004 5.893,9.1030004 6.283,1.37100001 6.909,-2.488 6.987,-7.062 5.188,2.026 8.876,1.956 7.674,-5.3150004 -0.784,-4.744 -1.516,-9.499 -2.123,-14.268 -0.732,-5.76 -6.364,-6.271 -9.734,-7.044 -3.134,-0.718 -5.187,3.917 -5.288,7.813 -0.085,3.213 -0.271,6.422 -0.415,9.643 -0.998,2.377 -1.996,4.753 -2.994,7.13 z m -81.937,-63.768 c 5.687,-2.906 11.902,-4.281 18.263,-6.295 -4.383,-3.18 -8.407,-6.517 -14.182,-4.185 -5.161,0.714 -8.842,3.299 -10.265,8.466 -0.701,2.544 -0.804,5.857 1.814,6.693 3.039,0.969 3.008,-2.942 4.37,-4.679 z m 56.082,43.97 c 9.697,-4.457 -3.756,-9.527 0.279,-14.926 1.179,-1.578 -3.914,-1.74 -6.225,-2.006 -2.54,-0.291 -5.14,-0.205 -7.704,-0.081 -2.795,0.136 -6.693,-1.013 -7.822,2.044 -0.91,2.469 1.507,5.162 3.866,6.922 -0.599,5.031 6.148,7.947 4.31,12.848 -1.725,4.596 -0.111,6.41 3.771,7.527 4.473,1.287 7.699,-0.561 9.069,-4.764 0.759,-2.324 0.342,-5.031 0.456,-7.564 z m -68.128,-58.549 c 4.238,1.709 6.859,0.24 9.666,-0.32 15.866,-3.169 31.103,-0.474 45.723,5.885 2.161,0.941 3.506,3.96 6.491,2.346 0.649,-0.352 1.365,-1.806 1.129,-2.358 -1.232,-2.886 -3.643,-4.159 -6.748,-4.631 -11.689,-1.777 -23.145,-4.184 -31.878,-13.197002 -0.827,-0.854 -2.819,-2.003 -3.123,-1.731 -5.711,5.099002 -5.313,-0.269 -6.38,-3.507 -0.576,-1.749 -1.237,-3.937 -3.62,-3.886 -2.216,0.047 -4.007,1.932 -3.526,3.743 2.032,7.664002 -3.615,12.046002 -7.734,17.656002 z m 14.916,22.68 c 15.193,-5.26 26.83,9.587 41.594,6.752 -13.908,-2.004 -24.762,-21.288 -41.594,-6.752 z m 52.257,-41.474002 c -11.25,-3.237 -20.479,-5.712 -27.902,-12.744 12.538,-1.357 12.557,-1.384 9.777,-14.949 0.827,12.758 -15.455,5.114 -16.498,15.058 3.64,4.878 14.24,3.202 13.045,13.448 -0.025,0.223 1.307,0.868 1.36,0.801 5.705,-7.145 12.159,2.784 20.218,-1.614 z m -11.824,14.455002 c 5.28,1.71 7.339,-0.556 7.68,-4.28 0.421,-4.593002 -3.363,-3.834002 -6.072,-3.897002 -2.22,-0.052 -5.023,-0.369 -6.584,0.773 -9.101,6.666002 -12.653,1.914002 -13.982,-6.674 -0.426,-2.747 -1.726,-4.919 -3.728,-4.51 -3.172,0.648 -1.487,3.498 -0.955,5.529 3.459,13.194002 14.677,12.290002 23.641,13.059002 z m 42.022,-10.627002 c -6.455,8.749002 -9.271,17.619002 -1.671,27.253002 1.187,1.503 2.13,3.625 4.412,2.229 2.112,-1.292 1.56,-3.604 0.291,-5.004 -5.581,-6.158 -3.857,-12.72 -1.482,-19.398 0.7,-1.969002 0.765,-3.760002 -1.55,-5.080002 z m -26.035,48.919002 c 9.146,4.492 17.538,5.234 26.099,5.395 3.652,0.067 8.926,-0.23 9.137,-3.147 0.243,-3.394 2.126,-8.813 -3.584,-11.966 -5.729,16.984 -19.625,7.937 -31.652,9.718 z m -67.58,-61.919002 c 2.888,-0.757 5.62,-3.329 9.338,-3.076 2.887,0.197 4.213,-1.61 2.511,-4.337 -1.72,-2.757 -1.725,-8.763 -5.978,-7.27 -5.95,2.088 -8.119,7.788 -5.871,14.683 z m 30.322,79.537002 c -7.584,-14.269 -21.562,-9.439 -33.167,-11.849 9.994,6.901 22.975,5.388 33.167,11.849 z m 28.98,-28.811 c 5.422,1.533 10.81,3.205 16.279,4.542 2.68,0.655 5.217,0.259 5.332,-3.464 0.098,-3.135 -1.994,-3.611 -4.415,-3.637 -5.621,-0.062 -11.283,-1.129 -17.196,2.559 z m -5.557,-61.625002 c -2.244,3.025 2.152,8.521 -4.491,9.062 4.176,3.938 9.295,4.697 11.842,-0.532 2.557,-5.251 -3.336,-6.462 -7.351,-8.53 z"
       id="path3173" />
  </g>
</svg>
