<?xml version="1.0" encoding="UTF-8" standalone="no"?>
<!-- Created with Inkscape (http://www.inkscape.org/) -->

<svg
   xmlns:dc="http://purl.org/dc/elements/1.1/"
   xmlns:cc="http://creativecommons.org/ns#"
   xmlns:rdf="http://www.w3.org/1999/02/22-rdf-syntax-ns#"
   xmlns:svg="http://www.w3.org/2000/svg"
   xmlns="http://www.w3.org/2000/svg"
   xmlns:sodipodi="http://sodipodi.sourceforge.net/DTD/sodipodi-0.dtd"
   xmlns:inkscape="http://www.inkscape.org/namespaces/inkscape"
   id="svg3333"
   version="1.1"
   inkscape:version="0.48.4 r9939"
   sodipodi:docname="parietal_right_active.svg">
  <defs
     id="defs3335" />
  <sodipodi:namedview
     id="base"
     pagecolor="#ffffff"
     bordercolor="#ffffff"
     borderopacity="0.0"
     inkscape:pageopacity="0.0"
     inkscape:pageshadow="0"
     inkscape:zoom="0.35"
     inkscape:cx="-197.14286"
     inkscape:cy="520"
     inkscape:document-units="px"
     inkscape:current-layer="layer1"
     showgrid="false"
     inkscape:window-width="1400"
     inkscape:window-height="1028"
     inkscape:window-x="-8"
     inkscape:window-y="22"
     inkscape:window-maximized="1" />
  <metadata
     id="metadata3338">
    <rdf:RDF>
      <cc:Work
         rdf:about="">
        <dc:format>image/svg+xml</dc:format>
        <dc:type
           rdf:resource="http://purl.org/dc/dcmitype/StillImage" />
        <dc:title />
      </cc:Work>
    </rdf:RDF>
  </metadata>
  <g
     inkscape:label="Layer 1"
     inkscape:groupmode="layer"
     id="layer1">
    <path
       style="fill:#c4e5f3;fill-rule:evenodd;stroke:#000000;stroke-miterlimit:10;fill-opacity:1"
       inkscape:connector-curvature="0"
       clip-rule="evenodd"
       stroke-miterlimit="10"
       d="m 477.11882,435.94193 c 0,0 7.877,6.612 9.92,11.179 5.125,11.455 12.133,22.303 11.286,35.789 -0.472,7.504 -0.062,15.086 0.333,22.612 0.305,5.814 -0.145,11.384 -1.738,17.04 -2.215,7.857 -0.784,15.984 -0.619,23.994 0.152,7.428 -0.646,14.555 -4.807,20.994 -0.887,1.371 -1.185,3.107 -1.938,4.582 -1.472,2.88 -3.573,3.172 -5.993,0.989 -4.862,-4.388 -8.746,-9.757 -14.336,-13.45 -5.246,-3.463 -11.166,-4.73 -16.98,-6.555 -8.15,-2.559 -16.611,-4.297 -23.743,-9.628 -3.028,-2.263 -4.751,-4.387 -4.176,-8.276 0.554,-3.747 2.734,-6.16 5.911,-7.543 2.271,-0.988 3.84,-2.982 5.831,-3.911 7.283,-3.399 10.148,-11.595 17.206,-15.151 2.24,-1.129 2.646,-2.852 0.204,-4.707 -4.624,-3.513 -4.958,-3.578 -8.554,1.096 -1.943,2.528 -4.354,4.758 -4.895,8.195 -0.298,1.892 -2.069,2.497 -3.668,3.084 -1.005,0.369 -2.416,0.408 -2.966,1.119 -3.451,4.465 -8.24,7.531 -11.942,11.67 -1.563,1.746 -2.918,3.416 -5.212,4.114 -2.097,0.64 -3.231,2.372 -4.444,3.989 0.206,1.158 1.291,0.951 1.958,1.342 0.896,0.523 2.381,0.596 2.354,1.885 -0.03,1.372 -1.197,2.145 -2.383,2.847 -4.907,2.905 -10.283,2.351 -15.248,1.134 -4.727,-1.159 -9.758,-2.197 -13.71,-5.611 -3.387,-2.925 -6.912,-5.688 -10.334,-8.573 -0.83,-0.7 -1.57,-1.69 -1.495,-2.787 0.561,-8.17 -1.958,-16.1 -1.394,-24.36 0.713,-10.438 3.968,-19.884 8.457,-29.096 0.499,-1.025 1.749,-2.081 0.738,-3.226 -1.067,-1.208 -2.458,-0.476 -3.623,0.157 -1.999,1.086 -3.928,2.231 -5.542,3.931 -1.998,2.104 -3.848,2.027 -6.049,-0.276 -4.679,-4.896 -6.758,-11.262 -9.85,-16.989 -4.27,-7.91 -6.717,-16.623 -7.56,-25.658 -0.416,-4.456 -0.446,-8.887 2.663,-12.668 0.544,-0.661 1.303,-1.679 0.48,-2.582 -0.843,-0.925 -1.798,-0.172 -2.599,0.283 -5.105,2.899 -8.886,7.256 -12.507,11.723 -1.279,1.578 -1.07,3.663 -0.259,5.51 0.625,1.422 1.326,2.844 2.209,4.115 3.179,4.582 4.603,9.606 4.352,15.181 -0.192,4.254 1.966,7.555 4.794,10.451 9.912,10.152 15.491,21.75 13.067,36.417 -1.053,6.366 -1.313,12.863 -1.918,19.303 -1.118,11.905 5.973,19.558 16.494,22.818 8.214,2.546 16.531,4.888 24.294,8.731 0.851,0.422 2.008,0.615 1.795,1.867 -0.2,1.166 -1.347,1.373 -2.274,1.355 -9.921,-0.186 -18.345,3.885 -26.507,8.968 -4.395,2.736 -9.551,2.083 -14.419,2.13 -11.514,0.115 -23.033,-0.207 -34.546,-0.059 -5.122,0.066 -10.343,0.398 -14.799,3.556 -1.639,1.161 -3.122,0.47 -4.72,-0.239 -6.284,-2.791 -9.295,-8.473 -12.289,-14.047 -4.291,-7.987 -8.037,-16.257 -12.896,-23.953 -2.015,-3.189 -4.432,-5.901 -7.078,-8.538 -5.424,-5.403 -6.882,-12.067 -5.411,-19.425 1.748,-8.743 6.458,-16.056 11.328,-23.313 2.781,-4.145 4.648,-9.288 9.913,-10.844 7.346,-2.172 8.101,-7.982 9.712,-14.176 1.783,-6.859 5.561,-13.043 10.109,-18.728 3.469,-4.336 6.801,-8.621 11.729,-11.402 1.444,-0.815 1.859,-2.441 2.361,-3.924 2.197,-6.48 4.854,-12.727 8.176,-18.75 1.751,-3.173 4.608,-4.794 7.06,-6.994 2.391,-2.146 2.712,-4.318 1.079,-6.983 -5.566,-9.093 -12.997,-15.186 -24.251,-15.197 -1.8,-0.002 -3.617,-0.207 -5.396,-0.016 -3.28,0.353 -5.167,0.019 -4.618,-4.266 0.395,-3.079 -1.38,-5.974 -3.831,-8.147 -0.626,-0.555 -1.516,-0.969 -1.859,-1.66 -2.391,-4.783 -7.094,-3.066 -10.833,-3.763 -1.81,-0.337 -1.961,1.493 -1.132,2.791 1.284,2.01 2.627,3.95 5.273,4.558 1.969,0.452 3.91,1.205 5.723,2.107 3.463,1.724 3.698,4.352 0.607,6.605 -1.537,1.12 -3.274,1.973 -4.958,2.878 -1.214,0.653 -2.423,1.319 -2.104,2.945 0.329,1.681 1.726,2.267 3.206,2.426 3.151,0.338 6.186,-0.564 9.229,-1.163 5.76,-1.134 11.355,-1.337 16.902,1.208 4.401,2.02 5.742,6.586 2.286,9.895 -4.426,4.237 -5.62,9.647 -6.137,15.313 -0.314,3.452 -0.234,6.951 -0.153,10.426 0.051,2.203 -0.662,3.589 -3,3.451 -4.174,-0.244 -8.428,-0.272 -12.071,-2.83 0.569,-0.615 1.138,-1.231 1.707,-1.847 1.313,-1.422 0.976,-2.907 -0.027,-4.246 -1.128,-1.505 -2.812,-1.39 -4.231,-0.683 -1.63,0.811 -1.838,2.408 -1.259,4.048 0.273,0.775 0.699,1.497 1.057,2.243 -4.938,-0.815 -8.777,-3.581 -12.314,-6.907 -2.965,-2.788 -6.078,-5.427 -8.504,-8.738 -1.389,-1.897 -3.388,-3.018 -5.361,-4.141 -1.134,-0.645 -2.559,-1.473 -3.629,-0.285 -1.114,1.234 0.395,2.198 1.034,3.049 3.665,4.878 7.304,9.785 11.195,14.48 3.503,4.226 8.105,6.536 13.671,7.078 4.312,0.421 8.385,2.001 12.321,3.728 3.373,1.479 3.521,2.871 1.296,5.756 -4.598,5.959 -9.507,11.732 -11.812,19.107 -0.281,0.902 -0.804,1.935 -0.595,2.746 0.776,3.006 -0.876,4.943 -2.902,6.415 -11.195,8.126 -18.949,19.141 -26.089,30.688 -0.716,1.156 -1.33,2.362 -2.882,2.357 -1.664,-0.006 -2.145,-1.434 -2.591,-2.621 -0.843,-2.234 -1.823,-4.496 -2.157,-6.83 -1.831,-12.805 -3.573,-25.623 -5.158,-38.46 -0.671,-5.439 -2.198,-10.477 -5.128,-15.121 -1.111,-1.762 -2.779,-2.565 -4.546,-3.326 -3.642,-1.566 -7.153,-3.26 -9.85,-6.369 -4.403,-5.076 -3.064,-12.311 3.026,-15.606 0.687,1.402 -0.563,2.181 -1.055,3.189 -0.675,1.389 -1.628,2.69 -1.537,4.319 0.087,1.556 -0.724,3.876 1.576,4.135 2.317,0.261 3.267,-1.915 3.305,-3.851 0.076,-3.887 0.166,-7.653 4.538,-10.339 -3.217,-0.723 -3.795,2.925 -6.133,1.827 1.089,-3.75 4.543,-4.976 7.459,-6.481 3.674,-1.897 7.144,-4.182 11.039,-5.719 1.718,-0.678 2.773,-2.677 2.395,-4.834 -0.414,-2.355 -0.714,-4.772 -1.5,-7.01 -0.963,-2.744 -1.875,-5.401 -1.448,-8.373 0.153,-1.065 0.041,-2.325 -1.236,-2.693 -1.452,-0.419 -2.086,0.705 -2.714,1.791 -2.688,4.647 -2.829,9.82 -3.027,14.945 -0.229,5.931 -1.446,7.089 -7.257,6.253 -1.025,-0.148 -1.861,0.2 -2.762,0.541 -2.126,0.804 -4.235,1.236 -6.617,1.098 -3.856,-0.225 -6.82,2.583 -10.199,3.972 -2.679,1.1 -4.974,3.154 -7.407,4.831 -1.08,0.745 -2.281,1.516 -1.963,3.125 0.282,1.427 1.529,1.706 2.69,2.036 7.16,2.037 8.117,4.493 4.038,10.86 -0.837,1.306 -0.263,1.938 0.511,2.75 1.736,1.82 3.461,3.634 4.572,5.955 2.385,4.979 1.075,9.566 -1.455,13.986 -1.552,2.709 -2.019,5.594 -1.945,8.639 0.034,1.418 0.391,2.803 1.854,3.14 1.389,0.32 1.668,-1.188 2.061,-2.089 1.048,-2.406 2.902,-4.268 4.064,-6.666 1.799,-3.712 5.729,-5.338 9.607,-6.076 2.41,-0.459 3.596,1.824 4.664,3.787 4.251,7.813 6.482,16.379 7.545,24.997 1.515,12.303 4.462,24.248 7.134,36.28 0.53,2.387 0.639,4.759 0.067,7.123 -0.929,3.843 -2.784,4.544 -5.854,2.118 -4.029,-3.185 -7.723,-6.75 -11.797,-9.922 -6.232,-4.85 -13.272,-8.624 -18.957,-14.166 -3.273,-3.191 -6.537,-6.307 -10.851,-8.118 -1.66,-0.696 -2.884,-1.985 -3.886,-3.587 -1.271,-2.031 -3.115,-3.501 -5.186,-4.85 -8.633,-5.625 -14.757,-13.146 -16.964,-23.487 -0.751,-3.517 0.693,-6.895 0.379,-10.361 0.091,-3.637 2.899,-5.858 4.631,-8.598 1.766,-2.794 4.031,-5.296 5.369,-8.348 1.079,-2.462 3.881,-2.59 5.395,-4.382 1.725,-0.918 1.817,-2.509 2.054,-4.252 0.747,-5.537 2.268,-10.887 6.923,-14.466 1.907,-1.467 3.763,-2.945 5.422,-4.662 2.587,-2.677 5.354,-5.092 8.579,-7.002 7.732,-4.579 14.968,-9.966 21.157,-16.387 4.203,-4.361 8.461,-8.349 13.827,-11.064 4.396,-2.225 9.094,-4.522 13.984,-3.948 5.102,0.599 8.9,-0.669 12.163,-4.323 1.202,-1.345 2.296,-1.911 3.895,-0.395 1.878,1.781 3.674,1.445 5.658,-0.305 4.104,-3.618 8.226,-7.065 13.887,-8.489 4.172,-1.049 8.615,-1.954 12.066,-5.15 3.555,-3.292 8.447,-3.946 12.834,-5.027 7.068,-1.741 13.881,-4.25 20.893,-6.06 5.653,-1.46 10.839,-4.403 16.8,-4.92 1.806,-0.156 9.467,-1.89 10.072,-2.042 7.595,-1.907 15.256,-3.431 23.033,-4.375 0.811,-0.098 7.11,-1.108 8.68,-1.266 2.083,-0.211 4.738,-1.105 3.785,2.809 -0.859,0.299 -2.129,0.155 -1.834,1.697 -7.702,3.487 -15.591,6.621 -22.543,11.578 -2.024,10e-4 -4.05,0.058 -6.071,-0.012 -2.819,-0.096 -4.323,1.248 -3.422,3.933 2.189,6.517 -1.657,11.572 -3.776,17.036 -0.694,1.792 -2.545,1.921 -4.282,2.033 -6.466,0.418 -6.752,0.803 -8.884,6.925 -0.951,2.731 -2.992,4.594 -6.153,4.724 -5.47,0.225 -10.143,2.571 -14.456,5.668 -4.666,3.349 -6.347,11.723 -3.439,16.589 1.15,1.924 2.795,1.887 4.115,0.336 1.145,-1.343 2.306,-2.927 2.727,-4.589 2.701,-10.688 10.378,-14.884 20.461,-15.779 3.941,-0.35 6.832,-2.13 8.995,-5.153 1.17,-1.634 2.438,-2.817 4.396,-3.23 0.686,2.879 2.042,5.345 4.419,7.183 -0.706,4.741 0.94,7.868 5.69,9.585 2.55,0.921 3.738,3.626 4.58,6.163 0.975,2.937 2.943,4.126 5.964,4.08 3.108,-0.048 6.244,-0.12 9.324,0.222 11.348,1.258 22.244,4.451 30.162,12.922 5.189,5.553 10.844,10.958 14.201,18.212 3.187,6.879 21.424,23.65 21.424,23.65 z m -153.881,-77.902 c -0.567,0.545 -1.742,0.721 -1.426,1.791 0.342,1.157 1.493,0.998 2.426,1.022 0.712,0.019 1.466,0.055 2.133,-0.144 1.957,-0.583 2.48,0.072 1.845,1.92 -0.368,1.07 -0.552,2.17 0.563,2.892 1.026,0.665 2.114,0.303 3.056,-0.261 6.063,-3.626 11.605,-7.949 16.78,-12.742 1.407,-1.304 2.101,-2.65 -0.82,-2.851 -1.028,-0.071 -1.923,-0.479 -2.057,-1.617 -0.16,-1.371 1.034,-1.223 1.869,-1.624 3.486,-1.671 6.55,-4.248 10.553,-4.816 0.469,-0.067 0.861,-0.537 0.671,-1.063 -0.226,-0.625 -0.848,-0.887 -1.458,-0.821 -2.234,0.243 -4.519,0.305 -6.517,1.563 -1.45,0.914 -2.971,1.56 -4.738,1.009 0.895,-2.646 -1.086,-2.733 -2.462,-2.203 -4.4,1.694 -8.809,3.471 -12.937,5.724 -2.132,1.164 -1.568,3.187 0.415,4.556 -2.63,2.559 -5.251,5.124 -7.896,7.665 z m 120.445,97.922 c 3.25,-3.044 7.652,-3.268 10.891,-0.373 2.463,2.203 4.742,4.298 8.467,3.521 1.729,-0.361 2.586,1.529 3.925,2.252 0.696,0.375 1.329,1.431 2.173,0.793 0.851,-0.643 0.828,-2.049 0.238,-2.629 -2.341,-2.295 -1.845,-4.6 -0.601,-7.155 0.503,-1.032 -0.255,-2.078 -0.691,-3.063 -0.384,-0.865 -1.006,-1.83 0.332,-2.415 3.068,-1.342 1.263,-2.3 -0.037,-3.777 -3.58,-4.067 -9.262,-4.888 -12.964,-8.702 -0.747,-0.77 -1.444,-0.402 -2.154,0.277 -2.418,2.311 -5.154,3.316 -8.418,1.814 -0.526,-0.242 -1.124,-0.615 -1.611,0.021 -0.426,0.557 -0.074,1.096 0.144,1.662 2.065,5.352 0.928,7.247 -4.703,7.758 -1.723,0.156 -3.262,0.284 -2.445,2.703 0.27,0.797 -0.079,1.396 -0.918,1.65 -0.114,0.035 -0.241,0.054 -0.34,0.116 -2.056,1.311 -4.38,3.166 -3.675,5.48 0.75,2.462 3.837,2.379 7.129,2.551 1.588,0.192 3.503,-0.84 5.258,-2.484 z m -173.973,-36.79 c -1.044,-2.766 -1.691,-4.377 -4.775,-1.658 -1.596,1.406 -4.119,1.819 -6.278,2.51 -1.726,0.552 -2.47,1.412 -1.623,3.166 1.502,3.111 1.103,6.837 3.35,9.754 1.15,1.493 0.093,2.84 -1.004,4.12 -2.548,2.972 -2.07,4.813 1.575,6.024 1.712,0.568 2.632,1.499 2.729,3.3 0.087,1.621 1.187,2.771 2.55,2.028 1.84,-1.002 3.681,-0.794 5.548,-1.045 5.785,-0.775 10.999,-6.479 11.305,-12.275 0.126,-2.38 -0.253,-4.777 0.543,-7.133 0.437,-1.291 -0.273,-2.063 -1.658,-2.086 -1.079,-0.02 -2.159,-0.004 -3.238,-0.004 -5.535,0.08 -6.758,-0.693 -9.024,-6.701 z m 119.681,32.165 c 5.181,1.453 6.929,3.928 5.96,9.198 -0.288,1.566 -0.577,3.122 1.097,3.599 1.658,0.471 2.802,-0.736 3.296,-2.412 0.405,-1.378 1.045,-2.706 1.296,-4.107 1.444,-8.024 5.889,-14.46 10.327,-21.072 3.404,-5.071 7.019,-10.317 7.478,-16.854 0.159,-2.261 0.677,-4.498 1.747,-6.56 0.809,-1.559 0.795,-3.252 0.516,-4.92 -0.158,-0.938 -0.495,-2.053 -1.603,-2.144 -1.268,-0.104 -1.318,1.098 -1.589,2.01 -1.045,3.504 -1.161,3.472 -3.998,1.07 -1.368,-1.158 -2.935,-3.751 -4.565,-2.484 -1.91,1.483 0.96,2.948 1.607,4.443 3.965,9.165 1.249,17.034 -4.459,24.394 -1.245,1.606 -2.991,3.06 -3.589,4.884 -1.603,4.896 -5.576,6.063 -9.788,7.146 -2.356,0.607 -4.903,0.708 -6.991,2.276 0.796,1.477 2.188,1.233 3.258,1.533 z m -69.621,55.779 c 3.431,-0.254 4.664,0.67 4.749,4.084 0.033,1.314 -0.16,2.631 -0.183,3.947 -0.021,1.236 0.104,2.56 1.569,2.867 1.497,0.313 2.099,-0.918 2.54,-2.044 1.078,-2.755 1.593,-5.741 4.47,-7.536 1.546,-0.965 3.195,-1.609 4.785,-2.424 0.736,-0.378 1.6,-0.76 1.477,-1.803 -0.119,-1.021 -1.017,-1.288 -1.824,-1.457 -1.044,-0.221 -2.139,-0.477 -3.183,-0.385 -8.186,0.718 -13.285,-5.436 -11.218,-13.668 0.466,-1.855 1.207,-3.642 1.653,-5.501 0.238,-0.993 0.594,-2.261 -0.536,-2.956 -1.146,-0.704 -2.02,0.195 -2.848,0.891 -3.214,2.701 -4.756,10.191 -2.875,13.955 1.455,2.91 0.874,4.727 -2.409,4.991 -4.861,0.391 -9.29,2.915 -14.248,2.54 -0.451,-0.034 -0.971,0.127 -1.381,0.344 -1.848,0.982 -4.947,1.711 -4.623,3.775 0.315,2.016 3.278,0.711 5.054,0.848 2.383,0.184 4.79,0.045 7.963,0.045 3.177,-0.138 7.13,-0.222 11.068,-0.513 z m 31.871,-99.264 c 1.331,-3.563 2.418,-3.756 5.428,-1.337 1.025,0.824 1.977,1.757 3.071,2.47 0.736,0.48 1.659,1.408 2.547,0.64 0.889,-0.77 1.632,-1.966 0.848,-3.195 -1.697,-2.661 -1.426,-4.877 1.007,-6.953 0.945,-0.807 0.471,-1.994 0.171,-3.046 -0.129,-0.454 -0.303,-1.017 -0.149,-1.411 2.646,-6.814 -2.941,-8.762 -6.888,-11.617 -2.219,-1.605 -4.3,-1.188 -5.104,1.487 -1.327,4.415 -2.682,8.564 -7.267,10.876 -1.588,0.801 -1.086,2.204 0.698,2.754 0.908,0.28 1.918,0.41 2.688,0.907 1.384,0.891 1.969,1.983 -0.194,2.695 -1.788,0.588 -3.01,1.9 -4.308,3.147 -1.119,1.076 -1.934,2.286 -1.114,3.802 0.906,1.678 2.663,2.269 4.242,2.898 2.126,-0.782 3.532,-1.996 4.324,-4.117 z m 122.593,113.357 c -1.541,2.237 -3.16,3.646 -6.203,3.056 -2.451,-0.476 -4.233,1.774 -6.445,2.522 -0.958,0.324 -0.63,1.776 0.377,2.306 2.91,1.525 5.555,3.796 9.199,3.375 1.328,-0.153 2.615,0.113 3.793,0.814 3.121,1.856 3.446,4.335 0.928,6.998 -1.16,1.228 -2.377,2.369 -4.036,2.882 -0.877,0.271 -1.604,0.692 -1.384,1.74 0.277,1.316 1.417,1.237 2.304,1.017 3.562,-0.887 6.129,-3.11 7.854,-6.3 0.854,-1.575 1.645,-3.142 2.947,-4.453 4.162,-4.191 4.418,-11.896 0.634,-16.282 -0.876,-1.016 -2.213,-1.541 -3.866,-1.52 -2.858,-0.031 -4.656,1.745 -6.102,3.845 z m -74.723,-22.591 c 2.379,0.985 3.662,2.178 1.753,4.773 -0.851,1.158 -1.482,2.654 -0.208,3.931 1.38,1.381 2.755,0.199 3.885,-0.493 2.477,-1.518 5.186,-2.353 7.932,-3.09 1.142,-0.307 2.768,-0.16 3.044,-1.406 0.325,-1.467 -0.957,-2.69 -2.111,-3.438 -4.397,-2.85 -5.51,-7.27 -6.024,-12.007 -0.193,-1.776 -0.143,-3.582 -0.372,-5.353 -0.253,-1.957 -1.066,-2.414 -3.162,-1.596 -5.417,2.113 -9.209,5.342 -9.621,10.392 -0.053,4.668 1.73,6.983 4.884,8.287 z m -102.308,28.767 c -6.092,0.897 -6.124,1.049 -3.485,6.554 0.873,1.822 1.404,3.779 2.964,5.23 1.128,1.049 0.54,2.377 0.455,3.691 -0.288,4.443 -0.021,8.832 2.96,12.519 1.661,2.056 5.16,2.682 7.13,1.144 2.471,-1.93 1.593,-4.199 0.267,-6.363 -0.746,-1.219 -1.523,-2.43 -2.411,-3.546 -1.953,-2.457 -2.603,-4.438 0.455,-6.869 2.596,-2.065 2.219,-5.356 1.125,-8.257 -1.016,-2.692 -4.115,-4.254 -8.141,-4.18 -0.129,0.008 -0.731,-0.01 -1.319,0.077 z m 128.553,-62.226 c 3.724,3.525 -0.215,4.891 -1.897,6.97 -1.651,2.04 -3.14,4.212 -4.67,6.347 -0.704,0.983 -1.594,2.233 -0.523,3.219 1.413,1.302 2.315,-0.406 3.272,-1.123 1.922,-1.438 3.101,-3.574 4.81,-5.266 4.155,-4.113 9.021,-5.135 14.515,-4.604 1.787,0.173 3.585,0.475 5.366,0.406 6.554,-0.252 11.831,2.445 16.413,6.843 0.956,0.917 2.107,2.321 3.293,1.437 1.359,-1.016 0.406,-2.654 -0.32,-3.895 -1.486,-2.539 -3.658,-4.553 -6.082,-6.023 -2.479,-1.504 -4.781,-3.155 -6.984,-5.008 -1.36,-1.145 -2.977,-1.869 -4.57,-0.547 -4.16,3.451 -8.674,2.568 -13.276,1.328 -2.273,-0.612 -4.571,-1.144 -6.874,-1.644 -1.104,-0.239 -2.114,-0.054 -2.589,1.013 0.063,0.323 0.045,0.481 0.116,0.547 z m -113.335,14.426 c 3.109,-2.129 4.184,-6.669 1.994,-9.731 -1.366,-1.911 -1.172,-3.793 -0.729,-5.798 0.509,-2.307 -0.262,-3.244 -2.634,-2.601 -0.346,0.095 -0.697,0.167 -1.047,0.247 -1.848,0.421 -4.392,-0.945 -5.469,0.628 -1.36,1.986 -1.286,4.75 -1.296,7.254 -0.019,4.96 -2.471,8.284 -6.803,10.454 -0.765,0.383 -2.275,0.203 -2.11,1.488 0.179,1.393 1.586,1.146 2.627,1.219 0.477,0.033 0.957,0.006 2.383,0.006 3.513,-2.006 8.819,-0.247 13.084,-3.166 z m -19.653,18.757 c 2.375,-2.151 4.877,-3.837 8.092,-4.31 2.91,-0.427 5.396,-1.867 7.893,-3.295 1.164,-0.664 1.884,-1.506 1.501,-2.904 -0.401,-1.467 -1.629,-1.734 -2.856,-1.581 -2.363,0.295 -4.79,0.494 -7.04,1.208 -7.556,2.401 -14.548,5.891 -20.388,11.404 -0.997,0.942 -1.939,1.916 -1.312,3.404 0.744,1.764 2.388,1.209 3.882,1.319 4.137,-0.164 7.297,-2.59 10.228,-5.245 z m 6.886,-96.349 c 2.084,-0.346 2.097,-2.128 2.788,-3.353 2.18,-3.858 1.499,-7.712 -1.574,-10.638 -2.996,-2.853 -5.784,-1.683 -8.668,0.248 -1.757,1.175 -4.737,1.171 -3.951,4.226 0.01,4.589 7.139,10.225 11.405,9.517 z m -89.994,31.068 c -0.555,-0.803 -1.666,-0.854 -2.156,-0.029 -2.121,3.566 -6.177,4.326 -9.201,6.563 -0.669,0.496 -1.399,0.942 -1.961,1.543 -2.353,2.514 -2.102,3.812 0.969,5.418 0.317,0.168 0.643,0.321 0.965,0.479 7.487,3.665 13.595,-0.088 13.866,-8.95 -0.258,-1.642 -1.337,-3.37 -2.482,-5.024 z m 14.432,34.883 c -0.538,3.194 -3.07,6.966 1.77,9.144 2.731,1.23 5.315,1.313 7.314,-1.408 1.087,-1.479 2.411,-1.58 4.117,-1.09 2.479,0.711 4.991,0.88 6.877,-1.48 0.563,-0.706 1.74,-1.199 1.232,-2.332 -0.454,-1.014 -1.387,-1.66 -2.559,-1.719 -1.551,-0.077 -3.104,-0.092 -4.658,-0.117 -1.072,-0.018 -2.327,0.18 -2.897,-0.949 -1.32,-2.614 -3.537,-2.943 -5.761,-2.654 -2.492,-0.051 -4.952,-0.26 -5.435,2.605 z m 163.673,35.5 c 3.843,6.358 7.889,12.603 13.234,17.858 0.979,0.962 1.831,2.512 3.56,1.63 1.428,-0.729 1.156,-2.247 1.121,-3.534 -0.086,-3.092 -3.87,-7.773 -6.672,-8.842 -2.68,-1.021 -4.971,-2.451 -5.697,-5.758 -0.762,-3.465 -2.159,-6.789 -3.24,-10.188 -0.524,-1.65 -1.122,-3.53 -3.164,-3.273 -2.369,0.298 -1.589,2.517 -1.742,4.063 -0.44,3.107 1.145,5.636 2.6,8.044 z m -81.773,-51.279 c -0.902,1.168 -2.208,2.729 -0.615,4.107 1.481,1.281 2.935,-0.033 4.146,-0.947 5.81,-4.391 11.57,-8.813 19.03,-10.155 1.526,-0.275 3.115,-1.123 2.786,-3.127 -0.353,-2.15 -2.201,-1.773 -4.271,-1.877 -8.031,1.541 -15.604,4.91 -21.076,11.999 z m 76.396,-35.117 c -2.396,0.045 -7.109,3.303 -7.178,4.962 -0.16,3.895 3.824,9.068 6.963,9.041 4.109,-0.035 6.942,-2.801 6.921,-6.76 -0.022,-4.012 -3.076,-7.31 -6.706,-7.243 z m 60.415,69.601 c -0.33,1.749 -1.016,3.438 -1.279,5.192 -0.275,1.837 0.438,2.796 2.478,1.938 1.317,-0.555 2.751,-0.867 4.001,-1.535 2.182,-1.166 4.331,-1.921 6.835,-1.105 1.006,0.328 2.231,0.578 2.348,-1.148 0.329,-4.92 -3.181,-8.748 -8.019,-8.747 -3.98,-10e-4 -5.616,1.441 -6.364,5.405 z m -172.838,-24.988 c -1.408,2.646 -2.66,5.335 -4.601,7.655 -0.599,0.716 -1.266,1.636 -0.514,2.591 0.793,1.008 2.025,0.993 2.943,0.371 3.414,-2.313 7.355,-4.009 8.366,-8.828 0.512,-2.438 2.455,-4.354 4.64,-5.757 0.975,-0.626 1.828,-1.337 1.304,-2.603 -0.492,-1.188 -1.635,-1.267 -3.485,-1.202 -3.124,1.705 -6.645,3.998 -8.653,7.773 z m -32.562,31.651 c 0.965,1.293 2.574,1.029 3.972,0.467 1.78,-0.716 3.068,-1.992 3.26,-3.925 0.305,-3.073 -5.022,-9.53 -8.079,-9.813 -2.392,-0.222 -3.885,0.834 -3.908,3.578 0.453,3.693 2.558,6.747 4.755,9.693 z m 143.355,-99.705 c 0.41,-0.943 0.808,-2.183 -0.355,-2.902 -0.998,-0.617 -1.81,0.276 -2.545,0.825 -7.664,5.71 -6.813,7.474 -5.191,15.687 0.214,1.085 0.751,2.067 2.017,2.237 1.457,0.196 2.621,-0.426 3.302,-1.671 1.177,-2.151 1.557,-4.489 1.38,-5.971 -0.524,-3.565 0.381,-5.879 1.392,-8.205 z m 10.535,45.866 c 2.888,-2.119 5.853,-4.133 8.758,-6.229 0.69,-0.498 1.3,-1.189 0.952,-2.129 -0.324,-0.876 -1.134,-1.17 -2.025,-1.22 -1.696,-0.095 -3.609,-0.245 -4.768,1.063 -3.604,4.077 -8.516,5.492 -13.39,7.058 -0.341,0.108 -0.666,0.268 -0.992,0.417 -1.015,0.466 -2.05,1.033 -1.772,2.346 0.246,1.169 1.375,1.172 2.328,1.225 0.836,0.045 1.675,0.009 2.931,0.009 2.709,0.243 5.461,-0.692 7.978,-2.54 z m -60.442,-101.257 c 5.578,-2.992 11.632,-3.167 17.733,-3.177 0.851,-10e-4 1.747,-0.213 1.836,-1.298 0.07,-0.854 -0.636,-1.237 -1.288,-1.524 -0.87,-0.385 -1.769,-0.923 -2.678,-0.971 -6.076,-0.319 -12.171,-0.562 -16.998,4.197 -0.401,0.396 -0.681,0.916 -0.934,1.265 0.285,1.57 1.09,2.173 2.329,1.508 z m 8.385,156.08 c -0.829,-2.686 -2.254,-5.275 -4.763,-6.77 -2.15,-1.281 -5.153,0.707 -6.437,4.049 -0.986,2.566 0.826,3.445 2.723,4.078 1.913,0.639 3.887,1.096 5.46,1.528 2.392,0.043 3.559,-1.133 3.017,-2.885 z m 23.71,-41.507 c -2.048,0.278 -4.433,0.743 -4.707,3.454 -0.224,2.209 3.993,6.46 6.018,6.135 2.747,-0.441 3.218,-2.738 3.657,-4.533 -0.068,-2.739 -2.652,-5.369 -4.968,-5.056 z m -161.815,-37.528 c -2.117,3.015 -4.431,5.928 -6.192,9.14 -0.868,1.582 -1.821,2.998 -2.932,4.379 -0.531,0.66 -0.756,1.635 -0.023,2.281 0.748,0.662 1.273,-0.102 1.719,-0.637 3.413,-4.104 6.818,-8.212 10.224,-12.321 0.745,-0.901 0.919,-1.937 0.524,-3.013 -0.23,-0.63 -0.855,-0.761 -1.481,-0.768 -0.767,0.004 -1.415,0.335 -1.839,0.939 z m 164.067,138.373 c 0.801,-0.141 1.753,-0.455 1.8,-1.464 0.046,-1.003 -0.795,-1.281 -1.642,-1.573 -4.447,-1.529 -8.707,-0.221 -12.986,0.783 -0.571,0.135 -1.127,0.493 -1.09,1.224 0.036,0.72 0.611,1.081 1.191,1.124 2.021,0.148 3.932,1.118 6.023,0.885 2.237,-0.319 4.481,-0.59 6.704,-0.979 z m 40.262,-165.949 c -2.405,0.388 -4.128,1.978 -4.302,4.506 -0.143,2.097 3.117,4.218 5.841,4.237 2.74,0.019 3.075,-1.686 2.98,-3.484 -0.062,-2.952 -2.309,-5.616 -4.519,-5.259 z m -65.119,131.217 c -2.354,0.085 -4.351,1.52 -4.641,4.18 -0.197,1.803 2.758,4.518 4.563,4.262 2.629,-0.372 3.922,-2.064 4.088,-4.729 -0.171,-2.461 -1.894,-3.791 -4.01,-3.713 z m -61.371,-131.95 c 1.151,-1.172 2.6,-1.594 4.076,-2.045 0.943,-0.288 2.563,-0.021 2.402,-1.461 -0.137,-1.219 -1.764,-1.022 -2.691,-1.133 -3.915,-0.467 -7.276,1.731 -10.932,2.576 -0.902,0.208 -1.133,1.214 -0.758,2.081 0.715,1.655 2.287,1.402 2.795,1.458 2.509,0.152 3.98,-0.328 5.108,-1.476 z m 67.585,97.43 c 0.215,-2.892 -1.65,-3.803 -4.025,-3.874 -2.559,-0.076 -4.134,1.339 -4.066,3.935 0.07,2.674 1.771,3.994 3.925,4.225 3.327,-0.018 3.993,-1.949 4.166,-4.286 z m 143.851,20.16 c 1.449,-0.276 2.785,-0.931 2.506,-2.846 -0.324,-2.232 -3.559,-5.348 -5.267,-5.091 -2.19,0.329 -2.005,1.991 -2.001,3.554 0.204,2.325 2.746,4.766 4.762,4.383 z m -83.15,34.585 c 0.08,-0.483 -0.236,-1.185 -0.604,-1.565 -2.315,-2.39 -4.689,-4.723 -7.06,-7.059 -0.522,-0.516 -1.15,-0.926 -1.909,-0.541 -0.644,0.326 -0.779,1.029 -0.418,1.525 2.154,2.956 4.335,5.906 7.463,7.947 0.28,0.184 0.688,0.171 0.981,0.238 0.641,0.019 1.425,0.194 1.547,-0.545 z m -137.056,-172.779 c 0.048,2.093 1.605,3.373 3.758,3.49 1.926,0.105 3.304,-0.886 3.371,-2.842 0.084,-2.421 -1.703,-3.386 -3.176,-3.905 -2.872,-0.114 -3.996,1.377 -3.953,3.257 z m 121.235,161.071 c 0.29,0.109 0.775,0.142 0.974,-0.024 0.653,-0.546 0.435,-1.291 0.251,-1.989 -0.556,-2.114 -3.15,-5.061 -6.661,-7.574 -0.379,2.538 3.089,8.692 5.436,9.587 z m -84.45,-116.739 c 0.022,2.297 1.421,3.597 3.447,3.875 2.134,0.294 1.964,-1.56 2.039,-2.96 0.119,-2.25 -1.225,-3.173 -3.192,-3.458 -1.731,0.017 -2.308,1.013 -2.294,2.543 z"
       id="path3052" />
    <path
       style="fill:#c4e5f3;fill-opacity:1;stroke:#000000;stroke-width:0.70137709000000004px;stroke-linecap:butt;stroke-linejoin:miter;stroke-opacity:1"
       d="m 113.05693,116.66969 c 70,0 300,0 300,0 l 0,180 c -81.81284,9.6215 -160.85054,37.76705 -215,95 l 0,-155 c 0,0 -83.4221,-0.73851 -129.999999,0 15,-25 39.999999,-65 44.999999,-120 z"
       id="path3106"
       inkscape:connector-curvature="0"
       sodipodi:nodetypes="ccccccc" />
    <path
       style="fill:#c4e5f3;fill-rule:evenodd;stroke:#000000;stroke-miterlimit:10;fill-opacity:1"
       inkscape:connector-curvature="0"
       clip-rule="evenodd"
       stroke-miterlimit="10"
       d="m -144.14102,114.68618 c 1.331,7.551 1.313,10.614 1.099,14.749 -0.621,12.003 -3.977,21.387 -4.58,32.332 -0.563,10.227 -5.497,22.467 0.071,30.114 5.701,7.827 4.475,14.56 5.58,22.262 1.062,7.403 2.572,14.259 -0.193,21.63 -2.025,5.396 1.201,7.9 6.467,7.556 11.48201,-0.751 23.09001,-0.927 34.36901,-2.912 6.119997,-1.077 13.086997,1.837 17.438997,-0.551 14.117,-7.744 26.508,-18.506 32.994,-33.617 5.543004,-12.91 15.766004,-18.723 29.620004,-16.063 10.774,2.068 14.8969996,11.708 22.8489996,16.777 7.459,4.754 9.1960004,12.169 8.9080004,20.239 -0.105,2.963 0.775,4.691 3.069,6.407 8.418,6.296 31.664,2.804 39.084,-5.505 2.6,-2.91 -2.763,-6.502 2.359,-7.865 5.015,-1.334 5.441,-3.069 -0.292,-4.028 -2.187,-0.364 -2.854,-2.154 -1.415,-3.319 3.207,-2.595 4.962,-8.267 10.889,-5.844 12.682,-12.331 18.923,-28.106 23.836,-44.589 -1.743,-3.849 -0.222,-7.409 0.678,-11.161 2.383,-9.932 4.456,-19.939 6.495,-29.948 0.448,-2.197 1.502,-6.383 -1.982,-5.655 -5.573,1.166 -11.534,-2.064 -16.782,2.091 -4.33,3.428 -6.285,2.271 -7.162,-3.574 -1.87,-12.48 -6.84,-16.410999 -19.822,-17.600999 -2.228,-0.204 -4.426,-0.726 -6.639,-1.101 11.847,10.126999 11.797,19.677999 -0.127,31.990999 -1.545,1.595 -3.672,3.105 -4.257,5.04 -0.841,2.786 -4.035,2.813 -4.382,2.46 -7.186,-7.311 -12.609,0.453 -18.716,1.96 -1.904,0.47 -3.929,-1.513 -3.011,-2.188 4.971,-3.659 1.823,-10.325 7,-14.701 8.412,-7.111 14.869,-16.536 22.154,-24.983999 -12.361,-6.242 -14.732,8.566999 -24.635,13.106999 2.068,-4.826 3.112,-7.259 4.172,-9.730999 -19.7550004,-6.053 -28.7160004,-12.537 -30.4290004,-30.623 -4.0889996,-8.363 -12.0029996,-10.304 -20.0859996,-11.958 -4.69,3.114 -9.974,1.287 -14.975,1.783 -9.127004,0.904 -15.662004,3.85 -19.375004,13.871 -3.711,10.016 -11.537,17.895 -22.578,21.236 0.568,1.87 0.099,2.7 -1.908,1.995 0.6,1.899 0.105,2.698 -1.951,1.929 0.319,4.949999 -3.178,3.803999 -6.041,3.669999 -2.6,3.447 -7.303997,1.296 -10.349997,3.944 -6.654,5.786 -13.88,12.366 -12.508,-4.541999 0.088,-1.073 -1.35,-2.186 -1.697,-3.39 -2.951,-10.234 -10.877,-16.243 -18.74301,-22.223 -3.558,3.572 -3.217,8.463 -4.283,12.923 -0.643,2.689 -1.837,6.208 -1.212,8.971 2.561,11.086999 -1.137,6.518999 0.999,18.635999 z m 50.933007,91.973 c -0.02,-8.714 -1.965,-16.395 -7.149997,-24.254 15.761997,7.611 17.788997,14.727 7.149997,24.254 z m -16.012997,-40.556 c -1.874,0.622 -3.824,-0.648 -4.141,-2.947 -0.246,-1.793 0.962,-2.871 2.471,-3.691 5.779,-3.137 21.784997,2.72 24.861997,10.364 -7.236,-5.832 -14.959997,-6.454 -23.191997,-3.726 z m 34.948997,40.015 c -1.498,6.397 -0.41,14.565 -10.25,15.172 -1.679,0.103 -3.299,0.57 -3.82,-1.498 -0.18,-0.722 0.421,-2.351 0.805,-2.396 7.172,-0.855 5.318,-8.105 8.381,-11.852 1.027,-1.259 1.322,-2.953 3.365,-2.115 1.181,0.486 2.23,1.293 1.519,2.689 z m 9.045,-53.843 c -4.418,-1.949 -8.252,-3.642 -12.656,-5.584 4.946,-4.873 11.896,-2.78 16.38,-7.119 -1.095,4.625 -4.113,7.926 -3.724,12.703 z m 45.423004,29.247 c -3.11,-1.885 -10.904,-0.06 -8.853,-5.352 1.326,-3.417 6.976,1.911 10.695,3.216 3.89,1.366 7.589,3.273 12.6999996,5.531 -7.3789996,4.595 -10.8789996,-1.174 -14.5419996,-3.395 z m 86.257,3.58 c 1.348,-0.586 2.527,-2.35 4.083,-0.536 1.358,1.583 0.354,3.109 -0.64,4.285 -5.778,6.84 -12.129,12.831 -23.694,14.53 5.555,-9.65 12.176,-14.775 20.251,-18.279 z m -13.742,-32.577 c 3.261,0.665 6.516,2.175 5.598,6.17 -0.89,3.874 -2.849,7.502 -5.282,13.608 -3.279,-6.873 -1.448,-12.191 -3.803,-16.68 -0.89,-1.691 1.221,-3.56 3.487,-3.098 z m -0.486,32.729 c -4.927,10.232 -19.566,10.205 -22.26,21.151 -0.167,0.976 -0.31,1.974 -0.423,2.999 0.044,-1.089 0.197,-2.078 0.423,-2.999 1.987,-11.574 7.958,-19.632 22.26,-21.151 z m -16.682,-5.912 c -1.899,3.75 -3.188,5.933 -4.141,8.254 -1.699,4.14 -3.615,5.189 -6.23,0.749 -4.072,-6.917 -11.069,-8.351 -17.9360004,-8.134 -16.189,0.512 -28.9449996,-7.132 -41.0149996,-16.27 -5.417,-4.101 -9.97,-4.557 -15.479,-0.837 -5.754004,3.885 -4.053004,8.427 -2.104004,13.521 2.238004,5.851 4.475004,11.853 2.314004,21.625 -4.702004,-13.694 -11.932004,-22.424 -19.876004,-30.726 -1.681,-1.756 0.7,-2.879 2.884,-3.384 18.143004,-4.187 20.732004,-7.56 21.570004,-27.132 0.106,-2.483 -0.057,-5.257 2.964,-6.72 3.601,3.648 2.653,8.164 2.634,12.572 -0.052,11.818 5.197,16.785 15.084,22.958 17.9439996,11.201 37.627,12.797 59.331,13.524 z m -61.169,-41.766 c 2.996,7.876 5.705,15.187 14.922,20.42 -14.149,-1.666 -19.123,-9.274 -14.922,-20.42 z m 30.3719996,7.868 c 2.269,1.057 3.522,4.003 3.02,5.383 -1.831,5.017 -7.32600002,6.39 -10.329,9.84 -3.23,-1.076 -5.813,-1.783 -6.041,-4.97 -0.08,-1.112 12.431,-10.682 13.35,-10.253 z M -60.335013,79.649181 c 7.991,-10.922 22.213004,-12.016 30.341004,-1.482 1.241,1.608 2.517,3.382 1.148,5.151 -1.8,2.328 -3.177,0.485 -4.453,-1.042 -3.302,-3.948 -7.366,-2.716 -11.747,-1.712 1.075,3.533 2.507,6.789 2.988,10.18 0.637,4.471 0.271,7.963 -5.225,10.649999 -9.619004,4.704 -15.744004,14.617 -26.559004,19.598 2.163,-11.687 -7.016,-3.781 -10.833,-6.66 11.381,-9.404 16.013,-23.299999 24.34,-34.682999 z m -69.642997,27.740999 c -1.081,-4.085 -1.758,-7.991999 -5.95501,-13.229999 9.81501,5.708 9.85001,5.822 5.95501,13.229999 z m -4.56901,49.045 c 11.65501,-1.872 18.85201,-10.546 26.63601,-18.072 5.77,-5.58 11.604997,-8.603 19.868997,-6.025 6.619,2.064 12.683,-0.022 17.727,-4.817 1.633,-1.552 3.264,-3.106 4.873,-4.684 17.930004,-17.579 25.411004,-18.389 46.213004,-4.831 3.846,2.507 7.765,4.055 12.5279996,3.678 5.612,-0.444 7.47399998,1.754 3.439,6.554 -2.863,3.404 -2.895,7.142 -1.107,10.76 1.899,3.849 -0.132,5.929 -2.567,8.249 -1.635,1.555 -3.6359996,2.13 -5.2009996,0.904 -2.653,-2.083 -1.909,-5.292 -1.325,-8.076 2.469,-11.766 -5.544,-16.458 -13.753,-21.553 -8.359,-5.188 -16.204,-5.728 -24.071004,0.439 -3.032,2.376 -6.281,4.706 -8.624,7.691 -6.207,7.909 -13.123,13.123 -23.911,9.668 -1.602,-0.513 -3.952,0.131 -5.557,0.989 -17.201997,9.19 -34.150997,18.762 -47.695007,36.01 0,-5.166 0.172,-9.003 -0.065,-12.814 -0.14,-2.212 -0.041,-3.647 2.591,-4.07 z m 19.45801,25 c 10.876,9.792 10.593,19.178 8.955,28.24 -1.039,5.75 -6.446,9.332 -11.528,5.271 -6.085,-4.862 -13.126,-6.051 -20.76001,-9.381 15.21201,0.442 27.69001,-1.988 23.33301,-24.13 z m -28.66701,10.325 c -3.915,-7.566 -4.188,-14.943 2.152,-21.792 -1.932,7.259 -0.958,14.601 -2.152,21.792 z"
       id="path4012" />
    <g
       transform="translate(307.77568,609.99675)"
       style="font-size:40px;font-style:normal;font-weight:normal;line-height:125%;letter-spacing:0px;word-spacing:0px;fill:#000000;fill-opacity:1;stroke:none;font-family:Sans"
       id="flowRoot4388-7">
      <path
         d="m -168.57422,-419.32706 0,-28.63281 12.69531,0 c 2.55207,3e-5 4.49217,0.25719 5.82032,0.77148 1.3281,0.51435 2.3893,1.42255 3.18359,2.72461 0.79425,1.30211 1.19138,2.74091 1.19141,4.31641 -3e-5,2.03127 -0.65758,3.7435 -1.97266,5.13672 -1.31513,1.39324 -3.34637,2.27865 -6.09375,2.65625 1.00259,0.48178 1.7643,0.95704 2.28516,1.42578 1.10675,1.01563 2.15492,2.28516 3.14453,3.80859 l 4.98047,7.79297 -4.76563,0 -3.78906,-5.95703 c -1.10679,-1.71874 -2.01825,-3.03385 -2.73438,-3.94531 -0.71616,-0.91145 -1.35743,-1.54947 -1.92382,-1.91407 -0.56643,-0.36457 -1.1426,-0.61847 -1.72852,-0.76172 -0.4297,-0.0911 -1.13282,-0.1367 -2.10937,-0.13671 l -4.39454,0 0,12.71484 z m 3.78906,-15.99609 8.14454,0 c 1.73175,10e-6 3.08591,-0.17902 4.0625,-0.53711 0.97654,-0.35806 1.71872,-0.93098 2.22656,-1.71875 0.50779,-0.78775 0.76169,-1.64386 0.76172,-2.56836 -3e-5,-1.35415 -0.49156,-2.46743 -1.47461,-3.33985 -0.9831,-0.87237 -2.53583,-1.30857 -4.65821,-1.30859 l -9.0625,0 z"
         style=""
         id="path2990" />
      <path
         d="m -140.15625,-443.9169 0,-4.04297 3.51563,0 0,4.04297 z m 0,24.58984 0,-20.74219 3.51563,0 0,20.74219 z"
         style=""
         id="path2992" />
      <path
         d="m -131.91406,-417.60831 3.41797,0.50781 c 0.14322,1.05469 0.54035,1.82291 1.1914,2.30469 0.87239,0.65104 2.0638,0.97656 3.57422,0.97656 1.62759,0 2.8841,-0.32552 3.76953,-0.97656 0.8854,-0.65105 1.48436,-1.5625 1.79688,-2.73438 0.18227,-0.71614 0.26691,-2.22005 0.2539,-4.51171 -1.53647,1.80989 -3.45053,2.71484 -5.74218,2.71484 -2.85157,0 -5.0586,-1.02865 -6.6211,-3.08594 -1.5625,-2.05728 -2.34375,-4.52473 -2.34375,-7.40234 0,-1.97916 0.35807,-3.80533 1.07422,-5.47852 0.71614,-1.67316 1.75455,-2.96547 3.11524,-3.87695 1.36067,-0.91144 2.95897,-1.36717 4.79492,-1.36719 2.4479,2e-5 4.46613,0.98961 6.05468,2.96875 l 0,-2.5 3.24219,0 0,17.92969 c -2e-5,3.22917 -0.32879,5.51757 -0.98633,6.86523 -0.65757,1.34765 -1.69923,2.41211 -3.125,3.19336 -1.42579,0.78124 -3.18035,1.17187 -5.26367,1.17188 -2.47396,-1e-5 -4.47266,-0.55665 -5.99609,-1.66992 -1.52344,-1.11329 -2.25912,-2.78972 -2.20703,-5.0293 z m 2.91015,-12.46094 c 0,2.72136 0.54036,4.70704 1.6211,5.95703 1.08072,1.25001 2.43488,1.87501 4.0625,1.875 1.61457,10e-6 2.96873,-0.62174 4.0625,-1.86523 1.09373,-1.24349 1.64061,-3.19335 1.64062,-5.84961 -1e-5,-2.53905 -0.56316,-4.45311 -1.68945,-5.74219 -1.12632,-1.28904 -2.48374,-1.93357 -4.07227,-1.93359 -1.56251,2e-5 -2.89063,0.63478 -3.98437,1.90429 -1.09376,1.26955 -1.64063,3.15431 -1.64063,5.6543 z"
         style=""
         id="path2994" />
      <path
         d="m -109.00391,-419.32706 0,-28.63281 3.51563,0 0,10.27343 c 1.64062,-1.90102 3.71093,-2.85154 6.210936,-2.85156 1.536445,2e-5 2.871079,0.30276 4.003907,0.9082 1.132795,0.60549 1.943341,1.44208 2.43164,2.50977 0.488262,1.06773 0.732402,2.6172 0.732422,4.64844 l 0,13.14453 -3.515625,0 0,-13.14453 c -1.6e-5,-1.7578 -0.380875,-3.0371 -1.142578,-3.83789 -0.761733,-0.80077 -1.839206,-1.20116 -3.232422,-1.20117 -1.04168,10e-6 -2.02149,0.2702 -2.93945,0.81054 -0.91798,0.54038 -1.57228,1.2728 -1.96289,2.19727 -0.39064,0.92449 -0.58595,2.20053 -0.58594,3.82812 l 0,11.34766 z"
         style=""
         id="path2996" />
      <path
         d="m -79.0625,-422.47159 0.507813,3.10547 c -0.989594,0.20833 -1.875009,0.3125 -2.65625,0.3125 -1.276049,0 -2.265631,-0.20183 -2.96875,-0.60547 -0.70313,-0.40365 -1.197921,-0.93425 -1.484375,-1.5918 -0.286462,-0.65755 -0.429691,-2.04101 -0.429688,-4.15039 l 0,-11.93359 -2.578125,0 0,-2.73438 2.578125,0 0,-5.13672 3.496094,-2.10937 0,7.24609 3.535156,0 0,2.73438 -3.535156,0 0,12.1289 c -7e-6,1.00261 0.06184,1.64714 0.185547,1.9336 0.12369,0.28646 0.325513,0.51432 0.605468,0.68359 0.27994,0.16927 0.680331,0.25391 1.201172,0.25391 0.390616,0 0.904938,-0.0456 1.542969,-0.13672 z"
         style=""
         id="path2998" />
      <path
         d="m -64.101562,-419.32706 0,-28.63281 10.800781,0 c 1.901026,3e-5 3.352847,0.0912 4.355469,0.27343 1.40623,0.23441 2.584614,0.68037 3.535156,1.33789 0.950498,0.65758 1.715471,1.57881 2.294922,2.76368 0.579402,1.18492 0.869115,2.487 0.86914,3.90625 -2.5e-5,2.43491 -0.774764,4.49546 -2.324218,6.18164 -1.549501,1.68621 -4.348977,2.52931 -8.398438,2.52929 l -7.34375,0 0,11.64063 z m 3.789062,-15.01953 7.402344,0 c 2.4479,10e-6 4.186179,-0.45572 5.214844,-1.36719 1.028625,-0.91144 1.542947,-2.19399 1.542968,-3.84766 -2.1e-5,-1.19789 -0.302755,-2.22328 -0.908203,-3.07617 -0.605488,-0.85284 -1.403013,-1.41599 -2.392578,-1.68945 -0.638038,-0.16925 -1.816422,-0.25388 -3.535156,-0.25391 l -7.324219,0 z"
         style=""
         id="path3000" />
      <path
         d="m -24.296875,-421.88565 c -1.302098,1.10677 -2.555352,1.88802 -3.759766,2.34375 -1.204438,0.45572 -2.496754,0.68359 -3.876953,0.68359 -2.278652,0 -4.029952,-0.55664 -5.253906,-1.66992 -1.22396,-1.11328 -1.835939,-2.53581 -1.835937,-4.26758 -2e-6,-1.01562 0.231118,-1.94335 0.693359,-2.7832 0.462237,-0.83984 1.067705,-1.51367 1.816406,-2.02149 0.748693,-0.5078 1.591791,-0.89191 2.529297,-1.15234 0.690097,-0.18228 1.731763,-0.35806 3.125,-0.52735 2.838529,-0.33853 4.928371,-0.74217 6.269531,-1.21093 0.013,-0.48176 0.01952,-0.78775 0.01953,-0.91797 -1.6e-5,-1.43228 -0.332047,-2.44139 -0.996094,-3.02735 -0.898452,-0.79425 -2.233086,-1.19138 -4.003906,-1.1914 -1.653656,2e-5 -2.874357,0.28973 -3.66211,0.86914 -0.787767,0.57944 -1.370448,1.60483 -1.748047,3.07617 l -3.4375,-0.46875 c 0.312498,-1.47134 0.82682,-2.65949 1.542969,-3.56445 0.716142,-0.90493 1.751297,-1.60155 3.105469,-2.08985 1.354158,-0.48826 2.923167,-0.7324 4.707031,-0.73242 1.77082,2e-5 3.209621,0.20836 4.316406,0.625 1.106754,0.41669 1.920556,0.94078 2.441407,1.57227 0.520814,0.63153 0.885397,1.42905 1.09375,2.39258 0.117168,0.59897 0.175761,1.6797 0.175781,3.24218 l 0,4.6875 c -2e-5,3.26824 0.07485,5.33529 0.224609,6.20117 0.14972,0.86589 0.445944,1.69597 0.888672,2.49024 l -3.671875,0 c -0.3646,-0.72917 -0.598975,-1.58203 -0.703125,-2.55859 z m -0.292969,-7.85157 c -1.276056,0.52085 -3.190117,0.96355 -5.742187,1.32813 -1.445321,0.20834 -2.467456,0.44271 -3.066406,0.70312 -0.598965,0.26043 -1.061204,0.64129 -1.386719,1.14258 -0.325526,0.50131 -0.488287,1.05795 -0.488281,1.66992 -6e-6,0.93751 0.354812,1.71876 1.064453,2.34375 0.709628,0.62501 1.748038,0.93751 3.115234,0.9375 1.354156,10e-6 2.558582,-0.29622 3.613281,-0.88867 1.054674,-0.59244 1.829413,-1.40299 2.324219,-2.43164 0.377588,-0.79426 0.56639,-1.96614 0.566406,-3.51562 z"
         style=""
         id="path3002" />
      <path
         d="m -15.605469,-419.32706 0,-20.74219 3.164063,0 0,3.14453 c 0.807285,-1.47133 1.552727,-2.44138 2.236328,-2.91015 0.6835849,-0.46873 1.4355373,-0.70311 2.2558593,-0.70313 1.1848843,2e-5 2.3893102,0.37763 3.6132812,1.13281 l -1.2109375,3.26172 c -0.8593868,-0.50779 -1.7187609,-0.7617 -2.578125,-0.76172 -0.7682385,2e-5 -1.458342,0.23114 -2.070313,0.69336 -0.611986,0.46226 -1.048184,1.10353 -1.308593,1.92383 -0.390632,1.25002 -0.585944,2.6172 -0.585938,4.10156 l 0,10.85938 z"
         style=""
         id="path3004" />
      <path
         d="m -2.1875,-443.9169 0,-4.04297 3.515625,0 0,4.04297 z m 0,24.58984 0,-20.74219 3.515625,0 0,20.74219 z"
         style=""
         id="path3006" />
      <path
         d="m 20.898437,-426.00675 3.632813,0.44922 c -0.572937,2.1224 -1.634133,3.76953 -3.183594,4.94141 -1.549495,1.17187 -3.528659,1.75781 -5.9375,1.75781 -3.033862,0 -5.4394588,-0.93425 -7.2167966,-2.80274 -1.7773461,-1.86848 -2.6660171,-4.48892 -2.6660157,-7.86132 -1.4e-6,-3.48957 0.8984352,-6.1979 2.6953126,-8.125 1.7968687,-1.92707 4.1275957,-2.89061 6.9921877,-2.89063 2.773423,2e-5 5.039046,0.94403 6.796875,2.83203 1.757793,1.88804 2.636698,4.54429 2.636718,7.96875 -2e-5,0.20835 -0.0065,0.52085 -0.01953,0.9375 l -15.4687497,0 c 0.1302031,2.27866 0.7747337,4.02345 1.9335937,5.23438 1.158846,1.21094 2.604157,1.81641 4.335938,1.8164 1.289049,1e-5 2.389309,-0.33853 3.300781,-1.01562 0.911443,-0.67708 1.634098,-1.75781 2.167968,-3.24219 z m -11.5429682,-5.68359 11.5820312,0 c -0.156267,-1.74478 -0.598975,-3.05337 -1.328125,-3.92578 -1.119806,-1.35415 -2.571628,-2.03124 -4.355469,-2.03125 -1.614593,1e-5 -2.972013,0.54038 -4.072265,1.62109 -1.100267,1.08075 -1.7089902,2.52606 -1.8261722,4.33594 z"
         style=""
         id="path3008" />
      <path
         d="m 36.640625,-422.47159 0.507812,3.10547 c -0.989593,0.20833 -1.875008,0.3125 -2.65625,0.3125 -1.276048,0 -2.26563,-0.20183 -2.96875,-0.60547 -0.703129,-0.40365 -1.19792,-0.93425 -1.484375,-1.5918 -0.286461,-0.65755 -0.42969,-2.04101 -0.429687,-4.15039 l 0,-11.93359 -2.578125,0 0,-2.73438 2.578125,0 0,-5.13672 3.496094,-2.10937 0,7.24609 3.535156,0 0,2.73438 -3.535156,0 0,12.1289 c -7e-6,1.00261 0.06184,1.64714 0.185547,1.9336 0.12369,0.28646 0.325513,0.51432 0.605468,0.68359 0.27994,0.16927 0.680331,0.25391 1.201172,0.25391 0.390616,0 0.904938,-0.0456 1.542969,-0.13672 z"
         style=""
         id="path3010" />
      <path
         d="m 53.59375,-421.88565 c -1.302098,1.10677 -2.555352,1.88802 -3.759766,2.34375 -1.204438,0.45572 -2.496754,0.68359 -3.876953,0.68359 -2.278652,0 -4.029952,-0.55664 -5.253906,-1.66992 -1.22396,-1.11328 -1.835939,-2.53581 -1.835938,-4.26758 -1e-6,-1.01562 0.231119,-1.94335 0.69336,-2.7832 0.462237,-0.83984 1.067705,-1.51367 1.816406,-2.02149 0.748693,-0.5078 1.591791,-0.89191 2.529297,-1.15234 0.690097,-0.18228 1.731763,-0.35806 3.125,-0.52735 2.838529,-0.33853 4.928371,-0.74217 6.269531,-1.21093 0.013,-0.48176 0.01952,-0.78775 0.01953,-0.91797 -1.5e-5,-1.43228 -0.332046,-2.44139 -0.996093,-3.02735 -0.898452,-0.79425 -2.233086,-1.19138 -4.003907,-1.1914 -1.653655,2e-5 -2.874356,0.28973 -3.662109,0.86914 -0.787767,0.57944 -1.370448,1.60483 -1.748047,3.07617 l -3.4375,-0.46875 c 0.312498,-1.47134 0.82682,-2.65949 1.542969,-3.56445 0.716142,-0.90493 1.751297,-1.60155 3.105469,-2.08985 1.354158,-0.48826 2.923167,-0.7324 4.707031,-0.73242 1.77082,2e-5 3.209621,0.20836 4.316406,0.625 1.106754,0.41669 1.920556,0.94078 2.441406,1.57227 0.520815,0.63153 0.885398,1.42905 1.09375,2.39258 0.117169,0.59897 0.175762,1.6797 0.175782,3.24218 l 0,4.6875 c -2e-5,3.26824 0.07485,5.33529 0.224609,6.20117 0.14972,0.86589 0.445944,1.69597 0.888672,2.49024 l -3.671875,0 c -0.3646,-0.72917 -0.598975,-1.58203 -0.703125,-2.55859 z m -0.292969,-7.85157 c -1.276056,0.52085 -3.190117,0.96355 -5.742187,1.32813 -1.445321,0.20834 -2.467456,0.44271 -3.066407,0.70312 -0.598964,0.26043 -1.061203,0.64129 -1.386718,1.14258 -0.325526,0.50131 -0.488287,1.05795 -0.488282,1.66992 -5e-6,0.93751 0.354813,1.71876 1.064454,2.34375 0.709628,0.62501 1.748038,0.93751 3.115234,0.9375 1.354156,10e-6 2.558582,-0.29622 3.613281,-0.88867 1.054674,-0.59244 1.829413,-1.40299 2.324219,-2.43164 0.377588,-0.79426 0.56639,-1.96614 0.566406,-3.51562 z"
         style=""
         id="path3012" />
      <path
         d="m 62.246094,-419.32706 0,-28.63281 3.515625,0 0,28.63281 z"
         style=""
         id="path3014" />
    </g>
  </g>
</svg>
