<?xml version="1.0" encoding="UTF-8" standalone="no"?>
<!-- Created with Inkscape (http://www.inkscape.org/) -->

<svg
   xmlns:dc="http://purl.org/dc/elements/1.1/"
   xmlns:cc="http://creativecommons.org/ns#"
   xmlns:rdf="http://www.w3.org/1999/02/22-rdf-syntax-ns#"
   xmlns:svg="http://www.w3.org/2000/svg"
   xmlns="http://www.w3.org/2000/svg"
   xmlns:sodipodi="http://sodipodi.sourceforge.net/DTD/sodipodi-0.dtd"
   xmlns:inkscape="http://www.inkscape.org/namespaces/inkscape"
   id="svg3333"
   version="1.1"
   inkscape:version="0.48.4 r9939"
   sodipodi:docname="parietal_right_active.svg">
  <defs
     id="defs3335" />
  <sodipodi:namedview
     id="base"
     pagecolor="#ffffff"
     bordercolor="#ffffff"
     borderopacity="0.0"
     inkscape:pageopacity="0.0"
     inkscape:pageshadow="0"
     inkscape:zoom="0.35"
     inkscape:cx="-197.14286"
     inkscape:cy="520"
     inkscape:document-units="px"
     inkscape:current-layer="layer1"
     showgrid="false"
     inkscape:window-width="1920"
     inkscape:window-height="1018"
     inkscape:window-x="1392"
     inkscape:window-y="-8"
     inkscape:window-maximized="1" />
  <metadata
     id="metadata3338">
    <rdf:RDF>
      <cc:Work
         rdf:about="">
        <dc:format>image/svg+xml</dc:format>
        <dc:type
           rdf:resource="http://purl.org/dc/dcmitype/StillImage" />
        <dc:title></dc:title>
      </cc:Work>
    </rdf:RDF>
  </metadata>
  <g
     inkscape:label="Layer 1"
     inkscape:groupmode="layer"
     id="layer1">
    <path
       id="path3313"
       d="m 208.32679,610.1539 c -1.331,-7.551 -1.313,-10.613 -1.099,-14.748 0.621,-12.004 3.977,-21.387 4.58,-32.332 0.563,-10.227 5.497,-22.467 -0.071,-30.114 -5.701,-7.827 -4.475,-14.56 -5.58,-22.262 -1.062,-7.403 -2.572,-14.259 0.193,-21.63 2.025,-5.396 -1.201,-7.9 -6.467,-7.556 -11.482,0.751 -23.09,0.927 -34.369,2.912 -6.12,1.077 -13.087,-1.837 -17.439,0.551 -14.117,7.744 -26.508,18.506 -32.994,33.617 -5.54301,12.91 -15.766007,18.723 -29.620007,16.063 -10.774,-2.068 -14.897,-11.708 -22.849005,-16.777 -7.459,-4.754 -9.196,-12.169 -8.908,-20.239 0.105,-2.963 -0.775,-4.691 -3.069,-6.407 -8.418,-6.296 -31.664,-2.804 -39.084,5.505 -2.5999996,2.91 2.763,6.502 -2.3589996,7.865 -5.015,1.334 -5.441,3.069 0.292,4.028 2.1869996,0.364 2.8539996,2.154 1.4149996,3.319 -3.2069996,2.595 -4.9619996,8.267 -10.88899955,5.844 -12.68200045,12.331 -18.92300045,28.106 -23.83599945,44.589 1.743,3.849 0.222,7.409 -0.678,11.161 -2.383,9.932 -4.456,19.939 -6.495,29.948 -0.448,2.196 -1.502,6.384 1.982,5.655 5.573,-1.166 11.533999,2.064 16.781999,-2.091 4.3300004,-3.429 6.2850004,-2.271 7.1620004,3.573 1.87,12.48 6.84,16.412 19.8219996,17.602 2.228,0.203 4.426,0.727 6.639,1.102 -11.8469996,-10.127 -11.7969996,-19.678 0.127,-31.992 1.545,-1.595 3.672,-3.105 4.257,-5.039 0.841,-2.786 4.035,-2.813 4.382,-2.46 7.186,7.311 12.609,-0.452 18.716,-1.96 1.904,-0.471 3.929,1.514 3.011,2.188 -4.971,3.659 -1.823,10.325 -7,14.7 -8.412,7.111 -14.869,16.536 -22.154,24.984 12.361,6.242 14.732,-8.566 24.635,-13.107 -2.068,4.826 -3.112,7.26 -4.172,9.732 19.755,6.053 28.716005,12.536 30.429005,30.622 4.089,8.363 12.003,10.304 20.086,11.958 4.69,-3.114 9.973997,-1.287 14.974997,-1.783 9.12701,-0.904 15.66201,-3.85 19.37501,-13.871 3.711,-10.016 11.537,-17.895 22.578,-21.236 -0.568,-1.87 -0.099,-2.7 1.908,-1.995 -0.6,-1.899 -0.105,-2.698 1.951,-1.929 -0.319,-4.95 3.178,-3.804 6.041,-3.67 2.6,-3.447 7.304,-1.297 10.35,-3.944 6.654,-5.786 13.88,-12.366 12.508,4.542 -0.088,1.072 1.35,2.186 1.697,3.39 2.951,10.234 10.877,16.243 18.743,22.223 3.558,-3.572 3.217,-8.463 4.283,-12.923 0.643,-2.689 1.837,-6.208 1.212,-8.971 -2.561,-11.086 1.137,-6.52 -0.999,-18.637 z m -50.933,-91.972 c 0.02,8.714 1.965,16.395 7.15,24.254 -15.762,-7.611 -17.789,-14.727 -7.15,-24.254 z m 16.013,40.556 c 1.874,-0.622 3.824,0.648 4.141,2.947 0.246,1.793 -0.962,2.871 -2.471,3.691 -5.779,3.137 -21.785,-2.72 -24.862,-10.364 7.236,5.832 14.96,6.454 23.192,3.726 z m -34.949,-40.015 c 1.498,-6.397 0.41,-14.565 10.25,-15.172 1.679,-0.103 3.299,-0.57 3.82,1.498 0.18,0.722 -0.421,2.351 -0.805,2.396 -7.172,0.855 -5.318,8.105 -8.381,11.852 -1.027,1.259 -1.322,2.953 -3.365,2.115 -1.181,-0.486 -2.23,-1.293 -1.519,-2.689 z m -9.045,53.843 c 4.418,1.949 8.252,3.642 12.656,5.584 -4.946,4.873 -11.896,2.781 -16.38,7.119 1.095,-4.625 4.113,-7.926 3.724,-12.703 z m -45.423007,-29.247 c 3.11,1.885 10.904,0.06 8.853,5.352 -1.326,3.417 -6.976,-1.911 -10.695,-3.216 -3.89,-1.366 -7.589,-3.273 -12.7,-5.531 7.379,-4.595 10.879,1.174 14.542,3.395 z m -86.2570046,-3.58 c -1.348,0.586 -2.527,2.35 -4.083,0.536 -1.358,-1.583 -0.354,-3.109 0.64,-4.285 5.77800005,-6.84 12.129,-12.831 23.6939996,-14.53 -5.555,9.65 -12.1759996,14.775 -20.2509996,18.279 z m 13.7419996,32.577 c -3.2609996,-0.665 -6.5159996,-2.175 -5.5979996,-6.17 0.89,-3.874 2.849,-7.502 5.2819996,-13.608 3.279,6.873 1.448,12.191 3.803,16.68 0.89,1.691 -1.221,3.56 -3.487,3.098 z m 0.486,-32.729 c 4.927,-10.232 19.566,-10.205 22.26,-21.151 0.167,-0.976 0.31,-1.974 0.423,-2.999 -0.044,1.089 -0.197,2.078 -0.423,2.999 -1.987,11.574 -7.958,19.632 -22.26,21.151 z m 16.682,5.912 c 1.899,-3.75 3.188,-5.933 4.141,-8.254 1.699,-4.14 3.615,-5.189 6.23,-0.749 4.072,6.917 11.069,8.351 17.936,8.134 16.189005,-0.512 28.945005,7.132 41.015005,16.27 5.416997,4.101 9.969997,4.557 15.479007,0.837 5.754,-3.885 4.053,-8.427 2.104,-13.521 -2.238,-5.851 -4.47501,-11.853 -2.314,-21.625 4.702,13.694 11.932,22.424 19.876,30.726 1.681,1.756 -0.7,2.879 -2.884,3.384 -18.14301,4.187 -20.73201,7.56 -21.57001,27.132 -0.106,2.483 0.057,5.257 -2.964,6.72 -3.601,-3.647 -2.653,-8.163 -2.634,-12.571 0.052,-11.818 -5.196997,-16.785 -15.083997,-22.958 -17.944,-11.202 -37.627005,-12.798 -59.331005,-13.525 z m 61.169005,41.766 c -2.996,-7.877 -5.705,-15.188 -14.922,-20.42 14.149,1.666 19.123,9.274 14.922,20.42 z m -30.372005,-7.868 c -2.269,-1.058 -3.522,-4.003 -3.02,-5.383 1.831,-5.017 7.326,-6.39 10.329,-9.84 3.230005,1.076 5.813005,1.783 6.041005,4.97 0.08,1.112 -12.431005,10.682 -13.350005,10.253 z m 65.081012,65.795 c -7.991,10.922 -22.21301,12.016 -30.341007,1.482 -1.241,-1.608 -2.517,-3.382 -1.148,-5.151 1.8,-2.328 3.177,-0.485 4.453,1.042 3.301997,3.948 7.365997,2.716 11.746997,1.712 -1.075,-3.533 -2.507,-6.789 -2.988,-10.18 -0.637,-4.471 -0.271,-7.963 5.225,-10.65 9.61901,-4.703 15.74401,-14.616 26.55901,-19.598 -2.163,11.688 7.016,3.781 10.833,6.66 -11.381,9.404 -16.013,23.3 -24.34,34.683 z m 69.643,-27.741 c 1.081,4.086 1.758,7.992 5.955,13.23 -9.815,-5.709 -9.85,-5.822 -5.955,-13.23 z m 4.569,-49.045 c -11.655,1.872 -18.852,10.547 -26.636,18.072 -5.77,5.58 -11.605,8.603 -19.869,6.025 -6.619,-2.064 -12.683,0.022 -17.727,4.817 -1.633,1.552 -3.264,3.106 -4.873,4.684 -17.93001,17.579 -25.41101,18.389 -46.213007,4.831 -3.846,-2.508 -7.765,-4.056 -12.528,-3.679 -5.612005,0.444 -7.474005,-1.754 -3.439005,-6.554 2.863005,-3.404 2.895005,-7.142 1.107005,-10.76 -1.899005,-3.85 0.132,-5.929 2.567,-8.248 1.635,-1.556 3.636,-2.131 5.201,-0.904 2.653,2.082 1.909,5.293 1.325,8.076 -2.469,11.766 5.544,16.457 13.753,21.553 8.359,5.188 16.203997,5.728 24.071007,-0.439 3.032,-2.377 6.281,-4.706 8.624,-7.691 6.207,-7.908 13.123,-13.123 23.911,-9.668 1.602,0.513 3.952,-0.131 5.557,-0.988 17.202,-9.191 34.151,-18.763 47.695,-36.01 0,5.166 -0.172,9.003 0.065,12.814 0.14,2.211 0.041,3.646 -2.591,4.069 z m -19.458,-25 c -10.876,-9.792 -10.593,-19.178 -8.955,-28.24 1.039,-5.75 6.446,-9.332 11.528,-5.271 6.085,4.862 13.126,6.051 20.76,9.381 -15.212,-0.442 -27.69,1.988 -23.333,24.13 z m 28.667,-10.325 c 3.915,7.566 4.188,14.943 -2.152,21.792 1.932,-7.259 0.958,-14.601 2.152,-21.792 z"
       stroke-miterlimit="10"
       clip-rule="evenodd"
       inkscape:connector-curvature="0"
       style="fill:#c4e5f3;fill-rule:evenodd;stroke:#000000;stroke-width:1;stroke-miterlimit:10;fill-opacity:1" />
  </g>
</svg>
