<?xml version="1.0" encoding="UTF-8" standalone="no"?>
<!-- Created with Inkscape (http://www.inkscape.org/) -->

<svg
   xmlns:dc="http://purl.org/dc/elements/1.1/"
   xmlns:cc="http://creativecommons.org/ns#"
   xmlns:rdf="http://www.w3.org/1999/02/22-rdf-syntax-ns#"
   xmlns:svg="http://www.w3.org/2000/svg"
   xmlns="http://www.w3.org/2000/svg"
   xmlns:sodipodi="http://sodipodi.sourceforge.net/DTD/sodipodi-0.dtd"
   xmlns:inkscape="http://www.inkscape.org/namespaces/inkscape"
   id="svg3293"
   version="1.1"
   inkscape:version="0.48.4 r9939"
   sodipodi:docname="parietal_left_active.svg">
  <defs
     id="defs3295" />
  <sodipodi:namedview
     id="base"
     pagecolor="#ffffff"
     bordercolor="#ffffff"
     borderopacity="0.0"
     inkscape:pageopacity="0.0"
     inkscape:pageshadow="0"
     inkscape:zoom="0.35"
     inkscape:cx="-197.14286"
     inkscape:cy="520"
     inkscape:document-units="px"
     inkscape:current-layer="layer1"
     showgrid="false"
     inkscape:window-width="1920"
     inkscape:window-height="1018"
     inkscape:window-x="1392"
     inkscape:window-y="-8"
     inkscape:window-maximized="1" />
  <metadata
     id="metadata3298">
    <rdf:RDF>
      <cc:Work
         rdf:about="">
        <dc:format>image/svg+xml</dc:format>
        <dc:type
           rdf:resource="http://purl.org/dc/dcmitype/StillImage" />
        <dc:title></dc:title>
      </cc:Work>
    </rdf:RDF>
  </metadata>
  <g
     inkscape:label="Layer 1"
     inkscape:groupmode="layer"
     id="layer1">
    <path
       id="path3270"
       d="m -559.92403,151.00851 c 11.207,11.335 20.334,24.011 22.894,40.104 0.773,4.863 4.253,6.781 6.635,9.97 2.86,3.828 7.958,7.21 3.032,12.894 -3.334,-2.128 -2.988,-7.063 -7.176,-8.589 6.209,2.215 -10.117,19.018 8.948,12.905 0.131,3.636 1.809,6.308 4.021,9.305 15.262,20.682 15.122,43.341 7.603,66.741 -8.889,0.329 -16.982,-1.912 -24.686,-6.514 -5.152,-3.079 -11.393,-8.395 -14.932,2.294 -0.351,1.062 -2.598,2.069 -3.997,2.117 -10.629,0.36 -12.479,7.309 -11.966,15.836 0.619,10.278 2.336,20.499 1.565,30.844 -0.324,4.373 -1.395,9.106 -6.58,9.086 -7.241,-0.026 -19.554,-16.743 -17.728,-23.593 3.333,-12.507 -0.758,-22.792 -7.96,-32.855 -5.151,-7.197 -14.02,-11.178 -17.289,-19.531 -2.663,-6.805 -5.591,-8.8 -11.678,-4.084 -3.402,2.635 -7.373,5.51 -10.984,1.138 -6.172,-7.47 -13.417,-13.497 -22.563,-17.735 7.672,-6.069 15.951,-8.191 23.285,-12.174 2.063,-1.12 4.372,-1.747 3.811,-4.647 -0.729,-3.756 -3.396,-1.771 -5.3,-1.452 -11.855,1.99 -11.819,2.021 -11.906,-9.714 -0.028,-3.862 -0.391,-7.59 3.734,-10.078 4.05,-2.443 2.621,-5.504 0.85,-9.035 -1.63,-3.248 -3.301,-6.21 -6.15,-8.462 -2.967,-2.345 -4.763,-5.271 -4.813,-9.191 0.943,-0.05 1.7,-0.327 2.2,-0.083 14.047,6.875 27.826,8.299 41.395,-1.365 2.266,-1.614 4.355,0.099 6.771,1.487 15.99,9.185 17.462,26.449 24.672,40.338 5.186,-3.772 8.77,-3.39 8.106,1.586 -1.396,10.47 8.255,13.773 11.792,21.039 1.112,-10.483 -7.662,-18.935 -5.097,-29.947 -5.473,0.536 -11.415,2.498 -14.076,-3.172 -5.999,-12.784 -14.295,-24.188 -20.954,-36.535 -4.323,-8.016 0.779,-16.605 9.753,-16.837 5.721,-0.146 10.515,-1.9 15.129,-5.011 5.922,-3.991 12.311,-6.888 19.639,-7.08 z m -17.778,97.098 c -0.185,-0.462 -0.369,-0.923 -0.554,-1.385 0.208,0.437 0.416,0.875 0.625,1.312 2.772,6.192 8.237,10.163 13.145,16.959 -1.361,-9.749 -4.308,-15.802 -13.216,-16.886 z m 27.08,-15.514 c 3.881,0.279 3.8,10.273 8.761,4.843 2.822,-3.09 8.954,-9.388 -0.259,-15.078 -7.381,-4.558 -11.504,-12.916 -15.805,-21.513 -0.918,7.743 0.837,14.557 -1.456,21.125 -2.692,7.713 -0.896,9.837 8.846,10.547 l -0.087,0.076 z m 29.769,39.619 c -3.725,-4.705 -7.83,-10.942 -11.425,-6.034 -4.305,5.879 -7.291,3.017 -11.637,2.59 -3.252,-0.32 -8.32,-2.57 -9.745,3.02 -1.411,5.539 4.1,3.215 6.245,4.752 2.068,1.484 4.386,2.625 6.625,3.861 5.397,2.977 10.051,1.918 10.819,-4.351 0.777,-6.33 4.883,-2.849 9.118,-3.838 z m -103.156,-61.15 c 0.34,3.811 -1.309,9.51 5.08,8.917 4.18,-0.387 11.101,-1.009 10.048,-7.428 -0.67,-4.078 0.875,-11.738 -4.378,-12.027 -4.535,-0.249 -11.465,2.615 -10.75,10.538 z m 75.375,-33.956 c 0.314,-9.269 -5.786,-13.296 -9.364,-18.559 -1.004,-1.476 -2.708,-4.54 -5.207,-2.117 -1.843,1.786 -0.736,4.354 0.806,6.065 4.135,4.588 8.458,9.007 13.765,14.611 z m -42.504,59.207 c -4.496,2.576 -5.985,5.935 -4.414,9.23 2.153,4.514 6.667,5.695 13.008,5.805 -4.825,-4.802 -10.3,-7.683 -8.594,-15.035 z m 47.198,-31.008 c 2.102,-5.681 -0.461,-8.595 -4.085,-10.711 -0.585,-0.341 -3.448,1.392 -3.522,2.307 -0.428,5.253 4.616,5.354 7.607,8.404 z m -22.489,-8.183 c -1.965,-2.504 -2.367,-3.456 -3.077,-3.846 -2.901,-1.591 -5.476,-4.741 -9.31,-2.749 -0.915,0.475 -2.056,2.254 -1.799,2.967 1.641,4.55 6.14,1.361 9.001,2.997 0.911,0.522 2.242,0.31 5.185,0.631 z m 6.352,57.599 c 5.071,0.595 9.767,5.644 15.081,1.148 0.438,-0.369 0.381,-2.266 -0.079,-2.613 -5.375,-4.048 -10.048,-0.031 -15.002,1.465 z"
       stroke-miterlimit="10"
       clip-rule="evenodd"
       inkscape:connector-curvature="0"
       style="fill:#c4e5f3;fill-rule:evenodd;stroke:#000000;stroke-miterlimit:10;fill-opacity:1" />
    <path
       id="path3272"
       d="m -668.49003,255.60951 c -1.657,-0.168 -4.127,1.17 -4.726,-1.732 -0.351,-1.699 0.429,-3.209 1.872,-4.152 13.842,-9.041 14.971,-22.808 14.428,-37.488 -0.369,-9.979 -4.096,-19.169 -8.8,-27.129 -3.164,-5.353 -12.113,-4.33 -18.84,-5.01 -4.443,-0.449 -8.935,-2.155 -11.979,-5.643 -12.539,-14.358 -30.338,-16.535 -47.286,-20.439 -4.243,-0.978 -9.768,-0.377 -9.733,6.154 0.05,9.319 0.478,18.657 1.268,27.943 0.435,5.108 3.232,6.865 8.769,5.14 13.237,-4.122 25.762,-2.89 36.454,7.013 4.632,2.626 9.424,5.018 13.797,8.02 1.36,0.933 4.583,2.089 2.852,5.01 -1.605,2.708 -4.379,2.773 -6.75,1.401 -5.281,-3.054 -10.163,-6.649 -12.431,-12.718 -2.602,0.434 -4.054,-1.717 -5.931,-2.779 -13.4,-7.585 -28.642,-3.727 -33.262,13.076 -3.365,12.244 -5.48,24.332 -4.02,37.018 0.905,7.859 -0.499,10.896 -0.952,13.613 -0.566,3.4 1.382,14.838 0.392,24.756 -0.39,3.902 0.118,5.099 0.583,7.666 0.483,2.67 -0.902,7.449 -0.66,10.584 1.146,14.877 21.056,25.322 32.668,16.551 12.521,-9.459 23.896,-20.404 37.914,-27.896 3.65,-1.95 5.433,-5.992 7.471,-9.757 3.01,-5.563 5.167,-12.277 12.8,-15.171 -0.702,6.631 1.223,12.162 -1.237,18.469 -3.152,8.078 4.538,10.482 10.413,11.699 5.565,1.152 12.19,3.197 13.775,-6.529 2.768,-16.979 -11.38,-35.9 -28.849,-37.67 z m -65.358,-75.587 c -3.624,-0.87 -6.547,-2.64 -6.135,-7.109 0.141,-1.526 0.111,-3.937 2.077,-3.524 3.935,0.826 6.26,3.896 7.732,7.207 -0.037,2.818 -1.446,3.961 -3.674,3.426 z m -14.994,127.083 c -1.13,-8.541 -1.226,-14.338 4.67,-21.143 0.709,8.264 -1.438,13.565 -4.67,21.143 z m 23.23,-106.386 c 1.107,0.165 1.643,1.912 0.933,3.212 -2.518,4.614 -6.355,3.835 -11.024,2.827 2.38,-4.72 5.584,-6.713 10.091,-6.039 z m 9.618,47.057 c -6.845,-8.891 -16.298,-16.126 -17.428,-28.641 10.716,6.434 13.766,17.732 17.428,28.641 z m -20.805,66.729 c -3.835,0.361 -3.019,-4.672 -3.106,-7.725 -0.101,-3.469 -0.775,-7.727 3.922,-8.41 5.434,-0.791 0.416,4.803 3.997,6.295 -3.757,2.649 0.785,9.313 -4.813,9.84 z m 11.066,-52.28 c -1.501,3.294 -5.591,4.848 -9.007,4.222 -5.444,-1 -6.847,-8.998 -2.334,-14.564 1.538,3.054 0.471,9.232 7.027,6.371 1.464,-0.64 5.236,1.948 4.314,3.971 z m 16.037,36.272 c -2.706,6.543 -6.267,1.215 -8.463,0.119 -3.632,-1.811 -6.052,-5.564 -1.808,-9.197 3.614,-3.095 7.275,-5.088 2.322,-10.443 -0.883,-0.955 -0.63,-10.357 8.04,-6.398 5.727,2.615 15.658,-0.51 13.245,11.006 -0.674,3.215 -0.129,6.055 0.756,9.967 -6.984,-2.718 -11.607,-1.064 -14.092,4.946 z m -17.717,-114.873 c 4.893,-10.122 10.646,-10.102 18.413,-4.759 6.923,4.763 15.355,6.163 23.547,7.84 5.05,1.034 10.023,2.572 12.529,9.128 -3.095,0.594 -5.167,-4.313 -7.852,-0.412 -2.702,3.928 1.733,5.323 2.234,9.102 -14.667,-10.878 -28.684,-23.085 -48.871,-20.899 z m 48.963,91.381 c -4.538,1.512 -1.938,7.004 -5.787,9.921 -1.937,-4.481 -4.077,-8.408 -2.604,-12.698 0.857,-2.494 4.034,-3 6.613,-2.652 1.437,0.193 3.284,1.008 3.992,2.139 1.173,1.869 -1.007,2.89 -2.214,3.29 z m 1.659,-36.711 c -1.491,0.732 -3.443,0.263 -4.278,-1.209 -0.967,-1.705 0.385,-3.065 1.796,-3.9 4.028,-2.385 7.183,-5.133 7.496,-10.391 0.146,-2.438 2.812,-2.079 4.694,-1.969 2.109,0.123 2.462,1.66 2.491,4.147 -2.253,5.512 -6.192,10.368 -12.199,13.322 z"
       stroke-miterlimit="10"
       clip-rule="evenodd"
       inkscape:connector-curvature="0"
       style="fill:#c4e5f3;fill-rule:evenodd;stroke:#000000;stroke-miterlimit:10;fill-opacity:1" />
  </g>
</svg>
