<?xml version="1.0" encoding="UTF-8" standalone="no"?>
<!-- Created with Inkscape (http://www.inkscape.org/) -->

<svg
   xmlns:dc="http://purl.org/dc/elements/1.1/"
   xmlns:cc="http://creativecommons.org/ns#"
   xmlns:rdf="http://www.w3.org/1999/02/22-rdf-syntax-ns#"
   xmlns:svg="http://www.w3.org/2000/svg"
   xmlns="http://www.w3.org/2000/svg"
   xmlns:sodipodi="http://sodipodi.sourceforge.net/DTD/sodipodi-0.dtd"
   xmlns:inkscape="http://www.inkscape.org/namespaces/inkscape"
   id="svg3293"
   version="1.1"
   inkscape:version="0.48.4 r9939"
   sodipodi:docname="parietal_left.svg">
  <defs
     id="defs3295" />
  <sodipodi:namedview
     id="base"
     pagecolor="#ffffff"
     bordercolor="#ffffff"
     borderopacity="0.0"
     inkscape:pageopacity="0.0"
     inkscape:pageshadow="0"
     inkscape:zoom="0.35"
     inkscape:cx="350"
     inkscape:cy="520"
     inkscape:document-units="px"
     inkscape:current-layer="layer1"
     showgrid="false"
     inkscape:window-width="1400"
     inkscape:window-height="1028"
     inkscape:window-x="-8"
     inkscape:window-y="22"
     inkscape:window-maximized="1" />
  <metadata
     id="metadata3298">
    <rdf:RDF>
      <cc:Work
         rdf:about="">
        <dc:format>image/svg+xml</dc:format>
        <dc:type
           rdf:resource="http://purl.org/dc/dcmitype/StillImage" />
        <dc:title />
      </cc:Work>
    </rdf:RDF>
  </metadata>
  <g
     inkscape:label="Layer 1"
     inkscape:groupmode="layer"
     id="layer1">
    <g
       transform="matrix(-1,0,0,-1,1536.4881,516.7833)"
       id="g4016">
      <path
         style="fill:#38a6d7;fill-rule:evenodd;stroke:#000000;stroke-miterlimit:10"
         inkscape:connector-curvature="0"
         clip-rule="evenodd"
         stroke-miterlimit="10"
         d="m 495.799,241.96 c 11.207,11.335 20.334,24.011 22.894,40.104 0.773,4.863 4.253,6.781 6.635,9.97 2.86,3.828 7.958,7.21 3.032,12.894 -3.334,-2.128 -2.988,-7.063 -7.176,-8.589 6.209,2.215 -10.117,19.018 8.948,12.905 0.131,3.636 1.809,6.308 4.021,9.305 15.262,20.682 15.122,43.341 7.603,66.741 -8.889,0.33 -16.982,-1.912 -24.686,-6.514 -5.152,-3.079 -11.393,-8.395 -14.932,2.294 -0.351,1.062 -2.598,2.069 -3.997,2.117 -10.629,0.36 -12.479,7.309 -11.966,15.836 0.619,10.278 2.336,20.499 1.565,30.844 -0.324,4.373 -1.395,9.106 -6.58,9.086 -7.241,-0.026 -19.554,-16.743 -17.728,-23.593 3.333,-12.507 -0.758,-22.792 -7.96,-32.855 -5.151,-7.198 -14.02,-11.178 -17.289,-19.531 -2.663,-6.806 -5.591,-8.8 -11.678,-4.084 -3.402,2.635 -7.373,5.51 -10.984,1.138 -6.172,-7.47 -13.417,-13.498 -22.563,-17.735 7.672,-6.07 15.951,-8.192 23.285,-12.175 2.063,-1.12 4.372,-1.747 3.811,-4.647 -0.729,-3.756 -3.396,-1.771 -5.3,-1.452 -11.855,1.99 -11.819,2.021 -11.906,-9.714 -0.028,-3.862 -0.391,-7.59 3.734,-10.078 4.05,-2.443 2.621,-5.504 0.85,-9.035 -1.63,-3.248 -3.301,-6.21 -6.15,-8.462 -2.967,-2.345 -4.763,-5.271 -4.813,-9.191 0.943,-0.05 1.7,-0.327 2.2,-0.083 14.047,6.875 27.826,8.299 41.395,-1.365 2.266,-1.614 4.355,0.099 6.771,1.487 15.99,9.185 17.462,26.449 24.672,40.338 5.186,-3.772 8.77,-3.39 8.106,1.586 -1.396,10.47 8.255,13.773 11.792,21.039 1.112,-10.483 -7.662,-18.935 -5.097,-29.947 -5.473,0.536 -11.415,2.498 -14.076,-3.172 -5.999,-12.784 -14.295,-24.188 -20.954,-36.535 -4.323,-8.016 0.779,-16.605 9.753,-16.837 5.721,-0.146 10.515,-1.9 15.129,-5.011 5.922,-3.99 12.311,-6.887 19.639,-7.079 z m -17.778,97.098 c -0.185,-0.462 -0.369,-0.923 -0.554,-1.385 0.208,0.437 0.416,0.875 0.625,1.312 2.772,6.192 8.237,10.162 13.145,16.959 -1.361,-9.749 -4.308,-15.802 -13.216,-16.886 z m 27.08,-15.514 c 3.881,0.279 3.8,10.273 8.761,4.843 2.822,-3.09 8.954,-9.388 -0.259,-15.078 -7.381,-4.558 -11.504,-12.916 -15.805,-21.513 -0.918,7.743 0.837,14.557 -1.456,21.125 -2.692,7.713 -0.896,9.837 8.846,10.547 l -0.087,0.076 z m 29.769,39.619 c -3.725,-4.705 -7.83,-10.943 -11.425,-6.034 -4.305,5.878 -7.291,3.017 -11.637,2.59 -3.252,-0.32 -8.32,-2.57 -9.745,3.02 -1.411,5.538 4.1,3.214 6.245,4.751 2.068,1.484 4.386,2.625 6.625,3.861 5.397,2.977 10.051,1.918 10.819,-4.35 0.777,-6.33 4.883,-2.849 9.118,-3.838 z m -103.156,-61.15 c 0.34,3.811 -1.309,9.51 5.08,8.917 4.18,-0.387 11.101,-1.009 10.048,-7.428 -0.67,-4.078 0.875,-11.738 -4.378,-12.027 -4.535,-0.249 -11.465,2.615 -10.75,10.538 z m 75.375,-33.956 c 0.314,-9.269 -5.786,-13.296 -9.364,-18.559 -1.004,-1.476 -2.708,-4.54 -5.207,-2.117 -1.843,1.786 -0.736,4.354 0.806,6.065 4.135,4.588 8.458,9.007 13.765,14.611 z m -42.504,59.207 c -4.496,2.576 -5.985,5.935 -4.414,9.23 2.153,4.514 6.667,5.695 13.008,5.805 -4.825,-4.802 -10.3,-7.683 -8.594,-15.035 z m 47.198,-31.008 c 2.102,-5.681 -0.461,-8.595 -4.085,-10.711 -0.585,-0.341 -3.448,1.392 -3.522,2.307 -0.428,5.253 4.616,5.354 7.607,8.404 z m -22.489,-8.183 c -1.965,-2.504 -2.367,-3.456 -3.077,-3.846 -2.901,-1.591 -5.476,-4.741 -9.31,-2.749 -0.915,0.475 -2.056,2.254 -1.799,2.967 1.641,4.55 6.14,1.361 9.001,2.997 0.911,0.522 2.242,0.31 5.185,0.631 z m 6.352,57.598 c 5.071,0.595 9.767,5.644 15.081,1.149 0.438,-0.37 0.381,-2.267 -0.079,-2.613 -5.375,-4.048 -10.048,-0.032 -15.002,1.464 z"
         id="path4018" />
      <path
         style="fill:#38a6d7;fill-rule:evenodd;stroke:#000000;stroke-miterlimit:10"
         inkscape:connector-curvature="0"
         clip-rule="evenodd"
         stroke-miterlimit="10"
         d="m 387.233,346.561 c -1.657,-0.168 -4.127,1.169 -4.726,-1.733 -0.351,-1.7 0.429,-3.209 1.872,-4.152 13.842,-9.041 14.971,-22.808 14.428,-37.488 -0.369,-9.979 -4.096,-19.169 -8.8,-27.129 -3.164,-5.353 -12.113,-4.33 -18.84,-5.01 -4.443,-0.449 -8.935,-2.155 -11.979,-5.643 -12.539,-14.358 -30.338,-16.535 -47.286,-20.439 -4.243,-0.978 -9.768,-0.377 -9.733,6.154 0.05,9.319 0.478,18.657 1.268,27.943 0.435,5.108 3.232,6.865 8.769,5.14 13.237,-4.122 25.762,-2.89 36.454,7.013 4.632,2.626 9.424,5.018 13.797,8.02 1.36,0.933 4.583,2.089 2.852,5.01 -1.605,2.708 -4.379,2.773 -6.75,1.401 -5.281,-3.054 -10.163,-6.649 -12.431,-12.718 -2.602,0.434 -4.054,-1.717 -5.931,-2.779 -13.4,-7.585 -28.642,-3.727 -33.262,13.076 -3.365,12.244 -5.48,24.332 -4.02,37.018 0.905,7.859 -0.499,10.896 -0.952,13.613 -0.566,3.401 1.382,14.837 0.392,24.755 -0.39,3.902 0.118,5.099 0.583,7.667 0.483,2.67 -0.902,7.449 -0.66,10.583 1.146,14.878 21.056,25.323 32.668,16.551 12.521,-9.459 23.896,-20.403 37.914,-27.896 3.65,-1.95 5.433,-5.992 7.471,-9.757 3.01,-5.563 5.167,-12.277 12.8,-15.171 -0.702,6.631 1.223,12.163 -1.237,18.469 -3.152,8.079 4.538,10.482 10.413,11.699 5.565,1.153 12.19,3.197 13.775,-6.529 2.768,-16.978 -11.38,-35.898 -28.849,-37.668 z m -65.358,-75.587 c -3.624,-0.87 -6.547,-2.64 -6.135,-7.109 0.141,-1.526 0.111,-3.937 2.077,-3.524 3.935,0.826 6.26,3.896 7.732,7.207 -0.037,2.818 -1.446,3.961 -3.674,3.426 z m -14.994,127.083 c -1.13,-8.542 -1.226,-14.338 4.67,-21.143 0.709,8.263 -1.438,13.565 -4.67,21.143 z m 23.23,-106.386 c 1.107,0.165 1.643,1.912 0.933,3.212 -2.518,4.614 -6.355,3.835 -11.024,2.827 2.38,-4.72 5.584,-6.713 10.091,-6.039 z m 9.618,47.057 c -6.845,-8.891 -16.298,-16.126 -17.428,-28.641 10.716,6.434 13.766,17.732 17.428,28.641 z m -20.805,66.729 c -3.835,0.362 -3.019,-4.671 -3.106,-7.724 -0.101,-3.469 -0.775,-7.727 3.922,-8.41 5.434,-0.792 0.416,4.802 3.997,6.294 -3.757,2.648 0.785,9.313 -4.813,9.84 z m 11.066,-52.28 c -1.501,3.294 -5.591,4.848 -9.007,4.222 -5.444,-1 -6.847,-8.999 -2.334,-14.565 1.538,3.054 0.471,9.233 7.027,6.372 1.464,-0.639 5.236,1.949 4.314,3.971 z m 16.037,36.272 c -2.706,6.543 -6.267,1.215 -8.463,0.12 -3.632,-1.811 -6.052,-5.564 -1.808,-9.198 3.614,-3.094 7.275,-5.087 2.322,-10.443 -0.883,-0.954 -0.63,-10.357 8.04,-6.397 5.727,2.615 15.658,-0.51 13.245,11.005 -0.674,3.215 -0.129,6.055 0.756,9.967 -6.984,-2.718 -11.607,-1.063 -14.092,4.946 z M 328.31,274.576 c 4.893,-10.122 10.646,-10.102 18.413,-4.759 6.923,4.763 15.355,6.163 23.547,7.84 5.05,1.034 10.023,2.572 12.529,9.128 -3.095,0.594 -5.167,-4.313 -7.852,-0.412 -2.702,3.928 1.733,5.323 2.234,9.102 -14.667,-10.878 -28.684,-23.085 -48.871,-20.899 z m 48.963,91.382 c -4.538,1.511 -1.938,7.003 -5.787,9.92 -1.937,-4.481 -4.077,-8.408 -2.604,-12.698 0.857,-2.495 4.034,-3 6.613,-2.653 1.437,0.193 3.284,1.007 3.992,2.139 1.173,1.87 -1.007,2.89 -2.214,3.292 z m 1.659,-36.712 c -1.491,0.732 -3.443,0.263 -4.278,-1.209 -0.967,-1.705 0.385,-3.065 1.796,-3.9 4.028,-2.385 7.183,-5.133 7.496,-10.391 0.146,-2.438 2.812,-2.079 4.694,-1.969 2.109,0.123 2.462,1.66 2.491,4.147 -2.253,5.512 -6.192,10.368 -12.199,13.322 z"
         id="path4020" />
    </g>
    <path
       style="fill:#39a6d6;fill-rule:evenodd;stroke:#000000;stroke-miterlimit:10"
       inkscape:connector-curvature="0"
       clip-rule="evenodd"
       stroke-miterlimit="10"
       d="m 631.27888,441.77345 c 3.3569,-7.25399 9.0119,-12.65999 14.2009,-18.21199 7.918,-8.472 18.814,-11.664 30.162,-12.922 3.08,-0.341 6.216,-0.27 9.324,-0.222 3.021,0.046 4.989,-1.143 5.964,-4.08 0.842,-2.537 2.03,-5.242 4.58,-6.163 4.75,-1.718 6.396,-4.844 5.69,-9.585 2.377,-1.838 3.733,-4.304 4.419,-7.183 1.957,0.413 3.226,1.596 4.396,3.23 2.163,3.023 5.054,4.804 8.995,5.153 10.083,0.895 17.76,5.091 20.461,15.779 0.421,1.663 1.582,3.246 2.727,4.589 1.32,1.551 2.965,1.588 4.115,-0.336 2.907,-4.866 1.227,-13.24 -3.439,-16.589 -4.313,-3.097 -8.986,-5.443 -14.456,-5.668 -3.161,-0.13 -5.202,-1.993 -6.153,-4.724 -2.132,-6.122 -2.418,-6.506 -8.884,-6.925 -1.737,-0.112 -3.588,-0.241 -4.282,-2.033 -2.119,-5.464 -5.966,-10.519 -3.776,-17.036 0.901,-2.685 -0.603,-4.029 -3.422,-3.933 -2.021,0.069 -4.047,0.013 -6.071,0.012 -6.952,-4.957 -14.841,-8.091 -22.543,-11.578 0.295,-1.542 -0.975,-1.398 -1.834,-1.697 -0.953,-3.915 1.702,-3.02 3.785,-2.809 1.569,0.158 7.869,1.168 8.68,1.266 7.777,0.944 15.438,2.468 23.033,4.375 0.605,0.152 8.267,1.886 10.072,2.042 5.961,0.518 11.146,3.46 16.8,4.92 7.012,1.81 13.824,4.318 20.893,6.06 4.387,1.081 9.279,1.735 12.834,5.027 3.451,3.196 7.895,4.101 12.066,5.15 5.661,1.423 9.78204,4.871 13.88704,8.489 1.984,1.75 3.78,2.086 5.658,0.305 1.599,-1.517 2.692,-0.95 3.895,0.395 3.263,3.653 7.062,4.922 12.163,4.323 4.891,-0.574 9.589,1.724 13.984,3.948 5.366,2.716 9.624,6.704 13.827,11.064 6.189,6.421 13.425,11.808 21.157,16.387 3.225,1.91 5.992,4.325 8.579,7.002 1.659,1.716 3.515,3.194 5.422,4.662 4.655,3.58 6.176,8.93 6.923,14.46599 0.236,1.744 0.329,3.334 2.054,4.252 1.514,1.792 4.315,1.92 5.395,4.382 1.338,3.052 3.604,5.554 5.369,8.348 1.731,2.739 4.54,4.961 4.631,8.598 -0.314,3.467 1.13,6.845 0.379,10.36099 -2.207,10.341 -8.331,17.862 -16.964,23.487 -2.07,1.349 -3.915,2.818 -5.186,4.85 -1.002,1.602 -2.226,2.891 -3.886,3.587 -4.313,1.812 -7.577,4.927 -10.851,8.118 -5.685,5.542 -12.725,9.316 -18.957,14.166 -4.074,3.172 -7.768,6.737 -11.797,9.922 -3.07,2.426 -4.926,1.725 -5.854,-2.118 -0.571,-2.364 -0.463,-4.736 0.067,-7.123 2.672,-12.032 5.619,-23.978 7.134,-36.28 1.063,-8.618 3.294,-17.184 7.545,-24.99699 1.068,-1.963 2.254,-4.246 4.664,-3.787 3.879,0.738 7.809,2.364 9.607,6.076 1.162,2.39799 3.017,4.25999 4.064,6.66599 0.393,0.901 0.672,2.409 2.061,2.089 1.463,-0.337 1.819,-1.722 1.854,-3.14 0.073,-3.045 -0.394,-5.92999 -1.945,-8.63899 -2.53,-4.42 -3.84,-9.007 -1.455,-13.986 1.111,-2.321 2.836,-4.135 4.572,-5.955 0.773,-0.812 1.348,-1.444 0.511,-2.75 -4.079,-6.367 -3.122,-8.82299 4.038,-10.85999 1.161,-0.331 2.408,-0.609 2.69,-2.036 0.318,-1.609 -0.883,-2.38 -1.963,-3.125 -2.434,-1.677 -4.729,-3.731 -7.407,-4.831 -3.379,-1.388 -6.343,-4.196 -10.199,-3.972 -2.382,0.138 -4.491,-0.294 -6.617,-1.098 -0.9,-0.341 -1.736,-0.688 -2.762,-0.541 -5.811,0.835 -7.027,-0.322 -7.257,-6.253 -0.198,-5.125 -0.339,-10.298 -3.027,-14.945 -0.628,-1.085 -1.262,-2.209 -2.714,-1.791 -1.277,0.369 -1.39,1.628 -1.236,2.693 0.427,2.972 -0.485,5.629 -1.448,8.373 -0.786,2.237 -1.086,4.654 -1.5,7.01 -0.379,2.158 0.677,4.156 2.395,4.834 3.896,1.537 7.365,3.822 11.039,5.719 2.916,1.505 6.37,2.73 7.459,6.481 -2.338,1.098 -2.916,-2.55 -6.133,-1.827 4.372,2.686 4.462,6.452 4.538,10.33899 0.038,1.936 0.987,4.111 3.305,3.851 2.3,-0.258 1.489,-2.579 1.576,-4.135 0.091,-1.62899 -0.862,-2.93099 -1.537,-4.31899 -0.491,-1.008 -1.741,-1.787 -1.055,-3.189 6.091,3.295 7.43,10.53099 3.026,15.60599 -2.696,3.109 -6.208,4.803 -9.85,6.369 -1.767,0.761 -3.435,1.564 -4.546,3.326 -2.93,4.645 -4.457,9.682 -5.128,15.121 -1.585,12.83699 -3.327,25.65499 -5.158,38.45999 -0.334,2.334 -1.314,4.596 -2.157,6.83 -0.446,1.188 -0.927,2.615 -2.591,2.621 -1.552,0.005 -2.166,-1.201 -2.882,-2.357 -7.14,-11.547 -14.894,-22.562 -26.089,-30.688 -2.026,-1.472 -3.679,-3.409 -2.902,-6.415 0.209,-0.812 -0.313,-1.844 -0.595,-2.746 -2.305,-7.37499 -7.21404,-13.14799 -11.81204,-19.10699 -2.225,-2.885 -2.077,-4.277 1.296,-5.756 3.937,-1.727 8.01004,-3.307 12.32104,-3.728 5.565,-0.542 10.168,-2.852 13.671,-7.078 3.892,-4.69499 7.53,-9.60199 11.195,-14.47999 0.64,-0.851 2.148,-1.814 1.034,-3.049 -1.07,-1.188 -2.495,-0.36 -3.629,0.285 -1.974,1.124 -3.973,2.244 -5.361,4.141 -2.426,3.311 -5.539,5.951 -8.504,8.738 -3.537,3.32599 -7.376,6.09099 -12.314,6.90699 0.357,-0.746 0.783,-1.467 1.057,-2.243 0.579,-1.64 0.371,-3.237 -1.259,-4.04799 -1.42,-0.707 -3.10404,-0.822 -4.23104,0.68299 -1.003,1.339 -1.341,2.824 -0.027,4.246 0.569,0.616 1.138,1.232 1.707,1.847 -3.644,2.558 -7.897,2.586 -12.071,2.83 -2.338,0.138 -3.051,-1.248 -3,-3.451 0.081,-3.475 0.161,-6.97399 -0.153,-10.42599 -0.517,-5.667 -1.711,-11.076 -6.137,-15.313 -3.456,-3.308 -2.115,-7.875 2.286,-9.895 5.547,-2.545 11.143,-2.342 16.902,-1.208 3.043,0.599 6.07704,1.5 9.22904,1.163 1.48,-0.159 2.877,-0.745 3.206,-2.426 0.318,-1.626 -0.891,-2.292 -2.104,-2.945 -1.684,-0.905 -3.421,-1.758 -4.958,-2.878 -3.09104,-2.253 -2.85504,-4.881 0.607,-6.605 1.813,-0.902 3.754,-1.655 5.723,-2.107 2.646,-0.608 3.989,-2.548 5.273,-4.558 0.829,-1.298 0.678,-3.128 -1.132,-2.791 -3.739,0.697 -8.442,-1.02 -10.833,3.763 -0.344,0.69 -1.233,1.105 -1.859,1.66 -2.45104,2.173 -4.22604,5.069 -3.83104,8.147 0.549,4.284 -1.338,4.619 -4.618,4.266 -1.778,-0.191 -3.596,0.014 -5.396,0.016 -11.254,0.011 -18.685,6.104 -24.251,15.197 -1.633,2.666 -1.312,4.837 1.079,6.983 2.451,2.2 5.309,3.821 7.06,6.994 3.322,6.023 5.979,12.26999 8.176,18.74999 0.502,1.482 0.917,3.108 2.361,3.924 4.929,2.781 8.261,7.066 11.729,11.402 4.549,5.685 8.32604,11.86799 10.10904,18.72799 1.611,6.193 2.366,12.004 9.712,14.176 5.265,1.556 7.132,6.699 9.913,10.844 4.87,7.257 9.58,14.569 11.328,23.313 1.471,7.357 0.013,14.021 -5.411,19.425 -2.646,2.637 -5.063,5.349 -7.078,8.538 -4.858,7.696 -8.604,15.966 -12.896,23.953 -2.994,5.574 -6.005,11.256 -12.28904,14.047 -1.598,0.709 -3.081,1.4 -4.72,0.239 -4.456,-3.157 -9.677,-3.489 -14.799,-3.556 -11.513,-0.148 -23.032,0.174 -34.546,0.059 -4.868,-0.047 -10.024,0.606 -14.419,-2.13 -8.162,-5.083 -16.586,-9.153 -26.507,-8.968 -0.928,0.018 -2.074,-0.189 -2.274,-1.355 -0.213,-1.252 0.944,-1.445 1.795,-1.867 7.763,-3.844 16.08,-6.186 24.294,-8.731 10.521,-3.261 17.612,-10.913 16.494,-22.818 -0.604,-6.439 -0.865,-12.937 -1.918,-19.303 -2.424,-14.667 3.155,-26.265 13.067,-36.417 2.828,-2.896 4.986,-6.197 4.794,-10.451 -0.251,-5.574 1.173,-10.59899 4.352,-15.18099 0.883,-1.271 1.584,-2.693 2.209,-4.115 0.812,-1.847 1.021,-3.932 -0.259,-5.51 -3.621,-4.467 -7.401,-8.823 -12.507,-11.723 -0.801,-0.455 -1.756,-1.208 -2.599,-0.283 -0.822,0.903 -0.063,1.921 0.48,2.582 3.109,3.781 3.079,8.212 2.663,12.668 -0.843,9.035 -3.29,17.74799 -7.56,25.65799 -3.092,5.728 -5.171,12.094 -9.85,16.989 -2.201,2.304 -4.051,2.381 -6.049,0.276 -1.614,-1.699 -3.543,-2.845 -5.542,-3.931 -1.165,-0.633 -2.556,-1.365 -3.623,-0.157 -1.011,1.145 0.239,2.2 0.738,3.226 4.489,9.212 7.744,18.658 8.457,29.096 0.564,8.261 -1.954,16.19 -1.394,24.36 0.075,1.097 -0.665,2.087 -1.495,2.787 -3.422,2.886 -6.947,5.648 -10.334,8.573 -3.952,3.414 -8.983,4.452 -13.71,5.611 -4.965,1.217 -10.341,1.771 -15.248,-1.134 -1.186,-0.702 -2.353,-1.475 -2.383,-2.847 -0.027,-1.289 1.457,-1.361 2.354,-1.885 0.667,-0.391 1.752,-0.184 1.958,-1.342 -1.213,-1.617 -2.348,-3.35 -4.444,-3.989 -2.294,-0.698 -3.649,-2.368 -5.212,-4.114 -3.702,-4.139 -8.491,-7.205 -11.942,-11.67 -0.55,-0.711 -1.961,-0.75 -2.966,-1.119 -1.599,-0.587 -3.37,-1.192 -3.668,-3.084 -0.541,-3.438 -2.951,-5.667 -4.895,-8.195 -3.596,-4.674 -3.93,-4.608 -8.554,-1.096 -2.4419,1.855 -2.0359,3.578 0.204,4.707 7.058,3.557 9.923,11.752 17.206,15.151 1.991,0.929 3.561,2.923 5.831,3.911 3.177,1.383 5.357,3.796 5.911,7.543 0.575,3.89 -1.147,6.014 -4.176,8.276 -7.132,5.331 -15.593,7.069 -23.743,9.628 -5.8139,1.824 -11.7339,3.092 -16.9799,6.555 -5.59,3.693 -9.474,9.063 -14.336,13.45 -2.42,2.183 -4.521,1.891 -5.993,-0.989 -0.754,-1.475 -1.052,-3.211 -1.938,-4.582 -4.16,-6.439 -4.958,-13.566 -4.806,-20.994 0.165,-8.01 1.595,-16.137 -0.62,-23.994 -1.594,-5.656 -2.042,-11.226 -1.738,-17.04 0.394,-7.526 0.805,-15.108 0.333,-22.612 -0.847,-13.486 6.161,-24.334 11.286,-35.789 2.043,-4.56599 9.92,-11.17899 9.92,-11.17899 0,0 18.24,-16.77 21.424,-23.65 z m 124.5639,-61.91499 c 1.983,-1.369 2.547,-3.392 0.415,-4.556 -4.128,-2.253 -8.536,-4.03 -12.937,-5.724 -1.376,-0.53 -3.356,-0.442 -2.462,2.203 -1.768,0.551 -3.288,-0.095 -4.738,-1.009 -1.998,-1.258 -4.282,-1.32 -6.517,-1.563 -0.61,-0.066 -1.232,0.195 -1.458,0.821 -0.19,0.525 0.202,0.996 0.671,1.063 4.003,0.569 7.066,3.146 10.553,4.816 0.835,0.4 2.029,0.253 1.869,1.624 -0.134,1.138 -1.028,1.546 -2.057,1.617 -2.921,0.201 -2.228,1.547 -0.82,2.851 5.175,4.792 10.718,9.116 16.78,12.742 0.941,0.563 2.029,0.926 3.056,0.261 1.114,-0.722 0.931,-1.821 0.563,-2.892 -0.636,-1.848 -0.112,-2.502 1.845,-1.92 0.667,0.199 1.421,0.163 2.133,0.144 0.933,-0.025 2.084,0.135 2.426,-1.022 0.316,-1.07 -0.858,-1.246 -1.426,-1.791 -2.645,-2.542 -5.266,-5.107 -7.896,-7.665 z m -107.29,108.07298 c 3.292,-0.172 6.379,-0.089 7.129,-2.551 0.705,-2.314 -1.619,-4.17 -3.675,-5.48 -0.099,-0.063 -0.226,-0.081 -0.34,-0.116 -0.839,-0.255 -1.188,-0.854 -0.918,-1.65 0.816,-2.419 -0.723,-2.547 -2.445,-2.703 -5.631,-0.511 -6.769,-2.406 -4.703,-7.75799 0.218,-0.566 0.569,-1.105 0.144,-1.662 -0.487,-0.637 -1.085,-0.264 -1.611,-0.021 -3.264,1.502 -6,0.496 -8.418,-1.814 -0.71,-0.68 -1.4069,-1.047 -2.1539,-0.277 -3.702,3.814 -9.384,4.635 -12.964,8.702 -1.3,1.47799 -3.105,2.43599 -0.037,3.77699 1.338,0.585 0.716,1.55 0.332,2.415 -0.437,0.984 -1.194,2.03 -0.691,3.063 1.244,2.556 1.74,4.86 -0.601,7.155 -0.59,0.58 -0.612,1.986 0.238,2.629 0.844,0.638 1.477,-0.418 2.173,-0.793 1.339,-0.723 2.195,-2.613 3.925,-2.252 3.725,0.776 6.004,-1.318 8.467,-3.521 3.2379,-2.895 7.6409,-2.671 10.8909,0.373 1.754,1.641 3.668,2.673 5.258,2.484 z m 159.69204,-32.57599 c -1.079,0 -2.159,-0.016 -3.238,0.004 -1.385,0.023 -2.095,0.795 -1.658,2.086 0.796,2.355 0.417,4.753 0.543,7.133 0.306,5.797 5.52,11.49999 11.305,12.27499 1.867,0.251 3.708,0.043 5.548,1.045 1.363,0.742 2.463,-0.407 2.55,-2.028 0.097,-1.801 1.017,-2.731 2.729,-3.29999 3.646,-1.211 4.123,-3.053 1.575,-6.024 -1.097,-1.28 -2.154,-2.627 -1.004,-4.12 2.247,-2.917 1.848,-6.643 3.35,-9.754 0.847,-1.754 0.103,-2.614 -1.623,-3.166 -2.159,-0.69 -4.683,-1.104 -6.278,-2.51 -3.084,-2.719 -3.731,-1.107 -4.775,1.658 -2.269,6.008 -3.492,6.781 -9.024,6.701 z m -107.40104,23.93099 c -2.088,-1.568 -4.635,-1.669 -6.991,-2.276 -4.212,-1.083 -8.186,-2.25 -9.788,-7.14599 -0.598,-1.824 -2.344,-3.277 -3.589,-4.884 -5.708,-7.36 -8.424,-15.229 -4.459,-24.394 0.647,-1.495 3.518,-2.95999 1.607,-4.44299 -1.631,-1.267 -3.197,1.326 -4.565,2.48399 -2.837,2.402 -2.953,2.434 -3.998,-1.06999 -0.271,-0.912 -0.321,-2.114 -1.589,-2.01 -1.107,0.09 -1.444,1.206 -1.603,2.144 -0.279,1.66799 -0.293,3.36099 0.516,4.91999 1.07,2.062 1.588,4.299 1.747,6.56 0.459,6.537 4.073,11.783 7.478,16.854 4.438,6.612 8.883,13.04799 10.327,21.07199 0.251,1.401 0.891,2.729 1.296,4.107 0.494,1.676 1.638,2.883 3.296,2.412 1.674,-0.477 1.385,-2.032 1.097,-3.599 -0.969,-5.271 0.779,-7.745 5.96,-9.198 1.069,-0.3 2.462,-0.056 3.258,-1.533 z m 77.429,57.826 c 3.173,0 5.58,0.139 7.963,-0.045 1.77504,-0.137 4.73804,1.168 5.05404,-0.848 0.324,-2.064 -2.775,-2.793 -4.62304,-3.775 -0.41,-0.217 -0.93,-0.378 -1.381,-0.344 -4.958,0.375 -9.387,-2.149 -14.248,-2.54 -3.283,-0.265 -3.864,-2.081 -2.409,-4.991 1.881,-3.764 0.339,-11.254 -2.875,-13.955 -0.828,-0.695 -1.702,-1.595 -2.848,-0.891 -1.13,0.695 -0.774,1.963 -0.536,2.956 0.446,1.859 1.188,3.646 1.653,5.501 2.067,8.232 -3.032,14.386 -11.218,13.668 -1.044,-0.092 -2.139,0.164 -3.183,0.385 -0.808,0.169 -1.705,0.437 -1.824,1.457 -0.123,1.043 0.74,1.425 1.477,1.803 1.59,0.814 3.239,1.459 4.785,2.424 2.877,1.795 3.392,4.781 4.47,7.536 0.441,1.126 1.043,2.356 2.54,2.044 1.465,-0.308 1.59,-1.631 1.569,-2.867 -0.022,-1.316 -0.216,-2.633 -0.183,-3.947 0.085,-3.414 1.318,-4.338 4.749,-4.084 3.94,0.29 7.893,0.374 11.068,0.513 z m -38.615,-95.66099 c 1.579,-0.629 3.336,-1.221 4.242,-2.898 0.819,-1.51699 0,-2.72699 -1.114,-3.80199 -1.298,-1.247 -2.52,-2.559 -4.308,-3.147 -2.163,-0.712 -1.578,-1.805 -0.194,-2.695 0.771,-0.497 1.78,-0.627 2.688,-0.907 1.784,-0.55 2.286,-1.954 0.698,-2.754 -4.585,-2.313 -5.939,-6.462 -7.267,-10.876 -0.804,-2.674 -2.885,-3.092 -5.104,-1.487 -3.946,2.855 -9.534,4.803 -6.888,11.617 0.153,0.394 -0.021,0.957 -0.149,1.411 -0.3,1.052 -0.774,2.239 0.171,3.046 2.433,2.075 2.704,4.292 1.007,6.953 -0.784,1.229 -0.041,2.42599 0.848,3.19499 0.888,0.769 1.811,-0.16 2.547,-0.64 1.095,-0.71299 2.046,-1.64599 3.071,-2.46999 3.01,-2.419 4.097,-2.226 5.428,1.337 0.793,2.12099 2.199,3.33499 4.324,4.11699 z m -133.0169,105.39599 c -1.653,-0.021 -2.99,0.504 -3.866,1.52 -3.784,4.387 -3.529,12.091 0.634,16.282 1.303,1.312 2.093,2.878 2.947,4.453 1.726,3.189 4.293,5.413 7.854,6.3 0.887,0.221 2.026,0.3 2.304,-1.017 0.221,-1.048 -0.507,-1.469 -1.384,-1.74 -1.659,-0.513 -2.876,-1.654 -4.036,-2.882 -2.519,-2.663 -2.193,-5.142 0.928,-6.998 1.178,-0.701 2.465,-0.968 3.793,-0.814 3.645,0.421 6.289,-1.85 9.199,-3.375 1.007,-0.529 1.335,-1.981 0.377,-2.306 -2.212,-0.748 -3.994,-2.998 -6.445,-2.522 -3.043,0.59 -4.662,-0.818 -6.203,-3.056 -1.447,-2.101 -3.245,-3.877 -6.102,-3.845 z m 85.7109,-27.033 c -0.412,-5.05 -4.204,-8.278 -9.621,-10.392 -2.096,-0.818 -2.909,-0.361 -3.162,1.596 -0.229,1.771 -0.179,3.576 -0.372,5.353 -0.515,4.737 -1.627,9.157 -6.024,12.007 -1.154,0.747 -2.437,1.971 -2.111,3.438 0.276,1.246 1.902,1.1 3.044,1.406 2.746,0.737 5.455,1.572 7.932,3.09 1.13,0.692 2.505,1.874 3.885,0.493 1.274,-1.276 0.643,-2.772 -0.208,-3.931 -1.909,-2.596 -0.626,-3.788 1.753,-4.773 3.151,-1.305 4.934,-3.62 4.884,-8.287 z m 96.10304,36.976 c -4.02504,-0.074 -7.12504,1.487 -8.14104,4.18 -1.094,2.9 -1.471,6.191 1.125,8.257 3.058,2.432 2.408,4.412 0.455,6.869 -0.888,1.116 -1.665,2.327 -2.411,3.546 -1.326,2.164 -2.204,4.434 0.267,6.363 1.97,1.538 5.469,0.912 7.13,-1.144 2.98004,-3.687 3.24804,-8.075 2.96004,-12.519 -0.085,-1.314 -0.673,-2.643 0.455,-3.691 1.56,-1.451 2.091,-3.408 2.964,-5.23 2.639,-5.505 2.606,-5.656 -3.485,-6.554 -0.588,-0.087 -1.191,-0.069 -1.319,-0.077 z m -127.11604,-62.695 c -0.475,-1.066 -1.484,-1.252 -2.589,-1.013 -2.303,0.5 -4.601,1.031 -6.874,1.644 -4.603,1.24 -9.116,2.123 -13.276,-1.328 -1.594,-1.322 -3.21,-0.598 -4.57,0.547 -2.2029,1.853 -4.5059,3.504 -6.9839,5.008 -2.424,1.471 -4.596,3.484 -6.082,6.023 -0.727,1.24 -1.68,2.879 -0.32,3.895 1.186,0.885 2.337,-0.52 3.293,-1.437 4.582,-4.397 9.8589,-7.095 16.4129,-6.843 1.781,0.068 3.579,-0.233 5.366,-0.406 5.494,-0.531 10.359,0.49 14.515,4.604 1.709,1.691 2.888,3.827 4.81,5.266 0.957,0.717 1.859,2.425 3.272,1.123 1.07,-0.985 0.181,-2.235 -0.523,-3.219 -1.53,-2.135 -3.019,-4.307 -4.67,-6.347 -1.683,-2.079 -5.621,-3.444 -1.897,-6.97 0.068,-0.067 0.05,-0.225 0.116,-0.547 z m 126.30104,18.138 c 1.426,0 1.906,0.027 2.383,-0.006 1.041,-0.072 2.448,0.174 2.627,-1.219 0.165,-1.285 -1.346,-1.105 -2.11,-1.488 -4.33204,-2.17 -6.78404,-5.494 -6.80304,-10.454 -0.01,-2.504 0.064,-5.268 -1.296,-7.254 -1.077,-1.573 -3.621,-0.207 -5.469,-0.628 -0.35,-0.08 -0.701,-0.152 -1.047,-0.247 -2.372,-0.644 -3.143,0.294 -2.634,2.601 0.442,2.005 0.637,3.887 -0.729,5.798 -2.189,3.063 -1.115,7.603 1.994,9.731 4.264,2.919 9.57,1.16 13.08404,3.166 z m 16.796,20.837 c 1.494,-0.11 3.138,0.444 3.882,-1.319 0.628,-1.488 -0.314,-2.462 -1.312,-3.404 -5.84,-5.514 -12.832,-9.003 -20.38804,-11.404 -2.25,-0.714 -4.677,-0.913 -7.04,-1.208 -1.228,-0.153 -2.455,0.114 -2.856,1.581 -0.383,1.398 0.337,2.24 1.501,2.904 2.497,1.428 4.982,2.868 7.893,3.295 3.21504,0.473 5.71704,2.158 8.09204,4.31 2.932,2.654 6.092,5.08 10.228,5.245 z m -5.708,-111.11198 c 0.786,-3.054 -2.194,-3.05 -3.951,-4.226 -2.884,-1.931 -5.672,-3.101 -8.66804,-0.248 -3.073,2.926 -3.754,6.78 -1.574,10.638 0.691,1.225 0.704,3.007 2.788,3.353 4.26604,0.708 11.39504,-4.928 11.40504,-9.517 z m 76.107,45.60699 c 0.271,8.86199 6.379,12.61499 13.866,8.94999 0.322,-0.157 0.647,-0.311 0.965,-0.479 3.07,-1.606 3.321,-2.904 0.969,-5.41799 -0.562,-0.601 -1.292,-1.047 -1.961,-1.543 -3.024,-2.236 -7.08,-2.996 -9.201,-6.563 -0.49,-0.824 -1.602,-0.773 -2.156,0.029 -1.145,1.656 -2.224,3.384 -2.482,5.024 z m -17.386,27.25399 c -2.224,-0.289 -4.44,0.04 -5.761,2.654 -0.57,1.129 -1.825,0.932 -2.897,0.949 -1.554,0.025 -3.107,0.04 -4.658,0.117 -1.172,0.059 -2.104,0.705 -2.559,1.719 -0.508,1.133 0.669,1.626 1.232,2.332 1.886,2.36 4.398,2.191 6.877,1.48 1.706,-0.49 3.03,-0.39 4.117,1.09 1.999,2.721 4.583,2.639 7.314,1.408 4.84,-2.178 2.308,-5.949 1.77,-9.144 -0.483,-2.863 -2.943,-2.654 -5.435,-2.605 z m -155.63804,30.063 c -0.153,-1.546 0.627,-3.765 -1.742,-4.063 -2.042,-0.257 -2.64,1.623 -3.164,3.273 -1.081,3.398 -2.479,6.723 -3.24,10.188 -0.727,3.307 -3.018,4.736 -5.697,5.758 -2.802,1.068 -6.586,5.75 -6.672,8.842 -0.035,1.287 -0.307,2.806 1.121,3.534 1.729,0.882 2.581,-0.668 3.56,-1.63 5.346,-5.256 9.392,-11.5 13.234,-17.858 1.455,-2.408 3.04,-4.937 2.6,-8.044 z m 58.098,-55.23399 c -2.07,0.104 -3.919,-0.273 -4.271,1.877 -0.329,2.00399 1.26,2.85199 2.786,3.12699 7.46,1.342 13.221,5.765 19.03,10.155 1.211,0.914 2.664,2.229 4.146,0.947 1.593,-1.378 0.287,-2.939 -0.615,-4.107 -5.472,-7.089 -13.046,-10.45799 -21.076,-11.99899 z m -62.026,-15.875 c -0.021,3.959 2.812,6.725 6.921,6.76 3.139,0.027 7.123,-5.146 6.963,-9.041 -0.068,-1.659 -4.782,-4.917 -7.178,-4.962 -3.631,-0.067 -6.685,3.231 -6.706,7.243 z m -60.072,56.95099 c -4.838,-0.001 -8.3479,3.827 -8.0189,8.747 0.116,1.727 1.342,1.477 2.348,1.148 2.5039,-0.815 4.6529,-0.061 6.8349,1.105 1.25,0.668 2.684,0.98 4.001,1.535 2.04,0.858 2.753,-0.101 2.478,-1.938 -0.264,-1.755 -0.949,-3.443 -1.279,-5.192 -0.749,-3.962 -2.386,-5.404 -6.364,-5.405 z m 170.54704,-27.353 c -1.851,-0.064 -2.993,0.014 -3.485,1.202 -0.524,1.266 0.329,1.977 1.304,2.603 2.185,1.403 4.128,3.319 4.64,5.757 1.011,4.819 4.952,6.516 8.366,8.828 0.918,0.622 2.15,0.637 2.943,-0.371 0.752,-0.955 0.085,-1.875 -0.514,-2.591 -1.94,-2.32 -3.192,-5.009 -4.601,-7.655 -2.008,-3.776 -5.529,-6.069 -8.653,-7.773 z m 45.971,29.729 c -0.023,-2.744 -1.517,-3.8 -3.908,-3.578 -3.057,0.283 -8.384,6.74 -8.079,9.813 0.191,1.933 1.479,3.209 3.26,3.925 1.397,0.563 3.007,0.826 3.972,-0.467 2.196,-2.945 4.301,-5.999 4.755,-9.693 z M 707.61178,431.29546 c -0.177,1.481 0.203,3.82 1.38,5.971 0.681,1.24499 1.845,1.86699 3.302,1.67099 1.266,-0.17 1.803,-1.15199 2.017,-2.23699 1.622,-8.213 2.473,-9.977 -5.191,-15.687 -0.735,-0.549 -1.547,-1.442 -2.545,-0.825 -1.163,0.719 -0.766,1.958 -0.355,2.902 1.009,2.325 1.915,4.639 1.392,8.205 z m -3.95,40.19999 c 1.256,0 2.095,0.036 2.931,-0.009 0.953,-0.053 2.082,-0.056 2.328,-1.225 0.277,-1.313 -0.758,-1.88 -1.772,-2.346 -0.326,-0.149 -0.651,-0.309 -0.992,-0.417 -4.874,-1.565 -9.785,-2.98 -13.39,-7.058 -1.158,-1.309 -3.071,-1.158 -4.768,-1.063 -0.892,0.05 -1.701,0.344 -2.025,1.22 -0.348,0.939 0.262,1.631 0.952,2.129 2.905,2.096 5.87,4.109 8.758,6.229 2.516,1.848 5.268,2.783 7.978,2.54 z m 54.791,-105.30499 c -0.253,-0.349 -0.532,-0.869 -0.934,-1.265 -4.827,-4.759 -10.922,-4.516 -16.998,-4.197 -0.909,0.048 -1.808,0.585 -2.678,0.971 -0.652,0.287 -1.358,0.67 -1.288,1.524 0.089,1.084 0.985,1.296 1.836,1.298 6.102,0.01 12.155,0.185 17.733,3.177 1.24,0.665 2.045,0.062 2.329,-1.508 z m -7.696,160.47398 c 1.573,-0.433 3.547,-0.89 5.46,-1.528 1.896,-0.633 3.709,-1.512 2.723,-4.078 -1.283,-3.342 -4.286,-5.33 -6.437,-4.049 -2.509,1.494 -3.934,4.084 -4.763,6.77 -0.542,1.751 0.625,2.927 3.017,2.885 z m -31.695,-39.337 c 0.439,1.795 0.91,4.092 3.657,4.533 2.024,0.325 6.241,-3.926 6.018,-6.135 -0.274,-2.711 -2.659,-3.176 -4.707,-3.454 -2.315,-0.313 -4.899,2.317 -4.968,5.056 z m 164.94604,-43.52199 c -0.626,0.007 -1.251,0.138 -1.481,0.768 -0.395,1.076 -0.221,2.111 0.524,3.013 3.405,4.109 6.811,8.218 10.224,12.321 0.445,0.535 0.971,1.299 1.719,0.637 0.732,-0.646 0.508,-1.621 -0.023,-2.281 -1.11,-1.381 -2.063,-2.797 -2.932,-4.379 -1.762,-3.212 -4.075,-6.125 -6.192,-9.14 -0.425,-0.605 -1.074,-0.936 -1.839,-0.939 z M 728.48078,584.09544 c 2.092,0.233 4.003,-0.736 6.023,-0.885 0.58,-0.043 1.155,-0.404 1.191,-1.124 0.037,-0.73 -0.519,-1.089 -1.09,-1.224 -4.279,-1.004 -8.539,-2.313 -12.986,-0.783 -0.847,0.292 -1.688,0.57 -1.642,1.573 0.047,1.009 0.999,1.323 1.8,1.464 2.224,0.389 4.468,0.66 6.704,0.979 z m -51.484,-161.66898 c -0.095,1.798 0.24,3.503 2.98,3.484 2.724,-0.02 5.983,-2.14 5.841,-4.237 -0.174,-2.528 -1.896,-4.118 -4.302,-4.506 -2.209,-0.357 -4.456,2.307 -4.519,5.259 z m 65.628,129.67098 c 0.166,2.664 1.459,4.356 4.088,4.729 1.806,0.256 4.761,-2.459 4.563,-4.262 -0.29,-2.66 -2.286,-4.095 -4.641,-4.18 -2.115,-0.078 -3.838,1.252 -4.01,3.713 z m 70.48904,-134.18698 c 0.508,-0.056 2.08,0.196 2.795,-1.458 0.375,-0.867 0.145,-1.873 -0.758,-2.081 -3.655,-0.845 -7.017,-3.043 -10.932,-2.576 -0.928,0.111 -2.555,-0.086 -2.691,1.133 -0.161,1.44 1.459,1.173 2.402,1.461 1.477,0.451 2.925,0.874 4.076,2.045 1.129,1.148 2.599,1.628 5.108,1.476 z m -68.52604,100.23898 c 2.153,-0.23 3.854,-1.551 3.925,-4.225 0.067,-2.596 -1.508,-4.011 -4.066,-3.935 -2.375,0.071 -4.24,0.982 -4.025,3.874 0.173,2.338 0.839,4.269 4.166,4.286 z m -143.2559,11.492 c 0,-1.563 0.189,-3.225 -2.001,-3.554 -1.708,-0.257 -4.942,2.858 -5.267,5.091 -0.278,1.915 1.058,2.569 2.506,2.846 2.016,0.383 4.558,-2.058 4.762,-4.383 z m 79.9359,39.514 c 0.294,-0.067 0.701,-0.055 0.981,-0.238 3.128,-2.041 5.309,-4.991 7.463,-7.947 0.361,-0.496 0.226,-1.199 -0.418,-1.525 -0.759,-0.385 -1.387,0.025 -1.909,0.541 -2.37,2.336 -4.744,4.669 -7.06,7.059 -0.368,0.381 -0.685,1.082 -0.604,1.565 0.122,0.738 0.905,0.563 1.547,0.545 z M 812.82282,392.57446 c -1.473,0.519 -3.26,1.483 -3.176,3.905 0.067,1.956 1.445,2.947 3.371,2.842 2.152,-0.118 3.71,-1.397 3.758,-3.49 0.043,-1.881 -1.081,-3.372 -3.953,-3.257 z M 700.97778,547.31344 c -3.511,2.514 -6.105,5.46 -6.661,7.574 -0.184,0.698 -0.402,1.443 0.251,1.989 0.198,0.166 0.684,0.134 0.974,0.024 2.347,-0.894 5.814,-7.048 5.436,-9.587 z m 76.719,-109.69398 c -1.968,0.285 -3.312,1.20799 -3.192,3.45799 0.075,1.4 -0.095,3.254 2.039,2.96 2.026,-0.277 3.425,-1.577 3.447,-3.875 0.015,-1.53 -0.562,-2.52599 -2.294,-2.54299 z"
       id="path5" />
    <path
       style="fill:#39a6d6;fill-opacity:1;stroke:#000000;stroke-width:0.70137709px;stroke-linecap:butt;stroke-linejoin:miter;stroke-opacity:1"
       d="m 977.48808,134.43382 c -70,0 -305,0 -305,0 l -10e-5,189.99999 c 85.0001,1e-5 145.0001,30.00001 215,95.00001 l 10e-5,-145 c 0,0 93.4221,-0.73851 140.00002,0 -15,-25 -45.00002,-60.00001 -50.00002,-140 z"
       id="path3106-8"
       inkscape:connector-curvature="0"
       sodipodi:nodetypes="ccccccc" />
    <g
       transform="translate(894.58178,637.76087)"
       style="font-size:40px;font-style:normal;font-weight:normal;line-height:125%;letter-spacing:0px;word-spacing:0px;fill:#ffffff;fill-opacity:1;stroke:none;font-family:Sans"
       id="flowRoot4388-7-4">
      <path
         d="m -168.78906,-419.32706 0,-28.63281 3.78906,0 0,25.2539 14.10156,0 0,3.37891 z"
         style=""
         id="path2992" />
      <path
         d="m -132.61719,-426.00675 3.63282,0.44922 c -0.57294,2.1224 -1.63414,3.76953 -3.1836,4.94141 -1.54949,1.17187 -3.52866,1.75781 -5.9375,1.75781 -3.03386,0 -5.43946,-0.93425 -7.2168,-2.80274 -1.77734,-1.86848 -2.66601,-4.48892 -2.66601,-7.86132 0,-3.48957 0.89843,-6.1979 2.69531,-8.125 1.79687,-1.92707 4.1276,-2.89061 6.99219,-2.89063 2.77342,2e-5 5.03905,0.94403 6.79687,2.83203 1.7578,1.88804 2.6367,4.54429 2.63672,7.96875 -2e-5,0.20835 -0.007,0.52085 -0.0195,0.9375 l -15.46875,0 c 0.1302,2.27866 0.77473,4.02345 1.9336,5.23438 1.15884,1.21094 2.60415,1.81641 4.33593,1.8164 1.28905,1e-5 2.38931,-0.33853 3.30078,-1.01562 0.91145,-0.67708 1.6341,-1.75781 2.16797,-3.24219 z m -11.54297,-5.68359 11.58204,0 c -0.15627,-1.74478 -0.59898,-3.05337 -1.32813,-3.92578 -1.11981,-1.35415 -2.57163,-2.03124 -4.35547,-2.03125 -1.61459,1e-5 -2.97201,0.54038 -4.07226,1.62109 -1.10027,1.08075 -1.70899,2.52606 -1.82618,4.33594 z"
         style=""
         id="path2994" />
      <path
         d="m -123.71094,-419.32706 0,-18.00781 -3.10547,0 0,-2.73438 3.10547,0 0,-2.20703 c 0,-1.3932 0.1237,-2.42836 0.3711,-3.10547 0.33853,-0.91143 0.93424,-1.65036 1.78711,-2.2168 0.85285,-0.56637 2.04751,-0.84958 3.58398,-0.8496 0.98957,2e-5 2.08332,0.11721 3.28125,0.35156 l -0.52734,3.0664 c -0.72918,-0.13018 -1.41929,-0.19528 -2.07032,-0.19531 -1.06771,3e-5 -1.82292,0.22789 -2.26562,0.6836 -0.44272,0.45575 -0.66407,1.30861 -0.66406,2.55859 l 0,1.91406 4.04296,0 0,2.73438 -4.04296,0 0,18.00781 z"
         style=""
         id="path2996" />
      <path
         d="m -105.78125,-422.47159 0.50781,3.10547 c -0.98959,0.20833 -1.87501,0.3125 -2.65625,0.3125 -1.27605,0 -2.26563,-0.20183 -2.96875,-0.60547 -0.70313,-0.40365 -1.19792,-0.93425 -1.48437,-1.5918 -0.28646,-0.65755 -0.42969,-2.04101 -0.42969,-4.15039 l 0,-11.93359 -2.57813,0 0,-2.73438 2.57813,0 0,-5.13672 3.49609,-2.10937 0,7.24609 3.53516,0 0,2.73438 -3.53516,0 0,12.1289 c 0,1.00261 0.0619,1.64714 0.18555,1.9336 0.12369,0.28646 0.32551,0.51432 0.60547,0.68359 0.27994,0.16927 0.68033,0.25391 1.20117,0.25391 0.39062,0 0.90494,-0.0456 1.54297,-0.13672 z"
         style=""
         id="path2998" />
      <path
         d="m -90.820312,-419.32706 0,-28.63281 10.800781,0 c 1.901026,3e-5 3.352847,0.0912 4.355469,0.27343 1.40623,0.23441 2.584614,0.68037 3.535156,1.33789 0.950498,0.65758 1.715471,1.57881 2.294922,2.76368 0.579402,1.18492 0.869115,2.487 0.86914,3.90625 -2.5e-5,2.43491 -0.774764,4.49546 -2.324218,6.18164 -1.549501,1.68621 -4.348977,2.52931 -8.398438,2.52929 l -7.34375,0 0,11.64063 z m 3.789062,-15.01953 7.402344,0 c 2.4479,10e-6 4.186179,-0.45572 5.214844,-1.36719 1.028625,-0.91144 1.542947,-2.19399 1.542968,-3.84766 -2.1e-5,-1.19789 -0.302755,-2.22328 -0.908203,-3.07617 -0.605488,-0.85284 -1.403013,-1.41599 -2.392578,-1.68945 -0.638038,-0.16925 -1.816422,-0.25388 -3.535156,-0.25391 l -7.324219,0 z"
         style=""
         id="path3000" />
      <path
         d="m -51.015625,-421.88565 c -1.302098,1.10677 -2.555352,1.88802 -3.759766,2.34375 -1.204438,0.45572 -2.496754,0.68359 -3.876953,0.68359 -2.278652,0 -4.029952,-0.55664 -5.253906,-1.66992 -1.22396,-1.11328 -1.835939,-2.53581 -1.835937,-4.26758 -2e-6,-1.01562 0.231118,-1.94335 0.693359,-2.7832 0.462237,-0.83984 1.067705,-1.51367 1.816406,-2.02149 0.748693,-0.5078 1.591791,-0.89191 2.529297,-1.15234 0.690097,-0.18228 1.731763,-0.35806 3.125,-0.52735 2.838529,-0.33853 4.928371,-0.74217 6.269531,-1.21093 0.013,-0.48176 0.01952,-0.78775 0.01953,-0.91797 -1.6e-5,-1.43228 -0.332047,-2.44139 -0.996094,-3.02735 -0.898452,-0.79425 -2.233086,-1.19138 -4.003906,-1.1914 -1.653656,2e-5 -2.874357,0.28973 -3.66211,0.86914 -0.787767,0.57944 -1.370448,1.60483 -1.748047,3.07617 l -3.4375,-0.46875 c 0.312498,-1.47134 0.82682,-2.65949 1.542969,-3.56445 0.716142,-0.90493 1.751297,-1.60155 3.105469,-2.08985 1.354158,-0.48826 2.923167,-0.7324 4.707031,-0.73242 1.77082,2e-5 3.209621,0.20836 4.316406,0.625 1.106754,0.41669 1.920556,0.94078 2.441407,1.57227 0.520814,0.63153 0.885397,1.42905 1.09375,2.39258 0.117168,0.59897 0.175761,1.6797 0.175781,3.24218 l 0,4.6875 c -2e-5,3.26824 0.07485,5.33529 0.224609,6.20117 0.14972,0.86589 0.445944,1.69597 0.888672,2.49024 l -3.671875,0 c -0.3646,-0.72917 -0.598975,-1.58203 -0.703125,-2.55859 z m -0.292969,-7.85157 c -1.276056,0.52085 -3.190117,0.96355 -5.742187,1.32813 -1.445321,0.20834 -2.467456,0.44271 -3.066406,0.70312 -0.598965,0.26043 -1.061204,0.64129 -1.386719,1.14258 -0.325526,0.50131 -0.488287,1.05795 -0.488281,1.66992 -6e-6,0.93751 0.354812,1.71876 1.064453,2.34375 0.709628,0.62501 1.748038,0.93751 3.115234,0.9375 1.354156,10e-6 2.558582,-0.29622 3.613281,-0.88867 1.054674,-0.59244 1.829413,-1.40299 2.324219,-2.43164 0.377588,-0.79426 0.56639,-1.96614 0.566406,-3.51562 z"
         style=""
         id="path3002" />
      <path
         d="m -42.324219,-419.32706 0,-20.74219 3.164063,0 0,3.14453 c 0.807285,-1.47133 1.552727,-2.44138 2.236328,-2.91015 0.683585,-0.46873 1.435537,-0.70311 2.255859,-0.70313 1.184885,2e-5 2.389311,0.37763 3.613282,1.13281 l -1.210938,3.26172 c -0.859387,-0.50779 -1.718761,-0.7617 -2.578125,-0.76172 -0.768238,2e-5 -1.458342,0.23114 -2.070312,0.69336 -0.611987,0.46226 -1.048185,1.10353 -1.308594,1.92383 -0.390632,1.25002 -0.585944,2.6172 -0.585938,4.10156 l 0,10.85938 z"
         style=""
         id="path3004" />
      <path
         d="m -28.90625,-443.9169 0,-4.04297 3.515625,0 0,4.04297 z m 0,24.58984 0,-20.74219 3.515625,0 0,20.74219 z"
         style=""
         id="path3006" />
      <path
         d="m -5.8203125,-426.00675 3.6328125,0.44922 c -0.5729366,2.1224 -1.6341334,3.76953 -3.1835937,4.94141 -1.549495,1.17187 -3.5286596,1.75781 -5.9375003,1.75781 -3.033862,0 -5.439459,-0.93425 -7.216797,-2.80274 -1.777346,-1.86848 -2.666017,-4.48892 -2.666015,-7.86132 -2e-6,-3.48957 0.898435,-6.1979 2.695312,-8.125 1.796869,-1.92707 4.127596,-2.89061 6.992188,-2.89063 2.7734233,2e-5 5.0390461,0.94403 6.7968748,2.83203 1.7577927,1.88804 2.6366981,4.54429 2.6367187,7.96875 -2.06e-5,0.20835 -0.00653,0.52085 -0.019531,0.9375 l -15.4687502,0 c 0.130203,2.27866 0.774734,4.02345 1.933594,5.23438 1.158846,1.21094 2.604157,1.81641 4.335937,1.8164 1.28905,1e-5 2.3893097,-0.33853 3.3007818,-1.01562 0.9114427,-0.67708 1.6340982,-1.75781 2.1679687,-3.24219 z m -11.5429685,-5.68359 11.582031,0 c -0.1562667,-1.74478 -0.5989746,-3.05337 -1.328125,-3.92578 -1.1198061,-1.35415 -2.5716276,-2.03124 -4.355469,-2.03125 -1.614593,1e-5 -2.972013,0.54038 -4.072265,1.62109 -1.100267,1.08075 -1.70899,2.52606 -1.826172,4.33594 z"
         style=""
         id="path3008" />
      <path
         d="m 9.921875,-422.47159 0.507813,3.10547 c -0.9895937,0.20833 -1.8750094,0.3125 -2.6562505,0.3125 -1.2760486,0 -2.2656309,-0.20183 -2.96875,-0.60547 -0.7031295,-0.40365 -1.1979207,-0.93425 -1.484375,-1.5918 -0.2864618,-0.65755 -0.4296908,-2.04101 -0.4296875,-4.15039 l 0,-11.93359 -2.578125,0 0,-2.73438 2.578125,0 0,-5.13672 3.4960937,-2.10937 0,7.24609 3.5351563,0 0,2.73438 -3.5351563,0 0,12.1289 c -6.7e-6,1.00261 0.061842,1.64714 0.1855469,1.9336 0.1236909,0.28646 0.3255136,0.51432 0.6054688,0.68359 0.27994,0.16927 0.6803303,0.25391 1.2011719,0.25391 0.3906158,0 0.9049382,-0.0456 1.5429687,-0.13672 z"
         style=""
         id="path3010" />
      <path
         d="m 26.875,-421.88565 c -1.302098,1.10677 -2.555352,1.88802 -3.759766,2.34375 -1.204438,0.45572 -2.496754,0.68359 -3.876953,0.68359 -2.278652,0 -4.029952,-0.55664 -5.253906,-1.66992 -1.22396,-1.11328 -1.835939,-2.53581 -1.835937,-4.26758 -2e-6,-1.01562 0.231118,-1.94335 0.693359,-2.7832 0.462237,-0.83984 1.067705,-1.51367 1.816406,-2.02149 0.748693,-0.5078 1.591791,-0.89191 2.529297,-1.15234 0.690097,-0.18228 1.731763,-0.35806 3.125,-0.52735 2.838529,-0.33853 4.928371,-0.74217 6.269531,-1.21093 0.013,-0.48176 0.01952,-0.78775 0.01953,-0.91797 -1.5e-5,-1.43228 -0.332046,-2.44139 -0.996093,-3.02735 -0.898452,-0.79425 -2.233086,-1.19138 -4.003907,-1.1914 -1.653655,2e-5 -2.874356,0.28973 -3.662109,0.86914 -0.787767,0.57944 -1.370448,1.60483 -1.748047,3.07617 l -3.4375,-0.46875 c 0.312498,-1.47134 0.82682,-2.65949 1.542969,-3.56445 0.716142,-0.90493 1.751297,-1.60155 3.105469,-2.08985 1.354158,-0.48826 2.923167,-0.7324 4.707031,-0.73242 1.77082,2e-5 3.209621,0.20836 4.316406,0.625 1.106754,0.41669 1.920556,0.94078 2.441406,1.57227 0.520815,0.63153 0.885398,1.42905 1.09375,2.39258 0.117169,0.59897 0.175762,1.6797 0.175782,3.24218 l 0,4.6875 c -2e-5,3.26824 0.07485,5.33529 0.224609,6.20117 0.14972,0.86589 0.445944,1.69597 0.888672,2.49024 l -3.671875,0 c -0.3646,-0.72917 -0.598975,-1.58203 -0.703125,-2.55859 z m -0.292969,-7.85157 c -1.276056,0.52085 -3.190117,0.96355 -5.742187,1.32813 -1.445321,0.20834 -2.467456,0.44271 -3.066407,0.70312 -0.598964,0.26043 -1.061203,0.64129 -1.386718,1.14258 -0.325526,0.50131 -0.488287,1.05795 -0.488281,1.66992 -6e-6,0.93751 0.354812,1.71876 1.064453,2.34375 0.709628,0.62501 1.748038,0.93751 3.115234,0.9375 1.354156,10e-6 2.558582,-0.29622 3.613281,-0.88867 1.054674,-0.59244 1.829413,-1.40299 2.324219,-2.43164 0.377588,-0.79426 0.56639,-1.96614 0.566406,-3.51562 z"
         style=""
         id="path3012" />
      <path
         d="m 35.527344,-419.32706 0,-28.63281 3.515625,0 0,28.63281 z"
         style=""
         id="path3014" />
    </g>
  </g>
</svg>
