<?xml version="1.0" encoding="UTF-8" standalone="no"?>
<!-- Created with Inkscape (http://www.inkscape.org/) -->

<svg
   xmlns:dc="http://purl.org/dc/elements/1.1/"
   xmlns:cc="http://creativecommons.org/ns#"
   xmlns:rdf="http://www.w3.org/1999/02/22-rdf-syntax-ns#"
   xmlns:svg="http://www.w3.org/2000/svg"
   xmlns="http://www.w3.org/2000/svg"
   xmlns:sodipodi="http://sodipodi.sourceforge.net/DTD/sodipodi-0.dtd"
   xmlns:inkscape="http://www.inkscape.org/namespaces/inkscape"
   id="svg3333"
   version="1.1"
   inkscape:version="0.48.4 r9939"
   sodipodi:docname="temporal_right.svg">
  <defs
     id="defs3335" />
  <sodipodi:namedview
     id="base"
     pagecolor="#ffffff"
     bordercolor="#ffffff"
     borderopacity="0.0"
     inkscape:pageopacity="0.0"
     inkscape:pageshadow="0"
     inkscape:zoom="0.35"
     inkscape:cx="-120.40586"
     inkscape:cy="494.175"
     inkscape:document-units="px"
     inkscape:current-layer="layer1"
     showgrid="false"
     inkscape:window-width="1400"
     inkscape:window-height="1028"
     inkscape:window-x="-8"
     inkscape:window-y="22"
     inkscape:window-maximized="1" />
  <metadata
     id="metadata3338">
    <rdf:RDF>
      <cc:Work
         rdf:about="">
        <dc:format>image/svg+xml</dc:format>
        <dc:type
           rdf:resource="http://purl.org/dc/dcmitype/StillImage" />
        <dc:title />
      </cc:Work>
    </rdf:RDF>
  </metadata>
  <g
     inkscape:label="Layer 1"
     inkscape:groupmode="layer"
     id="layer1">
    <path
       style="fill:#e16aa2;fill-rule:evenodd;stroke:#000000;stroke-miterlimit:10"
       inkscape:connector-curvature="0"
       clip-rule="evenodd"
       stroke-miterlimit="10"
       d="m 531.77191,883.38938 c -1.797,1.459 -1.938,9.929 -0.526,11.717 1.271,1.612 2.13,3.331 2.338,5.339 0.111,1.07 0.563,1.967 0.987,2.911 3.611,8.033 6.615,16.123 2.141,24.856 -0.234,0.459 -0.387,0.959 -0.584,1.436 -0.601,1.444 -0.738,2.802 0.469,4.068 1.059,1.11 0.746,2.198 -0.289,3.152 -0.757,0.698 -1.487,1.449 -2.338,2.019 -4.023,2.689 -7.547,5.966 -11.002,9.315 -1.164,1.131 -2.068,2.959 -0.809,4.098 1.347,1.218 2.678,0.017 3.768,-1.387 1.738,-2.244 3.885,-4.358 6.393,-5.507 4.521,-2.068 8.604,-4.452 11.283,-8.78 0.205,-0.333 0.425,-0.776 1.175,-0.541 -0.867,6.877 -7.156,9.724 -10.797,14.497 -0.087,0.117 -0.33,0.097 -0.477,0.184 -3.06,1.774 -6.024,3.541 -7.719,6.969 -1.01,2.043 -2.484,4.015 -4.188,5.53 -6.699,5.956 -14.943,9.343 -23.371,11.438 -6.248,1.557 -12.629,2.762 -18.899,4.393 -3.126,0.813 -5.804,2.876 -8.823,3.44 -4.692,0.875 -8.655,3.199 -12.736,5.252 -3.508,1.769 -6.365,4.653 -9.507,7.036 -6.42,4.86 -13.453,8.56702 -21.237,10.11002 -12.231,2.423 -24.549,3.447 -36.295,-2.629 -4.588,-2.37202 -8.618,-5.33802 -11.426,-9.68502 -1.102,-1.705 -2.405,-3.148 -3.857,-4.485 -2.721,-2.505 -5.531,-4.913 -8.258,-7.413 -1.063,-0.973 -2.191,-1.558 -3.67,-1.644 -5.336,-0.31 -9.804,-2.841 -14.123,-5.698 -2.486,-1.646 -5.714,-2.043 -7.672,-4.576 -1.988,-2.575 -1.91,-3.604 -4.351,-4.146 -3.067,-0.682 -5.972,-1.889 -8.903,-3.144 -4.119,-1.768 -8.051,-3.771 -11.922,-5.972 -2.379,-1.351 -4.492,-3.156 -7.094,-4.133 -0.793,-0.3 -3.347,-2.125 -3.932,-2.377 -2.698,-1.163 -4.663,-3.458 -7.372,-4.609 -2.701,-1.148 -4.732,-3.338 -7.155,-4.932 -1.184,-0.779 -2.396,-1.339 -3.741,-1.594 -3.869,-0.736 -5.127,-1.942 -5.68,-5.61 -0.283,-0.904 -0.101,-1.695 0.582,-2.362 0.806,-0.175 3.629,-3.115 3.73,-3.612 0.247,-0.182 0.495,-0.362 0.743,-0.543 3.81,-1.285 7.624,-2.564 11.427,-3.869 0.563,-0.192 10.144,-4.308 13.857,-4.35 1.328,-0.017 2.521,0.283 3.579,1.09 5.058,2.786 9.852,6.063 15.271,8.176 0.587,0.101 1.176,0.203 1.764,0.306 3.815,2.293 7.898,3.789 12.336,4.35 6.048,0.768 12.067,1.807 18.133,2.37 5.394,0.499 10.832,0.524 16.252,0.735 2.749,0.105 5.487,0.098 8.248,0.363 4.271,0.417 6.83,3.425 7.957,6.51 2.15,5.888 5.855,10.663 9.172,15.738 4.458,6.824 9.862,12.832 16.548,17.542 2.933,2.065 5.726,4.448 9.263,5.546 0.922,0.285 1.74,0.766 2.381,1.499 0.856,0.979 2.029,1.32 3.225,1.46 1.249,0.146 2.541,-0.112 3.057,-1.409 0.516,-1.294 -0.508,-1.965 -1.434,-2.697 -2.963,-2.35 -6.092,-4.504 -8.666,-7.317 -0.684,-0.748 -1.34,-1.656 -2.595,-1.354 -0.115,-0.02 -0.183,-0.085 -0.202,-0.199 -0.84,-3.104 -3.375,-4.697 -5.74,-6.439 -1.379,-0.628 -2.18,-1.753 -2.689,-3.13 0.16,-1.078 0.057,-1.997 -1.309,-2.148 -0.09,-0.146 -0.178,-0.29 -0.268,-0.436 0.012,-2.139 -0.945,-3.71 -2.796,-4.756 -0.089,-0.165 -0.179,-0.331 -0.269,-0.494 0.402,-1.541 -0.24,-2.374 -1.764,-2.609 -0.475,-0.258 -0.578,-0.71 -0.628,-1.192 0.104,-0.17 0.321,-0.365 0.29,-0.507 -0.076,-0.34 -0.373,-0.438 -0.713,-0.356 -0.107,-0.034 -0.166,-0.107 -0.172,-0.221 -1.098,-3.704 -3.379,-6.497 -6.59,-8.577 -1.082,-1.103 -2.162,-2.207 -3.244,-3.311 -1.832,-3.474 -4.957,-5.72 -8.201,-7.475 -3.617,-1.953 -7.596,-3.259 -11.898,-1.562 -0.932,0.368 -2.184,-0.081 -3.288,-0.153 -8.274,-0.556 -16.767,0.095 -24.739,-2.268 -7.624,-2.257 -15.545,-3.41 -22.959,-6.609 -3.207,-1.385 -5.619,-3.893 -8.906,-4.963 -0.98,-0.318 -1.193,-1.37 -1.191,-2.391 0.004,-1.206 0.063,-2.432 -0.131,-3.612 -0.312,-1.874 -1.205,-3.72 -3.158,-3.988 -2.002,-0.276 -3.963,-0.061 -5.652,1.913 -3.48,4.066 -6.998,8.259 -12.454,9.932 -0.367,0.115 -1.531,0.954 -1.815,1.034 -0.757,0.104 -1.132,0.455 -1.727,1.13 -0.286,0.326 -1.732,0.542 -2.066,0.816 -2.84,2.335 -6.775,2.847 -9.774,4.763 -3.964,2.533 -7.905,5.371 -10.594,9.462 0.518,3.613 -1.983,3.968 -4.557,4.173 -8.321,0.662 -16.646,1.579 -24.505,-2.573 -2.274,-1.202 -4.951,-0.817 -7.394,-0.43 -3.367,0.534 -6.667,0.465 -10.016,0.007 -1.781,-0.242 -3.654,-0.488 -5.336,0.405 -1.755,0.933 -3.145,-0.47 -4.733,-0.557 -3.093,-0.168 -6.223,-0.167 -9.26,-0.689 -4.838,-0.832 -9.406,-2.665 -13.807,-4.792 -2.772,-1.34 -5.309,-3.156 -8.004,-4.665 -1.163,-0.648 -2.281,-0.698 -3.819,-1.155 -0.704,-0.211 -1.227,-0.994 -1.401,-1.709 -0.516,-2.128 -1.153,-2.9 -2.592,-3.565 -1.637,-0.755 -3.397,-1.071 -5.261,-1.097 -6.505,-0.093 -13.054,0.084 -19.494,-0.661 -3.942,-0.456 -7.901,-1.781 -11.653,-3.38 -0.523,-0.224 -6.253,-2.556 -8.272,-4.187 -1.994,-2.939 -0.167,-4.22 2.082,-5.917 3.576,-2.698 5.958,-6.563 8.322,-10.339 1.244,-1.985 3.448,-2.923 6.025,-2.311 1.919,0.454 3.789,1.161 5.825,0.479 2.504,-0.839 2.98,-2.287 1.181,-4.117 -2.315,-2.356 -4.883,-4.336 -8.233,-5.04 -0.875,-0.184 -1.789,-0.321 -2.521,0.164 -2.816,1.87 -6.246,3.166 -8.093,6.055 -3.109,4.872 -6.938,9.263 -9.557,14.462 -0.79,1.566 -2.498,1.661 -4.05,1.852 -1.868,0.228 -3.666,0.05 -5.623,0.355 -0.898,0.141 -1.815,-0.138 -2.726,-0.209 -3.37,-0.897 -6.667,-2.155 -10.239,-2.033 -6.733001,-0.68 -11.511001,-4.754 -16.040001,-9.255 -0.905,-1.97 -2.731,-3.352 -3.606,-5.305 -0.205,-0.458 -0.316,-3.565 -0.632,-4.62 -0.998,-3.384 -0.645,-6.393 3.873,-6.946 1.958,-0.241 3.313,-1.724 4.727,-2.99 5.391,-4.832 11.151001,-8.785 18.900001,-8.393 2.147,0.106 3.776,-1.094 4.7,-3.056 2.803,-5.945 4.678,-5.951 10.806,-4.722 3.665,0.734 7.459,1.256 10.76,3.393 0.847,0.548 2.186,0.3 3.271,0.529 9.146,1.941 18.287,3.678 27.699,4.021 4.442,0.162 9.04,0.415 13.24,2.757 2.518,1.405 4.616,-0.177 5.286,-3.023 0.423,-1.792 0.011,-3.727 0.61,-5.359 1.767,-4.803 2.826,-9.969 6.434,-13.934 0.343,-0.377 0.832,-0.774 0.908,-1.224 0.747,-4.351 3.577,-7.387 6.28,-10.596 1.821,-2.161 2.233,-5.146 3.507,-7.689 2.594,-5.179 6.568,-9.196 10.128,-13.576 2.351,-2.892 5.264,-5.17 8.329,-7.149 3.667,-2.363 7.845,-2.193 11.653,-0.44 3.72,1.709 7.19,3.986 10.691,6.145 2.677,1.649 3.354,4.66 4.552,7.295 -2.054,-0.08 -2.476,-2.155 -3.803,-3.14 -1.017,-0.755 -1.798,-2.042 -3.297,-1.234 -1.52,0.816 -1.614,2.551 -1,3.613 1.456,2.521 0.649,5.835 3.049,7.965 2.53,2.245 3.028,2.271 5.538,-0.075 0.371,-0.347 0.81,-0.616 1.213,-0.924 0.004,6.318 -0.318,12.542 -2.518,18.614 -1.363,3.766 -4.07,6.028 -7.046,8.221 -5.062,3.726 -9.553,7.95 -12.823,13.433 -2.229,3.736 -4.537,7.506 -7.372,10.774 -2.495,2.877 -5.729,5.115 -9.466,6.43 -2.736,0.964 -4.771,3.119 -7.413,4.379 -4.841,2.31 -9.18,5.364 -12.66,9.721 -4.34,5.431 -7.704,11.538 -12.236,16.818 -1.621,1.891 -0.521,4.077 1.826,4.95 3.096,1.148 5.276,-0.37 7.445,-2.056 3.795,-2.952 7.431,-5.994 10.188,-10.089 3.555,-5.29 8.562,-9.017 14.286,-11.835 1.583,-0.779 3.012,-1.979 4.318,-3.192 5.232,-4.868 10.172,-5.599 16.541,-2.609 3.144,1.475 6.683,2.492 9.563,4.11 4.882,2.744 10.664,3.964 14.723,8.158 1.202,1.244 2.255,0.288 3.157,-0.38 1.573,-1.156 1.554,-2.808 0.813,-4.407 -0.352,-0.765 -1.076,-1.576 -1.99,-1.468 -2.475,0.301 -3.729,-1.387 -5.194,-2.839 -0.601,-0.598 -1.267,-1.322 -2.03,-1.536 -5.532,-1.563 -9.974,-5.233 -15.071,-7.622 -1.051,-0.492 -1.657,-1.438 -2.378,-2.306 -0.945,-1.136 -2.924,-1.98 -3.55,-2.948 -1.36,-2.099 0.186,-4.851 1.595,-6.65 0.212,-0.272 0.587,-0.364 0.881,-0.544 1.392,-0.641 8.697,-7.359 8.915,-8.798 1.937,-1.777 8.583,-8.05 9.104,-8.673 3.789,-4.494 5.995,-9.674 6.646,-15.53 0.442,-4.003 0.853,-8.014 1.546,-11.975 0.587,-3.342 2.355,-3.949 5.384,-2.325 1.682,0.901 3.302,1.827 4.597,3.263 0.502,0.56 2.796,2.101 3.507,1.891 0.463,0.097 0.795,0.351 0.965,0.798 -0.069,2.066 1.334,2.633 2.992,2.938 1.971,1.369 3.111,3.521 4.833,5.124 0.757,2.504 2.398,4.111 4.901,4.852 0.152,0.061 0.251,0.17 0.293,0.331 0.09,2.104 2.058,2.901 3.25,3.974 3.508,3.153 7.814,4.041 12.512,3.127 3.455,-0.672 6.949,-1.152 10.434,-1.672 1.025,-0.149 2.044,-0.036 3.061,0.302 3.713,1.23 7.521,1.831 11.449,1.611 5.575,-0.308 10.615,1.463 15.653,3.673 2.625,1.152 5.2,2.782 8.128,3.027 3.508,0.293 6.398,-1.832 9.338,-3.26 5.971,-2.901 12.107,-4.756 18.758,-5.104 8.563,-0.446 16.916,0.691 24.843,3.792 3.504,1.369 6.988,3.233 9.911,5.814 0.868,0.764 1.818,1.226 2.998,1.358 2.555,0.288 4.617,1.773 5.998,3.697 1.248,1.741 2.729,2.822 4.59,3.556 2.018,0.796 3.271,2.193 4.432,4.064 2.637,4.255 6.34,7.464 11.098,9.269 1.236,0.47 2.599,0.85 3.045,2.179 0.9,2.678 2.871,4.187 5.228,5.412 1.685,0.879 2.62,2.271 3.222,4.141 0.622,1.932 1.561,3.827 3.025,5.352 4.609,4.797 7.709,10.71 11.465,16.109 2.488,3.571 4.637,7.402 7.574,10.67 3.614,4.017 7.308,7.964 10.929,11.976 2.925,3.238 5.852,6.455 9.638,8.752 0.674,0.407 1.241,0.947 2.075,0.886 4.491,-0.34 8.938,0.581 13.415,0.505 3.135,-0.053 6.967,-3.419 7.494,-6.476 0.348,-2.007 -1.979,-5.334 -4.705,-6.461 -4.684,-1.933 -9.539,-3.361 -14.43,-4.665 -0.742,-0.2 -1.68,-0.214 -2.182,-0.682 -3.605,-3.37 -8.002,-5.619 -12.006,-8.398 -5.363,-3.72 -8.012,-9.278 -11.205,-14.501 -1.652,-2.704 -3.059,-5.58 -5.229,-7.903 -3.039,-3.252 -3.598,-7.311 -4.067,-11.422 -0.235,-2.06 -1.003,-3.945 -2.437,-5.304 -5.916,-5.595 -11.572,-11.471 -17.783,-16.757 -1.225,-1.04 -2.964,-1.344 -3.805,-0.522 -1.996,1.941 -3.959,0.871 -5.311,-0.088 -2.621,-1.865 -5.544,-3.11 -8.262,-4.748 -2.379,-1.431 -3.664,-3.45 -4.37,-6.086 -0.931,-3.478 -2.93,-6.247 -6.05,-8.206 -1.994,-1.253 -3.648,-1.721 -5.786,0.016 -1.832,1.49 -4.258,0.831 -6.113,-0.256 -0.998,-0.582 -1.888,-0.937 -2.992,-1.157 -7.511,-1.497 -12.276,-5.971 -12.673,-14.555 -0.031,-0.664 0.08,-1.44 0.41,-1.997 2,-3.374 2.078,-7.376 3.744,-10.908 1.732,-3.671 1.1,-7.845 0.648,-11.743 -0.207,-1.78 -2.117,-3.218 -3.204,-4.848 -2.194,-3.296 -3.56,-7.019 -5.681,-10.344 -0.561,-0.876 -0.528,-2.147 -0.699,-3.247 -0.229,-1.463 -0.518,-2.868 -1.674,-3.942 -1.024,-0.955 -2.096,-2.139 -3.576,-1.544 -1.46,0.588 -2.555,1.765 -2.521,3.576 0.01,0.613 -0.055,1.213 -0.566,1.653 -1.375,-2.544 -1.422,-5.467 -2.301,-8.161 -0.496,-1.525 2.347,-4.285 4.263,-4.486 4.104,-0.433 6.569,0.87 8.2,4.729 0.719,1.701 1.783,3.15 2.781,4.614 2.514,3.687 8.594,4.171 11.954,1.141 1.379,-1.24 1.548,-5.039 -0.036,-6.347 -3.432,-2.833 -6.813,-5.811 -11.224,-7.133 -2.577,-0.772 -4.557,-2.733 -7.589,-2.842 -3.74,-0.134 -6.908,0.299 -10.225,2.325 -6.855,4.19 -10.219,10.565 -12.039,17.882 -1.838,7.399 3.186,11.712 10.279,10.404 2.693,-0.495 5.72,-5.248 5.928,-8.857 2.227,2.936 2.652,6.555 3.035,9.938 1.238,10.907 -0.582,21.515 -5.508,31.277 -3.277,6.498 -8.382,11.73 -15.3,14.632 -1.746,0.732 -3.821,0.905 -5.839,0.728 -9.002,-0.805 -17.758,-3.005 -26.62,-4.604 -5.404,-0.977 -10.865,-1.65 -16.262,-2.663 -3.438,-0.646 -6.485,-2.614 -10.05,-3.055 -5.488,-0.682 -10.787,-2.373 -15.627,-4.934 -5.717,-3.027 -11.454,-6.145 -16.139,-10.815 -2.615,-2.607 -5.092,-5.085 -6.462,-8.757 -1.604,-4.297 0.033,-7.604 2.308,-10.646 2.626,-3.517 6.505,-5.852 9.703,-8.85 1.653,-1.551 2.516,-5.875 1.635,-7.877 -0.82,-1.866 -2.539,-1.495 -4.046,-1.485 -2.995,0.022 -5.924,2.71 -5.983,5.407 -0.016,0.171 -0.097,0.294 -0.249,0.369 -2.587,0.961 -3.235,3.628 -5.108,5.397 -0.346,0.324 -0.823,0.586 -1.297,0.584 -0.896,-0.008 -2.063,1.442 -2.623,1.463 -1.674,0.023 -5.553,2.075 -6.401,2.639 -0.525,0.349 -1.273,0.226 -1.892,0.096 -3.223,-0.686 -6.124,-0.957 -9.15,-0.782 -7.124,0.416 -12.918,-2.756 -18.682,-6.208 -0.292,-0.176 -0.563,-0.47 -0.876,-0.522 -4.436,-0.736 -8.675,-2.829 -13.316,-2.118 -3.561,0.546 -6.854,2.032 -10.238,3.19 -0.497,0.17 -6.823,1.969 -9.178,2.264 -3.781,0.477 -7.58,0.416 -11.346,0.074 -3.076,-0.28 -5.04,-2.774 -7.41,-4.445 -2.97,-2.099 -4.263,-5.359 -5.446,-8.493 -2.681,-7.086 -4.405,-14.49 -7.552,-21.46 -2.197,-4.874 -5.135,-9.146 -7.964,-13.602 -3.034,-4.781 -6.316,-9.274 -10.147,-13.361 -2.273,-2.424 -4.997,-4.425 -8.083,-5.826 -0.548,-0.248 -4.699,-3.3 -4.327,-5.263 0.398,-2.1 2.552,-2.067 4.313,-2.567 4.661,-1.327 9.016,0.603 13.518,0.856 3.67,0.209 6.849,2.116 10.41,2.599 0.725,0.035 1.416,0.169 2.011,0.625 0.305,0.858 12.633,3.678 16.712,1.848 4.654,-2.089 8.817,-5.265 13.431,-7.459 4.858,-2.309 9.357,-5.099 14.875,-6.47 7.692,-1.911 15.355,-2.242 23.088,-2.851 3.634,3.385 5.452,7.616 5.852,12.516 -0.813,1.238 0.355,1.45 1.013,1.712 0.955,0.383 1.504,0.593 2.772,-0.487 2.578,-2.196 4.98,-3.595 7.041,-5.906 0.738,-0.166 0.821,-2.151 0.951,-2.604 1.438,-1.065 1.56,-2.648 1.666,-4.236 0.022,-2.271 1.411,-3.971 3.197,-4.667 2.468,-0.961 5.233,-0.308 7.782,-0.953 1.119,-0.283 1.363,-1.36 2.376,-2.097 3.312,-2.405 7.641,1.975 11.25,3.612 0.294,1.501 1.326,2.547 2.633,2.929 5.515,1.611 9.22,5.869 13.476,9.231 2.421,1.91 4.088,4.783 6.068,7.245 1.54,1.918 3.823,2.86 5.719,4.309 1.268,0.969 11.146,16.46 11.38,17.29 1.113,3.936 4.082,6.921 5.377,10.787 0.724,2.16 2.307,3.99 3.561,5.891 4.536,6.876 8.056,14.236 11.68,21.607 2.652,5.395 5.376,10.887 9.004,15.827 1.539,2.095 2.609,4.555 4.235,6.646 0.76,0.976 1.575,1.844 2.757,2.247 2.27,0.777 4.227,-0.516 4.336,-2.901 0.104,-2.189 -0.246,-4.172 -1.841,-5.968 -1.101,-1.241 -1.579,-3.021 -2.42,-4.514 -0.329,-0.586 -3.739,-6.165 -3.929,-6.962 0.297,-2.185 -0.267,-4.032 -2.107,-5.38 -0.127,-0.467 -0.254,-0.934 -0.38,-1.4 0.669,-1.332 0.04,-2.656 -0.476,-3.694 -1.55,-3.109 0.058,-5.42 1.523,-7.843 2.479,-4.087 6.747,-5.908 10.554,-8.295 0.729,-0.458 6.027,-1.97 8.101,-2.151 1.992,0.702 3.955,0.753 6.062,0.276 3.88,-0.878 7.635,0.291 10.964,1.994 3.781,1.936 7.768,2.622 11.807,3.238 4.394,0.67 8.656,2.085 13.131,2.267 4.987,-0.222 9.864,0.04 14.074,3.216 2.279,1.862 4.446,3.89 6.866,5.545 2.903,1.989 5.576,4.248 8.368,6.349 2.524,1.9 4.901,3.787 8.388,4.75 5.718,1.579 10.397,5.719 15.507,8.73 2.207,1.299 10.447,7.692 12.431,9.475 4.006,3.6 7.553,7.77 12.138,10.678 2.46,1.561 14.401,10.474 16.326,11.929 7.284,5.511 13.761,11.866 20.027,18.479 3.52,3.715 5.369,8.272 7.304,12.867 0.947,2.249 2.521,4.245 3.894,6.3 0.604,0.904 3.219,7.866 4.344,9.316 2.607,3.358 2.176,7.288 2.876,11.013 -0.646,0.533 -1.277,1.082 -1.926,1.609 z m -140.052,1.865 c -1.525,3.715 -3.986,5.907 -7.057,8.026 -3.221,2.219 -4.982,5.848 -7.537,8.732 -1.039,1.173 -2.017,2.218 -3.544,2.857 -3.831,1.599 -4.573,4.48 -2.19,7.749 1.589,2.18 1.397,3.525 -0.749,5.271 -1.67,1.358 -1.563,2.419 0.45,3.31 0.848,0.375 1.816,0.595 2.742,0.639 5.777,0.279 11.492,1.62 17.313,-0.637 3.716,-1.441 7.935,-1.357 11.968,-1.506 4.513,-0.168 5.494,-0.627 6.693,-4.837 0.748,-2.624 2.597,-3.447 4.864,-3.976 2.838,-0.66 5.772,-0.948 8.354,-2.525 3.369,-2.059 3.417,-3.264 0.858,-6.172 -3.895,-4.424 -9.099,-6.05 -14.458,-7.573 -3.047,-0.867 -6.177,-1.622 -8.813,-3.532 -3.47,-2.517 -4.052,-3.762 -2.339,-7.587 1.531,-3.423 3.354,-6.82 6.917,-8.728 0.917,-0.492 1.89,-1.174 2.869,-0.381 0.958,0.774 0.63,1.866 0.285,2.872 -0.111,0.328 -0.145,0.702 -0.327,0.979 -3.128,4.742 -1.156,6.052 2.006,8.609 1.962,1.587 4.205,3.173 6.774,4.04 6.041,2.039 11.245,5.372 15.525,10.166 3.207,3.591 2.822,6.737 -1.479,8.943 -4.627,2.375 -9.126,5.13 -14.523,5.569 -0.801,0.064 -1.68,0.516 -2.313,1.039 -1.219,1.012 -0.907,2.491 0.594,2.976 0.973,0.315 2.017,0.42 3.034,0.592 5.142,0.869 9.169,3.332 11.384,8.203 0.697,1.532 1.55,3.242 0.278,4.889 -1.314,1.701 -3.265,1.598 -5.162,1.54 -2.973,-0.091 -5.49,-1.368 -7.779,-3.105 -1.488,-1.129 -3.101,-1.364 -4.871,-1.251 -1.287,0.083 -2.344,0.829 -2.551,1.873 -0.539,2.707 -0.777,5.519 1.065,7.925 3.63,4.736 8.325,8.421 12.597,12.516 2.271,2.176 4.18,4.563 5.516,7.35 1.682,3.509 3.359,3.853 5.756,0.919 1.027,-1.255 2.251,-2.013 3.967,-2.09 4.973,-0.218 6.758,-1.651 8.269,-6.349 0.403,-1.254 1.061,-2.119 2.641,-1.806 4.478,0.887 5.901,-1.149 6.475,-5.409 0.295,-2.195 0.354,-4.442 0.558,-6.668 0.482,-5.261 3.11,-9.148 7.021,-12.448 1.233,-1.043 2.492,-1.124 3.849,-0.861 0.869,0.17 1.864,0.982 1.455,1.799 -0.893,1.784 -0.985,3.857 -1.979,5.515 -2.072,3.452 -1.971,6.752 -0.176,10.26 1.078,2.106 1.832,4.235 4.843,4.128 2.243,-0.08 3.613,-1.123 4.152,-3.145 0.642,-2.405 1.154,-4.856 1.531,-7.317 0.745,-4.873 -1.458,-8.553 -5.122,-11.443 -1.057,-0.834 -1.609,-1.605 -1.596,-2.968 0.042,-4.007 -2.495,-6.854 -4.791,-9.693 -1.459,-1.809 -2.59,-3.475 -2.477,-5.961 0.136,-3.05 -2.641,-5.853 -5.695,-6.162 -4.191,-0.424 -6.572,-3.716 -5.612,-7.76 0.722,-3.046 0.722,-3.046 -2.272,-3.104 -4.326,-0.081 -5.885,-1.268 -6.98,-5.318 -0.023,-0.083 0,-0.208 -0.051,-0.248 -3.305,-2.643 -3.728,-8.158 -8.961,-8.904 -2.47,-0.353 -3.367,-2.111 -3.489,-4.417 -0.178,-3.384 -1.169,-4 -4.188,-2.628 -3.125,1.417 -4.414,0.604 -4.613,-2.924 -0.25,-4.431 -0.246,-4.41 -4.621,-3.558 -2.074,0.403 -4.027,0.96 -5.187,2.944 -0.429,0.732 -1.079,0.743 -1.806,0.584 -4.684,-1.037 -8.714,1.189 -12.851,2.701 -1.42,0.519 -1.47,1.423 -1.429,5.653 0.016,4.207 -1.423,7.939 -3.015,11.823 z m -85.881,-33.56 c -1.998,0.337 -3.209,1.692 -3.87,3.408 -1.507,3.907 -6.471,5.367 -9.735,2.56 -3.47,-2.982 -6.292,-6.468 -8.11,-10.8 -1.772,-4.23 -4.661,-7.755 -8.271,-10.627 -1.029,-0.819 -2.158,-1.594 -3.51,-0.679 -1.585,1.073 -3.187,2.275 -2.956,4.461 0.146,1.389 1.056,1.937 2.613,1.652 3.6,-0.66 5.218,0.527 6.146,4.081 1.233,4.728 0.025,8.724 -3.062,12.475 -1.967,2.389 -3.705,4.9 -6.277,6.736 -1.284,0.913 -2.428,1.841 -3.862,0.553 -1.36,-1.225 -0.526,-2.669 0.121,-3.784 1.466,-2.521 3.347,-4.775 3.977,-7.763 0.554,-2.619 0.227,-5.146 -0.312,-7.674 -0.293,-1.382 -1.36,-1.734 -2.265,-0.694 -3.186,3.661 -8.04,5.176 -11.146,8.991 -2.342,2.876 -2.799,5.928 -0.398,8.796 1.197,1.43 0.844,2.006 -0.745,2.501 -2.546,0.792 -4.88,2.013 -7.134,3.461 -3.796,2.441 -4.077,4.207 -0.172,6.246 3.557,1.86 6.74,4.366 10.564,5.781 2.365,0.873 4.244,2.769 6.638,3.768 1.297,0.542 1.698,1.951 1.712,3.496 0.032,3.248 1.52,4.813 4.646,4.994 2.403,0.139 4.667,0.77 5.443,3.152 0.72,2.215 0.202,4.271 -1.525,6.375 -2.61,3.183 -5.41,4.265 -9.229,3.008 -0.244,-0.079 -6.455,-3.685 -9.449,-5.196 -1.442,-0.729 -2.811,-0.614 -4.253,-0.377 -4.476,0.731 -8.884,-0.301 -13.322,-0.511 -1.196,-0.057 -1.943,-1.012 -2.791,-1.746 -0.731,-0.63 -1.661,-0.781 -2.312,0.003 -0.725,0.871 -0.059,1.925 0.612,2.182 2.706,1.033 2.686,3.768 3.913,5.718 1.929,3.069 3.946,6.086 8.004,6.663 2.546,0.364 2.991,1.485 1.3,3.498 -1.005,1.196 -0.637,1.795 0.553,2.327 1.052,0.469 1.985,1.116 2.558,2.109 0.725,1.255 1.802,1.706 3.168,1.905 2.325,0.338 4.428,0.975 6.002,3.079 1.125,1.506 2.916,1.865 4.912,1.178 4.2,-1.449 8.009,-3.617 11.529,-6.229 5.313,-3.946 10.852,-7.496 16.577,-10.812 3.453,-2.001 6.958,-3.925 10.285,-6.209 3.656,-2.511 6.691,-5.427 9.493,-8.793 3.09,-3.712 6.81,-6.841 10.506,-9.935 1.438,-1.206 3.533,-1.148 5.431,-1.179 3.228,-0.052 4.03,-1.274 2.524,-4.205 -0.939,-1.828 -2.207,-3.489 -3.317,-5.23 -0.968,-1.517 -0.724,-2.451 1.249,-2.477 1.203,-0.014 2.391,0.204 3.582,0.325 7.281,0.729 14.545,0.5 21.775,-0.704 1.798,-0.301 3.13,-1.246 3.635,-2.886 0.529,-1.724 -0.033,-3.149 -1.52,-4.533 -2.826,-2.633 -6.242,-4.401 -9.572,-5.917 -6.83,-3.111 -13.94,-5.665 -21.324,-7.301 -2.232,-0.493 -4.476,-0.056 -6.703,-0.259 -4.156,-0.199 -8.247,0.351 -12.326,1.038 z m -34.232,-137.604 c -1.499,-5.734 -9.723,-8.46 -14.404,-4.737 -0.325,0.256 -0.718,0.615 -0.782,0.977 -0.578,3.339 -3.099,5.732 -4.235,8.788 -1.86,5.008 -5.926,7.715 -10.488,9.683 -2.639,1.137 -5.571,1.091 -8.323,-0.009 -2.733,-1.094 -5.484,-2.084 -8.477,-1.934 -1.417,0.069 -2.272,-0.74 -3.032,-1.674 -1.152,-1.413 -2.391,-1.505 -4.115,-0.998 -3.206,0.942 -6.506,1.567 -9.779,2.265 -1.818,0.387 -2.495,1.346 -2.459,3.261 0.104,5.506 2.808,9.536 8.081,11.048 7.267,2.087 14.603,4.07 22.268,3.621 4.9,-0.287 9.942,-0.733 13.784,-4.218 2.123,-1.925 3.601,-4.492 6.003,-6.285 3.317,-2.474 13.975,-2.941 17.143,1.267 1.394,1.847 3.413,3.144 4.699,5.146 0.771,1.198 0.862,2.159 -0.042,3.272 -0.54,0.665 -1.021,1.399 -1.405,2.165 -1.081,2.152 -0.514,3.843 1.742,4.865 1.788,0.811 3.644,1.504 5.519,2.084 1.413,0.438 2.654,1.059 3.907,1.868 1.92,1.24 3.064,2.82 2.208,4.931 -0.803,1.984 -2.582,3.27 -4.893,3.192 -7.75,-0.264 -15.496,-0.663 -23.259,-0.564 -2.348,0.03 -4.617,0.491 -6.931,0.678 -2.354,0.191 -3.871,1.789 -4.725,3.554 -2.122,4.388 -3.584,9.038 -1.625,13.928 1.838,4.588 8.062,5.381 11.186,1.55 2.904,-3.563 5.263,-7.546 9.592,-9.882 4.899,-2.643 14.213,-1.206 18.025,2.244 2.106,1.907 2.114,4.459 1.479,6.955 -0.545,2.133 -1.457,4.009 -3.172,5.703 -2.106,2.078 -3.538,4.839 -5.271,7.297 -1.526,2.166 -2.997,4.372 -4.611,6.467 -2.313,2.997 -2.404,6.259 0.153,9.105 1.091,1.216 1.371,2.793 2.649,4.009 2.701,2.573 5.823,3.908 9.319,4.661 0.953,0.206 1.788,0.492 2.526,1.173 0.493,0.455 1.153,0.967 1.771,1.012 4.632,0.348 8.813,2.888 13.562,2.695 1.681,-0.067 2.925,-0.644 3.374,-2.223 0.427,-1.499 -0.238,-2.7 -1.713,-3.354 -1.569,-0.697 -1.244,-1.701 -0.657,-2.959 2.765,-5.909 7.577,-10.005 12.397,-14.079 4.984,-4.212 7.605,-9.597 8.139,-16.017 0.264,-3.164 -2.309,-4.762 -6.443,-4.232 -1.492,0.191 -3.201,1.637 -4.393,0.46 -1.351,-1.334 1.033,-2.445 1.066,-3.873 0.043,-1.791 0.383,-3.57 -1.145,-5.086 -0.895,-0.887 -1.412,-2.083 -1.508,-3.472 -0.168,-2.432 -1.878,-4.177 -3.101,-6.116 -0.415,-0.657 -0.962,-1.231 -1.073,-2.022 -1.019,-7.278 -6.354,-11.974 -10.522,-17.303 -4.125,-5.271 -8.703,-10.178 -12.559,-15.683 -2.306,-3.293 -4.76,-6.377 -5.773,-10.468 -0.567,-2.292 -3.033,-3.523 -5.19,-4.326 -2.659,-0.988 -2.649,1.642 -3.492,3.243 -0.843,-0.443 -0.855,-1.122 -0.995,-1.653 z m 163.08,113.631 c 0.676,0.813 1.271,1.631 1.402,2.709 0.344,2.796 -0.925,5.224 -4.074,4.79 -1.165,-0.161 -2.844,-0.647 -3.432,0.939 -0.592,1.599 -0.225,3.231 1,4.569 1.624,1.781 3.231,3.575 4.83,5.377 1.245,1.405 1.806,2.782 -0.188,4.068 -0.673,0.433 -1.243,1.056 -0.866,1.931 0.33,0.769 1.033,1.103 1.883,1.145 7.491,0.354 14.301,2.718 20.451,6.992 0.885,0.613 1.9,1.331 2.739,0.297 0.885,-1.095 -0.471,-1.648 -1.049,-2.252 -1.848,-1.928 -3.999,-3.471 -6.362,-4.737 -2.65,-1.416 -3.271,-3.903 -1.688,-6.454 0.449,-0.724 0.799,-1.543 1.371,-2.158 4.155,-4.478 8.352,-8.92 12.548,-13.36 0.583,-0.618 1.211,-0.539 1.795,0.067 0.615,0.639 0.915,1.455 0.206,2.05 -2.105,1.769 -3.147,4.281 -4.707,6.425 -3.676,5.049 -3.432,10.883 0.826,15.208 0.492,0.498 1.012,0.992 1.732,1.053 4.18,0.352 6.076,3.354 7.877,6.584 0.967,1.729 1.921,3.422 2.568,5.321 0.543,1.592 1.342,3.068 2.404,4.488 2.631,3.52 4.313,7.596 5.999,11.649 0.478,1.15 1.406,2.144 2.246,3.106 0.926,1.062 1.677,2.223 2.075,3.544 0.382,1.271 1.232,1.951 2.404,1.985 1.144,0.035 1.938,-0.923 2.23,-1.893 0.622,-2.06 1.193,-3.857 3.979,-2.702 0.366,0.153 1.137,-0.079 1.415,-0.395 2.015,-2.302 4.688,-3.877 6.242,-6.757 2.015,-3.732 4.279,-7.429 7.664,-10.195 0.763,-0.624 0.98,-1.25 0.642,-2.241 -0.724,-2.119 -0.786,-4.384 -1.209,-6.564 -0.484,-2.5 -1.943,-4.692 -2.941,-7.022 -2.496,-5.839 -5.67,-11.401 -9.958,-16.099 -3.201,-3.507 -6.879,-6.266 -11.681,-8.056 -4.776,-1.78 -9.45,-4.704 -12.686,-9.283 -2.557,-3.616 -5.237,-7.16 -7.877,-10.718 -3.057,-4.117 -7.158,-6.939 -12.791,-4.973 -2.094,0.732 -4.007,1.968 -5.895,3.061 -4.598,2.662 -9.135,5.506 -12.972,9.278 -0.751,0.736 -1.522,1.441 -1.241,3.326 0.854,1.559 1.489,3.972 3.089,5.897 z m -240.448,49.607 c -0.137,3.163 -1.788,4.172 -4.786,3.049 -2.916,-1.086 -5.133,-2.914 -7.22,-5.172 -3.781,-4.084 -8.813,-4.313 -13.932,-3.884 -1.249,0.104 -2.191,0.885 -3.085,1.749 -2.306,2.225 -4.828,2.476 -7.509,0.86 -5.02,-3.02 -10.659,-4.566 -16.051,-6.694 -2.035,-0.803 -4.229,-1 -6.199,-2.271 -1.792,-1.157 -4.146,-0.971 -6.312,-0.859 -0.767,0.039 -1.66,-0.069 -1.748,1.045 -0.076,0.997 0.692,1.408 1.452,1.529 2.6,0.417 4.664,1.703 6.37,3.637 0.395,0.448 0.942,0.943 1.008,1.468 0.425,3.502 2.143,3.605 5.295,2.993 3.618,-0.704 6.98,1.445 10.104,3.195 1.106,0.618 2.154,1.449 3.362,1.806 4.008,1.186 6.033,4.646 8.553,7.463 1.226,1.372 1.808,3.378 0.491,5.254 -1.429,2.04 -3.442,2.02 -5.559,1.467 -1.417,-0.369 -2.798,-0.888 -4.226,-1.184 -2.897,-0.604 -5.317,0.496 -6.808,2.965 -1.351,2.237 -0.749,5.318 1.707,6.123 4.247,1.394 7.971,4.02 12.415,4.914 2.372,0.478 4.437,0.068 6.762,-0.545 6.798,-1.798 10.017,-7.364 14.114,-12.156 2.678,-3.134 5.078,-6.883 9.883,-7.337 0.981,-0.094 1.971,-0.648 2.854,-1.166 5.904,-3.456 11.443,-7.416 16.398,-12.157 1.946,-1.864 3.64,-3.876 3.976,-6.727 0.088,-0.75 0.495,-1.525 1.238,-1.893 1.186,-0.589 1.53,-1.739 1.593,-2.794 0.129,-2.105 1.381,-3.231 2.989,-4.196 2.334,-1.402 2.41,-3.258 0.234,-5.035 -0.601,-0.489 -1.231,-0.958 -1.741,-1.531 -1.132,-1.272 -1.239,-2.268 0.563,-3.225 3.796,-2.011 4.232,-4.415 1.714,-7.711 -1.027,-1.346 -2.407,-1.816 -3.874,-1.382 -1.521,0.45 -2.667,1.525 -2.806,3.325 -0.056,0.724 0.352,1.756 -0.609,2.043 -1.152,0.342 -1.595,-0.73 -2.11,-1.511 -0.47,-0.709 -1.135,-1.361 -1.367,-2.145 -0.357,-1.194 -0.073,-2.695 -1.933,-2.859 -1.769,-0.155 -3.564,0.282 -4.262,1.842 -1.03,2.305 -2.732,3.83 -4.46,5.507 -2.861,2.771 -4.029,6.603 -5.117,10.25 -1.319,4.422 -2.025,9.042 -1.916,14.035 -0.397,2.466 0.674,5.14 0.555,7.915 z m 151.057,59.943 c -2.719,-0.456 -5.09,-1.519 -7.395,-2.878 -2.363,-1.395 -4.979,-2.262 -7.345,-3.704 -2.176,-1.327 -4.773,-0.707 -7.026,0.07 -2.711,0.938 -2.664,7.069 0.061,8.906 2.875,1.938 6.186,2.639 9.574,3.367 7.148,1.538 14.026,3.249 19.976,8.518 6.696,5.931 12.03,12.978 18.296,19.213 1.396,1.389 1.347,3.495 3.033,4.945 3.057,2.628 6.848,3.562 10.265,5.301 1.624,0.827 3.216,1.553 4.503,2.845 0.797,0.798 1.629,1.522 2.675,2.002 2.259,1.033 2.841,0.755 2.769,-1.693 -0.079,-2.626 0.354,-4.932 2.496,-6.736 1.049,-0.884 1.283,-2.223 1.15,-3.567 -0.172,-1.729 0.324,-3.043 2.055,-3.729 1.8,-0.715 1.92,-2.068 1.189,-3.596 -0.592,-1.234 -0.908,-2.748 -2.121,-3.498 -3.584,-2.219 -4.49,-5.957 -5.424,-9.573 -0.635,-2.462 -1.712,-4.463 -3.127,-6.59 -3.868,-5.816 -9.494,-7.788 -15.918,-8.66 -5.15,-0.699 -10.32,-0.475 -16.502,-0.555 -3.71,-0.262 -8.448,0.406 -13.184,-0.388 z m -112.4,-172.527 c -1.418,-0.771 -3.159,-0.998 -4.456,-0.084 -5.651,3.98 -12.351,4.943 -18.736,6.828 -5.306,1.565 -10.792,1.917 -16.238,2.532 -1.836,0.208 -3.44,1.021 -5.057,1.712 -1.531,0.652 -2.363,2.22 -1.82,3.87 0.606,1.837 2.21,0.974 3.531,0.879 12.052,-0.864 23.837,-4.467 36.077,-3.421 2.096,0.18 4.018,0.869 6.007,1.39 4.112,1.078 6.069,-0.258 6.022,-5.013 -0.723,-2.834 -1.524,-6.625 -5.33,-8.693 z m -39.735,-12.06 c 0.823,7.391 6.315,11.572 13.702,10.538 6.616,-0.928 13.068,-3.235 19.867,-2.615 4.138,0.377 8.408,0.023 12.197,2.538 1.816,1.208 3.833,0.847 5.148,-1.229 2.099,-3.311 4.845,-4.801 9.005,-4.598 3.204,0.155 6.664,0.285 9.712,-1.681 3.358,-2.168 4.784,-7.901 2.572,-11.235 -1.735,-2.617 -6.004,-3.253 -8.535,-0.429 -2.854,3.182 -6.543,3.876 -10.094,5.321 -3.025,1.23 -6.232,1.535 -9.297,1.725 -8.148,0.506 -16.36,0.602 -24.473,-0.707 -5.444,-0.879 -8.485,-4.526 -9.914,-9.613 -0.541,-1.928 -1.238,-3.751 -2.323,-5.409 -1.604,-2.445 -3.7,-3.319 -6.137,-2.609 -2.674,0.782 -2.215,3.128 -2.476,5.1 -0.058,0.424 -0.011,0.862 -0.011,1.529 0.334,4.303 0.555,8.856 1.057,13.374 z m 246.209,52.31 c 2.027,-0.759 4.094,-0.291 6.136,-0.46 0.823,-0.065 1.915,0.267 2.229,-0.793 0.295,-0.997 -0.693,-1.612 -1.354,-1.99 -2.457,-1.408 -4.791,-3.596 -7.992,-1.491 -0.882,0.581 -1.818,0.145 -2.251,-0.979 -0.966,-2.511 -3.494,-3.472 -5.288,-5.146 -1.136,-1.059 -2.906,-0.383 -3.842,0.449 -2.736,2.43 -6.139,2.99 -9.433,3.858 -2.177,0.575 -3.679,1.884 -4.649,3.767 -1.117,2.159 -0.51,3.675 1.818,4.426 2.854,0.922 5.715,1.99 7.661,1.672 6.621,-0.237 11.875,-1.404 16.965,-3.313 z m -97.803,0.336 c -0.436,-1.596 -0.897,-3.146 -2.711,-3.293 -1.688,-0.14 -2.889,1.045 -3.645,2.47 -1.208,2.276 -2.156,4.706 -2.553,7.232 -0.592,3.768 -2.59,6.666 -5.066,9.34 -1.227,1.326 -2.553,2.561 -3.824,3.845 -1.883,1.905 -2.253,4.004 -0.969,5.434 1.322,1.474 4.947,1.901 6.441,0.545 3.562,-3.235 7.068,-6.54 10.481,-9.93 1.731,-1.724 2.188,-4.031 2.128,-6.816 -0.7,-2.658 0.553,-5.753 -0.282,-8.827 z m 33.944,53.679 c -1.053,-0.638 -2.328,-1.734 -3.537,-0.641 -1.135,1.025 -0.879,2.712 -0.357,3.904 1.369,3.133 1.441,6.377 1.26,9.654 -0.263,4.773 -2.123,8.96 -5.069,12.678 -4.321,5.452 -9.142,10.461 -13.855,15.565 -0.981,1.061 -1.767,2.333 -2.487,3.598 -0.533,0.938 -1.992,1.864 -0.647,3.129 1.218,1.146 2.796,1.112 4.063,0.24 5.285,-3.632 10.471,-7.411 15.395,-11.534 1.979,-1.653 4,-3.26 5.936,-4.963 4.956,-4.353 7.316,-9.853 7.196,-14.243 -0.01,-8.649 -2.21,-13.937 -7.898,-17.387 z m -31.742,44.286 c 3.094,-2 5.93,-4.413 8.472,-7.133 0.835,-0.895 1.384,-1.838 0.935,-3.013 -0.457,-1.194 -1.596,-1.668 -2.74,-1.56 -5.188,0.49 -10.479,0.581 -15.303,2.901 -2.143,1.03 -3.785,2.746 -4.877,4.854 -1.74,3.355 1.176,6.871 6.736,6.885 1.837,-0.127 4.435,-1.418 6.777,-2.934 z m 13.258,-99.543 c -2.208,2.55 -1.455,5.106 1.718,6.183 1.697,0.576 3.35,1.089 4.748,2.413 1.721,1.633 3.744,1.402 5.42,-0.411 1.629,-1.763 2.872,-3.832 3.794,-6.033 1.859,-4.44 0.067,-7.037 -5.706,-7.029 -2.977,0.943 -7.103,1.564 -9.974,4.877 z m -123.276,25.168 c 0.356,1.982 -0.105,3.735 -1.44,5.247 -0.508,0.576 -1.233,1.053 -1.217,1.909 0.034,1.492 -0.668,3.279 0.959,4.283 1.523,0.942 3.119,0.485 4.617,-0.412 3.53,-2.115 4.926,-5.702 6.003,-9.286 0.797,-2.649 -3.496,-8.861 -6.192,-9.727 -2.257,-0.725 -3.375,0.491 -3.362,4.295 0.14,0.821 0.375,2.258 0.632,3.691 z m 121.676,3.833 c 2.001,-0.695 4.091,-1.706 5.904,-3 2.515,-1.8 2.507,-4.116 -0.012,-5.803 -0.928,-0.623 -1.939,-1.117 -2.868,-1.736 -2.047,-1.364 -4.122,-2.208 -6.454,-0.646 -2.397,1.604 -4.258,3.521 -3.91,6.657 -0.379,5.042 4.023,5.684 7.34,4.528 z m 55.722,-42.839 c -0.205,1.071 0.857,1.143 1.65,0.958 0.941,-0.221 1.686,-0.822 2.368,-1.51 1.581,-1.591 3.175,-3.169 4.794,-4.723 1.833,-1.759 1.775,-4.786 -0.307,-6.22 -1.184,-0.817 -2.063,-2.031 -3.607,-2.426 -2.795,-0.715 -4.829,0.495 -5.12,3.378 -0.13,1.282 -0.021,2.587 -0.021,4.096 -0.536,2.024 0.679,4.172 0.243,6.447 z m -190.567,117.756 c 4.154,0.756 6.918,-0.432 7.812,-3.467 0.336,-1.14 0.436,-2.353 0.621,-3.536 0.395,-2.51 -0.285,-3.718 -2.715,-3.725 -3.555,-0.012 -6.953,0.85 -9.66,3.415 -0.689,0.656 -0.656,0.692 -0.688,1.824 -0.056,2.143 2.427,5.085 4.63,5.489 z m 132.583,60.856 c 2.068,1.525 4.771,2.232 7.25,3.141 0.843,0.307 1.869,0.186 2.806,0.146 0.847,-0.038 1.444,-0.58 1.714,-1.363 0.271,-0.788 -0.34,-1.232 -0.808,-1.751 -2.287,-2.53 -4.677,-4.988 -6.769,-7.676 -1.455,-1.867 -3.269,-3.07 -5.367,-3.846 -3.036,-1.123 -4.449,0.188 -4.439,3.902 0.072,3.803 3.112,5.605 5.613,7.447 z m 66.377,-138.821 c 1.223,-1.353 2.906,-0.664 4.398,-0.807 0.66,-0.063 1.456,0.146 1.69,-0.769 0.192,-0.759 -0.192,-1.338 -0.757,-1.792 -0.331,-0.269 -0.704,-0.487 -1.067,-0.714 -2.063,-1.289 -10.347,-0.839 -12.198,0.767 -0.793,0.685 -2.097,1.313 -1.682,2.639 0.369,1.184 1.467,1.893 2.652,2.259 0.642,0.196 1.35,0.178 2.025,0.257 1.775,-0.314 3.59,-0.345 4.939,-1.84 z m 0.988,-36.024 c -0.031,-1.292 -0.196,-2.658 -1.839,-2.913 -0.798,-0.125 -4.248,3.427 -4.171,4.211 0.127,1.325 1.164,1.245 2.313,1.28 1.2,-0.717 3.766,0.292 3.697,-2.578 z"
       id="path3056" />
    <path
       style="fill:#e16aa2;fill-rule:evenodd;stroke:#000000;stroke-miterlimit:10"
       inkscape:connector-curvature="0"
       clip-rule="evenodd"
       stroke-miterlimit="10"
       d="m 70.675909,683.77838 c -2.951,3.818 -4.771,8.302 -7.313,12.327 -1.303,2.061 -2.754,4.012 -3.688,6.285 -0.328,0.797 -1.717,1.431 -0.222,2.549 1.184,0.887 2.049,2.094 3.733,0.864 1.131,-0.825 2.173,-1.521 2.54,-3.055 0.636,-2.654 2.955,-4.223 4.665,-6.066 2.263,-2.44 3.66,-5.372 5.396,-8.08 1.666,-2.597 3.659,-4.738 6.071,-6.522 2.088,-1.54 4.931,-1.083 6.242,1.305 3.07,5.601 6.988,10.627 10.796,15.679 2.163001,2.87 2.815001,6.179 4.406001,9.16 3.388,6.347 6.099,13.084 10.836,18.659 1.524,1.794 3.294,3.211 5.666,3.118 5.891,-0.228 9.845,3.567 14.233,6.501 1.603,1.072 5.136,3.629 5.257,3.847 1.095,1.95 4.495,6.78 5.053,7.41 3.172,3.598 4.673,8.061 5.483,12.544 1.178,6.504 1.516,13.148 -1.735,19.358 -0.196,0.378 -0.468,0.805 -0.447,1.196 0.231,4.622 -3.006,6.958 -6.416,8.465 -4.21,1.863 -8.364,0.598 -12.186,-1.962 -2.425,-1.624 -4.563,-3.958 -7.846,-3.914 -0.883,-0.459 -2.068,-0.311 -2.677,-1.324 -2.077,-2.365 -5.986,-2.736 -7.02,-0.667 -0.773,1.549 -0.126,5.709 1.114,7.093 0.741,0.824 1.741,1.456 1.928,2.677 -1.513,-0.293 -3.011,-0.705 -4.582,-0.566 -1.137,0.102 -1.873,0.55 -1.501,1.803 0.486,1.646 0.847,3.463 2.036,4.688 2.994,3.086 6.122,6.053 9.139,9.107 2.345,2.371 5.1,4.163 7.858,5.599 3.94,2.051 8.18,4.009 12.927,3.577 0.256,-0.025 0.535,0.002 0.768,-0.086 2.024,-0.761 4.534,-1.515 4.54,-3.95 0.006,-2.642 -2.632,-3.032 -4.742,-3.531 -1.018,-0.239 -2.327,0.398 -2.961,-0.99 1.613,-1.663 3.005,-3.207 4.289,-5.421 0.137,-0.237 4.826,-3.905 6.691,-5.803 2.648,-2.694 5.462,-3.346 9.128,-2.528 4.651,1.036 9.014,2.779 13.449,4.401 6.416,2.347 13.114,3.804 19.888,3.883 5.872,0.068 11.808,1.328 17.689,-0.34 1.499,-0.428 3.533,-1.991 4.702,10e-4 1.189,2.026 -1.184,3.069 -2.221,4.398 -3.123,3.987 -7.184,7.046 -10.68,10.663 -0.609,0.632 -7.591,7.552 -8.235,8.126 -5.227,4.642 -10.158,9.595 -15.022,14.606 -4.02,4.141 -9.157,6.277 -14.505,7.314 -5.783,1.125 -11.704,2.277 -17.674,1.825 -10.015,-0.761 -19.992,-1.569 -29.631,-4.949 -13.125,-4.601 -26.804001,-5.416 -40.594001,-4.806 -2.501,0.113 -3.611,1.487 -3.446,3.863 0.208,3.003 1.682,4.615 4.076,4.564 1.083,-0.027 2.056,-0.338 2.92,-0.923 4.343,-2.927 9.207,-1.968 14,-2.171 6.757,-0.285 12.229001,3.779 18.570001,4.779 2.257,0.356 2.825,2.846 0.83,3.987 -3.317,1.896 -6.088,4.792 -10.573,4.687 -7.771001,-0.185 -14.381001,2.891 -19.699001,8.68 -1.508,1.641 -3.066,3.275 -4.965,4.524 -0.877,0.577 -0.939,1.54 -1.076,2.512 -0.515,3.653 -2.543,4.715 -5.45,2.622 -5.773,-4.16 -11.476,-3.276 -17.243,-0.162 -2.34,1.263 -4.918,2.085 -7.008,3.807 -1.445,1.189 -3.141,0.896 -4.715,0.594 -1.378,-0.264 -2.728,-0.336 -4.106,-0.308 -0.425,-3.981 1.591,-5.927 5.432,-5.215 0.675,0.126 1.334,0.332 2.003,0.496 3.081,0.759 5.75,-0.808 5.776,-3.894 0.06,-7.274 -1.479,-11.991 -8.041,-15.071 -4.342,-2.037 -7.808,-1.635 -7.475,4.12 0.158,2.713 -1.915,4.002 -4.523,3.126 -0.978,-0.327 -1.884,-0.789 -2.969,-0.768 -1.102,0.022 -2.145,0.178 -2.599,1.283 -0.534,1.301 0.527,1.851 1.407,2.381 3.309,1.985 5.589,5.087 8.356,7.659 1.315,1.223 0.644,2.122 -0.567,2.841 -0.996,0.592 -1.993,0.356 -2.951,-0.152 -0.773,-0.924 -1.525,-1.857 -2.634,-2.443 -3.562,-1.875 -5.068,-5.545 -7.233,-8.588 -1.437,-2.018 0.871,-3.468 1.637,-5.04 1.434,-2.94 3.687,-5.029 7.23,-5.304 1.661,-0.128 2.714,-2.079 4.414,-1.924 4.556,0.412 9.282,-0.479 13.625,1.664 0.31,0.153 0.609,0.334 0.928,0.456 1.836,0.709 3.949,1.982 5.574,0.451 1.502,-1.411 0.231,-3.5 -0.491,-5.041 -1.168,-2.49 0.139,-4.212 1.428,-5.887 1.417,-1.842 1.707,-3.363 0.47,-5.566 -3.471,-6.188 -4.253,-13.056 -4.559,-20.041 -0.313,-7.196 -1.071,-14.282 -2.852,-21.381 -1.613,-6.431 -5.034,-11.721 -7.96,-17.375 -0.729,-1.411 -0.806,-2.974 -1.346,-4.413 -1.54,-4.087 -3.131,-8.139 -4.453,-12.319 -0.925,-2.933 -2.347,-5.611 -2.012,-8.828 0.155,-1.477 0.37,-2.86 1.079,-4.198 0.803,-1.511 1.656,-3.084 1.504,-4.869 -0.195,-2.264 4.821,-6.756 5.288,-7.874 0.667,-0.355 1.333,-0.343 2.003,10e-4 4.807,4.657 10.101,8.384 17.013,9.168 3.893,0.442 7.009,2.626 9.943,4.981 1.131,0.906 2.378,1.387 3.637,1.874 1.285,0.495 2.907,0.881 3.822,-0.396 0.868,-1.21 0.749,-2.88 -0.068,-4.177 -2.515,-3.989 -5.952,-7.052 -9.868,-9.654 -3.662,-2.433 -7.952,-2.994 -11.927,-4.451 -6.536,-2.397 -13.133,-5.357 -16.127,-12.566 -1.14,-2.741 -0.989,-5.707 -0.37,-8.402 0.736,-3.198 1.389,-6.457 3.389,-9.386 1.436,-2.104 2.048,-4.827 3.325,-7.191 3.746,-6.938 9.575,-11.961 15.183,-17.205 1.553,-1.453 2.472,-3.062 2.282,-5.22 0.678,-0.968 1.687,-1.891 2.724,-1.165 1.018,0.712 0,1.849 -0.29,2.789 -0.451,1.467 -0.925,2.933 -1.253,4.43 -0.247,1.141 0,2.358 1.021,2.979 1.139,0.689 2.455,0.623 3.628,-0.151 0.635,-0.419 1.25,-0.874 1.873,-1.311 -0.045,0.423 0.056,0.958 -0.166,1.244 z m 1.769,96.163 c 2.782,3.622 5.114,7.408 7.082,11.563 1.764,3.732 2.831,7.683 4.496,11.364 1.154,2.553 2.856,5.01 4.311,7.513 0.694,1.192 1.899,2.002 3.132,2.642 1.313,0.682 2.708,0.817 3.785,-0.388 1.099,-1.232 0.31,-2.387 -0.399,-3.51 -2.771,-4.397 -5.539,-8.788 -6.623,-13.992 -0.485,-2.315 -1.109,-4.602 -2.461,-6.604 -0.313,-1.938 -0.141,-3.872 0.042,-5.808 1.266,-2.325 2.546,-4.643 2.756,-7.362 0.513,-2.232 6.276,-3.671 7.199,-4.012 3.021,-1.121 5.950001,-2.482 8.898001,-3.786 0.672,-0.298 12.952,-4.609 17.812,-6.68 0.123,-0.052 1.408,-0.792 2.009,-0.819 2.708,-0.122 2.918,-1.536 3.033,-3.404 0.177,-2.849 -1.135,-4.758 -3.666,-4.931 -1.749,-0.12 -3.537,-0.172 -4.998,-1.045 -1.468,-0.877 -0.901,-2.82 -0.559,-4.191 0.391,-1.559 0.428,-2.607 -0.831,-3.283 -1.421,-0.764 -3.008,-0.793 -4.259,0.527 -2.156,2.273 -2.611,5.246 -3.25,8.135 -1.515,3.12 -4.039,5.218 -7.064,6.695 -4.850001,2.369 -9.731001,4.619 -14.128001,7.841 -3.047,2.234 -6.606,2.528 -10.339,1.858 -5.497,-0.985 -10.405,-3.379 -15.284,-5.904 -1.462,-2.121 -3.821,-3.037 -5.899,-4.31 -0.836,-0.511 -1.67,-0.878 -1.892,-1.928 4.082,1.079 7.395,3.897 11.483,5.012 1.82,0.495 3.575,1.296 5.473,1.408 2.395,0.142 3.219,-1.208 2.064,-3.242 -0.828,-1.459 -1.859,-2.625 -3.657,-2.995 -2.402,-0.496 -4.151,-2.26 -6.215,-3.396 -4.045,-2.229 -8.192,-4.332 -12.669,-5.687 -2.593,-0.784 -4.739,-2.733 -7.704,-2.657 -4.021,0.104 -7.253,4.124 -6.182,7.948 0.449,1.599 1.627,1.911 3.044,1.531 1.91,-0.512 3.765,-1.29 5.701,-1.637 2.486,-0.444 4.771,0.103 6.319,2.377 -0.515,0.017 -1.029,0.043 -1.543,0.048 -1.259,0.012 -2.823,-0.489 -3.496,0.931 -0.714,1.514 0.092,3.029 0.982,4.277 1.207,1.688 2.86,2.97 4.559,4.127 3.812,2.6 7.952,4.729 11.274,8.024 0.185,0.182 5.625,5.093 7.664,7.75 z m 94.029001,29.427 c 0.941,-1.594 -0.291,-2.636 -1.969,-2.643 -2.502,-0.01 -4.968,-0.328 -7.451,-0.511 -3.769,-0.278 -6.953,1.944 -8.192,5.981 -0.952,3.1 -2.687,5.761 -4.031,8.634 -1.195,2.552 -5.348,3.363 -7.631,1.637 -3.827,-2.896 -7.379,-6.255 -11.3,-8.891 -5.242,-3.523 -9.613,-7.985 -14.574,-11.776 -3.144,-2.398 -5.472,-5.695 -7.813,-8.882 -1.346,-1.833 -0.834,-3.935 -0.431,-5.962 0.905,-4.521 -2.965,-8.728 -7.569001,-8.22 -2.155,0.237 -4.22,2.836 -4.373,5.369 -0.254,4.272 1.479,8.046 2.939,11.877 1.772,4.64 3.365,9.375 5.557,13.813 1.261001,2.553 3.545001,4.604 5.377001,6.876 0.539,0.665 1.198,1.253 1.642,1.975 0.611,0.997 0.817,2.097 0.067,3.158 -0.706,0.998 -1.821,1.181 -2.793,0.854 -3.556,-1.198 -7.280001,-1.153 -10.907001,-1.746 -4.384,-0.716 -7.796,0.889 -10.904,3.42 -2.423,1.976 -0.73,5.72 2.911,6.695 5.053,1.354 10.117,2.567 15.356001,3.135 4.938,0.54 10.07,0.944 14.608,2.916 9.343,4.052 19.098,3.919 28.864,3.612 2.476,-0.079 4.96,-1.722 7.314,-2.905 1.016,-0.512 1.155,-1.882 1.03,-3.036 -0.201,-1.837 0.664,-2.927 2.28,-3.601 2.119,-0.88 3.756,-2.079 3.483,-4.778 -0.107,-1.053 0.672,-1.734 1.65,-2.065 1.583,-0.536 1.68,-1.517 0.922,-2.815 -1.133,-1.947 -1.273,-4.268 -2.392,-6.247 -0.614,-1.089 -0.124,-2.432 0.872,-2.966 1.548,-0.834 3.382,-0.911 4.883,0.17 1.147,0.823 2.182,1.201 3.943,0.478 -1.458,-1.08 -2.424,-1.777 -1.368,-3.556 z m -98.077001,-82.56 c -0.155,1.606 0.144,3.223 -0.955,4.705 -0.908,1.226 0.496,2.242 1.099,2.77 4.246,3.734 8.078,7.949 12.819,11.119 1.38,0.924 2.55,0.786 3.265,-0.589 1.864,-3.578 4.931,-6.051 8.09,-8.185 2.464,-1.661 3.912,-3.401 3.883,-6.339 -0.019,-2.209 1.17,-2.879 3.275,-2.949 6.492001,-0.214 7.859001,-2.747 4.426001,-8.274 -1.454,-2.336 -2.729,-4.979 -6.405001,-4.706 -2.042,0.153 -1.739,-1.761 -1.447,-3.098 0.197,-0.902 0.866,-1.696 1.095,-2.597 0.518,-2.015 -0.928,-3.535 -2.948,-3.224 -3.848,0.596 -4.089,0.4 -5.994,-3.113 -0.855,-1.577 -1.929,-3.068 -3.093,-4.437 -1.242,-1.466 -4.479,-1.435 -6.493,-0.024 -6.126,4.281 -10.101,9.873 -10.739,17.547 -0.143,1.697 -0.7,3.357 -1.009,4.776 0.17,2.434 1.347,4.394 1.131,6.618 z m 71.537001,55.198 c 1.46,-0.47 2.419,-1.189 2.444,-2.873 0.028,-1.912 0.304,-3.893 -1.877,-4.915 -0.691,-0.326 -1.474,-0.459 -2.206,-0.702 -0.925,-0.308 -2.325,-0.102 -2.487,-1.364 -0.142,-1.11 1.052,-1.7 1.81,-2.357 0.574,-0.498 1.324,-0.794 1.999,-1.174 1.562,-0.875 2.402,-2.107 2.259,-3.995 -0.111,-1.457 -0.197,-2.957 0.019,-4.389 0.736,-4.878 -1.851,-8.161 -5.082,-11.201 -0.837,-0.787 -1.682,-1.225 -2.749,-0.501 -0.938,0.636 -0.939,1.449 -0.634,2.494 1.214,4.165 1.318,8.39 -1.911,11.623 -2.258,2.261 -5.275,3.752 -7.891,5.675 -2.7,1.99 -5.938,1.971 -9.008,2.596 -3.013,0.613 -3.259,1.654 -1.553,4.123 2.136,3.094 5.221,4.652 8.443,6.081 3.115,1.379 7.097,-0.701 7.915,-4.023 0.021,-0.083 0.006,-0.173 0.025,-0.257 0.361,-1.713 0.766,-3.878 2.869,-3.655 2.31,0.245 0.72,2.596 1.264,3.542 -0.027,5.21 1.924,6.697 6.351,5.272 z m -61.304001,23.488 c -0.056,-4.091 -1.691,-7.679 -3.45,-11.19 -1.441,-2.869 -2.021,-6.117 -4.189,-8.694 -1.125,-1.335 -2.232,-2.355 -3.929,-2.617 -2.031,-0.313 -3.089,0.755 -3.381,2.795 -0.644,4.492 1.029,8.326 3.425,11.831 1.47,2.151 1.683,4.646 2.595,6.927 0.559,1.389 -0.609,2.792 -2.253,3.196 -1.09,0.268 -2.116,0.64 -2.02,1.903 0.097,1.217 1.26,1.469 2.255,1.806 1.604,0.545 3.249,0.169 4.638,0.31 6.446,0.02 6.393,0.021 6.309,-6.267 z m -20.534,-71.944 c 6.597,-0.5 6.868,-0.933 5.269,-7.243 -0.558,-2.189 -0.568,-4.367 0.722,-6.472 1.251,-2.043 0.165,-5.25 -1.968,-6.523 -1.743,-1.041 -4.279,-0.392 -5.439,1.927 -1.604,3.198 -4.004,4.723 -7.466,4.948 -1.784,0.115 -2.957,1.655 -1.489,2.619 3.266,2.147 3.447,5.932 5.534,8.631 1.072,1.389 2.135,2.504 3.769,2.116 0.552,0 0.81,0.017 1.068,-0.003 z m -11.666,-23.487 c 1.744,0.271 3.82,0.415 4.674,-1.672 1.46,-3.56 2.643,-7.302 5.233,-10.199 1.549,-1.736 2.431,-3.718 3.344,-5.732 0.32,-0.702 1.028,-1.591 0.253,-2.382 -0.754,-0.772 -1.723,-0.868 -2.854,-0.745 -2.674,0.29 -4.4,1.742 -5.558,4.017 -2.086,4.101 -5.427,7.537 -6.472,12.192 -0.131,0.583 -0.325,1.156 -0.469,1.657 0.078,1.392 0.548,2.662 1.849,2.864 z m 37.454,136.56 c -2.498,0.997 -3.445,2.651 -2.991,5.263 0.101,0.589 0.284,1.17 0.337,1.762 0.298,3.423 1.877,4.298 4.756,2.281 3.166,-2.217 6.431,-3.44 10.323,-2.675 1.145,0.226 2.337,-0.011 2.835,-1.241 0.564,-1.392 -0.622,-2.078 -1.51,-2.634 -2.891,-1.807 -5.674,-4.016 -9.118,-3.353 -1.807,-0.105 -3.247,0.044 -4.632,0.597 z m -27.303,-72.894 c -0.542,-0.205 -1.182,-0.188 -1.779,-0.205 -2.565,-0.075 -4.477,-0.886 -4.637,-3.867 -0.066,-1.25 -0.702,-2.1 -2.016,-2.295 -1.306,-0.192 -2.251,0.516 -2.732,1.541 -0.665,1.415 -0.047,2.913 1.093,3.637 2.369,1.503 3.317,3.634 4.122,6.194 0.646,2.067 2.39,3.64 4.891,3.464 1.522,-0.106 3.889,-3.27 3.944,-4.988 0.026,-1.972 -1.282,-2.883 -2.886,-3.481 z m 2.484,73.692 c -0.08,2.396 1.54,4.202 3.791,4.223 3.183,0.028 5.401,-1.81 5.436,-4.512 0.036,-2.596 -1.788,-4.087 -5.049,-4.13 -2.572,-0.033 -4.085,1.566 -4.178,4.419 z m 13.196,-20.133 c 1.637,-0.514 3.089,-1.531 3.877,-3.159 0.699,-1.441 0.982,-3.151 0.022,-4.4 -0.99,-1.286 -2.746,-0.849 -4.075,-0.368 -2.11,0.767 -4.667,1.309 -4.305,4.291 0.012,3.259 1.591,4.547 4.481,3.636 z"
       id="path3058" />
    <path
       style="fill:#e16aa2;fill-opacity:1;stroke:#000000;stroke-width:1px;stroke-linecap:butt;stroke-linejoin:miter;stroke-opacity:1"
       d="m 540.85681,1150.4659 c 0,0 0,-115 0,-184.99998 -12.5,15 -41.25,20 -65,30 -23.75,9.99998 -29.5862,29.99998 -60,29.99998 -30,0 -104.6176,-68.61896 -135,-69.99998 -110,-5 -145,-35 -240.000001,-60 0,70 0.048,255.72048 0.048,255.72048 z"
       id="path4587-8-6"
       inkscape:connector-curvature="0"
       sodipodi:nodetypes="ccsssccc" />
    <g
       transform="translate(326.95077,1507.4732)"
       style="font-size:40px;font-style:normal;font-weight:normal;line-height:125%;letter-spacing:0px;word-spacing:0px;fill:#ffffff;fill-opacity:1;stroke:none;font-family:Sans"
       id="flowRoot4388-7-4-8-7">
      <path
         d="m -168.57422,-419.32706 0,-28.63281 12.69531,0 c 2.55207,3e-5 4.49217,0.25719 5.82032,0.77148 1.3281,0.51435 2.3893,1.42255 3.18359,2.72461 0.79425,1.30211 1.19138,2.74091 1.19141,4.31641 -3e-5,2.03127 -0.65758,3.7435 -1.97266,5.13672 -1.31513,1.39324 -3.34637,2.27865 -6.09375,2.65625 1.00259,0.48178 1.7643,0.95704 2.28516,1.42578 1.10675,1.01563 2.15492,2.28516 3.14453,3.80859 l 4.98047,7.79297 -4.76563,0 -3.78906,-5.95703 c -1.10679,-1.71874 -2.01825,-3.03385 -2.73438,-3.94531 -0.71616,-0.91145 -1.35743,-1.54947 -1.92382,-1.91407 -0.56643,-0.36457 -1.1426,-0.61847 -1.72852,-0.76172 -0.4297,-0.0911 -1.13282,-0.1367 -2.10937,-0.13671 l -4.39454,0 0,12.71484 z m 3.78906,-15.99609 8.14454,0 c 1.73175,10e-6 3.08591,-0.17902 4.0625,-0.53711 0.97654,-0.35806 1.71872,-0.93098 2.22656,-1.71875 0.50779,-0.78775 0.76169,-1.64386 0.76172,-2.56836 -3e-5,-1.35415 -0.49156,-2.46743 -1.47461,-3.33985 -0.9831,-0.87237 -2.53583,-1.30857 -4.65821,-1.30859 l -9.0625,0 z"
         style=""
         id="path2990" />
      <path
         d="m -140.15625,-443.9169 0,-4.04297 3.51563,0 0,4.04297 z m 0,24.58984 0,-20.74219 3.51563,0 0,20.74219 z"
         style=""
         id="path2992" />
      <path
         d="m -131.91406,-417.60831 3.41797,0.50781 c 0.14322,1.05469 0.54035,1.82291 1.1914,2.30469 0.87239,0.65104 2.0638,0.97656 3.57422,0.97656 1.62759,0 2.8841,-0.32552 3.76953,-0.97656 0.8854,-0.65105 1.48436,-1.5625 1.79688,-2.73438 0.18227,-0.71614 0.26691,-2.22005 0.2539,-4.51171 -1.53647,1.80989 -3.45053,2.71484 -5.74218,2.71484 -2.85157,0 -5.0586,-1.02865 -6.6211,-3.08594 -1.5625,-2.05728 -2.34375,-4.52473 -2.34375,-7.40234 0,-1.97916 0.35807,-3.80533 1.07422,-5.47852 0.71614,-1.67316 1.75455,-2.96547 3.11524,-3.87695 1.36067,-0.91144 2.95897,-1.36717 4.79492,-1.36719 2.4479,2e-5 4.46613,0.98961 6.05468,2.96875 l 0,-2.5 3.24219,0 0,17.92969 c -2e-5,3.22917 -0.32879,5.51757 -0.98633,6.86523 -0.65757,1.34765 -1.69923,2.41211 -3.125,3.19336 -1.42579,0.78124 -3.18035,1.17187 -5.26367,1.17188 -2.47396,-1e-5 -4.47266,-0.55665 -5.99609,-1.66992 -1.52344,-1.11329 -2.25912,-2.78972 -2.20703,-5.0293 z m 2.91015,-12.46094 c 0,2.72136 0.54036,4.70704 1.6211,5.95703 1.08072,1.25001 2.43488,1.87501 4.0625,1.875 1.61457,10e-6 2.96873,-0.62174 4.0625,-1.86523 1.09373,-1.24349 1.64061,-3.19335 1.64062,-5.84961 -1e-5,-2.53905 -0.56316,-4.45311 -1.68945,-5.74219 -1.12632,-1.28904 -2.48374,-1.93357 -4.07227,-1.93359 -1.56251,2e-5 -2.89063,0.63478 -3.98437,1.90429 -1.09376,1.26955 -1.64063,3.15431 -1.64063,5.6543 z"
         style=""
         id="path2994" />
      <path
         d="m -109.00391,-419.32706 0,-28.63281 3.51563,0 0,10.27343 c 1.64062,-1.90102 3.71093,-2.85154 6.210936,-2.85156 1.536445,2e-5 2.871079,0.30276 4.003907,0.9082 1.132795,0.60549 1.943341,1.44208 2.43164,2.50977 0.488262,1.06773 0.732402,2.6172 0.732422,4.64844 l 0,13.14453 -3.515625,0 0,-13.14453 c -1.6e-5,-1.7578 -0.380875,-3.0371 -1.142578,-3.83789 -0.761733,-0.80077 -1.839206,-1.20116 -3.232422,-1.20117 -1.04168,10e-6 -2.02149,0.2702 -2.93945,0.81054 -0.91798,0.54038 -1.57228,1.2728 -1.96289,2.19727 -0.39064,0.92449 -0.58595,2.20053 -0.58594,3.82812 l 0,11.34766 z"
         style=""
         id="path2996" />
      <path
         d="m -79.0625,-422.47159 0.507813,3.10547 c -0.989594,0.20833 -1.875009,0.3125 -2.65625,0.3125 -1.276049,0 -2.265631,-0.20183 -2.96875,-0.60547 -0.70313,-0.40365 -1.197921,-0.93425 -1.484375,-1.5918 -0.286462,-0.65755 -0.429691,-2.04101 -0.429688,-4.15039 l 0,-11.93359 -2.578125,0 0,-2.73438 2.578125,0 0,-5.13672 3.496094,-2.10937 0,7.24609 3.535156,0 0,2.73438 -3.535156,0 0,12.1289 c -7e-6,1.00261 0.06184,1.64714 0.185547,1.9336 0.12369,0.28646 0.325513,0.51432 0.605468,0.68359 0.27994,0.16927 0.680331,0.25391 1.201172,0.25391 0.390616,0 0.904938,-0.0456 1.542969,-0.13672 z"
         style=""
         id="path2998" />
      <path
         d="m -56.816406,-419.32706 0,-25.25391 -9.433594,0 0,-3.3789 22.695313,0 0,3.3789 -9.472657,0 0,25.25391 z"
         style=""
         id="path3000" />
      <path
         d="m -25.898437,-426.00675 3.632812,0.44922 c -0.572937,2.1224 -1.634133,3.76953 -3.183594,4.94141 -1.549495,1.17187 -3.528659,1.75781 -5.9375,1.75781 -3.033862,0 -5.439459,-0.93425 -7.216797,-2.80274 -1.777346,-1.86848 -2.666017,-4.48892 -2.666015,-7.86132 -2e-6,-3.48957 0.898435,-6.1979 2.695312,-8.125 1.796869,-1.92707 4.127596,-2.89061 6.992188,-2.89063 2.773423,2e-5 5.039046,0.94403 6.796875,2.83203 1.757793,1.88804 2.636698,4.54429 2.636719,7.96875 -2.1e-5,0.20835 -0.0065,0.52085 -0.01953,0.9375 l -15.46875,0 c 0.130203,2.27866 0.774734,4.02345 1.933594,5.23438 1.158846,1.21094 2.604157,1.81641 4.335938,1.8164 1.289049,1e-5 2.389309,-0.33853 3.300781,-1.01562 0.911443,-0.67708 1.634098,-1.75781 2.167969,-3.24219 z m -11.542969,-5.68359 11.582031,0 c -0.156267,-1.74478 -0.598975,-3.05337 -1.328125,-3.92578 -1.119806,-1.35415 -2.571628,-2.03124 -4.355469,-2.03125 -1.614593,1e-5 -2.972013,0.54038 -4.072265,1.62109 -1.100267,1.08075 -1.70899,2.52606 -1.826172,4.33594 z"
         style=""
         id="path3002" />
      <path
         d="m -17.832031,-419.32706 0,-20.74219 3.144531,0 0,2.91016 c 0.651035,-1.01561 1.51692,-1.83266 2.597656,-2.45117 1.08072,-0.61847 2.3111875,-0.92772 3.6914065,-0.92774 1.5364447,2e-5 2.7962091,0.31903 3.7792969,0.95703 0.9830561,0.63804 1.6764147,1.52997 2.0800781,2.67578 1.64060543,-2.42185 3.77602,-3.63279 6.40625,-3.63281 2.0572653,2e-5 3.6392949,0.56968 4.7460938,1.70899 1.1067406,1.13934 1.6601257,2.89389 1.6601567,5.26367 l 0,14.23828 -3.4960943,0 0,-13.06641 c -2.72e-5,-1.40623 -0.1139594,-2.4186 -0.3417968,-3.03711 -0.2278913,-0.61847 -0.6413023,-1.11652 -1.2402344,-1.49414 -0.5989834,-0.37758 -1.3021077,-0.56639 -2.109375,-0.5664 -1.4583554,1e-5 -2.66929172,0.48504 -3.6328125,1.45507 -0.9635606,0.97007 -1.445331,2.52281 -1.4453125,4.65821 l 0,12.05078 -3.515625,0 0,-13.47656 c -1.5e-5,-1.56249 -0.286473,-2.73436 -0.859375,-3.51563 -0.5729302,-0.78123 -1.5104293,-1.17186 -2.8125,-1.17187 -0.9895935,1e-5 -1.9043065,0.26043 -2.7441405,0.78125 -0.839852,0.52085 -1.448575,1.28256 -1.826172,2.28515 -0.377611,1.00262 -0.566412,2.44793 -0.566406,4.33594 l 0,10.76172 z"
         style=""
         id="path3004" />
      <path
         d="m 15.527344,-411.37784 0,-28.69141 3.203125,0 0,2.69531 c 0.755201,-1.05466 1.608065,-1.84568 2.558593,-2.37304 0.950512,-0.52733 2.102855,-0.791 3.457032,-0.79102 1.770819,2e-5 3.333318,0.45575 4.6875,1.36719 1.354149,0.91148 2.376283,2.19728 3.066406,3.85742 0.690084,1.66017 1.035136,3.47983 1.035156,5.45899 -2e-5,2.1224 -0.380879,4.0332 -1.142578,5.73242 -0.761737,1.69922 -1.868507,3.0013 -3.320312,3.90625 -1.451838,0.90495 -2.978529,1.35742 -4.580079,1.35742 -1.171885,0 -2.223316,-0.2474 -3.154296,-0.74219 -0.930997,-0.49479 -1.695971,-1.11979 -2.294922,-1.875 l 0,10.09766 z m 3.183593,-18.20313 c -5e-6,2.66928 0.540359,4.64194 1.621094,5.91797 1.080721,1.27605 2.389313,1.91407 3.925781,1.91406 1.562488,1e-5 2.900377,-0.6608 4.013672,-1.98242 1.113265,-1.32161 1.669905,-3.36913 1.669922,-6.14258 -1.7e-5,-2.64321 -0.543636,-4.62238 -1.630859,-5.9375 -1.087254,-1.31508 -2.386081,-1.97263 -3.896485,-1.97265 -1.497405,2e-5 -2.822274,0.69989 -3.974609,2.09961 -1.15235,1.39975 -1.728521,3.43425 -1.728516,6.10351 z"
         style=""
         id="path3006" />
      <path
         d="m 36.484375,-429.69815 c -10e-7,-3.84114 1.067706,-6.68619 3.203125,-8.53516 1.783848,-1.53644 3.958325,-2.30467 6.523437,-2.30469 2.851549,2e-5 5.182276,0.93427 6.992188,2.80274 1.809876,1.8685 2.714823,4.44988 2.714844,7.74414 -2.1e-5,2.66928 -0.400411,4.76888 -1.201172,6.29882 -0.8008,1.52996 -1.966164,2.71811 -3.496094,3.56446 -1.529962,0.84635 -3.199883,1.26953 -5.009766,1.26953 -2.903653,0 -5.250656,-0.93099 -7.041015,-2.79297 -1.790367,-1.86197 -2.685548,-4.54426 -2.685547,-8.04687 z m 3.613281,0 c -5e-6,2.65625 0.579422,4.64518 1.738281,5.96679 1.158847,1.32162 2.617179,1.98243 4.375,1.98242 1.744779,1e-5 3.196601,-0.66406 4.355469,-1.99218 1.158838,-1.32812 1.738264,-3.35286 1.738281,-6.07422 -1.7e-5,-2.56509 -0.582698,-4.50845 -1.748046,-5.83008 -1.165379,-1.3216 -2.613945,-1.9824 -4.345704,-1.98242 -1.757821,2e-5 -3.216153,0.65757 -4.375,1.97265 -1.158859,1.31512 -1.738286,3.3008 -1.738281,5.95704 z"
         style=""
         id="path3008" />
      <path
         d="m 60.019531,-419.32706 0,-20.74219 3.164063,0 0,3.14453 c 0.807285,-1.47133 1.552727,-2.44138 2.236328,-2.91015 0.683585,-0.46873 1.435537,-0.70311 2.255859,-0.70313 1.184885,2e-5 2.389311,0.37763 3.613281,1.13281 l -1.210937,3.26172 c -0.859387,-0.50779 -1.718761,-0.7617 -2.578125,-0.76172 -0.768238,2e-5 -1.458342,0.23114 -2.070313,0.69336 -0.611986,0.46226 -1.048184,1.10353 -1.308593,1.92383 -0.390632,1.25002 -0.585944,2.6172 -0.585938,4.10156 l 0,10.85938 z"
         style=""
         id="path3010" />
      <path
         d="m 86.953125,-421.88565 c -1.302098,1.10677 -2.555352,1.88802 -3.759766,2.34375 -1.204438,0.45572 -2.496754,0.68359 -3.876953,0.68359 -2.278652,0 -4.029952,-0.55664 -5.253906,-1.66992 -1.22396,-1.11328 -1.835939,-2.53581 -1.835938,-4.26758 -10e-7,-1.01562 0.231119,-1.94335 0.69336,-2.7832 0.462237,-0.83984 1.067705,-1.51367 1.816406,-2.02149 0.748693,-0.5078 1.591791,-0.89191 2.529297,-1.15234 0.690097,-0.18228 1.731763,-0.35806 3.125,-0.52735 2.838529,-0.33853 4.928371,-0.74217 6.269531,-1.21093 0.013,-0.48176 0.01952,-0.78775 0.01953,-0.91797 -1.5e-5,-1.43228 -0.332046,-2.44139 -0.996093,-3.02735 -0.898452,-0.79425 -2.233086,-1.19138 -4.003907,-1.1914 -1.653655,2e-5 -2.874356,0.28973 -3.662109,0.86914 -0.787767,0.57944 -1.370448,1.60483 -1.748047,3.07617 l -3.4375,-0.46875 c 0.312498,-1.47134 0.82682,-2.65949 1.542969,-3.56445 0.716142,-0.90493 1.751297,-1.60155 3.105469,-2.08985 1.354158,-0.48826 2.923167,-0.7324 4.707031,-0.73242 1.77082,2e-5 3.209621,0.20836 4.316406,0.625 1.106754,0.41669 1.920556,0.94078 2.441406,1.57227 0.520815,0.63153 0.885398,1.42905 1.09375,2.39258 0.117169,0.59897 0.175762,1.6797 0.175782,3.24218 l 0,4.6875 c -2e-5,3.26824 0.07485,5.33529 0.224609,6.20117 0.14972,0.86589 0.445944,1.69597 0.888672,2.49024 l -3.671875,0 c -0.3646,-0.72917 -0.598975,-1.58203 -0.703125,-2.55859 z m -0.292969,-7.85157 c -1.276056,0.52085 -3.190117,0.96355 -5.742187,1.32813 -1.445321,0.20834 -2.467456,0.44271 -3.066407,0.70312 -0.598964,0.26043 -1.061203,0.64129 -1.386718,1.14258 -0.325526,0.50131 -0.488287,1.05795 -0.488282,1.66992 -5e-6,0.93751 0.354813,1.71876 1.064454,2.34375 0.709628,0.62501 1.748038,0.93751 3.115234,0.9375 1.354156,10e-6 2.558582,-0.29622 3.613281,-0.88867 1.054674,-0.59244 1.829413,-1.40299 2.324219,-2.43164 0.377588,-0.79426 0.56639,-1.96614 0.566406,-3.51562 z"
         style=""
         id="path3012" />
      <path
         d="m 95.605469,-419.32706 0,-28.63281 3.515625,0 0,28.63281 z"
         style=""
         id="path3014" />
    </g>
  </g>
</svg>
