<?xml version="1.0" encoding="UTF-8" standalone="no"?>
<!-- Created with Inkscape (http://www.inkscape.org/) -->

<svg
   xmlns:dc="http://purl.org/dc/elements/1.1/"
   xmlns:cc="http://creativecommons.org/ns#"
   xmlns:rdf="http://www.w3.org/1999/02/22-rdf-syntax-ns#"
   xmlns:svg="http://www.w3.org/2000/svg"
   xmlns="http://www.w3.org/2000/svg"
   xmlns:sodipodi="http://sodipodi.sourceforge.net/DTD/sodipodi-0.dtd"
   xmlns:inkscape="http://www.inkscape.org/namespaces/inkscape"
   id="svg3333"
   version="1.1"
   inkscape:version="0.48.4 r9939"
   sodipodi:docname="temporal_left_active.svg">
  <defs
     id="defs3335" />
  <sodipodi:namedview
     id="base"
     pagecolor="#ffffff"
     bordercolor="#ffffff"
     borderopacity="0.0"
     inkscape:pageopacity="0.0"
     inkscape:pageshadow="0"
     inkscape:zoom="0.35"
     inkscape:cx="-120.40586"
     inkscape:cy="520"
     inkscape:document-units="px"
     inkscape:current-layer="flowRoot4388-7-4-8"
     showgrid="false"
     inkscape:window-width="1400"
     inkscape:window-height="1028"
     inkscape:window-x="-8"
     inkscape:window-y="22"
     inkscape:window-maximized="1" />
  <metadata
     id="metadata3338">
    <rdf:RDF>
      <cc:Work
         rdf:about="">
        <dc:format>image/svg+xml</dc:format>
        <dc:type
           rdf:resource="http://purl.org/dc/dcmitype/StillImage" />
        <dc:title />
      </cc:Work>
    </rdf:RDF>
  </metadata>
  <g
     inkscape:label="Layer 1"
     inkscape:groupmode="layer"
     id="layer1">
    <path
       style="fill:#f3c4da;fill-rule:evenodd;stroke:#000000;stroke-miterlimit:10;fill-opacity:1"
       inkscape:connector-curvature="0"
       clip-rule="evenodd"
       stroke-miterlimit="10"
       d="m -256.54882,957.07546 c 0.7,-3.725 0.269,-7.654 2.876,-11.013 1.125,-1.45 3.74,-8.412 4.343,-9.316 1.372,-2.055 2.946,-4.051 3.894,-6.3 1.934,-4.595 3.784,-9.152 7.304,-12.867 6.266,-6.612 12.743,-12.968 20.027,-18.479 1.924,-1.455 13.866,-10.368 16.326,-11.929 4.584,-2.908 8.131,-7.078 12.137,-10.678 1.983,-1.782 10.223,-8.176 12.431,-9.475 5.109,-3.012 9.79,-7.151 15.507,-8.73 3.486,-0.962 5.863,-2.85 8.388,-4.75 2.792,-2.102 5.465,-4.36 8.368,-6.349 2.42,-1.656 4.587,-3.683 6.867,-5.545 4.209,-3.176 9.086,-3.438 14.074,-3.216 4.474,-0.181 8.737,-1.596 13.131,-2.267 4.039,-0.616 8.025,-1.303 11.806,-3.238 3.33,-1.703 7.085,-2.872 10.964,-1.994 2.106,0.477 4.069,0.426 6.061,-0.276 2.074,0.182 7.372,1.694 8.101,2.151 3.807,2.388 8.076,4.208 10.553,8.295 1.466,2.422 3.074,4.733 1.524,7.843 -0.516,1.038 -1.145,2.362 -0.476,3.694 -0.126,0.467 -0.253,0.933 -0.38,1.4 -1.841,1.349 -2.404,3.196 -2.107,5.38 -0.189,0.797 -3.6,6.376 -3.929,6.962 -0.841,1.492 -1.319,3.272 -2.42,4.514 -1.594,1.796 -1.944,3.778 -1.841,5.968 0.11,2.386 2.067,3.679 4.336,2.901 1.182,-0.403 1.998,-1.271 2.757,-2.247 1.626,-2.092 2.696,-4.552 4.235,-6.646 3.628,-4.939 6.352,-10.432 9.004,-15.827 3.624,-7.371 7.143,-14.731 11.68,-21.607 1.253,-1.9 2.836,-3.731 3.56,-5.891 1.295,-3.866 4.264,-6.852 5.376,-10.787 0.235,-0.83 10.113,-16.321 11.38,-17.29 1.896,-1.449 4.179,-2.391 5.719,-4.309 1.98,-2.462 3.647,-5.335 6.0680003,-7.245 4.256,-3.362 7.96100002,-7.62 13.476,-9.231 1.307,-0.382 2.339,-1.428 2.633,-2.929 3.6088997,-1.637 7.9378997,-6.018 11.2498997,-3.612 1.013,0.737 1.257,1.813 2.376,2.097 2.549,0.645 5.314,-0.008 7.782,0.953 1.786,0.697 3.175,2.397 3.197,4.667 0.106,1.588 0.229,3.17 1.666,4.236 0.13,0.453 0.213,2.438 0.951,2.604 2.061,2.312 4.463,3.71 7.041,5.906 1.269,1.081 1.817,0.871 2.772,0.487 0.657,-0.262 1.826,-0.474 1.013,-1.712 0.399,-4.899 2.218,-9.131 5.852,-12.516 7.732,0.609 15.396,0.94 23.088,2.851 5.518,1.371 10.017,4.161 14.875,6.47 4.613,2.195 8.776,5.371 13.431,7.459 4.079,1.83 16.407,-0.989 16.712,-1.848 0.595,-0.456 1.286,-0.59 2.011,-0.625 3.562,-0.483 6.74,-2.39 10.41,-2.599 4.502,-0.254 8.856,-2.183 13.518,-0.856 1.761,0.5 3.914,0.467 4.313,2.567 0.372,1.963 -3.779,5.015 -4.327,5.263 -3.086,1.4 -5.81,3.401 -8.083,5.826 -3.831,4.087 -7.113,8.58 -10.147,13.361 -2.829,4.456 -5.767,8.728 -7.964,13.602 -3.146,6.97 -4.871,14.374 -7.552,21.46 -1.184,3.134 -2.477,6.395 -5.446,8.493 -2.37,1.671 -4.334,4.165 -7.41,4.445 -3.766,0.342 -7.564,0.402 -11.346,-0.074 -2.354,-0.295 -8.681,-2.094 -9.178,-2.264 -3.384,-1.158 -6.678,-2.645 -10.238,-3.19 -4.642,-0.71 -8.881,1.382 -13.316,2.118 -0.313,0.052 -0.584,0.346 -0.876,0.522 -5.764,3.452 -11.558,6.624 -18.682,6.208 -3.026,-0.175 -5.928,0.097 -9.15,0.782 -0.618,0.13 -1.366,0.253 -1.892,-0.096 -0.849,-0.563 -4.728,-2.615 -6.401,-2.639 -0.561,-0.021 -1.728,-1.471 -2.623,-1.463 -0.474,0.002 -0.951,-0.26 -1.297,-0.584 -1.873,-1.769 -2.521,-4.436 -5.1078997,-5.397 -0.152,-0.075 -0.233,-0.198 -0.249,-0.369 -0.06,-2.697 -2.988,-5.385 -5.983,-5.407 -1.50699998,-0.01 -3.226,-0.381 -4.046,1.485 -0.881,2.002 -0.019,6.326 1.63500002,7.877 3.19799998,2.999 7.07699998,5.333 9.70299998,8.85 2.2738997,3.043 3.9108997,6.35 2.3078997,10.646 -1.37,3.672 -3.8468997,6.149 -6.4618997,8.757 -4.68499998,4.671 -10.422,7.788 -16.1390003,10.815 -4.84,2.561 -10.139,4.252 -15.627,4.934 -3.564,0.44 -6.612,2.409 -10.05,3.055 -5.396,1.013 -10.857,1.687 -16.262,2.663 -8.862,1.6 -17.618,3.8 -26.621,4.604 -2.017,0.178 -4.092,0.005 -5.838,-0.728 -6.918,-2.901 -12.022,-8.134 -15.3,-14.632 -4.926,-9.763 -6.746,-20.37 -5.508,-31.277 0.384,-3.383 0.809,-7.002 3.036,-9.938 0.208,3.609 3.234,8.362 5.927,8.857 7.095,1.308 12.118,-3.005 10.279,-10.404 -1.819,-7.317 -5.183,-13.692 -12.039,-17.882 -3.316,-2.026 -6.484,-2.459 -10.224,-2.325 -3.033,0.109 -5.013,2.07 -7.589,2.842 -4.411,1.322 -7.792,4.3 -11.223,7.133 -1.585,1.308 -1.416,5.106 -0.037,6.347 3.36,3.03 9.44,2.545 11.954,-1.141 0.998,-1.464 2.063,-2.913 2.781,-4.614 1.631,-3.859 4.095,-5.162 8.2,-4.729 1.916,0.202 4.758,2.961 4.262,4.486 -0.878,2.694 -0.925,5.617 -2.3,8.161 -0.511,-0.439 -0.577,-1.04 -0.566,-1.653 0.033,-1.811 -1.062,-2.988 -2.522,-3.576 -1.48,-0.595 -2.551,0.589 -3.576,1.544 -1.155,1.074 -1.445,2.479 -1.673,3.942 -0.171,1.1 -0.14,2.371 -0.699,3.247 -2.121,3.325 -3.486,7.048 -5.681,10.344 -1.086,1.63 -2.998,3.067 -3.204,4.848 -0.452,3.898 -1.084,8.072 0.648,11.743 1.666,3.532 1.745,7.534 3.744,10.908 0.33,0.557 0.441,1.333 0.411,1.997 -0.397,8.584 -5.162,13.058 -12.673,14.555 -1.104,0.221 -1.994,0.575 -2.992,1.157 -1.855,1.087 -4.281,1.746 -6.113,0.256 -2.138,-1.736 -3.792,-1.269 -5.787,-0.016 -3.12,1.959 -5.119,4.729 -6.049,8.206 -0.706,2.636 -1.991,4.655 -4.371,6.086 -2.717,1.638 -5.64,2.883 -8.261,4.748 -1.352,0.959 -3.315,2.029 -5.311,0.088 -0.841,-0.821 -2.58,-0.518 -3.804,0.522 -6.211,5.286 -11.868,11.162 -17.784,16.757 -1.433,1.358 -2.202,3.244 -2.437,5.304 -0.47,4.111 -1.028,8.17 -4.067,11.422 -2.17,2.323 -3.577,5.199 -5.229,7.903 -3.193,5.223 -5.841,10.781 -11.205,14.501 -4.004,2.779 -8.401,5.028 -12.006,8.398 -0.502,0.46804 -1.438,0.48104 -2.181,0.68204 -4.891,1.304 -9.747,2.732 -14.43,4.665 -2.727,1.127 -5.053,4.454 -4.705,6.461 0.527,3.057 4.359,6.423 7.494,6.476 4.478,0.076 8.924,-0.845 13.416,-0.505 0.834,0.062 1.402,-0.479 2.075,-0.886 3.787,-2.297 6.713,-5.514 9.638,-8.752 3.621,-4.012 7.314,-7.959 10.928,-11.97604 2.938,-3.268 5.087,-7.099 7.575,-10.67 3.756,-5.399 6.855,-11.313 11.464,-16.109 1.466,-1.524 2.404,-3.42 3.026,-5.352 0.602,-1.869 1.537,-3.262 3.222,-4.141 2.356,-1.226 4.327,-2.734 5.227,-5.412 0.447,-1.329 1.809,-1.709 3.046,-2.179 4.758,-1.805 8.46,-5.014 11.098,-9.269 1.159,-1.871 2.414,-3.269 4.432,-4.064 1.86,-0.733 3.342,-1.814 4.59,-3.556 1.381,-1.924 3.442,-3.409 5.997,-3.697 1.18,-0.133 2.13,-0.595 2.998,-1.358 2.923,-2.581 6.408,-4.445 9.912,-5.814 7.927,-3.101 16.279,-4.238 24.842,-3.792 6.65,0.348 12.787,2.202 18.759,5.104 2.939,1.428 5.829,3.553 9.338,3.26 2.927,-0.245 5.502,-1.875 8.127,-3.027 5.038,-2.21 10.078,-3.98 15.653,-3.673 3.929,0.22 7.736,-0.381 11.449,-1.611 1.017,-0.338 2.035,-0.451 3.061,-0.302 3.484,0.52 6.979,1 10.435,1.672 4.697,0.914 9.003,0.026 12.511,-3.127 1.192,-1.072 3.16,-1.869 3.25,-3.974 0.042,-0.161 0.141,-0.271 0.293,-0.331 2.5030003,-0.74 4.1450003,-2.348 4.9010003,-4.852 1.722,-1.604 2.862,-3.755 4.833,-5.124 1.65800002,-0.305 3.062,-0.871 2.992,-2.938 0.17,-0.447 0.502,-0.701 0.965,-0.798 0.711,0.21 3.005,-1.331 3.507,-1.891 1.295,-1.436 2.915,-2.361 4.5968997,-3.263 3.028,-1.624 4.797,-1.017 5.384,2.325 0.693,3.961 1.104,7.972 1.546,11.975 0.65,5.856 2.856,11.036 6.646,15.53 0.521,0.623 7.168,6.896 9.104,8.673 0.218,1.438 7.523,8.157 8.915,8.798 0.294,0.18 0.669,0.271 0.881,0.544 1.409,1.8 2.955,4.552 1.595,6.65 -0.626,0.968 -2.604,1.813 -3.55,2.948 -0.721,0.868 -1.327,1.813 -2.378,2.306 -5.098,2.389 -9.539,6.06 -15.071,7.622 -0.764,0.214 -1.43,0.938 -2.03,1.536 -1.465,1.452 -2.72,3.14 -5.194,2.839 -0.914,-0.108 -1.639,0.703 -1.99,1.468 -0.741,1.6 -0.761,3.251 0.813,4.407 0.902,0.668 1.955,1.624 3.157,0.38 4.059,-4.194 9.841,-5.414 14.723,-8.158 2.88,-1.618 6.419,-2.636 9.563,-4.11 6.369,-2.989 11.309,-2.259 16.541,2.609 1.307,1.214 2.735,2.413 4.318,3.192 5.725,2.818 10.731,6.545 14.286,11.835 2.757,4.095 6.393,7.137 10.188,10.089 2.169,1.686 4.35,3.204 7.445,2.056 2.348,-0.873 3.447,-3.06 1.826,-4.95 -4.532,-5.28 -7.896,-11.388 -12.236,-16.818 -3.48,-4.356 -7.819,-7.411 -12.66,-9.721 -2.642,-1.26 -4.677,-3.415 -7.413,-4.379 -3.736,-1.314 -6.971,-3.553 -9.466,-6.43 -2.835,-3.269 -5.144,-7.038 -7.372,-10.774 -3.271,-5.482 -7.762,-9.707 -12.823,-13.433 -2.976,-2.192 -5.683,-4.455 -7.046,-8.221 -2.199,-6.072 -2.521,-12.296 -2.518,-18.614 0.403,0.308 0.842,0.577 1.213,0.924 2.51,2.346 3.008,2.32 5.538,0.075 2.399,-2.13 1.593,-5.444 3.049,-7.965 0.614,-1.063 0.52,-2.797 -1,-3.613 -1.499,-0.808 -2.28,0.479 -3.297,1.234 -1.327,0.984 -1.749,3.06 -3.803,3.14 1.197,-2.635 1.875,-5.646 4.552,-7.295 3.501,-2.158 6.972,-4.436 10.691,-6.145 3.809,-1.753 7.986,-1.923 11.653,0.44 3.065,1.979 5.979,4.258 8.329,7.149 3.56,4.38 7.534,8.397 10.128,13.576 1.273,2.544 1.686,5.528 3.507,7.689 2.703,3.209 5.533,6.245 6.28,10.596 0.076,0.449 0.565,0.847 0.908,1.224 3.607,3.965 4.667,9.131 6.434,13.934 0.6,1.633 0.188,3.567 0.61,5.359 0.67,2.847 2.769,4.429 5.286,3.023 4.2,-2.342 8.798,-2.595 13.24,-2.757 9.412,-0.344 18.553,-2.08 27.699,-4.021 1.086,-0.229 2.425,0.019 3.271,-0.529 3.301,-2.137 7.095,-2.658 10.76,-3.393 6.128,-1.229 8.003,-1.224 10.806,4.722 0.924,1.962 2.553,3.162 4.70004,3.056 7.749,-0.393 13.51,3.561 18.9,8.393 1.413,1.267 2.769,2.749 4.727,2.99 4.518,0.554 4.871,3.563 3.873,6.946 -0.315,1.055 -0.427,4.162 -0.632,4.62 -0.875,1.953 -2.701,3.335 -3.606,5.305 -4.529,4.501 -9.307,8.575 -16.04,9.255 -3.572,-0.122 -6.869,1.136 -10.23904,2.033 -0.91,0.071 -1.827,0.35 -2.726,0.209 -1.957,-0.306 -3.755,-0.128 -5.623,-0.355 -1.552,-0.19 -3.26,-0.285 -4.05,-1.852 -2.618,-5.199 -6.447,-9.59 -9.557,-14.462 -1.847,-2.889 -5.276,-4.185 -8.093,-6.055 -0.732,-0.485 -1.646,-0.348 -2.521,-0.164 -3.351,0.704 -5.918,2.684 -8.233,5.04 -1.8,1.83 -1.323,3.278 1.181,4.117 2.036,0.683 3.906,-0.024 5.825,-0.479 2.577,-0.612 4.781,0.325 6.025,2.311 2.364,3.776 4.746,7.641 8.322,10.339 2.249,1.697 4.076,2.978 2.082,5.917 -2.02,1.631 -7.749,3.963 -8.272,4.187 -3.752,1.599 -7.711,2.924 -11.653,3.38 -6.44,0.745 -12.989,0.568 -19.494,0.661 -1.863,0.025 -3.624,0.342 -5.261,1.097 -1.438,0.665 -2.076,1.438 -2.592,3.565 -0.175,0.715 -0.697,1.498 -1.401,1.709 -1.538,0.457 -2.656,0.507 -3.819,1.155 -2.695,1.509 -5.231,3.32504 -8.004,4.66504 -4.4,2.127 -8.969,3.96 -13.807,4.792 -3.037,0.522 -6.167,0.521 -9.26,0.689 -1.589,0.087 -2.979,1.489 -4.733,0.557 -1.682,-0.894 -3.555,-0.647 -5.336,-0.405 -3.349,0.458 -6.648,0.527 -10.016,-0.01 -2.442,-0.388 -5.119,-0.772 -7.394,0.43 -7.858,4.152 -16.184,3.235 -24.5049997,2.573 -2.5729,-0.205 -5.0739,-0.56 -4.5569,-4.173 -2.688,-4.091 -6.63,-6.929 -10.594,-9.46204 -2.999,-1.916 -6.9350003,-2.428 -9.7740003,-4.763 -0.334,-0.274 -1.78,-0.49 -2.066,-0.816 -0.595,-0.675 -0.97,-1.026 -1.727,-1.13 -0.284,-0.08 -1.448,-0.919 -1.815,-1.034 -5.456,-1.673 -8.974,-5.865 -12.454,-9.932 -1.689,-1.974 -3.65,-2.189 -5.652,-1.913 -1.953,0.269 -2.847,2.114 -3.158,3.988 -0.194,1.181 -0.136,2.406 -0.132,3.612 0,1.021 -0.21,2.072 -1.19,2.391 -3.288,1.07 -5.7,3.578 -8.907,4.963 -7.414,3.199 -15.335,4.353 -22.958,6.609 -7.973,2.36204 -16.466,1.71204 -24.74,2.26804 -1.104,0.072 -2.356,0.521 -3.288,0.153 -4.303,-1.697 -8.282,-0.392 -11.898,1.562 -3.245,1.755 -6.369,4.001 -8.202,7.475 -1.082,1.104 -2.163,2.208 -3.245,3.311 -3.21,2.08 -5.492,4.873 -6.589,8.577 -0.01,0.113 -0.064,0.187 -0.172,0.221 -0.34,-0.082 -0.638,0.017 -0.714,0.356 -0.031,0.142 0.186,0.337 0.291,0.507 -0.05,0.482 -0.153,0.935 -0.627,1.192 -1.524,0.235 -2.166,1.068 -1.765,2.609 -0.089,0.163 -0.179,0.329 -0.268,0.494 -1.85,1.046 -2.808,2.617 -2.796,4.756 -0.089,0.146 -0.178,0.29 -0.267,0.436 -1.366,0.151 -1.469,1.07 -1.309,2.148 -0.51,1.377 -1.312,2.502 -2.689,3.13 -2.365,1.742 -4.9,3.335 -5.741,6.439 -0.019,0.114 -0.086,0.18 -0.202,0.199 -1.255,-0.302 -1.912,0.606 -2.595,1.354 -2.573,2.813 -5.703,4.968 -8.665,7.317 -0.926,0.732 -1.95,1.403 -1.435,2.697 0.516,1.297 1.808,1.556 3.057,1.409 1.196,-0.14 2.369,-0.48 3.225,-1.46 0.641,-0.733 1.46,-1.214 2.382,-1.499 3.536,-1.098 6.33,-3.48 9.262,-5.546 6.686,-4.71 12.09,-10.718 16.548,-17.542 3.316,-5.075 7.021,-9.851 9.172,-15.738 1.126,-3.085 3.685,-6.093 7.957,-6.51 2.761,-0.266 5.499,-0.258 8.249,-0.363 5.419,-0.211 10.858,-0.236 16.251,-0.735 6.066,-0.563 12.085,-1.603 18.133,-2.37 4.438,-0.561 8.521,-2.057 12.336,-4.35 0.589,-0.103 1.177,-0.205 1.764,-0.306 5.42,-2.112 10.214,-5.39004 15.272,-8.17604 1.057,-0.807 2.25,-1.106 3.579,-1.09 3.714,0.042 13.294,4.157 13.857,4.35 3.803,1.305 7.617,2.584 11.4270003,3.86904 0.248,0.181 0.496,0.361 0.743,0.543 0.102,0.497 2.925,3.438 3.73,3.612 0.683,0.667 0.865,1.458 0.582,2.362 -0.553,3.668 -1.811,4.874 -5.6800003,5.61 -1.346,0.255 -2.558,0.814 -3.741,1.594 -2.423,1.594 -4.454,3.783 -7.155,4.932 -2.709,1.151 -4.674,3.446 -7.372,4.609 -0.585,0.252 -3.14,2.077 -3.932,2.377 -2.602,0.977 -4.715,2.782 -7.095,4.133 -3.87,2.2 -7.803,4.204 -11.922,5.972 -2.931,1.255 -5.836,2.462 -8.903,3.144 -2.44,0.542 -2.363,1.571 -4.351,4.146 -1.958,2.533 -5.185,2.931 -7.671,4.576 -4.319,2.857 -8.787,5.389 -14.123,5.698 -1.478,0.086 -2.606,0.671 -3.67,1.644 -2.727,2.5 -5.537,4.908 -8.258,7.413 -1.452,1.337 -2.755,2.78 -3.856,4.485 -2.808,4.347 -6.838,7.313 -11.426,9.685 -11.746,6.076 -24.064,5.052 -36.295,2.629 -7.784,-1.543 -14.817,-5.25 -21.237,-10.11 -3.142,-2.383 -6,-5.268 -9.507,-7.036 -4.081,-2.053 -8.043,-4.377 -12.736,-5.252 -3.02,-0.564 -5.697,-2.628 -8.823,-3.44 -6.271,-1.631 -12.652,-2.836 -18.899,-4.393 -8.427,-2.096 -16.671,-5.482 -23.372,-11.438 -1.704,-1.516 -3.178,-3.487 -4.188,-5.53 -1.694,-3.428 -4.659,-5.194 -7.719,-6.969 -0.146,-0.087 -0.39,-0.066 -0.477,-0.184 -3.641,-4.773 -9.93,-7.62 -10.797,-14.497 0.75,-0.235 0.97,0.208 1.175,0.541 2.68,4.328 6.762,6.712 11.283,8.78 2.508,1.148 4.654,3.263 6.393,5.507 1.089,1.403 2.42,2.604 3.767,1.387 1.261,-1.139 0.356,-2.967 -0.808,-4.098 -3.455,-3.35 -6.979,-6.626 -11.002,-9.315 -0.85,-0.569 -1.581,-1.32 -2.338,-2.019 -1.035,-0.954 -1.347,-2.042 -0.289,-3.152 1.208,-1.267 1.069,-2.624 0.469,-4.068 -0.197,-0.477 -0.35,-0.977 -0.584,-1.436 -4.475,-8.73304 -1.47,-16.82304 2.141,-24.85604 0.425,-0.944 0.876,-1.841 0.987,-2.911 0.208,-2.008 1.066,-3.727 2.338,-5.339 1.411,-1.788 1.27,-10.258 -0.526,-11.717 -0.653,-0.52 -1.284,-1.069 -1.924,-1.609 z m 138.958,-8.342 c 0.04,-4.23 -0.01,-5.135 -1.429,-5.653 -4.137,-1.512 -8.167,-3.738 -12.85,-2.701 -0.727,0.159 -1.378,0.148 -1.806,-0.584 -1.159,-1.984 -3.113,-2.541 -5.186,-2.944 -4.376,-0.853 -4.372,-0.873 -4.622,3.558 -0.198,3.527 -1.487,4.341 -4.613,2.924 -3.02,-1.372 -4.011,-0.756 -4.188,2.628 -0.122,2.306 -1.02,4.064 -3.489,4.417 -5.233,0.746 -5.657,6.262 -8.961,8.904 -0.051,0.04 -0.027,0.165 -0.05,0.248 -1.096,4.051 -2.655,5.237 -6.98,5.318 -2.995,0.058 -2.995,0.058 -2.273,3.104 0.959,4.044 -1.421,7.336 -5.612,7.76 -3.054,0.31 -5.831,3.112 -5.695,6.162 0.113,2.486 -1.018,4.152 -2.478,5.961 -2.295,2.84 -4.833,5.687 -4.791,9.693 0.014,1.362 -0.539,2.134 -1.596,2.96804 -3.664,2.891 -5.867,6.57 -5.122,11.443 0.377,2.461 0.89,4.912 1.531,7.317 0.539,2.021 1.909,3.064 4.152,3.145 3.011,0.107 3.764,-2.021 4.843,-4.128 1.794,-3.508 1.896,-6.808 -0.176,-10.26 -0.994,-1.657 -1.086,-3.73 -1.979,-5.515 -0.409,-0.816 0.585,-1.629 1.456,-1.799 1.356,-0.263 2.615,-0.182 3.848,0.861 3.91,3.3 6.539,7.188 7.02,12.448 0.204,2.226 0.263,4.473 0.558,6.668 0.573,4.26 1.997,6.296 6.475,5.409 1.58,-0.313 2.237,0.552 2.641,1.806 1.511,4.697 3.295,6.131 8.269,6.349 1.716,0.077 2.939,0.835 3.967,2.09 2.396,2.934 4.074,2.59 5.756,-0.919 1.335,-2.787 3.245,-5.174 5.516,-7.35 4.272,-4.095 8.967,-7.779 12.597,-12.516 1.843,-2.406 1.604,-5.218 1.066,-7.925 -0.208,-1.044 -1.265,-1.79 -2.552,-1.873 -1.77,-0.113 -3.383,0.122 -4.871,1.251 -2.289,1.737 -4.806,3.015 -7.779,3.105 -1.897,0.058 -3.848,0.161 -5.162,-1.54 -1.271,-1.646 -0.419,-3.356 0.278,-4.889 2.215,-4.87104 6.242,-7.33404 11.384,-8.20304 1.017,-0.172 2.062,-0.276 3.034,-0.592 1.501,-0.484 1.813,-1.964 0.594,-2.976 -0.633,-0.523 -1.512,-0.975 -2.314,-1.039 -5.397,-0.439 -9.896,-3.194 -14.522,-5.569 -4.302,-2.206 -4.687,-5.353 -1.48,-8.943 4.28,-4.794 9.484,-8.127 15.525,-10.166 2.569,-0.867 4.813,-2.453 6.774,-4.04 3.162,-2.558 5.134,-3.867 2.006,-8.609 -0.183,-0.276 -0.216,-0.65 -0.327,-0.979 -0.344,-1.006 -0.673,-2.098 0.285,-2.872 0.98,-0.793 1.953,-0.111 2.869,0.381 3.563,1.907 5.386,5.305 6.917,8.728 1.713,3.825 1.131,5.07 -2.339,7.587 -2.637,1.91 -5.767,2.665 -8.814,3.532 -5.359,1.523 -10.563,3.149 -14.458,7.573 -2.559,2.908 -2.511,4.113 0.858,6.172 2.583,1.577 5.517,1.865 8.355,2.525 2.268,0.528 4.116,1.352 4.864,3.976 1.2,4.21 2.181,4.669 6.694,4.837 4.032,0.148 8.251,0.064 11.967,1.506 5.821,2.257 11.537,0.916 17.313,0.637 0.926,-0.044 1.896,-0.264 2.742,-0.639 2.015,-0.891 2.121,-1.951 0.451,-3.31 -2.146,-1.746 -2.338,-3.092 -0.749,-5.271 2.382,-3.269 1.64,-6.15 -2.191,-7.749 -1.527,-0.64 -2.504,-1.685 -3.543,-2.857 -2.556,-2.885 -4.317,-6.514 -7.537,-8.732 -3.071,-2.119 -5.532,-4.312 -7.057,-8.026 -1.592,-3.884 -3.031,-7.616 -3.014,-11.823 z m 76.568,-22.772 c -2.228,0.203 -4.471,-0.234 -6.703,0.259 -7.384,1.636 -14.495,4.189 -21.324,7.301 -3.331,1.516 -6.747,3.284 -9.573,5.917 -1.485,1.384 -2.048,2.81 -1.519,4.533 0.504,1.64 1.836,2.585 3.634,2.886 7.231,1.204 14.495,1.433 21.776,0.704 1.191,-0.121 2.379,-0.339 3.583,-0.325 1.972,0.025 2.217,0.96 1.249,2.477 -1.11,1.741 -2.378,3.402 -3.317,5.23 -1.507,2.931 -0.704,4.153 2.524,4.205 1.897,0.03 3.994,-0.027 5.431,1.179 3.696,3.094 7.416,6.223 10.505,9.935 2.802,3.366 5.837,6.282 9.493,8.793 3.327,2.284 6.832,4.208 10.285,6.209 5.7260003,3.315 11.2640003,6.865 16.5770003,10.812 3.521,2.611 7.329,4.77904 11.5288997,6.22904 1.996,0.688 3.787,0.328 4.912,-1.178 1.574,-2.10404 3.677,-2.74104 6.002,-3.07904 1.366,-0.199 2.443,-0.65 3.168,-1.905 0.572,-0.993 1.506,-1.641 2.558,-2.109 1.189,-0.532 1.558,-1.131 0.553,-2.327 -1.691,-2.013 -1.246,-3.134 1.3,-3.498 4.058,-0.577 6.075,-3.594 8.004,-6.663 1.228,-1.95 1.207,-4.685 3.913,-5.718 0.671,-0.257 1.337,-1.311 0.612,-2.182 -0.65,-0.784 -1.58,-0.633 -2.312,-0.003 -0.848,0.734 -1.595,1.689 -2.791,1.746 -4.438,0.21 -8.847,1.242 -13.322,0.511 -1.442,-0.237 -2.811,-0.353 -4.253,0.377 -2.994,1.512 -9.205,5.117 -9.449,5.196 -3.8188997,1.257 -6.6188997,0.175 -9.2288997,-3.008 -1.728,-2.104 -2.24499998,-4.16 -1.525,-6.375 0.776,-2.383 3.04,-3.014 5.443,-3.152 3.126,-0.182 4.6128997,-1.746 4.6458997,-4.994 0.014,-1.545 0.415,-2.954 1.712,-3.496 2.394,-0.999 4.272,-2.895 6.638,-3.768 3.824,-1.415 7.008,-3.921 10.564,-5.781 3.905,-2.039 3.624,-3.805 -0.172,-6.246 -2.254,-1.448 -4.588,-2.669 -7.134,-3.461 -1.589,-0.495 -1.942,-1.071 -0.745,-2.501 2.4,-2.868 1.943,-5.92 -0.398,-8.796 -3.105,-3.815 -7.96,-5.33 -11.146,-8.991 -0.9038997,-1.04 -1.9718997,-0.688 -2.2648997,0.694 -0.538,2.528 -0.865,5.055 -0.312,7.674 0.63,2.987 2.5108997,5.241 3.9768997,7.763 0.647,1.115 1.481,2.56 0.121,3.784 -1.435,1.288 -2.5778997,0.36 -3.8618997,-0.553 -2.572,-1.836 -4.311,-4.348 -6.277,-6.736 -3.087,-3.751 -4.295,-7.747 -3.062,-12.475 0.92900002,-3.554 2.547,-4.741 6.146,-4.081 1.558,0.284 2.468,-0.264 2.613,-1.652 0.23,-2.186 -1.371,-3.388 -2.956,-4.461 -1.352,-0.915 -2.48,-0.141 -3.51,0.679 -3.609,2.872 -6.498,6.396 -8.271,10.627 -1.818,4.332 -4.6410003,7.817 -8.1100003,10.8 -3.265,2.808 -8.229,1.348 -9.735,-2.56 -0.661,-1.716 -1.873,-3.071 -3.87,-3.408 -4.079,-0.69 -8.169,-1.24 -12.326,-1.038 z m 45.5650003,-134.918 c -0.843,-1.601 -0.833,-4.23 -3.492,-3.243 -2.157,0.802 -4.623,2.034 -5.19,4.326 -1.014,4.091 -3.468,7.175 -5.773,10.468 -3.8550003,5.504 -8.4340003,10.411 -12.5590003,15.683 -4.169,5.329 -9.504,10.025 -10.522,17.303 -0.111,0.791 -0.659,1.365 -1.073,2.022 -1.223,1.939 -2.933,3.684 -3.1,6.116 -0.096,1.389 -0.613,2.585 -1.509,3.472 -1.527,1.516 -1.188,3.295 -1.145,5.086 0.034,1.428 2.417,2.539 1.067,3.873 -1.191,1.177 -2.901,-0.269 -4.393,-0.46 -4.135,-0.53 -6.708,1.068 -6.444,4.232 0.533,6.42 3.155,11.805 8.139,16.017 4.82,4.074 9.633,8.17 12.397,14.079 0.587,1.258 0.912,2.262 -0.658,2.959 -1.475,0.653 -2.139,1.854 -1.713,3.354 0.45,1.579 1.693,2.155 3.375,2.223 4.749,0.192 8.93,-2.348 13.562,-2.695 0.617,-0.045 1.277,-0.557 1.771,-1.012 0.738,-0.681 1.573,-0.967 2.526,-1.173 3.4960003,-0.753 6.6180003,-2.088 9.31900032,-4.661 1.278,-1.216 1.559,-2.793 2.64899998,-4.009 2.558,-2.847 2.466,-6.108 0.153,-9.105 -1.61399998,-2.095 -3.085,-4.301 -4.611,-6.467 -1.733,-2.458 -3.165,-5.219 -5.271,-7.297 -1.715,-1.693 -2.6270003,-3.569 -3.1720003,-5.703 -0.636,-2.496 -0.628,-5.048 1.4790003,-6.955 3.813,-3.45 13.126,-4.887 18.025,-2.244 4.3288997,2.335 6.6878997,6.319 9.5918997,9.882 3.124,3.831 9.348,3.038 11.186,-1.55 1.959,-4.89 0.497,-9.54 -1.625,-13.928 -0.854,-1.765 -2.371,-3.363 -4.725,-3.554 -2.313,-0.187 -4.583,-0.647 -6.931,-0.678 -7.7628997,-0.099 -15.50889968,0.3 -23.2588997,0.564 -2.311,0.078 -4.0900003,-1.208 -4.8930003,-3.192 -0.856,-2.111 0.288,-3.691 2.208,-4.931 1.2530003,-0.809 2.4940003,-1.43 3.9070003,-1.868 1.875,-0.58 3.73,-1.273 5.51900002,-2.084 2.25599998,-1.022 2.82299998,-2.713 1.74199998,-4.865 -0.38399998,-0.766 -0.86499998,-1.5 -1.40499998,-2.165 -0.90400002,-1.113 -0.81300002,-2.074 -0.042,-3.272 1.286,-2.002 3.30599998,-3.299 4.69899998,-5.146 3.168,-4.208 13.8248997,-3.741 17.1428997,-1.267 2.402,1.793 3.88,4.36 6.003,6.285 3.842,3.484 8.884,3.931 13.784,4.218 7.665,0.449 15.001,-1.534 22.268,-3.621 5.273,-1.512 7.977,-5.542 8.081,-11.048 0.036,-1.915 -0.641,-2.874 -2.459,-3.261 -3.273,-0.697 -6.573,-1.322 -9.779,-2.265 -1.725,-0.507 -2.963,-0.415 -4.115,0.998 -0.76,0.934 -1.615,1.743 -3.032,1.674 -2.992,-0.15 -5.743,0.84 -8.477,1.934 -2.752,1.1 -5.685,1.146 -8.323,0.009 -4.563,-1.968 -8.628,-4.675 -10.488,-9.683 -1.137,-3.056 -3.657,-5.449 -4.235,-8.788 -0.064,-0.362 -0.457,-0.721 -0.782,-0.977 -4.682,-3.724 -12.9048997,-0.998 -14.4038997,4.737 -0.142,0.533 -0.153,1.212 -0.995,1.653 z m -159.0000003,106.085 c 0.28,-1.885 -0.491,-2.59 -1.242,-3.326 -3.837,-3.772 -8.374,-6.616 -12.972,-9.278 -1.887,-1.093 -3.8,-2.328 -5.894,-3.061 -5.633,-1.967 -9.735,0.855 -12.792,4.973 -2.64,3.558 -5.321,7.102 -7.877,10.718 -3.235,4.579 -7.909,7.503 -12.686,9.283 -4.802,1.79 -8.479,4.549 -11.681,8.056 -4.288,4.697 -7.462,10.26 -9.958,16.099 -0.998,2.33 -2.457,4.522 -2.94,7.022 -0.423,2.181 -0.486,4.445 -1.21,6.564 -0.338,0.991 -0.121,1.617 0.642,2.241 3.385,2.767 5.649,6.463 7.664,10.195 1.554,2.88 4.227,4.455 6.242,6.757 0.279,0.315 1.049,0.548 1.416,0.395 2.784,-1.155 3.356,0.643 3.978,2.702 0.294,0.97 1.087,1.928 2.23,1.893 1.173,-0.034 2.023,-0.715 2.405,-1.985 0.398,-1.321 1.149,-2.482 2.075,-3.544 0.84,-0.963 1.768,-1.956 2.246,-3.106 1.687,-4.054 3.368,-8.13 5.999,-11.649 1.062,-1.42 1.862,-2.896 2.404,-4.488 0.648,-1.899 1.603,-3.593 2.569,-5.321 1.8,-3.229 3.696,-6.232 7.876,-6.584 0.722,-0.061 1.241,-0.555 1.733,-1.053 4.257,-4.325 4.502,-10.159 0.826,-15.208 -1.56,-2.144 -2.603,-4.656 -4.708,-6.425 -0.709,-0.595 -0.409,-1.411 0.206,-2.05 0.584,-0.606 1.212,-0.686 1.795,-0.067 4.197,4.44 8.393,8.883 12.548,13.36 0.571,0.615 0.921,1.435 1.371,2.158 1.583,2.551 0.962,5.038 -1.688,6.454 -2.363,1.267 -4.514,2.81 -6.362,4.737 -0.578,0.604 -1.934,1.157 -1.049,2.252 0.839,1.034 1.855,0.316 2.74,-0.297 6.15,-4.274 12.959,-6.639 20.451,-6.992 0.849,-0.042 1.552,-0.376 1.882,-1.145 0.377,-0.875 -0.194,-1.498 -0.866,-1.931 -1.994,-1.286 -1.434,-2.663 -0.188,-4.068 1.598,-1.802 3.206,-3.596 4.83,-5.377 1.224,-1.338 1.591,-2.971 1,-4.569 -0.589,-1.587 -2.267,-1.101 -3.433,-0.939 -3.149,0.434 -4.417,-1.994 -4.074,-4.79 0.132,-1.078 0.728,-1.896 1.402,-2.709 1.603,-1.927 2.238,-4.34 3.09,-5.897 z m 237.9139,47.587 c 0.109,-4.993 -0.597,-9.613 -1.916,-14.035 -1.088,-3.647 -2.256,-7.479 -5.117,-10.25 -1.728,-1.677 -3.43,-3.202 -4.46,-5.507 -0.697,-1.56 -2.493,-1.997 -4.262,-1.842 -1.859,0.164 -1.575,1.665 -1.933,2.859 -0.232,0.783 -0.897,1.436 -1.367,2.145 -0.516,0.78 -0.958,1.853 -2.11,1.511 -0.961,-0.287 -0.554,-1.319 -0.609,-2.043 -0.139,-1.8 -1.284,-2.875 -2.806,-3.325 -1.467,-0.435 -2.847,0.036 -3.874,1.382 -2.519,3.296 -2.082,5.7 1.714,7.711 1.802,0.957 1.694,1.952 0.563,3.225 -0.51,0.573 -1.141,1.042 -1.741,1.531 -2.176,1.777 -2.1,3.633 0.234,5.035 1.608,0.965 2.86,2.091 2.989,4.196 0.063,1.055 0.407,2.205 1.593,2.794 0.743,0.367 1.15,1.143 1.238,1.893 0.336,2.851 2.029,4.862 3.976,6.727 4.955,4.741 10.494,8.701 16.398,12.157 0.883,0.518 1.872,1.072 2.854,1.166 4.805,0.454 7.205,4.203 9.883,7.337 4.098,4.792 7.316,10.358 14.114,12.156 2.325,0.613 4.39,1.022 6.762,0.545 4.444,-0.895 8.168,-3.521 12.415,-4.914 2.456,-0.805 3.058,-3.886 1.707,-6.123 -1.49,-2.469 -3.91,-3.568 -6.808,-2.965 -1.428,0.296 -2.809,0.814 -4.226,1.184 -2.116,0.553 -4.13,0.573 -5.559,-1.467 -1.316,-1.876 -0.734,-3.882 0.491,-5.254 2.52,-2.816 4.545,-6.277 8.553,-7.463 1.208,-0.356 2.256,-1.188 3.362,-1.806 3.124,-1.75 6.486,-3.899 10.104,-3.195 3.152,0.612 4.87,0.509 5.295,-2.993 0.065,-0.524 0.613,-1.02 1.008,-1.468 1.706,-1.934 3.771,-3.22 6.37,-3.637 0.76,-0.121 1.528,-0.532 1.452,-1.529 -0.088,-1.114 -0.981,-1.006 -1.748,-1.045 -2.165,-0.111 -4.52,-0.298 -6.312,0.859 -1.97,1.271 -4.164,1.469 -6.199,2.271 -5.392,2.128 -11.031,3.675 -16.051,6.694 -2.681,1.615 -5.203,1.364 -7.509,-0.86 -0.894,-0.864 -1.836,-1.646 -3.085,-1.749 -5.118,-0.43 -10.15,-0.2 -13.932,3.884 -2.087,2.258 -4.304,4.086 -7.22,5.172 -2.998,1.123 -4.649,0.114 -4.786,-3.049 -0.117,-2.775 0.954,-5.449 0.555,-7.915 z m -164.7929,68.24604 c -6.183,0.08 -11.352,-0.145 -16.503,0.555 -6.423,0.872 -12.049,2.844 -15.917,8.66 -1.415,2.127 -2.492,4.128 -3.127,6.59 -0.934,3.616 -1.839,7.354 -5.424,9.573 -1.212,0.75 -1.529,2.264 -2.121,3.498 -0.731,1.527 -0.61,2.881 1.189,3.596 1.731,0.686 2.227,1.999 2.055,3.729 -0.133,1.345 0.101,2.684 1.15,3.567 2.141,1.805 2.575,4.11 2.496,6.736 -0.072,2.448 0.51,2.727 2.769,1.693 1.045,-0.479 1.878,-1.204 2.674,-2.002 1.287,-1.292 2.879,-2.018 4.503,-2.845 3.417,-1.739 7.208,-2.673 10.264,-5.301 1.687,-1.45 1.638,-3.557 3.034,-4.945 6.266,-6.235 11.6,-13.282 18.296,-19.213 5.949,-5.269 12.827,-6.979 19.975,-8.518 3.389,-0.729 6.699,-1.429 9.575,-3.367 2.725,-1.837 2.771,-7.969 0.061,-8.906 -2.253,-0.777 -4.851,-1.397 -7.026,-0.07 -2.366,1.442 -4.981,2.31 -7.345,3.704 -2.305,1.359 -4.676,2.422 -7.395,2.878 -4.736,0.794 -9.473,0.126 -13.183,0.388 z M 38.91608,848.73846 c -0.047,4.754 1.91,6.091 6.022,5.013 1.989,-0.521 3.911,-1.209 6.007,-1.39 12.24,-1.045 24.025,2.558 36.077,3.421 1.321,0.095 2.925,0.958 3.531,-0.879 0.543,-1.649 -0.289,-3.218 -1.82,-3.87 -1.616,-0.691 -3.221,-1.504 -5.057,-1.712 -5.446,-0.615 -10.933,-0.967 -16.238,-2.532 -6.386,-1.885 -13.085,-2.848 -18.736,-6.828 -1.297,-0.914 -3.038,-0.686 -4.456,0.084 -3.806,2.069 -4.607,5.86 -5.33,8.693 z m 46.12,-34.126 c 0,-0.667 0.047,-1.104 -0.011,-1.529 -0.261,-1.971 0.198,-4.317 -2.476,-5.1 -2.437,-0.71 -4.533,0.164 -6.137,2.609 -1.085,1.658 -1.782,3.481 -2.323,5.409 -1.429,5.086 -4.47,8.733 -9.914,9.613 -8.112,1.309 -16.324,1.212 -24.473,0.707 -3.064,-0.19 -6.271,-0.494 -9.297,-1.725 -3.551,-1.445 -7.24,-2.139 -10.094,-5.321 -2.531,-2.824 -6.8,-2.188 -8.535,0.429 -2.2118997,3.334 -0.786,9.066 2.572,11.235 3.048,1.966 6.508,1.836 9.712,1.681 4.16,-0.203 6.906,1.287 9.005,4.598 1.315,2.076 3.332,2.437 5.148,1.229 3.789,-2.515 8.06,-2.161 12.197,-2.538 6.799,-0.62 13.251,1.688 19.867,2.615 7.387,1.035 12.879,-3.146 13.702,-10.538 0.504,-4.518 0.725,-9.071 1.057,-13.374 z m -230.2999,68.995 c 1.946,0.318 4.808,-0.75 7.662,-1.672 2.327,-0.751 2.935,-2.267 1.818,-4.426 -0.972,-1.883 -2.473,-3.191 -4.65,-3.767 -3.293,-0.868 -6.697,-1.429 -9.433,-3.858 -0.936,-0.832 -2.706,-1.508 -3.841,-0.449 -1.794,1.675 -4.323,2.636 -5.289,5.146 -0.433,1.124 -1.369,1.561 -2.251,0.979 -3.202,-2.104 -5.536,0.083 -7.993,1.491 -0.66,0.378 -1.648,0.993 -1.353,1.99 0.314,1.06 1.406,0.728 2.229,0.793 2.042,0.169 4.108,-0.299 6.136,0.46 5.091,1.911 10.345,3.078 16.965,3.313 z m 80.556,5.851 c -0.06,2.785 0.396,5.093 2.128,6.816 3.414,3.39 6.92,6.694 10.482,9.93 1.493,1.356 5.119,0.929 6.441,-0.545 1.284,-1.43 0.915,-3.528 -0.969,-5.434 -1.271,-1.284 -2.598,-2.519 -3.824,-3.845 -2.477,-2.674 -4.474,-5.572 -5.066,-9.34 -0.396,-2.526 -1.345,-4.956 -2.553,-7.232 -0.756,-1.425 -1.957,-2.609 -3.645,-2.47 -1.813,0.147 -2.275,1.697 -2.711,3.293 -0.835,3.075 0.417,6.17 -0.283,8.827 z m -41.556,62.241 c -0.12,4.391 2.24,9.891 7.196,14.243 1.936,1.703 3.958,3.31 5.936,4.963 4.924,4.123 10.109,7.902 15.395,11.534 1.267,0.872 2.846,0.905 4.063,-0.24 1.345,-1.265 -0.114,-2.19 -0.648,-3.129 -0.72,-1.265 -1.505,-2.537 -2.487,-3.598 -4.714,-5.104 -9.534,-10.113 -13.855,-15.565 -2.946,-3.718 -4.807,-7.904 -5.07,-12.678 -0.181,-3.277 -0.109,-6.521 1.26,-9.654 0.522,-1.192 0.777,-2.879 -0.357,-3.904 -1.209,-1.094 -2.484,0.003 -3.537,0.641 -5.689,3.449 -7.889,8.737 -7.896,17.387 z m 46.416,29.832 c 5.56,-0.014 8.476,-3.529 6.735,-6.885 -1.092,-2.107 -2.734,-3.823 -4.876,-4.854 -4.825,-2.32 -10.116,-2.411 -15.304,-2.901 -1.144,-0.108 -2.283,0.365 -2.739,1.56 -0.45,1.175 0.099,2.118 0.934,3.013 2.542,2.72 5.378,5.133 8.472,7.133 2.342,1.516 4.939,2.807 6.778,2.934 z m -30.011,-107.355 c -5.773,-0.008 -7.565,2.589 -5.706,7.029 0.922,2.201 2.166,4.271 3.794,6.033 1.676,1.813 3.699,2.044 5.42,0.411 1.398,-1.324 3.05,-1.837 4.748,-2.413 3.173,-1.076 3.926,-3.633 1.718,-6.183 -2.871,-3.312 -6.997,-3.933 -9.974,-4.877 z m 133.8829,26.355 c 0.013,-3.804 -1.105,-5.02 -3.362,-4.295 -2.696,0.865 -6.989,7.077 -6.192,9.727 1.077,3.584 2.473,7.171 6.003,9.286 1.498,0.897 3.094,1.354 4.617,0.412 1.627,-1.004 0.925,-2.791 0.959,-4.283 0.017,-0.856 -0.709,-1.333 -1.217,-1.909 -1.335,-1.512 -1.797,-3.265 -1.44,-5.247 0.256,-1.433 0.492,-2.87 0.632,-3.691 z m -114.9689,2.995 c 0.348,-3.136 -1.512,-5.053 -3.909,-6.657 -2.332,-1.562 -4.408,-0.718 -6.455,0.646 -0.929,0.619 -1.941,1.113 -2.868,1.736 -2.519,1.687 -2.526,4.003 -0.011,5.803 1.813,1.294 3.903,2.305 5.904,3 3.315,1.157 7.718,0.515 7.339,-4.528 z m -62.819,-44.756 c 0,-1.508 0.108,-2.813 -0.021,-4.096 -0.291,-2.883 -2.326,-4.093 -5.12,-3.378 -1.546,0.395 -2.424,1.609 -3.608,2.426 -2.082,1.434 -2.14,4.46 -0.306,6.22 1.618,1.554 3.212,3.132 4.793,4.723 0.683,0.688 1.427,1.289 2.369,1.51 0.792,0.185 1.854,0.113 1.65,-0.958 -0.435,-2.276 0.78,-4.424 0.243,-6.447 z m 194.9539,118.713 c -0.031,-1.132 0,-1.168 -0.688,-1.824 -2.707,-2.565 -6.105,-3.427 -9.66,-3.415 -2.43,0.007 -3.109,1.215 -2.715,3.725 0.186,1.184 0.285,2.396 0.621,3.536 0.894,3.035 3.657,4.223 7.812,3.467 2.203,-0.404 4.686,-3.346 4.63,-5.489 z m -131.5999,58.89804 c 0.01,-3.714 -1.403,-5.025 -4.439,-3.902 -2.099,0.775 -3.913,1.979 -5.368,3.846 -2.091,2.688 -4.481,5.146 -6.768,7.676 -0.468,0.519 -1.079,0.963 -0.808,1.751 0.27,0.783 0.868,1.325 1.714,1.363 0.937,0.04 1.963,0.161 2.806,-0.146 2.479,-0.908 5.181,-1.615 7.25,-3.141 2.501,-1.842 5.542,-3.644 5.613,-7.447 z m -67.052,-129.53404 c 0.675,-0.079 1.383,-0.061 2.025,-0.257 1.186,-0.366 2.283,-1.075 2.653,-2.259 0.415,-1.326 -0.89,-1.954 -1.682,-2.639 -1.851,-1.605 -10.136,-2.056 -12.198,-0.767 -0.363,0.227 -0.736,0.445 -1.068,0.714 -0.564,0.454 -0.949,1.033 -0.756,1.792 0.234,0.914 1.031,0.705 1.691,0.769 1.491,0.143 3.176,-0.546 4.398,0.807 1.348,1.495 3.163,1.526 4.937,1.84 z m -2.229,-35.286 c 1.149,-0.035 2.185,0.045 2.313,-1.28 0.077,-0.784 -3.373,-4.336 -4.171,-4.211 -1.643,0.255 -1.807,1.621 -1.838,2.913 -0.069,2.87 2.496,1.861 3.696,2.578 z"
       id="path9" />
    <path
       style="fill:#f3c4da;fill-rule:evenodd;stroke:#000000;stroke-miterlimit:10;fill-opacity:1"
       inkscape:connector-curvature="0"
       clip-rule="evenodd"
       stroke-miterlimit="10"
       d="m 206.29712,757.84246 c 0.623,0.437 1.238,0.891 1.873,1.311 1.173,0.774 2.489,0.841 3.628,0.151 1.021,-0.621 1.269,-1.839 1.021,-2.979 -0.328,-1.497 -0.802,-2.963 -1.253,-4.43 -0.29,-0.94 -1.308,-2.077 -0.29,-2.789 1.037,-0.727 2.046,0.196 2.724,1.165 -0.189,2.159 0.729,3.767 2.282,5.22 5.607,5.243 11.437,10.267 15.183,17.205 1.277,2.365 1.89,5.087 3.325,7.191 2,2.929 2.652,6.188 3.389,9.386 0.619,2.695 0.77,5.662 -0.37,8.402 -2.994,7.209 -9.591,10.169 -16.127,12.566 -3.975,1.458 -8.265,2.018 -11.927,4.451 -3.916,2.602 -7.354,5.665 -9.868,9.654 -0.817,1.297 -0.937,2.967 -0.068,4.177 0.915,1.277 2.537,0.891 3.822,0.396 1.259,-0.486 2.506,-0.968 3.637,-1.874 2.935,-2.355 6.051,-4.539 9.943,-4.981 6.912,-0.784 12.206,-4.511 17.013,-9.168 0.67,-0.345 1.336,-0.356 2.003,-0.001 0.467,1.118 5.483,5.61 5.288,7.874 -0.152,1.785 0.701,3.357 1.504,4.869 0.709,1.338 0.924,2.722 1.079,4.198 0.335,3.217 -1.087,5.895 -2.012,8.828 -1.322,4.18 -2.913,8.232 -4.453,12.319 -0.54,1.439 -0.616,3.002 -1.346,4.413 -2.926,5.654 -6.347,10.944 -7.96,17.375 -1.78,7.099 -2.538,14.185 -2.852,21.381 -0.306,6.985 -1.088,13.853 -4.559,20.041 -1.237,2.203 -0.947,3.725 0.47,5.566 1.289,1.675 2.596,3.396 1.428,5.887 -0.723,1.541 -1.993,3.63 -0.491,5.041 1.625,1.531 3.738,0.258 5.574,-0.451 0.318,-0.122 0.618,-0.303 0.928,-0.456 4.343,-2.144 9.069,-1.252 13.625,-1.664 1.7,-0.155 2.753,1.796 4.414,1.924 3.544,0.274 5.797,2.363 7.23,5.304 0.766,1.572 3.073,3.022 1.637,5.04 -2.165,3.043 -3.672,6.713 -7.233,8.588 -1.108,0.586 -1.86,1.52 -2.634,2.443 -0.958,0.509 -1.955,0.744 -2.951,0.152 -1.211,-0.719 -1.883,-1.618 -0.567,-2.841 2.768,-2.572 5.048,-5.674 8.356,-7.659 0.88,-0.53 1.941,-1.08 1.407,-2.381 -0.454,-1.105 -1.497,-1.261 -2.599,-1.283 -1.085,-0.021 -1.991,0.44 -2.969,0.768 -2.608,0.876 -4.682,-0.413 -4.523,-3.126 0.333,-5.755 -3.133,-6.157 -7.475,-4.12 -6.563,3.08 -8.101,7.797 -8.041,15.071 0.026,3.086 2.695,4.652 5.776,3.894 0.669,-0.164 1.328,-0.37 2.003,-0.496 3.841,-0.712 5.856,1.233 5.432,5.215 -1.379,-0.028 -2.729,0.044 -4.106,0.308 -1.574,0.302 -3.27,0.596 -4.715,-0.594 -2.09,-1.722 -4.668,-2.544 -7.008,-3.807 -5.768,-3.114 -11.47,-3.998 -17.243,0.162 -2.907,2.093 -4.936,1.031 -5.45,-2.622 -0.137,-0.972 -0.199,-1.935 -1.076,-2.512 -1.898,-1.249 -3.457,-2.884 -4.965,-4.524 -5.318,-5.789 -11.928,-8.864 -19.699,-8.68 -4.485,0.105 -7.256,-2.79 -10.573,-4.687 -1.99504,-1.142 -1.42704,-3.631 0.83,-3.987 6.342,-1 11.813,-5.064 18.57,-4.779 4.793,0.203 9.657,-0.756 14,2.171 0.864,0.585 1.837,0.896 2.92,0.923 2.395,0.051 3.868,-1.562 4.076,-4.564 0.165,-2.376 -0.945,-3.75 -3.446,-3.863 -13.79,-0.61 -27.469,0.205 -40.59404,4.806 -9.639,3.38 -19.616,4.188 -29.631,4.949 -5.97,0.452 -11.891,-0.7 -17.674,-1.825 -5.348,-1.037 -10.485,-3.174 -14.505,-7.314 -4.864,-5.012 -9.796,-9.965 -15.022,-14.606 -0.645,-0.574 -7.626,-7.494 -8.235,-8.126 -3.496,-3.617 -7.557,-6.676 -10.68,-10.663 -1.037,-1.329 -3.41,-2.372 -2.221,-4.398 1.169,-1.992 3.203,-0.429 4.702,-0.001 5.882,1.668 11.817,0.408 17.689,0.34 6.773,-0.079 13.472,-1.536 19.888,-3.883 4.436,-1.622 8.798,-3.365 13.449,-4.401 3.666,-0.817 6.479,-0.166 9.128,2.528 1.865,1.897 6.555,5.565 6.691,5.803 1.284,2.214 2.676,3.758 4.289,5.421 -0.634,1.389 -1.943,0.751 -2.961,0.99 -2.11,0.499 -4.748,0.89 -4.742,3.531 0.01,2.436 2.516,3.189 4.54,3.95 0.232,0.088 0.512,0.061 0.768,0.086 4.747,0.432 8.986,-1.526 12.927,-3.577 2.759,-1.436 5.514,-3.228 7.858,-5.599 3.017,-3.055 6.145,-6.021 9.13904,-9.107 1.189,-1.226 1.55,-3.043 2.036,-4.688 0.372,-1.253 -0.364,-1.701 -1.501,-1.803 -1.571,-0.139 -3.06904,0.273 -4.58204,0.566 0.187,-1.221 1.187,-1.853 1.92804,-2.677 1.24,-1.383 1.888,-5.543 1.114,-7.093 -1.033,-2.069 -4.94204,-1.698 -7.02004,0.667 -0.608,1.013 -1.794,0.865 -2.677,1.324 -3.282,-0.045 -5.421,2.29 -7.846,3.914 -3.821,2.56 -7.976,3.826 -12.186,1.962 -3.41,-1.508 -6.647,-3.843 -6.416,-8.465 0.021,-0.391 -0.251,-0.818 -0.447,-1.196 -3.251,-6.209 -2.913,-12.854 -1.735,-19.358 0.811,-4.483 2.312,-8.946 5.483,-12.544 0.558,-0.63 3.958,-5.46 5.053,-7.41 0.121,-0.218 3.654,-2.775 5.257,-3.847 4.389,-2.934 8.343,-6.729 14.233,-6.501 2.372,0.093 4.142,-1.324 5.666,-3.118 4.73704,-5.575 7.44804,-12.312 10.83604,-18.659 1.591,-2.981 2.243,-6.29 4.406,-9.16 3.808,-5.052 7.726,-10.078 10.796,-15.679 1.312,-2.388 4.154,-2.845 6.242,-1.305 2.412,1.784 4.405,3.925 6.071,6.522 1.736,2.708 3.134,5.64 5.396,8.08 1.71,1.844 4.029,3.412 4.665,6.066 0.367,1.534 1.409,2.23 2.54,3.055 1.685,1.23 2.55,0.022 3.733,-0.864 1.495,-1.118 0.106,-1.752 -0.222,-2.549 -0.934,-2.273 -2.385,-4.225 -3.688,-6.285 -2.543,-4.025 -4.362,-8.509 -7.313,-12.327 -0.219,-0.292 -0.118,-0.827 -0.166,-1.244 z m 6.063,89.65 c 3.322,-3.295 7.463,-5.425 11.274,-8.024 1.698,-1.158 3.352,-2.44 4.559,-4.127 0.891,-1.248 1.696,-2.763 0.982,-4.277 -0.673,-1.419 -2.237,-0.919 -3.496,-0.931 -0.514,-0.004 -1.028,-0.031 -1.543,-0.048 1.549,-2.274 3.833,-2.821 6.319,-2.377 1.937,0.347 3.791,1.125 5.701,1.637 1.417,0.38 2.595,0.068 3.044,-1.531 1.071,-3.824 -2.161,-7.845 -6.182,-7.948 -2.965,-0.076 -5.111,1.874 -7.704,2.657 -4.477,1.355 -8.624,3.457 -12.669,5.687 -2.063,1.136 -3.813,2.901 -6.215,3.396 -1.798,0.37 -2.829,1.536 -3.657,2.995 -1.154,2.034 -0.33,3.384 2.064,3.242 1.897,-0.112 3.652,-0.913 5.473,-1.408 4.089,-1.115 7.401,-3.933 11.483,-5.012 -0.222,1.05 -1.056,1.417 -1.892,1.928 -2.078,1.273 -4.438,2.189 -5.899,4.31 -4.879,2.524 -9.787,4.918 -15.284,5.904 -3.732,0.669 -7.292,0.376 -10.339,-1.858 -4.396,-3.222 -9.278,-5.472 -14.128,-7.841 -3.025,-1.477 -5.55,-3.576 -7.064,-6.695 -0.639,-2.889 -1.094,-5.861 -3.25004,-8.135 -1.251,-1.32 -2.838,-1.291 -4.259,-0.527 -1.259,0.676 -1.222,1.724 -0.831,3.283 0.343,1.371 0.909,3.314 -0.559,4.191 -1.461,0.873 -3.249,0.925 -4.998,1.045 -2.531,0.173 -3.843,2.082 -3.666,4.931 0.115,1.868 0.325,3.282 3.033,3.404 0.601,0.027 1.886,0.768 2.009,0.819 4.859,2.071 17.14004,6.382 17.81204,6.68 2.948,1.304 5.878,2.665 8.898,3.786 0.923,0.341 6.687,1.78 7.199,4.012 0.21,2.72 1.49,5.038 2.756,7.362 0.183,1.936 0.355,3.87 0.042,5.808 -1.352,2.003 -1.976,4.289 -2.461,6.604 -1.084,5.204 -3.853,9.595 -6.623,13.992 -0.709,1.123 -1.498,2.277 -0.399,3.51 1.077,1.205 2.472,1.069 3.785,0.388 1.232,-0.64 2.438,-1.449 3.132,-2.642 1.454,-2.503 3.156,-4.96 4.311,-7.513 1.665,-3.682 2.732,-7.632 4.496,-11.364 1.968,-4.155 4.3,-7.941 7.082,-11.563 2.04,-2.656 7.481,-7.567 7.664,-7.75 z m -103.06204,40.732 c 1.762,0.724 2.796,0.346 3.943,-0.478 1.501,-1.081 3.335,-1.004 4.883,-0.17 0.996,0.534 1.486,1.877 0.872,2.966 -1.118,1.979 -1.259,4.3 -2.392,6.247 -0.758,1.299 -0.661,2.279 0.922,2.815 0.979,0.331 1.758,1.013 1.65,2.065 -0.272,2.699 1.364,3.898 3.483,4.778 1.616,0.674 2.481,1.764 2.28,3.601 -0.125,1.154 0.015,2.524 1.03,3.036 2.354,1.184 4.839,2.826 7.314,2.905 9.767,0.307 19.521,0.439 28.864,-3.612 4.53804,-1.972 9.67104,-2.376 14.60804,-2.916 5.239,-0.567 10.304,-1.78 15.356,-3.135 3.642,-0.976 5.334,-4.72 2.911,-6.695 -3.108,-2.531 -6.521,-4.136 -10.904,-3.42 -3.627,0.593 -7.352,0.548 -10.907,1.746 -0.972,0.327 -2.087,0.145 -2.793,-0.854 -0.75,-1.062 -0.544,-2.161 0.067,-3.158 0.443,-0.722 1.103,-1.31 1.642,-1.975 1.832,-2.271 4.116,-4.323 5.377,-6.876 2.191,-4.438 3.784,-9.173 5.557,-13.813 1.461,-3.831 3.193,-7.604 2.939,-11.877 -0.153,-2.532 -2.218,-5.131 -4.373,-5.369 -4.604,-0.508 -8.475,3.699 -7.569,8.22 0.403,2.027 0.915,4.129 -0.431,5.962 -2.341,3.187 -4.669,6.483 -7.813,8.882 -4.96104,3.791 -9.33204,8.253 -14.57404,11.776 -3.921,2.636 -7.473,5.994 -11.3,8.891 -2.283,1.727 -6.436,0.915 -7.631,-1.637 -1.345,-2.873 -3.079,-5.534 -4.031,-8.634 -1.239,-4.037 -4.424,-6.26 -8.192,-5.981 -2.483,0.183 -4.949,0.501 -7.451,0.511 -1.678,0.007 -2.91,1.049 -1.969,2.643 1.058,1.781 0.093,2.478 -1.368,3.556 z m 100.58004,-92.731 c -0.309,-1.419 -0.866,-3.08 -1.009,-4.776 -0.639,-7.675 -4.613,-13.267 -10.739,-17.547 -2.015,-1.411 -5.251,-1.442 -6.493,0.024 -1.164,1.369 -2.237,2.86 -3.093,4.437 -1.905,3.514 -2.146,3.709 -5.994,3.113 -2.021,-0.311 -3.466,1.209 -2.948,3.224 0.229,0.901 0.897,1.695 1.095,2.597 0.292,1.337 0.595,3.251 -1.447,3.098 -3.676,-0.273 -4.951,2.37 -6.405,4.706 -3.434,5.527 -2.066,8.06 4.426,8.274 2.105,0.07 3.294,0.74 3.275,2.949 -0.029,2.938 1.419,4.678 3.883,6.339 3.159,2.133 6.226,4.606 8.09,8.185 0.715,1.375 1.885,1.513 3.265,0.589 4.741,-3.17 8.573,-7.385 12.819,-11.119 0.603,-0.528 2.007,-1.544 1.099,-2.77 -1.099,-1.482 -0.8,-3.099 -0.955,-4.705 -0.218,-2.225 0.96,-4.185 1.131,-6.618 z m -66.31904,56.542 c 0.544,-0.947 -1.046,-3.297 1.264,-3.542 2.104,-0.223 2.508,1.942 2.869,3.655 0.02,0.084 0,0.174 0.025,0.257 0.818,3.323 4.8,5.403 7.915,4.023 3.223,-1.429 6.308,-2.987 8.443,-6.081 1.70604,-2.468 1.46004,-3.51 -1.553,-4.123 -3.069,-0.625 -6.308,-0.606 -9.008,-2.596 -2.615,-1.923 -5.633,-3.414 -7.891,-5.675 -3.229,-3.233 -3.125,-7.458 -1.911,-11.623 0.306,-1.045 0.304,-1.857 -0.634,-2.494 -1.067,-0.724 -1.912,-0.286 -2.749,0.501 -3.231,3.04 -5.818,6.323 -5.082,11.201 0.216,1.432 0.13,2.933 0.019,4.389 -0.144,1.888 0.697,3.119 2.259,3.995 0.675,0.38 1.425,0.677 1.999,1.174 0.758,0.657 1.951,1.247 1.81,2.357 -0.162,1.262 -1.563,1.056 -2.487,1.364 -0.732,0.243 -1.515,0.376 -2.206,0.702 -2.181,1.022 -1.905,3.002 -1.877,4.915 0.025,1.684 0.984,2.402 2.444,2.873 4.428,1.426 6.379,-0.061 6.351,-5.272 z m 61.26304,35.026 c 1.389,-0.141 3.034,0.235 4.638,-0.31 0.995,-0.337 2.158,-0.589 2.255,-1.806 0.097,-1.264 -0.93,-1.636 -2.02,-1.903 -1.644,-0.404 -2.812,-1.808 -2.253,-3.196 0.912,-2.281 1.125,-4.775 2.595,-6.927 2.396,-3.505 4.068,-7.339 3.425,-11.831 -0.292,-2.041 -1.35,-3.109 -3.381,-2.795 -1.696,0.262 -2.804,1.282 -3.929,2.617 -2.168,2.577 -2.748,5.825 -4.189,8.694 -1.759,3.512 -3.395,7.1 -3.45,11.19 -0.085,6.29 -0.137,6.289 6.309,6.267 z m 15.294,-78.206 c 1.634,0.388 2.696,-0.727 3.769,-2.116 2.087,-2.699 2.269,-6.483 5.534,-8.631 1.468,-0.964 0.295,-2.503 -1.489,-2.619 -3.462,-0.226 -5.862,-1.75 -7.466,-4.948 -1.16,-2.318 -3.696,-2.968 -5.439,-1.927 -2.133,1.273 -3.219,4.48 -1.968,6.523 1.29,2.105 1.279,4.283 0.722,6.472 -1.6,6.31 -1.328,6.742 5.269,7.243 0.256,0.02 0.514,0.003 1.068,0.003 z m 12.445,-26.355 c -0.144,-0.501 -0.338,-1.073 -0.469,-1.657 -1.045,-4.656 -4.386,-8.092 -6.472,-12.192 -1.157,-2.274 -2.884,-3.727 -5.558,-4.017 -1.132,-0.123 -2.101,-0.027 -2.854,0.745 -0.775,0.791 -0.067,1.68 0.253,2.382 0.913,2.015 1.795,3.996 3.344,5.732 2.591,2.897 3.773,6.639 5.233,10.199 0.854,2.087 2.93,1.943 4.674,1.672 1.301,-0.201 1.771,-1.471 1.849,-2.864 z m -43.934,138.828 c -3.444,-0.663 -6.228,1.546 -9.118,3.353 -0.888,0.556 -2.074,1.242 -1.51,2.634 0.498,1.23 1.69,1.467 2.835,1.241 3.893,-0.766 7.157,0.458 10.323,2.675 2.879,2.017 4.458,1.142 4.756,-2.281 0.053,-0.592 0.236,-1.173 0.337,-1.762 0.454,-2.611 -0.493,-4.266 -2.991,-5.263 -1.385,-0.553 -2.826,-0.702 -4.632,-0.597 z m 29.049,-68.816 c 0.056,1.719 2.422,4.882 3.944,4.988 2.501,0.175 4.244,-1.397 4.891,-3.464 0.805,-2.56 1.753,-4.69 4.122,-6.194 1.14,-0.724 1.758,-2.222 1.093,-3.637 -0.481,-1.025 -1.427,-1.733 -2.732,-1.541 -1.313,0.195 -1.949,1.046 -2.016,2.295 -0.16,2.981 -2.071,3.792 -4.637,3.867 -0.598,0.016 -1.237,0 -1.779,0.205 -1.604,0.598 -2.913,1.509 -2.886,3.481 z m -3.777,65.792 c -3.261,0.043 -5.085,1.534 -5.049,4.13 0.034,2.702 2.253,4.54 5.436,4.512 2.251,-0.021 3.871,-1.827 3.791,-4.223 -0.093,-2.853 -1.606,-4.452 -4.178,-4.419 z m -4.537,-19.351 c 0.362,-2.982 -2.194,-3.524 -4.305,-4.291 -1.329,-0.48 -3.085,-0.918 -4.075,0.368 -0.96,1.249 -0.677,2.959 0.022,4.4 0.788,1.628 2.24,2.646 3.877,3.159 2.89,0.912 4.469,-0.376 4.481,-3.636 z"
       id="path11" />
    <path
       style="fill:#f3c4da;fill-opacity:1;stroke:#000000;stroke-width:1px;stroke-linecap:butt;stroke-linejoin:miter;stroke-opacity:1"
       d="m -264.52062,1223.7298 c 0,0 0,-115 0,-185 12.5,15 41.25,20 65,30 23.75,10 29.5862,30 60,30 30,0 104.6176,-68.6189 135.0000003,-70 109.9999997,-5 144.9999997,-34.99997 239.9999997,-59.99997 0,69.99997 -0.0478,255.72047 -0.0478,255.72047 z"
       id="path4587-8"
       inkscape:connector-curvature="0"
       sodipodi:nodetypes="ccsssccc" />
    <g
       transform="translate(32.19808,1581.0569)"
       style="font-size:40px;font-style:normal;font-weight:normal;line-height:125%;letter-spacing:0px;word-spacing:0px;fill:#000000;fill-opacity:1;stroke:none;font-family:Sans"
       id="flowRoot4388-7-4-8">
      <path
         d="m -168.78906,-419.32706 0,-28.63281 3.78906,0 0,25.2539 14.10156,0 0,3.37891 z"
         style=""
         id="path2990" />
      <path
         d="m -132.61719,-426.00675 3.63282,0.44922 c -0.57294,2.1224 -1.63414,3.76953 -3.1836,4.94141 -1.54949,1.17187 -3.52866,1.75781 -5.9375,1.75781 -3.03386,0 -5.43946,-0.93425 -7.2168,-2.80274 -1.77734,-1.86848 -2.66601,-4.48892 -2.66601,-7.86132 0,-3.48957 0.89843,-6.1979 2.69531,-8.125 1.79687,-1.92707 4.1276,-2.89061 6.99219,-2.89063 2.77342,2e-5 5.03905,0.94403 6.79687,2.83203 1.7578,1.88804 2.6367,4.54429 2.63672,7.96875 -2e-5,0.20835 -0.007,0.52085 -0.0195,0.9375 l -15.46875,0 c 0.1302,2.27866 0.77473,4.02345 1.9336,5.23438 1.15884,1.21094 2.60415,1.81641 4.33593,1.8164 1.28905,1e-5 2.38931,-0.33853 3.30078,-1.01562 0.91145,-0.67708 1.6341,-1.75781 2.16797,-3.24219 z m -11.54297,-5.68359 11.58204,0 c -0.15627,-1.74478 -0.59898,-3.05337 -1.32813,-3.92578 -1.11981,-1.35415 -2.57163,-2.03124 -4.35547,-2.03125 -1.61459,1e-5 -2.97201,0.54038 -4.07226,1.62109 -1.10027,1.08075 -1.70899,2.52606 -1.82618,4.33594 z"
         style=""
         id="path2992" />
      <path
         d="m -123.71094,-419.32706 0,-18.00781 -3.10547,0 0,-2.73438 3.10547,0 0,-2.20703 c 0,-1.3932 0.1237,-2.42836 0.3711,-3.10547 0.33853,-0.91143 0.93424,-1.65036 1.78711,-2.2168 0.85285,-0.56637 2.04751,-0.84958 3.58398,-0.8496 0.98957,2e-5 2.08332,0.11721 3.28125,0.35156 l -0.52734,3.0664 c -0.72918,-0.13018 -1.41929,-0.19528 -2.07032,-0.19531 -1.06771,3e-5 -1.82292,0.22789 -2.26562,0.6836 -0.44272,0.45575 -0.66407,1.30861 -0.66406,2.55859 l 0,1.91406 4.04296,0 0,2.73438 -4.04296,0 0,18.00781 z"
         style=""
         id="path2994" />
      <path
         d="m -105.78125,-422.47159 0.50781,3.10547 c -0.98959,0.20833 -1.87501,0.3125 -2.65625,0.3125 -1.27605,0 -2.26563,-0.20183 -2.96875,-0.60547 -0.70313,-0.40365 -1.19792,-0.93425 -1.48437,-1.5918 -0.28646,-0.65755 -0.42969,-2.04101 -0.42969,-4.15039 l 0,-11.93359 -2.57813,0 0,-2.73438 2.57813,0 0,-5.13672 3.49609,-2.10937 0,7.24609 3.53516,0 0,2.73438 -3.53516,0 0,12.1289 c 0,1.00261 0.0619,1.64714 0.18555,1.9336 0.12369,0.28646 0.32551,0.51432 0.60547,0.68359 0.27994,0.16927 0.68033,0.25391 1.20117,0.25391 0.39062,0 0.90494,-0.0456 1.54297,-0.13672 z"
         style=""
         id="path2996" />
      <path
         d="m -83.535156,-419.32706 0,-25.25391 -9.433594,0 0,-3.3789 22.695313,0 0,3.3789 -9.472657,0 0,25.25391 z"
         style=""
         id="path2998" />
      <path
         d="m -52.617187,-426.00675 3.632812,0.44922 c -0.572937,2.1224 -1.634133,3.76953 -3.183594,4.94141 -1.549495,1.17187 -3.528659,1.75781 -5.9375,1.75781 -3.033862,0 -5.439459,-0.93425 -7.216797,-2.80274 -1.777346,-1.86848 -2.666017,-4.48892 -2.666015,-7.86132 -2e-6,-3.48957 0.898435,-6.1979 2.695312,-8.125 1.796869,-1.92707 4.127596,-2.89061 6.992188,-2.89063 2.773423,2e-5 5.039046,0.94403 6.796875,2.83203 1.757793,1.88804 2.636698,4.54429 2.636719,7.96875 -2.1e-5,0.20835 -0.0065,0.52085 -0.01953,0.9375 l -15.46875,0 c 0.130203,2.27866 0.774734,4.02345 1.933594,5.23438 1.158846,1.21094 2.604157,1.81641 4.335938,1.8164 1.289049,1e-5 2.389309,-0.33853 3.300781,-1.01562 0.911443,-0.67708 1.634098,-1.75781 2.167969,-3.24219 z m -11.542969,-5.68359 11.582031,0 c -0.156267,-1.74478 -0.598975,-3.05337 -1.328125,-3.92578 -1.119806,-1.35415 -2.571628,-2.03124 -4.355469,-2.03125 -1.614593,1e-5 -2.972013,0.54038 -4.072265,1.62109 -1.100267,1.08075 -1.70899,2.52606 -1.826172,4.33594 z"
         style=""
         id="path3000" />
      <path
         d="m -44.550781,-419.32706 0,-20.74219 3.144531,0 0,2.91016 c 0.651035,-1.01561 1.51692,-1.83266 2.597656,-2.45117 1.08072,-0.61847 2.311187,-0.92772 3.691407,-0.92774 1.536444,2e-5 2.796209,0.31903 3.779296,0.95703 0.983056,0.63804 1.676415,1.52997 2.080079,2.67578 1.640605,-2.42185 3.776019,-3.63279 6.40625,-3.63281 2.057265,2e-5 3.639294,0.56968 4.746093,1.70899 1.106741,1.13934 1.660126,2.89389 1.660157,5.26367 l 0,14.23828 -3.496094,0 0,-13.06641 c -2.7e-5,-1.40623 -0.11396,-2.4186 -0.341797,-3.03711 -0.227891,-0.61847 -0.641302,-1.11652 -1.240234,-1.49414 -0.598984,-0.37758 -1.302108,-0.56639 -2.109375,-0.5664 -1.458356,1e-5 -2.669292,0.48504 -3.632813,1.45507 -0.963561,0.97007 -1.445331,2.52281 -1.445312,4.65821 l 0,12.05078 -3.515625,0 0,-13.47656 c -1.5e-5,-1.56249 -0.286474,-2.73436 -0.859375,-3.51563 -0.572931,-0.78123 -1.51043,-1.17186 -2.8125,-1.17187 -0.989594,1e-5 -1.904307,0.26043 -2.744141,0.78125 -0.839852,0.52085 -1.448575,1.28256 -1.826172,2.28515 -0.377611,1.00262 -0.566412,2.44793 -0.566406,4.33594 l 0,10.76172 z"
         style=""
         id="path3002" />
      <path
         d="m -11.191406,-411.37784 0,-28.69141 3.2031248,0 0,2.69531 c 0.7552017,-1.05466 1.6080654,-1.84568 2.5585937,-2.37304 0.9505115,-0.52733 2.1028541,-0.791 3.4570313,-0.79102 1.77081966,2e-5 3.3333181,0.45575 4.6875,1.36719 1.3541487,0.91148 2.3762831,2.19728 3.0664062,3.85742 0.6900839,1.66017 1.0351356,3.47983 1.0351562,5.45899 -2.06e-5,2.1224 -0.3808796,4.0332 -1.1425781,5.73242 -0.7617375,1.69922 -1.8685072,3.0013 -3.3203125,3.90625 -1.45183762,0.90495 -2.9785288,1.35742 -4.5800781,1.35742 -1.1718854,0 -2.2233167,-0.2474 -3.1542969,-0.74219 -0.9309971,-0.49479 -1.6959703,-1.11979 -2.2949218,-1.875 l 0,10.09766 z m 3.1835935,-18.20313 c -5.8e-6,2.66928 0.5403582,4.64194 1.6210938,5.91797 1.0807206,1.27605 2.389313,1.91407 3.9257812,1.91406 1.56248707,1e-5 2.90037636,-0.6608 4.0136719,-1.98242 1.1132647,-1.32161 1.6699048,-3.36913 1.6699219,-6.14258 -1.71e-5,-2.64321 -0.5436363,-4.62238 -1.6308594,-5.9375 -1.08725394,-1.31508 -2.38608077,-1.97263 -3.8964844,-1.97265 -1.4974059,2e-5 -2.8222743,0.69989 -3.9746094,2.09961 -1.1523501,1.39975 -1.7285214,3.43425 -1.7285156,6.10351 z"
         style=""
         id="path3004" />
      <path
         d="m 9.765625,-429.69815 c -1.3e-6,-3.84114 1.067706,-6.68619 3.203125,-8.53516 1.783848,-1.53644 3.958325,-2.30467 6.523437,-2.30469 2.851549,2e-5 5.182276,0.93427 6.992188,2.80274 1.809876,1.8685 2.714823,4.44988 2.714844,7.74414 -2.1e-5,2.66928 -0.400411,4.76888 -1.201172,6.29882 -0.8008,1.52996 -1.966164,2.71811 -3.496094,3.56446 -1.529962,0.84635 -3.199883,1.26953 -5.009766,1.26953 -2.903653,0 -5.250656,-0.93099 -7.041015,-2.79297 -1.790367,-1.86197 -2.6855483,-4.54426 -2.685547,-8.04687 z m 3.613281,0 c -5e-6,2.65625 0.579422,4.64518 1.738282,5.96679 1.158846,1.32162 2.617178,1.98243 4.374999,1.98242 1.744779,1e-5 3.196601,-0.66406 4.355469,-1.99218 1.158838,-1.32812 1.738264,-3.35286 1.738281,-6.07422 -1.7e-5,-2.56509 -0.582698,-4.50845 -1.748046,-5.83008 -1.165379,-1.3216 -2.613945,-1.9824 -4.345704,-1.98242 -1.757821,2e-5 -3.216153,0.65757 -4.374999,1.97265 -1.15886,1.31512 -1.738287,3.3008 -1.738282,5.95704 z"
         style=""
         id="path3006" />
      <path
         d="m 33.300781,-419.32706 0,-20.74219 3.164063,0 0,3.14453 c 0.807285,-1.47133 1.552727,-2.44138 2.236328,-2.91015 0.683585,-0.46873 1.435537,-0.70311 2.255859,-0.70313 1.184885,2e-5 2.389311,0.37763 3.613281,1.13281 l -1.210937,3.26172 c -0.859387,-0.50779 -1.718761,-0.7617 -2.578125,-0.76172 -0.768238,2e-5 -1.458342,0.23114 -2.070313,0.69336 -0.611986,0.46226 -1.048184,1.10353 -1.308593,1.92383 -0.390632,1.25002 -0.585944,2.6172 -0.585938,4.10156 l 0,10.85938 z"
         style=""
         id="path3008" />
      <path
         d="m 60.234375,-421.88565 c -1.302098,1.10677 -2.555352,1.88802 -3.759766,2.34375 -1.204438,0.45572 -2.496754,0.68359 -3.876953,0.68359 -2.278652,0 -4.029952,-0.55664 -5.253906,-1.66992 -1.22396,-1.11328 -1.835939,-2.53581 -1.835938,-4.26758 -1e-6,-1.01562 0.231119,-1.94335 0.69336,-2.7832 0.462237,-0.83984 1.067705,-1.51367 1.816406,-2.02149 0.748693,-0.5078 1.591791,-0.89191 2.529297,-1.15234 0.690097,-0.18228 1.731763,-0.35806 3.125,-0.52735 2.838529,-0.33853 4.928371,-0.74217 6.269531,-1.21093 0.013,-0.48176 0.01952,-0.78775 0.01953,-0.91797 -1.5e-5,-1.43228 -0.332046,-2.44139 -0.996093,-3.02735 -0.898452,-0.79425 -2.233086,-1.19138 -4.003907,-1.1914 -1.653655,2e-5 -2.874356,0.28973 -3.662109,0.86914 -0.787767,0.57944 -1.370448,1.60483 -1.748047,3.07617 l -3.4375,-0.46875 c 0.312498,-1.47134 0.82682,-2.65949 1.542969,-3.56445 0.716142,-0.90493 1.751297,-1.60155 3.105469,-2.08985 1.354158,-0.48826 2.923167,-0.7324 4.707031,-0.73242 1.77082,2e-5 3.209621,0.20836 4.316406,0.625 1.106754,0.41669 1.920556,0.94078 2.441406,1.57227 0.520815,0.63153 0.885398,1.42905 1.09375,2.39258 0.117169,0.59897 0.175762,1.6797 0.175782,3.24218 l 0,4.6875 c -2e-5,3.26824 0.07485,5.33529 0.224609,6.20117 0.14972,0.86589 0.445944,1.69597 0.888672,2.49024 l -3.671875,0 c -0.3646,-0.72917 -0.598975,-1.58203 -0.703125,-2.55859 z m -0.292969,-7.85157 c -1.276056,0.52085 -3.190117,0.96355 -5.742187,1.32813 -1.445321,0.20834 -2.467456,0.44271 -3.066407,0.70312 -0.598964,0.26043 -1.061203,0.64129 -1.386718,1.14258 -0.325526,0.50131 -0.488287,1.05795 -0.488282,1.66992 -5e-6,0.93751 0.354813,1.71876 1.064454,2.34375 0.709628,0.62501 1.748038,0.93751 3.115234,0.9375 1.354156,10e-6 2.558582,-0.29622 3.613281,-0.88867 1.054674,-0.59244 1.829413,-1.40299 2.324219,-2.43164 0.377588,-0.79426 0.56639,-1.96614 0.566406,-3.51562 z"
         style=""
         id="path3010" />
      <path
         d="m 68.886719,-419.32706 0,-28.63281 3.515625,0 0,28.63281 z"
         style=""
         id="path3012" />
    </g>
  </g>
</svg>
