<?xml version="1.0" encoding="utf-8"?>
<!-- Generator: Adobe Illustrator 16.0.0, SVG Export Plug-In . SVG Version: 6.00 Build 0)  -->
<!DOCTYPE svg PUBLIC "-//W3C//DTD SVG 1.1//EN" "http://www.w3.org/Graphics/SVG/1.1/DTD/svg11.dtd">
<svg version="1.1" id="Layer_1" xmlns="http://www.w3.org/2000/svg" xmlns:xlink="http://www.w3.org/1999/xlink" x="0px" y="0px"
	 width="617.27px" height="233px" viewBox="0 0 617.27 233" enable-background="new 0 0 617.27 233" xml:space="preserve">
<path fill="#201C1D" d="M199.426,85.021c-12.082,0-25.569,4.655-28.395,19.975c-0.302,1.626,0.776,2.403,1.816,2.642l12.384,1.484
	c1.145-0.059,1.923-1.305,2.144-2.478c1.057-5.271,5.394-7.76,10.239-7.76c2.615,0,5.552,0.897,7.101,3.302
	c1.775,2.679,1.647,6.318,1.647,9.408v1.818c-7.358,0.844-17.048,1.357-23.937,4.458c-7.95,3.535-13.535,10.725-13.535,21.296
	c0,13.545,8.3,20.308,18.986,20.308c9.023,0,14.01-2.119,20.968-9.41c2.308,3.435,3.048,4.993,7.263,8.585
	c0.956,0.546,2.156,0.413,2.97-0.327v0.164c2.536-2.314,7.147-6.52,9.742-8.748c1.035-0.867,0.808-2.294,0-3.467
	c-2.32-3.285-4.787-5.938-4.787-12.049v-20.308c0-8.6,0.729-16.53-5.447-22.453C213.71,86.671,205.597,85.021,199.426,85.021
	L199.426,85.021z M365.835,85.021c-12.087,0-25.564,4.655-28.395,19.975c-0.302,1.626,0.77,2.403,1.816,2.642l12.383,1.484
	c1.146-0.059,1.928-1.305,2.145-2.478c1.062-5.271,5.394-7.76,10.238-7.76c2.621,0,5.554,0.897,7.1,3.302
	c1.77,2.679,1.486,6.318,1.486,9.408v1.818c-7.36,0.844-16.879,1.357-23.773,4.458c-7.956,3.535-13.534,10.725-13.534,21.296
	c0,13.545,8.305,20.308,18.987,20.308c9.011,0,13.999-2.119,20.967-9.41c2.303,3.435,3.048,4.993,7.264,8.585
	c0.951,0.507,2.129,0.455,2.968-0.327v0.164c2.536-2.314,7.148-6.52,9.742-8.748c1.031-0.867,0.792-2.294,0-3.467
	c-2.319-3.285-4.787-5.938-4.787-12.049v-20.308c0-8.6,0.555-16.53-5.611-22.453C379.951,86.671,372.004,85.021,365.835,85.021
	L365.835,85.021z M272.229,85.683c-7.808,0-13.599,3.94-16.673,12.383h-0.164v-8.748c-0.086-1.241-1.073-2.228-2.314-2.314h-11.885
	c-1.36,0.02-2.459,1.117-2.479,2.478v66.858c0.117,1.228,1.088,2.198,2.314,2.315h12.711c1.362-0.015,2.463-1.116,2.478-2.478
	v-35.496c0-7.739-0.375-18.325,8.748-18.325c9.007,0,7.76,10.876,7.76,18.325v35.496c0,1.262,1.031,2.393,2.314,2.478h12.711
	c1.362-0.015,2.463-1.116,2.478-2.478v-35.496c0-3.799-0.154-9.33,1.156-12.71c1.306-3.38,4.512-5.611,7.598-5.611
	c3.677,0,6.482,1.284,7.428,5.78c0.592,2.673,0.327,9.737,0.327,12.546v35.496c0,1.263,1.03,2.393,2.314,2.477h12.709
	c1.363-0.015,2.464-1.114,2.478-2.477v-42.263c0-7.18,0.723-15.331-3.301-20.967c-3.556-5.062-9.367-7.264-14.691-7.264
	c-7.47,0-14.417,3.94-17.498,12.383C285.188,89.628,280.168,85.683,272.229,85.683L272.229,85.683z M488.333,85.683
	c-18.37,0-28.56,16.149-28.56,36.979c0,20.687,10.079,37.306,28.56,37.306c17.775,0,29.055-16.237,29.055-36.65
	C517.388,102.223,507.171,85.683,488.333,85.683L488.333,85.683z M560.802,85.683c-8.774,0-13.788,4.389-17.334,13.535h-0.163
	V88.978c-0.228-1.035-1.204-1.752-2.313-1.816h-11.724c-1.255-0.029-2.326,0.899-2.478,2.145v66.858
	c0.024,1.296,1.022,2.364,2.314,2.478h12.546c1.36-0.021,2.458-1.117,2.478-2.478v-35.987c0-4.511,0.381-8.626,2.146-12.71
	c1.426-3.238,4.179-5.282,7.264-5.282c8.759,0,7.924,10.676,7.924,17.992v36.32c0.167,1.172,1.133,2.065,2.313,2.145h12.71
	c1.248,0,2.33-0.951,2.478-2.145v-42.099c0-6.472,0.017-15.461-3.301-20.803C572.107,87.832,566.48,85.683,560.802,85.683
	L560.802,85.683z M408.262,86.838c-1.29,0-2.309,1.025-2.315,2.479v9.572c0.007,1.431,0.994,2.467,2.315,2.478h21.79l-24.929,36.815
	c-1.521,2.372-1.648,5.061-1.648,6.604v9.741c0,1.406,1.525,2.933,2.969,2.146c14.205-7.756,31.232-7.068,44.081-0.164
	c1.558,0.85,3.137-0.744,3.137-2.145v-10.239c-0.073-1.534-0.954-2.918-2.313-3.635c-7.291-4.194-15.753-5.478-23.773-5.282
	l21.628-31.697c2.003-2.847,3.123-4.564,3.139-5.943v-8.25c0-1.422-0.974-2.479-2.314-2.479H408.262z M488.333,99.386
	c4.025,0,6.994,1.795,8.42,6.439c1.649,5.352,1.816,12.034,1.816,17.666c0,8.58-0.4,22.779-10.236,22.779
	c-9.949,0-9.906-17.58-9.906-25.754C478.428,112.366,478.971,99.386,488.333,99.386z M206.194,123.818v2.806
	c0,5.077,0.185,9.35-2.314,13.866c-2.017,3.672-5.188,5.945-8.748,5.945c-4.861,0-7.761-3.942-7.761-9.573
	C187.376,125.758,197.023,123.818,206.194,123.818z M372.602,123.818v2.806c0,5.077,0.185,9.35-2.314,13.866
	c-2.018,3.672-5.171,5.945-8.748,5.945c-4.865,0-7.76-3.942-7.76-9.573C353.785,125.758,363.42,123.818,372.602,123.818z"/>
<path d="M454.982,160.799v9.571h6.439v-9.571H454.982z M268.267,162.445v68.182h5.942v-6.106c1.269,2.419,2.71,4.231,4.459,5.445
	c1.744,1.216,3.747,1.818,5.943,1.818c4.364,0,8.131-2.23,11.391-6.769c3.26-4.537,4.955-11.115,4.955-19.482
	c0-5.478-0.703-10.016-2.145-13.867c-1.441-3.841-3.37-6.698-5.78-8.584c-2.408-1.886-5.145-2.97-8.088-2.97
	c-2.045-0.021-4.052,0.552-5.778,1.648c-1.717,1.099-3.106,2.891-4.459,5.119v-24.433L268.267,162.445L268.267,162.445z
	 M329.352,178.464c-4.48,0-8.035,1.326-10.566,3.962c-2.531,2.631-3.798,6.028-3.798,10.238c0,2.446,0.549,4.512,1.484,6.44
	c0.935,1.928,2.282,3.477,3.962,4.621c1.691,1.146,5.062,2.653,10.07,4.29c3.464,1.115,5.537,2.065,6.439,2.805
	c1.312,1.083,1.981,2.505,1.981,4.46c0,2.261-0.782,4.146-2.314,5.61c-1.526,1.474-3.65,2.144-6.439,2.144
	c-2.79,0-5.088-0.781-6.768-2.478c-1.68-1.695-2.588-4.272-2.968-7.76l-6.441,1.32c1.454,10.593,6.736,15.854,15.849,15.849
	c4.861,0,8.579-1.379,11.391-4.289c2.81-2.911,4.289-6.842,4.289-11.56c0-2.546-0.448-4.754-1.32-6.604
	c-0.871-1.849-2.071-3.218-3.635-4.289c-1.569-1.066-5.065-2.494-10.402-4.289c-3.877-1.359-6.148-2.352-6.932-2.97
	c-1.315-1.045-1.98-2.473-1.98-4.29c0-1.858,0.613-3.433,1.98-4.622c1.369-1.188,3.477-1.817,6.276-1.817
	c4.925,0,7.678,2.705,8.253,8.088l6.274-0.992c-0.432-3.408-1.177-6.097-2.313-7.925c-1.137-1.828-2.817-3.369-4.957-4.459
	C334.634,178.866,332.178,178.464,329.352,178.464L329.352,178.464z M368.809,178.464c-5.161,0-9.514,2.124-12.88,6.604
	c-3.365,4.48-4.955,10.968-4.955,19.484c0,8.204,1.622,14.633,4.955,18.985c3.334,4.348,7.655,6.439,13.043,6.439
	c4.285,0,7.834-1.283,10.729-3.962c2.901-2.678,5.002-6.619,6.107-11.887l-6.604-1.156c-1.896,6.746-5.394,10.059-10.238,10.068
	c-3.085,0-5.605-1.311-7.761-4.126c-2.154-2.821-3.375-7.006-3.635-12.546h28.396v-2.313c0-8.332-1.66-14.587-4.957-18.987
	C377.726,180.667,373.727,178.464,368.809,178.464L368.809,178.464z M407.933,178.464c-1.542,0-2.89,0.523-4.126,1.648
	c-1.236,1.126-2.64,3.46-4.126,6.932v-7.597h-5.779v49.361h6.439v-25.748c0-3.592,0.339-7.047,1.157-10.237
	c0.465-1.828,1.343-3.271,2.478-4.29c1.136-1.021,2.431-1.484,3.799-1.484c1.517,0,3.021,0.607,4.622,1.816l2.145-7.759
	C412.291,179.309,410.089,178.464,407.933,178.464L407.933,178.464z M486.843,178.464c-5.098,0-9.298,2.146-12.547,6.439
	c-3.238,4.291-4.955,10.735-4.955,19.314c0,8.51,1.733,14.961,4.955,19.314c3.218,4.347,7.243,6.439,12.214,6.439
	c4.104,0,7.633-1.527,10.564-4.622c2.933-3.096,4.719-7.649,5.447-13.535l-6.275-0.992c-0.466,4.209-1.563,7.235-3.302,9.244
	c-1.738,1.997-3.83,2.968-6.276,2.968c-3.115,0-5.769-1.452-7.76-4.457c-1.992-3.007-2.969-7.814-2.969-14.528
	c0-6.509,1.051-11.204,3.138-14.2c2.087-2.995,4.744-4.623,7.925-4.623c2.124,0,3.936,0.824,5.446,2.478
	c1.521,1.649,2.53,4.269,3.139,7.598l6.275-1.32c-0.757-5.199-2.426-9.125-5.119-11.724
	C494.048,179.653,490.779,178.464,486.843,178.464L486.843,178.464z M523.658,178.464c-5.161,0-9.515,2.124-12.879,6.604
	c-3.366,4.48-4.955,10.968-4.955,19.484c0,8.204,1.621,14.633,4.955,18.985c3.338,4.348,7.655,6.439,13.042,6.439
	c4.274,0,7.831-1.283,10.729-3.962c2.896-2.678,4.998-6.619,6.107-11.887l-6.604-1.156c-1.896,6.746-5.24,10.059-10.069,10.068
	c-3.084,0-5.77-1.311-7.924-4.126c-2.154-2.821-3.37-7.006-3.635-12.546h28.395v-2.313c0-8.332-1.658-14.587-4.955-18.987
	C532.591,180.667,528.581,178.464,523.658,178.464L523.658,178.464z M561.794,178.464c-4.489,0-8.034,1.326-10.565,3.962
	c-2.535,2.631-3.797,6.028-3.797,10.238c0,2.446,0.386,4.512,1.32,6.44c0.93,1.923,2.27,3.477,3.962,4.621
	c1.68,1.146,5.065,2.653,10.068,4.29c3.455,1.115,5.701,2.065,6.604,2.805c1.31,1.083,1.981,2.505,1.981,4.46
	c0,2.261-0.783,4.146-2.315,5.61c-1.521,1.474-3.649,2.144-6.439,2.144c-2.794,0-5.088-0.781-6.767-2.478
	c-1.681-1.695-2.764-4.272-3.137-7.76l-6.441,1.32c1.452,10.593,6.725,15.854,15.849,15.849c4.865,0,8.743-1.379,11.559-4.289
	c2.816-2.911,4.29-6.842,4.29-11.56c0-2.546-0.449-4.754-1.32-6.604c-0.871-1.849-2.23-3.218-3.799-4.289
	c-1.563-1.066-4.903-2.494-10.237-4.289c-3.878-1.359-6.314-2.352-7.101-2.97c-1.315-1.045-1.981-2.473-1.981-4.29
	c0-1.858,0.776-3.433,2.144-4.622c1.369-1.188,3.487-1.817,6.277-1.817c4.924,0,7.677,2.705,8.251,8.088l6.275-0.992
	c-0.438-3.408-1.173-6.097-2.313-7.925c-1.212-1.912-2.926-3.455-4.955-4.459C567.087,178.866,564.616,178.464,561.794,178.464
	L561.794,178.464z M414.537,179.452l14.363,49.362h6.106l14.364-49.362h-6.603l-8.421,30.212c-1.021,3.65-1.919,6.805-2.478,9.409
	c-0.704-3.281-1.374-6.726-2.314-10.069l-8.252-29.552H414.537L414.537,179.452z M454.982,179.452v49.362h6.439v-49.362H454.982
	L454.982,179.452z M243.342,180.112c-5.108,0-9.219,2.293-12.546,6.767c-3.334,4.48-5.12,10.968-5.12,19.482
	c0,8.204,1.649,14.471,4.955,18.818c3.308,4.348,7.708,6.603,13.044,6.603c4.237,0,7.697-1.446,10.566-4.125
	c2.863-2.679,4.845-6.619,5.943-11.887l-6.439-0.993c-1.876,6.746-5.284,10.06-10.07,10.07c-3.059,0-5.627-1.311-7.76-4.126
	c-2.134-2.822-3.375-7.006-3.635-12.548h28.063l0.164-2.313c0-8.331-1.69-14.749-4.955-19.149
	C252.286,182.311,248.208,180.112,243.342,180.112L243.342,180.112z M170.868,181.27l11.558,49.361h6.768l7.597-37.973l1.32,8.421
	l6.107,29.552h6.603l11.723-49.361h-6.107l-6.441,28.558l-2.145,9.573l-1.98-9.573l-5.611-28.558h-6.603l-5.943,28.892
	l-1.981,10.237l-2.314-10.564l-5.943-28.56h-6.608v-0.005H170.868z M581.77,181.766v2.313h6.275v16.51h2.478v-16.51h6.276v-2.313
	H581.77z M599.271,181.766v18.817h2.314v-16.012l5.447,16.012h2.313l5.446-15.685v15.685h2.479v-18.817h-3.466l-4.459,13.207
	c-0.449,1.32-0.771,2.276-0.992,2.97l-0.993-2.807l-4.459-13.37H599.271L599.271,181.766z M368.64,185.23
	c3.207,0,5.848,1.555,7.924,4.623c1.427,2.103,2.351,5.304,2.642,9.572H357.91c0.201-4.331,1.427-7.676,3.466-10.238
	C363.415,186.626,365.761,185.23,368.64,185.23z M523.494,185.23c3.196,0,5.85,1.555,7.925,4.623
	c1.426,2.103,2.351,5.304,2.642,9.572h-21.295c0.2-4.331,1.426-7.676,3.466-10.238C518.266,186.637,520.609,185.23,523.494,185.23z
	 M243.342,187.049c3.17,0,5.716,1.554,7.761,4.623c1.41,2.101,2.35,5.304,2.641,9.571h-20.969c0.201-4.332,1.274-7.839,3.302-10.401
	C238.092,188.285,240.484,187.049,243.342,187.049z M284.284,187.049c2.863,0,5.298,1.589,7.264,4.623
	c1.964,3.036,2.805,7.717,2.805,14.199c0,6.313-0.93,11.021-2.97,14.2c-2.039,3.18-4.468,4.786-7.099,4.786
	c-1.934,0-3.693-0.65-5.284-1.981c-1.594-1.331-2.762-3.238-3.634-5.778c-0.871-2.541-1.321-6.45-1.321-11.56
	c0-6.017,1.073-10.523,3.139-13.703C279.25,188.654,281.654,187.049,284.284,187.049L284.284,187.049z"/>
<path fill="#F7A80D" d="M78.335,134.712l-24.598,10.564l22.78,9.742l26.415-9.742L78.335,134.712z M41.354,147.919l-0.825,47.546
	l35.987,15.848v-49.361L41.354,147.919z M115.314,147.919l-32.521,12.383v46.552l32.521-13.207V147.919z M154.11,0l-24.765,10.566
	l22.949,9.742l26.414-9.742L154.11,0z M119.772,14.037v47.545l30.705,8.917l0.994-43.255L119.772,14.037z M188.449,16.678
	l-29.056,12.383v46.722l29.056-13.207V16.678z M37.805,66.918L13.207,77.484l22.78,9.742l26.415-9.742L37.805,66.918L37.805,66.918z
	 M0.825,80.125L0,127.67l35.987,15.849V94.155L0.825,80.125z M74.784,80.125L42.263,92.508v46.552l32.521-13.207V80.125
	L74.784,80.125z M117.047,65.164L92.449,75.729l22.78,9.742l26.415-9.742L117.047,65.164z M80.066,78.371l-0.823,47.545
	l35.986,15.849V92.407L80.066,78.371z M154.026,78.371l-32.521,12.382v46.553l32.521-13.207V78.371z M231.509,0l-24.597,10.566
	l22.78,9.742l26.413-9.742L231.509,0z M194.529,13.207l-0.824,47.545l35.987,15.848V27.244L194.529,13.207z M268.488,13.207
	l-32.52,12.383v46.553l32.52-13.208V13.207z"/>
</svg>
