<?xml version="1.0" encoding="utf-8"?>
<!-- Generator: Adobe Illustrator 16.0.0, SVG Export Plug-In . SVG Version: 6.00 Build 0)  -->
<!DOCTYPE svg PUBLIC "-//W3C//DTD SVG 1.1//EN" "http://www.w3.org/Graphics/SVG/1.1/DTD/svg11.dtd">
<svg version="1.1" id="Layer_1" xmlns="http://www.w3.org/2000/svg" xmlns:xlink="http://www.w3.org/1999/xlink" x="0px" y="0px"
	 width="189px" height="233px" viewBox="0 0 189 233" enable-background="new 0 0 189 233" xml:space="preserve">
<polyline fill="#12133E" points="139.511,31.691 110.752,3.579 0.034,116.583 64.642,180.267 109.743,134.14 73.53,98.928 "/>
<polyline fill="#6A6AB1" points="43.776,201.491 72.555,229.578 183.216,116.535 118.586,52.868 73.493,99.021 109.725,134.208 "/>
<polyline fill="#FFFFFF" points="39.474,131.335 39.474,101.621 43.5,101.621 59.112,124.943 59.112,101.621 62.883,101.621 
	62.883,131.335 58.855,131.335 43.249,108.013 43.249,131.335 "/>
<rect x="71.805" y="101.596" fill="#FFFFFF" width="3.924" height="29.739"/>
<path fill="#FFFFFF" d="M85.015,131.335V101.62h11.136c2.271,0,4.106,0.292,5.454,0.9c1.377,0.588,2.459,1.515,3.23,2.759
	c0.786,1.265,1.168,2.577,1.168,3.933c0,1.262-0.346,2.463-1.024,3.59c-0.695,1.109-1.74,2.012-3.132,2.715
	c1.798,0.519,3.183,1.424,4.156,2.689c0.951,1.291,1.449,2.779,1.449,4.521c0,1.376-0.295,2.688-0.879,3.882
	c-0.605,1.201-1.32,2.126-2.182,2.759c-0.879,0.66-1.961,1.153-3.258,1.472c-1.3,0.339-2.895,0.493-4.798,0.493 M88.93,114.094
	h6.433c1.739,0,3.007-0.11,3.757-0.338c1.005-0.298,1.759-0.793,2.257-1.467c0.508-0.708,0.763-1.562,0.763-2.604
	c0-0.994-0.238-1.854-0.713-2.599c-0.475-0.744-1.153-1.266-2.033-1.536c-0.879-0.292-2.379-0.429-4.527-0.429h-5.935L88.93,114.094
	L88.93,114.094L88.93,114.094z M88.93,127.833h7.405c1.28,0,2.16-0.044,2.672-0.156c0.916-0.159,1.67-0.427,2.29-0.794
	c0.605-0.384,1.1-0.945,1.507-1.647c0.382-0.721,0.583-1.561,0.583-2.506c0-1.109-0.292-2.085-0.857-2.895
	c-0.57-0.815-1.359-1.378-2.369-1.716c-1.006-0.343-2.452-0.502-4.358-0.502h-6.872v10.218H88.93V127.833L88.93,127.833z"/>
<rect x="116.048" y="101.596" fill="#FFFFFF" width="3.915" height="29.739"/>
<path fill="#FFFFFF" d="M128.407,131.335V101.62h11.141c2.271,0,4.102,0.292,5.476,0.9c1.355,0.588,2.438,1.515,3.227,2.759
	c0.764,1.265,1.154,2.577,1.154,3.933c0,1.262-0.354,2.463-1.028,3.59c-0.696,1.109-1.719,2.012-3.115,2.715
	c1.795,0.519,3.168,1.424,4.143,2.689c0.97,1.291,1.446,2.779,1.446,4.521c0,1.376-0.292,2.688-0.875,3.882
	c-0.588,1.201-1.323,2.126-2.185,2.759c-0.857,0.66-1.957,1.153-3.258,1.472c-1.298,0.339-2.895,0.493-4.802,0.493 M132.329,114.094
	h6.433c1.738,0,3.002-0.11,3.752-0.338c1.01-0.298,1.764-0.793,2.272-1.467c0.494-0.708,0.753-1.562,0.753-2.604
	c0-0.994-0.242-1.854-0.717-2.599c-0.458-0.744-1.136-1.266-2.016-1.536c-0.879-0.292-2.396-0.429-4.524-0.429h-5.952
	L132.329,114.094L132.329,114.094z M132.329,127.833h7.398c1.283,0,2.181-0.044,2.697-0.156c0.895-0.159,1.666-0.427,2.272-0.794
	c0.602-0.384,1.1-0.945,1.5-1.647c0.389-0.721,0.583-1.561,0.583-2.506c0-1.109-0.292-2.085-0.857-2.895
	c-0.569-0.815-1.352-1.378-2.361-1.716c-1.01-0.343-2.456-0.502-4.341-0.502h-6.89L132.329,127.833L132.329,127.833z"/>
</svg>
