<?xml version="1.0" encoding="utf-8"?>
<!-- Generator: Adobe Illustrator 16.0.0, SVG Export Plug-In . SVG Version: 6.00 Build 0)  -->
<!DOCTYPE svg PUBLIC "-//W3C//DTD SVG 1.1//EN" "http://www.w3.org/Graphics/SVG/1.1/DTD/svg11.dtd">
<svg version="1.1" id="Layer_1" xmlns="http://www.w3.org/2000/svg" xmlns:xlink="http://www.w3.org/1999/xlink" x="0px" y="0px"
	 width="568px" height="233px" viewBox="0 0 568 233" enable-background="new 0 0 568 233" xml:space="preserve">
<g>
	<path fill="#C7C8CA" d="M137.046,32.542H37.982c-6.672,0-11.036,5.134-11.036,12.063v30.338h102.621l-4.56,25.867H26.947v70.118H0
		V43.12C0,23.357,9.239,6.677,34.903,6.677h106.703L137.046,32.542L137.046,32.542z"/>
	<path fill="#004FA3" d="M164.506,6.677v120.365c0,28.23,7.186,43.886,40.291,43.886h178.625V6.677h-27.204V146.29h-54.794
		c-8.726,0-12.063-3.079-12.063-11.292V6.677h-26.689h-0.514V146.29h-55.564c-10.779,0-14.629-3.85-14.629-14.629V6.677H164.506
		L164.506,6.677z"/>
	<path fill="#004FA3" d="M547.672,32.542h-99.063c-6.673,0-11.035,5.134-11.035,12.063v30.338h102.623l-4.563,25.867h-98.061v70.118
		h-26.947V43.12c0-19.761,9.239-36.443,34.902-36.443h106.705L547.672,32.542L547.672,32.542z"/>
	<path d="M1.626,227.332h0.708c1.517,0,3.286,0.05,5.309,0.101c2.427,0.051,4.399,0.051,6.018,0.051
		c4.399,0,7.382-0.656,9.354-2.073c3.59-2.577,5.713-7.989,5.713-14.663c0-7.23-2.022-12.691-5.663-15.169
		c-2.073-1.466-4.6-2.123-8.191-2.123c-0.505,0-3.186,0.051-7.888,0.152H1.931H1.627v0.403c0.051,0.91,0.101,3.589,0.151,8.041
		l0.101,8.441l-0.101,8.395c-0.05,4.449-0.102,7.129-0.152,8.038V227.332L1.626,227.332z M7.239,223.74v-0.403l-0.1-5.865
		l-0.05-6.979v-1.061c0-1.366,0-3.743,0.05-7.029c0-2.123,0.05-3.691,0.1-4.651v-0.556c1.265-0.203,4.095-0.354,5.967-0.354
		c6.774,0,9.91,4.298,9.91,13.753c0,5.916-1.265,10.062-3.691,11.883c-1.314,0.961-3.589,1.518-6.32,1.518l-2.781-0.051
		c-1.417-0.052-2.275-0.052-2.68-0.153C7.593,223.792,7.493,223.792,7.239,223.74L7.239,223.74z"/>
	<path d="M55.831,226.624v-4.046c-2.782,1.265-5.46,1.871-8.191,1.871c-5.562,0-8.141-3.133-8.141-9.809v-0.858l0.557-0.052
		c0.96-0.051,3.438-0.051,7.433-0.051c4.753,0,7.585,0,8.546,0.051l0.557,0.052c0.05-0.91,0.05-1.315,0.05-2.176
		c0-3.489-0.455-5.308-1.718-6.927c-1.618-2.022-4.5-3.034-8.495-3.034c-8.192,0-11.984,4.248-11.984,13.298
		c0,8.748,3.945,12.945,12.136,12.945C49.662,227.888,52.998,227.433,55.831,226.624L55.831,226.624z M39.701,210.847
		c0.303-4.195,2.275-6.016,6.319-6.016c4.096,0,5.765,1.618,5.765,5.662v0.354H51.33c-0.859,0.052-2.426,0.052-4.651,0.052h-0.86
		c-3.185,0-5.056,0-5.612-0.052H39.701L39.701,210.847z"/>
	<path d="M63.406,227.332h5.159v-0.506c-0.152-1.619-0.252-4.6-0.304-8.95v-1.112c0-4.298,0.203-5.917,0.962-7.736
		c0.96-2.427,2.579-3.59,4.752-3.59c0.91,0,1.872,0.153,3.085,0.507v-3.641c-1.063-0.455-1.922-0.658-2.934-0.658
		c-2.022,0-3.741,0.859-4.853,2.479c-0.557,0.758-0.708,1.063-1.366,2.478v-0.708l0.051-3.187v-0.506h-4.551
		c0.051,0.253,0.051,0.404,0.051,0.506c0.05,0.858,0.101,2.832,0.152,5.918l0.051,6.167l-0.051,6.372
		c-0.051,2.831-0.102,4.753-0.152,5.663C63.458,226.926,63.458,227.129,63.406,227.332L63.406,227.332z"/>
	<path d="M101.892,227.332h5.663l0.102-0.506l1.872-7.231l1.668-6.471c1.567-5.765,2.832-10.518,3.438-12.438l0.253-0.961
		l0.303,1.112l1.467,5.308c1.668,6.22,2.325,8.697,3.59,13.905c0.707,2.783,1.213,5.007,1.616,6.776l0.152,0.506h5.714l0.101-0.506
		c0.505-1.619,1.265-4.449,2.326-8.394c0.911-3.337,1.618-5.967,2.174-7.939l2.529-8.646l2.275-7.736l0.202-0.508h-4.753
		l-0.101,0.508l-1.517,6.42l-2.073,8.345l-1.567,6.371l-1.517,5.359l-0.253,1.012c-0.151-0.456-0.252-0.759-0.303-0.962
		c-0.102-0.354-0.556-2.123-1.315-5.158l-1.669-6.471l-1.92-8.243l-1.618-6.674c-0.05-0.101-0.05-0.252-0.101-0.507h-6.068
		l-0.102,0.507c-0.252,1.265-0.758,3.541-1.568,6.928c-1.061,4.399-1.769,7.181-2.073,8.292l-1.618,6.219l-1.416,5.259l-0.252,0.963
		l-0.303-1.013c-0.051-0.303-0.506-2.021-1.365-5.157c-0.809-3.084-1.315-5.107-1.567-6.068l-1.922-8.091l-1.719-7.331l-0.101-0.507
		h-6.169l0.151,0.507c1.771,5.614,2.983,9.557,4.854,16.383l2.175,7.686l2.225,8.647L101.892,227.332L101.892,227.332z"/>
	<path d="M140.807,227.332h5.208c-0.051-0.203-0.051-0.404-0.051-0.506c-0.05-0.81-0.101-2.68-0.152-5.664l-0.05-6.37l0.05-6.17
		c0.051-3.185,0.102-5.158,0.152-5.915c0-0.102,0-0.254,0.051-0.507h-5.208c0,0.253,0,0.405,0.05,0.507
		c0.051,0.857,0.051,2.832,0.102,5.915l0.101,6.17l-0.101,6.37c0,2.833-0.051,4.754-0.102,5.664
		C140.807,226.926,140.807,227.129,140.807,227.332L140.807,227.332z M140.555,194.718c0,2.023,0.961,3.135,2.729,3.135
		c1.972,0,2.883-1.011,2.883-3.135c0-2.073-0.911-3.135-2.782-3.135C141.516,191.583,140.555,192.645,140.555,194.718
		L140.555,194.718z"/>
	<path d="M152.351,226.574c3.438,0.909,6.422,1.313,9.405,1.313c6.32,0,10.315-3.085,10.315-7.938c0-2.224-0.91-4.247-2.579-5.409
		c-1.417-1.011-2.68-1.518-5.866-2.379c-2.933-0.757-3.539-0.96-4.398-1.415c-1.062-0.555-1.668-1.465-1.668-2.577
		c0-2.073,1.82-3.286,4.904-3.286c2.124,0,4.602,0.556,7.635,1.719v-4.45c-0.708,0-0.858,0-1.92-0.102
		c-2.883-0.303-4.804-0.403-6.27-0.403c-5.663,0-9.253,2.831-9.253,7.23c0,2.022,0.86,3.843,2.377,4.955
		c1.162,0.859,2.325,1.366,4.853,2.073c1.567,0.453,2.63,0.757,3.084,0.909c0.758,0.201,1.417,0.455,2.023,0.81
		c0.455,0.203,0.809,0.455,1.113,0.81c0.557,0.606,0.859,1.415,0.859,2.275c0,2.376-2.124,3.842-5.613,3.842
		c-2.78,0-5.511-0.707-9-2.273L152.351,226.574L152.351,226.574z"/>
	<path d="M176.927,226.574c3.438,0.909,6.422,1.313,9.405,1.313c6.32,0,10.315-3.085,10.315-7.938c0-2.224-0.911-4.247-2.579-5.409
		c-1.417-1.011-2.68-1.518-5.865-2.379c-2.933-0.757-3.54-0.96-4.399-1.415c-1.062-0.555-1.669-1.465-1.669-2.577
		c0-2.073,1.82-3.286,4.905-3.286c2.123,0,4.6,0.556,7.635,1.719v-4.45c-0.708,0-0.859,0-1.921-0.102
		c-2.882-0.303-4.803-0.403-6.269-0.403c-5.664,0-9.253,2.831-9.253,7.23c0,2.022,0.859,3.843,2.376,4.955
		c1.163,0.859,2.327,1.366,4.854,2.073c1.568,0.453,2.629,0.757,3.084,0.909c0.758,0.201,1.416,0.455,2.023,0.81
		c0.456,0.203,0.81,0.455,1.113,0.81c0.555,0.606,0.858,1.415,0.858,2.275c0,2.376-2.124,3.842-5.612,3.842
		c-2.781,0-5.512-0.707-9-2.273v4.298H176.927z"/>
	<path d="M223.094,226.624v-4.046c-2.78,1.265-5.46,1.871-8.191,1.871c-5.561,0-8.14-3.133-8.14-9.809v-0.858l0.557-0.052
		c0.961-0.051,3.438-0.051,7.433-0.051c4.752,0,7.584,0,8.545,0.051l0.556,0.052c0.05-0.91,0.05-1.315,0.05-2.176
		c0-3.489-0.455-5.308-1.718-6.927c-1.618-2.022-4.5-3.034-8.495-3.034c-8.191,0-11.983,4.248-11.983,13.298
		c0,8.748,3.943,12.945,12.136,12.945C216.925,227.888,220.263,227.433,223.094,226.624L223.094,226.624z M206.965,210.847
		c0.304-4.195,2.275-6.016,6.321-6.016c4.095,0,5.764,1.618,5.764,5.662v0.354h-0.455c-0.859,0.052-2.427,0.052-4.652,0.052h-0.859
		c-3.185,0-5.056,0-5.613-0.052H206.965L206.965,210.847z"/>
	<path d="M230.671,227.332h5.207l-0.051-0.506l-0.05-4.55l-0.102-5.513l0.051-4.754c0-2.982,0.354-4.296,1.264-5.309
		c1.112-1.162,2.629-1.717,4.956-1.717c1.971,0,3.337,0.403,4.297,1.212c1.164,1.011,1.568,2.327,1.568,5.41l-0.052,4.551
		l-0.101,7.383v0.555c0,1.569,0,1.973,0.152,3.236h5.359c-0.303-1.314-0.354-1.821-0.354-3.691
		c-0.051-2.377-0.101-5.915-0.101-8.646v-2.528c0-0.507,0.051-0.962,0.051-1.467c0-3.54-0.202-4.651-0.859-5.864
		c-0.404-0.809-1.112-1.518-1.972-2.024c-1.618-1.01-3.641-1.465-6.219-1.465c-3.793,0-6.472,1.011-8.292,3.084v-0.554l-0.052-1.469
		l0.052-0.506h-4.753c0.05,0.253,0.05,0.404,0.05,0.506c0.05,0.858,0.101,2.832,0.151,5.918l0.051,6.167l-0.051,6.372
		c-0.051,2.831-0.101,4.753-0.151,5.663C230.722,226.926,230.722,227.129,230.671,227.332L230.671,227.332z"/>
	<path d="M259.341,226.574c3.438,0.909,6.421,1.313,9.404,1.313c6.321,0,10.315-3.085,10.315-7.938c0-2.224-0.91-4.247-2.579-5.409
		c-1.415-1.011-2.68-1.518-5.865-2.379c-2.932-0.757-3.54-0.96-4.398-1.415c-1.063-0.555-1.668-1.465-1.668-2.577
		c0-2.073,1.82-3.286,4.905-3.286c2.124,0,4.601,0.556,7.635,1.719v-4.45c-0.708,0-0.859,0-1.92-0.102
		c-2.883-0.303-4.805-0.403-6.271-0.403c-5.664,0-9.253,2.831-9.253,7.23c0,2.022,0.859,3.843,2.376,4.955
		c1.164,0.859,2.326,1.366,4.853,2.073c1.567,0.453,2.63,0.757,3.085,0.909c0.759,0.201,1.416,0.455,2.022,0.81
		c0.455,0.203,0.81,0.455,1.112,0.81c0.557,0.606,0.86,1.415,0.86,2.275c0,2.376-2.124,3.842-5.614,3.842
		c-2.782,0-5.51-0.707-9-2.273L259.341,226.574L259.341,226.574z"/>
	<path d="M303.233,202.049l-0.557-0.051c-1.314-0.151-3.083-0.253-3.893-0.304c-0.759-0.05-1.518-0.05-2.327-0.05
		c-4.5,0-7.18,0.858-9.051,2.884c-2.174,2.375-3.286,5.863-3.286,10.313c0,4.398,0.961,7.584,2.983,9.858
		c2.022,2.276,4.349,3.187,8.343,3.187c2.782,0,5.41-0.455,7.838-1.313v-3.844c-1.769,1.01-4.601,1.719-6.877,1.719
		c-4.753,0-7.129-3.287-7.129-9.81c0-6.928,2.022-9.658,7.231-9.658c2.123,0,4.398,0.405,6.725,1.163L303.233,202.049
		L303.233,202.049z"/>
	<path d="M310.119,227.332h5.208l-0.051-0.506c-0.052-1.315-0.101-3.439-0.101-6.321c-0.051-2.78-0.051-5.157-0.101-7.078v-0.556
		c0-3.389,0.354-4.957,1.213-6.019c1.012-1.212,2.731-1.871,5.056-1.871c4.35,0,5.917,1.72,5.917,6.421v0.404l-0.202,9.912v1.162
		c0,2.225,0,2.783,0.202,4.45h5.309c-0.354-3.085-0.456-5.864-0.456-10.518c0-1.871,0-3.893,0.052-6.169v-0.556
		c0-3.287-0.405-4.855-1.567-6.017c-1.568-1.619-4.197-2.477-7.535-2.477c-3.387,0-5.714,0.808-7.838,2.679
		c0-0.405-0.05-0.71-0.05-0.859c0-0.305,0.05-2.074,0.102-5.208l0.152-6.32l0.051-0.507h-5.361l0.052,0.507l0.152,9.556l0.051,8.647
		l-0.051,8.595l-0.152,8.142L310.119,227.332L310.119,227.332z"/>
	<path d="M355.545,223.187c0,1.768,0.1,3.133,0.303,4.146h4.498c-0.505-2.226-0.707-5.511-0.707-11.175v-0.708l0.049-4.603v-0.606
		c0-3.942-0.302-5.105-1.668-6.371c-1.668-1.566-3.993-2.224-8.09-2.224c-1.417,0-2.932,0.101-4.449,0.253
		c-1.721,0.202-2.984,0.303-3.793,0.303c-0.102,0-0.252,0-0.455-0.051l-0.254,4.146c3.034-0.91,5.563-1.315,8.141-1.315
		c4.095,0,5.764,1.214,5.764,4.299v1.313v0.557c-1.669-0.102-4.146-0.203-5.461-0.203c-7.231,0-11.022,2.884-11.022,8.496
		c0,5.509,3.083,8.443,8.848,8.443C351.347,227.888,353.824,226.522,355.545,223.187L355.545,223.187z M354.887,214.083v0.254
		c0,2.578-0.253,4.601-0.709,6.168c-0.757,2.427-2.983,3.995-5.764,3.995c-3.185,0-5.107-1.922-5.107-5.107
		c0-3.842,2.327-5.511,7.687-5.511c1.061,0,1.82,0,3.337,0.152L354.887,214.083L354.887,214.083z"/>
	<path d="M369.017,227.332h5.208l-0.051-0.506c-0.051-1.366-0.1-3.489-0.1-6.372c0-2.578-0.051-4.702-0.051-6.32
		c-0.051-2.427-0.102-3.994-0.102-4.752v-3.944v-0.453h0.607l2.731,0.05c1.871,0.051,2.224,0.102,3.438,0.152l0.354-3.034h-0.456
		c-1.466,0.1-3.235,0.152-5.259,0.152h-0.91h-0.505v-0.507l0.053-2.428c0.051-2.527,0.151-3.134,0.858-3.893
		c0.658-0.657,1.518-0.963,2.883-0.963c1.265,0,2.529,0.203,3.996,0.608v-3.842c-0.556,0.051-0.709,0.051-1.316,0.051h-0.454h-2.276
		c-2.932,0-4.498,0.253-5.713,0.91c-1.821,0.96-2.629,2.881-2.629,6.068v3.539v0.402c-0.303,0.053-0.405,0.053-0.556,0.053
		c-0.204,0-0.507,0-0.963-0.053h-0.91c-0.1,0-0.252-0.05-0.454-0.05v2.934l0.454-0.051l0.963-0.052l1.01-0.052h0.456v0.507
		l-0.051,4.197l-0.051,4.602l-0.101,6.218l-0.102,6.319V227.332L369.017,227.332z"/>
	<path d="M399.041,227.079v-3.186c-1.567,0.403-2.478,0.505-3.49,0.505c-2.021,0-3.085-0.858-3.285-2.729
		c-0.101-0.911-0.101-1.314-0.153-4.297v-3.439l-0.05-3.691v-4.702v-0.454h0.505h3.034c1.72,0,2.781,0.051,3.235,0.051
		c0.153,0,0.153,0,0.355,0.051l0.354-3.086c-1.416,0.151-1.971,0.151-3.894,0.203l-3.085,0.051h-0.505v-0.81
		c0-0.302,0-1.112,0.05-2.428l0.101-3.386l0.051-0.608l-5.054,1.417l0.049,0.404l0.052,2.831v2.021v0.507h-0.456h-1.163
		c-0.303-0.052-0.658-0.052-1.063-0.052l-0.354-0.051v2.934h0.354l1.314-0.052h0.911h0.505v0.606l0.05,3.692l-0.05,3.995
		l-0.051,3.692c-0.1,2.627-0.152,4.348-0.152,5.105c0,3.843,2.124,5.714,6.373,5.714
		C395.451,227.888,396.867,227.686,399.041,227.079L399.041,227.079z"/>
	<path d="M403.511,226.574c3.438,0.909,6.422,1.313,9.404,1.313c6.32,0,10.315-3.085,10.315-7.938c0-2.224-0.911-4.247-2.578-5.409
		c-1.417-1.011-2.682-1.518-5.865-2.379c-2.933-0.757-3.54-0.96-4.398-1.415c-1.064-0.555-1.669-1.465-1.669-2.577
		c0-2.073,1.82-3.286,4.903-3.286c2.124,0,4.602,0.556,7.636,1.719v-4.45c-0.707,0-0.858,0-1.922-0.102
		c-2.882-0.303-4.803-0.403-6.27-0.403c-5.663,0-9.253,2.831-9.253,7.23c0,2.022,0.859,3.843,2.377,4.955
		c1.162,0.859,2.325,1.366,4.853,2.073c1.567,0.453,2.63,0.757,3.087,0.909c0.757,0.201,1.415,0.455,2.02,0.81
		c0.456,0.203,0.811,0.455,1.113,0.81c0.556,0.606,0.859,1.415,0.859,2.275c0,2.376-2.123,3.842-5.613,3.842
		c-2.782,0-5.51-0.707-9-2.273L403.511,226.574L403.511,226.574z"/>
	<path d="M429.755,227.332h5.209l-0.051-0.506c-0.051-1.366-0.103-3.489-0.103-6.372c0-2.578-0.05-4.702-0.05-6.32
		c-0.051-2.427-0.101-3.994-0.101-4.752v-3.944v-0.453h0.606l2.731,0.05c1.872,0.051,2.225,0.102,3.438,0.152l0.354-3.034h-0.454
		c-1.466,0.1-3.236,0.152-5.26,0.152h-0.91h-0.506v-0.507l0.051-2.428c0.051-2.527,0.151-3.134,0.857-3.893
		c0.659-0.657,1.52-0.963,2.884-0.963c1.264,0,2.529,0.203,3.995,0.608v-3.842c-0.557,0.051-0.708,0.051-1.315,0.051h-0.454h-2.276
		c-2.93,0-4.499,0.253-5.714,0.91c-1.82,0.96-2.629,2.881-2.629,6.068v3.539v0.402c-0.304,0.053-0.403,0.053-0.556,0.053
		c-0.201,0-0.505,0-0.961-0.053h-0.91c-0.102,0-0.254-0.05-0.453-0.05v2.934l0.453-0.051l0.961-0.052l1.012-0.052h0.454v0.507
		l-0.051,4.197l-0.051,4.602l-0.102,6.218l-0.101,6.319V227.332L429.755,227.332z"/>
	<path d="M443.246,214.792c0,9,3.843,13.146,12.135,13.146c8.242,0,12.237-4.146,12.237-12.842c0-9.254-3.794-13.451-12.137-13.451
		C447.089,201.646,443.246,205.791,443.246,214.792L443.246,214.792z M448.452,214.741c0-6.929,2.022-9.81,6.929-9.81
		c4.854,0,7.027,2.982,7.027,9.557c0,7.23-2.021,10.162-6.927,10.162C450.527,224.65,448.452,221.771,448.452,214.741
		L448.452,214.741z"/>
	<path d="M473.972,227.332h5.209l-0.053-0.506l-0.049-4.55l-0.102-5.513l0.05-4.754c0-2.982,0.354-4.296,1.265-5.309
		c1.113-1.162,2.63-1.717,4.954-1.717c1.974,0,3.34,0.403,4.299,1.212c1.163,1.011,1.567,2.327,1.567,5.41l-0.052,4.551l-0.1,7.383
		v0.555c0,1.569,0,1.973,0.151,3.236h5.359c-0.304-1.314-0.354-1.821-0.354-3.691c-0.051-2.377-0.102-5.915-0.102-8.646v-2.528
		c0-0.507,0.053-0.962,0.053-1.467c0-3.54-0.204-4.651-0.86-5.864c-0.404-0.809-1.113-1.518-1.973-2.024
		c-1.618-1.01-3.642-1.465-6.218-1.465c-3.794,0-6.475,1.011-8.294,3.084v-0.554l-0.051-1.469l0.051-0.506h-4.753
		c0.052,0.253,0.052,0.404,0.052,0.506c0.05,0.858,0.102,2.832,0.152,5.918l0.051,6.167l-0.051,6.372
		c-0.051,2.831-0.103,4.753-0.152,5.663C474.023,226.926,474.023,227.129,473.972,227.332L473.972,227.332z"/>
	<path d="M521.3,223.236c0,2.021,0.051,3.084,0.203,4.096h4.702c-0.304-1.566-0.454-3.236-0.606-5.865
		c-0.101-2.428-0.202-7.23-0.202-12.187c0-6.573,0.15-14.916,0.252-17.546v-0.354h-5.157v0.404c0.051,1.214,0.101,2.983,0.152,5.31
		c0.05,1.87,0.101,3.338,0.101,4.298v0.556l-0.051,0.607c-0.759-0.254-1.012-0.304-1.518-0.455
		c-1.265-0.303-2.881-0.455-4.399-0.455c-7.635,0-11.934,4.955-11.934,13.702c0,8.394,3.49,12.54,10.569,12.54
		C517.761,227.888,519.884,226.624,521.3,223.236L521.3,223.236z M520.693,205.894l0.052,0.556v2.176
		c0,2.628-0.052,5.46-0.102,7.987c-0.051,1.567-0.201,2.933-0.557,4.045c-0.657,2.327-2.881,3.843-5.611,3.843
		c-4.299,0-6.373-3.086-6.373-9.505c0-6.776,2.429-10.063,7.434-10.063C517.255,204.932,518.722,205.233,520.693,205.894
		L520.693,205.894z"/>
	<path d="M532,226.574c3.439,0.909,6.422,1.313,9.406,1.313c6.318,0,10.313-3.085,10.313-7.938c0-2.224-0.909-4.247-2.576-5.409
		c-1.419-1.011-2.682-1.518-5.868-2.379c-2.932-0.757-3.538-0.96-4.397-1.415c-1.063-0.555-1.669-1.465-1.669-2.577
		c0-2.073,1.82-3.286,4.906-3.286c2.123,0,4.601,0.556,7.635,1.719v-4.45c-0.708,0-0.86,0-1.922-0.102
		c-2.882-0.303-4.804-0.403-6.271-0.403c-5.662,0-9.254,2.831-9.254,7.23c0,2.022,0.86,3.843,2.377,4.955
		c1.164,0.859,2.328,1.366,4.853,2.073c1.569,0.453,2.631,0.757,3.086,0.909c0.758,0.201,1.417,0.455,2.023,0.81
		c0.454,0.203,0.809,0.455,1.112,0.81c0.555,0.606,0.857,1.415,0.857,2.275c0,2.376-2.122,3.842-5.612,3.842
		c-2.781,0-5.51-0.707-9-2.273V226.574L532,226.574z"/>
	<path d="M557.438,224.753c0,2.073,0.909,3.083,2.729,3.083c1.922,0,2.832-1.01,2.832-3.034c0-2.173-0.91-3.184-2.783-3.184
		C558.346,221.618,557.438,222.629,557.438,224.753L557.438,224.753z"/>
</g>
</svg>
