<?xml version="1.0" encoding="utf-8"?>
<!-- Generator: Adobe Illustrator 16.0.0, SVG Export Plug-In . SVG Version: 6.00 Build 0)  -->
<!DOCTYPE svg PUBLIC "-//W3C//DTD SVG 1.1//EN" "http://www.w3.org/Graphics/SVG/1.1/DTD/svg11.dtd">
<svg version="1.1" id="Layer_1" xmlns="http://www.w3.org/2000/svg" xmlns:xlink="http://www.w3.org/1999/xlink" x="0px" y="0px"
	 width="166.638px" height="150px" viewBox="0 0 166.638 150" enable-background="new 0 0 166.638 150" xml:space="preserve">
<g>
	<polygon fill-rule="evenodd" clip-rule="evenodd" fill="#737373" points="2,111.068 4.765,111.068 11.572,122.06 11.572,122.06 
		11.572,111.068 14.071,111.068 14.071,126.007 11.306,126.007 4.552,115.018 4.5,115.018 4.5,126.007 2,126.007 	"/>
	<path fill-rule="evenodd" clip-rule="evenodd" fill="#737373" d="M25.451,123.606c0,0.588,0.105,0.801,0.531,0.801
		c0.159,0,0.373,0,0.585,0v1.653c-0.32,0.106-1.064,0.266-1.49,0.266c-0.957,0-1.647-0.373-1.808-1.333
		c-0.958,0.907-2.5,1.333-3.775,1.333c-1.916,0-3.669-1.065-3.669-3.2c0-2.668,2.127-3.094,4.148-3.361
		c1.701-0.32,3.244-0.105,3.244-1.494c0-1.227-1.277-1.493-2.234-1.493c-1.329,0-2.287,0.534-2.393,1.708h-2.393
		c0.213-2.774,2.552-3.575,4.945-3.575c2.075,0,4.308,0.854,4.308,3.147V123.606z M23.058,120.618
		c-0.745,0.48-1.861,0.428-2.924,0.641c-1.011,0.16-1.915,0.533-1.915,1.762c0,1.066,1.33,1.387,2.18,1.387
		c1.063,0,2.659-0.533,2.659-2.027V120.618z"/>
	<path fill-rule="evenodd" clip-rule="evenodd" fill="#737373" d="M26.515,115.178h1.808v-3.201h2.339v3.201h2.181v1.813h-2.181
		v5.762c0,0.961,0.106,1.494,1.17,1.494c0.319,0,0.639,0,1.011-0.107v1.867c-0.532,0-1.063,0.106-1.542,0.106
		c-2.5,0-2.978-0.96-2.978-2.774v-6.348h-1.808V115.178z"/>
	<path fill-rule="evenodd" clip-rule="evenodd" fill="#737373" d="M34.172,111.068h2.393v2.295h-2.393V111.068z M34.172,115.178
		h2.393v10.829h-2.393V115.178z"/>
	<path fill-rule="evenodd" clip-rule="evenodd" fill="#737373" d="M38.214,120.618c0-3.307,1.967-5.708,5.423-5.708
		c3.51,0,5.478,2.401,5.478,5.708c0,3.309-1.967,5.708-5.478,5.708C40.181,126.326,38.214,123.927,38.214,120.618L38.214,120.618z
		 M46.722,120.618c0-1.867-0.957-3.841-3.084-3.841c-2.127,0-3.031,1.974-3.031,3.841s0.904,3.789,3.031,3.789
		C45.765,124.407,46.722,122.485,46.722,120.618L46.722,120.618z"/>
	<path fill-rule="evenodd" clip-rule="evenodd" fill="#737373" d="M50.657,115.178h2.287v1.6v0.054
		c0.745-1.173,1.968-1.921,3.351-1.921c2.339,0,3.829,1.229,3.829,3.681v7.416h-2.34v-6.775c-0.053-1.707-0.744-2.454-2.127-2.454
		c-1.595,0-2.605,1.28-2.605,2.882v6.348h-2.393V115.178z"/>
	<path fill-rule="evenodd" clip-rule="evenodd" fill="#737373" d="M71.236,123.606c0,0.588,0.159,0.801,0.585,0.801
		c0.106,0,0.319,0,0.585,0v1.653c-0.372,0.106-1.117,0.266-1.542,0.266c-0.957,0-1.595-0.373-1.808-1.333
		c-0.957,0.907-2.447,1.333-3.722,1.333c-1.968,0-3.723-1.065-3.723-3.2c0-2.668,2.181-3.094,4.148-3.361
		c1.755-0.32,3.244-0.105,3.244-1.494c0-1.227-1.276-1.493-2.233-1.493c-1.33,0-2.233,0.534-2.34,1.708h-2.393
		c0.159-2.774,2.5-3.575,4.892-3.575c2.127,0,4.307,0.854,4.307,3.147V123.606z M68.844,120.618
		c-0.691,0.48-1.862,0.428-2.872,0.641c-1.063,0.16-1.968,0.533-1.968,1.762c0,1.066,1.383,1.387,2.181,1.387
		c1.063,0,2.659-0.533,2.659-2.027V120.618z"/>
	<rect x="73.47" y="111.068" fill-rule="evenodd" clip-rule="evenodd" fill="#737373" width="2.34" height="14.938"/>
	<rect x="83.733" y="111.068" fill-rule="evenodd" clip-rule="evenodd" fill="#737373" width="2.604" height="14.938"/>
	<path fill-rule="evenodd" clip-rule="evenodd" fill="#737373" d="M88.786,115.178h2.233v1.6l0.053,0.054
		c0.691-1.173,1.914-1.921,3.35-1.921c2.34,0,3.83,1.229,3.83,3.681v7.416h-2.395v-6.775c-0.053-1.707-0.689-2.454-2.125-2.454
		c-1.596,0-2.605,1.28-2.605,2.882v6.348h-2.34V115.178z"/>
	<path fill-rule="evenodd" clip-rule="evenodd" fill="#737373" d="M102.08,122.54c0.159,1.387,1.17,1.867,2.446,1.867
		c0.904,0,2.499-0.16,2.393-1.387c-0.053-1.281-1.754-1.441-3.51-1.814c-1.754-0.373-3.456-1.014-3.456-3.201
		c0-2.347,2.551-3.095,4.52-3.095c2.18,0,4.2,0.908,4.465,3.308h-2.445c-0.213-1.12-1.17-1.44-2.18-1.44
		c-0.691,0-1.967,0.16-1.967,1.12c0,1.174,1.754,1.334,3.508,1.762c1.703,0.373,3.457,1.014,3.457,3.146
		c0,2.562-2.605,3.521-4.786,3.521c-2.713,0-4.733-1.226-4.786-3.786H102.08z"/>
	<path fill-rule="evenodd" clip-rule="evenodd" fill="#737373" d="M109.63,115.178h1.809v-3.201h2.34v3.201h2.18v1.813h-2.18v5.762
		c0,0.961,0.105,1.494,1.17,1.494c0.318,0,0.691,0,1.01-0.107v1.867c-0.531,0-1.01,0.106-1.543,0.106
		c-2.499,0-2.977-0.96-2.977-2.774v-6.348h-1.809V115.178z"/>
	<path fill-rule="evenodd" clip-rule="evenodd" fill="#737373" d="M117.288,111.068h2.395v2.295h-2.395V111.068z M117.288,115.178
		h2.395v10.829h-2.395V115.178z"/>
	<path fill-rule="evenodd" clip-rule="evenodd" fill="#737373" d="M120.745,115.178h1.809v-3.201h2.393v3.201h2.127v1.813h-2.127
		v5.762c0,0.961,0.053,1.494,1.116,1.494c0.373,0,0.691,0,1.012-0.107v1.867c-0.533,0-1.012,0.106-1.543,0.106
		c-2.499,0-2.924-0.96-2.977-2.774v-6.348h-1.809V115.178z"/>
	<path fill-rule="evenodd" clip-rule="evenodd" fill="#737373" d="M137.815,126.007h-2.288v-1.494h-0.053
		c-0.586,1.067-1.914,1.813-3.084,1.813c-2.819,0-4.042-1.438-4.042-4.267v-6.882h2.393v6.669c0,1.867,0.797,2.561,2.075,2.561
		c1.967,0,2.658-1.281,2.658-2.936v-6.294h2.34V126.007z"/>
	<path fill-rule="evenodd" clip-rule="evenodd" fill="#737373" d="M138.825,115.178h1.809v-3.201h2.393v3.201h2.125v1.813h-2.125
		v5.762c0,0.961,0.053,1.494,1.116,1.494c0.373,0,0.691,0,1.01-0.107v1.867c-0.531,0-1.01,0.106-1.541,0.106
		c-2.5,0-2.924-0.96-2.977-2.774v-6.348h-1.809V115.178z"/>
	<path fill-rule="evenodd" clip-rule="evenodd" fill="#737373" d="M148.292,121.206c0,1.707,0.957,3.201,2.924,3.201
		c1.383,0,2.18-0.588,2.605-1.762h2.286c-0.531,2.348-2.551,3.681-4.891,3.681c-3.403,0-5.265-2.399-5.265-5.708
		c0-3.094,1.967-5.708,5.211-5.708c3.403,0,5.478,3.095,5.052,6.296H148.292z M153.874,119.659
		c-0.105-1.494-1.117-2.882-2.711-2.882c-1.648,0-2.818,1.28-2.871,2.882H153.874z"/>
	<path fill-rule="evenodd" clip-rule="evenodd" fill="#737373" d="M159.404,122.54c0.16,1.387,1.17,1.867,2.447,1.867
		c0.903,0,2.446-0.16,2.393-1.387c-0.055-1.281-1.756-1.441-3.51-1.814s-3.458-1.014-3.458-3.201c0-2.347,2.553-3.095,4.52-3.095
		c2.182,0,4.202,0.908,4.468,3.308h-2.446c-0.213-1.12-1.17-1.44-2.235-1.44c-0.637,0-1.914,0.16-1.914,1.12
		c0,1.174,1.756,1.334,3.458,1.762c1.754,0.373,3.51,1.014,3.51,3.146c0,2.562-2.606,3.521-4.841,3.521
		c-2.711,0-4.731-1.226-4.731-3.786H159.404z"/>
	<path fill-rule="evenodd" clip-rule="evenodd" fill="#737373" d="M44.594,143.292c0-3.254,1.968-5.654,5.425-5.654
		s5.423,2.4,5.423,5.654c0,3.36-1.967,5.708-5.423,5.708S44.594,146.652,44.594,143.292L44.594,143.292z M53.104,143.292
		c0-1.814-0.958-3.787-3.084-3.787c-2.127,0-3.084,1.973-3.084,3.787c0,1.921,0.957,3.841,3.084,3.841
		C52.146,147.133,53.104,145.213,53.104,143.292L53.104,143.292z"/>
	<path fill-rule="evenodd" clip-rule="evenodd" fill="#737373" d="M55.975,137.903h1.755v-0.906c0-2.72,1.436-3.2,2.978-3.2
		c0.744,0,1.329,0.053,1.701,0.16v1.866c-0.319-0.107-0.638-0.16-1.116-0.16c-0.639,0-1.17,0.266-1.17,1.174v1.066h2.021v1.814
		h-2.021v9.017H57.73v-9.017h-1.755V137.903z"/>
	<polygon fill-rule="evenodd" clip-rule="evenodd" fill="#737373" points="68.844,133.797 71.449,133.797 71.449,139.718 
		78.203,139.718 78.203,133.797 80.809,133.797 80.809,148.734 78.203,148.734 78.203,142.013 71.449,142.013 71.449,148.734 
		68.844,148.734 	"/>
	<path fill-rule="evenodd" clip-rule="evenodd" fill="#737373" d="M85.063,143.933c0,1.706,0.904,3.2,2.872,3.2
		c1.383,0,2.234-0.586,2.659-1.814h2.234c-0.531,2.402-2.5,3.682-4.893,3.682c-3.35,0-5.265-2.348-5.265-5.653
		c0-3.096,2.022-5.709,5.212-5.709c3.403,0,5.477,3.041,5.104,6.295H85.063z M90.593,142.386c-0.106-1.494-1.116-2.881-2.711-2.881
		c-1.649,0-2.766,1.279-2.819,2.881H90.593z"/>
	<path fill-rule="evenodd" clip-rule="evenodd" fill="#737373" d="M103.409,146.332c0,0.588,0.107,0.801,0.531,0.801
		c0.16,0,0.373,0,0.586-0.053v1.654c-0.318,0.16-1.064,0.266-1.488,0.266c-0.958,0-1.649-0.32-1.809-1.279
		c-0.957,0.906-2.498,1.279-3.776,1.279c-1.914,0-3.668-1.014-3.668-3.148c0-2.665,2.127-3.146,4.147-3.36
		c1.702-0.318,3.245-0.105,3.245-1.492c0-1.281-1.277-1.494-2.234-1.494c-1.329,0-2.286,0.533-2.393,1.707h-2.393
		c0.213-2.775,2.553-3.574,4.946-3.574c2.074,0,4.307,0.854,4.307,3.146V146.332z M101.016,143.292
		c-0.744,0.48-1.861,0.48-2.924,0.693c-1.01,0.16-1.914,0.534-1.914,1.761c0,1.066,1.328,1.387,2.18,1.387
		c1.01,0,2.658-0.533,2.658-2.027V143.292z"/>
	<rect x="105.589" y="133.797" fill-rule="evenodd" clip-rule="evenodd" fill="#737373" width="2.393" height="14.938"/>
	<path fill-rule="evenodd" clip-rule="evenodd" fill="#737373" d="M109.046,137.903h1.807v-3.2h2.393v3.2h2.127v1.814h-2.127v5.761
		c0,0.961,0.054,1.494,1.117,1.494c0.373,0,0.691,0,1.01-0.107v1.869c-0.531,0-1.01,0.105-1.541,0.105
		c-2.446,0-2.924-0.959-2.979-2.773v-6.349h-1.807V137.903z"/>
	<path fill-rule="evenodd" clip-rule="evenodd" fill="#737373" d="M116.703,133.797h2.34v5.548h0.053
		c0.586-0.961,1.809-1.707,3.245-1.707c2.338,0,3.829,1.227,3.829,3.68v7.417h-2.393v-6.776c-0.055-1.707-0.691-2.453-2.127-2.453
		c-1.596,0-2.606,1.279-2.606,2.826v6.403h-2.34V133.797z"/>
	<path fill-rule="evenodd" clip-rule="evenodd" fill="#737373" d="M138.399,50.519l-26.322-48.28H15.135
		c-4.84,0-8.775,4-8.775,8.909v78.849c0,4.908,3.935,8.909,8.775,8.909h96.835L138.399,50.519z M55.603,72.285h-7.87L28.375,40.489
		h-0.159v31.795H21.09V29.072h7.87l19.463,31.849h0.105V29.072h7.073V72.285z M70.386,72.285H62.94V29.072h7.445V72.285z
		 M112.13,29.072v43.212h-7.444V52.813H85.328v19.472h-7.444V29.072h7.444V46.25h19.358V29.072H112.13z"/>
	<path fill-rule="evenodd" clip-rule="evenodd" fill="#36578C" d="M118.565,98.905l26.429-48.387L118.67,2.238h6.595
		c3.616,0,7.976,2.614,9.731,5.815l23.079,42.465L134.889,93.09c-1.754,3.203-6.114,5.815-9.73,5.815H118.565z"/>
</g>
</svg>
