<?xml version="1.0" encoding="utf-8"?>
<!-- Generator: Adobe Illustrator 16.0.3, SVG Export Plug-In . SVG Version: 6.00 Build 0)  -->
<!DOCTYPE svg PUBLIC "-//W3C//DTD SVG 1.1//EN" "http://www.w3.org/Graphics/SVG/1.1/DTD/svg11.dtd">
<svg version="1.1" id="Layer_1" xmlns="http://www.w3.org/2000/svg" xmlns:xlink="http://www.w3.org/1999/xlink" x="0px" y="0px"
	 width="182px" height="128px" viewBox="0 0 182 128" enable-background="new 0 0 182 128" xml:space="preserve">
<polygon fill="#0F9A49" points="75.591,89.689 82.998,76.285 101.414,79.605 "/>
<polygon fill="#9A6339" points="110.921,74.484 103.98,63.848 124.645,60.879 "/>
<polygon fill="#D8AB28" points="77.927,17.516 73.113,30.425 61.207,19.146 "/>
<polygon fill="#FAE252" points="80.487,18.613 96.232,35.208 75.673,31.522 "/>
<path fill="#F5E700" d="M79.023,15l20.87,5.653l-5.125,10.942L79.023,15z"/>
<polygon fill="#2768B2" points="20.458,74.663 18,60.702 29.007,52.014 "/>
<polygon fill="#D8AB28" points="97.329,31.186 102.452,20.244 113.938,27.497 "/>
<polygon fill="#A17E2D" points="122.805,79.641 107.996,79.971 121.721,66.364 "/>
<polygon fill="#D81E3D" points="36.189,29.877 46.392,25.477 41.986,38.125 "/>
<polygon fill="#135B43" points="75.226,87.497 67.66,85.4 82.633,74.09 "/>
<polygon fill="#9C6F5B" points="73.396,87.863 63.795,94.654 65.832,85.768 "/>
<polygon fill="#C6A896" points="46.552,103.025 39.911,92.207 53.776,96.282 "/>
<polygon fill="#D41B5E" points="41.986,38.125 35.308,47.609 28.826,38.187 "/>
<polygon fill="#279DD8" points="29.007,52.014 18,60.702 25.594,45.378 "/>
<polygon fill="#26A9E1" points="28.922,79.676 20.458,74.663 30.898,68.297 "/>
<polygon fill="#F8D81C" points="62.666,101.43 57.515,114.018 52.226,114.018 "/>
<polygon fill="#E570AB" points="41.986,38.125 28.826,38.187 36.189,29.877 "/>
<polygon fill="#E570AB" points="28.826,38.187 35.308,47.609 25.594,45.378 "/>
<polygon fill="#9C6F5B" points="33.012,95.225 35.087,79.746 39.911,92.207 "/>
<polygon fill="#5DBB49" points="75.956,90.789 101.781,80.701 93.045,91.803 "/>
<polygon fill="#A17E2D" points="52.226,114.018 52.852,103.379 63.795,94.654 "/>
<polygon fill="#D9C3B7" points="52.852,103.379 53.787,96.293 63.795,94.654 "/>
<polygon fill="#5D372C" points="33.012,95.225 39.911,92.207 41.314,101.587 "/>
<polygon fill="#D8AB28" points="63.795,94.654 62.666,101.43 52.226,114.018 "/>
<polygon fill="#9A6339" points="39.911,92.207 46.552,103.025 41.314,101.587 "/>
<polygon fill="#C6A896" points="25.806,86.936 28.922,79.676 33.012,95.225 "/>
<polygon fill="#AB2556" points="59.745,21.706 55.939,29.801 46.392,25.477 "/>
<polygon fill="#9C6F5B" points="25.806,86.936 24.724,83.305 28.922,79.676 "/>
<polygon fill="#9C6F5B" points="52.852,103.379 46.552,103.025 53.776,96.282 "/>
<path fill="#815526" d="M33.128,95.213c0.609,0.521,1.215,1.043,1.824,1.564C34.342,96.257,33.735,95.736,33.128,95.213z"/>
<path fill="#815526" d="M38.313,99.377c0.307,0.271,0.615,0.541,0.923,0.813C38.928,99.918,38.62,99.646,38.313,99.377z"/>
<polygon fill="#99CA43" points="99.229,68.234 106.166,78.875 87.751,75.553 "/>
<path fill="#F5E700" d="M100.324,68.604L84.52,47.067l27.158-1.223L100.324,68.604z"/>
<path fill="#E570AB" d="M71.65,32.984l-9.563,12.424L55.939,29.8L71.65,32.984z"/>
<polygon fill="#DE1A85" points="73.113,32.252 57.402,29.069 61.207,20.975 "/>
<path fill="#F8D81C" d="M76.403,32.984l20.559,3.687l-15.733,8.935L76.403,32.984z"/>
<polygon fill="#FAE252" points="100.254,36.671 111.678,44.382 84.52,45.605 "/>
<polygon fill="#F8D81C" points="98.792,33.38 115.4,29.69 110.213,41.097 "/>
<polygon fill="#F8D81C" points="133.057,60.879 123.744,41.09 133.086,42.131 "/>
<polygon fill="#2768B2" points="30.898,68.297 34.75,60.702 40.389,77.491 "/>
<polygon fill="#6EC7E8" points="30.898,68.297 20.458,74.663 29.007,52.014 "/>
<polygon fill="#D8AB28" points="124.676,37.012 115.33,35.978 120.52,24.571 "/>
<polygon fill="#9A6339" points="137.867,60.944 126.458,77.447 125.377,64.169 "/>
<path fill="#DE1A85" d="M55.939,29.801l-2.996,16.101l-10.957-7.776L55.939,29.801z"/>
<polygon fill="#AB2556" points="52.943,45.901 35.308,47.609 41.986,38.125 "/>
<polygon fill="#E570AB" points="55.939,29.801 41.986,38.125 46.392,25.477 "/>
<path fill="#7EC24A" d="M80.804,74.455L65.832,85.768L55.85,76.59L80.804,74.455z"/>
<polygon fill="#9A6339" points="65.832,85.768 53.776,96.282 54.877,83.682 "/>
<polygon fill="#C6A896" points="53.787,96.293 65.832,85.768 63.795,94.654 "/>
<path fill="#9A6339" d="M54.877,83.682L39.91,92.205l-4.824-12.461L54.877,83.682z"/>
<polygon fill="#5D372C" points="39.911,92.207 54.877,83.682 53.776,96.282 "/>
<polygon fill="#DE1A85" points="25.594,45.378 35.308,47.609 29.007,52.014 "/>
<polygon fill="#279DD8" points="35.087,79.746 30.898,68.297 40.389,77.491 "/>
<polygon fill="#3AB9E3" points="35.087,79.746 28.922,79.676 30.898,68.297 "/>
<polygon fill="#5D372C" points="35.087,79.746 33.012,95.225 28.922,79.676 "/>
<polygon fill="#BFDD96" points="95.57,68.604 84.096,75.917 78.961,61.31 "/>
<polygon fill="#D8AB28" points="127.938,58.319 107.271,61.288 118.626,38.53 "/>
<path fill="#A17E2D" d="M80.423,60.213l0.806-14.243l15.805,21.534L80.423,60.213z"/>
<polygon fill="#71204A" points="52.943,45.901 55.939,29.801 62.087,45.408 "/>
<polygon fill="#DE1A85" points="79.035,44.142 64.647,43.946 74.21,31.522 "/>
<polygon fill="#DE1A85" points="62.087,45.408 58.928,53.969 52.943,45.901 "/>
<polygon fill="#023045" points="29.007,52.014 34.75,60.702 30.898,68.297 "/>
<polygon fill="#E570AB" points="29.007,52.014 35.308,47.609 34.75,60.702 "/>
<polygon fill="#E04479" points="34.75,60.702 52.943,45.901 58.928,53.969 "/>
<path fill="#BFDD96" d="M76.034,59.847L56.215,76.59l3.079-22.621L76.034,59.847z"/>
<polygon fill="#7EC24A" points="58.928,53.969 55.85,76.59 40.389,77.491 "/>
<polygon fill="#135B43" points="40.389,77.491 55.85,76.59 54.877,83.682 "/>
<polygon fill="#0F9A49" points="54.877,83.682 55.85,76.59 65.832,85.768 "/>
<polygon fill="#5DBB49" points="57.676,76.225 77.498,59.48 82.633,74.089 "/>
<polygon fill="#5D372C" points="54.877,83.682 35.087,79.746 40.389,77.491 "/>
<polygon fill="#71204A" points="34.75,60.702 35.308,47.609 52.943,45.901 "/>
<path fill="#AB2556" d="M65.012,45.408L79.4,45.604l-0.806,14.243c0,0-11.161-12.007-13.589-14.435L65.012,45.408z"/>
<path fill="#E570AB" d="M76.766,59.116l-16.741-5.879l3.159-8.561L76.766,59.116z"/>
<path fill="#99CA43" d="M40.389,77.491L34.75,60.702l24.178-6.733L40.389,77.491z"/>
<g>
	<path fill="#5D372C" d="M154.139,57.756h-3.279v3.278h-1.719v-3.278h-3.295v-1.729h3.295v-3.295h1.719v3.295h3.279V57.756z"/>
</g>
<g>
	<path fill="#F8D81C" d="M182,36.202h-3.275v3.275h-1.717v-3.275h-3.292v-1.727h3.292v-3.292h1.717v3.292H182V36.202z"/>
</g>
<g>
	<path fill="#F5E700" d="M169.245,43.487h-4.093v4.094h-2.147v-4.094h-4.114v-2.159h4.114v-4.114h2.147v4.114h4.093V43.487z"/>
</g>
<g>
	<path fill="#F8D81C" d="M134.141,28.644h-3.681v3.684h-1.935v-3.684h-3.702v-1.943h3.702v-3.702h1.935v3.702h3.681V28.644z"/>
</g>
<g>
	<path fill="#FAE252" d="M155.326,34.747h-2.865v2.865h-1.501v-2.865h-2.881v-1.511h2.881v-2.88h1.501v2.88h2.865V34.747z"/>
</g>
<g>
	<path fill="#D8AB28" d="M175.113,55.321h-2.863v2.864h-1.505v-2.864h-2.88V53.81h2.88v-2.88h1.505v2.88h2.863V55.321z"/>
</g>
<g>
	<path fill="#FAE252" d="M144.835,43.335h-3.274v3.274h-1.719v-3.274h-3.291v-1.727h3.291v-3.292h1.719v3.292h3.274V43.335z"/>
</g>
<g>
	<path fill="#B6967F" d="M160.021,71.314h-2.865v2.862h-1.506v-2.862h-2.879v-1.512h2.879v-2.881h1.506v2.881h2.865V71.314z"/>
</g>
</svg>
